<svg width="63" height="51" viewBox="0 0 63 51" fill="none" xmlns="http://www.w3.org/2000/svg">
<path d="M51.4063 27.228C48.4594 27.228 45.8027 28.3889 43.7935 30.253H42.9563C44.8874 28.7684 46.4502 27.0605 47.5664 25.1853H47.9124C54.1634 25.1853 59.2535 20.0952 59.2535 13.8442V8.73184C59.2535 5.88542 56.9428 3.5748 54.0964 3.5748H46.6288L46.5841 3.36272C46.1711 1.59905 44.5637 0.326538 42.7554 0.326538H16.6465C14.8382 0.326538 13.2308 1.61022 12.8178 3.36272L12.7731 3.5748H5.30548C2.45906 3.5748 0.148438 5.88542 0.148438 8.73184V13.8442C0.148438 20.0952 5.2385 25.1853 11.4895 25.1853H11.9136C12.282 25.7992 12.6169 26.4243 13.0857 27.0047C15.8651 30.5097 20.1292 33.0882 24.6834 34.2157C24.6276 37.129 23.7904 39.5848 22.9309 41.3038H19.1134C16.6353 41.3038 14.6261 43.313 14.6261 45.7911C14.6261 48.2691 16.6353 50.2784 19.1134 50.2784H48.4371C49.1961 50.2784 49.8994 50.0328 50.5468 49.6421C50.837 49.6644 51.1161 49.7314 51.4063 49.7314C57.5903 49.7314 62.658 44.6972 62.658 38.4797C62.658 32.2622 57.6237 27.228 51.4063 27.228V27.228ZM58.4944 43.9828L55.8936 41.3819C56.2396 40.8461 56.5075 40.2434 56.6415 39.5959H60.3139C60.113 41.2368 59.4655 42.7437 58.4944 43.9828ZM45.892 45.5567L48.4929 42.9558C49.0287 43.3019 49.6315 43.5698 50.29 43.7037V47.3761C48.6492 47.1641 47.1422 46.5278 45.892 45.5567ZM34.5399 42.1075C33.5241 42.1075 32.6869 41.2815 32.6869 40.2545C32.6869 39.2276 33.5129 38.4016 34.5399 38.4016H40.1546C40.1546 38.4016 40.1546 38.4462 40.1546 38.4685C40.1546 39.7522 40.4113 40.9578 40.8131 42.1075H34.551H34.5399ZM32.6869 34.3273C32.6869 33.3115 33.5129 32.4743 34.5399 32.4743H41.9182C41.2038 33.5906 40.668 34.8296 40.389 36.1802H34.5399C33.5241 36.1802 32.6869 35.3542 32.6869 34.3273V34.3273ZM51.3951 41.594C49.6761 41.594 48.2696 40.1875 48.2696 38.4685C48.2696 36.7495 49.6649 35.3431 51.3951 35.3431C53.1253 35.3431 54.5206 36.7495 54.5206 38.4685C54.5206 40.1875 53.1141 41.594 51.3951 41.594ZM42.4875 37.3523C42.6884 35.7003 43.3358 34.2045 44.307 32.9543L46.9078 35.5551C46.5618 36.0909 46.2939 36.6937 46.1599 37.3411H42.4875V37.3523ZM54.2973 33.9812C53.7615 33.6352 53.1588 33.3673 52.5002 33.2334V29.5609C54.1522 29.7618 55.648 30.4093 56.8982 31.3804L54.2973 33.9812ZM50.2677 33.2334C49.6203 33.3673 49.0175 33.6352 48.4706 33.9812L45.8697 31.3804C47.1199 30.4093 48.6157 29.773 50.2565 29.5609V33.2334H50.2677ZM42.4763 39.5848H46.1488C46.2827 40.2322 46.5506 40.835 46.8967 41.3819L44.2958 43.9828C43.3247 42.7326 42.6884 41.2368 42.4763 39.5848ZM52.5002 43.7037C53.1476 43.5698 53.7504 43.3019 54.2973 42.9558L56.8982 45.5567C55.648 46.5278 54.1522 47.1641 52.5002 47.3761V43.7037ZM56.6191 37.3523C56.4852 36.7049 56.2173 36.1021 55.8712 35.5663L58.4721 32.9655C59.4432 34.2157 60.0795 35.7114 60.2916 37.3635H56.6191V37.3523ZM49.5422 17.1595C49.4975 16.4451 49.4194 15.7195 49.2519 15.0051L48.3701 11.2099H51.5849V13.8331C51.5849 15.34 50.7812 16.579 49.5422 17.1595V17.1595ZM54.0629 5.79612C55.6815 5.79612 56.9875 7.11329 56.9875 8.72068V13.8331C56.9875 18.5883 53.3039 22.4616 48.6492 22.8635C49.0733 21.7584 49.3412 20.6198 49.4752 19.4589C52.009 18.7669 53.8174 16.5902 53.8174 13.8331V10.0937C53.8174 9.47972 53.3151 8.97741 52.7011 8.97741H47.8566L47.1199 5.80729H54.0629V5.79612ZM10.1276 15.0051C9.96021 15.7307 9.93788 16.4562 9.88207 17.1818C8.60955 16.6014 7.78353 15.3735 7.78353 13.8442V11.2211H10.9983L10.1165 15.0163L10.1276 15.0051ZM2.38092 13.8442V8.73184C2.38092 7.11329 3.69809 5.80729 5.30548 5.80729H12.2485L11.5118 8.97741H6.65613C6.0422 8.97741 5.53989 9.47972 5.53989 10.0937V13.8331C5.53989 16.6125 7.37052 18.8115 9.93788 19.4813C10.0718 20.631 10.3509 21.7584 10.7751 22.8746C6.08685 22.5063 2.36976 18.6217 2.36976 13.8331L2.38092 13.8442ZM14.827 25.6206C13.108 23.4551 11.2774 19.9501 12.3043 15.5186L15.0056 3.87619C15.1842 3.11714 15.8763 2.55902 16.6577 2.55902H42.7554C43.5368 2.55902 44.2288 3.10598 44.4074 3.87619L47.1087 15.5186C48.6938 22.3277 43.7154 27.6745 38.8932 30.2642H34.5622C32.9548 30.2642 31.593 31.2241 30.9232 32.5748C30.5214 32.5971 30.1084 32.6418 29.7177 32.6418C24.0695 32.6418 18.2316 29.8846 14.8493 25.6317L14.827 25.6206ZM26.8824 34.6398C27.8201 34.7738 28.7577 34.8631 29.6954 34.8631C29.9744 34.8631 30.2758 34.8296 30.5549 34.8184C30.6777 35.7896 31.0907 36.6714 31.7716 37.3076C30.9679 38.0555 30.4544 39.0936 30.4544 40.2768C30.4544 40.6452 30.5772 40.9801 30.6665 41.3261H25.3867C26.1457 39.5625 26.7597 37.2742 26.8713 34.651L26.8824 34.6398ZM16.8586 45.7911C16.8586 44.5521 17.8744 43.5363 19.1134 43.5363H31.5037C30.8786 44.2507 30.4656 45.166 30.4656 46.1929C30.4656 46.8738 30.6665 47.4766 30.9679 48.0459H19.1246C17.8855 48.0459 16.8697 47.0301 16.8697 45.7911H16.8586ZM34.5399 48.0459C33.5241 48.0459 32.6869 47.2199 32.6869 46.1929C32.6869 45.166 33.5129 44.34 34.5399 44.34H41.8512C42.8894 46.0143 43.8828 47.0078 45.5683 48.0347H34.551L34.5399 48.0459Z" fill="#42AB10"/>
</svg>
