<svg width="56" height="56" viewBox="0 0 56 56" fill="none" xmlns="http://www.w3.org/2000/svg">
<path d="M27.9907 55.8575C35.424 55.8575 42.4104 52.9603 47.675 47.6957C52.5588 42.8118 55.4395 36.3221 55.7871 29.4186C55.8202 28.7398 55.2905 28.1438 54.6117 28.1107C53.9329 28.0776 53.3369 28.6073 53.3038 29.2861C52.9893 35.5606 50.357 41.4709 45.9036 45.9243C41.1191 50.7088 34.7452 53.3576 27.9741 53.3576C21.203 53.3576 14.8291 50.7253 10.0446 45.9243C0.161084 36.0407 0.161084 19.9489 10.0446 10.0653C18.4713 1.63865 31.5832 0.231446 41.5495 6.57215L38.7516 9.99911L46.781 9.1879L45.9698 1.15855L43.1388 4.63517C32.1626 -2.51674 17.6104 -1.01021 8.28977 8.31046C-2.57055 19.1708 -2.57055 36.8188 8.28977 47.6791C13.5709 52.9603 20.5573 55.8575 27.9907 55.8575Z" fill="#42AB10"/>
<path d="M41.1199 22.2834C41.1199 22.2668 41.1199 22.2503 41.1033 22.2503C41.1033 22.2172 41.0868 22.2006 41.0868 22.1675C41.0868 22.151 41.0702 22.1178 41.0702 22.1013C41.0702 22.0847 41.0537 22.0682 41.0537 22.0516C41.0206 21.9688 40.9875 21.9026 40.9378 21.8364L35.6732 14.105C35.4414 13.7574 35.0606 13.5587 34.6468 13.5587H21.3031C20.8892 13.5587 20.5085 13.7574 20.2767 14.105L15.0121 21.8198C14.9624 21.8861 14.9293 21.9688 14.8962 22.0351C14.8962 22.0516 14.8797 22.0682 14.8797 22.0847C14.8631 22.1013 14.8631 22.1344 14.8631 22.151C14.8631 22.1841 14.8465 22.2006 14.8465 22.2337C14.8465 22.2503 14.8465 22.2668 14.83 22.2668C14.8134 22.3496 14.7969 22.4324 14.7969 22.5152V41.2062C14.7969 41.8849 15.3598 42.4478 16.0385 42.4478H39.8948C40.5736 42.4478 41.1365 41.8849 41.1365 41.2062V22.5317C41.1365 22.4324 41.1365 22.3496 41.1199 22.2834ZM21.9653 16.042H33.9845L37.5439 21.2735H18.3894L21.9653 16.042ZM38.6532 39.9811H17.2967V23.7734H38.6697V39.9811H38.6532Z" fill="#42AB10"/>
</svg>
