<svg width="41" height="41" viewBox="0 0 41 41" fill="none" xmlns="http://www.w3.org/2000/svg">
<path d="M12.3469 12.3469V13.8469H13.8469V12.3469H12.3469ZM12.3469 28.2653H13.8469V26.7653H12.3469V28.2653ZM28.2653 28.2653V26.7653H26.7653V28.2653H28.2653ZM28.2653 12.3469H26.7653V13.8469H28.2653V12.3469ZM13.8469 4.99999C13.8469 4.17157 14.5185 3.5 15.3469 3.5V0.5C12.8617 0.5 10.8469 2.51471 10.8469 4.99999H13.8469ZM13.8469 12.3469V4.99999H10.8469V12.3469H13.8469ZM5 13.8469H12.3469V10.8469H5V13.8469ZM3.5 15.3469C3.5 14.5185 4.17157 13.8469 5 13.8469V10.8469C2.51472 10.8469 0.5 12.8617 0.5 15.3469H3.5ZM3.5 25.2653V15.3469H0.5V25.2653H3.5ZM4.99999 26.7653C4.17157 26.7653 3.5 26.0937 3.5 25.2653H0.5C0.5 27.7506 2.51471 29.7653 4.99999 29.7653V26.7653ZM12.3469 26.7653H4.99999V29.7653H12.3469V26.7653ZM13.8469 35.6122V28.2653H10.8469V35.6122H13.8469ZM15.3469 37.1122C14.5185 37.1122 13.8469 36.4407 13.8469 35.6122H10.8469C10.8469 38.0975 12.8617 40.1122 15.3469 40.1122V37.1122ZM25.2653 37.1122H15.3469V40.1122H25.2653V37.1122ZM26.7653 35.6123C26.7653 36.4407 26.0937 37.1122 25.2653 37.1122V40.1122C27.7506 40.1122 29.7653 38.0975 29.7653 35.6123H26.7653ZM26.7653 28.2653V35.6123H29.7653V28.2653H26.7653ZM35.6122 26.7653H28.2653V29.7653H35.6122V26.7653ZM37.1122 25.2653C37.1122 26.0937 36.4407 26.7653 35.6122 26.7653V29.7653C38.0975 29.7653 40.1122 27.7506 40.1122 25.2653H37.1122ZM37.1122 15.3469V25.2653H40.1122V15.3469H37.1122ZM35.6123 13.8469C36.4407 13.8469 37.1122 14.5185 37.1122 15.3469H40.1122C40.1122 12.8617 38.0975 10.8469 35.6123 10.8469V13.8469ZM28.2653 13.8469H35.6123V10.8469H28.2653V13.8469ZM26.7653 5V12.3469H29.7653V5H26.7653ZM25.2653 3.5C26.0937 3.5 26.7653 4.17157 26.7653 5H29.7653C29.7653 2.51472 27.7506 0.5 25.2653 0.5V3.5ZM15.3469 3.5H25.2653V0.5H15.3469V3.5Z" fill="#42AB10"/>
</svg>
