<svg width="65" height="43" viewBox="0 0 65 43" fill="none" xmlns="http://www.w3.org/2000/svg">
<path d="M9.59262 20.7191V35.6486C9.59262 36.4081 10.2224 37.0378 10.9818 37.0378H15.6311C16.3905 39.9274 19.0023 42.0575 22.1141 42.0575C25.226 42.0575 27.8562 39.9274 28.5971 37.0378H46.5088C47.2683 39.9274 49.88 42.0575 52.9918 42.0575C56.1037 42.0575 58.734 39.9274 59.4749 37.0378H62.9201C63.6796 37.0378 64.3094 36.4081 64.3094 35.6486V22.5529C64.3094 22.2565 64.2167 21.9787 64.05 21.7564L59.2341 14.9585C58.9748 14.588 58.5487 14.3658 58.1042 14.3658H48.0647V9.99436C48.0647 9.23492 47.435 8.60514 46.6755 8.60514H21.0768C20.1136 3.99293 16.0201 0.51062 11.13 0.51062C5.51758 0.51062 0.960938 5.06726 0.960938 10.6797C0.960938 15.755 4.72109 19.9782 9.59262 20.7191ZM22.1141 39.2791C19.9469 39.2791 18.1873 37.5194 18.1873 35.3522C18.1873 33.1851 19.9469 31.4254 22.1141 31.4254C24.2813 31.4254 26.041 33.1851 26.041 35.3522C26.041 37.5194 24.2628 39.2791 22.1141 39.2791ZM52.9918 39.2791C50.8247 39.2791 49.065 37.5194 49.065 35.3522C49.065 33.1851 50.8247 31.4254 52.9918 31.4254C55.159 31.4254 56.9187 33.1851 56.9187 35.3522C56.9187 37.5194 55.159 39.2791 52.9918 39.2791ZM61.5309 23.016V23.2383H53.9736V17.1627H57.3818L61.5309 23.016ZM51.1951 17.1627V24.6275C51.1951 25.3869 51.8249 26.0167 52.5843 26.0167H61.5309V34.2594H59.6045C59.0859 31.0735 56.3074 28.6469 52.9918 28.6469C51.0469 28.6469 49.2873 29.4805 48.0647 30.8141V17.1627H51.1951ZM45.2863 34.2779H28.7268C28.2082 31.092 25.4297 28.6655 22.1141 28.6655C18.7985 28.6655 16.0201 31.092 15.5014 34.2779H12.3711V20.7747C17.1685 20.182 20.9287 16.2551 21.2621 11.4021H45.2863V34.2779ZM11.13 3.30758C15.2051 3.30758 18.5207 6.62319 18.5207 10.6982C18.5207 14.7733 15.2051 18.0889 11.13 18.0889C7.05498 18.0889 3.73938 14.7733 3.73938 10.6982C3.73938 6.62319 7.05498 3.30758 11.13 3.30758Z" fill="#42AB10"/>
<path d="M9.27632 13.8471C9.53564 14.1064 9.88758 14.2546 10.258 14.2546C10.6285 14.2546 10.9804 14.1064 11.2398 13.8471L15.5926 9.49424C16.1298 8.95707 16.1298 8.06797 15.5926 7.5308C15.0555 6.99364 14.1664 6.99364 13.6292 7.5308L10.258 10.902L8.62802 9.27196C8.09086 8.7348 7.20176 8.7348 6.66459 9.27196C6.12743 9.80913 6.12743 10.6982 6.66459 11.2354L9.27632 13.8471Z" fill="#42AB10"/>
</svg>
