<svg width="46" height="46" viewBox="0 0 46 46" fill="none" xmlns="http://www.w3.org/2000/svg">
<path d="M43.4913 10.4702H29.1648V2.51103C29.1648 1.63116 28.4528 0.919189 27.5729 0.919189H2.10356C1.22447 0.919189 0.511719 1.63116 0.511719 2.51103V43.8988C0.511719 44.7786 1.22447 45.4906 2.10356 45.4906H10.0627H19.6138H27.5729H43.4913C44.3712 45.4906 45.0831 44.7786 45.0831 43.8988V12.062C45.0831 11.1822 44.3712 10.4702 43.4913 10.4702ZM3.69539 4.10286H25.9811V12.062V42.3069H21.2056V37.5314C21.2056 36.6516 20.4928 35.9396 19.6138 35.9396H10.0627C9.18365 35.9396 8.4709 36.6516 8.4709 37.5314V42.3069H3.69539V4.10286ZM11.6546 42.3069V39.1233H18.0219V42.3069H11.6546ZM29.1648 42.3069V40.7151H32.3485C33.2283 40.7151 33.9403 40.0031 33.9403 39.1233C33.9403 38.2434 33.2283 37.5314 32.3485 37.5314H29.1648V32.7559H32.3485C33.2283 32.7559 33.9403 32.044 33.9403 31.1641C33.9403 30.2842 33.2283 29.5723 32.3485 29.5723H29.1648V13.6539H41.8995V26.3886H38.7158C37.8359 26.3886 37.124 27.1006 37.124 27.9804C37.124 28.8603 37.8359 29.5723 38.7158 29.5723H41.8995V34.3478H38.7158C37.8359 34.3478 37.124 35.0597 37.124 35.9396C37.124 36.8195 37.8359 37.5314 38.7158 37.5314H41.8995V42.3069H29.1648Z" fill="#42AB10"/>
<path d="M11.6543 13.6538H13.2462V15.2457C13.2462 16.1255 13.9589 16.8375 14.838 16.8375C15.7171 16.8375 16.4298 16.1255 16.4298 15.2457V13.6538H18.0217C18.9008 13.6538 19.6135 12.9419 19.6135 12.062C19.6135 11.1821 18.9008 10.4702 18.0217 10.4702H16.4298V8.87834C16.4298 7.99847 15.7171 7.2865 14.838 7.2865C13.9589 7.2865 13.2462 7.99847 13.2462 8.87834V10.4702H11.6543C10.7753 10.4702 10.0625 11.1821 10.0625 12.062C10.0625 12.9419 10.7753 13.6538 11.6543 13.6538Z" fill="#42AB10"/>
<path d="M6.8809 23.2049H10.0646C10.9437 23.2049 11.6564 22.4929 11.6564 21.6131C11.6564 20.7332 10.9437 20.0212 10.0646 20.0212H6.8809C6.00181 20.0212 5.28906 20.7332 5.28906 21.6131C5.28906 22.4929 6.00181 23.2049 6.8809 23.2049Z" fill="#42AB10"/>
<path d="M18.0234 21.6131C18.0234 22.4929 18.7362 23.2049 19.6153 23.2049H22.7989C23.678 23.2049 24.3908 22.4929 24.3908 21.6131C24.3908 20.7332 23.678 20.0212 22.7989 20.0212H19.6153C18.7362 20.0212 18.0234 20.7332 18.0234 21.6131Z" fill="#42AB10"/>
<path d="M10.0646 31.1641C10.9437 31.1641 11.6564 30.4522 11.6564 29.5723C11.6564 28.6924 10.9437 27.9805 10.0646 27.9805H6.8809C6.00181 27.9805 5.28906 28.6924 5.28906 29.5723C5.28906 30.4522 6.00181 31.1641 6.8809 31.1641H10.0646Z" fill="#42AB10"/>
<path d="M22.7989 27.9805H19.6153C18.7362 27.9805 18.0234 28.6924 18.0234 29.5723C18.0234 30.4522 18.7362 31.1641 19.6153 31.1641H22.7989C23.678 31.1641 24.3908 30.4522 24.3908 29.5723C24.3908 28.6924 23.678 27.9805 22.7989 27.9805Z" fill="#42AB10"/>
<path d="M40.3088 23.2049V16.8376C40.3088 15.9577 39.5969 15.2457 38.717 15.2457H32.3496C31.4698 15.2457 30.7578 15.9577 30.7578 16.8376V23.2049C30.7578 24.0848 31.4698 24.7967 32.3496 24.7967H38.717C39.5969 24.7967 40.3088 24.0848 40.3088 23.2049ZM37.1252 21.6131H33.9415V18.4294H37.1252V21.6131Z" fill="#42AB10"/>
</svg>
