<svg width="50" height="45" viewBox="0 0 50 45" fill="none" xmlns="http://www.w3.org/2000/svg">
<path d="M49.5675 13.9669L44.9301 4.82826V1.20398C44.9301 0.671801 44.4987 0.240234 43.9664 0.240234H6.03332C5.50114 0.240234 5.06958 0.671801 5.06958 1.20398V4.82874L0.432403 13.9669C0.36388 14.102 0.328125 14.2515 0.328125 14.403V16.7739C0.328125 19.5912 2.3813 21.9365 5.06958 22.3961V42.645H4.08337C3.55109 42.645 3.11962 43.0765 3.11962 43.6087C3.11962 44.1409 3.55109 44.5725 4.08337 44.5725H6.0259C6.02831 44.5725 6.03082 44.5729 6.03332 44.5729H32.4015H40.1116H43.9666H45.9165C46.4487 44.5729 46.8803 44.1413 46.8803 43.6091C46.8803 43.0769 46.4487 42.6454 45.9165 42.6454H44.9303V22.3961C47.6187 21.9365 49.6719 19.5912 49.6719 16.7739V14.403C49.6719 14.2515 49.6361 14.102 49.5675 13.9669ZM6.99707 2.16773H43.0026V4.09552H36.38H28.7933H21.2068H13.62H6.99707V2.16773ZM30.7004 14.3057L29.8599 6.02302H35.6661L38.2612 14.5464V16.7739C38.2612 18.857 36.5664 20.5516 34.4833 20.5516C32.4001 20.5516 30.7053 18.857 30.7053 16.7739V14.403C30.7053 14.3705 30.7036 14.338 30.7004 14.3057ZM28.7778 14.4518V16.7739H28.7777C28.7777 18.857 27.083 20.5516 25.0001 20.5516C22.9169 20.5516 21.2221 18.857 21.2221 16.7739V14.4518L22.0777 6.02302H27.9225L28.7778 14.4518ZM20.1404 6.02311L19.2996 14.3058C19.2962 14.338 19.2946 14.3705 19.2946 14.403V16.7739C19.2946 18.857 17.5999 20.5516 15.5168 20.5516C13.4337 20.5516 11.739 18.857 11.739 16.7739V14.5465L14.3342 6.02311H20.1404ZM2.25562 16.7739V14.6335L6.62506 6.02302H12.3192L9.85324 14.1223C9.82558 14.2132 9.81141 14.3079 9.81141 14.403V16.7739C9.81141 18.857 8.11656 20.5516 6.03332 20.5516C3.95028 20.5516 2.25562 18.857 2.25562 16.7739ZM39.1478 42.6454H33.3652V39.7539V35.8989H34.3291C34.8614 35.8989 35.2928 35.4675 35.2928 34.9352C35.2928 34.403 34.8614 33.9714 34.3291 33.9714H33.3652V27.2254H39.1478V42.6454ZM43.0026 42.6454H41.0751V26.2616C41.0751 25.7295 40.6437 25.2979 40.1114 25.2979H32.4013H9.88841C9.35604 25.2979 8.92467 25.7295 8.92467 26.2616V39.7539C8.92467 40.2862 9.35604 40.7177 9.88841 40.7177H31.4377V42.6454H6.99707V22.3961C8.5674 22.1277 9.92099 21.2167 10.7752 19.9429C11.7998 21.4709 13.5426 22.4791 15.5167 22.4791C17.4908 22.4791 19.2335 21.4709 20.2583 19.9429C21.283 21.4709 23.0258 22.4791 25 22.4791C26.9739 22.4791 28.7168 21.471 29.7413 19.9429C30.7661 21.471 32.5089 22.4791 34.4831 22.4791C36.4572 22.4791 38.2001 21.4709 39.2247 19.9429C40.0788 21.2167 41.4324 22.1277 43.0026 22.3961V42.6454ZM20.2517 27.2254H23.6094L21.7768 29.0577C21.4005 29.4339 21.4005 30.0442 21.7767 30.4206C21.965 30.6088 22.2116 30.703 22.4583 30.703C22.7049 30.703 22.9514 30.6088 23.1397 30.4207L26.3354 27.2254H31.4376V38.7902H10.8522V36.6249L20.2517 27.2254ZM10.8522 33.899V27.2254H17.5257L10.8522 33.899ZM47.7444 16.7739C47.7444 18.857 46.0496 20.5516 43.9666 20.5516C41.8834 20.5516 40.1887 18.857 40.1887 16.7739V14.403C40.1887 14.3079 40.1746 14.2132 40.1468 14.1223L37.6809 6.02302H43.3749L47.7444 14.6335V16.7739Z" fill="#42AB10"/>
<path d="M20.4832 32.6774C20.729 32.6774 20.9747 32.584 21.1628 32.3971L21.1789 32.3811C21.5564 32.0059 21.5581 31.3957 21.1829 31.0182C20.8075 30.6407 20.1973 30.6389 19.8199 31.0142L19.8038 31.0302C19.4263 31.4054 19.4246 32.0158 19.7997 32.3932C19.9881 32.5827 20.2356 32.6774 20.4832 32.6774Z" fill="#42AB10"/>
<path d="M1.31462 42.6454H1.29187C0.759595 42.6454 0.328125 43.077 0.328125 43.6091C0.328125 44.1413 0.759595 44.5729 1.29187 44.5729H1.31462C1.8468 44.5729 2.27837 44.1413 2.27837 43.6091C2.27837 43.077 1.8469 42.6454 1.31462 42.6454Z" fill="#42AB10"/>
<path d="M48.7091 42.6454H48.6864C48.1541 42.6454 47.7227 43.077 47.7227 43.6091C47.7227 44.1413 48.1541 44.5729 48.6864 44.5729H48.7091C49.2414 44.5729 49.6729 44.1413 49.6729 43.6091C49.6729 43.077 49.2414 42.6454 48.7091 42.6454Z" fill="#42AB10"/>
</svg>
