<svg width="45" height="53" viewBox="0 0 45 53" fill="none" xmlns="http://www.w3.org/2000/svg">
<path d="M43 21.2895C43 32.3535 29.252 45.3554 24.2731 49.7013C23.2401 50.603 21.7415 50.6223 20.6881 49.7445C15.6769 45.5686 2 33.0904 2 21.2895C2 10.6362 11.1782 2 22.5 2C33.8218 2 43 10.6362 43 21.2895Z" fill="#A72755"/>
<ellipse cx="22.5" cy="21.2114" rx="17.5" ry="16.4" fill="white"/>
<path d="M17.55 11.3086C17.2463 11.3086 16.959 11.4466 16.7692 11.6838L14.2192 14.87C14.0773 15.0474 14 15.2677 14 15.4949V26.6469C14 27.3563 14.3013 28.0225 14.8141 28.5031C15.3247 28.9816 16.0041 29.24 16.7 29.24H28.6C29.2959 29.24 29.9753 28.9816 30.4859 28.5031C30.9987 28.0225 31.3 27.3563 31.3 26.6469V15.4949C31.3 15.2677 31.2227 15.0474 31.0808 14.87L28.5308 11.6838C28.341 11.4466 28.0537 11.3086 27.75 11.3086H17.55Z" stroke="#A72755" stroke-width="2" stroke-linecap="round" stroke-linejoin="round"/>
<path d="M15 15.4949H30.3" stroke="#A72755" stroke-width="2" stroke-linecap="round" stroke-linejoin="round"/>
<mask id="path-5-outside-1_3103_71489" maskUnits="userSpaceOnUse" x="17.25" y="18.2743" width="11" height="8" fill="black">
<rect fill="white" x="17.25" y="18.2743" width="11" height="8"/>
<path d="M26.05 20.2743C26.05 21.1193 25.6918 21.9298 25.0542 22.5273C24.4165 23.1249 23.5517 23.4606 22.65 23.4606C21.7483 23.4606 20.8835 23.1249 20.2458 22.5273C19.6082 21.9298 19.25 21.1193 19.25 20.2743"/>
</mask>
<path d="M28.05 20.2743C28.05 19.1697 27.1546 18.2743 26.05 18.2743C24.9454 18.2743 24.05 19.1697 24.05 20.2743L28.05 20.2743ZM22.65 23.4606V25.4606V23.4606ZM21.25 20.2743C21.25 19.1697 20.3546 18.2743 19.25 18.2743C18.1454 18.2743 17.25 19.1697 17.25 20.2743L21.25 20.2743ZM24.05 20.2743C24.05 20.5455 23.9362 20.834 23.6866 21.068L26.4218 23.9867C27.4473 23.0256 28.05 21.6932 28.05 20.2743L24.05 20.2743ZM23.6866 21.068C23.4325 21.3061 23.0617 21.4606 22.65 21.4606V25.4606C24.0418 25.4606 25.4006 24.9437 26.4218 23.9867L23.6866 21.068ZM22.65 21.4606C22.2383 21.4606 21.8675 21.3061 21.6134 21.068L18.8782 23.9867C19.8994 24.9437 21.2582 25.4606 22.65 25.4606V21.4606ZM21.6134 21.068C21.3638 20.834 21.25 20.5455 21.25 20.2743L17.25 20.2743C17.25 21.6932 17.8527 23.0256 18.8782 23.9867L21.6134 21.068Z" fill="#A72755" mask="url(#path-5-outside-1_3103_71489)"/>
<path d="M24.9248 50.2659C27.4339 48.085 32.1693 43.7186 36.2857 38.4915C40.3672 33.3087 44 27.0829 44 21.2111C44 9.98866 34.312 1.00002 22.5 1.00002C10.688 1.00002 1 9.98866 1 21.2111C1 27.4414 4.60425 33.7155 8.6855 38.8551C12.7937 44.0287 17.5255 48.2256 20.0542 50.3238C21.4841 51.5103 23.5247 51.4829 24.9248 50.2659Z" stroke="#FFC700" stroke-width="2"/>
</svg>
