<svg width="31" height="37" viewBox="0 0 31 37" fill="none" xmlns="http://www.w3.org/2000/svg">
<path d="M30.8333 14.5063C30.8333 22.5246 21.232 31.8962 17.1835 35.4913C16.1582 36.4018 14.6572 36.4216 13.6124 35.5337C9.54241 32.075 0 23.0544 0 14.5063C0 6.49471 6.90228 0 15.4167 0C23.9311 0 30.8333 6.49471 30.8333 14.5063Z" fill="#A72755"/>
<ellipse cx="15.4184" cy="14.4476" rx="13.1606" ry="12.3333" fill="white"/>
<path d="M11.6911 6.75244C11.3874 6.75244 11.1001 6.89047 10.9104 7.1276L8.99268 9.52379C8.85076 9.70113 8.77344 9.9215 8.77344 10.1486V18.5353C8.77344 19.14 9.03036 19.7057 9.46409 20.1121L10.1479 19.3825L9.46409 20.1121C9.89562 20.5166 10.4678 20.7334 11.0519 20.7334H20.0011C20.5852 20.7334 21.1574 20.5166 21.5889 20.1121C22.0226 19.7057 22.2795 19.14 22.2795 18.5353V10.1486C22.2795 9.9215 22.2022 9.70113 22.0603 9.52379L20.1426 7.1276C19.9528 6.89047 19.6656 6.75244 19.3619 6.75244H11.6911Z" stroke="#A72755" stroke-width="2" stroke-linecap="round" stroke-linejoin="round"/>
<path d="M9.77344 10.1487H21.2795" stroke="#A72755" stroke-width="2" stroke-linecap="round" stroke-linejoin="round"/>
<mask id="path-5-outside-1_2995_78829" maskUnits="userSpaceOnUse" x="10.9688" y="11.7429" width="10" height="7" fill="black">
<rect fill="white" x="10.9688" y="11.7429" width="10" height="7"/>
<path d="M18.0826 13.7429C18.0826 14.3784 17.8132 14.9879 17.3337 15.4373C16.8542 15.8867 16.2038 16.1391 15.5257 16.1391C14.8475 16.1391 14.1972 15.8867 13.7177 15.4373C13.2381 14.9879 12.9688 14.3784 12.9688 13.7429"/>
</mask>
<path d="M20.0826 13.7429C20.0826 12.6384 19.1871 11.7429 18.0826 11.7429C16.978 11.7429 16.0826 12.6384 16.0826 13.7429L20.0826 13.7429ZM15.5257 16.1391V18.1391V16.1391ZM14.9688 13.7429C14.9688 12.6384 14.0733 11.7429 12.9687 11.7429C11.8642 11.7429 10.9688 12.6384 10.9688 13.7429L14.9688 13.7429ZM16.0826 13.7429C16.0826 13.8046 16.0576 13.8921 15.9661 13.9779L18.7013 16.8966C19.5687 16.0837 20.0826 14.9523 20.0826 13.7429L16.0826 13.7429ZM15.9661 13.9779C15.8701 14.0679 15.7137 14.1391 15.5257 14.1391V18.1391C16.6938 18.1391 17.8382 17.7054 18.7013 16.8966L15.9661 13.9779ZM15.5257 14.1391C15.3376 14.1391 15.1812 14.0679 15.0853 13.9779L12.35 16.8966C13.2131 17.7054 14.3575 18.1391 15.5257 18.1391V14.1391ZM15.0853 13.9779C14.9937 13.8921 14.9688 13.8046 14.9688 13.7429L10.9688 13.7429C10.9688 14.9523 11.4826 16.0837 12.35 16.8966L15.0853 13.9779Z" fill="#A72755" mask="url(#path-5-outside-1_2995_78829)"/>
</svg>
