<svg width="95" height="95" viewBox="0 0 95 95" fill="none" xmlns="http://www.w3.org/2000/svg"><path d="M47.245 90.17c23.798 0 43.09-18.988 43.09-42.41 0-23.423-19.292-42.411-43.09-42.411-23.797 0-43.089 18.988-43.089 42.41 0 23.423 19.292 42.411 43.09 42.411z" stroke="#C02356" stroke-width="2.375" stroke-linecap="round"/><path d="M34.274 29.13L23.81 33.42a6.612 6.612 0 00-.207 1.603c0 3.774 3.165 6.828 7.08 6.828s7.095-3.054 7.095-6.828c0-2.51-1.41-4.705-3.503-5.893z" fill="#C02356" stroke="#C02356" stroke-width=".387" stroke-linecap="round"/><path d="M27.972 36.602c1.175 0 2.127-1.142 2.127-2.55s-.952-2.55-2.127-2.55c-1.176 0-2.128 1.142-2.128 2.55s.952 2.55 2.128 2.55z" fill="#DDBEAB" stroke="#C02356" stroke-width=".129" stroke-linecap="round"/><path d="M60.156 30.867c-1.798 1.239-2.968 3.273-2.968 5.566 0 3.773 3.165 6.828 7.08 6.828s7.095-3.055 7.095-6.828a6.6 6.6 0 00-.089-1.039l-11.118-4.527z" fill="#C02356" stroke="#C02356" stroke-width=".387" stroke-linecap="round"/><path d="M61.565 37.062c1.175 0 2.128-1.142 2.128-2.55 0-1.409-.953-2.55-2.128-2.55-1.175 0-2.127 1.141-2.127 2.55 0 1.408.952 2.55 2.127 2.55z" fill="#DDBEAB" stroke="#C02356" stroke-width=".129" stroke-linecap="round"/><path d="M23.695 71.832a57.145 57.145 0 0112.66-3.996c4.061-.778 8.204-1.113 12.339-1.052 4.058.058 8.114.498 12.07 1.4a52.391 52.391 0 0110.475 3.59" stroke="#C02356" stroke-width="1.9"/></svg>