<svg width="35" height="168" viewBox="0 0 35 168" fill="none" xmlns="http://www.w3.org/2000/svg"><rect x="4" y="160.8" width="3.6" height="7.2" rx="1.8" fill="#A9B5CF"/><rect x="10" y="156" width="3.6" height="12" rx="1.8" fill="#A9B5CF"/><g clip-path="url(#clip0_3309_81127)"><path d="M12.45 139a4.216 4.216 0 014.217 4.208v6.584A4.214 4.214 0 0112.449 154H4.217A4.214 4.214 0 010 149.792v-6.584A4.208 4.208 0 014.217 139h8.232zm.942 4.333a.633.633 0 00-.468.167l-3.757 3a1.305 1.305 0 01-1.667 0l-3.75-3a.637.637 0 00-.893.892l.11.108 3.791 2.958a2.618 2.618 0 003.258 0l3.759-3.008.067-.067a.644.644 0 00-.01-.833.704.704 0 00-.44-.217z" fill="#A9B5CF"/><path d="M34 70.5v.833c0 .921-.746 1.667-1.667 1.667H20.667A1.667 1.667 0 0119 71.333V59.667c0-.921.746-1.667 1.667-1.667h11.666c.921 0 1.667.746 1.667 1.667v.833h-7.5c-.92 0-1.667.746-1.667 1.667v6.666c0 .921.746 1.667 1.667 1.667H34zm-7.5-1.667h8.333v-6.666H26.5v6.666zm3.333-2.083c-.691 0-1.25-.558-1.25-1.25s.559-1.25 1.25-1.25c.692 0 1.25.558 1.25 1.25s-.558 1.25-1.25 1.25zm3.095-53.999l-.08-.24c-.188-.56-.806-1.145-1.374-1.299l-2.102-.574c-.57-.155-1.384.053-1.8.47l-.761.761a8.07 8.07 0 01-5.68-5.68l.761-.76c.417-.417.626-1.23.47-1.8l-.572-2.103C21.635.957 21.049.34 20.49.153l-.24-.081c-.561-.187-1.36.002-1.778.42L17.334 1.63c-.203.202-.333.78-.333.783a13.44 13.44 0 003.932 9.65 13.444 13.444 0 009.62 3.934c.02 0 .615-.128.818-.33l1.138-1.139c.417-.417.605-1.216.419-1.777zM22.5 52c-.829 0-1.492.671-1.492 1.5S21.67 55 22.5 55a1.5 1.5 0 100-3zM18 40v1.5h1.5l2.696 5.689-1.012 1.837A1.5 1.5 0 0022.5 51.25h9v-1.5h-8.681a.186.186 0 01-.188-.188.18.18 0 01.023-.09l.671-1.222h5.588c.562 0 1.053-.311 1.312-.773l2.681-4.867a.75.75 0 00-.656-1.11H21.161L20.45 40H18zm12 12c-.829 0-1.492.671-1.492 1.5S29.17 55 30 55a1.5 1.5 0 100-3z" fill="#42AB10"/><mask id="a" style="mask-type:luminance" maskUnits="userSpaceOnUse" x="0" y="0" width="17" height="138"><path d="M17 0H0v138h17V0z" fill="#fff"/></mask><g mask="url(#a)"><mask id="b" style="mask-type:luminance" maskUnits="userSpaceOnUse" x="0" y="122" width="16" height="16"><path d="M16 122H0v16h16v-16z" fill="#fff"/></mask><g mask="url(#b)" fill="#A9B5CF"><path d="M7.815 129.745l-6.909-3.637v7.891a.184.184 0 00.097.161l6.812 3.585v-8zm.18-.314l6.91-3.637-6.825-3.591a.179.179 0 00-.17 0l-6.824 3.591 6.909 3.637zm.185.314v8l6.812-3.586a.179.179 0 00.097-.16v-7.891l-6.91 3.637z"/></g><path d="M3.671 110.088l7.255-3.627L8.005 105 .75 108.627l2.921 1.461zm8.739-2.881l-7.254 3.627L8 112.256l7.254-3.628-2.842-1.421zm-5.077 6.206L0 109.746v7.588l7.333 3.667v-7.588zm1.331 0v7.588l7.333-3.667v-7.588l-7.333 3.667zM7.65 103.3a7.65 7.65 0 100-15.3 7.65 7.65 0 000 15.3z" fill="#A9B5CF"/><path d="M6.585 96.91v.56h2.148v.83H6.585v.9h-1.62v-.9H4v-.83h.964V92.2h3.013c.948 0 1.687.2 2.218.6.537.4.805.986.805 1.76 0 .766-.268 1.35-.805 1.75-.53.4-1.27.6-2.218.6H6.585zm2.784-2.34c0-.34-.122-.6-.368-.78-.238-.18-.583-.27-1.034-.27H6.585v2.12h1.382c.451 0 .796-.09 1.034-.27.246-.187.368-.454.368-.8z" fill="#fff"/><mask id="c" style="mask-type:luminance" maskUnits="userSpaceOnUse" x="0" y="0" width="16" height="16"><path d="M16 0H0v16h16V0z" fill="#fff"/></mask><g mask="url(#c)"><path d="M15.928 12.751l-.08-.24c-.188-.56-.807-1.145-1.374-1.299l-2.103-.574c-.57-.155-1.383.053-1.8.47l-.76.761a8.07 8.07 0 01-5.68-5.68l.761-.76c.417-.417.626-1.23.47-1.8L4.79 1.527C4.635.957 4.049.34 3.49.153L3.25.072c-.561-.187-1.36.002-1.778.42L.334 1.63c-.203.202-.333.78-.333.783a13.44 13.44 0 003.932 9.65 13.444 13.444 0 009.62 3.934c.02 0 .615-.128.818-.33l1.138-1.139c.417-.417.605-1.216.419-1.777z" fill="#A9B5CF"/></g><path d="M15 26.34C15 22.276 11.877 19 8 19s-7 3.275-7 7.34C1 30.408 8 38 8 38s7-7.593 7-11.66zm-10.26-.143c0-1.871 1.476-3.419 3.26-3.419 1.784 0 3.26 1.512 3.26 3.419 0 1.871-1.441 3.419-3.26 3.419-1.784 0-3.26-1.548-3.26-3.419zM14.818 77h-2.182v-3H2.455C1.655 74 1 74.675 1 75.5v8.25h1.455c0 1.245.974 2.25 2.181 2.25 1.208 0 2.182-1.005 2.182-2.25h4.364c0 1.245.974 2.25 2.182 2.25 1.207 0 2.181-1.005 2.181-2.25H17V80l-2.182-3zM4.636 84.875c-.603 0-1.09-.502-1.09-1.125s.487-1.125 1.09-1.125c.604 0 1.091.502 1.091 1.125s-.487 1.125-1.09 1.125zm9.819-6.75L15.88 80h-3.244v-1.875h1.819zm-1.091 6.75c-.604 0-1.091-.502-1.091-1.125s.487-1.125 1.09-1.125c.604 0 1.091.502 1.091 1.125s-.487 1.125-1.09 1.125zM8.65 72.1a7.65 7.65 0 100-15.3 7.65 7.65 0 000 15.3z" fill="#A9B5CF"/><path d="M9.762 62.652c0 .667-.025 1.289-.075 1.865-.049.576-.115 1.16-.197 1.754H8.082a46.082 46.082 0 01-.21-1.754 21.905 21.905 0 01-.074-1.865v-2.21h1.964v2.21zm.16 5.372c0 .363-.12.642-.358.84a1.18 1.18 0 01-.79.297c-.297 0-.564-.1-.803-.297-.23-.198-.346-.477-.346-.84 0-.362.115-.642.346-.84a1.23 1.23 0 01.803-.296c.296 0 .56.099.79.296.239.198.358.478.358.84z" fill="#fff"/><path fill-rule="evenodd" clip-rule="evenodd" d="M9.25 47.067V43.75a.75.75 0 00-1.5 0v3.742a.754.754 0 00.382.662l3.24 1.87a.75.75 0 00.75-1.299L9.25 47.067zM8.5 40a7.5 7.5 0 110 15 7.5 7.5 0 010-15z" fill="#A9B5CF"/></g><path d="M33 26.34c0-4.065-3.123-7.34-7-7.34-3.878 0-7 3.275-7 7.34C19 30.408 26 38 26 38s7-7.593 7-11.66zm-10.26-.143c0-1.871 1.476-3.419 3.26-3.419 1.784 0 3.26 1.512 3.26 3.419 0 1.871-1.441 3.419-3.26 3.419-1.784 0-3.26-1.548-3.26-3.419z" fill="#42AB10"/></g><defs><clipPath id="clip0_3309_81127"><path fill="#fff" d="M0 0h35v154H0z"/></clipPath></defs></svg>