<svg xmlns="http://www.w3.org/2000/svg" preserveAspectRatio="xMidYMid" width="43" height="49" viewBox="0 0 43 49"><defs><linearGradient id="a" gradientUnits="userSpaceOnUse" x1="12" y1="42.865" x2="43" y2="35.135"><stop offset="0"/><stop offset="1" stop-color="#e5e5e5" stop-opacity="0"/></linearGradient></defs><path d="M19.881 48.003c-.337 0-.613-.066-.772-.178-.417-.319-9.478-8.348-6.509-12.006 2.89-3.561 11.724-6.082 19.629-5.81 7.668.264 12.249 3.095 10.322 6.483-1.93 3.395-19.942 10.694-21.666 11.334a3.042 3.042 0 01-1.004.177z" opacity=".55" fill="url(#a)" fill-rule="evenodd"/><path d="M18.518 48.007c-.354 0-.692-.149-.94-.404-.671-.726-16.566-19.592-16.566-29.008C1.012 8.881 8.861.988 18.518.988c9.651 0 17.498 7.893 17.498 17.607 0 9.416-15.888 28.282-16.566 29.008a1.287 1.287 0 01-.932.404z" fill="#c22255" fill-rule="evenodd"/><circle cx="18.5" cy="18.281" r="6.25" fill="#fff"/></svg>