<svg width="168" height="126" viewBox="0 0 168 126" fill="none" xmlns="http://www.w3.org/2000/svg"><path fill-rule="evenodd" clip-rule="evenodd" d="M276.563 226.06c-8.585 26.886-39.045 47.74-67.247 49.024-28.989 1.32-51.377-24.719-74.261-42.58-15.505-12.102-19.973-35.059-37.25-44.456-25.51-13.876-63.247.309-83.02-20.961C-3.76 147.136-1.353 114.099 4.313 87.471c5.663-26.613 18.152-55.211 41.963-68.37 23.694-13.095 53.004 4.576 79.85 1.049 20.483-2.691 37.213-20.532 57.827-19.137 21.548 1.457 40.923 13.366 57.72 26.951 17.357 14.039 37.992 29.972 40.125 52.186 2.163 22.527-28.552 37.288-29.363 59.903-1.086 30.265 33.339 57.163 24.129 86.007z" fill="#FAE100"/></svg>