<svg width="59" height="26" viewBox="0 0 59 26" fill="none" xmlns="http://www.w3.org/2000/svg"><path d="M24.895 5.58l-5.268-3.95a1 1 0 00-1.6.8v5.725M33.05 5.15l5.268-3.95a1 1 0 011.6.8v5.726" stroke="#000" stroke-width="1.5" stroke-linecap="round"/><path d="M57.012 17.517c-4.297-1.483-8.788-2.188-13.233-1.758-.659.06.037 1.244.464 1.268 4.296.275 8.565.562 12.852 1.017.26.035.075-.467-.083-.527zm.065 5.98c-4.203-2.487-8.602-4.293-13.195-5.119-.715-.131-.242 1.137.222 1.244 4.408 1.113 8.733 2.476 12.992 4.318.204.096.102-.383-.019-.443zm.759-13.323c-5.735.969-8.083.777-14.022 3.253-.538.227-.222 1.232.158 1.172 5.837-.861 8.528-1.698 14.245-3.409.399-.12-.065-1.064-.38-1.016zM1.361 17.278c4.298-1.483 8.79-2.189 13.235-1.758.659.06-.037 1.244-.464 1.268-4.297.275-8.566.562-12.854 1.016-.26.036-.074-.466.083-.526zm-.065 5.98C5.501 20.77 9.9 18.965 14.494 18.14c.714-.131.241 1.136-.223 1.244-4.408 1.112-8.733 2.476-12.993 4.318-.204.095-.093-.383.018-.443zM.535 9.934c5.735.97 8.084.778 14.023 3.254.539.227.223 1.231-.158 1.172-5.837-.861-8.529-1.7-14.246-3.41-.399-.12.065-1.064.381-1.017z" fill="#020203"/><mask id="a" style="mask-type:luminance" maskUnits="userSpaceOnUse" x="16" y="14" width="27" height="12"><path d="M42.011 14.313l.023 4.15c.01 1.896-1.205 3.793-3.682 5.265-4.964 2.957-13.096 3.035-18.161.19-2.544-1.439-3.827-3.347-3.849-5.254l-.033-4.15c.01 1.919 1.294 3.826 3.848 5.254 5.065 2.856 13.186 2.767 18.162-.19 2.476-1.472 3.703-3.38 3.692-5.265z" fill="#fff"/></mask><g mask="url(#a)"><path d="M42.01 14.313l.022 4.15c0 .156-.01.301-.022.457l-.033-4.15c.022-.156.033-.312.033-.457z" fill="#FECD45"/><path d="M41.989 14.77l.033 4.15a2.791 2.791 0 01-.067.424l-.033-4.15a3.07 3.07 0 00.067-.424z" fill="#FECC42"/><path d="M41.92 15.194l.034 4.15a2.647 2.647 0 01-.1.402l-.034-4.15c.045-.134.078-.268.1-.402z" fill="#FECB3E"/><path d="M41.821 15.596l.034 4.15a2.695 2.695 0 01-.134.39l-.033-4.15c.055-.122.1-.256.133-.39z" fill="#FECB3C"/><path d="M41.687 15.986l.033 4.15c-.044.123-.1.246-.167.38l-.033-4.15c.066-.123.122-.246.167-.38z" fill="#FEC938"/><path d="M41.529 16.366l.033 4.15a2.997 2.997 0 01-.2.368l-.034-4.15.2-.368z" fill="#FEC835"/><path d="M41.328 16.734l.033 4.15a2.454 2.454 0 01-.234.357l-.033-4.15c.089-.112.167-.235.234-.357z" fill="#FDC832"/><path d="M41.108 17.09l.033 4.15a2.692 2.692 0 01-.268.358l-.033-4.15c.09-.112.178-.235.268-.357z" fill="#FDC72E"/><path d="M40.836 17.459l.034 4.15c-.1.122-.201.245-.301.357l-.034-4.15c.1-.123.201-.234.301-.357z" fill="#FDC72A"/><path d="M40.522 17.816l.033 4.15a9.728 9.728 0 01-.346.368l-.033-4.15c.122-.123.234-.245.346-.368z" fill="#FDC628"/><path d="M40.178 18.184l.034 4.15c-.134.123-.268.257-.413.38l-.033-4.15.412-.38z" fill="#FDC425"/><path d="M39.768 18.552l.033 4.15a6.007 6.007 0 01-.502.39l-.033-4.15c.178-.122.334-.256.502-.39z" fill="#FDC423"/><path d="M39.261 18.954l.034 4.15c-.2.145-.402.29-.625.424l-.033-4.15c.223-.134.424-.28.624-.424z" fill="#FDC220"/><path d="M38.638 19.378l.034 4.15c-.1.067-.212.134-.313.19-.167.1-.334.2-.513.29l-.033-4.15c.178-.09.345-.19.513-.29.111-.056.212-.123.312-.19z" fill="#FDC31C"/><path d="M37.817 19.857l.033 4.15c-.435.235-.903.447-1.383.647l-.033-4.15c.48-.19.948-.412 1.383-.647z" fill="#FCC11A"/><path d="M36.43 20.505l.034 4.15c-.893.356-1.852.646-2.856.87l-.034-4.15a18.538 18.538 0 002.856-.87z" fill="#FCC016"/><path d="M33.586 21.375l.034 4.15a20.68 20.68 0 01-1.696.29l-.033-4.15a28.346 28.346 0 001.695-.29z" fill="#FCC11A"/><path d="M31.892 21.665l.033 4.15c-.379.044-.758.089-1.138.122l-.033-4.15c.38-.033.758-.078 1.138-.122z" fill="#FDC31C"/><path d="M30.749 21.776l.034 4.15c-.313.022-.636.045-.949.056l-.033-4.15c.323-.011.636-.034.948-.056z" fill="#FDC220"/><path d="M29.801 21.832l.033 4.15c-.279.011-.557.011-.847.011l-.034-4.15c.29 0 .57 0 .848-.011z" fill="#FDC423"/><path d="M28.957 21.843l.033 4.15c-.256 0-.524-.011-.78-.022l-.034-4.15c.268.011.524.022.78.022z" fill="#FDC425"/><path d="M28.186 21.832l.034 4.15c-.246-.011-.48-.022-.726-.045l-.033-4.15c.234.012.48.034.725.045z" fill="#FDC628"/><path d="M27.461 21.787l.034 4.15c-.235-.01-.458-.033-.692-.056l-.034-4.15c.235.023.458.034.692.056z" fill="#FDC72A"/><path d="M26.77 21.72l.034 4.15c-.223-.022-.446-.044-.669-.078l-.033-4.15c.223.034.446.056.669.078z" fill="#FDC72E"/><path d="M26.108 21.642l.033 4.15-.647-.1-.033-4.15c.212.045.424.078.647.1z" fill="#FDC832"/><path d="M25.465 21.542l.033 4.15c-.212-.034-.424-.078-.625-.112l-.033-4.15c.2.045.413.078.625.112z" fill="#FEC835"/><path d="M24.84 21.43l.033 4.15c-.212-.044-.413-.089-.625-.134l-.033-4.15c.2.045.413.09.625.134z" fill="#FEC938"/><path d="M24.219 21.296l.034 4.15a9.886 9.886 0 01-.614-.156l-.034-4.15c.201.056.402.1.614.156z" fill="#FECB3C"/><path d="M23.59 21.14l.033 4.15c-.212-.056-.424-.122-.625-.178l-.033-4.15c.212.056.424.122.625.178z" fill="#FECB3E"/><path d="M22.968 20.95L23 25.1a13.143 13.143 0 01-.636-.211l-.033-4.15c.212.078.424.145.636.212z" fill="#FECC42"/><path d="M22.342 20.739l.034 4.15a11.052 11.052 0 01-.647-.246l-.034-4.15c.212.09.424.168.647.246z" fill="#FECD45"/><path d="M21.692 20.493l.034 4.15c-.235-.1-.458-.2-.68-.3l-.034-4.15c.212.1.446.2.68.3z" fill="#FECE48"/><path d="M21.005 20.192l.033 4.15c-.256-.123-.513-.245-.758-.39l-.034-4.15c.257.134.502.267.759.39z" fill="#FFCF4B"/><path d="M20.253 19.802l.033 4.15c-.022-.012-.055-.034-.078-.045a10.687 10.687 0 01-.792-.49l-.033-4.15c.245.167.513.334.792.49.022.011.044.034.078.045z" fill="#FFCF4D"/><path d="M19.374 19.266l.033 4.15c-2.02-1.36-3.034-3.057-3.045-4.763l-.034-4.15c.011 1.706 1.026 3.402 3.046 4.763z" fill="#FFD151"/></g><mask id="b" style="mask-type:luminance" maskUnits="userSpaceOnUse" x="16" y="14" width="27" height="12"><path d="M42.011 14.313l.023 4.15c.01 1.896-1.205 3.793-3.682 5.265-4.964 2.957-13.096 3.035-18.161.19-2.544-1.439-3.827-3.347-3.849-5.254l-.033-4.15c.01 1.919 1.294 3.826 3.848 5.254 5.065 2.856 13.186 2.767 18.162-.19 2.476-1.472 3.703-3.38 3.692-5.265z" fill="#fff"/></mask><g mask="url(#b)" fill="#F28D0F"><path d="M19.11 19.076c.211.157.434.302.669.447l.033 4.15a9.95 9.95 0 01-.67-.447l-.033-4.15zm-1.15-.981c.168.167.336.335.525.49l.034 4.15a7.369 7.369 0 01-.525-.49l-.033-4.15zm-.847-1.071c.112.178.235.357.368.524l.034 4.15a5.547 5.547 0 01-.368-.524l-.034-4.15zm-.547-1.116c.067.179.134.368.224.547l.033 4.15c-.09-.179-.156-.369-.223-.547l-.034-4.15zm-.222-1.149c.01.19.033.368.078.558l.033 4.15c-.033-.19-.067-.368-.078-.558l-.033-4.15zm25.625.167c.022-.19.033-.379.033-.557l.034 4.15c0 .19-.011.379-.034.557l-.033-4.15zm-.309 1.15c.078-.179.134-.369.19-.558l.033 4.15a5.23 5.23 0 01-.19.557l-.033-4.15zm-.617 1.104a7.03 7.03 0 00.335-.536l.033 4.15a6.83 6.83 0 01-.335.536l-.033-4.15zm-.922 1.06c.179-.168.335-.335.49-.502l.034 4.15c-.156.167-.312.345-.49.502l-.034-4.15zm-1.242.981c.223-.156.435-.312.636-.468l.033 4.15c-.2.156-.413.312-.636.468l-.033-4.15zm-1.519.87c.267-.122.513-.256.77-.401l.033 4.15a8.32 8.32 0 01-.77.401l-.034-4.15zm-1.704.703c.29-.1.57-.2.848-.312l.034 4.15c-.28.111-.558.223-.848.312l-.034-4.15zm-1.836.525c.301-.067.603-.145.904-.235l.033 4.15c-.3.09-.602.156-.903.234l-.034-4.15zm-1.922.345c.313-.044.636-.089.949-.145l.033 4.15c-.312.056-.625.1-.948.145l-.034-4.15zm-1.98.168c.323-.011.647-.034.97-.056l.034 4.15c-.323.022-.647.045-.97.056l-.034-4.15zm-1.996-.022l.97.033.034 4.15c-.324 0-.647-.011-.97-.034l-.034-4.15zm-1.969-.19c.313.044.636.09.948.111l.034 4.15a24.66 24.66 0 01-.948-.111l-.034-4.15zm-1.913-.368c.3.078.602.145.914.2l.033 4.15a12.047 12.047 0 01-.914-.2l-.034-4.15zm-1.81-.547c.28.1.57.2.86.29l.033 4.15c-.29-.09-.58-.19-.86-.29l-.033-4.15zm-1.66-.736c.257.134.525.256.792.38l.034 4.15c-.268-.124-.536-.246-.792-.38l-.034-4.15z"/></g><path d="M29.227 21.844c7.091-.053 12.816-3.426 12.786-7.536-.03-4.109-5.804-7.398-12.895-7.346-7.092.052-12.816 3.426-12.786 7.535.03 4.11 5.803 7.399 12.895 7.347z" fill="#FEC837"/><mask id="c" style="mask-type:luminance" maskUnits="userSpaceOnUse" x="16" y="6" width="27" height="16"><path d="M29.227 21.843c7.091-.052 12.816-3.425 12.786-7.535-.03-4.11-5.804-7.398-12.895-7.346-7.092.052-12.816 3.425-12.786 7.535.03 4.11 5.803 7.398 12.895 7.346z" fill="#fff"/></mask><g mask="url(#c)"><path d="M21.895 10.308c3.938-2.343 10.408-2.41 14.413-.145.357.2.68.413.97.636 3.023 2.275 2.756 5.578-.837 7.72-3.937 2.342-10.408 2.41-14.413.145-.758-.425-1.383-.915-1.851-1.429.29.224.613.436.97.636 4.016 2.265 10.475 2.198 14.413-.145-3.938 2.343-10.408 2.41-14.413.145-.357-.2-.68-.412-.97-.636-.056-.066-.112-.122-.168-.19-.022-.033-.056-.066-.078-.1-.022-.022-.033-.044-.056-.067a.232.232 0 01-.044-.066.93.93 0 01-.09-.134c-.022-.023-.033-.045-.044-.067-.034-.045-.056-.09-.09-.134l-.066-.1c-.023-.023-.034-.056-.045-.079-.1-.19-.19-.379-.268-.568-.01-.023-.01-.045-.022-.067a3.696 3.696 0 01-.134-.469c0-.022-.011-.056-.011-.078-.011-.034-.011-.067-.022-.1a4.07 4.07 0 01-.045-.636v-.1c0-.034 0-.068.011-.101v-.067c0-.034.011-.067.011-.1 0-.012 0-.034.012-.045v-.011a.37.37 0 01.022-.112c.01-.044.01-.078.022-.122.011-.034.011-.067.022-.1.012-.034.012-.057.023-.09a.324.324 0 00.022-.1c.011-.034.022-.056.022-.09l.045-.123c.011-.044.033-.078.045-.122.033-.078.066-.168.111-.246.023-.044.045-.078.056-.122.022-.045.045-.079.067-.123a.987.987 0 01.067-.112l.011-.01c.022-.034.045-.068.056-.101l.067-.1c.01-.023.033-.045.044-.067.023-.034.045-.056.056-.09a.61.61 0 01.078-.1l.134-.168a.714.714 0 01.09-.1c.189-.212.4-.424.635-.625.034-.022.056-.055.09-.078l.01-.01c.034-.034.067-.057.112-.09.022-.023.056-.045.078-.067.034-.022.067-.056.1-.078.023-.011.034-.023.056-.045a.926.926 0 01.134-.089c.045-.034.09-.056.134-.09l.1-.066c.023-.011.045-.034.067-.045a.833.833 0 01.134-.078c.045-.033.1-.056.157-.09zm16.265-1.25c-5.065-2.855-13.186-2.766-18.162.19-4.964 2.956-4.897 7.664.167 10.52 5.065 2.856 13.186 2.767 18.162-.19 4.964-2.967 4.897-7.675-.167-10.52z" fill="#FFDE51"/><path d="M37.278 10.787c.847.915 1.249 1.953 1.193 2.968-.078 1.428-1.048 2.845-2.911 3.96-3.939 2.343-10.409 2.41-14.414.145-.357-.2-.68-.413-.97-.636.48.514 1.093.993 1.852 1.428 4.016 2.265 10.475 2.198 14.413-.145 3.592-2.142 3.86-5.444.837-7.72z" fill="#F28D0F"/><path d="M35.55 17.715c-3.937 2.343-10.408 2.41-14.413.145-.357-.2-.68-.413-.97-.636-.056-.067-.112-.122-.168-.19-.022-.033-.055-.066-.077-.1-.023-.022-.034-.044-.056-.067a.233.233 0 01-.045-.067.927.927 0 01-.09-.134.233.233 0 01-.044-.067c-.033-.044-.056-.089-.09-.133a87.5 87.5 0 00-.066-.1c-.022-.023-.034-.056-.045-.079-.1-.19-.19-.38-.267-.569-.012-.022-.012-.044-.023-.067a3.699 3.699 0 01-.134-.468c0-.023-.01-.056-.01-.078-.012-.034-.012-.067-.023-.1a4.06 4.06 0 01-.045-.637v-.1c0-.034 0-.067.011-.1V14.1c0-.034.012-.067.012-.1 0-.012 0-.034.01-.045v-.011c0-.034.012-.079.023-.112.011-.045.011-.078.023-.123.01-.033.01-.067.022-.1.01-.034.01-.056.022-.09a.32.32 0 00.022-.1c.012-.033.023-.056.023-.09l.044-.122c.011-.044.034-.078.045-.123.033-.078.067-.167.111-.245.023-.045.045-.078.056-.123.023-.044.045-.078.067-.122a.962.962 0 01.067-.112l.011-.011a.452.452 0 00.056-.1 87.5 87.5 0 00.067-.1c.011-.023.034-.046.045-.068.022-.033.044-.056.055-.09a.62.62 0 01.079-.1l.133-.167a.738.738 0 01.09-.1c.19-.212.401-.424.636-.625.033-.022.055-.056.089-.078l.01-.011c.034-.034.068-.056.113-.09.022-.022.055-.044.078-.066.033-.023.066-.056.1-.078a.195.195 0 00.056-.045.898.898 0 01.134-.09c.044-.033.089-.055.133-.089a87.5 87.5 0 01.1-.066c.023-.012.046-.034.068-.045.044-.034.09-.056.134-.078.056-.034.1-.067.156-.1a1.563 1.563 0 00-.156.1c-.045.022-.09.056-.134.078-.022.011-.045.033-.067.044a87.5 87.5 0 00-.1.067c-.045.034-.09.056-.134.09a.921.921 0 01-.134.089.173.173 0 00-.056.045c-.034.022-.067.055-.1.078-.023.022-.056.044-.079.067-.033.033-.067.055-.111.089l-.011.011c-.034.022-.067.056-.09.078a6.6 6.6 0 00-.635.625c-.034.033-.056.067-.09.1l-.133.168a.607.607 0 01-.079.1c-.022.033-.044.056-.055.09-.012.021-.034.044-.045.066a87.5 87.5 0 01-.067.1c-.022.034-.045.067-.056.1l-.01.012a.99.99 0 01-.068.112c-.022.044-.044.078-.067.122-.022.045-.044.078-.056.123-.033.078-.078.167-.111.245-.011.045-.034.079-.045.123l-.033.123c-.011.033-.022.056-.022.09a.324.324 0 00-.023.1c-.01.033-.01.055-.022.089-.011.033-.011.067-.022.1-.012.045-.023.078-.023.123-.01.033-.01.078-.022.111v.012c0 .01 0 .033-.011.044 0 .034-.011.067-.011.1v.068c0 .033 0 .067-.012.1v.1c0 .212.012.424.045.636 0 .034.011.067.023.1 0 .023.01.056.01.079a3.7 3.7 0 00.134.468c.012.023.012.045.023.067.078.19.156.38.267.57.012.021.034.055.045.077l.067.1c.022.045.056.09.09.134.01.023.033.045.044.067.033.045.067.09.09.134.01.023.033.045.044.067.022.023.033.045.056.067.022.034.055.067.078.1.056.068.111.123.167.19.29.223.614.435.97.636 4.006 2.265 10.465 2.198 14.403-.145z" fill="#FBBC0F"/><path d="M31.99 12.494c-.212-.122-.435-.245-.647-.368-.01-.011-.033-.011-.044-.022-.904.535-1.796 1.07-2.7 1.606.022.011.033.023.045.023.067.044.145.078.212.122l4.205-.044c.134-.357-.044-.737-.49-.993-.19-.1-.38-.212-.58-.324zm4.317-2.342c-4.004-2.265-10.475-2.198-14.413.145a1.896 1.896 0 00-.156.1c-.044.022-.09.056-.134.078-.022.011-.044.034-.067.045a87.5 87.5 0 00-.1.067c-.045.033-.09.056-.134.089a.922.922 0 01-.134.09c-.022.01-.033.021-.056.044-.033.022-.066.056-.1.078-.022.022-.056.044-.078.067-.034.033-.067.056-.112.09l-.01.01a.664.664 0 00-.09.078 6.856 6.856 0 00-.636.625c-.033.034-.056.067-.09.1l-.133.168a.61.61 0 01-.078.1c-.022.034-.045.056-.056.09-.011.022-.033.044-.044.066a87.5 87.5 0 00-.067.1.452.452 0 00-.056.101l-.011.011c-.023.045-.045.078-.067.112-.023.044-.045.078-.067.123-.023.044-.045.078-.056.122-.034.078-.078.168-.111.246-.012.044-.034.078-.045.122l-.045.112c-.01.034-.022.056-.022.09a.325.325 0 00-.022.1c-.012.033-.012.055-.023.089-.01.033-.01.067-.022.1-.011.045-.022.078-.022.123-.012.034-.012.078-.023.112v.01l4.44-.044.781-.457c.011-.011.034-.011.045 0l.38.212a.034.034 0 00.044 0l.535-.324c.011-.011.011-.022 0-.022l-.401-.212c-.011-.011-.011-.022 0-.022l1.25-.748c.01-.011.033-.011.044 0l.39.223a.034.034 0 00.045 0l3.982-2.365c.034.023.067.034.1.056.681.38 1.362.77 2.042 1.15l.301.166c.134.079.268.157.413.235.335.19.68.379 1.015.58.67.38 1.105.892 1.194 1.428l2.834-.034c.055-1.026-.335-2.052-1.194-2.967a5.585 5.585 0 00-.96-.658z" fill="#FBBC0F"/><path d="M38.461 13.755l-2.833.034c.022.122.022.245.01.368-.055.48-.367.903-.925 1.26-.647.424-1.45.68-2.41.748-.981.067-1.885-.067-2.688-.402-.168-.067-.324-.156-.48-.234-.268-.145-.524-.29-.792-.447a13.706 13.706 0 00-.413-.234l-.301-.167c-.112-.067-.234-.134-.346-.2l-.558.334c-.01.011-.01.022 0 .022l1.596.904c.01.01.01.022 0 .022l-1.25.748c-.011.01-.033.01-.045 0l-.702-.402-.893-.502c-.01-.011-.033-.011-.044 0l-1.44.859c-.01.011-.033.011-.044 0l-.703-.402-1.283-.725c-.011-.011-.011-.022 0-.022l1.428-.848c.011-.011.011-.022 0-.022l-.39-.223c-.011-.012-.011-.023 0-.023l.48-.279-4.44.045c0 .011 0 .033-.012.045 0 .033-.01.066-.01.1v.067c0 .033 0 .067-.012.1v.1c0 .213.011.425.045.637 0 .033.01.066.022.1 0 .022.011.056.011.078.034.156.078.313.134.469.011.022.011.044.022.067.078.19.156.379.268.569.011.022.033.055.045.078l.067.1c.022.045.055.09.089.134.01.022.033.044.044.067a.898.898 0 01.09.134c.01.022.033.044.044.067.023.022.034.044.056.066.022.034.056.067.078.1.056.068.112.124.167.19.29.224.614.436.971.637 4.016 2.264 10.475 2.197 14.413-.146 1.886-1.115 2.856-2.543 2.934-3.971z" fill="#F9AE10"/><path d="M33.061 13.81l-4.206.045c.19.112.38.212.57.324.133.078.256.145.39.223.368.2.814.312 1.338.312.77 0 1.473-.268 1.797-.68a2.09 2.09 0 00.111-.223z" fill="#F9AE10"/><path d="M27.412 14.547c-.034-.022-.067-.034-.112-.067.112.067.234.134.346.2.1.057.2.112.301.168l-.535-.301zm4.975-1.83c-.134-.078-.268-.145-.39-.223.19.112.39.223.58.335.446.256.613.636.49.993a.693.693 0 01-.122.212c-.313.424-1.015.691-1.796.68-.513 0-.97-.111-1.339-.312.234.134.469.268.703.39.368.201.814.313 1.339.313.77 0 1.472-.268 1.796-.68.3-.402.167-.893-.369-1.206a64.228 64.228 0 01-.892-.502zm.312-1.327c-.68-.38-1.36-.77-2.041-1.15a1.098 1.098 0 00-.1-.055l-3.972 2.365a.033.033 0 01-.044 0l-.391-.223c-.011-.011-.034-.011-.045 0l-1.25.747c-.01.011-.01.023 0 .023l.38.212c.011.01.011.022 0 .022l-.535.324a.034.034 0 01-.045 0l-.38-.212c-.01-.012-.033-.012-.044 0l-.78.457-.48.279c-.012.011-.012.022 0 .022l.39.223c.011.011.011.023 0 .023l-1.428.847c-.011.011-.011.023 0 .023l1.283.725-.58-.324c-.011-.01-.011-.022 0-.022l1.428-.848c.011-.011.011-.022 0-.022l-.39-.223c-.012-.011-.012-.023 0-.023l1.249-.747a.033.033 0 01.044 0l.38.212a.033.033 0 00.044 0l.536-.324c.011-.01.011-.022 0-.022l-.38-.212c-.01-.011-.01-.022 0-.022l1.25-.748a.034.034 0 01.045 0l.39.223c.011.012.034.012.045 0l3.982-2.364c.034.022.067.033.1.055.547.301 1.094.614 1.63.915-.09-.045-.19-.1-.29-.156z" fill="#F28D0F"/><path d="M31.99 12.494c.134.078.268.145.39.223.302.168.592.335.893.502.536.313.67.804.368 1.205-.312.424-1.015.692-1.796.68-.513 0-.97-.11-1.338-.312-.235-.133-.469-.267-.703-.39-.134-.078-.257-.145-.39-.223-.19-.112-.38-.212-.57-.324-.067-.044-.145-.078-.212-.122-.01-.012-.022-.012-.044-.023.903-.535 1.796-1.07 2.7-1.606.022.011.033.011.044.022.234.123.446.246.658.368zm1.428-.703a13.704 13.704 0 00-.413-.234c-.546-.301-1.093-.613-1.628-.915a.899.899 0 00-.1-.055l-3.983 2.365c-.012.01-.034.01-.045 0l-.39-.223c-.012-.012-.034-.012-.045 0l-1.25.747c-.01.011-.01.022 0 .022l.38.212c.011.011.011.023 0 .023l-.536.323a.034.034 0 01-.044 0l-.38-.212c-.01-.011-.033-.011-.044 0l-1.25.748c-.01.01-.01.022 0 .022l.39.223c.012.011.012.022 0 .022l-1.427.848c-.011.011-.011.022 0 .022l.58.324.703.402c.011.01.033.01.044 0l1.44-.86c.01-.01.033-.01.044 0l.893.503.702.401c.012.011.034.011.045 0l1.25-.747c.01-.011.01-.023 0-.023l-1.596-.903c-.011-.011-.011-.023 0-.023l.558-.334a.976.976 0 01.111.067l.536.301c.134.078.268.156.413.234.256.145.524.29.792.447.145.078.312.167.48.234.803.346 1.706.48 2.688.401.96-.067 1.763-.323 2.41-.747.546-.368.859-.792.926-1.26a1.356 1.356 0 00-.011-.369c-.09-.535-.525-1.048-1.194-1.428a18.417 18.417 0 01-1.049-.558z" fill="#FFEA95"/></g></svg>