<?xml version="1.0" encoding="utf-8"?><svg xmlns="http://www.w3.org/2000/svg" xmlns:xlink="http://www.w3.org/1999/xlink"><symbol viewBox="0 0 22 22" id="apteka" xmlns="http://www.w3.org/2000/svg"><path fill-rule="evenodd" clip-rule="evenodd" d="M15.4 6.6h4.156c1.35 0 2.444.895 2.444 2v4.8c0 1.105-1.094 2-2.444 2H15.4v4.156c0 1.35-.895 2.444-2 2.444H8.6c-1.105 0-2-1.094-2-2.444V15.4H2.444c-1.35 0-2.444-.895-2.444-2V8.6c0-1.105 1.094-2 2.444-2H6.6V2.444C6.6 1.094 7.495 0 8.6 0h4.8c1.105 0 2 1.094 2 2.444V6.6Zm-2.2 2.2V2.2H8.8v6.6H2.2v4.4h6.6v6.6h4.4v-6.6h6.6V8.8h-6.6Z"/></symbol><symbol viewBox="0 0 19 14" id="b-card" xmlns="http://www.w3.org/2000/svg"><path d="M16.166 1.167H2.833c-.92 0-1.667.746-1.667 1.667v8.333c0 .92.747 1.667 1.667 1.667h13.334c.92 0 1.666-.746 1.666-1.667V2.834c0-.92-.746-1.667-1.666-1.667ZM1.167 5.333h16.666"/></symbol><symbol viewBox="0 0 18 18" id="b-update" xmlns="http://www.w3.org/2000/svg"><path d="M16.5.667v5h-5"/><path d="M1.5 9A7.5 7.5 0 0 1 14 3.417l2.5 2.25M1.5 17.333v-5h5"/><path d="M16.5 9A7.5 7.5 0 0 1 4 14.583l-2.5-2.25"/></symbol><symbol viewBox="0 0 27 27" id="bird" xmlns="http://www.w3.org/2000/svg"><path fill-rule="evenodd" clip-rule="evenodd" d="M26.465 26.16c-.169.055-2.629.837-5.689.837-2.075 0-4.425-.358-6.528-1.547a9.874 9.874 0 0 1-2.366-1.861.787.787 0 0 1-.21-.003c-.536-.086-2.115-.171-2.996.463a.788.788 0 0 1-.46.148.784.784 0 0 1-.626-.306.743.743 0 0 1 .163-1.057c.422-.305.905-.5 1.39-.625-4.595-2.306-5.186-6.073-5.197-7.79-.64-.017-1.39-.107-1.95-.394-.108.18-.167.297-.17.303a.78.78 0 0 1-.7.43h-.044a.773.773 0 0 1-.69-.507c-.555-1.56-.52-2.906.101-4.005.545-.964 1.421-1.488 2.025-1.75-.128-1.954.534-5.002 3.9-5.725 1.35-.289 2.61-.342 3.722-.388 2.511-.105 3.754-.232 4.562-1.943a.781.781 0 0 1 .807-.434.767.767 0 0 1 .663.624 7.88 7.88 0 0 1 .045 2.15c.59-.509 1.106-1.11 1.303-1.74a.774.774 0 0 1 .798-.535c.361.025.657.29.712.64.03.191.71 4.724-2.215 6.367-.205.115-.4.222-.583.323-.859.473-1.537.846-1.633 1.184-.12.43.401 1.373.66 1.819.828.652 5.36 4.408 6.216 9.229a5.335 5.335 0 0 0 4.792 4.622c.37.021.673.296.721.655a.754.754 0 0 1-.523.816ZM4.362 12.903c.253-.407.247-.79.183-1.064-.619.131-1.156.513-1.585.94.333.084.87.133 1.402.124ZM3.363 9.79c-.346.123-1.109.465-1.518 1.2-.17.304-.266.652-.287 1.04.608-.68 1.452-1.37 2.514-1.637a1.326 1.326 0 0 0-.709-.603Zm16.583 10.535c-.82-4.612-5.713-8.351-5.762-8.388-.003-.002-.004-.005-.007-.006a.839.839 0 0 1-.19-.215l-.004-.005v-.002c-.712-1.205-1.133-2.193-.88-3.09.265-.946 1.146-1.43 2.366-2.1.18-.099.37-.204.57-.317.891-.5 1.277-1.519 1.431-2.492-1.214 1.126-2.656 1.806-2.749 1.85a.788.788 0 0 1-.994-.284.743.743 0 0 1 .181-.993c.392-.3.605-.82.712-1.373-1.226.85-2.789.915-4.414.983-1.099.046-2.236.094-3.454.355-2.653.57-2.75 3.154-2.679 4.195 1.208.524 1.647 1.652 1.73 2.367a2.91 2.91 0 0 1-.295 3.134c-.09.88-.198 4.783 4.601 7.045-.515-1.046-.909-2.22-1.175-3.527a.757.757 0 0 1 .61-.889.776.776 0 0 1 .912.596c.672 3.291 2.21 5.637 4.571 6.973 2.735 1.547 6.061 1.47 8.323 1.148-1.412-.79-2.922-2.255-3.404-4.965Zm-.742 4.383a.79.79 0 0 1-.323-.07c-5.159-2.3-6.883-6.778-6.953-6.968a.75.75 0 0 1 .463-.969.784.784 0 0 1 .995.45c.016.044 1.593 4.085 6.141 6.114.39.172.561.622.383 1.002a.78.78 0 0 1-.706.44Zm-.474-3.878a.785.785 0 0 1-.456-.144c-2.113-1.494-2.635-3.45-2.656-3.534a.754.754 0 0 1 .564-.917.78.78 0 0 1 .941.547c.01.032.437 1.53 2.063 2.68a.742.742 0 0 1 .172 1.055.78.78 0 0 1-.628.313ZM7.63 9.656c-.724 0-1.313-.573-1.313-1.278 0-.705.59-1.278 1.313-1.278.724 0 1.312.573 1.312 1.278 0 .705-.588 1.278-1.312 1.278Z"/></symbol><symbol viewBox="0 0 28 28" id="brands" xmlns="http://www.w3.org/2000/svg"><path fill-rule="evenodd" clip-rule="evenodd" d="M3 1.3h22A1.7 1.7 0 0 1 26.7 3v22a1.7 1.7 0 0 1-1.7 1.7H3A1.7 1.7 0 0 1 1.3 25V3A1.7 1.7 0 0 1 3 1.3ZM0 3a3 3 0 0 1 3-3h22a3 3 0 0 1 3 3v22a3 3 0 0 1-3 3H3a3 3 0 0 1-3-3V3Zm13.178 16.07c.233.01.448.014.644.014 1.55 0 2.679-.243 3.388-.728.719-.495 1.078-1.227 1.078-2.198 0-.663-.168-1.176-.504-1.54-.336-.364-.789-.63-1.358-.798.42-.168.756-.42 1.008-.756.252-.345.378-.784.378-1.316 0-.476-.103-.877-.308-1.204a2.238 2.238 0 0 0-.854-.784 3.794 3.794 0 0 0-1.274-.434 9.201 9.201 0 0 0-1.568-.126 17.986 17.986 0 0 0-1.316.056c-.224.019-.448.042-.672.07-.224.028-.43.065-.616.112v9.408c.187.047.392.084.616.112a16.452 16.452 0 0 0 1.358.112Zm-.63-1.176v-3.416h1.75c.392 0 .747.028 1.064.084.317.056.588.15.812.28.233.13.41.308.532.532.121.215.182.48.182.798 0 .355-.084.649-.252.882a1.605 1.605 0 0 1-.644.546 3.36 3.36 0 0 1-.952.28c-.355.047-.733.07-1.134.07h-.574a23.636 23.636 0 0 1-.784-.056Zm1.428-4.508h-1.428V10.39c.159-.019.336-.033.532-.042.196-.01.467-.014.812-.014.345 0 .672.028.98.084.308.056.574.145.798.266.233.112.415.266.546.462.13.187.196.42.196.7 0 .299-.065.546-.196.742a1.348 1.348 0 0 1-.518.476 2.267 2.267 0 0 1-.77.252c-.299.047-.616.07-.952.07Z"/></symbol><symbol viewBox="0 0 12 14" id="bucket" xmlns="http://www.w3.org/2000/svg"><path d="M4.25 2.92V1.17c0-.35.234-.584.583-.584h2.334c.35 0 .583.233.583.583v1.75m-6.417 0h9.334M4.25 11.086v-5.25m3.5 5.25v-5.25m-5.833-.583v7.583c0 .35.233.583.583.583h7c.35 0 .584-.233.584-.583V5.253"/></symbol><symbol viewBox="0 0 15 16" id="cart-fill" xmlns="http://www.w3.org/2000/svg"><path d="M4.5 12.5c-.829 0-1.493.671-1.493 1.5s.664 1.5 1.493 1.5a1.5 1.5 0 1 0 0-3ZM0 .5V2h1.5l2.696 5.689-1.012 1.837A1.5 1.5 0 0 0 4.5 11.75h9v-1.5H4.819a.186.186 0 0 1-.188-.188c0-.033.008-.063.023-.09l.671-1.222h5.587c.563 0 1.054-.311 1.313-.772l2.681-4.868A.75.75 0 0 0 14.25 2H3.161L2.45.5H0Zm12 12c-.829 0-1.492.671-1.492 1.5s.663 1.5 1.492 1.5a1.5 1.5 0 1 0 0-3Z"/></symbol><symbol viewBox="0 0 16 16" id="cash" xmlns="http://www.w3.org/2000/svg"><path d="M15 13v.833c0 .921-.746 1.667-1.667 1.667H1.667C.746 15.5 0 14.754 0 13.833V2.167C0 1.246.746.5 1.667.5h11.666C14.254.5 15 1.246 15 2.167V3H7.5c-.92 0-1.667.746-1.667 1.667v6.666C5.833 12.254 6.58 13 7.5 13H15Zm-7.5-1.667h8.333V4.667H7.5v6.666Zm3.333-2.083c-.691 0-1.25-.558-1.25-1.25s.559-1.25 1.25-1.25c.692 0 1.25.558 1.25 1.25s-.558 1.25-1.25 1.25Z"/></symbol><symbol viewBox="0 0 31 26" id="cat" xmlns="http://www.w3.org/2000/svg"><path fill-rule="evenodd" clip-rule="evenodd" d="m29.327 15.345-1.26.315c-.077.437-.183.887-.327 1.35l-.03.089.19-.029a.89.89 0 0 1 1.003.768.904.904 0 0 1-.748 1.029l-1.237.184c-3.355 6.731-10.842 6.948-11.757 6.948h-.06c-.915 0-8.374-.216-11.739-6.906l-1.514-.226a.904.904 0 0 1-.748-1.029.89.89 0 0 1 1.002-.768l.463.069-.044-.129a10.49 10.49 0 0 1-.333-1.384l-1.512-.378a.91.91 0 0 1-.65-1.097.884.884 0 0 1 1.068-.667l.951.237c.05-2.402.955-4.152 1.357-4.811C3.205 2.731 5.893.317 6.01.216a.868.868 0 0 1 1.167.019l3.372 3.133a14.1 14.1 0 0 1 4.532-.744h.081c1.568 0 3.097.25 4.551.744L23.085.235a.867.867 0 0 1 1.166-.019c.117.101 2.804 2.515 2.607 8.694.403.662 1.317 2.425 1.358 4.844l.693-.173a.883.883 0 0 1 1.07.668.909.909 0 0 1-.652 1.096Zm-4.075-5.637a.928.928 0 0 1-.174-.584c.176-3.789-.845-5.945-1.487-6.91L20.51 5.077a.87.87 0 0 1-.905.177 12.35 12.35 0 0 0-4.443-.814l-.02-.001h-.04a12.368 12.368 0 0 0-4.445.815.867.867 0 0 1-.905-.177L6.668 2.213c-.639.962-1.662 3.119-1.486 6.911a.928.928 0 0 1-.174.584c-.063.089-1.272 1.833-1.193 4.456l4.025 1.005a.91.91 0 0 1 .65 1.097.89.89 0 0 1-.859.693.845.845 0 0 1-.21-.026l-3.317-.829c.031.117.065.234.102.352.107.344.23.667.358.981l3.193.476a.905.905 0 0 1 .75 1.029.892.892 0 0 1-1.004.768l-1.879-.28c3.13 4.596 8.741 4.753 9.476 4.754h.06c.737-.001 6.38-.16 9.503-4.797l-2.163.323a.892.892 0 0 1-1.003-.768.905.905 0 0 1 .748-1.029l3.468-.517c.122-.301.24-.611.341-.94.034-.106.063-.211.092-.316l-3.564.891a.845.845 0 0 1-.21.026.889.889 0 0 1-.859-.693.909.909 0 0 1 .65-1.097l4.278-1.069c.088-2.683-1.173-4.468-1.189-4.49Zm-5.544 4.204c-.84 0-1.523-.701-1.523-1.562 0-.862.683-1.563 1.523-1.563.84 0 1.522.701 1.522 1.563 0 .861-.683 1.562-1.522 1.562Zm-1.126 5.541c-.759.779-1.506.957-2.027.957a2.63 2.63 0 0 1-1.396-.43 2.63 2.63 0 0 1-1.396.43c-.52 0-1.267-.177-2.027-.957a.925.925 0 0 1 0-1.283.868.868 0 0 1 1.251 0c.285.291.563.438.8.423.208-.008.396-.118.525-.216l-.995-2.163a.675.675 0 0 1 .04-.635.635.635 0 0 1 .542-.306H16.42c.221 0 .424.115.543.306a.672.672 0 0 1 .038.635l-.995 2.164c.14.104.332.21.534.216.247.004.51-.136.791-.424a.868.868 0 0 1 1.251 0 .923.923 0 0 1 0 1.283Zm-7.97-5.541c-.84 0-1.524-.701-1.524-1.562 0-.862.683-1.563 1.523-1.563.84 0 1.523.701 1.523 1.563 0 .861-.683 1.562-1.523 1.562Z"/></symbol><symbol viewBox="0 0 40 47" id="cat-cookie" xmlns="http://www.w3.org/2000/svg"><path fill-rule="evenodd" clip-rule="evenodd" d="M4.748 26.717c.854-.756 2.05-1.153 3.124-1.636.28-.126.696.046 1.05.08-.087.315-.104.671-.271.937-.733 1.17-1.505 2.314-2.27 3.465-1.502 2.26-2.692 4.632-2.87 7.404-.242 3.754 2.517 6.566 5.926 5.994.01-.076.045-.157.026-.225-.108-.405-.236-.805-.345-1.21-.942-3.506-1.06-7.019.128-10.48 1.165-3.392 3.154-6.295 5.753-8.775 1.539-1.468 3.32-2.477 5.524-2.632.309-.022.694-.302.875-.573a100.55 100.55 0 0 0 2.902-4.56c.16-.267.15-.817-.028-1.065-.991-1.392-1.059-2.94-.844-4.517.34-2.494.748-4.979 1.157-7.463.062-.377.281-.729.577-1.461 1.018 1.356 1.884 2.417 2.636 3.55.346.521.673.7 1.299.659a76.368 76.368 0 0 1 4.98-.18c.637 0 .98-.163 1.192-.778.331-.965.752-1.9 1.184-2.971 1.05 2.624 2.03 5.097 3.029 7.563 1.007 2.487.556 4.619-1.445 6.463-.345.317-.557.906-.599 1.388-.13 1.486-.22 2.982-.196 4.473.063 3.76-1.67 6.795-3.968 9.553-1.667 2.002-2.67 4.27-3.358 6.72-.373 1.325-.692 2.665-1.11 3.975-.468 1.464-.712 2.797 1.158 3.487.201.075.395.27.508.46.28.468.735.992.681 1.443-.035.3-.814.72-1.272.736-2.387.08-4.786.177-7.164.025-2.9-.187-5.762-.295-8.668.081-2.47.32-5.002.43-7.49.3-2.784-.146-4.805-1.701-5.687-4.353-1.78-5.35-.998-11.56 3.876-15.877Zm32.148-16.546-1.819-2.984-1.246 1.62c.393.602.333 1.13-.196 1.42-.194.106-.468.131-.693.1-.19-.025-.29-.004-.386.15-.086.138-.193.263-.341.46l4.68-.766Zm-5.954.767c-.18-.238-.293-.417-.438-.567-.048-.05-.179-.047-.265-.031-.353.063-.669.014-.922-.259a.88.88 0 0 1-.2-.924c.002-.01 0-.021.006-.027.317-.299.065-.51-.112-.736-.308-.393-.612-.79-.932-1.204l-1.823 2.98 4.686.768Z"/></symbol><symbol viewBox="0 0 17 13" id="cat_btn" xmlns="http://www.w3.org/2000/svg"><rect x="3.578" width="13.421" height="1.789" rx=".895"/><rect width="1.789" height="1.789" rx=".895"/><rect x="3.578" y="5.367" width="13.421" height="1.789" rx=".895"/><rect y="5.367" width="1.789" height="1.789" rx=".895"/><rect x="3.578" y="10.738" width="8.947" height="1.789" rx=".895"/><rect y="10.738" width="1.789" height="1.789" rx=".895"/></symbol><symbol viewBox="0 0 30 26" id="dog" xmlns="http://www.w3.org/2000/svg"><path d="M29.61 11.81c-.886 1.572-2.227 1.974-3.311 2.073a13.54 13.54 0 0 1 .43 3.498c0 1.816-.415 3.378-1.236 4.643-.721 1.112-1.76 2.003-3.086 2.648C19.954 25.862 17.006 26 14.998 26c-2.006 0-4.955-.138-7.406-1.328-1.326-.645-2.365-1.536-3.086-2.648-.821-1.265-1.237-2.827-1.237-4.643 0-1.37.165-2.47.43-3.498-1.083-.099-2.425-.501-3.31-2.073-.725-1.288-.437-3.037.856-5.199.955-1.597 2.296-3.116 3.202-3.913C6.424.958 8.074 1 8.88 1.18c.34.076.65.201.925.368C11.214.509 12.927 0 14.999 0c2.074 0 3.786.509 5.196 1.548.273-.167.584-.292.924-.368.808-.18 2.457-.222 4.433 1.518.905.797 2.247 2.316 3.201 3.913 1.293 2.162 1.58 3.911.857 5.199ZM15 18.782c.232 0 .73-.25 1.198-.714.474-.472.723-.966.723-1.212 0-.219-.037-.235-.178-.294-.4-.167-1.186-.186-1.743-.186-.557 0-1.344.019-1.743.186-.141.059-.18.075-.18.294 0 .246.25.74.725 1.212.466.464.966.714 1.197.714ZM5.664 4.063c-.773.681-1.991 2.06-2.84 3.48-.895 1.496-1.198 2.727-.832 3.376.539.958 1.319 1.143 2.278 1.168.128-.355.265-.716.406-1.092.265-.701.54-1.426.824-2.275.687-2.051 1.508-4.16 2.848-5.782-.451-.06-1.407.001-2.684 1.125Zm9.334-2.238c-4.417 0-6.133 2.625-7.756 7.471a61.432 61.432 0 0 1-.847 2.341c-.75 1.98-1.29 3.411-1.29 5.744 0 2.727 1.078 4.576 3.294 5.652 1.409.684 3.274 1.055 5.681 1.129v-3.737c-.72-.277-1.307-.798-1.577-1.067-.38-.376-1.262-1.374-1.262-2.502 0-.923.462-1.624 1.302-1.975.56-.234 1.271-.33 2.455-.33 1.184 0 1.896.096 2.455.33.84.351 1.303 1.052 1.303 1.975 0 1.128-.883 2.126-1.262 2.502-.27.269-.857.79-1.578 1.067v3.737c2.409-.074 4.274-.445 5.682-1.129 2.216-1.076 3.293-2.925 3.293-5.652 0-2.333-.54-3.764-1.288-5.744a61.432 61.432 0 0 1-.848-2.341C21.134 4.45 19.416 1.825 15 1.825Zm12.175 5.718c-.848-1.42-2.066-2.799-2.84-3.48-1.276-1.124-2.233-1.185-2.683-1.125 1.34 1.622 2.16 3.731 2.848 5.782.284.849.558 1.574.824 2.275.14.376.277.736.405 1.092.96-.025 1.74-.21 2.278-1.168.366-.649.064-1.88-.832-3.376Zm-9.128 4.588c-.67 0-1.215-.546-1.215-1.222 0-.674.544-1.222 1.215-1.222.67 0 1.213.548 1.213 1.222 0 .676-.544 1.222-1.213 1.222Zm-6.101-.009a1.21 1.21 0 0 1-1.206-1.213c0-.67.54-1.212 1.205-1.212s1.205.542 1.205 1.212c0 .67-.54 1.213-1.204 1.213Z"/></symbol><symbol viewBox="0 0 22 21" id="equalizer" xmlns="http://www.w3.org/2000/svg"><g clip-path="url(#ama)"><path d="M21.06 5.25a.875.875 0 0 0-.874-.875h-9.188a.875.875 0 0 0 0 1.75h9.188a.875.875 0 0 0 .875-.875ZM1.81 6.125h2.341a2.625 2.625 0 1 0 0-1.75h-2.34a.875.875 0 1 0 0 1.75Zm4.813-1.75a.875.875 0 1 1 0 1.75.875.875 0 0 1 0-1.75ZM20.187 9.625H16.97a2.625 2.625 0 1 0 0 1.75h3.216a.875.875 0 1 0 0-1.75Zm-5.688 1.75a.874.874 0 1 1 0-1.749.874.874 0 0 1 0 1.749ZM10.123 9.625H1.811a.875.875 0 1 0 0 1.75h8.312a.875.875 0 1 0 0-1.75ZM20.19 14.875h-7.438a.875.875 0 1 0 0 1.75h7.437a.875.875 0 0 0 0-1.75ZM8.373 13.125a2.625 2.625 0 0 0-2.472 1.75h-4.09a.875.875 0 0 0 0 1.75H5.9a2.625 2.625 0 1 0 2.472-3.5Zm0 3.5a.875.875 0 1 1 0-1.75.875.875 0 0 1 0 1.75Z"/></g><defs><clipPath id="ama"><path transform="translate(.5)" d="M0 0h21v21H0z"/></clipPath></defs></symbol><symbol viewBox="0 0 20 18" id="favorite" xmlns="http://www.w3.org/2000/svg"><path d="M18.583 1.453C17.638.484 16.332 0 14.665 0a4.26 4.26 0 0 0-1.412.252c-.48.168-.926.395-1.339.68-.413.285-.768.552-1.066.802-.297.25-.58.516-.848.797-.268-.281-.55-.547-.848-.797-.298-.25-.653-.517-1.066-.802a5.603 5.603 0 0 0-1.34-.68A4.26 4.26 0 0 0 5.336 0C3.668 0 2.362.484 1.417 1.453.472 2.422 0 3.766 0 5.484c0 .524.088 1.063.262 1.617.175.555.374 1.028.597 1.418.224.39.477.772.76 1.143.282.37.489.627.619.767s.232.243.307.305l6.964 7.055c.134.14.298.211.491.211s.357-.07.491-.211l6.953-7.032C19.148 8.97 20 7.211 20 5.484c0-1.719-.472-3.062-1.417-4.03Zm-2.11 8.203L10 16.206 3.516 9.645c-1.392-1.46-2.087-2.847-2.087-4.16 0-.633.08-1.191.24-1.675.16-.485.364-.87.613-1.155a2.96 2.96 0 0 1 .91-.697 3.9 3.9 0 0 1 1.05-.363A6.096 6.096 0 0 1 5.334 1.5c.387 0 .804.1 1.25.299.446.199.857.449 1.233.75.376.3.698.582.966.843.267.262.49.502.67.721a.656.656 0 0 0 .546.258c.23 0 .413-.086.547-.258a8.9 8.9 0 0 1 .67-.72c.268-.262.59-.543.965-.844.376-.301.787-.551 1.233-.75.447-.2.864-.299 1.25-.299.387 0 .752.031 1.094.094.342.062.692.183 1.05.363.356.18.66.412.909.697s.454.67.614 1.155c.16.484.24 1.042.24 1.675 0 1.313-.7 2.703-2.099 4.172Z"/></symbol><symbol viewBox="0 0 34 23" id="fish" xmlns="http://www.w3.org/2000/svg"><path fill-rule="evenodd" clip-rule="evenodd" d="M27.725 13.257c-3.396 6.188-8.227 9.704-13.41 9.704-5.537 0-10.666-4.007-14.08-10.993l-.24-.494.24-.49C3.646 3.993 8.778-.013 14.315-.013c5.183 0 10.014 3.515 13.41 9.703l5.292-5.347v14.26l-5.292-5.347Zm1.347-1.783 1.745 1.764V9.71l-1.745 1.764ZM14.314 2.212a9.451 9.451 0 0 0-2.962.482c1.205 2.564 1.862 5.632 1.862 8.78 0 3.148-.657 6.216-1.862 8.78a9.47 9.47 0 0 0 2.962.482c4.54 0 8.842-3.367 11.862-9.262-3.02-5.895-7.323-9.262-11.862-9.262ZM9.342 19.35c1.082-2.277 1.673-5.03 1.673-7.875 0-2.842-.59-5.598-1.673-7.875-2.625 1.508-5.005 4.2-6.889 7.875 1.884 3.676 4.264 6.367 6.89 7.875Zm-1.63-8.987v2.224h-2.2v-2.224h2.2Z"/></symbol><symbol viewBox="0 0 20 19" id="heart-full" xmlns="http://www.w3.org/2000/svg"><path d="m10 18.35-1.45-1.32C3.4 12.36 0 9.27 0 5.5 0 2.41 2.42 0 5.5 0 7.24 0 8.91.81 10 2.08 11.09.81 12.76 0 14.5 0 17.58 0 20 2.41 20 5.5c0 3.77-3.4 6.86-8.55 11.53L10 18.35Z"/></symbol><symbol viewBox="0 0 29 28" id="horse" xmlns="http://www.w3.org/2000/svg"><path fill-rule="evenodd" clip-rule="evenodd" d="M28.803 19.966c-.169.205-.47.397-.737.567-.384.137-1.452.713-2.28.972L13.25 27.728a.869.869 0 0 1-.63.272h-.057a.876.876 0 0 1-.648-.358c-.06-.135-.749-1.234-.689-2.442.094-1.884.595-3.073.936-4.667l.374-2.057c-.268.072-.546.133-.833.188-.972.178-1.87.212-2.479.207-.067.3-.158.658-.275 1.026-.456 1.442-1.058 2.253-1.838 2.479-1.47.423-3.127-.773-3.418-.996-.681.5-1.185.311-1.425.152-.414-.273-1.038-1.1-1.487-1.968-.452-.872-.945-2.196-.73-3.562.073-.467.372-1.222 2.048-2.943.92-.946 2.172-2.1 3.723-3.43a147.265 147.265 0 0 1 4.985-4.072C11.604.214 12.787.087 12.919.043A.873.873 0 0 1 14.046.7l2.696 3.287a9.84 9.84 0 0 1 1.725.365c1.071.654 3.215 2.056 5.207 4.044 1.96 1.616 1.095.575 2.521 2.803 1.755 2.742 2.324 4.025 2.784 8.03a.86.86 0 0 1-.176.737ZM18.005 6.023a8.445 8.445 0 0 0-1.06-.258l.084 1.424a.868.868 0 0 1-.819.915l-.05.001a.868.868 0 0 1-.868-.815l-.14-2.375-1.627-2.604c-.1.096-.204.206-.308.33-.596.709-.434 1.118-.733 3.49a.864.864 0 0 1-.33.576c-.026.02-2.584 1.993-5.16 4.2-4.871 4.179-5.202 5.254-5.224 5.36-.2 1.28.627 2.769 1.161 3.475.26-.267.606-.682.89-1.075a.872.872 0 0 1 1.059-.286.862.862 0 0 1 .497.971l-.2.938c.478.28 1.077.521 1.436.426.098-.06.398-.42.707-1.429.226-.742.336-1.437.336-1.444a.873.873 0 0 1 .942-.729c.05.006 5.06.432 6.464-2.433a.872.872 0 0 1 1.163-.398.862.862 0 0 1 .4 1.157c-.497 1.017-1.325 1.828-2.44 2.406l-.245 1.667c.046.23-.006.674-.141 1.596-.033.047-.39 1.304-.7 2.224-.436 1.285-.371 2.5-.123 3.197l11.33-5.987c.015-1.062-.434-2.803-.917-4.677-1.035-2.935-.846-4.499-1.871-6.533-1.096-1.462-2.603-2.533-3.513-3.31Zm8.19 8.91c-1.12-1.767-1.36-3.555-2.806-4.667 2.265 4.032 2.025 7.787 2.463 9.435.416-.087.831-.14 1.192-.172-.105-2.37-.251-3.143-.849-4.596Zm-13.56-3.711a1.4 1.4 0 0 1-1.393-1.408c0-.776.623-1.404 1.392-1.404.768 0 1.39.628 1.39 1.404a1.4 1.4 0 0 1-1.39 1.408Z"/></symbol><symbol viewBox="0 0 20 20" id="m_cart" xmlns="http://www.w3.org/2000/svg"><path d="M17.02 13.332H6.813a.747.747 0 0 1-.729-.58L4.367 5.265a.746.746 0 0 1 .727-.913h13.645a.746.746 0 0 1 .73.913l-1.722 7.487a.746.746 0 0 1-.728.58ZM7.407 11.84h9.017l1.377-5.994H6.031l1.377 5.994ZM8.274 20a2.86 2.86 0 1 1 0-5.72 2.86 2.86 0 0 1 0 5.72Zm0-4.226a1.368 1.368 0 1 0 0 2.735 1.368 1.368 0 0 0 0-2.735ZM15.559 20a2.86 2.86 0 1 1 0-5.718 2.86 2.86 0 0 1 0 5.719Zm0-4.226a1.368 1.368 0 1 0 0 2.736 1.368 1.368 0 0 0 0-2.736Z"/><path d="M5.094 5.845a.746.746 0 0 1-.708-.51l-1.28-3.842H.746A.746.746 0 0 1 .746 0h2.9a.746.746 0 0 1 .709.51l1.449 4.353a.746.746 0 0 1-.708.982h-.002Z"/></symbol><symbol viewBox="0 0 20 18" id="m_fav" xmlns="http://www.w3.org/2000/svg"><path d="M18.583 1.453C17.638.484 16.332 0 14.665 0a4.26 4.26 0 0 0-1.412.252c-.48.168-.926.395-1.339.68-.413.285-.768.552-1.066.802-.297.25-.58.516-.848.797-.268-.281-.55-.547-.848-.797-.298-.25-.653-.517-1.066-.802a5.603 5.603 0 0 0-1.34-.68A4.26 4.26 0 0 0 5.336 0C3.668 0 2.362.484 1.417 1.453.472 2.422 0 3.766 0 5.484c0 .524.088 1.063.262 1.617.175.555.374 1.028.597 1.418.224.39.477.772.76 1.143.282.37.489.627.619.767s.232.243.307.305l6.964 7.055c.134.14.298.211.491.211s.357-.07.491-.211l6.953-7.032C19.148 8.97 20 7.211 20 5.484c0-1.719-.472-3.062-1.417-4.03Zm-2.11 8.203L10 16.206 3.516 9.645c-1.392-1.46-2.087-2.847-2.087-4.16 0-.633.08-1.191.24-1.675.16-.485.364-.87.613-1.155a2.96 2.96 0 0 1 .91-.697 3.9 3.9 0 0 1 1.05-.363A6.096 6.096 0 0 1 5.334 1.5c.387 0 .804.1 1.25.299.446.199.857.449 1.233.75.376.3.698.582.966.843.267.262.49.502.67.721a.656.656 0 0 0 .546.258c.23 0 .413-.086.547-.258a8.9 8.9 0 0 1 .67-.72c.268-.262.59-.543.965-.844.376-.301.787-.551 1.233-.75.447-.2.864-.299 1.25-.299.387 0 .752.031 1.094.094.342.062.692.183 1.05.363.356.18.66.412.909.697s.454.67.614 1.155c.16.484.24 1.042.24 1.675 0 1.313-.7 2.703-2.099 4.172Z"/></symbol><symbol viewBox="0 0 22 23" id="m_sales" xmlns="http://www.w3.org/2000/svg"><path d="M10.793 22a.7.7 0 0 1-.318-.077L.395 16.788a.719.719 0 0 1-.288-.269.74.74 0 0 1-.107-.383V5.864a.74.74 0 0 1 .107-.383.719.719 0 0 1 .288-.268L10.475.076a.701.701 0 0 1 .635 0l10.08 5.137c.118.06.218.153.288.268a.74.74 0 0 1 .107.383v10.271a.74.74 0 0 1-.107.384.719.719 0 0 1-.288.269l-10.08 5.135a.7.7 0 0 1-.317.077Zm-9.367-6.314 9.367 4.772 9.366-4.772V6.32l-9.366-4.78-9.367 4.78v9.365Z"/><path d="M10.793 11.622a.696.696 0 0 1-.318-.076L.398 6.38a.731.731 0 0 1-.36-.425.759.759 0 0 1 .036-.564.723.723 0 0 1 .412-.372.696.696 0 0 1 .547.038l9.76 4.998 9.76-4.998a.698.698 0 0 1 .788.106.737.737 0 0 1 .242.506.759.759 0 0 1-.175.535.718.718 0 0 1-.222.176L11.11 11.546a.696.696 0 0 1-.317.076Z"/><path d="M15.882 9.126a.708.708 0 0 1-.32-.076L5.382 3.89a.733.733 0 0 1-.363-.424.75.75 0 0 1 .036-.563.727.727 0 0 1 .417-.372.71.71 0 0 1 .552.038l10.179 5.173a.727.727 0 0 1 .332.345.748.748 0 0 1-.205.888.711.711 0 0 1-.448.159v-.008ZM10.793 22.002a.899.899 0 0 1-.587-.211.676.676 0 0 1-.243-.51V11.1c0-.19.087-.374.243-.51a.9.9 0 0 1 .587-.21c.22 0 .431.076.587.21a.676.676 0 0 1 .243.51v10.182a.676.676 0 0 1-.243.51.898.898 0 0 1-.587.21Z"/></symbol><symbol viewBox="0 0 16 19" id="m_user" xmlns="http://www.w3.org/2000/svg"><path d="M8 10A5 5 0 1 1 8 0a5 5 0 0 1 0 10Zm0-8.75a3.75 3.75 0 1 0 0 7.5 3.75 3.75 0 0 0 0-7.5ZM12.667 19H3.333a3.487 3.487 0 0 1-2.357-.898A2.945 2.945 0 0 1 0 15.935v-2.452c0-.106.03-.21.087-.303a.642.642 0 0 1 .24-.224l3.333-1.839a.721.721 0 0 1 .478-.025.66.66 0 0 1 .373.276.57.57 0 0 1 .076.434.61.61 0 0 1-.26.37l-2.994 1.66v2.103c0 .488.211.956.586 1.3.375.345.884.54 1.414.54h9.334c.53 0 1.039-.195 1.414-.54.375-.344.586-.812.586-1.3v-2.102L11.66 12.17a.667.667 0 0 1-.223-.15.605.605 0 0 1-.137-.221.567.567 0 0 1 .058-.495.635.635 0 0 1 .186-.189.698.698 0 0 1 .53-.102.7.7 0 0 1 .253.103l3.333 1.84c.102.052.187.128.247.22.06.093.092.199.093.306v2.452c0 .813-.351 1.593-.976 2.167a3.487 3.487 0 0 1-2.357.898Z"/></symbol><symbol viewBox="0 0 22 16" id="mob-bottom-cat" xmlns="http://www.w3.org/2000/svg"><path fill-rule="evenodd" clip-rule="evenodd" d="M11.047 9.656a4.674 4.674 0 1 0 6.61-6.61 4.674 4.674 0 0 0-6.61 6.61Zm-.871.871a5.906 5.906 0 0 0 7.83.465l2.831 2.832a.589.589 0 1 0 .833-.833l-2.817-2.817a5.906 5.906 0 1 0-8.677.353ZM.799 4.196a.8.8 0 0 0 0 1.598h4.797a.8.8 0 1 0 0-1.598H.799ZM0 9.792a.8.8 0 0 1 .8-.8h6.4a.8.8 0 1 1 0 1.6H.8a.8.8 0 0 1-.8-.8Zm.8 3.997a.8.8 0 1 0 0 1.599h11.99a.8.8 0 0 0 0-1.599H.8Z"/></symbol><symbol viewBox="0 0 19 15" id="mobile-show-menu" xmlns="http://www.w3.org/2000/svg"><rect width="19" height="2" rx="1"/><rect y="6" width="16" height="2" rx="1"/><rect y="12" width="10.376" height="2.075" rx="1.038"/></symbol><symbol viewBox="0 0 28 26" id="mouse" xmlns="http://www.w3.org/2000/svg"><path fill-rule="evenodd" clip-rule="evenodd" d="M24.13 7.144c.766 1.215 3.714 6.222 2.681 9.842-1.547 5.419-5.9 6.58-9.476 6.795v1.298a.909.909 0 0 1-.902.917H10.588a.91.91 0 0 1-.902-.917v-1.3c-3.574-.214-7.923-1.378-9.469-6.793-1.033-3.62 1.914-8.627 2.681-9.842-.038-.592-.103-1.133-.166-1.66-.144-1.198-.268-2.233.04-3.21A3.228 3.228 0 0 1 5.001.114a3.153 3.153 0 0 1 2.981.73L9.131 1.9a13.785 13.785 0 0 1 4.377-.706c1.52 0 2.99.238 4.39.706L19.044.844a3.157 3.157 0 0 1 2.982-.731 3.228 3.228 0 0 1 2.23 2.16c.307.978.183 2.014.04 3.213a28.567 28.567 0 0 0-.168 1.658Zm-9.713 17.019h1.114v-2.33a4.43 4.43 0 0 1-1.114-.202v2.532Zm-2.927 0h1.116v-2.54c-.34.11-.717.186-1.116.204v2.336Zm11.015-18.9c.123-1.025.221-1.836.034-2.43a1.403 1.403 0 0 0-.98-.95 1.363 1.363 0 0 0-1.304.32l-1.545 1.42a.894.894 0 0 1-.922.179 11.984 11.984 0 0 0-4.269-.776 12.002 12.002 0 0 0-4.279.776.89.89 0 0 1-.922-.178L6.773 2.203a1.362 1.362 0 0 0-1.304-.32c-.473.129-.83.476-.98.95-.187.594-.089 1.404.034 2.43.074.615.157 1.31.194 2.088a.93.93 0 0 1-.156.559c-.985 1.473-3.376 5.884-2.61 8.566 1.178 4.132 4.258 5.225 7.735 5.457v-.42a5.048 5.048 0 0 1-1.183-.697.926.926 0 0 1-.17-1.285.893.893 0 0 1 1.265-.17c.237.183.466.322.688.418a2.401 2.401 0 0 0 2.14-.052l.09-.051-1.126-1.745a.625.625 0 0 1-.028-.632.684.684 0 0 1 .61-.353h3.071c.26 0 .493.135.61.353.105.2.095.442-.028.632l-1.127 1.747c.03.016.057.033.09.049a2.406 2.406 0 0 0 2.151.055c.22-.1.45-.236.681-.416a.892.892 0 0 1 1.265.17.93.93 0 0 1-.167 1.286 5.05 5.05 0 0 1-1.183.694v.418c3.48-.23 6.563-1.323 7.743-5.458.767-2.69-1.625-7.095-2.61-8.566a.924.924 0 0 1-.157-.56c.037-.776.12-1.472.194-2.086Zm-4.516 7.365c-.839 0-1.522-.694-1.522-1.546 0-.853.683-1.546 1.522-1.546.84 0 1.522.693 1.522 1.546 0 .852-.683 1.546-1.522 1.546Zm-8.959 0c-.839 0-1.522-.694-1.522-1.546 0-.853.683-1.546 1.522-1.546.84 0 1.521.693 1.521 1.546 0 .852-.682 1.546-1.52 1.546Z"/></symbol><symbol viewBox="0 0 15 16" id="next" xmlns="http://www.w3.org/2000/svg"><path d="M1 7a1 1 0 0 0 0 2V7Zm13.707 1.707a1 1 0 0 0 0-1.414L8.343.929A1 1 0 0 0 6.93 2.343L12.586 8l-5.657 5.657a1 1 0 1 0 1.414 1.414l6.364-6.364ZM1 9h13V7H1v2Z"/></symbol><symbol viewBox="0 0 53 36" id="not-found" xmlns="http://www.w3.org/2000/svg"><path d="M20.64 14.999c.425.352.701.875.701 1.467 0 1.06-.865 1.919-1.932 1.919a1.926 1.926 0 0 1-1.932-1.919c0-.066.013-.128.02-.193-.022 0-.042.003-.064.003-.352 0-.735-.03-1.153-.1a.872.872 0 0 1-.72-1.002.877.877 0 0 1 1.008-.716c2.075.343 2.74-.584 2.768-.623a.893.893 0 0 1 1.206-.25.856.856 0 0 1 .284 1.17 1.89 1.89 0 0 1-.186.244Zm14.881 1.467c0-.066-.013-.128-.02-.193.022 0 .042.003.064.003.352 0 .735-.03 1.153-.1a.871.871 0 0 0 .72-1.002.878.878 0 0 0-1.008-.716c-2.038.338-2.718-.553-2.766-.62a.88.88 0 0 0-1.193-.279.868.868 0 0 0-.298 1.196c.01.017.07.111.185.244a1.901 1.901 0 0 0-.7 1.468c0 1.06.864 1.918 1.931 1.918 1.067 0 1.932-.859 1.932-1.919ZM52.21 25.89a.877.877 0 0 1-1.032.685l-5.27-1.039c-2.674 5.918-10.36 10.207-19.408 10.207-9.047 0-16.735-4.289-19.407-10.207l-5.27 1.04a.876.876 0 0 1-1.03-.685.871.871 0 0 1 .688-1.024l5.006-.988a10.895 10.895 0 0 1-.405-2.935c0-.537.054-1.071.134-1.603l-4.735-.934a.87.87 0 1 1 .341-1.708l4.776.942c.121-.386.261-.77.426-1.149a13.682 13.682 0 0 1 1.112-3.923c.175-.39.259-.842.248-1.345l-.176-8.718A2.237 2.237 0 0 1 9.11.655a2.265 2.265 0 0 1 2.038-.361l8.772 2.648a23.5 23.5 0 0 1 13.158 0L41.849.293a2.267 2.267 0 0 1 2.039.36c.588.443.918 1.117.903 1.851l-.176 8.72c-.01.502.073.955.248 1.344a13.714 13.714 0 0 1 1.114 3.922c.164.38.303.763.425 1.149l4.774-.942a.88.88 0 0 1 1.031.684.871.871 0 0 1-.69 1.024l-4.734.934c.08.532.133 1.066.133 1.603 0 1.005-.14 1.986-.404 2.935l5.006.987a.872.872 0 0 1 .69 1.024Zm-7.046-4.946c0-.423-.04-.844-.099-1.264l-3.808.751a.876.876 0 0 1-1.031-.685.871.871 0 0 1 .69-1.023l3.756-.74a10.158 10.158 0 0 0-.351-.908.851.851 0 0 1-.07-.254 11.952 11.952 0 0 0-.987-3.54c-.281-.627-.416-1.33-.4-2.09l.176-8.72a.512.512 0 0 0-.208-.426.519.519 0 0 0-.47-.083l-9.026 2.724a.873.873 0 0 1-.514-.001 21.717 21.717 0 0 0-12.64 0 .883.883 0 0 1-.514.001L10.64 1.961a.523.523 0 0 0-.47.083.51.51 0 0 0-.208.427l.177 8.718c.015.762-.12 1.465-.4 2.09a11.94 11.94 0 0 0-.987 3.54.868.868 0 0 1-.07.257c-.134.3-.25.602-.351.906l3.755.74a.871.871 0 1 1-.341 1.71l-3.809-.752c-.058.42-.1.841-.1 1.264 0 .889.13 1.757.372 2.596l3.536-.698a.871.871 0 1 1 .342 1.709l-3.231.637C11.379 30.31 18.333 34 26.5 34c8.168 0 15.122-3.69 17.646-8.812l-3.23-.637a.872.872 0 0 1-.69-1.024.881.881 0 0 1 1.03-.685l3.536.697c.243-.84.371-1.708.371-2.596Zm-14.825 4.683h-.013c-1.048.024-1.816-.24-2.3-.757a2.3 2.3 0 0 1-.509-.92l2.04-2.718a1.006 1.006 0 0 0-.813-1.607h-4.487a1.006 1.006 0 0 0-.813 1.607l2.04 2.718a2.307 2.307 0 0 1-.51.92c-.484.517-1.264.776-2.3.757a.87.87 0 0 0-.888.858c-.008.481.38.877.864.884h.111c1.515 0 2.697-.447 3.514-1.33.081-.087.156-.177.226-.268.07.091.145.18.226.268.817.883 1.999 1.33 3.514 1.33h.11a.875.875 0 0 0 .865-.884.875.875 0 0 0-.877-.858Zm6.943-7.123c.495.671 2.963 4.105 2.963 5.834 0 2.01-1.647 3.645-3.67 3.645-2.024 0-3.67-1.635-3.67-3.645 0-1.73 2.468-5.163 2.963-5.834.33-.448 1.084-.448 1.414 0Zm1.209 5.834c0-.626-.901-2.28-1.916-3.796-1.015 1.517-1.916 3.171-1.916 3.796 0 1.05.859 1.903 1.916 1.903a1.911 1.911 0 0 0 1.916-1.903Z"/></symbol><symbol viewBox="0 0 10 9" id="paw" xmlns="http://www.w3.org/2000/svg"><path d="m8.668 6.85-.03-.1-.06-.158-.039-.099-.109-.197-.148-.188-.198-.178-.227-.208-.188-.178-.178-.198-.149-.198-.138-.207-.148-.277-.09-.188-.108-.208-.139-.227-.158-.208-.109-.109-.109-.099-.148-.108-.178-.08-.227-.079-.228-.03h-.237l-.228.03-.326.119-.317.218-.207.207-.129.198-.128.227-.169.347-.158.306-.178.238-.217.277-.643.593-.06.05-.148.207-.119.237-.069.297-.04.267-.01.297.03.198.09.277.128.257.138.178.178.178.238.158.277.129.207.05.317.009.307-.07.187-.088.08-.06.178-.099.168-.098.148-.09.158-.069.129-.059.148-.04.158-.01.188.03.139.03.227.109.277.138.228.149.207.118.208.09.198.039.168.01.138-.01.218-.06.277-.128.198-.139.207-.207.149-.198.128-.267.08-.257.03-.218v-.227l-.01-.129-.03-.218ZM6.973.008c.587.062.99.79.902 1.627-.089.837-.636 1.465-1.223 1.403-.586-.062-.99-.791-.902-1.628C5.84.574 6.386-.054 6.973.008ZM5.129 1.407c.088.836-.315 1.565-.902 1.627-.587.062-1.134-.566-1.223-1.403C2.916.795 3.32.066 3.906.004 4.493-.058 5.04.57 5.13 1.407ZM9.122 2.405c.576.128.895.894.713 1.71-.181.815-.795 1.372-1.371 1.244-.576-.128-.896-.893-.714-1.71.182-.815.796-1.372 1.372-1.244ZM3.132 3.65c.182.816-.138 1.58-.713 1.71-.576.127-1.19-.43-1.372-1.246-.182-.815.138-1.58.714-1.709.575-.128 1.19.43 1.371 1.245Z"/></symbol><symbol viewBox="0 0 14 13" id="pencil" xmlns="http://www.w3.org/2000/svg"><path d="M.753 12.242a.4.4 0 0 0 .506.506l3.31-1.102a.4.4 0 0 0 .157-.663L2.519 8.781a.4.4 0 0 0-.662.156L.753 12.242ZM13.216 3.4a.4.4 0 0 0 0-.566L10.66.282a.4.4 0 0 0-.565 0L9.62.756a.4.4 0 0 0 0 .567l2.557 2.551a.4.4 0 0 0 .566 0l.474-.474ZM10.921 3.66a.4.4 0 0 0-.565-.001L4.673 9.327a.4.4 0 0 0 0 .567l.736.732a.4.4 0 0 0 .564 0l5.681-5.669a.4.4 0 0 0 0-.566l-.733-.732ZM3.586 8.807a.4.4 0 0 0 .565 0L9.834 3.14a.4.4 0 0 0 0-.566l-.737-.735a.4.4 0 0 0-.565 0l-5.68 5.67a.4.4 0 0 0 0 .565l.734.734Z"/></symbol><symbol viewBox="0 0 14 15" id="percent" xmlns="http://www.w3.org/2000/svg"><path d="m.308 12.874 1.485 1.485 11.9-11.9L12.208.976l-11.9 11.9ZM10.706 14.666a3.298 3.298 0 0 1-3.294-3.294 3.298 3.298 0 0 1 3.294-3.294A3.298 3.298 0 0 1 14 11.372a3.298 3.298 0 0 1-3.294 3.294Zm0-4.488a1.195 1.195 0 0 0 0 2.388c.658 0 1.194-.535 1.194-1.194 0-.658-.536-1.194-1.194-1.194ZM3.294 7.254A3.298 3.298 0 0 1 0 3.96 3.298 3.298 0 0 1 3.294.666 3.298 3.298 0 0 1 6.588 3.96a3.298 3.298 0 0 1-3.294 3.294Zm0-4.488c-.658 0-1.194.536-1.194 1.194 0 .658.536 1.194 1.194 1.194a1.195 1.195 0 0 0 0-2.388Z"/></symbol><symbol viewBox="0 0 26 23" id="personal-bonus" xmlns="http://www.w3.org/2000/svg"><path fill-rule="evenodd" clip-rule="evenodd" d="M19.886 10.645c.385-.704.953-1.35 1.684-1.701.785-.378 1.889-.434 2.736.395l.002.002c.706.693.853 1.655.833 2.354a5.144 5.144 0 0 1-.634 2.283l-1.378-.754 1.38.753c-.386.706-.954 1.352-1.687 1.704-.786.379-1.887.432-2.733-.394l-.002-.002c-.708-.693-.855-1.655-.835-2.355.021-.759.24-1.566.634-2.285Zm3.321-.182c.515.505.48 1.74-.078 2.761-.559 1.024-1.428 1.44-1.943.938-.515-.504-.48-1.741.079-2.764.557-1.02 1.428-1.439 1.942-.935ZM5.257 10.645c-.385-.704-.954-1.35-1.685-1.701-.784-.378-1.888-.434-2.736.395l-.002.002c-.705.693-.852 1.655-.832 2.354.021.758.24 1.564.633 2.283l1.379-.754-1.38.753c.385.706.954 1.352 1.686 1.704.786.379 1.888.432 2.734-.394l.002-.002c.708-.693.855-1.655.835-2.355a5.152 5.152 0 0 0-.634-2.285Zm-3.322-.182c-.514.505-.48 1.74.079 2.761.558 1.024 1.428 1.44 1.943.938.515-.504.48-1.741-.08-2.764-.557-1.02-1.427-1.439-1.942-.935ZM7.342 2.04c1.072-.283 2.254 1.01 2.636 2.887.385 1.877-.173 3.628-1.246 3.91-1.071.282-2.251-1.01-2.637-2.886-.382-1.877.175-3.627 1.247-3.912Zm1.75 8.165c-1.25.329-2.32-.326-2.98-1.048C5.43 8.41 4.943 7.37 4.71 6.236v-.003c-.232-1.138-.194-2.293.116-3.264.294-.923.947-1.977 2.153-2.297h.003c1.25-.33 2.32.324 2.981 1.048.682.747 1.169 1.788 1.4 2.924.234 1.139.196 2.294-.114 3.266-.294.923-.948 1.977-2.156 2.295M19.678 2.968c-.294-.923-.948-1.976-2.154-2.296h-.002c-1.251-.33-2.32.325-2.98 1.048-.682.747-1.169 1.788-1.402 2.924-.233 1.138-.195 2.294.115 3.265.294.924.948 1.977 2.157 2.295 1.25.33 2.32-.325 2.98-1.047.681-.747 1.169-1.787 1.401-2.922.234-1.14.195-2.295-.115-3.267Zm-1.27 2.983c-.385 1.875-1.566 3.168-2.636 2.886C14.7 8.555 14.116 6.877 14.5 5c.384-1.877 1.59-3.243 2.662-2.96 1.071.284 1.631 2.034 1.246 3.911ZM7.42 13.998c1.14-1.656 3.05-3.57 5.58-3.57 2.528 0 4.438 1.914 5.579 3.57a13.56 13.56 0 0 1 1.427 2.675c.32.814.565 1.696.565 2.431 0 .599-.042 1.158-.17 1.64-.122.468-.385 1.09-1.003 1.49-.65.42-1.327.366-1.759.263-.418-.1-.806-.292-1.1-.45a22.308 22.308 0 0 1-.724-.415l-.204-.12c-.31-.181-.61-.351-.916-.5-.62-.303-1.176-.474-1.696-.474-.519 0-1.074.171-1.695.474-.307.149-.607.319-.916.5l-.204.12c-.237.14-.493.29-.725.415-.293.158-.682.35-1.1.45-.431.104-1.109.157-1.758-.263-.619-.4-.881-1.022-1.004-1.49-.127-.482-.17-1.041-.17-1.64 0-.735.245-1.617.565-2.43.337-.856.82-1.795 1.428-2.676ZM7 19.104c0-1.766 2.572-7.105 6-7.105s6 5.339 6 7.105c0 2.581-.91 2.046-2.366 1.186-.995-.586-2.244-1.323-3.635-1.323-1.39 0-2.64.736-3.633 1.323-1.458.86-2.367 1.396-2.367-1.186Z"/></symbol><symbol viewBox="0 0 18 23" id="personal-delivery" xmlns="http://www.w3.org/2000/svg"><path d="M9 23a2.209 2.209 0 0 1-.908-.204 2.255 2.255 0 0 1-.75-.563C4.606 19.167.002 13.333.002 9.476a9.458 9.458 0 0 1 2.582-6.641A9.048 9.048 0 0 1 9 0a9.048 9.048 0 0 1 6.417 2.835A9.458 9.458 0 0 1 18 9.476c0 3.833-4.604 9.652-7.342 12.765-.21.237-.465.427-.75.558-.285.13-.594.2-.907.201ZM9 1.533a7.572 7.572 0 0 0-5.355 2.388 7.915 7.915 0 0 0-2.144 5.555c0 2.407 2.602 6.793 6.96 11.738a.75.75 0 0 0 .539.234.736.736 0 0 0 .54-.234c4.357-4.945 6.96-9.33 6.96-11.738a7.915 7.915 0 0 0-2.145-5.555A7.572 7.572 0 0 0 9 1.533Z"/><path d="M9 13a4 4 0 1 1 0-8 4 4 0 0 1 0 8Zm0-6.667a2.667 2.667 0 1 0 0 5.334 2.667 2.667 0 0 0 0-5.334Z"/></symbol><symbol viewBox="0 0 22 19" id="personal-feedback" xmlns="http://www.w3.org/2000/svg"><path d="M12.504 18.222a.7.7 0 0 1-.4-.126l-7.01-4.908a.7.7 0 0 1-.302-.575v-7.01a.701.701 0 0 1 .302-.575L12.104.12a.701.701 0 0 1 .702-.049.702.702 0 0 1 .4.624v16.826a.7.7 0 0 1-.702.7Zm-6.31-5.973 5.61 3.926V2.04l-5.61 3.926v6.282Z"/><path d="M5.493 13.314H2.69a2.103 2.103 0 0 1-2.103-2.103V7.005A2.103 2.103 0 0 1 2.689 4.9h2.804a.701.701 0 0 1 .701.701v7.011a.701.701 0 0 1-.7.701ZM2.69 6.304a.701.701 0 0 0-.7.7v4.207a.7.7 0 0 0 .7.701h2.103V6.303H2.69ZM12.504 12.613v-1.402a2.104 2.104 0 0 0 1.487-3.59l.995-.995a3.506 3.506 0 0 1-2.482 5.987ZM18.449 15.754a.702.702 0 0 1-.498-1.199 7.712 7.712 0 0 0 0-10.894.705.705 0 0 1 .498-1.202.704.704 0 0 1 .497.206 9.114 9.114 0 0 1 0 12.886.702.702 0 0 1-.497.203Z"/><path d="M16.465 13.77a.7.7 0 0 1-.491-.203.7.7 0 0 1 .035-.954 4.906 4.906 0 0 0 0-6.94.701.701 0 0 1 .988-.989 6.31 6.31 0 0 1 0 8.918.7.7 0 0 1-.532.168Z"/></symbol><symbol viewBox="0 0 24 22" id="personal-history" xmlns="http://www.w3.org/2000/svg"><path d="M7.042 13.3a.782.782 0 0 1-.783-.625L4.43 3.45a2.347 2.347 0 0 0-2.3-1.885H.781A.782.782 0 0 1 .782 0h1.346a3.912 3.912 0 0 1 3.834 3.13l1.862 9.232a.783.783 0 0 1-.626.939h-.156Z"/><path d="M7.824 18.778H6.37a3.239 3.239 0 0 1-.297-6.463l14.404-1.306 1.26-6.314H5.476a.782.782 0 0 1 0-1.565H22.69a.782.782 0 0 1 .602.29.783.783 0 0 1 .18.649l-1.564 7.824a.782.782 0 0 1-.697.626L6.213 13.88a1.668 1.668 0 1 0 .156 3.333h1.455a.782.782 0 1 1 0 1.565ZM19.56 21.125a3.13 3.13 0 1 1 0-6.258 3.13 3.13 0 0 1 0 6.258Zm0-4.694a1.565 1.565 0 1 0 .001 3.13 1.565 1.565 0 0 0 0-3.13Z"/><path d="M10.171 21.125a3.13 3.13 0 1 1 0-6.259 3.13 3.13 0 0 1 0 6.26Zm0-4.694a1.565 1.565 0 1 0 0 3.13 1.565 1.565 0 0 0 0-3.13Z"/><path d="M17.213 18.778H12.52a.782.782 0 1 1 0-1.565h4.694a.782.782 0 1 1 0 1.565Z"/></symbol><symbol viewBox="0 0 24 20" id="personal-home" xmlns="http://www.w3.org/2000/svg"><path d="M22.253 9.231a.769.769 0 0 1-.446-.146l-10.323-7.37-10.323 7.37A.77.77 0 0 1 .27 7.839L11.039.147a.77.77 0 0 1 .892 0L22.7 7.839a.77.77 0 0 1-.447 1.392ZM3.023 4.615a.77.77 0 0 1-.77-.769V.77A.77.77 0 0 1 3.023 0H6.1a.77.77 0 0 1 0 1.538H3.792v2.308a.77.77 0 0 1-.77.77Z"/><path d="M18.407 20h-3.846a.769.769 0 0 1-.77-.77v-5.384H9.177v5.384a.77.77 0 0 1-.769.77H4.561a2.308 2.308 0 0 1-2.308-2.308V10a.77.77 0 1 1 1.539 0v7.692a.77.77 0 0 0 .77.77h3.076v-5.385a.77.77 0 0 1 .77-.77h6.153a.769.769 0 0 1 .77.77v5.384h3.076a.77.77 0 0 0 .77-.769V10a.77.77 0 1 1 1.538 0v7.692A2.308 2.308 0 0 1 18.407 20Z"/></symbol><symbol viewBox="0 0 24 23" id="personal-mess" xmlns="http://www.w3.org/2000/svg"><path d="M18.325 15.804a.79.79 0 0 1-.506-.182l-3.571-2.98h-1.454a6.322 6.322 0 0 1 0-12.642h4.74a6.321 6.321 0 0 1 1.581 12.437v2.576a.79.79 0 0 1-.79.79ZM12.794 1.58a4.741 4.741 0 0 0 0 9.482h1.738a.79.79 0 0 1 .506.182l2.497 2.078V11.79a.79.79 0 0 1 .68-.79 4.741 4.741 0 0 0-.68-9.42h-4.741Z"/><path d="M15.954 5.531h-1.58v1.58h1.58v-1.58ZM12.003 5.531h-1.58v1.58h1.58v-1.58ZM19.905 5.531h-1.58v1.58h1.58v-1.58ZM5.681 22.125a.79.79 0 0 1-.79-.79V18.76A6.321 6.321 0 0 1 3.88 6.907a.79.79 0 1 1 .648 1.438 4.74 4.74 0 0 0 1.264 9.008.79.79 0 0 1 .68.79v1.533l2.497-2.078a.79.79 0 0 1 .505-.214h1.739a4.694 4.694 0 0 0 3.39-1.438.794.794 0 0 1 1.138 1.106 6.321 6.321 0 0 1-4.528 1.913H9.759l-3.572 2.979a.79.79 0 0 1-.506.181Z"/></symbol><symbol viewBox="0 0 21 18" id="personal-out" xmlns="http://www.w3.org/2000/svg"><path d="M20.3 18a.706.706 0 0 1-.567-.284l-1.484-2.021A13.083 13.083 0 0 0 9.8 10.558v2.596a.687.687 0 0 1-.387.62.707.707 0 0 1-.733-.066L.28 7.477A.694.694 0 0 1 0 6.923a.686.686 0 0 1 .28-.554L8.68.14a.705.705 0 0 1 1.015.19c.069.109.105.235.105.363v2.936a13.337 13.337 0 0 1 8.02 4.453A13.068 13.068 0 0 1 21 16.615v.693a.687.687 0 0 1-.483.657.794.794 0 0 1-.217.035ZM9.1 9.076h.07c2.019.206 3.972.83 5.731 1.83 1.76 1.001 3.287 2.356 4.482 3.979l.112.145a11.723 11.723 0 0 0-3.49-6.842 11.956 11.956 0 0 0-7.01-3.266.703.703 0 0 1-.446-.228.688.688 0 0 1-.177-.464V2.077L1.869 6.923 8.4 11.77v-2a.686.686 0 0 1 .231-.513.704.704 0 0 1 .469-.18Z"/></symbol><symbol viewBox="0 0 30 30" id="personal-pets" xmlns="http://www.w3.org/2000/svg"><path d="M21.677 4.655c.322-.088.68-.146 1.07-.168 2.045-.12 2.527 1.484 2.527 1.484h3.087c.562.722-.56 1.885-.56 1.885s.32 1.44-.763 1.48c-1.083.04-2.807.466-2.807.466-.628.68-.732 1.272-.614 1.861.305 1.52 2.08 3.032.173 6.015-.411.644-.904 1.23-1.444 1.761-.383.377-.79.726-1.207 1.049-.162 1.281-.337 2.604-.337 2.604s.614.7 1.01 1.37c.175.29.308.577.332.796 0 0-1.203 1.644-3.048 0l-.588-3.1c-1.872.984-3.422 1.438-3.422 1.438 1.684.3 1.002 1.664 1.002 1.664l-6.657.018c-.44-1.083 0-1.682 0-1.682s-1.401-.4-1.612-1.91c-.076-.549.004-1.244.37-2.12 1.363-3.289 6.095-4.091 7.578-5.336 1.484-1.245 2.928-2.567 2.928-2.567s.14-.702.3-1.63c.137-.792.29-1.748.382-2.579.058-.519.192-.974.4-1.363"/><path d="M19.78 6.088a1.13 1.13 0 0 0-.36-.04c-.723.08 1.242-2.045 1.242-2.045s.534-.08 1.015.65c.276.42.537 1.108.67 2.237.05.437-1.645-.575-2.567-.802ZM18.51 22.157l-.353-4.239M21.14 20.487c.089-.702.173-1.392.223-1.847.14-1.283.381-1.867.381-1.867M22.348 19.438l.36 3.452s1.404-.124 1.645 1.382l-2.537.188M14.907 23.595l-2.747-.34s2.767-.177 2.486-3.478M7.82 21.686S2 20.11 2 15.866c0 0 2.861 4.302 6.19 3.699M18.998 10.031s1.077 1.735 4.62 1.63"/></symbol><symbol viewBox="0 0 22 22" id="personal-profile" xmlns="http://www.w3.org/2000/svg"><path d="M11.733 22h-1.466a2.2 2.2 0 0 1-2.2-1.936 9.306 9.306 0 0 1-1.43-.587 2.2 2.2 0 0 1-2.934-.183l-.997-1.034a2.2 2.2 0 0 1-.183-2.933 9.296 9.296 0 0 1-.587-1.394A2.2 2.2 0 0 1 0 11.733v-1.466a2.2 2.2 0 0 1 1.936-2.2c.156-.492.352-.97.587-1.43a2.2 2.2 0 0 1 .183-2.934l1.034-.997a2.2 2.2 0 0 1 2.933-.183c.448-.233.914-.43 1.394-.587A2.2 2.2 0 0 1 10.267 0h1.466a2.2 2.2 0 0 1 2.2 1.936c.492.156.97.352 1.43.587a2.2 2.2 0 0 1 2.934.183l.997 1.034a2.2 2.2 0 0 1 .183 2.933c.235.46.431.938.587 1.43A2.2 2.2 0 0 1 22 10.267v1.466a2.2 2.2 0 0 1-1.936 2.2c-.156.492-.352.97-.587 1.43a2.2 2.2 0 0 1-.183 2.934l-1.034.997a2.2 2.2 0 0 1-2.933.183c-.46.235-.938.431-1.43.587A2.2 2.2 0 0 1 11.733 22Zm-5.199-4.158a.69.69 0 0 1 .374.103c.648.381 1.347.67 2.075.858a.734.734 0 0 1 .55.733v.264a.733.733 0 0 0 .734.733h1.466a.734.734 0 0 0 .734-.733v-.286a.733.733 0 0 1 .55-.733 8.064 8.064 0 0 0 2.075-.858.734.734 0 0 1 .887.11l.206.205a.733.733 0 0 0 1.041 0l1.034-1.034a.733.733 0 0 0 0-1.041l-.205-.206a.733.733 0 0 1-.11-.887c.381-.648.67-1.347.858-2.075a.733.733 0 0 1 .733-.55h.264a.733.733 0 0 0 .733-.734v-1.444a.733.733 0 0 0-.733-.734h-.286a.733.733 0 0 1-.733-.55 8.064 8.064 0 0 0-.858-2.075.734.734 0 0 1 .11-.887l.205-.206a.733.733 0 0 0 0-1.041L17.226 3.74a.733.733 0 0 0-1.041 0l-.206.205a.733.733 0 0 1-.887.11 8.067 8.067 0 0 0-2.075-.858.733.733 0 0 1-.55-.733V2.2a.733.733 0 0 0-.734-.733h-1.466a.733.733 0 0 0-.734.733v.286a.733.733 0 0 1-.55.733 8.067 8.067 0 0 0-2.075.858.733.733 0 0 1-.887-.11l-.206-.227a.733.733 0 0 0-1.041 0L3.74 4.774a.733.733 0 0 0 0 1.041l.205.206a.733.733 0 0 1 .11.887 8.067 8.067 0 0 0-.858 2.075.733.733 0 0 1-.733.55H2.2a.733.733 0 0 0-.733.734v1.466a.734.734 0 0 0 .733.734h.286a.733.733 0 0 1 .733.55c.188.728.477 1.427.858 2.075a.733.733 0 0 1-.11.887l-.205.206a.733.733 0 0 0 0 1.041l1.012 1.034a.733.733 0 0 0 1.041 0l.206-.205a.734.734 0 0 1 .513-.213Z"/><path d="M11 16a5 5 0 1 1 0-9.999A5 5 0 0 1 11 16Zm0-8.571a3.571 3.571 0 1 0 0 7.142 3.571 3.571 0 0 0 0-7.142Z"/></symbol><symbol viewBox="0 0 13 13" id="phone" xmlns="http://www.w3.org/2000/svg"><path d="m12.586 10.212-.062-.188c-.147-.437-.63-.894-1.074-1.015l-1.642-.448c-.446-.121-1.08.042-1.407.367l-.594.595A6.304 6.304 0 0 1 3.37 5.086l.595-.595c.326-.326.488-.96.367-1.405l-.448-1.643C3.764.998 3.306.515 2.87.369L2.68.306C2.243.161 1.618.308 1.293.634l-.89.89c-.158.158-.26.61-.26.611a10.5 10.5 0 0 0 3.073 7.54 10.503 10.503 0 0 0 7.515 3.072c.015 0 .48-.1.639-.258l.889-.889c.326-.325.473-.95.327-1.388Z"/></symbol><symbol viewBox="0 0 14 19" id="pin" xmlns="http://www.w3.org/2000/svg"><path d="M14 7.34C14 3.276 10.877 0 7 0S0 3.275 0 7.34C0 11.408 7 19 7 19s7-7.593 7-11.66ZM3.74 7.198c0-1.871 1.476-3.419 3.26-3.419 1.784 0 3.26 1.512 3.26 3.419 0 1.871-1.441 3.419-3.26 3.419-1.784 0-3.26-1.548-3.26-3.419Z"/></symbol><symbol viewBox="0 0 18 18" id="plus" xmlns="http://www.w3.org/2000/svg"><rect y="8" width="18" height="2" rx="1"/><rect x="8" y="18" width="18" height="2" rx="1" transform="rotate(-90 8 18)"/></symbol><symbol viewBox="0 0 3 13" id="points" xmlns="http://www.w3.org/2000/svg"><circle cx="1.5" cy="1.5" r="1.5"/><circle cx="1.5" cy="6.5" r="1.5"/><circle cx="1.5" cy="11.5" r="1.5"/></symbol><symbol viewBox="0 0 15 16" id="prev" xmlns="http://www.w3.org/2000/svg"><path d="M14 7a1 1 0 1 1 0 2V7ZM.293 8.707a1 1 0 0 1 0-1.414L6.657.929A1 1 0 0 1 8.07 2.343L2.414 8l5.657 5.657a1 1 0 1 1-1.414 1.414L.293 8.707ZM14 9H1V7h13v2Z"/></symbol><symbol viewBox="0 0 512 512" id="prsonal-bonus2" xmlns="http://www.w3.org/2000/svg"><path d="M457.74 170.1a30.26 30.26 0 0 0-11.16-2.1h-.4c-20.17.3-42.79 19.19-54.66 47.76-14.23 34.18-7.68 69.15 14.74 78.14a30.21 30.21 0 0 0 11.15 2.1c20.27 0 43.2-19 55.17-47.76 14.13-34.18 7.48-69.15-14.84-78.14ZM327.6 303.48C299.8 257.35 287.8 240 256 240s-43.9 17.46-71.7 63.48c-23.8 39.36-71.9 42.64-83.9 76.07a50.91 50.91 0 0 0-3.6 19.25c0 27.19 20.8 49.2 46.4 49.2 31.8 0 75.1-25.39 112.9-25.39S337 448 368.8 448c25.6 0 46.3-22 46.3-49.2a51 51 0 0 0-3.7-19.25c-12-33.55-60-36.71-83.8-76.07ZM192.51 196a26.53 26.53 0 0 0 4-.3c23.21-3.37 37.7-35.53 32.44-71.85C224 89.61 203.22 64 181.49 64a26.53 26.53 0 0 0-4 .3c-23.21 3.37-37.7 35.53-32.44 71.85C150 170.29 170.78 196 192.51 196ZM366.92 136.15c5.26-36.32-9.23-68.48-32.44-71.85a26.53 26.53 0 0 0-4-.3c-21.73 0-42.47 25.61-47.43 59.85-5.26 36.32 9.23 68.48 32.44 71.85a26.53 26.53 0 0 0 4 .3c21.73 0 42.51-25.71 47.43-59.85ZM105.77 293.9c22.39-9 28.93-44 14.72-78.14C108.53 187 85.62 168 65.38 168a30.21 30.21 0 0 0-11.15 2.1c-22.39 9-28.93 44-14.72 78.14C51.47 277 74.38 296 94.62 296a30.21 30.21 0 0 0 11.15-2.1Z"/></symbol><symbol viewBox="0 0 18 18" id="round-check" xmlns="http://www.w3.org/2000/svg"><path d="M9 17.334A8.333 8.333 0 1 0 9 .667a8.333 8.333 0 0 0 0 16.667Z"/><path d="m6.5 9 1.667 1.666L11.5 7.333"/></symbol><symbol viewBox="0 0 32 32" id="sale" xmlns="http://www.w3.org/2000/svg"><path d="m20.87 12.168-.003.003-10.081 8.011-.002.002a.636.636 0 0 0-.219.401.526.526 0 0 0 .14.442c.119.155.28.235.477.235.06 0 .128-.01.192-.03a.441.441 0 0 0 .174-.095l10.077-8.009.002-.001c.12-.1.2-.249.219-.402a.527.527 0 0 0-.14-.44c-.203-.278-.564-.311-.835-.117ZM10.949 13.633c.208 1.35 1.351 2.288 2.603 2.288h.005c.128 0 .27 0 .414-.035a2.616 2.616 0 0 0 2.183-3.018 2.674 2.674 0 0 0-1.04-1.734 2.586 2.586 0 0 0-1.945-.486 2.674 2.674 0 0 0-1.734 1.04 2.586 2.586 0 0 0-.486 1.945Zm4.005-.57v.003a1.413 1.413 0 0 1-1.185 1.621 1.413 1.413 0 0 1-1.62-1.185c-.125-.775.432-1.492 1.178-1.62a.76.76 0 0 0 .127-.019.583.583 0 0 1 .098-.014c.687 0 1.31.5 1.402 1.214ZM21.53 20.027v-.002c-.035-1.454-1.212-2.635-2.638-2.635a2.636 2.636 0 0 0-2.636 2.637 2.636 2.636 0 0 0 2.636 2.637 2.636 2.636 0 0 0 2.637-2.637Zm-2.638 1.402c-.779 0-1.435-.656-1.435-1.435 0-.78.656-1.436 1.435-1.436.78 0 1.435.655 1.436 1.434-.032.817-.659 1.437-1.436 1.437Z"/><path d="M26.964 9.214v-.001c.25-.682.505-1.386.578-2.039.072-.657-.038-1.276-.534-1.772-.492-.491-1.088-.647-1.724-.642-.595.004-1.233.148-1.86.29l-.113.025-.162.035c-.415.09-.827.178-1.21.222-.433.05-.812.039-1.105-.085-.294-.123-.574-.383-.846-.721-.27-.337-.526-.74-.777-1.142l-.001-.001c-.02-.033-.042-.065-.063-.098-.347-.537-.72-1.114-1.169-1.563C17.5 1.243 16.925.9 16.188.9c-.736 0-1.31.343-1.786.827-.473.481-.854 1.11-1.203 1.692-.252.418-.499.83-.762 1.171-.263.342-.534.6-.827.724-.293.123-.68.134-1.122.08-.44-.053-.918-.168-1.385-.285-.666-.166-1.353-.336-1.988-.35-.639-.012-1.236.134-1.713.61-.495.495-.614 1.113-.558 1.77.053.626.267 1.302.476 1.958l.024.078v.002c.168.5.324.995.406 1.446.083.453.087.847-.036 1.155-.122.288-.401.55-.776.801-.35.235-.77.452-1.193.672l-.087.045c-.02.01-.04.02-.06.032-.615.323-1.276.67-1.787 1.107-.53.453-.911 1.013-.911 1.754 0 .017 0 .05.006.083a.259.259 0 0 0 .02.07c0 .004-.002.01-.004.015v.001a.782.782 0 0 0-.013.041.218.218 0 0 0-.009.056c0 .74.38 1.309.91 1.766.529.456 1.216.811 1.849 1.128l.086.044c.423.22.843.437 1.193.671.375.252.655.514.777.803.121.289.11.681.023 1.14-.079.415-.215.868-.352 1.324l-.042.139-.024.077c-.209.656-.423 1.332-.476 1.959-.056.656.063 1.274.558 1.769.493.493 1.1.639 1.739.622.616-.017 1.274-.186 1.905-.347l.057-.015c.468-.117.946-.232 1.385-.286.442-.053.83-.042 1.122.08.293.124.564.383.827.725.263.34.51.753.762 1.171.349.583.73 1.21 1.203 1.692.475.484 1.05.827 1.787.827.735 0 1.318-.343 1.802-.822.48-.477.87-1.096 1.22-1.662.25-.401.506-.805.777-1.142.272-.337.551-.597.845-.721.312-.124.693-.142 1.12-.097.426.045.887.151 1.355.268h.002c.02.006.042.01.063.015.629.146 1.284.297 1.899.301.639.005 1.244-.15 1.736-.642.496-.496.607-1.115.534-1.772-.073-.653-.328-1.357-.578-2.039-.184-.502-.365-.997-.467-1.444-.104-.45-.122-.833-.002-1.12.122-.288.408-.55.8-.801.391-.251.87-.482 1.355-.716l.002-.002.098-.05c.621-.318 1.29-.66 1.81-1.088.55-.452.95-1.012.95-1.755a.303.303 0 0 0-.024-.116l-.008-.02a.532.532 0 0 1 .01-.032v-.001l.014-.04a.217.217 0 0 0 .008-.057c0-.759-.398-1.327-.95-1.78-.549-.451-1.261-.798-1.91-1.114-.468-.235-.946-.474-1.341-.729-.398-.257-.693-.519-.814-.79-.12-.287-.102-.678.002-1.132.102-.45.283-.946.467-1.43Zm1.131 9.054-2.627 2.193-.091-.04v.001c-.229.527-.217 1.1-.103 1.682.1.508.282 1.031.459 1.543l.075.218v.002l.02.053c.194.535.381 1.049.464 1.488.087.459.052.793-.157.989l-.003.002c-.237.237-.593.313-1.046.288-.452-.024-.977-.147-1.53-.28-1.096-.267-2.23-.511-3.233-.096h-.001c-.969.415-1.585 1.38-2.149 2.31l-.023.035c-.31.49-.607.96-.93 1.31-.33.358-.672.577-1.065.577-.375 0-.709-.217-1.036-.58-.326-.364-.63-.855-.948-1.375-.564-.962-1.18-1.961-2.15-2.377-1.005-.416-2.173-.137-3.268.162l-.076.018c-.525.128-1.023.249-1.455.284-.455.037-.81-.024-1.045-.244-.214-.215-.262-.564-.196-1.024.065-.456.237-.99.421-1.543l.001-.001c.01-.035.022-.07.033-.104.173-.55.35-1.113.438-1.654.093-.577.087-1.141-.14-1.65-.211-.507-.603-.904-1.069-1.24-.466-.334-1.016-.613-1.549-.88-.553-.284-1.077-.555-1.465-.857-.388-.302-.616-.618-.616-.99 0-.017 0-.049-.006-.082a.259.259 0 0 0-.021-.07.219.219 0 0 0 .027-.114c0-.353.227-.661.616-.964.362-.282.842-.544 1.354-.822l.112-.062c.533-.266 1.082-.544 1.548-.88.467-.334.859-.732 1.069-1.24.21-.524.216-1.095.127-1.672s-.275-1.168-.458-1.735c-.185-.57-.357-1.112-.422-1.569-.066-.462-.017-.8.195-.997l.002-.003c.236-.236.59-.304 1.044-.267.452.037.977.176 1.53.326l.002.001.123.03c.51.124 1.033.251 1.542.306.552.06 1.096.035 1.602-.174.97-.416 1.586-1.416 2.15-2.378l.051-.083c.3-.489.58-.947.885-1.291.322-.362.656-.58 1.048-.58.393 0 .735.218 1.066.577.322.35.619.82.93 1.31l.023.036.002.004c.299.465.602.937.945 1.342.343.407.73.753 1.2.962l.002.001c.504.209 1.04.242 1.582.195.488-.042.989-.149 1.484-.255l.164-.035h.003c.553-.134 1.078-.257 1.53-.281.453-.025.81.05 1.046.288l.003.002c.209.195.244.53.157.989-.083.439-.27.953-.464 1.487l-.02.053c-.216.583-.436 1.184-.546 1.765-.11.582-.113 1.155.114 1.68.211.51.621.907 1.108 1.245.446.31.965.578 1.471.838l.138.07.002.002c.586.284 1.136.564 1.54.87.406.307.64.624.64.976 0 .016 0 .049.006.083a.26.26 0 0 0 .021.07l-.005.015v.001a.812.812 0 0 0-.013.041.216.216 0 0 0-.008.057v.005c.006.137-.044.275-.152.418-.108.145-.27.289-.474.434-.41.29-.97.57-1.555.855Z"/></symbol><symbol viewBox="0 0 25 25" id="search" xmlns="http://www.w3.org/2000/svg"><circle cx="10.447" cy="10.447" r="6.617" transform="rotate(45 10.447 10.447)"/><rect x="15.059" y="14.207" width="7.161" height="1.474" rx=".737" transform="rotate(45 15.059 14.207)"/></symbol><symbol viewBox="0 0 42 29" id="send" xmlns="http://www.w3.org/2000/svg"><path d="M37.879 4.134a.965.965 0 0 0-1.354-.197L20.933 15.576a.322.322 0 0 1-.387 0L5.26 3.886a.967.967 0 0 0-1.173 1.537l12.02 9.193-11.888 8.957a.974.974 0 0 0 1.164 1.56l12.318-9.3 1.67 1.29a2.256 2.256 0 0 0 2.716.019l1.753-1.308 12.463 9.299a.965.965 0 0 0 1.516-.537.967.967 0 0 0-.36-1.013l-12.005-8.97 12.228-9.136a.967.967 0 0 0 .197-1.343Z"/><path d="M36.677 0H5.099A4.833 4.833 0 0 0 .266 4.833v19.334A4.834 4.834 0 0 0 5.099 29h31.578a4.833 4.833 0 0 0 4.833-4.833V4.833A4.833 4.833 0 0 0 36.677 0Zm2.9 24.167a2.9 2.9 0 0 1-2.9 2.9H5.099a2.9 2.9 0 0 1-2.9-2.9V4.833a2.9 2.9 0 0 1 2.9-2.9h31.578a2.9 2.9 0 0 1 2.9 2.9v19.334Z"/></symbol><symbol viewBox="0 0 28 20" id="share_copy" xmlns="http://www.w3.org/2000/svg"><path d="M11.396 5.584c-.86 0-1.652.239-2.269.674-.617.435-1.08 1.114-1.08 1.908v9.168c0 .794.463 1.473 1.08 1.908.617.436 1.409.674 2.27.674h13c.86 0 1.654-.238 2.271-.674.617-.435 1.078-1.114 1.078-1.908V8.166c0-.794-.46-1.473-1.078-1.908-.617-.435-1.41-.674-2.272-.674Zm0 1.5h13c.576 0 1.083.17 1.407.398.323.229.443.465.443.684v9.168c0 .219-.12.455-.443.684-.324.228-.831.398-1.407.398h-13c-.575 0-1.082-.17-1.406-.398-.323-.229-.443-.465-.443-.684V8.166c0-.219.12-.455.443-.684.324-.228.831-.398 1.406-.398Z"/><path d="M3.6.084c-.86 0-1.65.24-2.268.676C.715 1.195.25 1.872.25 2.666v9.168c0 .794.465 1.471 1.082 1.906.617.435 1.408.676 2.268.676a.75.75 0 0 0 .75-.75.75.75 0 0 0-.75-.75c-.571 0-1.08-.171-1.405-.4-.325-.23-.445-.468-.445-.682V2.666c0-.214.12-.452.445-.682.326-.229.834-.4 1.405-.4h13c.57 0 1.079.171 1.404.4.325.23.445.468.445.682a.75.75 0 0 0 .75.75.75.75 0 0 0 .75-.75c0-.794-.463-1.471-1.08-1.906-.617-.435-1.41-.676-2.27-.676Z"/></symbol><symbol viewBox="0 0 28 20" id="share_copy_success" xmlns="http://www.w3.org/2000/svg"><path d="M11.396 5.584c-.86 0-1.652.239-2.269.674-.617.435-1.08 1.114-1.08 1.908v9.168c0 .794.463 1.473 1.08 1.908.617.436 1.409.674 2.27.674h13c.86 0 1.654-.238 2.271-.674.617-.435 1.078-1.114 1.078-1.908V8.166c0-.794-.46-1.473-1.078-1.908-.617-.435-1.41-.674-2.272-.674Zm0 1.5h13c.576 0 1.083.17 1.407.398.323.229.443.465.443.684v9.168c0 .219-.12.455-.443.684-.324.228-.831.398-1.407.398h-13c-.575 0-1.082-.17-1.406-.398-.323-.229-.443-.465-.443-.684V8.166c0-.219.12-.455.443-.684.324-.228.831-.398 1.406-.398Z"/><path d="M22.227 9.79a.75.75 0 0 0-1.061.019l-4.271 4.439-1.649-1.713a.75.75 0 0 0-1.06-.02.75.75 0 0 0-.02 1.061l2.188 2.274a.75.75 0 0 0 1.08 0l4.812-5a.75.75 0 0 0-.02-1.06zM3.6.084c-.86 0-1.65.24-2.268.676C.715 1.195.25 1.872.25 2.666v9.168c0 .794.465 1.471 1.082 1.906.617.435 1.408.676 2.268.676a.75.75 0 0 0 .75-.75.75.75 0 0 0-.75-.75c-.571 0-1.08-.171-1.405-.4-.325-.23-.445-.468-.445-.682V2.666c0-.214.12-.452.445-.682.326-.229.834-.4 1.405-.4h13c.57 0 1.079.171 1.404.4.325.23.445.468.445.682a.75.75 0 0 0 .75.75.75.75 0 0 0 .75-.75c0-.794-.463-1.471-1.08-1.906-.617-.435-1.41-.676-2.27-.676Z"/></symbol><symbol viewBox="0 0 22 22" id="share_tg" xmlns="http://www.w3.org/2000/svg"><path d="M20.472 1.374a1.373 1.373 0 0 0-1.497-.255L1.91 8.696c-.75.34-1.109 1.284-.8 2.11.16.427.478.758.874.91l3.681 1.408 1.995 7.255c.004.015.017.024.022.038a.519.519 0 0 0 .135.209c.05.045.107.079.17.098.009.003.015.013.025.015h.005l.003.001a.39.39 0 0 0 .097.011.423.423 0 0 0 .125-.024c.008-.002.016-.001.023-.004a.468.468 0 0 0 .183-.129c.006-.006.015-.007.02-.014l2.87-3.484 4.188 3.566c.254.22.568.338.89.338.7 0 1.302-.538 1.446-1.29l3.108-16.779c.107-.58-.084-1.179-.499-1.557ZM8.702 14.5l-.673 3.6-1.404-5.11L13.59 9l-4.759 5.235a.54.54 0 0 0-.13.265Zm8.228 5a.553.553 0 0 1-.33.417.463.463 0 0 1-.49-.082l-4.536-3.864a.445.445 0 0 0-.643.063l-1.996 2.422.672-3.59 6.846-7.532a.561.561 0 0 0 0-.74.444.444 0 0 0-.556-.095l-9.87 5.654-3.73-1.427a.548.548 0 0 1-.344-.516.563.563 0 0 1 .318-.544L19.33 2.09a.474.474 0 0 1 .532.09c.146.13.214.34.174.543z"/><path d="M19.797.773a1.605 1.605 0 0 0-.924.118L1.809 8.467l-.002.002c-.882.4-1.283 1.48-.93 2.424.183.489.55.876 1.018 1.056h.001l3.563 1.363 1.96 7.133c.01.033.018.04.028.057.03.081.073.158.127.225l.004.003.002.004c.02.025.04.05.065.073l.001.002.002.002a.708.708 0 0 0 .258.148c.005.002.001.002.006.004.013.007.014.01.033.016l.016.003c.052.013.107.02.16.02h.006a.677.677 0 0 0 .2-.039c-.003.002-.021.01.025-.006h.002l.003-.002a.71.71 0 0 0 .27-.187l.004-.004c.013-.01.017-.008.031-.026l2.71-3.287 3.993 3.403c.297.254.67.396 1.053.396.827 0 1.527-.635 1.691-1.492v-.002l3.108-16.78c.123-.662-.093-1.346-.576-1.787a1.67 1.67 0 0 0-.844-.416zm-.72.575a1.113 1.113 0 0 1 1.226.21c.346.316.514.829.422 1.327l-3.108 16.78c-.124.645-.63 1.085-1.199 1.085-.262 0-.517-.096-.729-.277l-4.38-3.73-3.022 3.665c-.01.009-.011.005-.023.018l-.002.002v.002a.22.22 0 0 1-.084.058c.005-.002.031-.01-.006 0l-.006.002-.006.002a.172.172 0 0 1-.045.01L8.1 20.5l-.03-.013h-.008a.205.205 0 0 1-.07-.042l-.002-.002-.004-.002a.221.221 0 0 1-.017-.019l-.002-.004-.002-.004a.265.265 0 0 1-.047-.08v-.002c-.01-.025-.013-.026-.022-.039l-2.023-7.357-3.799-1.454a1.286 1.286 0 0 1-.728-.763c-.265-.708.048-1.515.668-1.795Zm.15.515L2.17 9.438a.809.809 0 0 0-.465.779c.005.33.197.632.506.744l3.838 1.467 9.972-5.711c.086-.05.174-.037.249.045.095.105.093.3-.002.404L9.375 14.75l-.686 3.66.438.205 1.996-2.422c.086-.105.192-.113.29-.03l4.534 3.86a.72.72 0 0 0 .746.123.801.801 0 0 0 .483-.601l3.107-16.777-.002.003a.822.822 0 0 0-.25-.773.73.73 0 0 0-.804-.135Zm.21.453c.088-.04.177-.026.254.047l.002.002.004.002a.334.334 0 0 1 .094.307v.002l-3.107 16.777h.002a.305.305 0 0 1-.178.23l-.002.003h-.004a.204.204 0 0 1-.227-.04l-.002-.001-4.537-3.864a.708.708 0 0 0-.998.094l-1.38 1.674.482-2.569 6.799-7.478a.802.802 0 0 0 0-1.076.703.703 0 0 0-.866-.143l-9.767 5.594-3.621-1.385H2.38c-.096-.035-.176-.146-.178-.285v-.008c-.006-.141.071-.262.168-.304l17.065-7.577Zm-5.97 6.467L6.332 12.87l1.457 5.297.486-.02.674-3.601a.293.293 0 0 1 .069-.143l4.76-5.234Zm-1.127 1.22-3.694 4.063a.79.79 0 0 0-.189.39l-.475 2.532-1.064-3.877Z"/></symbol><symbol viewBox="0 0 24 24" id="share_whatsapp" xmlns="http://www.w3.org/2000/svg"><path d="M12.734.273A11.75 11.75 0 0 0 .455 9.811c-.508 2.68-.005 5.425 1.3 7.81L.733 21.207a1.663 1.663 0 0 0 .424 1.637c.21.21.473.36.76.435a.75.75 0 0 0 .002 0c.288.075.59.07.875-.011l3.586-1.024c2.385 1.306 5.13 1.81 7.81 1.3a11.754 11.754 0 0 0 9.538-12.278A11.749 11.749 0 0 0 12.734.273Zm-.093 1.497a10.249 10.249 0 0 1 1.27 20.3c-2.454.466-4.992.02-7.14-1.254l.028.063a.75.75 0 0 0-.617-.139L2.38 21.826a.167.167 0 0 1-.088 0 .165.165 0 0 1-.12-.119.167.167 0 0 1 0-.088l1.087-3.8a.75.75 0 0 0-.076-.59A10.253 10.253 0 0 1 12.64 1.77Z"/><path d="M8.795 5.283a3.958 3.958 0 0 0-3.959 3.943.75.75 0 0 0 0 .003 9.923 9.923 0 0 0 2.906 7.029 9.923 9.923 0 0 0 7.03 2.906.75.75 0 0 0 .003-.002 3.97 3.97 0 0 0 3.941-3.957.75.75 0 0 0 0-.002 1.542 1.542 0 0 0-.777-1.336.75.75 0 0 0 0-.002l-2.343-1.34a1.67 1.67 0 0 0-1.686.018.75.75 0 0 0 0 .002l-1.39.834a4.714 4.714 0 0 1-1.899-1.899l.834-1.39a1.67 1.67 0 0 0 .238-.84.75.75 0 0 0 0-.002 1.666 1.666 0 0 0-.22-.844l-1.34-2.345a1.542 1.542 0 0 0-1.336-.776Zm0 1.5c.007 0 .015.002.021.006.007.004.01.008.014.014l1.34 2.345a.166.166 0 0 1 .023.084c0 .03-.01.059-.025.084l-1.076 1.795a.75.75 0 0 0-.04.694 6.272 6.272 0 0 0 3.141 3.142.75.75 0 0 0 .696-.04l1.793-1.077a.171.171 0 0 1 .17-.002l2.343 1.34c.006.003.012.01.016.016a.04.04 0 0 1 .006.02 2.47 2.47 0 0 1-2.451 2.46 8.42 8.42 0 0 1-5.963-2.467A8.425 8.425 0 0 1 6.336 9.23a2.454 2.454 0 0 1 2.459-2.447Z"/></symbol><symbol viewBox="0 0 32 32" id="support" xmlns="http://www.w3.org/2000/svg"><path d="M15.589 5.335C11.23 5.335 6 8.822 6 14.924v4.359c0 1.322.579 2.264 1.17 2.78.36.315.511.32.753.415C8.24 23.297 10.265 28 15.59 28c.029 0 .057-.003.087-.003h.006c1.997-.023 3.589-.756 4.808-1.74h-4.902c-4.65 0-6.147-4.635-6.147-4.635l-.151-.454-.465-.116s-.228-.054-.509-.3-.574-.612-.574-1.469v-.872h.872c0-6.103 8.718-1.743 11.333-7.846 0 0 2.615 2.406 2.615 7.846v2.615h.713a2.592 2.592 0 0 1-2.457 1.743h-3.567a1.305 1.305 0 0 0-1.228-.872h-.872a1.308 1.308 0 0 0 0 2.616h.872c.078 0 .154-.011.228-.024.06.016.131.024.203.024h4.365c2.172 0 3.981-1.613 4.303-3.698.55-.293.928-.866.928-1.532v-.872c0-.644-.352-1.2-.872-1.501v-1.985c0-3.487-1.743-7.846-5.231-7.846 0 0-.872-1.743-4.359-1.743v.002z"/></symbol><symbol viewBox="0 0 25 25" id="support2" xmlns="http://www.w3.org/2000/svg"><path d="M12.5 0A12.497 12.497 0 0 0 0 12.5C0 19.398 5.602 25 12.5 25S25 19.398 25 12.5 19.398 0 12.5 0Zm0 1C18.857 1 24 6.143 24 12.5S18.857 24 12.5 24 1 18.857 1 12.5A11.494 11.494 0 0 1 12.5 1Zm6.417 10.644v-.25C18.916 8.417 16.264 6 13 6c-3.266 0-5.917 2.417-5.917 5.394v.25C6.47 11.777 6 12.293 6 12.897v1.798c0 .707.63 1.282 1.406 1.282H8.2c.775 0 1.406-.575 1.406-1.282v-1.798c0-.604-.469-1.105-1.083-1.253v-.25c0-2.255 2.004-4.083 4.478-4.083 2.473 0 4.478 1.828 4.478 4.083v.25c-.615.133-1.083.649-1.083 1.253v1.798c0 .619.485 1.134 1.115 1.252-.404 1.253-1.568 2.226-3.007 2.447-.048-.31-.355-.56-.711-.56h-1.568c-.404 0-.728.294-.728.663v.84c0 .368.324.663.728.663h1.568c.372 0 .679-.265.711-.604 2.02-.25 3.654-1.636 4.106-3.42.776-.014 1.39-.589 1.39-1.281v-1.798c.017-.604-.452-1.12-1.083-1.253z"/></symbol><symbol viewBox="0 0 19 14" id="ticket" xmlns="http://www.w3.org/2000/svg"><path d="M13.6 12.998h4.2v-2.4c-1.02 0-1.8-.84-1.8-1.8 0-.96.78-1.8 1.8-1.8v-2.4h-4.2M11.8 4.598H1v2.4c1.02 0 1.8.84 1.8 1.8 0 .96-.78 1.8-1.8 1.8v2.4h10.8M13.6 4.598v1.2M13.6 11.8V13M4.6 7h6M7.6 9.402h3M13 1v1.2M13.6 7.598v2.4M15.4 2.2l-.6.6M10.6 2.2l.6.6"/></symbol><symbol viewBox="0 0 39 22" id="truck" xmlns="http://www.w3.org/2000/svg"><path d="M12.926 18.398c0-.901-.365-1.765-1.014-2.403A3.497 3.497 0 0 0 9.463 15c-.918 0-1.8.358-2.449.995A3.366 3.366 0 0 0 6 18.398v.204c0 .901.365 1.765 1.014 2.403.65.637 1.53.995 2.45.995.918 0 1.798-.358 2.448-.995a3.366 3.366 0 0 0 1.014-2.403v-.204Zm-3.463 1.604c-.38 0-.745-.148-1.014-.412a1.394 1.394 0 0 1-.42-.995 1.079 1.079 0 0 1 0-.204c.048-.334.218-.64.477-.862a1.443 1.443 0 0 1 1.873 0c.26.222.428.528.476.862.007.068.007.136 0 .204 0 .369-.147.722-.41.985-.263.264-.62.415-.996.422h.014ZM35 18.398c0-.901-.365-1.765-1.014-2.403a3.497 3.497 0 0 0-2.45-.995c-.918 0-1.798.358-2.448.995a3.366 3.366 0 0 0-1.014 2.403v.204c0 .901.365 1.765 1.014 2.403.65.637 1.53.995 2.449.995.918 0 1.8-.358 2.449-.995A3.366 3.366 0 0 0 35 18.602v-.204Zm-3.463 1.604a1.458 1.458 0 0 1-1.04-.397 1.407 1.407 0 0 1-.435-1.01 1.084 1.084 0 0 1 0-.204c.047-.334.217-.64.476-.862a1.443 1.443 0 0 1 1.873 0c.26.222.429.528.477.862.006.068.006.136 0 .204 0 .362-.142.71-.396.972a1.445 1.445 0 0 1-.969.435h.014Z"/><path d="m38.456 10.15-2.262-3.02a2.404 2.404 0 0 0-1.927-.991h-2.888a.39.39 0 0 1-.39-.381l-.042-3.042a2.428 2.428 0 0 0-.576-1.869A2.449 2.449 0 0 0 28.601 0H3.592a2.42 2.42 0 0 0-1.617.678 2.4 2.4 0 0 0-.73 1.588L.007 16.988a.903.903 0 0 0 .513.924.915.915 0 0 0 .364.088h3.43a.46.46 0 0 0 .453-.402 4.49 4.49 0 0 1 1.5-2.795 4.528 4.528 0 0 1 5.958 0 4.49 4.49 0 0 1 1.499 2.795.457.457 0 0 0 .452.402h12.276a.46.46 0 0 0 .453-.402 4.49 4.49 0 0 1 1.5-2.795 4.528 4.528 0 0 1 5.957 0 4.49 4.49 0 0 1 1.5 2.795.457.457 0 0 0 .452.402h1.99a.7.7 0 0 0 .654-.452.691.691 0 0 0 .042-.275v-5.48c0-.592-.19-1.167-.543-1.643ZM6.777 7.947H5.386l-.696 2.23H3.124l1.754-5.646h3.138l-.355 1.213H6.075l-.328 1.032H7.14l-.362 1.17ZM12.2 7.06a2.298 2.298 0 0 1-.884.575l.431 2.515h-1.635l-.445-2.57-.836 2.57H7.28l1.774-5.619h1.81a2.248 2.248 0 0 1 1.586.464 1.142 1.142 0 0 1 .237 1.261c-.1.3-.266.572-.487.797v.007Zm4.064.887h-1.392l-.327 1.025h1.6l-.368 1.178h-3.153l1.782-5.64h3.139L17.16 5.71h-1.58l-.327 1.04h1.392l-.383 1.198Zm5.282-2.21h-1.594l-.327 1.039h1.392l-.369 1.17h-1.391l-.328 1.026h1.601l-.383 1.178h-3.145l1.795-5.619h3.139l-.39 1.206ZM36.64 11.05h-5.094a.349.349 0 0 1-.348-.347V8.252a.47.47 0 0 1 .473-.478h2.575a.475.475 0 0 1 .383.187l2.136 2.84a.151.151 0 0 1-.04.23.154.154 0 0 1-.085.02Z"/><path d="M10.335 6.003 10 7c.545 0 .865-.148.96-.444.066-.196.05-.336-.049-.419a.967.967 0 0 0-.576-.134Z"/></symbol><symbol viewBox="0 0 58 35" id="truck_2" xmlns="http://www.w3.org/2000/svg"><path d="M29.928 11.667a.98.98 0 0 0-.67.295l-5.101 5.114-3.142-3.15c-.88-.922-2.3.502-1.382 1.385l3.834 3.846c.38.383 1 .383 1.382 0l5.79-5.808c.639-.623.169-1.682-.71-1.682h-.001ZM.967 19.444h5.8c.535 0 .966.434.966.973a.967.967 0 0 1-.966.972h-5.8A.967.967 0 0 1 0 20.417c0-.539.431-.973.967-.973Zm0-7.777h5.8c.535 0 .966.433.966.972a.967.967 0 0 1-.966.972h-5.8A.967.967 0 0 1 0 12.64c0-.539.431-.972.967-.972Zm0-7.778h5.8c.535 0 .966.433.966.972a.967.967 0 0 1-.966.972h-5.8A.967.967 0 0 1 0 4.861c0-.538.431-.972.967-.972Zm46.4 21.389c-2.659 0-4.834 2.187-4.834 4.86 0 2.674 2.175 4.862 4.834 4.862 2.658 0 4.833-2.188 4.833-4.861 0-2.674-2.175-4.861-4.833-4.861Zm0 1.944c1.612 0 2.9 1.295 2.9 2.917a2.895 2.895 0 0 1-2.9 2.917 2.895 2.895 0 0 1-2.9-2.917 2.895 2.895 0 0 1 2.9-2.917Zm-25.134-1.944c-2.658 0-4.833 2.187-4.833 4.86 0 2.674 2.175 4.862 4.833 4.862 2.659 0 4.834-2.188 4.834-4.861 0-2.674-2.175-4.861-4.834-4.861Zm0 1.944c1.613 0 2.9 1.295 2.9 2.917a2.895 2.895 0 0 1-2.9 2.917 2.895 2.895 0 0 1-2.9-2.917 2.895 2.895 0 0 1 2.9-2.917ZM12.567 0c-1.59 0-2.9 1.318-2.9 2.917v21.389c0 1.598 1.31 2.916 2.9 2.916h3.866c1.307.02 1.307-1.964 0-1.944h-3.866a.946.946 0 0 1-.967-.972V2.916c0-.555.414-.972.967-.972H37.7c.553 0 .967.417.967.973v22.36H28.033c-1.276 0-1.253 1.965 0 1.945h13.534c1.276 0 1.264-1.944 0-1.944H40.6v-17.5h8.172l7.295 11.464v5.064a.946.946 0 0 1-.967.972h-1.933c-1.265 0-1.265 1.944 0 1.944H55.1c1.59 0 2.9-1.318 2.9-2.916v-5.348a.987.987 0 0 0-.15-.525L50.115 6.281a.967.967 0 0 0-.816-.448h-8.7V2.917C40.6 1.318 39.29 0 37.7 0H12.567Z"/></symbol><symbol viewBox="0 0 31 25" id="turtle" xmlns="http://www.w3.org/2000/svg"><path d="M4.325 4.421V3.128h1.262V4.42H4.325Zm9.714 14.885c-.885-1.275-2.625-3.554-4.335-4.492-1.521-.835-2.449-.262-2.866.154l.913.916c.162-.161.397-.303.91-.126 1.01.347 2.443 1.713 3.931 3.747 1.065 1.455 1.785 2.742 2.08 3.41-.757.11-1.841-.01-2.994-.347-1.607-.47-3.07-1.269-4.017-2.192-1.077-1.051-1.4-2.153-.96-3.276l.168-.425-.345-.3c-1.186-1.028-1.79-2.205-1.798-3.498l-.03-5.313h-.642a2.763 2.763 0 0 1-2.76-2.76 2.763 2.763 0 0 1 2.76-2.76h1.703c.636 0 1.014.558 1.059 1.109.008.098.009.265.01.442.003.818.008 1.94.571 2.574l.968-.859c-.24-.27-.244-1.287-.246-1.721 0-.211-.002-.394-.014-.541C7.998 1.738 6.99.75 5.757.75H4.054A4.058 4.058 0 0 0 0 4.804a4.06 4.06 0 0 0 3.41 4.002l.023 4.078c.008 1.532.67 2.967 1.922 4.174-.4 1.47.088 2.962 1.403 4.244 1.093 1.066 2.753 1.98 4.557 2.507.997.292 1.936.439 2.746.439.645 0 1.208-.094 1.654-.281l.308-.13.072-.327c.053-.241.058-.597-.56-1.773a24.098 24.098 0 0 0-1.496-2.431Zm8.754-2.43c-.692-.286-1.712-.438-2.5-.007-.484.265-.795.704-.897 1.27l1.273.23c.032-.178.108-.29.245-.365.305-.167.888-.139 1.386.067 1.714.707 3.591 3.427 4.22 4.695-1.572-.043-4.075-.66-5.342-1.727-.47-.396-.713-.808-.722-1.223l-.011-.49-.475-.122c-.77-.199-3.112-.497-4.662.495l.698 1.09c.89-.57 2.364-.543 3.226-.414.146.599.518 1.153 1.113 1.653 1.603 1.35 4.57 2.03 6.382 2.03.279 0 .53-.015.746-.048l.44-.066.095-.434c.185-.836-1.163-2.768-1.58-3.34-.7-.959-2.102-2.663-3.635-3.295Zm8.072-4.098c-.676 2.24-2.231 4.04-4.893 5.663l-.674-1.105c1.918-1.17 3.185-2.417 3.906-3.864-4.125.782-9.642.848-11.36.848-3.965 0-7.836-.437-11.197-1.265l-.445-.11-.044-.455a6.972 6.972 0 0 1-.033-.674c0-2.426 1.244-4.695 3.502-6.39 2.202-1.65 5.12-2.56 8.217-2.56 5.606 0 10.43 3.03 11.5 7.216.068.052.226.133.335.189.557.284 1.714.874 1.186 2.507Zm-21.96-.555c.137-1.194.625-2.435 1.413-3.568.762-1.098 1.726-1.99 2.693-2.503v-1.12c-3.322 1.283-5.592 3.843-5.592 6.785v.093c.486.113.982.217 1.487.313Zm8.293.8V9.295l-3.52-2.032c-1.456.75-3.277 2.894-3.496 5.182 2.224.352 4.596.548 7.016.578Zm4.186-6.893V4.616a13.806 13.806 0 0 0-3.54-.457c-1.242 0-2.434.16-3.54.454V6.13l3.54 2.044 3.54-2.044Zm4.518 6.503c-.275-2.215-2.291-4.575-3.842-5.399l-3.569 2.06v3.73c2.286-.018 4.975-.134 7.411-.391Zm3.19-1.21c-.382-.195-.856-.437-.989-.974-.424-1.718-1.662-3.297-3.484-4.446-.6-.378-1.251-.701-1.941-.967v1.063c1.848.998 4.176 3.66 4.51 6.382a29.69 29.69 0 0 0 2.521-.434c.017-.286-.168-.395-.618-.624Z"/></symbol><symbol viewBox="0 0 15 15" id="view1" xmlns="http://www.w3.org/2000/svg"><rect width="6.563" height="6.563" rx=".938"/><rect y="8.438" width="6.563" height="6.563" rx=".938"/><rect x="8.438" width="6.563" height="6.563" rx=".938"/><rect x="8.438" y="8.438" width="6.563" height="6.563" rx=".938"/></symbol><symbol viewBox="0 0 15 15" id="view2" xmlns="http://www.w3.org/2000/svg"><rect width="3.333" height="3.333" rx=".833"/><rect y="5.834" width="3.333" height="3.333" rx=".833"/><rect y="11.666" width="3.333" height="3.333" rx=".833"/><rect x="5.834" width="3.333" height="3.333" rx=".833"/><rect x="5.834" y="5.834" width="3.333" height="3.333" rx=".833"/><rect x="5.834" y="11.666" width="3.333" height="3.333" rx=".833"/><rect x="11.667" width="3.333" height="3.333" rx=".833"/><rect x="11.667" y="5.834" width="3.333" height="3.333" rx=".833"/><rect x="11.667" y="11.666" width="3.333" height="3.333" rx=".833"/></symbol><symbol viewBox="0 0 17 15" id="view3" xmlns="http://www.w3.org/2000/svg"><rect width="3" height="3" rx="1.5"/><rect y="6" width="3" height="3" rx="1.5"/><rect x="5" y="6" width="12" height="3" rx="1.5"/><rect x="5" y="12" width="12" height="3" rx="1.5"/><rect x="5" width="12" height="3" rx="1.5"/><rect y="12" width="3" height="3" rx="1.5"/></symbol></svg>