<svg width="95" height="95" viewBox="0 0 95 95" fill="none" xmlns="http://www.w3.org/2000/svg">
<path d="M47.2455 90.1701C71.0431 90.1701 90.3348 71.1822 90.3348 47.7594C90.3348 24.3366 71.0431 5.34863 47.2455 5.34863C23.448 5.34863 4.15625 24.3366 4.15625 47.7594C4.15625 71.1822 23.448 90.1701 47.2455 90.1701Z" stroke="#C02356" stroke-width="2.375" stroke-linecap="round"/>
<path d="M34.2742 29.1304L23.8094 33.4202C23.681 33.9346 23.6016 34.4709 23.6016 35.0233C23.6016 38.7967 26.7671 41.8515 30.682 41.8515C34.5969 41.8515 37.7773 38.7967 37.7773 35.0233C37.7773 32.5131 36.3671 30.318 34.2742 29.1304Z" fill="#C02356" stroke="#C02356" stroke-width="0.386637" stroke-linecap="round"/>
<path d="M27.9716 36.6021C29.1468 36.6021 30.0994 35.4603 30.0994 34.0519C30.0994 32.6435 29.1468 31.5017 27.9716 31.5017C26.7964 31.5017 25.8438 32.6435 25.8438 34.0519C25.8438 35.4603 26.7964 36.6021 27.9716 36.6021Z" fill="#DDBEAB" stroke="#C02356" stroke-width="0.129419" stroke-linecap="round"/>
<path d="M60.1563 30.8667C58.3575 32.1059 57.1875 34.1396 57.1875 36.4331C57.1875 40.2065 60.3531 43.2612 64.268 43.2612C68.1828 43.2612 71.3633 40.2065 71.3633 36.4331C71.3633 36.0797 71.3281 35.733 71.2743 35.3941L60.1563 30.8667Z" fill="#C02356" stroke="#C02356" stroke-width="0.386637" stroke-linecap="round"/>
<path d="M61.5653 37.0621C62.7405 37.0621 63.6932 35.9203 63.6932 34.5119C63.6932 33.1034 62.7405 31.9617 61.5653 31.9617C60.3902 31.9617 59.4375 33.1034 59.4375 34.5119C59.4375 35.9203 60.3902 37.0621 61.5653 37.0621Z" fill="#DDBEAB" stroke="#C02356" stroke-width="0.129419" stroke-linecap="round"/>
<path d="M23.6953 71.8323C27.7409 70.0143 31.9991 68.6701 36.3553 67.8358C40.4164 67.058 44.5594 66.7233 48.6939 66.7835C52.7516 66.8425 56.8083 67.2823 60.7648 68.1845C64.3698 69.0067 67.8873 70.2123 71.2387 71.7744" stroke="#C02356" stroke-width="1.9"/>
</svg>
