<svg width="35" height="168" viewBox="0 0 35 168" fill="none" xmlns="http://www.w3.org/2000/svg">
<rect x="4" y="160.8" width="3.6" height="7.2" rx="1.8" fill="#A9B5CF"/>
<rect x="10" y="156" width="3.6" height="12" rx="1.8" fill="#A9B5CF"/>
<g clip-path="url(#clip0_3309_81127)">
<path d="M12.4492 139C13.5667 139 14.6417 139.442 15.4325 140.234C16.2242 141.025 16.6667 142.092 16.6667 143.208V149.792C16.6667 152.117 14.775 154 12.4492 154H4.21667C1.89083 154 0 152.117 0 149.792V143.208C0 140.883 1.8825 139 4.21667 139H12.4492ZM13.3917 143.333C13.2167 143.324 13.05 143.383 12.9242 143.5L9.16667 146.5C8.68333 146.901 7.99083 146.901 7.5 146.5L3.75 143.5C3.49083 143.308 3.1325 143.333 2.91667 143.558C2.69167 143.783 2.66667 144.142 2.8575 144.392L2.96667 144.5L6.75833 147.458C7.225 147.825 7.79083 148.025 8.38333 148.025C8.97417 148.025 9.55 147.825 10.0158 147.458L13.775 144.45L13.8417 144.383C14.0408 144.142 14.0408 143.792 13.8325 143.55C13.7167 143.426 13.5575 143.35 13.3917 143.333Z" fill="#A9B5CF"/>
<path d="M34 70.5V71.3333C34 72.2542 33.2542 73 32.3333 73H20.6667C19.7458 73 19 72.2542 19 71.3333V59.6667C19 58.7458 19.7458 58 20.6667 58H32.3333C33.2542 58 34 58.7458 34 59.6667V60.5H26.5C25.5792 60.5 24.8333 61.2458 24.8333 62.1667V68.8333C24.8333 69.7542 25.5792 70.5 26.5 70.5H34ZM26.5 68.8333H34.8333V62.1667H26.5V68.8333ZM29.8333 66.75C29.1417 66.75 28.5833 66.1917 28.5833 65.5C28.5833 64.8083 29.1417 64.25 29.8333 64.25C30.525 64.25 31.0833 64.8083 31.0833 65.5C31.0833 66.1917 30.525 66.75 29.8333 66.75Z" fill="#42AB10"/>
<path d="M32.928 12.7513L32.8484 12.5114C32.6598 11.9507 32.0415 11.366 31.4736 11.212L29.3715 10.6378C28.8015 10.4827 27.9883 10.6912 27.5712 11.1083L26.8105 11.869C24.0457 11.1219 21.8776 8.95382 21.1315 6.18954L21.8923 5.42873C22.3094 5.01166 22.5179 4.19958 22.3628 3.62954L21.7896 1.52645C21.6345 0.957442 21.0488 0.339213 20.4892 0.152674L20.2493 0.0719962C19.6886 -0.114543 18.8891 0.0741087 18.4721 0.491146L17.3341 1.63019C17.1308 1.83243 17.0008 2.41085 17.0008 2.41297C16.961 6.02604 18.3777 9.50706 20.9335 12.0628C23.483 14.6123 26.9509 16.027 30.5535 15.9966C30.5724 15.9966 31.1676 15.8687 31.3709 15.6665L32.5089 14.5285C32.9259 14.1114 33.1145 13.3119 32.928 12.7513Z" fill="#42AB10"/>
<path d="M22.5 52C21.6712 52 21.0075 52.6713 21.0075 53.5C21.0075 54.3287 21.6712 55 22.5 55C23.3288 55 24 54.3287 24 53.5C24 52.6713 23.3288 52 22.5 52ZM18 40V41.5H19.5L22.1962 47.1888L21.1837 49.0262C21.0675 49.2437 21 49.4875 21 49.75C21 50.5787 21.6712 51.25 22.5 51.25H31.5V49.75H22.8188C22.7138 49.75 22.6313 49.6675 22.6313 49.5625C22.6313 49.5288 22.6388 49.4987 22.6537 49.4725L23.325 48.25H28.9125C29.475 48.25 29.9662 47.9388 30.225 47.4775L32.9062 42.61C32.9663 42.505 33 42.3812 33 42.25C33 42.0511 32.921 41.8603 32.7803 41.7197C32.6397 41.579 32.4489 41.5 32.25 41.5H21.1613L20.4488 40H18ZM30 52C29.1713 52 28.5075 52.6713 28.5075 53.5C28.5075 54.3287 29.1713 55 30 55C30.8287 55 31.5 54.3287 31.5 53.5C31.5 52.6713 30.8287 52 30 52Z" fill="#42AB10"/>
<mask id="mask0_3309_81127" style="mask-type:luminance" maskUnits="userSpaceOnUse" x="0" y="0" width="17" height="138">
<path d="M17 0H0V138H17V0Z" fill="white"/>
</mask>
<g mask="url(#mask0_3309_81127)">
<mask id="mask1_3309_81127" style="mask-type:luminance" maskUnits="userSpaceOnUse" x="0" y="122" width="16" height="16">
<path d="M16 122H0V138H16V122Z" fill="white"/>
</mask>
<g mask="url(#mask1_3309_81127)">
<path d="M7.81534 129.745L0.90625 126.108V133.999C0.906253 134.032 0.915302 134.064 0.932419 134.093C0.949536 134.121 0.974072 134.144 1.00338 134.16L7.81534 137.745V129.745Z" fill="#A9B5CF"/>
<path d="M7.99503 129.431L14.9041 125.794L8.07973 122.203C8.05361 122.189 8.02454 122.182 7.99503 122.182C7.96553 122.182 7.93646 122.189 7.91034 122.203L1.08594 125.794L7.99503 129.431Z" fill="#A9B5CF"/>
<path d="M8.17969 129.745V137.745L14.9916 134.159C15.0209 134.144 15.0454 134.121 15.0625 134.093C15.0797 134.064 15.0887 134.032 15.0887 133.999V126.108L8.17969 129.745Z" fill="#A9B5CF"/>
</g>
<path d="M3.67123 110.088L10.9258 106.461L8.00456 105L0.75 108.627L3.67123 110.088Z" fill="#A9B5CF"/>
<path d="M12.4109 107.207L5.15625 110.834L7.9987 112.256L15.2533 108.628L12.4109 107.207Z" fill="#A9B5CF"/>
<path d="M7.33333 113.413L0 109.746V117.334L7.33333 121.001V113.413Z" fill="#A9B5CF"/>
<path d="M8.66406 113.413V121.001L15.9973 117.334V109.746L8.66406 113.413Z" fill="#A9B5CF"/>
<path d="M7.65 103.3C11.875 103.3 15.3 99.875 15.3 95.65C15.3 91.425 11.875 88 7.65 88C3.42502 88 0 91.425 0 95.65C0 99.875 3.42502 103.3 7.65 103.3Z" fill="#A9B5CF"/>
<path d="M6.58523 96.9092V97.4692H8.73295V98.2992H6.58523V99.1992H4.96449V98.2992H4V97.4692H4.96449V92.1992H7.97727C8.92519 92.1992 9.6643 92.3992 10.1946 92.7992C10.7315 93.1992 11 93.7859 11 94.5592C11 95.3259 10.7315 95.9092 10.1946 96.3092C9.6643 96.7092 8.92519 96.9092 7.97727 96.9092H6.58523ZM9.36932 94.5692C9.36932 94.2292 9.24669 93.9692 9.00142 93.7892C8.76278 93.6092 8.41809 93.5192 7.96733 93.5192H6.58523V95.6392H7.96733C8.41809 95.6392 8.76278 95.5492 9.00142 95.3692C9.24669 95.1826 9.36932 94.9159 9.36932 94.5692Z" fill="white"/>
<mask id="mask2_3309_81127" style="mask-type:luminance" maskUnits="userSpaceOnUse" x="0" y="0" width="16" height="16">
<path d="M16 0H0V16H16V0Z" fill="white"/>
</mask>
<g mask="url(#mask2_3309_81127)">
<path d="M15.928 12.7513L15.8484 12.5114C15.6598 11.9507 15.0415 11.366 14.4736 11.212L12.3715 10.6378C11.8015 10.4827 10.9883 10.6912 10.5712 11.1083L9.81047 11.869C7.04566 11.1219 4.87761 8.95382 4.13152 6.18954L4.89233 5.42873C5.3094 5.01166 5.5179 4.19959 5.36282 3.62954L4.78962 1.52645C4.63454 0.957442 4.04877 0.339213 3.48922 0.152674L3.24926 0.0719963C2.68864 -0.114543 1.8891 0.0741087 1.47207 0.491146L0.334058 1.63019C0.130753 1.83243 0.000816572 2.41085 0.000816572 2.41297C-0.0389859 6.02604 1.37774 9.50707 3.93348 12.0628C6.48296 14.6123 9.95094 16.027 13.5535 15.9966C13.5724 15.9966 14.1676 15.8687 14.3709 15.6665L15.5089 14.5284C15.9259 14.1114 16.1145 13.3119 15.928 12.7513Z" fill="#A9B5CF"/>
</g>
<path d="M15 26.3409C15 22.2746 11.8775 19 8 19C4.12255 19 1 22.2746 1 26.3409C1 30.4072 8 38 8 38C8 38 15 30.4072 15 26.3409ZM4.7402 26.197C4.7402 24.3258 6.21569 22.7784 8 22.7784C9.78431 22.7784 11.2598 24.2898 11.2598 26.197C11.2598 28.0682 9.81863 29.6155 8 29.6155C6.21569 29.6155 4.7402 28.0682 4.7402 26.197Z" fill="#A9B5CF"/>
<path d="M14.8182 77H12.6364V74H2.45455C1.65455 74 1 74.675 1 75.5V83.75H2.45455C2.45455 84.995 3.42909 86 4.63636 86C5.84364 86 6.81818 84.995 6.81818 83.75H11.1818C11.1818 84.995 12.1564 86 13.3636 86C14.5709 86 15.5455 84.995 15.5455 83.75H17V80L14.8182 77ZM4.63636 84.875C4.03273 84.875 3.54545 84.3725 3.54545 83.75C3.54545 83.1275 4.03273 82.625 4.63636 82.625C5.24 82.625 5.72727 83.1275 5.72727 83.75C5.72727 84.3725 5.24 84.875 4.63636 84.875ZM14.4545 78.125L15.88 80H12.6364V78.125H14.4545ZM13.3636 84.875C12.76 84.875 12.2727 84.3725 12.2727 83.75C12.2727 83.1275 12.76 82.625 13.3636 82.625C13.9673 82.625 14.4545 83.1275 14.4545 83.75C14.4545 84.3725 13.9673 84.875 13.3636 84.875Z" fill="#A9B5CF"/>
<path d="M8.65 72.1008C12.875 72.1008 16.3 68.6758 16.3 64.4508C16.3 60.2258 12.875 56.8008 8.65 56.8008C4.42502 56.8008 1 60.2258 1 64.4508C1 68.6758 4.42502 72.1008 8.65 72.1008Z" fill="#A9B5CF"/>
<path d="M9.76155 62.6521C9.76155 63.319 9.73685 63.9406 9.68745 64.5169C9.63805 65.0933 9.57219 65.6778 9.48985 66.2706H8.08195C7.99962 65.6778 7.92964 65.0933 7.872 64.5169C7.8226 63.9406 7.7979 63.319 7.7979 62.6521V60.4414H9.76155V62.6521ZM9.9221 68.0243C9.9221 68.3866 9.80272 68.6665 9.56395 68.8641C9.33342 69.0618 9.06995 69.1606 8.77355 69.1606C8.47715 69.1606 8.20957 69.0618 7.9708 68.8641C7.74027 68.6665 7.625 68.3866 7.625 68.0243C7.625 67.6621 7.74027 67.3821 7.9708 67.1845C8.20957 66.9869 8.47715 66.8881 8.77355 66.8881C9.06995 66.8881 9.33342 66.9869 9.56395 67.1845C9.80272 67.3821 9.9221 67.6621 9.9221 68.0243Z" fill="white"/>
<path fill-rule="evenodd" clip-rule="evenodd" d="M9.25 47.067V43.75C9.25 43.336 8.914 43 8.5 43C8.086 43 7.75 43.336 7.75 43.75V47.4916C7.74868 47.624 7.78244 47.7548 7.8475 47.8699C7.9206 47.994 8.01698 48.0887 8.13225 48.1537L11.3726 50.0245C11.7311 50.2315 12.1901 50.1085 12.3971 49.75C12.6041 49.3915 12.4811 48.9325 12.1226 48.7255L9.25 47.067ZM8.5 40C12.6422 40 16 43.3578 16 47.5C16 51.6422 12.6422 55 8.5 55C4.35776 55 1 51.6422 1 47.5C1 43.3578 4.35776 40 8.5 40Z" fill="#A9B5CF"/>
</g>
<path d="M33 26.3409C33 22.2746 29.8774 19 26 19C22.1225 19 19 22.2746 19 26.3409C19 30.4072 26 38 26 38C26 38 33 30.4072 33 26.3409ZM22.7402 26.197C22.7402 24.3258 24.2157 22.7784 26 22.7784C27.7843 22.7784 29.2598 24.2898 29.2598 26.197C29.2598 28.0682 27.8186 29.6155 26 29.6155C24.2157 29.6155 22.7402 28.0682 22.7402 26.197Z" fill="#42AB10"/>
</g>
<defs>
<clipPath id="clip0_3309_81127">
<rect width="35" height="154" fill="white"/>
</clipPath>
</defs>
</svg>
