<svg width="168" height="126" viewBox="0 0 168 126" fill="none" xmlns="http://www.w3.org/2000/svg">
<path fill-rule="evenodd" clip-rule="evenodd" d="M276.563 226.06C267.978 252.946 237.518 273.8 209.316 275.084C180.327 276.404 157.939 250.365 135.055 232.504C119.55 220.402 115.082 197.445 97.8047 188.048C72.2944 174.172 34.5578 188.357 14.7857 167.087C-3.7603 147.136 -1.35392 114.099 4.31225 87.471C9.97507 60.8584 22.4644 32.2598 46.2754 19.1004C69.9686 6.00608 99.2786 23.6766 126.125 20.1496C146.608 17.4586 163.338 -0.381557 183.952 1.01266C205.5 2.47001 224.875 14.3788 241.672 27.9643C259.029 42.0026 279.664 57.936 281.797 80.1496C283.96 102.677 253.245 117.438 252.434 140.053C251.348 170.318 285.773 197.216 276.563 226.06Z" fill="#FAE100"/>
</svg>
