<svg width="59" height="26" viewBox="0 0 59 26" fill="none" xmlns="http://www.w3.org/2000/svg">
<path d="M24.8951 5.58001L19.6273 1.6292C18.9681 1.13477 18.0273 1.60515 18.0273 2.4292V8.15542" stroke="black" stroke-width="1.5" stroke-linecap="round"/>
<path d="M33.0502 5.15081L38.318 1.2C38.9772 0.705573 39.918 1.17595 39.918 2V7.72622" stroke="black" stroke-width="1.5" stroke-linecap="round"/>
<path d="M57.0118 17.5174C52.7153 16.0343 48.2239 15.3286 43.7789 15.7592C43.12 15.819 43.816 17.0031 44.2429 17.027C48.5394 17.3021 52.8081 17.5891 57.0953 18.0436C57.3552 18.0795 57.1696 17.5772 57.0118 17.5174Z" fill="#020203"/>
<path d="M57.0774 23.4975C52.8736 21.0097 48.475 19.2037 43.8816 18.3785C43.167 18.2469 43.6403 19.5147 44.1043 19.6223C48.5122 20.7346 52.8365 22.0981 57.0959 23.94C57.3001 24.0357 57.198 23.5573 57.0774 23.4975Z" fill="#020203"/>
<path d="M57.8361 10.1738C52.1012 11.1425 49.7534 10.9512 43.8144 13.427C43.2762 13.6542 43.5917 14.6589 43.9721 14.5991C49.8091 13.7379 52.5002 12.9007 58.2166 11.1904C58.6156 11.0708 58.1516 10.1259 57.8361 10.1738Z" fill="#020203"/>
<path d="M1.3615 17.278C5.6585 15.7949 10.1504 15.0893 14.5959 15.5198C15.2548 15.5796 14.5588 16.7637 14.1319 16.7876C9.83486 17.0627 5.56569 17.3498 1.27797 17.8042C1.01811 17.8401 1.20372 17.3378 1.3615 17.278Z" fill="#020203"/>
<path d="M1.29639 23.2582C5.50059 20.7705 9.89968 18.9645 14.4937 18.1392C15.2083 18.0076 14.735 19.2754 14.2709 19.3831C9.86255 20.4954 5.53771 21.8589 1.27783 23.7007C1.07365 23.7964 1.18502 23.318 1.29639 23.2582Z" fill="#020203"/>
<path d="M0.534968 9.93437C6.27049 10.9032 8.61853 10.7118 14.5582 13.1876C15.0965 13.4148 14.781 14.4195 14.4005 14.3597C8.56285 13.4985 5.87142 12.6613 0.154456 10.951C-0.244617 10.8314 0.219422 9.88653 0.534968 9.93437Z" fill="#020203"/>
<mask id="mask0_321_42941" style="mask-type:luminance" maskUnits="userSpaceOnUse" x="16" y="14" width="27" height="12">
<path d="M42.0113 14.313L42.0337 18.4629C42.0448 20.3594 40.8288 22.2559 38.3523 23.7284C33.388 26.6847 25.2555 26.7628 20.1908 23.9181C17.6473 22.479 16.3644 20.5713 16.3421 18.6637L16.3086 14.5138C16.3197 16.4326 17.6027 18.3402 20.1573 19.7681C25.222 22.624 33.3434 22.5347 38.3188 19.5785C40.7954 18.1059 42.0225 16.1983 42.0113 14.313Z" fill="white"/>
</mask>
<g mask="url(#mask0_321_42941)">
<path d="M42.01 14.313L42.0323 18.4629C42.0323 18.6191 42.0212 18.7641 42.01 18.9203L41.9766 14.7704C41.9989 14.6142 42.01 14.458 42.01 14.313Z" fill="#FECD45"/>
<path d="M41.9888 14.7704L42.0223 18.9203C42.0111 19.0653 41.9888 19.1992 41.9553 19.3442L41.9219 15.1943C41.9553 15.0493 41.9777 14.9043 41.9888 14.7704Z" fill="#FECC42"/>
<path d="M41.9207 15.1943L41.9542 19.3443C41.9319 19.4781 41.8984 19.612 41.8538 19.7459L41.8203 15.5959C41.8649 15.4621 41.8984 15.3282 41.9207 15.1943Z" fill="#FECB3E"/>
<path d="M41.8214 15.5959L41.8548 19.7459C41.8214 19.8797 41.7767 20.0025 41.721 20.1363L41.6875 15.9864C41.7433 15.8637 41.7879 15.7298 41.8214 15.5959Z" fill="#FECB3C"/>
<path d="M41.6869 15.9863L41.7203 20.1363C41.6757 20.259 41.6199 20.3817 41.553 20.5155L41.5195 16.3656C41.5865 16.2429 41.6422 16.1202 41.6869 15.9863Z" fill="#FEC938"/>
<path d="M41.5289 16.3656L41.5624 20.5155C41.5066 20.6382 41.4397 20.761 41.3616 20.8837L41.3281 16.7337C41.3951 16.611 41.462 16.4883 41.5289 16.3656Z" fill="#FEC835"/>
<path d="M41.328 16.7338L41.3615 20.8837C41.2946 21.0064 41.2165 21.1291 41.1272 21.2407L41.0938 17.0907C41.183 16.9792 41.2611 16.8565 41.328 16.7338Z" fill="#FDC832"/>
<path d="M41.1076 17.0908L41.141 21.2407C41.063 21.3635 40.9737 21.4862 40.8733 21.5977L40.8398 17.4478C40.9291 17.3362 41.0183 17.2135 41.1076 17.0908Z" fill="#FDC72E"/>
<path d="M40.8364 17.4589L40.8698 21.6088C40.7694 21.7315 40.669 21.8542 40.5686 21.9658L40.5352 17.8158C40.6356 17.6931 40.736 17.5816 40.8364 17.4589Z" fill="#FDC72A"/>
<path d="M40.5216 17.816L40.5551 21.966C40.4435 22.0887 40.332 22.2114 40.2093 22.3341L40.1758 18.1842C40.2985 18.0615 40.4101 17.9388 40.5216 17.816Z" fill="#FDC628"/>
<path d="M40.1784 18.1842L40.2119 22.3341C40.078 22.4568 39.9441 22.5907 39.7991 22.7134L39.7656 18.5635C39.9106 18.4296 40.0445 18.3069 40.1784 18.1842Z" fill="#FDC425"/>
<path d="M39.7676 18.5522L39.8011 22.7022C39.6449 22.836 39.4776 22.9699 39.2991 23.0926L39.2656 18.9427C39.4441 18.82 39.6003 18.6861 39.7676 18.5522Z" fill="#FDC423"/>
<path d="M39.2614 18.9537L39.2949 23.1037C39.0941 23.2487 38.8933 23.3937 38.6702 23.5276L38.6367 19.3777C38.8598 19.2438 39.0606 19.0988 39.2614 18.9537Z" fill="#FDC220"/>
<path d="M38.638 19.3778L38.6715 23.5277C38.5711 23.5947 38.4595 23.6616 38.3591 23.7174C38.1918 23.8178 38.0245 23.9182 37.846 24.0074L37.8125 19.8575C37.991 19.7683 38.1583 19.6679 38.3257 19.5675C38.4372 19.5117 38.5376 19.4447 38.638 19.3778Z" fill="#FDC31C"/>
<path d="M37.8169 19.8574L37.8504 24.0073C37.4153 24.2416 36.9468 24.4536 36.4671 24.6544L36.4336 20.5045C36.9133 20.3148 37.3818 20.0917 37.8169 19.8574Z" fill="#FCC11A"/>
<path d="M36.4301 20.5045L36.4635 24.6544C35.5711 25.0114 34.6117 25.3015 33.6077 25.5246L33.5742 21.3747C34.5782 21.1515 35.5376 20.8615 36.4301 20.5045Z" fill="#FCC016"/>
<path d="M33.5863 21.3748L33.6198 25.5247C33.062 25.6474 32.5042 25.7366 31.9241 25.8147L31.8906 21.6648C32.4596 21.5867 33.0285 21.4863 33.5863 21.3748Z" fill="#FCC11A"/>
<path d="M31.8918 21.6646L31.9253 25.8145C31.546 25.8591 31.1667 25.9037 30.7874 25.9372L30.7539 21.7873C31.1332 21.7538 31.5125 21.7092 31.8918 21.6646Z" fill="#FDC31C"/>
<path d="M30.749 21.7761L30.7825 25.926C30.4701 25.9484 30.1466 25.9707 29.8343 25.9818L29.8008 21.8319C30.1243 21.8207 30.4367 21.7984 30.749 21.7761Z" fill="#FDC220"/>
<path d="M29.801 21.8319L29.8344 25.9818C29.5555 25.993 29.2766 25.993 28.9866 25.993L28.9531 21.8431C29.2432 21.8431 29.5221 21.8431 29.801 21.8319Z" fill="#FDC423"/>
<path d="M28.9567 21.8432L28.9901 25.9932C28.7336 25.9932 28.4658 25.982 28.2093 25.9708L28.1758 21.8209C28.4435 21.8321 28.7001 21.8432 28.9567 21.8432Z" fill="#FDC425"/>
<path d="M28.1861 21.8321L28.2195 25.982C27.9741 25.9709 27.7398 25.9597 27.4944 25.9374L27.4609 21.7875C27.6952 21.7986 27.9406 21.8209 28.1861 21.8321Z" fill="#FDC628"/>
<path d="M27.4612 21.7873L27.4947 25.9373C27.2604 25.9261 27.0373 25.9038 26.803 25.8815L26.7695 21.7316C27.0038 21.7539 27.2269 21.765 27.4612 21.7873Z" fill="#FDC72A"/>
<path d="M26.7709 21.7204L26.8044 25.8703C26.5813 25.848 26.3581 25.8257 26.135 25.7923L26.1016 21.6423C26.3247 21.6758 26.5478 21.6981 26.7709 21.7204Z" fill="#FDC72E"/>
<path d="M26.108 21.6424L26.1414 25.7923C25.9295 25.7589 25.7064 25.7254 25.4944 25.6919L25.4609 21.542C25.6729 21.5866 25.8849 21.6201 26.108 21.6424Z" fill="#FDC832"/>
<path d="M25.4646 21.5419L25.498 25.6918C25.2861 25.6583 25.0741 25.6137 24.8733 25.5802L24.8398 21.4303C25.0406 21.4749 25.2526 21.5084 25.4646 21.5419Z" fill="#FEC835"/>
<path d="M24.8396 21.4304L24.873 25.5803C24.6611 25.5357 24.4603 25.4911 24.2483 25.4464L24.2148 21.2965C24.4156 21.3411 24.6276 21.3858 24.8396 21.4304Z" fill="#FEC938"/>
<path d="M24.219 21.2964L24.2525 25.4464C24.0405 25.4017 23.8397 25.346 23.6389 25.2902L23.6055 21.1403C23.8063 21.196 24.0071 21.2407 24.219 21.2964Z" fill="#FECB3C"/>
<path d="M23.5896 21.1403L23.623 25.2902C23.4111 25.2344 23.1991 25.1675 22.9983 25.1117L22.9648 20.9618C23.1768 21.0176 23.3888 21.0845 23.5896 21.1403Z" fill="#FECB3E"/>
<path d="M22.9679 20.9507L23.0014 25.1007C22.7894 25.0337 22.5775 24.9668 22.3655 24.8887L22.332 20.7388C22.544 20.8169 22.7559 20.8838 22.9679 20.9507Z" fill="#FECC42"/>
<path d="M22.3423 20.7387L22.3758 24.8886C22.1527 24.8105 21.9407 24.7325 21.7288 24.6432L21.6953 20.4933C21.9073 20.5825 22.1192 20.6606 22.3423 20.7387Z" fill="#FECD45"/>
<path d="M21.6922 20.4933L21.7257 24.6433C21.4914 24.5429 21.2683 24.4425 21.0452 24.3421L21.0117 20.1921C21.2237 20.2925 21.4579 20.3929 21.6922 20.4933Z" fill="#FECE48"/>
<path d="M21.0047 20.1921L21.0381 24.342C20.7816 24.2193 20.525 24.0966 20.2796 23.9516L20.2461 19.8016C20.5027 19.9355 20.7481 20.0694 21.0047 20.1921Z" fill="#FFCF4B"/>
<path d="M20.253 19.8017L20.2864 23.9516C20.2641 23.9405 20.2306 23.9182 20.2083 23.907C19.9294 23.7508 19.6617 23.5835 19.4163 23.4162L19.3828 19.2662C19.6282 19.4336 19.896 19.6009 20.1749 19.7571C20.1972 19.7682 20.2195 19.7906 20.253 19.8017Z" fill="#FFCF4D"/>
<path d="M19.3736 19.2662L19.4071 23.4161C17.3879 22.0551 16.3727 20.3594 16.3616 18.6526L16.3281 14.5027C16.3393 16.2095 17.3544 17.9052 19.3736 19.2662Z" fill="#FFD151"/>
</g>
<mask id="mask1_321_42941" style="mask-type:luminance" maskUnits="userSpaceOnUse" x="16" y="14" width="27" height="12">
<path d="M42.0113 14.313L42.0337 18.4629C42.0448 20.3594 40.8288 22.2559 38.3523 23.7284C33.388 26.6847 25.2555 26.7628 20.1908 23.9181C17.6473 22.479 16.3644 20.5713 16.3421 18.6637L16.3086 14.5138C16.3197 16.4326 17.6027 18.3402 20.1573 19.7681C25.222 22.624 33.3434 22.5347 38.3188 19.5785C40.7954 18.1059 42.0225 16.1983 42.0113 14.313Z" fill="white"/>
</mask>
<g mask="url(#mask1_321_42941)">
<path d="M19.1094 19.0763C19.3213 19.2325 19.5444 19.3775 19.7787 19.5225L19.8122 23.6724C19.5779 23.5274 19.3548 23.3824 19.1428 23.2262L19.1094 19.0763Z" fill="#F28D0F"/>
<path d="M17.9609 18.0948C18.1283 18.2622 18.2956 18.4295 18.4853 18.5857L18.5187 22.7356C18.3291 22.5794 18.1617 22.4121 17.9944 22.2448L17.9609 18.0948Z" fill="#F28D0F"/>
<path d="M17.1133 17.0238C17.2248 17.2023 17.3475 17.3808 17.4814 17.5481L17.5149 21.698C17.381 21.5307 17.2583 21.3522 17.1467 21.1737L17.1133 17.0238Z" fill="#F28D0F"/>
<path d="M16.5664 15.9081C16.6333 16.0866 16.7003 16.2762 16.7895 16.4547L16.823 20.6046C16.7337 20.4261 16.6668 20.2365 16.5999 20.058L16.5664 15.9081Z" fill="#F28D0F"/>
<path d="M16.3438 14.759C16.3549 14.9487 16.3772 15.1272 16.4218 15.3168L16.4553 19.4667C16.4218 19.2771 16.3884 19.0986 16.3772 18.909L16.3438 14.759Z" fill="#F28D0F"/>
<path d="M41.9688 14.9264C41.9911 14.7368 42.0022 14.5471 42.0022 14.3687L42.0357 18.5186C42.0357 18.7082 42.0245 18.8979 42.0022 19.0764L41.9688 14.9264Z" fill="#F28D0F"/>
<path d="M41.6602 16.0755C41.7382 15.897 41.794 15.7073 41.8498 15.5177L41.8833 19.6676C41.8275 19.8573 41.7717 20.0358 41.6936 20.2254L41.6602 16.0755Z" fill="#F28D0F"/>
<path d="M41.043 17.1799C41.1657 17.0014 41.2772 16.8229 41.3776 16.6444L41.4111 20.7943C41.3107 20.9728 41.1991 21.1513 41.0764 21.3298L41.043 17.1799Z" fill="#F28D0F"/>
<path d="M40.1211 18.2396C40.2996 18.0722 40.4558 17.9049 40.6119 17.7375L40.6454 21.8875C40.4892 22.0548 40.3331 22.2333 40.1546 22.3895L40.1211 18.2396Z" fill="#F28D0F"/>
<path d="M38.8789 19.2215C39.102 19.0653 39.314 18.9091 39.5148 18.7529L39.5482 22.9029C39.3474 23.059 39.1355 23.2152 38.9124 23.3714L38.8789 19.2215Z" fill="#F28D0F"/>
<path d="M37.3594 20.0914C37.6271 19.9687 37.8725 19.8348 38.1291 19.6898L38.1626 23.8397C37.9172 23.9848 37.6606 24.1186 37.3928 24.2413L37.3594 20.0914Z" fill="#F28D0F"/>
<path d="M35.6562 20.7943C35.9463 20.6939 36.2252 20.5935 36.5041 20.4819L36.5376 24.6319C36.2587 24.7434 35.9798 24.855 35.6897 24.9442L35.6562 20.7943Z" fill="#F28D0F"/>
<path d="M33.8203 21.3186C34.1215 21.2517 34.4227 21.1736 34.7239 21.0844L34.7574 25.2343C34.4562 25.3235 34.155 25.3905 33.8538 25.4685L33.8203 21.3186Z" fill="#F28D0F"/>
<path d="M31.8984 21.6644C32.2108 21.6198 32.5343 21.5752 32.8467 21.5194L32.8801 25.6693C32.5678 25.7251 32.2554 25.7697 31.9319 25.8144L31.8984 21.6644Z" fill="#F28D0F"/>
<path d="M29.918 21.8319C30.2415 21.8207 30.565 21.7984 30.8885 21.7761L30.922 25.926C30.5985 25.9484 30.275 25.9707 29.9514 25.9818L29.918 21.8319Z" fill="#F28D0F"/>
<path d="M27.9219 21.8096C28.2454 21.8207 28.5689 21.8319 28.8924 21.843L28.9259 25.993C28.6024 25.993 28.2789 25.9818 27.9553 25.9595L27.9219 21.8096Z" fill="#F28D0F"/>
<path d="M25.9531 21.6199C26.2655 21.6645 26.589 21.7091 26.9014 21.7314L26.9348 25.8814C26.6113 25.8479 26.299 25.8144 25.9866 25.7698L25.9531 21.6199Z" fill="#F28D0F"/>
<path d="M24.0391 21.2517C24.3403 21.3298 24.6415 21.3967 24.9538 21.4525L24.9873 25.6024C24.6749 25.5467 24.3737 25.4797 24.0725 25.4016L24.0391 21.2517Z" fill="#F28D0F"/>
<path d="M22.2305 20.7051C22.5094 20.8055 22.7994 20.9059 23.0895 20.9951L23.1229 25.145C22.8329 25.0558 22.5428 24.9554 22.2639 24.855L22.2305 20.7051Z" fill="#F28D0F"/>
<path d="M20.5703 19.9689C20.8269 20.1027 21.0946 20.2255 21.3624 20.3482L21.3958 24.4981C21.1281 24.3754 20.8604 24.2527 20.6038 24.1188L20.5703 19.9689Z" fill="#F28D0F"/>
</g>
<path d="M29.2269 21.8436C36.3184 21.7915 42.0427 18.4179 42.0125 14.3084C41.9823 10.199 36.209 6.90982 29.1176 6.96193C22.0261 7.01403 16.3018 10.3877 16.332 14.4971C16.3622 18.6066 22.1355 21.8957 29.2269 21.8436Z" fill="#FEC837"/>
<mask id="mask2_321_42941" style="mask-type:luminance" maskUnits="userSpaceOnUse" x="16" y="6" width="27" height="16">
<path d="M29.2269 21.8434C36.3184 21.7913 42.0426 18.4177 42.0125 14.3082C41.9823 10.1987 36.209 6.90958 29.1176 6.96169C22.0261 7.01379 16.3018 10.3874 16.332 14.4969C16.3622 18.6064 22.1355 21.8955 29.2269 21.8434Z" fill="white"/>
</mask>
<g mask="url(#mask2_321_42941)">
<path d="M21.8945 10.3078C25.8325 7.96513 32.3028 7.8982 36.3077 10.1628C36.6647 10.3636 36.9882 10.5756 37.2782 10.7987C40.3014 13.0744 40.0337 16.3765 36.4415 18.5184C32.5036 20.8611 26.0333 20.9281 22.0284 18.6635C21.2698 18.2395 20.6451 17.7487 20.1765 17.2355C20.4666 17.4586 20.7901 17.6706 21.1471 17.8714C25.1631 20.136 31.6223 20.0691 35.5602 17.7264C31.6223 20.0691 25.152 20.136 21.1471 17.8714C20.7901 17.6706 20.4666 17.4586 20.1765 17.2355C20.1207 17.1686 20.065 17.1128 20.0092 17.0459C19.9869 17.0124 19.9534 16.9789 19.9311 16.9455C19.9088 16.9232 19.8976 16.9009 19.8753 16.8785C19.853 16.8562 19.8418 16.8339 19.8307 16.8116C19.7972 16.767 19.7638 16.7224 19.7414 16.6777C19.7191 16.6554 19.708 16.6331 19.6968 16.6108C19.6634 16.5662 19.641 16.5216 19.6076 16.4769C19.5853 16.4435 19.563 16.41 19.5406 16.3765C19.5183 16.3542 19.5072 16.3208 19.496 16.2984C19.3956 16.1088 19.3064 15.9192 19.2283 15.7295C19.2171 15.7072 19.2171 15.6849 19.206 15.6626C19.1502 15.5064 19.1056 15.3502 19.0721 15.194C19.0721 15.1717 19.0609 15.1383 19.0609 15.1159C19.0498 15.0825 19.0498 15.049 19.0386 15.0155C19.0052 14.8036 18.994 14.5916 18.994 14.3797C18.994 14.3462 18.994 14.3127 18.994 14.2793C18.994 14.2458 18.994 14.2123 19.0052 14.1789C19.0052 14.1565 19.0052 14.1342 19.0052 14.1119C19.0052 14.0785 19.0163 14.045 19.0163 14.0115C19.0163 14.0004 19.0163 13.9781 19.0275 13.9669V13.9557C19.0275 13.9223 19.0386 13.8777 19.0498 13.8442C19.0609 13.7996 19.0609 13.7661 19.0721 13.7215C19.0833 13.688 19.0833 13.6545 19.0944 13.6211C19.1056 13.5876 19.1056 13.5653 19.1167 13.5318C19.1279 13.4984 19.139 13.4649 19.139 13.4314C19.1502 13.398 19.1613 13.3756 19.1613 13.3422L19.206 13.2195C19.2171 13.1748 19.2394 13.1414 19.2506 13.0968C19.2841 13.0187 19.3175 12.9294 19.3621 12.8513C19.3845 12.8067 19.4068 12.7732 19.4179 12.7286C19.4402 12.684 19.4626 12.6505 19.4849 12.6059C19.5072 12.5613 19.5295 12.5278 19.5518 12.4943L19.563 12.4832C19.5853 12.4497 19.6076 12.4163 19.6187 12.3828C19.641 12.3493 19.6634 12.3159 19.6857 12.2824C19.6968 12.2601 19.7191 12.2378 19.7303 12.2155C19.7526 12.182 19.7749 12.1597 19.7861 12.1262C19.8084 12.0927 19.8307 12.0593 19.8642 12.0258C19.9088 11.97 19.9534 11.9143 19.998 11.8585C20.0203 11.825 20.0538 11.7915 20.0873 11.7581C20.2769 11.5461 20.4889 11.3342 20.7231 11.1334C20.7566 11.111 20.7789 11.0776 20.8124 11.0553L20.8235 11.0441C20.857 11.0106 20.8905 10.9883 20.9351 10.9549C20.9574 10.9325 20.9909 10.9102 21.0132 10.8879C21.0467 10.8656 21.0801 10.8321 21.1136 10.8098C21.1359 10.7987 21.1471 10.7875 21.1694 10.7652C21.214 10.7317 21.2586 10.6983 21.3032 10.676C21.3479 10.6425 21.3925 10.6202 21.4371 10.5867C21.4706 10.5644 21.504 10.5421 21.5375 10.5198C21.5598 10.5086 21.5821 10.4863 21.6044 10.4752C21.6491 10.4417 21.6937 10.4194 21.7383 10.3971C21.7829 10.3636 21.8387 10.3413 21.8945 10.3078ZM38.1595 9.05839C33.0948 6.20253 24.9735 6.29177 19.998 9.24804C15.0337 12.2043 15.1007 16.912 20.1654 19.7679C25.2301 22.6237 33.3514 22.5345 38.3269 19.5782C43.2911 16.6108 43.2242 11.9031 38.1595 9.05839Z" fill="#FFDE51"/>
<path d="M37.2775 10.7875C38.1253 11.7022 38.5269 12.7397 38.4711 13.7549C38.3931 15.1828 37.4225 16.5996 35.5595 17.7152C31.6215 20.0579 25.1512 20.1248 21.1463 17.8602C20.7893 17.6594 20.4658 17.4474 20.1758 17.2243C20.6555 17.7375 21.269 18.2172 22.0276 18.6523C26.0437 20.9169 32.5028 20.8499 36.4408 18.5072C40.0329 16.3653 40.3007 13.0632 37.2775 10.7875Z" fill="#F28D0F"/>
<path d="M35.5506 17.7151C31.6126 20.0578 25.1423 20.1247 21.1374 17.8601C20.7804 17.6593 20.4569 17.4474 20.1669 17.2243C20.1111 17.1573 20.0553 17.1015 19.9995 17.0346C19.9772 17.0011 19.9438 16.9677 19.9215 16.9342C19.8991 16.9119 19.888 16.8896 19.8657 16.8673C19.8434 16.845 19.8322 16.8226 19.8211 16.8003C19.7876 16.7557 19.7541 16.7111 19.7318 16.6665C19.7095 16.6442 19.6983 16.6218 19.6872 16.5995C19.6537 16.5549 19.6314 16.5103 19.5979 16.4657C19.5756 16.4322 19.5533 16.3987 19.531 16.3653C19.5087 16.343 19.4975 16.3095 19.4864 16.2872C19.386 16.0975 19.2967 15.9079 19.2186 15.7182C19.2075 15.6959 19.2075 15.6736 19.1963 15.6513C19.1406 15.4951 19.0959 15.3389 19.0625 15.1828C19.0625 15.1604 19.0513 15.127 19.0513 15.1047C19.0402 15.0712 19.0402 15.0377 19.029 15.0043C18.9955 14.7923 18.9844 14.5803 18.9844 14.3684C18.9844 14.3349 18.9844 14.3015 18.9844 14.268C18.9844 14.2345 18.9844 14.2011 18.9955 14.1676C18.9955 14.1453 18.9955 14.123 18.9955 14.1007C18.9955 14.0672 19.0067 14.0337 19.0067 14.0003C19.0067 13.9891 19.0067 13.9668 19.0178 13.9556V13.9445C19.0178 13.911 19.029 13.8664 19.0402 13.8329C19.0513 13.7883 19.0513 13.7548 19.0625 13.7102C19.0736 13.6767 19.0736 13.6433 19.0848 13.6098C19.0959 13.5763 19.0959 13.554 19.1071 13.5206C19.1182 13.4871 19.1294 13.4536 19.1294 13.4202C19.1406 13.3867 19.1517 13.3644 19.1517 13.3309L19.1963 13.2082C19.2075 13.1636 19.2298 13.1301 19.241 13.0855C19.2744 13.0074 19.3079 12.9181 19.3525 12.8401C19.3748 12.7954 19.3971 12.762 19.4083 12.7173C19.4306 12.6727 19.4529 12.6393 19.4752 12.5946C19.4975 12.55 19.5198 12.5165 19.5422 12.4831L19.5533 12.4719C19.5756 12.4385 19.5979 12.405 19.6091 12.3715C19.6314 12.3381 19.6537 12.3046 19.676 12.2711C19.6872 12.2488 19.7095 12.2265 19.7207 12.2042C19.743 12.1707 19.7653 12.1484 19.7764 12.1149C19.7987 12.0815 19.8211 12.048 19.8545 12.0145C19.8991 11.9588 19.9438 11.903 19.9884 11.8472C20.0107 11.8137 20.0442 11.7803 20.0776 11.7468C20.2673 11.5348 20.4792 11.3229 20.7135 11.1221C20.747 11.0998 20.7693 11.0663 20.8028 11.044L20.8139 11.0328C20.8474 10.9994 20.8808 10.9771 20.9255 10.9436C20.9478 10.9213 20.9812 10.899 21.0036 10.8767C21.037 10.8543 21.0705 10.8209 21.104 10.7986C21.1263 10.7874 21.1374 10.7763 21.1597 10.7539C21.2044 10.7205 21.249 10.687 21.2936 10.6647C21.3382 10.6312 21.3829 10.6089 21.4275 10.5754C21.4609 10.5531 21.4944 10.5308 21.5279 10.5085C21.5502 10.4974 21.5725 10.475 21.5948 10.4639C21.6394 10.4304 21.6841 10.4081 21.7287 10.3858C21.7845 10.3523 21.8291 10.3189 21.8849 10.2854C21.8291 10.3189 21.7733 10.3523 21.7287 10.3858C21.6841 10.4081 21.6394 10.4416 21.5948 10.4639C21.5725 10.475 21.5502 10.4974 21.5279 10.5085C21.4944 10.5308 21.4609 10.5531 21.4275 10.5754C21.3829 10.6089 21.3382 10.6312 21.2936 10.6647C21.249 10.6982 21.2044 10.7316 21.1597 10.7539C21.1374 10.7651 21.1263 10.7763 21.104 10.7986C21.0705 10.8209 21.037 10.8543 21.0036 10.8767C20.9812 10.899 20.9478 10.9213 20.9255 10.9436C20.892 10.9771 20.8585 10.9994 20.8139 11.0328L20.8028 11.044C20.7693 11.0663 20.7358 11.0998 20.7135 11.1221C20.4792 11.3229 20.2673 11.5348 20.0776 11.7468C20.0442 11.7803 20.0219 11.8137 19.9884 11.8472C19.9438 11.903 19.8991 11.9588 19.8545 12.0145C19.8322 12.048 19.8099 12.0815 19.7764 12.1149C19.7541 12.1484 19.7318 12.1707 19.7207 12.2042C19.7095 12.2265 19.6872 12.2488 19.676 12.2711C19.6537 12.3046 19.6314 12.3381 19.6091 12.3715C19.5868 12.405 19.5645 12.4385 19.5533 12.4719L19.5422 12.4831C19.5198 12.5277 19.4975 12.5612 19.4752 12.5946C19.4529 12.6393 19.4306 12.6727 19.4083 12.7173C19.386 12.762 19.3637 12.7954 19.3525 12.8401C19.319 12.9181 19.2744 13.0074 19.241 13.0855C19.2298 13.1301 19.2075 13.1636 19.1963 13.2082L19.1629 13.3309C19.1517 13.3644 19.1406 13.3867 19.1406 13.4202C19.1294 13.4536 19.1182 13.4871 19.1182 13.5206C19.1071 13.554 19.1071 13.5763 19.0959 13.6098C19.0848 13.6433 19.0848 13.6767 19.0736 13.7102C19.0625 13.7548 19.0513 13.7883 19.0513 13.8329C19.0402 13.8664 19.0402 13.911 19.029 13.9445V13.9556C19.029 13.9668 19.029 13.9891 19.0178 14.0003C19.0178 14.0337 19.0067 14.0672 19.0067 14.1007C19.0067 14.123 19.0067 14.1453 19.0067 14.1676C19.0067 14.2011 19.0067 14.2345 18.9955 14.268C18.9955 14.3015 18.9955 14.3349 18.9955 14.3684C18.9955 14.5803 19.0067 14.7923 19.0402 15.0043C19.0402 15.0377 19.0513 15.0712 19.0625 15.1047C19.0625 15.127 19.0736 15.1604 19.0736 15.1828C19.1071 15.3389 19.1517 15.4951 19.2075 15.6513C19.2186 15.6736 19.2186 15.6959 19.2298 15.7182C19.3079 15.9079 19.386 16.0975 19.4975 16.2872C19.5087 16.3095 19.531 16.343 19.5422 16.3653C19.5645 16.3987 19.5868 16.4322 19.6091 16.4657C19.6314 16.5103 19.6649 16.5549 19.6983 16.5995C19.7095 16.6218 19.7318 16.6442 19.743 16.6665C19.7764 16.7111 19.8099 16.7557 19.8322 16.8003C19.8434 16.8226 19.8657 16.845 19.8768 16.8673C19.8991 16.8896 19.9103 16.9119 19.9326 16.9342C19.9549 16.9677 19.9884 17.0011 20.0107 17.0346C20.0665 17.1015 20.1223 17.1573 20.178 17.2243C20.4681 17.4474 20.7916 17.6593 21.1486 17.8601C25.1535 20.1247 31.6126 20.0578 35.5506 17.7151Z" fill="#FBBC0F"/>
<path d="M31.9903 12.4943C31.7783 12.3716 31.5552 12.2489 31.3432 12.1262C31.3321 12.115 31.3098 12.115 31.2986 12.1039C30.395 12.6393 29.5026 13.1748 28.5989 13.7103C28.6213 13.7215 28.6324 13.7326 28.6436 13.7326C28.7105 13.7772 28.7886 13.8107 28.8555 13.8553L33.0612 13.8107C33.1951 13.4537 33.0166 13.0744 32.5704 12.8178C32.3807 12.7174 32.1911 12.6059 31.9903 12.4943ZM36.3075 10.1516C32.3026 7.88702 25.8323 7.95395 21.8944 10.2966C21.8386 10.3301 21.7828 10.3636 21.7382 10.3971C21.6936 10.4194 21.6489 10.4528 21.6043 10.4751C21.582 10.4863 21.5597 10.5086 21.5374 10.5198C21.5039 10.5421 21.4704 10.5644 21.437 10.5867C21.3924 10.6202 21.3477 10.6425 21.3031 10.6759C21.2585 10.7094 21.2139 10.7429 21.1692 10.7652C21.1469 10.7763 21.1358 10.7875 21.1135 10.8098C21.08 10.8321 21.0465 10.8656 21.0131 10.8879C20.9908 10.9102 20.9573 10.9325 20.935 10.9548C20.9015 10.9883 20.868 11.0106 20.8234 11.0441L20.8123 11.0552C20.7788 11.0775 20.7453 11.111 20.723 11.1333C20.4887 11.3341 20.2768 11.5461 20.0871 11.758C20.0537 11.7915 20.0314 11.825 19.9979 11.8584C19.9533 11.9142 19.9086 11.97 19.864 12.0258C19.8417 12.0593 19.8194 12.0927 19.7859 12.1262C19.7636 12.1597 19.7413 12.182 19.7302 12.2154C19.719 12.2377 19.6967 12.2601 19.6855 12.2824C19.6632 12.3158 19.6409 12.3493 19.6186 12.3828C19.5963 12.4162 19.574 12.4497 19.5628 12.4832L19.5517 12.4943C19.5294 12.5389 19.507 12.5724 19.4847 12.6059C19.4624 12.6505 19.4401 12.684 19.4178 12.7286C19.3955 12.7732 19.3732 12.8067 19.362 12.8513C19.3285 12.9294 19.2839 13.0186 19.2505 13.0967C19.2393 13.1414 19.217 13.1748 19.2058 13.2194L19.1612 13.331C19.1501 13.3645 19.1389 13.3868 19.1389 13.4202C19.1277 13.4537 19.1166 13.4872 19.1166 13.5206C19.1054 13.5541 19.1054 13.5764 19.0943 13.6099C19.0831 13.6434 19.0831 13.6768 19.072 13.7103C19.0608 13.7549 19.0497 13.7884 19.0497 13.833C19.0385 13.8665 19.0385 13.9111 19.0273 13.9446V13.9557L23.4673 13.9111L24.2482 13.4537C24.2594 13.4426 24.2817 13.4426 24.2928 13.4537L24.6721 13.6657C24.6833 13.6768 24.7056 13.6768 24.7168 13.6657L25.2522 13.3422C25.2634 13.331 25.2634 13.3198 25.2522 13.3198L24.8506 13.1079C24.8395 13.0967 24.8395 13.0856 24.8506 13.0856L26.1001 12.3381C26.1112 12.327 26.1335 12.327 26.1447 12.3381L26.5351 12.5613C26.5463 12.5724 26.5686 12.5724 26.5798 12.5613L30.5623 10.1962C30.5958 10.2186 30.6293 10.2297 30.6627 10.252C31.3432 10.6313 32.0237 11.0218 32.7042 11.4011C32.8046 11.4568 32.905 11.5126 33.0054 11.5684C33.1393 11.6465 33.2732 11.7246 33.4182 11.8027C33.7529 11.9923 34.0987 12.182 34.4334 12.3828C35.1027 12.7621 35.5378 13.2752 35.627 13.8107L38.4606 13.7772C38.5164 12.7509 38.1259 11.7246 37.2669 10.8098C36.988 10.5644 36.6645 10.3524 36.3075 10.1516Z" fill="#FBBC0F"/>
<path d="M38.4611 13.755L35.6276 13.7885C35.6499 13.9112 35.6499 14.0339 35.6387 14.1566C35.5829 14.6363 35.2706 15.0602 34.7128 15.4172C34.0658 15.8411 33.2626 16.0977 32.3032 16.1646C31.3215 16.2316 30.4178 16.0977 29.6146 15.763C29.4473 15.6961 29.2911 15.6069 29.1349 15.5288C28.8672 15.3837 28.6106 15.2387 28.3429 15.0825C28.209 15.0044 28.0751 14.9264 27.9301 14.8483C27.8297 14.7925 27.7293 14.7367 27.6289 14.6809C27.5174 14.614 27.3946 14.5471 27.2831 14.4801L26.7253 14.8148C26.7142 14.826 26.7142 14.8371 26.7253 14.8371L28.3206 15.7407C28.3317 15.7519 28.3317 15.763 28.3206 15.763L27.0711 16.5105C27.06 16.5216 27.0377 16.5216 27.0265 16.5105L26.3237 16.1089L25.4312 15.6069C25.4201 15.5957 25.3978 15.5957 25.3866 15.6069L23.9475 16.4658C23.9364 16.477 23.9141 16.477 23.9029 16.4658L23.2001 16.0642L21.9172 15.3391C21.906 15.328 21.906 15.3168 21.9172 15.3168L23.3451 14.469C23.3563 14.4578 23.3563 14.4467 23.3451 14.4467L22.9547 14.2235C22.9435 14.2124 22.9435 14.2012 22.9547 14.2012L23.4344 13.9223L18.9944 13.967C18.9944 13.9781 18.9944 14.0004 18.9832 14.0116C18.9832 14.0451 18.9721 14.0785 18.9721 14.112C18.9721 14.1343 18.9721 14.1566 18.9721 14.1789C18.9721 14.2124 18.9721 14.2459 18.9609 14.2793C18.9609 14.3128 18.9609 14.3463 18.9609 14.3797C18.9609 14.5917 18.9721 14.8036 19.0056 15.0156C19.0056 15.0491 19.0167 15.0825 19.0279 15.116C19.0279 15.1383 19.039 15.1718 19.039 15.1941C19.0725 15.3503 19.1171 15.5065 19.1729 15.6626C19.1841 15.6849 19.184 15.7073 19.1952 15.7296C19.2733 15.9192 19.3514 16.1089 19.4629 16.2985C19.4741 16.3208 19.4964 16.3543 19.5076 16.3766C19.5299 16.4101 19.5522 16.4435 19.5745 16.477C19.5968 16.5216 19.6303 16.5662 19.6637 16.6109C19.6749 16.6332 19.6972 16.6555 19.7084 16.6778C19.7418 16.7224 19.7753 16.767 19.7976 16.8117C19.8088 16.834 19.8311 16.8563 19.8422 16.8786C19.8645 16.9009 19.8757 16.9232 19.898 16.9455C19.9203 16.979 19.9538 17.0125 19.9761 17.0459C20.0319 17.1129 20.0877 17.1687 20.1434 17.2356C20.4335 17.4587 20.757 17.6707 21.114 17.8715C25.13 20.1361 31.5892 20.0691 35.5272 17.7264C37.4125 16.6109 38.383 15.1829 38.4611 13.755Z" fill="#F9AE10"/>
<path d="M33.0612 13.8107L28.8555 13.8553C29.0451 13.9668 29.2348 14.0673 29.4244 14.1788C29.5583 14.2569 29.681 14.3238 29.8149 14.4019C30.183 14.6027 30.6292 14.7143 31.1535 14.7143C31.9233 14.7143 32.6261 14.4465 32.9496 14.0338C32.9942 13.9557 33.0277 13.8888 33.0612 13.8107Z" fill="#F9AE10"/>
<path d="M27.4116 14.5469C27.3781 14.5246 27.3447 14.5135 27.3 14.48C27.4116 14.5469 27.5343 14.6139 27.6459 14.6808C27.7463 14.7366 27.8467 14.7924 27.9471 14.8481C27.7686 14.7477 27.5901 14.6473 27.4116 14.5469ZM32.387 12.7174C32.2532 12.6393 32.1193 12.5724 31.9966 12.4943C32.1862 12.6058 32.387 12.7174 32.5767 12.829C33.0229 13.0855 33.1903 13.4648 33.0675 13.8218C33.0452 13.8888 33.0006 13.9668 32.9448 14.0338C32.6325 14.4577 31.9297 14.7254 31.1488 14.7143C30.6356 14.7143 30.1782 14.6027 29.8101 14.4019C30.0443 14.5358 30.2786 14.6697 30.5129 14.7924C30.881 14.9932 31.3273 15.1047 31.8516 15.1047C32.6213 15.1047 33.3241 14.837 33.6476 14.4242C33.9488 14.0226 33.815 13.5318 33.2795 13.2194C32.9783 13.0521 32.6771 12.8847 32.387 12.7174ZM32.6994 11.3899C32.0189 11.0106 31.3384 10.6201 30.6579 10.2408C30.6244 10.2185 30.6021 10.2074 30.5575 10.1851L26.5861 12.5501C26.5749 12.5612 26.5526 12.5612 26.5415 12.5501L26.151 12.327C26.1399 12.3158 26.1175 12.3158 26.1064 12.327L24.8569 13.0744C24.8458 13.0855 24.8458 13.0967 24.8569 13.0967L25.2362 13.3087C25.2474 13.3198 25.2474 13.331 25.2362 13.331L24.7008 13.6545C24.6896 13.6656 24.6673 13.6656 24.6561 13.6545L24.2768 13.4425C24.2657 13.4314 24.2434 13.4314 24.2322 13.4425L23.4513 13.8999L22.9716 14.1788C22.9605 14.19 22.9605 14.2011 22.9716 14.2011L23.3621 14.4242C23.3732 14.4354 23.3732 14.4465 23.3621 14.4465L21.9341 15.2944C21.923 15.3055 21.923 15.3167 21.9341 15.3167L23.2171 16.0418L22.637 15.7183C22.6258 15.7071 22.6258 15.696 22.637 15.696L24.0649 14.8481C24.076 14.837 24.076 14.8258 24.0649 14.8258L23.6744 14.6027C23.6633 14.5916 23.6633 14.5804 23.6744 14.5804L24.9239 13.833C24.935 13.8218 24.9573 13.8218 24.9685 13.833L25.3478 14.0449C25.359 14.0561 25.3813 14.0561 25.3924 14.0449L25.9279 13.7214C25.939 13.7103 25.939 13.6991 25.9279 13.6991L25.5486 13.4871C25.5374 13.476 25.5374 13.4648 25.5486 13.4648L26.798 12.7174C26.8092 12.7062 26.8315 12.7062 26.8427 12.7174L27.2331 12.9405C27.2443 12.9517 27.2666 12.9517 27.2777 12.9405L31.2603 10.5755C31.2938 10.5978 31.3273 10.609 31.3607 10.6313C31.9074 10.9325 32.454 11.2449 32.9895 11.5461C32.9002 11.5014 32.7998 11.4457 32.6994 11.3899Z" fill="#F28D0F"/>
<path d="M31.9902 12.4943C32.1241 12.5724 32.258 12.6393 32.3807 12.7174C32.6819 12.8847 32.9719 13.0521 33.2731 13.2194C33.8086 13.5318 33.9425 14.0226 33.6413 14.4242C33.3289 14.8482 32.6261 15.1159 31.8452 15.1047C31.332 15.1047 30.8747 14.9932 30.5065 14.7924C30.2722 14.6585 30.038 14.5246 29.8037 14.4019C29.6698 14.3238 29.5471 14.2569 29.4133 14.1788C29.2236 14.0673 29.034 13.9669 28.8443 13.8553C28.7774 13.8107 28.6993 13.7772 28.6324 13.7326C28.6212 13.7214 28.61 13.7214 28.5877 13.7103C29.4913 13.1748 30.3838 12.6393 31.2874 12.1038C31.3097 12.115 31.3209 12.115 31.332 12.1262C31.5663 12.2489 31.7783 12.3716 31.9902 12.4943ZM33.4182 11.7915C33.2843 11.7134 33.1504 11.6353 33.0054 11.5572C32.4588 11.256 31.9121 10.9437 31.3767 10.6424C31.3432 10.6201 31.3209 10.609 31.2763 10.5867L27.2937 12.9517C27.2825 12.9628 27.2602 12.9628 27.2491 12.9517L26.8586 12.7286C26.8474 12.7174 26.8251 12.7174 26.814 12.7286L25.5645 13.476C25.5534 13.4872 25.5534 13.4983 25.5645 13.4983L25.9438 13.7103C25.955 13.7214 25.955 13.7326 25.9438 13.7326L25.4084 14.0561C25.3972 14.0673 25.3749 14.0673 25.3637 14.0561L24.9844 13.8441C24.9733 13.833 24.951 13.833 24.9398 13.8441L23.6904 14.5916C23.6792 14.6027 23.6792 14.6139 23.6904 14.6139L24.0808 14.837C24.092 14.8482 24.092 14.8593 24.0808 14.8593L22.6529 15.7071C22.6417 15.7183 22.6417 15.7295 22.6529 15.7295L23.233 16.053L23.9358 16.4546C23.947 16.4657 23.9693 16.4657 23.9804 16.4546L25.4195 15.5956C25.4307 15.5844 25.453 15.5844 25.4641 15.5956L26.3566 16.0976L27.0594 16.4992C27.0706 16.5104 27.0929 16.5104 27.104 16.4992L28.3535 15.7518C28.3646 15.7406 28.3646 15.7295 28.3535 15.7295L26.7582 14.8258C26.747 14.8147 26.747 14.8035 26.7582 14.8035L27.316 14.4689C27.3606 14.4912 27.3941 14.5135 27.4275 14.5358C27.606 14.6362 27.7845 14.7366 27.963 14.837C28.0969 14.9151 28.2308 14.9932 28.3758 15.0713C28.6324 15.2163 28.9001 15.3613 29.1678 15.5175C29.3129 15.5956 29.4802 15.6848 29.6475 15.7518C30.4507 16.0976 31.3544 16.2315 32.3361 16.1534C33.2954 16.0864 34.0987 15.8299 34.7457 15.4059C35.2923 15.0378 35.6047 14.6139 35.6716 14.1453C35.6828 14.0226 35.6828 13.8999 35.6605 13.7772C35.5712 13.2417 35.1361 12.7286 34.4668 12.3493C34.0987 12.1708 33.7528 11.9811 33.4182 11.7915Z" fill="#FFEA95"/>
</g>
</svg>
