<svg width="69" height="69" viewBox="0 0 69 69" fill="none" xmlns="http://www.w3.org/2000/svg">
<g clip-path="url(#clip0_2485_82229)">
<path fill-rule="evenodd" clip-rule="evenodd" d="M32.2334 38.118L32.6175 37.7338L61.1203 9.23108C61.9672 8.38415 63.3336 8.38306 64.1756 9.22513C65.0236 10.0731 65.0176 11.4326 64.1754 12.2748L33.7583 42.6918C32.9019 43.5483 31.5507 43.5341 30.7087 42.6921C30.7027 42.6861 30.6968 42.6801 30.6909 42.6741C30.6849 42.6682 30.6789 42.6623 30.673 42.6564L23.0844 35.0678C22.242 34.2254 22.2431 32.8612 23.0852 32.0192C23.9331 31.1712 25.2922 31.1768 26.1338 32.0184L32.2334 38.118Z" fill="#42AB10"/>
<path d="M29.1002 0.424457C10.281 3.40513 -2.55869 21.0775 0.421985 39.8967C3.40266 58.7159 21.075 71.5556 39.8942 68.575C55.344 66.128 67.1 53.6355 68.7943 38.3107C69.1305 35.2696 69.0599 32.1799 68.5725 29.1027C68.3862 27.9265 67.2817 27.124 66.1055 27.3103C64.9293 27.4966 64.1268 28.6011 64.3131 29.7773C64.7401 32.4737 64.802 35.1771 64.5079 37.8367C63.0258 51.2421 52.7379 62.1744 39.2196 64.3155C22.7528 66.9236 7.28948 55.6889 4.68139 39.2221C2.0733 22.7552 13.308 7.29195 29.7749 4.68386C35.8367 3.72377 41.9094 4.61778 47.3402 7.17692C48.4175 7.68455 49.7023 7.22279 50.2099 6.14554C50.7175 5.06829 50.2558 3.78349 49.1785 3.27585C42.9711 0.350723 36.0235 -0.672076 29.1002 0.424457Z" fill="#DFE2E9"/>
</g>
<defs>
<clipPath id="clip0_2485_82229">
<rect width="69" height="69" fill="white"/>
</clipPath>
</defs>
</svg>
