<svg xmlns="http://www.w3.org/2000/svg" viewBox="0 0 489 489"><path d="M160.2 254.9L103 312.1v27h129v-30.2h-85.3l43.7-43.7c13.5-13.5 22.9-25 28.1-34.3 5.2-8.3 7.3-17.7 7.3-28.1 0-17.7-6.2-31.2-17.7-40.6-11.4-10.4-26-14.6-41.6-14.6s-28.1 3.1-38.5 9.4c-10.4 6.2-18.7 15.6-27 28.1l26 14.6c10.4-15.6 22.9-23.9 38.5-23.9 8.3 0 15.6 3.1 21.8 8.3s8.3 11.4 8.3 18.7-3.1 14.6-8.3 21.8c-5.2 7.4-14.6 17.8-27.1 30.3zM366.2 341.4v-47.9h22.9v-29.1h-22.9v-34.5H336v34.5h-44.7l67.6-111.3h-34.3l-69.7 112.3v28.1H336v47.9z"/><path d="M245.5 20.9c55.7 0 109.4 20.5 150.9 58.4L343.3 75l-1 20.8 88.4 7.3-5.2-91.5-20.8 1 2.3 49.5C361.8 21.7 305.1.1 244.5.1 109.3.1 0 109.3 0 244.6h20.8c0-123.8 99.9-223.7 224.7-223.7zM468.2 244.4v.1c0 123.8-99.9 223.7-223.7 223.7-56 0-109.6-21.1-150.8-58.3l52 4.2 1-20.8-88.4-7.3 5.2 91.5 20.8-1-2.3-49.2c44.9 39.8 102.9 61.7 162.5 61.7C379.7 489 489 379.8 489 244.5l-20.8-.1z"/></svg>