<svg xmlns="http://www.w3.org/2000/svg" preserveAspectRatio="xMidYMid" width="27" height="27" viewBox="0 0 27 27"><defs><style>.cls-1{fill-rule:evenodd}</style></defs><path d="M26.468 26.162c-.169.055-2.629.838-5.689.838-2.075 0-4.425-.359-6.528-1.548a9.874 9.874 0 0 1-2.366-1.861.787.787 0 0 1-.211-.003c-.535-.086-2.114-.171-2.995.463a.788.788 0 0 1-.461.148.784.784 0 0 1-.625-.306.743.743 0 0 1 .163-1.057c.422-.304.905-.5 1.39-.624-4.595-2.307-5.186-6.074-5.197-7.791-.64-.016-1.39-.107-1.95-.393-.108.18-.167.297-.17.303a.78.78 0 0 1-.7.43l-.044-.001a.773.773 0 0 1-.69-.507c-.555-1.559-.521-2.906.101-4.004.545-.964 1.421-1.488 2.025-1.751-.128-1.953.534-5.001 3.9-5.724 1.35-.289 2.61-.342 3.722-.388 2.511-.105 3.754-.232 4.562-1.943a.781.781 0 0 1 .807-.434.767.767 0 0 1 .663.624 7.88 7.88 0 0 1 .045 2.15c.59-.509 1.106-1.11 1.303-1.741a.774.774 0 0 1 .798-.534c.361.025.657.29.712.639.03.192.71 4.725-2.215 6.368-.205.115-.4.222-.583.323-.859.473-1.537.846-1.633 1.184-.121.43.401 1.373.66 1.818.828.652 5.359 4.408 6.216 9.229a5.335 5.335 0 0 0 4.792 4.622c.37.022.673.297.721.656a.754.754 0 0 1-.523.815zM4.365 12.906c.253-.407.247-.79.183-1.064-.619.131-1.156.513-1.585.939.333.084.87.134 1.402.125zm-.999-3.113c-.346.123-1.109.464-1.518 1.199-.17.305-.266.653-.287 1.041.608-.68 1.452-1.371 2.514-1.638a1.326 1.326 0 0 0-.709-.602zm16.583 10.534c-.821-4.612-5.713-8.351-5.762-8.388-.003-.001-.004-.004-.007-.006a.839.839 0 0 1-.191-.215l-.003-.005-.001-.001c-.711-1.206-1.132-2.193-.88-3.09.266-.946 1.147-1.43 2.367-2.1.179-.099.37-.204.57-.317.891-.5 1.277-1.519 1.431-2.492-1.214 1.126-2.656 1.806-2.749 1.85a.788.788 0 0 1-.994-.284.743.743 0 0 1 .181-.993c.392-.301.605-.82.712-1.373-1.226.85-2.789.915-4.414.983-1.099.046-2.236.094-3.454.355-2.653.569-2.751 3.154-2.679 4.195 1.208.524 1.647 1.651 1.73 2.367a2.91 2.91 0 0 1-.295 3.134c-.09.879-.198 4.783 4.601 7.045-.515-1.046-.909-2.221-1.175-3.527a.757.757 0 0 1 .61-.889.777.777 0 0 1 .912.595c.672 3.292 2.209 5.638 4.571 6.974 2.735 1.546 6.061 1.469 8.323 1.147-1.412-.789-2.922-2.254-3.404-4.965zm-.742 4.383a.79.79 0 0 1-.323-.069c-5.159-2.3-6.883-6.778-6.953-6.968a.75.75 0 0 1 .463-.969.784.784 0 0 1 .995.45c.016.043 1.593 4.085 6.141 6.113.39.173.561.622.383 1.002a.78.78 0 0 1-.706.441zm-.474-3.878a.785.785 0 0 1-.456-.144c-2.113-1.494-2.635-3.45-2.656-3.533a.754.754 0 0 1 .564-.917.78.78 0 0 1 .941.546c.009.033.437 1.53 2.063 2.681a.742.742 0 0 1 .172 1.055.78.78 0 0 1-.628.312zM7.633 9.66c-.724 0-1.313-.573-1.313-1.278 0-.705.589-1.278 1.313-1.278s1.312.573 1.312 1.278c0 .705-.588 1.278-1.312 1.278z" class="cls-1"/></svg>