<svg xmlns="http://www.w3.org/2000/svg" preserveAspectRatio="xMidYMid" width="297" height="33" viewBox="0 0 297 33"><defs><style>.cls-1{fill:#e4e4e4;fill-rule:evenodd}</style></defs><path d="M148.5 32.999l-6.645-5.729c-8.205-7.073-18.443-10.993-28.829-11.038H52.177c-17.993 0-36.036-4.153-52.176-12.009L.612 3c15.951 7.764 33.782 11.868 51.565 11.868h60.852c10.72.046 21.279 4.085 29.734 11.373l5.737 4.946 5.738-4.946c8.455-7.288 19.014-11.327 29.732-11.373h60.855c17.782 0 35.613-4.104 51.565-11.868l.61 1.223c-16.14 7.856-34.183 12.009-52.175 12.009h-60.853c-10.383.045-20.621 3.965-28.826 11.038l-6.646 5.729z" class="cls-1"/></svg>