<svg xmlns="http://www.w3.org/2000/svg" preserveAspectRatio="xMidYMid" width="89.406" height="89" viewBox="0 0 89.406 89"><defs><style>.cls-1{fill:#ffd625}.cls-2{fill:#184e9e}.cls-3{fill:#c22251}.cls-4{fill:#78cd09}.cls-5{fill:#d70808}.cls-6{fill:#fff;fill-rule:evenodd}</style></defs><circle cx="44.703" cy="44.5" r="44.703" class="cls-1"/><rect x="20.438" y="26.281" width="40.875" height="25.438" rx="3" ry="3" class="cls-2"/><path class="cls-3" d="M18.75 32.219h42.563v5.938H18.75z"/><rect x="29.813" y="38.156" width="40.875" height="25.406" rx="3" ry="3" class="cls-4"/><ellipse cx="46.406" cy="50.438" rx="4.688" ry="4.656" class="cls-5"/><circle cx="54.922" cy="50.438" r="4.672" class="cls-1"/><path d="M67.9 65.266H33.156c-2.469 0-4.478-1.982-4.478-4.419v-7.603H23.22c-2.469 0-4.478-1.982-4.478-4.419V28.999c0-2.436 2.009-4.419 4.478-4.419h34.745c2.469 0 4.478 1.983 4.478 4.419v7.603H67.9c2.469 0 4.478 1.982 4.478 4.418v19.827c0 2.437-2.009 4.419-4.478 4.419zM21.301 48.825c0 1.044.861 1.894 1.919 1.894h5.458V41.02c0-.674.155-1.313.43-1.885h-7.807v9.69zm38.583-19.826c0-1.044-.861-1.894-1.919-1.894H23.22c-1.058 0-1.919.85-1.919 1.894v1.763h38.583v-1.763zm0 4.288H21.301v3.323h11.597c.086-.005.171-.008.258-.008h26.728v-3.315zm9.935 27.56V41.02c0-1.044-.861-1.893-1.919-1.893h-6.598a1.266 1.266 0 0 1-.139.008H32.999a1.904 1.904 0 0 0-1.762 1.885v19.827c0 1.044.861 1.894 1.919 1.894H67.9c1.059 0 1.92-.85 1.92-1.894h-.001zM54.382 57.02a6.185 6.185 0 0 1-3.849-1.336 6.18 6.18 0 0 1-3.858 1.336c-3.401 0-6.168-2.73-6.168-6.086 0-3.356 2.767-6.087 6.168-6.087 1.426 0 2.775.476 3.858 1.337a6.185 6.185 0 0 1 3.849-1.336c3.401 0 6.167 2.73 6.167 6.086 0 3.356-2.766 6.086-6.167 6.086zm-5.474-8.884a3.62 3.62 0 0 0-2.234-.764c-1.99 0-3.609 1.598-3.609 3.562 0 1.964 1.619 3.561 3.609 3.561.825 0 1.604-.272 2.234-.764a5.984 5.984 0 0 1 0-5.595zm5.474-.763c-1.99 0-3.608 1.597-3.608 3.561 0 1.963 1.618 3.561 3.608 3.561s3.608-1.598 3.608-3.561c0-1.964-1.618-3.561-3.608-3.561z" class="cls-6"/></svg>