<svg xmlns="http://www.w3.org/2000/svg" preserveAspectRatio="xMidYMid" width="30" height="26" viewBox="0 0 30 26"><defs><style>.cls-1{fill-rule:evenodd}</style></defs><path d="M29.329 15.344l-1.261.315c-.076.437-.182.887-.326 1.35l-.031.089.191-.029a.89.89 0 0 1 1.003.768.904.904 0 0 1-.748 1.029l-1.237.184c-3.355 6.731-10.842 6.948-11.757 6.948h-.06c-.915 0-8.374-.216-11.739-6.906l-1.514-.226a.904.904 0 0 1-.748-1.029.89.89 0 0 1 1.002-.768l.463.069-.044-.129a10.49 10.49 0 0 1-.333-1.384l-1.512-.378a.91.91 0 0 1-.651-1.097.884.884 0 0 1 1.069-.667l.951.237c.049-2.402.955-4.152 1.357-4.811C3.207 2.73 5.895.316 6.011.215a.868.868 0 0 1 1.167.019l3.372 3.133a14.1 14.1 0 0 1 4.532-.744h.08c1.569 0 3.098.25 4.552.744L23.087.234a.867.867 0 0 1 1.166-.019c.117.101 2.804 2.515 2.607 8.694.403.662 1.317 2.425 1.358 4.844l.693-.173a.883.883 0 0 1 1.069.668.909.909 0 0 1-.651 1.096zm-4.075-5.637a.928.928 0 0 1-.174-.584c.176-3.789-.845-5.945-1.487-6.91l-3.082 2.863a.87.87 0 0 1-.905.177 12.35 12.35 0 0 0-4.443-.814l-.021-.001h-.039a12.368 12.368 0 0 0-4.445.815.867.867 0 0 1-.905-.177L6.67 2.212c-.639.962-1.662 3.119-1.486 6.911a.928.928 0 0 1-.174.584c-.063.089-1.272 1.833-1.193 4.456l4.025 1.005a.91.91 0 0 1 .65 1.097.89.89 0 0 1-.859.693.845.845 0 0 1-.21-.026l-3.317-.829c.031.117.065.234.102.352.107.344.229.667.358.981l3.193.476a.905.905 0 0 1 .749 1.029.892.892 0 0 1-1.003.768l-1.879-.28c3.13 4.596 8.741 4.753 9.476 4.754h.06c.737-.001 6.379-.16 9.503-4.797l-2.163.323a.892.892 0 0 1-1.003-.768.905.905 0 0 1 .748-1.029l3.468-.517c.122-.301.239-.611.341-.94.034-.106.063-.211.092-.316l-3.564.891a.845.845 0 0 1-.21.026.889.889 0 0 1-.859-.693.909.909 0 0 1 .65-1.097l4.278-1.069c.088-2.683-1.173-4.468-1.189-4.49zm-5.544 4.204c-.84 0-1.523-.701-1.523-1.562 0-.862.683-1.563 1.523-1.563.839 0 1.522.701 1.522 1.563 0 .861-.683 1.562-1.522 1.562zm-1.126 5.541c-.759.779-1.506.957-2.027.957a2.63 2.63 0 0 1-1.396-.43 2.63 2.63 0 0 1-1.396.43c-.521 0-1.267-.177-2.027-.957a.925.925 0 0 1 0-1.283.868.868 0 0 1 1.251 0c.285.291.563.438.8.423.208-.008.396-.118.525-.216l-.995-2.163a.675.675 0 0 1 .039-.635.635.635 0 0 1 .543-.306H16.422c.221 0 .424.115.543.306a.672.672 0 0 1 .038.635l-.995 2.164c.139.104.332.21.534.216.247.004.51-.136.791-.424a.868.868 0 0 1 1.251 0 .923.923 0 0 1 0 1.283zm-7.971-5.541c-.84 0-1.523-.701-1.523-1.562 0-.862.683-1.563 1.523-1.563.84 0 1.523.701 1.523 1.563 0 .861-.683 1.562-1.523 1.562z" class="cls-1"/></svg>