<svg width="31" height="42" viewBox="0 0 31 42" fill="none" xmlns="http://www.w3.org/2000/svg">
<path d="M11.3134 3.54668C10.5027 4.81014 10.312 6.19697 10.2839 7.1115C9.86151 7.45363 9.60264 7.90722 9.56245 8.47744C9.56052 9.06452 9.87606 9.48703 10.2687 9.76654C9.48855 10.0171 8.9166 10.7551 8.9166 11.6138C8.9166 12.6751 9.78956 13.5481 10.8509 13.5481C10.942 13.5481 11.0252 13.5423 11.0991 13.5384C11.332 14.4141 11.7539 15.3856 12.5318 16.1909C12.7873 16.4554 13.0825 16.6985 13.4164 16.9104L12.9817 18.8875L12.6465 18.7201C12.3974 18.5937 12.0953 18.6419 11.898 18.8398L10.6228 20.1151L6.62195 20.6204C4.94906 20.9818 4.00444 22.2361 3.56873 23.535C3.13302 24.8339 3.11131 26.2273 3.11131 27.1843V28.7405H1.80206C0.989411 28.7405 0.316406 29.4135 0.316406 30.2262V39.5093C0.316406 40.322 0.989411 41 1.80206 41H11.084C11.8966 41 12.5696 40.322 12.5696 39.5093V38.4181H14.0755V39.5093C14.0755 40.3219 14.7536 41 15.5662 41H21.6235C22.4361 41 23.1091 40.3219 23.1091 39.5093V38.4181H29.5634C29.9197 38.4167 30.2074 38.1267 30.206 37.7704V31.0314V27.183C30.206 26.2261 30.1843 24.8339 29.7486 23.535C29.3129 22.2361 28.3645 20.9818 26.6916 20.6204L22.6908 20.1151L21.4143 18.8399C21.2179 18.6446 20.9187 18.5963 20.6708 18.7201L20.3356 18.8876L19.8946 16.9004C20.2219 16.6909 20.5102 16.4511 20.7616 16.1909C21.5399 15.3851 21.9638 14.4143 22.1968 13.5384C22.2697 13.5443 22.3519 13.5481 22.4425 13.5481C23.5038 13.5481 24.3818 12.6764 24.3818 11.6151C24.3818 10.7624 23.8153 10.0284 23.0424 9.77281C23.4368 9.49332 23.7531 9.06866 23.7531 8.51713C23.737 7.96439 23.4714 7.4576 23.0335 7.09766C23.0038 6.183 22.8115 4.80442 22.0053 3.54792C21.1128 2.15697 19.4075 1 16.6562 1C13.9049 1 12.2059 2.15697 11.3134 3.54792V3.54668ZM16.6562 2.2891C19.0663 2.2891 20.2346 3.17411 20.9192 4.24098C21.3876 4.971 21.6023 5.82073 21.6916 6.52302C21.4619 6.48426 21.2165 6.46395 20.957 6.46511H12.3555C12.0986 6.46432 11.8547 6.48696 11.6247 6.52941C11.7135 5.8259 11.9285 4.97329 12.3984 4.24109C13.0829 3.17423 14.2462 2.28916 16.6562 2.28916V2.2891ZM16.6562 7.75167H20.9596C21.5614 7.74974 21.955 7.89894 22.1769 8.06162C22.599 8.48378 22.3457 8.69465 22.1718 8.79507C21.8776 8.94121 21.3596 9.07197 20.7479 9.15665C19.5244 9.32605 17.9257 9.33366 16.6564 9.33327C15.387 9.33381 13.7933 9.32547 12.5698 9.15665C11.9581 9.07195 11.4402 8.94115 11.1459 8.79507C10.7086 8.4705 10.9198 8.18767 11.1719 8.0266C11.399 7.86961 11.7699 7.74962 12.3557 7.75167H16.6562ZM19.8329 15.2958C19.1733 15.9788 18.2189 16.4816 16.6474 16.4817C15.0758 16.4817 14.1202 15.9787 13.4606 15.2958C12.8196 14.6323 12.4642 13.7551 12.2849 12.9622C12.2768 12.9304 12.2663 12.8992 12.2534 12.8689L12.2648 12.8612C12.2132 12.6687 12.0485 12.4334 11.8515 12.3282C11.6544 12.2231 11.489 12.2229 11.3701 12.2235C11.1322 12.2251 10.9883 12.2563 10.8509 12.2563C10.487 12.2563 10.2083 11.9775 10.2083 11.6136C10.2083 11.2523 10.4859 10.9751 10.8459 10.9709C10.8703 10.9726 10.8932 10.9729 10.9228 10.9806C11.2714 11.0589 11.617 10.838 11.6939 10.4892L11.7091 10.3191C11.929 10.3654 12.1582 10.4047 12.3946 10.4375C13.7622 10.627 15.3864 10.6233 16.6563 10.6227C17.9261 10.6233 19.5567 10.6247 20.9242 10.4375C21.1528 10.4057 21.3739 10.3683 21.5871 10.3241C21.5851 10.3753 21.589 10.428 21.5997 10.4803C21.6723 10.8286 22.0136 11.0512 22.362 10.9793C22.3924 10.9715 22.4211 10.9715 22.4477 10.9696C22.8078 10.9754 23.0904 11.251 23.0904 11.6122C23.0904 11.9762 22.8066 12.2549 22.4427 12.2549C22.3053 12.2549 22.1614 12.2239 21.9235 12.2221C21.8046 12.2214 21.6442 12.228 21.4472 12.3319C21.2501 12.4369 21.0854 12.6674 21.0238 12.9027C20.8353 13.7419 20.4775 14.6271 19.833 15.2944L19.8329 15.2958ZM18.6989 17.4632L19.1437 19.482L16.6588 20.7244L14.1701 19.4807L14.6161 17.4695C15.2111 17.662 15.8881 17.772 16.6474 17.772C17.4159 17.772 18.0987 17.6597 18.6989 17.4632ZM12.484 20.0817L15.6759 21.6771L14.4372 23.3303L11.8363 20.7294L12.484 20.0817ZM20.8335 20.0817L21.4812 20.7294L18.8803 23.3303L17.6429 21.6771L20.8335 20.0817ZM22.6279 21.4074L26.4246 21.8874C27.6161 22.1478 28.1768 22.9104 28.5251 23.949C28.8743 24.9899 28.9158 26.2562 28.9158 27.1824V30.3881H25.9054V27.1824C25.9067 26.826 25.6192 26.536 25.2627 26.5348C24.9044 26.5333 24.6136 26.8241 24.6151 27.1824V37.1271H23.1092V32.1598C23.1092 31.3472 22.4361 30.6742 21.6236 30.6742H20.4151C20.1467 29.9261 19.4291 29.3838 18.5943 29.3838C17.7595 29.3838 17.0393 29.926 16.7697 30.6742H15.5663C14.7537 30.6742 14.0756 31.3472 14.0756 32.1598V37.1271H12.5697V30.2256C12.5697 29.4129 11.8967 28.7399 11.0841 28.7399H8.70247V27.1824C8.70376 26.8241 8.41308 26.5333 8.05479 26.5348C7.69834 26.536 7.41073 26.826 7.41213 27.1824V28.7399H4.39797V27.1837C4.39797 26.2575 4.44319 24.9899 4.79238 23.949C5.14076 22.9104 5.70144 22.1478 6.89297 21.8874L10.6871 21.4086L14.0516 24.7681C14.3285 25.0456 14.7868 25.0141 15.0232 24.7012L16.6588 22.5225L18.2944 24.7012C18.5307 25.014 18.989 25.0455 19.2659 24.7681L22.6279 21.4074ZM20.957 27.5214C20.6026 27.5227 20.3157 27.8097 20.3143 28.164C20.313 28.5204 20.6007 28.8103 20.957 28.8117H21.6765C22.0328 28.8103 22.3205 28.5204 22.3191 28.164C22.3179 27.8097 22.0308 27.5228 21.6765 27.5214H20.957ZM1.80215 30.0315H4.18375V31.9645C4.18504 32.3209 4.47501 32.6085 4.83144 32.6072H8.05479C8.41121 32.6085 8.70122 32.3209 8.70247 31.9645V30.0315H11.0841C11.2042 30.0315 11.2794 30.1065 11.2794 30.2268V39.5087C11.2794 39.6289 11.2042 39.7092 11.0841 39.7092H8.70247V37.7699C8.70118 37.3287 8.26851 37.0182 7.85065 37.16L6.16967 37.7182L5.11622 37.194C4.68762 36.9799 4.18449 37.2908 4.18375 37.7699V39.7092H1.80215C1.68204 39.7092 1.6018 39.6287 1.6018 39.5087V30.2268C1.6018 30.1066 1.68204 30.0315 1.80215 30.0315ZM5.4741 30.0315H7.41213V31.3218H5.4741V30.0315ZM19.2382 31.3218C19.2395 31.6782 19.5296 31.9659 19.8859 31.9645H21.6236C21.7438 31.9645 21.8189 32.0395 21.8189 32.1598V39.5087C21.8189 39.6289 21.7438 39.7092 21.6236 39.7092H15.5663C15.446 39.7092 15.3659 39.6289 15.3659 39.5087V32.1598C15.3659 32.0396 15.446 31.9645 15.5663 31.9645H17.3039C17.6583 31.9632 17.9452 31.6762 17.9466 31.3218C17.9466 30.9693 18.214 30.6911 18.5779 30.6742C18.9582 30.6742 19.2382 30.9579 19.2382 31.3218ZM25.9054 31.6785H28.9158V37.1271H25.9054V31.6785ZM16.6562 33.2549C16.3014 33.2562 16.0143 33.5439 16.0136 33.8988C16.0123 34.2551 16.2999 34.5451 16.6562 34.5464H20.5285C20.8868 34.5479 21.1776 34.257 21.1762 33.8988C21.1756 33.5419 20.8853 33.2535 20.5285 33.2549H16.6562ZM16.6562 35.5129C16.2999 35.5144 16.0122 35.8043 16.0136 36.1607C16.0149 36.515 16.3019 36.802 16.6562 36.8033H20.5285C20.8849 36.8048 21.1748 36.517 21.1762 36.1607C21.1775 35.8024 20.8868 35.5116 20.5285 35.5129H16.6562ZM16.659 37.7698C16.3007 37.7684 16.0099 38.0592 16.0113 38.4175C16.0119 38.7743 16.3022 39.0628 16.659 39.0614C17.0138 39.0601 17.3009 38.7723 17.3016 38.4175C17.3029 38.0612 17.0153 37.7712 16.659 37.7698ZM18.597 37.7698C18.2387 37.7684 17.9479 38.0592 17.9493 38.4175C17.9499 38.7743 18.2402 39.0628 18.597 39.0614C18.9518 39.06 19.239 38.7723 19.2396 38.4175C19.2409 38.0612 18.9533 37.7712 18.597 37.7698ZM7.41232 38.6657V39.7091H5.47415V38.8132L5.83076 38.9946C5.98479 39.0714 6.16303 39.0826 6.32598 39.0274L7.41232 38.6657Z" fill="#586580" stroke="#586580" stroke-width="0.4"/>
</svg>
