<svg width="36" height="17" viewBox="0 0 36 17" fill="none" xmlns="http://www.w3.org/2000/svg">
<path d="M33.5195 3.16649C33.3742 2.95885 33.1354 2.83427 32.8863 2.83427H28.0587V0.778645C28.0587 0.352986 27.7057 0 27.28 0H9.78646C9.3608 0 9.00781 0.352986 9.00781 0.778645V13.3615C9.00781 13.7872 9.3608 14.1402 9.78646 14.1402H11.9874C12.3923 15.5521 13.7004 16.6007 15.237 16.6007C16.7735 16.6007 18.0816 15.5625 18.4865 14.1402H27.1139C27.5188 15.5521 28.8269 16.6007 30.3634 16.6007C31.9 16.6007 33.2081 15.5625 33.613 14.1402H35.2222C35.6478 14.1402 36.0008 13.7872 36.0008 13.3615V6.95589C36.0008 6.78978 35.9489 6.63405 35.8555 6.50947L33.5195 3.16649ZM34.4539 7.1843H30.9656V4.40194H32.4917L34.4539 7.1843ZM10.5651 1.56767H26.5014V12.5933H18.5592C18.2581 11.0256 16.8877 9.84207 15.237 9.84207C13.5862 9.84207 12.2054 11.0256 11.9148 12.5933H10.5651V1.56767ZM15.237 15.0434C14.2299 15.0434 13.4098 14.2232 13.4098 13.2162C13.4098 12.2091 14.2299 11.389 15.237 11.389C16.244 11.389 17.0642 12.2091 17.0642 13.2162C17.0642 14.2232 16.244 15.0434 15.237 15.0434ZM30.3738 15.0434C29.3668 15.0434 28.5466 14.2232 28.5466 13.2162C28.5466 12.2091 29.3668 11.389 30.3738 11.389C31.3809 11.389 32.201 12.2091 32.201 13.2162C32.201 14.2232 31.3809 15.0434 30.3738 15.0434ZM33.696 12.5933C33.395 11.0256 32.0246 9.84207 30.3738 9.84207C29.481 9.84207 28.6608 10.1951 28.0587 10.7661V4.40194H29.3979V7.96294C29.3979 8.3886 29.7509 8.74159 30.1766 8.74159H34.4643V12.5933H33.696Z" fill="#42AB10"/>
<path d="M1.20833 1.5651H6.76267C7.18832 1.5651 7.54131 1.21212 7.54131 0.786457C7.54131 0.360798 7.18832 0.0078125 6.76267 0.0078125H1.20833C0.782673 0.0078125 0.429688 0.360798 0.429688 0.786457C0.429688 1.21212 0.782673 1.5651 1.20833 1.5651Z" fill="#42AB10"/>
<path d="M6.75913 3.03516H2.48177C2.05611 3.03516 1.70312 3.38814 1.70312 3.8138C1.70312 4.23946 2.05611 4.59245 2.48177 4.59245H6.75913C7.18478 4.59245 7.53777 4.23946 7.53777 3.8138C7.53777 3.38814 7.19517 3.03516 6.75913 3.03516Z" fill="#42AB10"/>
<path d="M6.7631 6.0625H4.0638C3.63814 6.0625 3.28516 6.41549 3.28516 6.84114C3.28516 7.2668 3.63814 7.61979 4.0638 7.61979H6.7631C7.18876 7.61979 7.54175 7.2668 7.54175 6.84114C7.54175 6.41549 7.19914 6.0625 6.7631 6.0625Z" fill="#42AB10"/>
<path d="M6.7638 9.08984H5.82943C5.40377 9.08984 5.05078 9.44283 5.05078 9.86849C5.05078 10.2941 5.40377 10.6471 5.82943 10.6471H6.7638C7.18946 10.6471 7.54244 10.2941 7.54244 9.86849C7.54244 9.44283 7.19984 9.08984 6.7638 9.08984Z" fill="#42AB10"/>
</svg>
