<svg width="49" height="23" viewBox="0 0 49 23" fill="none" xmlns="http://www.w3.org/2000/svg">
<path d="M45.621 4.31095C45.4231 4.02827 45.0981 3.85866 44.7588 3.85866H38.1864V1.06007C38.1864 0.480565 37.7058 0 37.1263 0H13.3101C12.7306 0 12.25 0.480565 12.25 1.06007V18.1908C12.25 18.7703 12.7306 19.2509 13.3101 19.2509H16.3065C16.8578 21.1731 18.6387 22.6007 20.7306 22.6007C22.8224 22.6007 24.6034 21.1873 25.1546 19.2509H36.9002C37.4514 21.1731 39.2323 22.6007 41.3242 22.6007C43.4161 22.6007 45.197 21.1873 45.7482 19.2509H47.939C48.5186 19.2509 48.9991 18.7703 48.9991 18.1908V9.46996C48.9991 9.24382 48.9284 9.0318 48.8012 8.86219L45.621 4.31095ZM46.8931 9.78092H42.144V5.99293H44.2217L46.8931 9.78092ZM14.3701 2.13428H36.0663V17.1449H25.2535C24.8436 15.0106 22.9779 13.3993 20.7306 13.3993C18.4832 13.3993 16.6034 15.0106 16.2076 17.1449H14.3701V2.13428ZM20.7306 20.4806C19.3595 20.4806 18.2429 19.364 18.2429 17.9929C18.2429 16.6219 19.3595 15.5053 20.7306 15.5053C22.1016 15.5053 23.2182 16.6219 23.2182 17.9929C23.2182 19.364 22.1016 20.4806 20.7306 20.4806ZM41.3383 20.4806C39.9673 20.4806 38.8507 19.364 38.8507 17.9929C38.8507 16.6219 39.9673 15.5053 41.3383 15.5053C42.7094 15.5053 43.826 16.6219 43.826 17.9929C43.826 19.364 42.7094 20.4806 41.3383 20.4806ZM45.8613 17.1449C45.4514 15.0106 43.5857 13.3993 41.3383 13.3993C40.1228 13.3993 39.0062 13.8799 38.1864 14.6572V5.99293H40.0097V10.841C40.0097 11.4205 40.4903 11.9011 41.0698 11.9011H46.9072V17.1449H45.8613Z" fill="#586580"/>
<path d="M1.63038 2.13577H9.19222C9.77173 2.13577 10.2523 1.6552 10.2523 1.0757C10.2523 0.49619 9.77173 0.015625 9.19222 0.015625H1.63038C1.05088 0.015625 0.570312 0.49619 0.570312 1.0757C0.570312 1.6552 1.05088 2.13577 1.63038 2.13577Z" fill="#586580"/>
<path d="M9.19199 4.13281H3.36866C2.78916 4.13281 2.30859 4.61338 2.30859 5.19288C2.30859 5.77239 2.78916 6.25295 3.36866 6.25295H9.19199C9.77149 6.25295 10.2521 5.77239 10.2521 5.19288C10.2521 4.61338 9.78563 4.13281 9.19199 4.13281Z" fill="#586580"/>
<path d="M9.19201 8.25391H5.5171C4.9376 8.25391 4.45703 8.73447 4.45703 9.31398C4.45703 9.89348 4.9376 10.374 5.5171 10.374H9.19201C9.77152 10.374 10.2521 9.89348 10.2521 9.31398C10.2521 8.73447 9.78565 8.25391 9.19201 8.25391Z" fill="#586580"/>
<path d="M9.19153 12.375H7.91945C7.33994 12.375 6.85938 12.8556 6.85938 13.4351C6.85938 14.0146 7.33994 14.4951 7.91945 14.4951H9.19153C9.77104 14.4951 10.2516 14.0146 10.2516 13.4351C10.2516 12.8556 9.78517 12.375 9.19153 12.375Z" fill="#586580"/>
</svg>
