<svg xmlns="http://www.w3.org/2000/svg" preserveAspectRatio="xMidYMid" width="30" height="26" viewBox="0 0 30 26"><path d="M29.609 11.809c-.885 1.572-2.227 1.974-3.311 2.073a13.54 13.54 0 0 1 .431 3.498c0 1.816-.416 3.378-1.237 4.643-.721 1.112-1.76 2.003-3.086 2.648-2.452 1.19-5.401 1.328-7.407 1.328-2.006 0-4.955-.138-7.407-1.328-1.326-.645-2.365-1.536-3.086-2.648-.821-1.265-1.237-2.827-1.237-4.643 0-1.37.165-2.47.431-3.498-1.084-.099-2.426-.501-3.311-2.073-.725-1.288-.437-3.037.856-5.199.955-1.597 2.296-3.116 3.202-3.913C6.423.957 8.073.999 8.879 1.179c.34.076.651.201.925.368C11.213.508 12.926-.001 14.999-.001c2.073 0 3.786.509 5.195 1.548.274-.167.585-.292.924-.368.808-.18 2.457-.222 4.433 1.518.906.797 2.247 2.316 3.202 3.913 1.292 2.162 1.58 3.911.856 5.199zm-14.61 6.972c.232 0 .731-.25 1.198-.714.475-.472.723-.966.723-1.212 0-.219-.037-.235-.178-.294-.4-.167-1.186-.186-1.743-.186-.557 0-1.343.019-1.743.186-.141.059-.179.075-.179.294 0 .246.249.74.724 1.212.467.464.966.714 1.198.714zM5.664 4.062c-.773.681-1.991 2.06-2.84 3.48-.895 1.496-1.198 2.727-.832 3.376.539.958 1.319 1.143 2.278 1.168.128-.355.265-.716.406-1.092.265-.701.54-1.426.824-2.275.687-2.051 1.508-4.16 2.848-5.782-.451-.06-1.407.001-2.684 1.125zm9.335-2.238c-4.417 0-6.134 2.625-7.757 7.471a61.432 61.432 0 0 1-.847 2.341c-.749 1.98-1.29 3.411-1.29 5.744 0 2.727 1.078 4.576 3.294 5.652 1.409.684 3.274 1.055 5.682 1.129v-3.737c-.721-.277-1.308-.798-1.578-1.067-.379-.376-1.262-1.374-1.262-2.502 0-.923.463-1.624 1.303-1.975.559-.234 1.271-.33 2.455-.33 1.184 0 1.896.096 2.455.33.84.351 1.303 1.052 1.303 1.975 0 1.128-.883 2.126-1.262 2.502-.27.269-.857.79-1.578 1.067v3.737c2.408-.074 4.273-.445 5.682-1.129 2.216-1.076 3.293-2.925 3.293-5.652 0-2.333-.541-3.764-1.289-5.744a61.432 61.432 0 0 1-.847-2.341c-1.623-4.846-3.34-7.471-7.757-7.471zm12.175 5.718c-.849-1.42-2.067-2.799-2.84-3.48-1.277-1.124-2.234-1.185-2.684-1.125 1.34 1.622 2.161 3.731 2.848 5.782.284.849.558 1.574.824 2.275.141.376.278.736.406 1.092.959-.025 1.739-.21 2.278-1.168.366-.649.063-1.88-.832-3.376zm-9.129 4.588c-.67 0-1.214-.546-1.214-1.222 0-.674.544-1.222 1.214-1.222.67 0 1.214.548 1.214 1.222 0 .676-.544 1.222-1.214 1.222zm-6.101-.009a1.21 1.21 0 0 1-1.205-1.213c0-.67.54-1.212 1.205-1.212s1.205.542 1.205 1.212c0 .67-.54 1.213-1.205 1.213z" class="cls-1"/></svg>