<svg width="22" height="21" viewBox="0 0 22 21" fill="none" xmlns="http://www.w3.org/2000/svg">
<g clip-path="url(#clip0_3928_50289)">
<path class="filter-active-icon" d="M21.0605 5.25C21.0605 5.01794 20.9684 4.79538 20.8043 4.63128C20.6402 4.46719 20.4176 4.375 20.1855 4.375H10.998C10.766 4.375 10.5434 4.46719 10.3793 4.63128C10.2152 4.79538 10.123 5.01794 10.123 5.25C10.123 5.48206 10.2152 5.70462 10.3793 5.86872C10.5434 6.03281 10.766 6.125 10.998 6.125H20.1855C20.4176 6.125 20.6402 6.03281 20.8043 5.86872C20.9684 5.70462 21.0605 5.48206 21.0605 5.25Z" fill="#586580"/>
<path d="M1.81055 6.12501H4.15117C4.35758 6.70882 4.76373 7.20087 5.29784 7.51418C5.83195 7.8275 6.45963 7.94191 7.06994 7.8372C7.68025 7.73249 8.23389 7.41539 8.63301 6.94196C9.03214 6.46852 9.25105 5.86923 9.25105 5.25001C9.25105 4.63078 9.03214 4.03149 8.63301 3.55805C8.23389 3.08462 7.68025 2.76752 7.06994 2.66281C6.45963 2.5581 5.83195 2.67251 5.29784 2.98583C4.76373 3.29915 4.35758 3.79119 4.15117 4.37501H1.81055C1.57848 4.37501 1.35592 4.46719 1.19183 4.63129C1.02773 4.79538 0.935547 5.01794 0.935547 5.25001C0.935547 5.48207 1.02773 5.70463 1.19183 5.86872C1.35592 6.03282 1.57848 6.12501 1.81055 6.12501ZM6.62305 4.37501C6.79611 4.37501 6.96528 4.42632 7.10917 4.52247C7.25306 4.61862 7.36521 4.75527 7.43144 4.91516C7.49767 5.07504 7.515 5.25098 7.48123 5.42071C7.44747 5.59044 7.36414 5.74635 7.24177 5.86872C7.11939 5.99109 6.96348 6.07443 6.79375 6.10819C6.62402 6.14195 6.44808 6.12463 6.2882 6.0584C6.12831 5.99217 5.99166 5.88002 5.89551 5.73613C5.79936 5.59224 5.74805 5.42306 5.74805 5.25001C5.74805 5.01794 5.84023 4.79538 6.00433 4.63129C6.16842 4.46719 6.39098 4.37501 6.62305 4.37501Z" fill="#C02356"/>
<path d="M20.1866 9.62501H16.971C16.7646 9.04119 16.3584 8.54915 15.8243 8.23583C15.2902 7.92251 14.6625 7.8081 14.0522 7.91281C13.4419 8.01752 12.8883 8.33462 12.4891 8.80805C12.09 9.28149 11.8711 9.88078 11.8711 10.5C11.8711 11.1192 12.09 11.7185 12.4891 12.192C12.8883 12.6654 13.4419 12.9825 14.0522 13.0872C14.6625 13.1919 15.2902 13.0775 15.8243 12.7642C16.3584 12.4509 16.7646 11.9588 16.971 11.375H20.1866C20.4187 11.375 20.6412 11.2828 20.8053 11.1187C20.9694 10.9546 21.0616 10.7321 21.0616 10.5C21.0616 10.2679 20.9694 10.0454 20.8053 9.88129C20.6412 9.71719 20.4187 9.62501 20.1866 9.62501ZM14.4991 11.375C14.326 11.375 14.1569 11.3237 14.013 11.2275C13.8691 11.1314 13.7569 10.9947 13.6907 10.8349C13.6245 10.675 13.6071 10.499 13.6409 10.3293C13.6747 10.1596 13.758 10.0037 13.8804 9.88129C14.0027 9.75892 14.1587 9.67558 14.3284 9.64182C14.4981 9.60806 14.6741 9.62538 14.8339 9.69161C14.9938 9.75784 15.1305 9.86999 15.2266 10.0139C15.3228 10.1578 15.3741 10.3269 15.3741 10.5C15.3741 10.7321 15.2819 10.9546 15.1178 11.1187C14.9537 11.2828 14.7312 11.375 14.4991 11.375Z" fill="#586580"/>
<path d="M10.123 9.625H1.81055C1.57848 9.625 1.35592 9.71719 1.19183 9.88128C1.02773 10.0454 0.935547 10.2679 0.935547 10.5C0.935547 10.7321 1.02773 10.9546 1.19183 11.1187C1.35592 11.2828 1.57848 11.375 1.81055 11.375H10.123C10.3551 11.375 10.5777 11.2828 10.7418 11.1187C10.9059 10.9546 10.998 10.7321 10.998 10.5C10.998 10.2679 10.9059 10.0454 10.7418 9.88128C10.5777 9.71719 10.3551 9.625 10.123 9.625Z" fill="#586580"/>
<path d="M20.1895 14.875H12.752C12.5199 14.875 12.2973 14.9672 12.1332 15.1313C11.9691 15.2954 11.877 15.5179 11.877 15.75C11.877 15.9821 11.9691 16.2046 12.1332 16.3687C12.2973 16.5328 12.5199 16.625 12.752 16.625H20.1895C20.4215 16.625 20.6441 16.5328 20.8082 16.3687C20.9723 16.2046 21.0645 15.9821 21.0645 15.75C21.0645 15.5179 20.9723 15.2954 20.8082 15.1313C20.6441 14.9672 20.4215 14.875 20.1895 14.875Z" fill="#586580"/>
<path d="M8.37305 13.125C7.83072 13.1256 7.3019 13.2942 6.85928 13.6076C6.41665 13.9209 6.08195 14.3637 5.90117 14.875H1.81055C1.57848 14.875 1.35592 14.9672 1.19183 15.1313C1.02773 15.2954 0.935547 15.5179 0.935547 15.75C0.935547 15.9821 1.02773 16.2046 1.19183 16.3687C1.35592 16.5328 1.57848 16.625 1.81055 16.625H5.90117C6.06163 17.0788 6.3438 17.4798 6.71681 17.7841C7.08982 18.0884 7.53932 18.2842 8.01615 18.3502C8.49298 18.4162 8.97878 18.3498 9.42041 18.1583C9.86205 17.9668 10.2425 17.6575 10.5202 17.2643C10.7979 16.8711 10.9621 16.4091 10.9949 15.9289C11.0277 15.4486 10.9279 14.9686 10.7062 14.5413C10.4846 14.114 10.1497 13.7559 9.73817 13.5061C9.32668 13.2563 8.85442 13.1245 8.37305 13.125ZM8.37305 16.625C8.19999 16.625 8.03082 16.5737 7.88692 16.4775C7.74303 16.3814 7.63088 16.2447 7.56465 16.0848C7.49843 15.925 7.4811 15.749 7.51486 15.5793C7.54862 15.4096 7.63196 15.2537 7.75433 15.1313C7.8767 15.0089 8.03261 14.9256 8.20234 14.8918C8.37208 14.8581 8.54801 14.8754 8.7079 14.9416C8.86778 15.0078 9.00444 15.12 9.10058 15.2639C9.19673 15.4078 9.24805 15.5769 9.24805 15.75C9.24805 15.9821 9.15586 16.2046 8.99177 16.3687C8.82767 16.5328 8.60511 16.625 8.37305 16.625Z" fill="#586580"/>
</g>
<defs>
<clipPath id="clip0_3928_50289">
<rect width="21" height="21" fill="white" transform="translate(0.5)"/>
</clipPath>
</defs>
</svg>
