<svg xmlns="http://www.w3.org/2000/svg" preserveAspectRatio="xMidYMid" width="17" height="9" viewBox="0 0 17 9"><defs><style>.cls-1{fill:#7aaa3f;fill-rule:evenodd}</style></defs><path d="M16.88 4.855c-.032.043-.812 1.06-2.228 2.078C12.77 8.285 10.64 9 8.491 9S4.212 8.285 2.33 6.933C.913 5.915.134 4.898.101 4.855a.588.588 0 0 1 0-.71c.033-.043.812-1.06 2.229-2.078C4.211.715 6.342 0 8.491 0s4.279.715 6.161 2.067c1.416 1.018 2.196 2.035 2.228 2.078.16.21.16.5 0 .71zM4.666 2.063a10.957 10.957 0 0 0-3.3 2.437A11.018 11.018 0 0 0 4.67 6.945a4.438 4.438 0 0 1-.004-4.882zm3.825-.879c-1.851 0-3.356 1.488-3.356 3.316 0 1.828 1.505 3.316 3.356 3.316 1.85 0 3.356-1.488 3.356-3.316 0-1.828-1.506-3.316-3.356-3.316zm5.424 1.818a10.45 10.45 0 0 0-1.604-.947 4.43 4.43 0 0 1 .734 2.445c0 .901-.27 1.74-.734 2.445A11.03 11.03 0 0 0 15.616 4.5c-.326-.356-.904-.93-1.701-1.498zM8.491 5.477a.984.984 0 0 1-.989-.977c0-.54.443-.977.989-.977s.989.437.989.977a.984.984 0 0 1-.989.977z" class="cls-1"/></svg>