<svg xmlns="http://www.w3.org/2000/svg" preserveAspectRatio="xMidYMid" width="33.031" height="22.969" viewBox="0 0 33.031 22.969"><defs><style>.cls-1{fill-rule:evenodd}</style></defs><path d="M27.726 13.256c-3.396 6.188-8.227 9.704-13.411 9.704-5.536 0-10.665-4.007-14.079-10.993l-.241-.494.241-.491C3.647 3.993 8.779-.013 14.315-.013c5.184 0 10.015 3.515 13.411 9.703l5.292-5.347v14.26l-5.292-5.347zm1.347-1.783l1.745 1.764V9.709l-1.745 1.764zM14.315 2.211a9.451 9.451 0 0 0-2.962.482c1.205 2.564 1.862 5.632 1.862 8.78 0 3.148-.657 6.216-1.862 8.78a9.47 9.47 0 0 0 2.962.482c4.539 0 8.842-3.367 11.862-9.262-3.02-5.895-7.323-9.262-11.862-9.262zM9.343 19.348c1.082-2.277 1.673-5.03 1.673-7.875 0-2.842-.591-5.598-1.673-7.875-2.625 1.508-5.005 4.199-6.889 7.875 1.884 3.676 4.264 6.367 6.889 7.875zm-1.63-8.987v2.224h-2.2v-2.224h2.2z" class="cls-1"/></svg>