<svg xmlns="http://www.w3.org/2000/svg" preserveAspectRatio="xMidYMid" width="17" height="15" viewBox="0 0 17 15"><path fill="#7aaa3f" fill-rule="evenodd" d="M15.061 10.243c-1.088 0-1.94-1.15-1.94-2.618s.852-2.618 1.94-2.618c1.089 0 1.941 1.15 1.941 2.618s-.852 2.618-1.941 2.618zm-4.044-3.507c-1.359 0-2.463-1.511-2.463-3.368S9.658 0 11.017 0c1.357 0 2.462 1.511 2.462 3.368s-1.105 3.368-2.462 3.368zm1.943 3.083c.026.057.074.123.125.193.059.081.117.163.166.251.981 1.759.737 3.793-.544 4.534a1.436 1.436 0 0 1-.732.202c-.591 0-1.136-.365-1.714-.753-.376-.252-.766-.514-1.209-.713-.063-.022-.354-.059-.759-.059-.341 0-.55.026-.601.043-.454.192-.863.449-1.259.697-.623.39-1.16.727-1.747.727a1.45 1.45 0 0 1-.807-.248c-.622-.407-.988-1.122-1.028-2.012-.038-.838.22-1.741.727-2.544a2.04 2.04 0 0 1 .162-.217c.048-.059.093-.114.114-.157.599-1.256 2.098-2.597 4.506-2.597l.094.001c2.445.035 3.955 1.451 4.506 2.652zM5.78 6.736c-1.358 0-2.463-1.511-2.463-3.368S4.422 0 5.78 0s2.463 1.511 2.463 3.368S7.138 6.736 5.78 6.736zm-3.841 3.507c-1.088 0-1.94-1.15-1.94-2.618s.852-2.618 1.94-2.618S3.88 6.157 3.88 7.625s-.853 2.618-1.941 2.618z"/></svg>