<?xml version="1.0" encoding="utf-8"?>
<!-- Generator: Adobe Illustrator 15.1.0, SVG Export Plug-In . SVG Version: 6.00 Build 0)  -->
<!DOCTYPE svg PUBLIC "-//W3C//DTD SVG 1.1//EN" "http://www.w3.org/Graphics/SVG/1.1/DTD/svg11.dtd">
<svg version="1.1" id="Layer_1" xmlns="http://www.w3.org/2000/svg" xmlns:xlink="http://www.w3.org/1999/xlink" x="0px" y="0px"
	 width="36px" height="36px" viewBox="0 0 36 36" enable-background="new 0 0 36 36" xml:space="preserve">
<g>
	<path fill="#020202" d="M18,36C8.075,36,0,27.925,0,18C0,8.075,8.075,0,18,0c9.925,0,18,8.075,18,18C36,27.925,27.925,36,18,36z
		 M18,1C8.626,1,1,8.626,1,18s7.626,17,17,17s17-7.626,17-17S27.374,1,18,1z"/>
</g>
<g>
	<g>
		<path d="M31.51,17.598C31.122,17.211,30.614,17,30.065,17c-0.543,0-1.055,0.211-1.438,0.598c-1.464,1.462-1.464,3.078-1.464,4.038
			l0,0c0,0.809-0.025,0.917-0.271,1.161c-0.245,0.243-0.352,0.269-1.157,0.269c-0.965,0-2.579,0-4.044,1.464
			c-1.462,1.464-1.462,3.077-1.462,4.043c0,0.804-0.027,0.913-0.271,1.157c-0.796,0.793-0.796,2.087,0,2.882
			c0.386,0.385,0.896,0.597,1.44,0.597c0.546,0,1.061-0.212,1.442-0.597c1.464-1.463,1.464-3.077,1.464-4.039
			c0-0.81,0.023-0.917,0.269-1.161c0.244-0.244,0.354-0.269,1.161-0.269h0.013c0.959,0,2.562,0,4.026-1.463
			c1.464-1.464,1.464-3.078,1.464-4.044c0-0.804,0.027-0.912,0.272-1.156c0.384-0.386,0.596-0.896,0.596-1.442
			C32.105,18.493,31.894,17.981,31.51,17.598z M22.168,31.938c-0.205,0.206-0.478,0.321-0.77,0.321c-0.29,0-0.563-0.115-0.768-0.318
			c-0.426-0.425-0.426-1.114,0-1.539c0.419-0.419,0.517-0.785,0.54-1.357h2.18C23.322,29.899,23.162,30.948,22.168,31.938z
			 M25.26,26.197c-0.57,0.025-0.938,0.123-1.356,0.546c-0.421,0.417-0.518,0.779-0.543,1.351l-2.178,0.004
			c0.028-0.857,0.188-1.903,1.181-2.896c0.993-0.994,2.04-1.155,2.896-1.182V26.197z M29.105,25.006
			c-0.997,0.997-2.043,1.158-2.896,1.181V24.01c0.571-0.025,0.937-0.123,1.354-0.54c0.419-0.423,0.52-0.784,0.54-1.355h2.18
			C30.257,22.968,30.099,24.014,29.105,25.006z M30.836,19.807c-0.417,0.418-0.519,0.784-0.539,1.356h-2.18
			c0.026-0.854,0.188-1.903,1.179-2.894c0.205-0.205,0.481-0.32,0.77-0.32c0.294,0,0.566,0.115,0.771,0.317
			c0.206,0.207,0.317,0.482,0.317,0.771C31.153,19.329,31.042,19.602,30.836,19.807z"/>
	</g>
</g>
<path d="M26.651,10.136l-0.475-0.847l1.153-0.645l-0.353-1.852l-0.954,0.184l0.222,1.165l-0.541,0.302L25.467,8.02
	c-0.261-0.467-0.854-0.635-1.321-0.374L23.671,6.8c-0.175-0.313-0.427-0.552-0.717-0.721l0.291-1.033L22.437,3.6l-0.845,0.473
	l0.612,1.095l-0.184,0.648c-0.337-0.007-0.676,0.063-0.99,0.239c-0.313,0.175-0.552,0.428-0.72,0.718l-0.648-0.182l-0.613-1.095
	L18.201,5.97l0.81,1.446l1.035,0.291c-0.007,0.335,0.063,0.676,0.238,0.989l0.474,0.846c-0.466,0.261-0.632,0.854-0.371,1.32
	l0.237,0.424l-0.544,0.304l-0.874-0.799l-0.653,0.716l1.392,1.27l1.152-0.646l0.475,0.847l-1.152,0.645l0.354,1.853l0.951-0.182
	l-0.221-1.164l0.581-0.326c0.871,1.085,2.429,1.419,3.686,0.717c1.258-0.704,1.787-2.207,1.32-3.519l0.577-0.323l0.875,0.796
	l0.657-0.716l-1.396-1.271L26.651,10.136z M21.132,8.222c-0.262-0.467-0.094-1.059,0.373-1.32s1.058-0.094,1.319,0.373l0.474,0.846
	l-1.692,0.947L21.132,8.222z M26.041,11.034c0.441,0.788,0.269,1.746-0.355,2.344l-1.861-3.325l-0.848,0.473l1.862,3.326
	c-0.836,0.218-1.744-0.134-2.185-0.922l-1.422-2.54l3.388-1.895L26.041,11.034z"/>
<path d="M4.493,19.794l0.756,1.309l-1.311,0.757c-0.218,0.125-0.295,0.405-0.168,0.623c0.127,0.219,0.404,0.293,0.622,0.168
	l1.311-0.756l0.756,1.309c0.079,0.144,0.23,0.231,0.395,0.232c0.163,0,0.314-0.087,0.398-0.229c0.08-0.142,0.079-0.315-0.002-0.458
	L6.495,21.44l3.91-2.254l-0.012,4.513l-1.513,0.005c-0.164-0.001-0.315,0.085-0.396,0.227c-0.083,0.14-0.083,0.317-0.003,0.458
	c0.083,0.143,0.234,0.229,0.398,0.228l1.512-0.004l0.004,1.512c0,0.254,0.203,0.459,0.455,0.458
	c0.252,0.001,0.456-0.203,0.457-0.456l-0.003-1.512l1.511-0.002c0.164,0.001,0.316-0.085,0.398-0.228
	c0.084-0.141,0.084-0.316,0.001-0.458c-0.081-0.141-0.233-0.229-0.396-0.229l-1.512,0.005l0.012-4.515l3.905,2.267l-0.761,1.308
	c-0.126,0.217-0.052,0.496,0.167,0.623c0.217,0.126,0.495,0.052,0.622-0.165l0.759-1.308l1.309,0.759
	c0.219,0.127,0.497,0.052,0.624-0.165c0.126-0.219,0.052-0.498-0.165-0.624l-1.309-0.76l0.76-1.309
	c0.128-0.217,0.052-0.495-0.165-0.622c-0.219-0.127-0.498-0.052-0.625,0.165l-0.758,1.307l-3.905-2.265l3.911-2.255l0.757,1.311
	c0.079,0.142,0.23,0.23,0.394,0.232c0.165,0,0.316-0.087,0.397-0.229c0.082-0.142,0.082-0.318-0.001-0.458l-0.756-1.309l1.31-0.755
	c0.142-0.083,0.229-0.231,0.23-0.395c0-0.164-0.088-0.314-0.228-0.396c-0.143-0.082-0.316-0.082-0.457,0l-1.31,0.755l-0.756-1.309
	c-0.079-0.143-0.23-0.231-0.396-0.231c-0.162-0.001-0.313,0.085-0.396,0.229c-0.081,0.14-0.081,0.316,0.001,0.456l0.755,1.31
	l-3.91,2.254l0.011-4.513l1.513-0.004c0.164,0.001,0.317-0.085,0.397-0.227c0.083-0.142,0.082-0.318,0.002-0.458
	c-0.082-0.143-0.233-0.23-0.396-0.228l-1.513,0.004l-0.004-1.511c0.001-0.123-0.047-0.239-0.133-0.325
	c-0.084-0.086-0.201-0.134-0.321-0.135c-0.252,0-0.458,0.204-0.458,0.457l0.004,1.511l-1.511,0.004
	c-0.252,0.001-0.455,0.204-0.456,0.456c0,0.25,0.201,0.454,0.453,0.458l1.512-0.004l-0.012,4.514l-3.905-2.266l0.76-1.308
	c0.126-0.217,0.053-0.496-0.167-0.623c-0.217-0.126-0.496-0.052-0.623,0.166l-0.759,1.307l-1.309-0.759
	c-0.217-0.127-0.497-0.053-0.623,0.165c-0.127,0.218-0.053,0.498,0.165,0.624l1.31,0.761l-0.762,1.307
	c-0.126,0.218-0.051,0.497,0.167,0.624s0.498,0.053,0.624-0.165l0.759-1.307l3.905,2.265L6.04,20.649l-0.756-1.311
	c-0.08-0.144-0.23-0.23-0.395-0.231s-0.314,0.087-0.398,0.229C4.411,19.478,4.41,19.652,4.493,19.794z"/>
</svg>
