<svg xmlns="http://www.w3.org/2000/svg" preserveAspectRatio="xMidYMid" width="13" height="12" viewBox="0 0 13 12"><defs><style>.cls-1{fill:#7aaa3f;fill-rule:evenodd}</style></defs><path d="M11.925 1.132A3.566 3.566 0 0 0 9.325 0c-.982 0-1.906.402-2.6 1.132l-.225.237-.225-.237A3.563 3.563 0 0 0 3.675 0c-.982 0-1.905.402-2.6 1.132A3.944 3.944 0 0 0 0 3.866C0 4.9.382 5.871 1.075 6.6l4.932 5.187a.673.673 0 0 0 .496.213.674.674 0 0 0 .49-.213L11.925 6.6A3.944 3.944 0 0 0 13 3.866a3.944 3.944 0 0 0-1.075-2.734zm-.979 4.439L6.5 10.247 2.054 5.571c-.894-.94-.894-2.47 0-3.41a2.222 2.222 0 0 1 1.621-.706 2.22 2.22 0 0 1 1.621.706l.715.752c.26.274.718.274.978 0l.715-.752a2.22 2.22 0 0 1 1.621-.706c.613 0 1.188.251 1.621.706.894.94.894 2.47 0 3.41z" class="cls-1"/></svg>