<svg width="35" height="35" viewBox="0 0 35 35" fill="none" xmlns="http://www.w3.org/2000/svg">
<path d="M30.9643 8.17857H22.6786V4.03571C22.6786 2.89123 21.7516 1.96429 20.6071 1.96429H4.03571C2.89207 1.96429 1.96429 2.8909 1.96429 4.03571V30.9643C1.96429 32.1091 2.89206 33.0357 4.03571 33.0357H9.21429H15.4286H20.6071H30.9643C32.1088 33.0357 33.0357 32.1088 33.0357 30.9643V10.25C33.0357 9.10552 32.1088 8.17857 30.9643 8.17857ZM6.10714 6.10714H18.5357V10.25V28.8929H17.5V26.8214C17.5 25.6766 16.5722 24.75 15.4286 24.75H9.21429C8.07064 24.75 7.14286 25.6766 7.14286 26.8214V28.8929H6.10714V6.10714ZM25.5088 28.8929C25.6849 28.5882 25.7857 28.2345 25.7857 27.8571C25.7857 26.7127 24.8588 25.7857 23.7143 25.7857H22.6786V24.75H23.7143C24.8588 24.75 25.7857 23.8231 25.7857 22.6786C25.7857 21.5341 24.8588 20.6071 23.7143 20.6071H22.6786V12.3214H28.8929V18.5357H27.8571C26.7127 18.5357 25.7857 19.4627 25.7857 20.6071C25.7857 21.7516 26.7127 22.6786 27.8571 22.6786H28.8929V23.7143H27.8571C26.7127 23.7143 25.7857 24.6412 25.7857 25.7857C25.7857 26.9302 26.7127 27.8571 27.8571 27.8571H28.8929V28.8929H25.5088Z" fill="#586580" stroke="white" stroke-width="2.07143"/>
<path d="M7.14314 17.5011H9.21456C9.78653 17.5011 10.2503 17.0379 10.2503 16.4654C10.2503 15.8929 9.78653 15.4297 9.21456 15.4297H7.14314C6.57117 15.4297 6.10742 15.8929 6.10742 16.4654C6.10742 17.0379 6.57117 17.5011 7.14314 17.5011Z" fill="#586580"/>
<path d="M7.14314 12.3214H9.21456C9.78653 12.3214 10.2503 11.8582 10.2503 11.2857C10.2503 10.7132 9.78653 10.25 9.21456 10.25H7.14314C6.57117 10.25 6.10742 10.7132 6.10742 11.2857C6.10742 11.8582 6.57117 12.3214 7.14314 12.3214Z" fill="#586580"/>
<path d="M14.3926 16.4654C14.3926 17.0379 14.8563 17.5011 15.4283 17.5011H17.4997C18.0717 17.5011 18.5354 17.0379 18.5354 16.4654C18.5354 15.8929 18.0717 15.4297 17.4997 15.4297H15.4283C14.8563 15.4297 14.3926 15.8929 14.3926 16.4654Z" fill="#586580"/>
<path d="M14.3926 11.2857C14.3926 11.8582 14.8563 12.3214 15.4283 12.3214H17.4997C18.0717 12.3214 18.5354 11.8582 18.5354 11.2857C18.5354 10.7132 18.0717 10.25 17.4997 10.25H15.4283C14.8563 10.25 14.3926 10.7132 14.3926 11.2857Z" fill="#586580"/>
<path d="M9.21456 22.6769C9.78653 22.6769 10.2503 22.2137 10.2503 21.6412C10.2503 21.0687 9.78653 20.6055 9.21456 20.6055H7.14314C6.57117 20.6055 6.10742 21.0687 6.10742 21.6412C6.10742 22.2137 6.57117 22.6769 7.14314 22.6769H9.21456Z" fill="#586580"/>
<path d="M17.4997 20.6055H15.4283C14.8563 20.6055 14.3926 21.0687 14.3926 21.6412C14.3926 22.2137 14.8563 22.6769 15.4283 22.6769H17.4997C18.0717 22.6769 18.5354 22.2137 18.5354 21.6412C18.5354 21.0687 18.0717 20.6055 17.4997 20.6055Z" fill="#586580"/>
<path d="M28.892 17.4989V13.356C28.892 12.7836 28.4288 12.3203 27.8563 12.3203H23.7134C23.141 12.3203 22.6777 12.7836 22.6777 13.356V17.4989C22.6777 18.0714 23.141 18.5346 23.7134 18.5346H27.8563C28.4288 18.5346 28.892 18.0714 28.892 17.4989ZM26.8206 16.4632H24.7492V14.3917H26.8206V16.4632Z" fill="#586580"/>
</svg>
