<svg xmlns="http://www.w3.org/2000/svg" preserveAspectRatio="xMidYMid" width="40" height="40" viewBox="0 0 40 40"><defs><style>.cls-1{fill:#fda045}.cls-2{fill:#fff;fill-rule:evenodd}</style></defs><circle cx="20" cy="20" r="20" class="cls-1"/><path d="M27.582 22.139c-.825.795-1.818 1.369-2.92 1.77-1.043.38-2.184.57-3.315.697.171.174.251.26.358.36 1.535 1.446 3.076 2.887 4.605 4.337.522.495.63 1.108.343 1.683-.313.628-1.016 1.041-1.704.997-.437-.029-.777-.232-1.079-.518-1.158-1.093-2.338-2.165-3.473-3.279-.33-.324-.489-.263-.78.018a218.81 218.81 0 0 1-3.54 3.334c-.535.495-1.171.584-1.792.302-.659-.3-1.078-.931-1.046-1.566.022-.429.247-.757.561-1.051 1.519-1.422 3.033-2.848 4.549-4.273.1-.094.194-.195.34-.342-2.066-.202-3.929-.679-5.524-1.849-.198-.146-.402-.286-.583-.449-.698-.628-.768-1.349-.216-2.091.473-.635 1.266-.805 2.09-.44.16.07.312.159.458.253 2.972 1.916 7.055 1.969 10.039.087.295-.213.611-.386.978-.474.712-.172 1.375.073 1.758.657.436.668.431 1.319-.107 1.837zm-7.635-2.485c-3.686-.012-6.708-2.878-6.686-6.341.021-3.501 3.045-6.322 6.767-6.312 3.73.009 6.723 2.871 6.704 6.408-.019 3.456-3.062 6.257-6.785 6.245zm.055-9.422c-1.845-.002-3.318 1.392-3.304 3.127.014 1.712 1.486 3.072 3.32 3.065 1.829-.006 3.285-1.383 3.279-3.102-.007-1.72-1.467-3.088-3.295-3.09z" class="cls-2"/></svg>