<svg id="Layer_1" xmlns="http://www.w3.org/2000/svg" viewBox="0 0 878 878"><style>.st0{fill:url(#SVGID_1_)}.st1{fill:#fff}</style><linearGradient id="SVGID_1_" gradientUnits="userSpaceOnUse" x1="58.751" y1="658.537" x2="819.249" y2="219.463"><stop offset="0" stop-color="#e09b3d"/><stop offset=".3" stop-color="#c74c4d"/><stop offset=".6" stop-color="#c21975"/><stop offset="1" stop-color="#7024c4"/></linearGradient><circle class="st0" cx="439" cy="439" r="439"/><path class="st1" d="M550.4 163.5H327.6c-90.5 0-164.2 73.6-164.2 164.2v222.7c0 90.5 73.6 164.2 164.2 164.2h222.7c90.5 0 164.2-73.6 164.2-164.2V327.6c0-90.5-73.6-164.1-164.1-164.1zm108.7 386.9c0 60-48.7 108.7-108.7 108.7H327.6c-60 0-108.7-48.7-108.7-108.7V327.6c0-60 48.7-108.7 108.7-108.7h222.7c60 0 108.7 48.7 108.7 108.7l.1 222.8z"/><path class="st1" d="M439 296.5c-78.6 0-142.5 63.9-142.5 142.5S360.4 581.5 439 581.5 581.5 517.6 581.5 439 517.6 296.5 439 296.5zm0 229.6c-48.1 0-87.1-39-87.1-87.1s39-87.1 87.1-87.1c48.1 0 87.1 39 87.1 87.1 0 48.1-39 87.1-87.1 87.1z"/><circle class="st1" cx="581.8" cy="297.6" r="34.1"/></svg>