<svg xmlns="http://www.w3.org/2000/svg" width="40" height="40" viewBox="0 0 40 40"><path fill-rule="evenodd" fill="#DE0F0F" d="M20 .062C31.011.062 39.937 8.989 39.937 20S31.011 39.937 20 39.937C8.989 39.937.062 31.011.062 20 .062 8.989 8.989.062 20 .062z"/><path fill-rule="evenodd" fill="#FFF" d="M27.223 12H13.777C11.139 12 9 14.102 9 16.696v6.608C9 25.898 11.139 28 13.777 28h13.446C29.861 28 32 25.898 32 23.304v-6.608C32 14.102 29.861 12 27.223 12zm-3.23 8.322l-6.29 2.948a.252.252 0 0 1-.361-.224v-6.082c0-.185.199-.305.367-.221l6.289 3.133a.247.247 0 0 1-.005.446z"/></svg>