<svg xmlns="http://www.w3.org/2000/svg" width="55.97" height="47.969" viewBox="0 0 55.97 47.969"><defs><style>.cls-1{fill:#c22255;fill-rule:evenodd}</style></defs><path id="Фигура_9" data-name="Фигура 9" class="cls-1" d="M1220.77 697.215a3.034 3.034 0 0 1-3.16-2.877 1.259 1.259 0 0 0-.09-.464c-.43-1.1-2.2-1.933-4.11-1.933-1.98 0-4.2 1.025-4.2 2.4s2.22 2.4 4.2 2.4c5.8 0 10.51 3.656 10.51 8.15a7.126 7.126 0 0 1-2.4 5.179 11.155 11.155 0 0 1-5.02 2.607 3.226 3.226 0 0 1-6.17 0 11.14 11.14 0 0 1-5.03-2.607 7.126 7.126 0 0 1-2.4-5.179 3.169 3.169 0 0 1 6.31 0c0 1.372 2.22 2.4 4.2 2.4s4.2-1.025 4.2-2.4-2.22-2.4-4.2-2.4c-5.8 0-10.51-3.656-10.51-8.15a7.126 7.126 0 0 1 2.4-5.179 11.13 11.13 0 0 1 5.03-2.607 3.225 3.225 0 0 1 6.17.008c3.35.778 5.92 2.744 6.96 5.363a6.719 6.719 0 0 1 .46 2.415 3.025 3.025 0 0 1-3.15 2.874zm.81-4.552a7.558 7.558 0 0 0-5.54-4.139 2.017 2.017 0 0 1-1.51-1.516 1.113 1.113 0 0 0-1.12-.722 1.1 1.1 0 0 0-1.12.72 2.007 2.007 0 0 1-1.5 1.506 9.154 9.154 0 0 0-4.11 2.117 5.132 5.132 0 0 0-1.76 3.709c0 3.325 3.89 6.134 8.49 6.134 2.99 0 6.22 1.687 6.22 4.413s-3.23 4.413-6.22 4.413-6.22-1.687-6.22-4.413a1.179 1.179 0 0 0-2.27 0 5.132 5.132 0 0 0 1.76 3.709 9.143 9.143 0 0 0 4.11 2.116 2.009 2.009 0 0 1 1.5 1.507 1.231 1.231 0 0 0 2.24 0 2.009 2.009 0 0 1 1.5-1.506 9.133 9.133 0 0 0 4.11-2.116 5.13 5.13 0 0 0 1.76-3.709c0-3.325-3.89-6.134-8.49-6.134-2.99 0-6.22-1.687-6.22-4.413s3.23-4.413 6.22-4.413c2.78 0 5.24 1.32 5.99 3.21a3.326 3.326 0 0 1 .23 1.2 1.179 1.179 0 0 0 2.27 0 4.638 4.638 0 0 0-.32-1.673zm-15.92-8.471a1 1 0 0 1-.77.5.839.839 0 0 1-.1.006 1 1 0 0 1-.75-.332l-3.8-4.2a1.007 1.007 0 1 1 1.49-1.354l1.68 1.852a7.033 7.033 0 0 0-10.07-6.411 1.007 1.007 0 1 1-.86-1.821 9.035 9.035 0 0 1 12.94 8.12l1.31-2.28a1.008 1.008 0 0 1 1.75 1zm-15.95 19.453l-1.68-1.851a7.027 7.027 0 0 0 10.07 6.411 1.007 1.007 0 1 1 .86 1.821 9.035 9.035 0 0 1-12.94-8.12l-1.31 2.28a1.019 1.019 0 0 1-.88.507 1.006 1.006 0 0 1-.87-1.509l2.82-4.915a1 1 0 0 1 .76-.5 1.027 1.027 0 0 1 .86.325l3.8 4.2a1.014 1.014 0 0 1-.07 1.424 1 1 0 0 1-1.42-.073zm-11.26-24.211c5.79 0 10.51 3.656 10.51 8.15a7.126 7.126 0 0 1-2.4 5.179 11.14 11.14 0 0 1-5.03 2.607 3.226 3.226 0 0 1-6.17 0 11.155 11.155 0 0 1-5.02-2.607 7.126 7.126 0 0 1-2.4-5.179 3.163 3.163 0 0 1 6.3 0c0 1.372 2.22 2.4 4.21 2.4s4.2-1.025 4.2-2.4-2.22-2.4-4.2-2.4c-5.8 0-10.51-3.656-10.51-8.15a7.126 7.126 0 0 1 2.4-5.179 11.145 11.145 0 0 1 5.02-2.607 3.225 3.225 0 0 1 6.17.008c3.36.777 5.93 2.744 6.96 5.363a6.523 6.523 0 0 1 .47 2.415 3.169 3.169 0 0 1-6.31 0 1.259 1.259 0 0 0-.09-.464c-.43-1.1-2.2-1.933-4.11-1.933-1.99 0-4.21 1.025-4.21 2.4s2.22 2.397 4.21 2.397zm0-6.81c2.78 0 5.24 1.32 5.99 3.209a3.335 3.335 0 0 1 .23 1.2 1.179 1.179 0 0 0 2.27 0 4.638 4.638 0 0 0-.32-1.675 7.558 7.558 0 0 0-5.54-4.139 2.017 2.017 0 0 1-1.51-1.516 1.113 1.113 0 0 0-1.12-.722 1.1 1.1 0 0 0-1.12.719 2.022 2.022 0 0 1-1.5 1.507 9.154 9.154 0 0 0-4.11 2.117 5.144 5.144 0 0 0-1.77 3.709c0 3.325 3.89 6.134 8.5 6.134 2.99 0 6.22 1.687 6.22 4.413s-3.23 4.413-6.22 4.413-6.22-1.687-6.22-4.413a1.186 1.186 0 0 0-2.28 0 5.144 5.144 0 0 0 1.77 3.709 9.143 9.143 0 0 0 4.11 2.116 2.039 2.039 0 0 1 1.5 1.507 1.231 1.231 0 0 0 2.24 0 2.012 2.012 0 0 1 1.49-1.506 9.233 9.233 0 0 0 4.12-2.116 5.169 5.169 0 0 0 1.76-3.709c0-3.325-3.89-6.134-8.49-6.134-2.99 0-6.22-1.687-6.22-4.413s3.23-4.41 6.22-4.41z" transform="translate(-1167.94 -666.969)"/></svg>