<svg xmlns="http://www.w3.org/2000/svg" preserveAspectRatio="xMidYMid" width="40" height="40" viewBox="0 0 40 40"><defs><style>.cls-1{fill:#587ea3}.cls-2{fill:#fff;fill-rule:evenodd}</style></defs><circle cx="20" cy="20" r="20" class="cls-1"/><path d="M30 25.138c-.5-.588-1.07-1.115-1.62-1.624a50.738 50.738 0 0 1-.593-.555c-.56-.535-.58-.737-.137-1.344.307-.42.632-.839.946-1.245.286-.368.581-.749.863-1.131l.059-.079c.54-.732 1.099-1.487 1.396-2.4.077-.24.158-.594-.027-.89-.185-.296-.545-.387-.799-.428a2.223 2.223 0 0 0-.367-.024l-3.539-.003h-.029c-.535 0-.896.246-1.102.754a20.303 20.303 0 0 1-.661 1.491c-.492.977-1.118 2.103-2.022 3.042l-.038.04c-.107.113-.228.239-.316.239a.15.15 0 0 1-.045-.007c-.188-.071-.313-.515-.308-.721v-.009l-.002-3.999a.297.297 0 0 0-.003-.042c-.09-.649-.289-1.055-1.043-1.199a.308.308 0 0 0-.061-.006h-3.68c-.599 0-.929.238-1.24.595-.084.095-.258.294-.172.535.088.244.373.296.466.313.46.086.719.361.793.842.128.836.144 1.728.05 2.807-.027.3-.079.531-.165.73-.02.046-.09.196-.162.196-.023 0-.09-.008-.21-.09-.286-.191-.495-.464-.738-.801-.829-1.145-1.524-2.405-2.126-3.855-.223-.535-.64-.833-1.175-.843a104.7 104.7 0 0 0-1.627-.012c-.555 0-1.069.004-1.571.015-.43.007-.728.133-.884.375-.157.241-.147.559.03.943 1.416 3.078 2.7 5.317 4.163 7.257 1.025 1.358 2.053 2.298 3.235 2.958 1.246.697 2.642 1.036 4.268 1.036.184 0 .374-.005.567-.014.944-.045 1.295-.379 1.339-1.279.021-.459.072-.941.304-1.352.145-.259.281-.259.326-.259a.62.62 0 0 1 .308.111c.205.131.382.307.526.461.136.145.271.293.405.441.291.318.591.647.905.959.687.683 1.444.984 2.313.919h3.245l.021-.001a.948.948 0 0 0 .768-.481c.204-.353.2-.803-.011-1.205-.24-.454-.55-.842-.823-1.161z" class="cls-2"/></svg>