<svg xmlns="http://www.w3.org/2000/svg" width="22" height="22" viewBox="-1.5 0 22 22"><path fill="#BBB" d="M18.656 19.955c-.119.482-.367.887-.743 1.215s-.811.517-1.306.564c-1.57.172-3.939.258-7.107.258-3.167 0-5.536-.086-7.106-.258-.496-.048-.933-.236-1.313-.564s-.626-.732-.737-1.215c-.221-.917-.332-2.349-.332-4.297 0-1.913.111-3.346.332-4.296.12-.483.368-.888.744-1.215a2.372 2.372 0 0 1 1.318-.576c1.563-.163 3.927-.246 7.094-.246s5.537.083 7.107.246c.495.057.934.25 1.313.576.381.327.625.732.736 1.215.222.918.332 2.351.334 4.296 0 1.916-.111 3.348-.334 4.297zM5.429 11.45H1.434v1.154h1.344v6.983h1.28v-6.983h1.371V11.45zm3.457 2.073H7.747v4.641c-.256.342-.5.514-.731.514-.154 0-.243-.085-.269-.256a3.543 3.543 0 0 1-.012-.431v-4.468h-1.14v4.799c0 .401.034.7.103.896.103.302.35.455.743.455.41 0 .845-.251 1.307-.75v.663h1.139v-6.063zm4.354 1.829c0-.596-.039-1.001-.115-1.214-.146-.458-.449-.688-.91-.688-.426 0-.822.222-1.19.663V11.45h-1.14v8.137h1.14v-.589c.384.45.782.676 1.19.676.461 0 .765-.226.91-.676.076-.222.115-.631.115-1.228v-2.418zm4.327 2.136h-1.165c0 .417-.008.667-.025.748-.06.295-.23.441-.512.441-.393 0-.589-.281-.589-.846v-1.068h2.291V15.5c0-.646-.114-1.121-.346-1.425-.332-.417-.784-.625-1.356-.625-.58 0-1.037.208-1.371.625-.238.304-.357.778-.357 1.425v2.123c0 .646.123 1.121.371 1.424.332.417.793.627 1.383.627.615 0 1.076-.217 1.383-.651.154-.222.243-.442.27-.663.016-.074.024-.311.024-.711v-.161zm-2.291-2.21c0-.556.192-.835.576-.835s.576.279.576.835v.565h-1.152v-.565zm-3.674 3.4c-.197 0-.389-.09-.577-.27v-3.694c.188-.18.38-.271.577-.271.332 0 .498.275.498.822v2.591c0 .548-.166.822-.498.822zm2.47-11.131c-.452.507-.893.76-1.318.76-.393 0-.646-.15-.756-.455-.069-.196-.104-.501-.104-.92V2.096h1.166v4.505c0 .269.004.413.013.43.026.181.115.27.269.27.23 0 .475-.175.73-.527V2.096h1.166v6.125h-1.166v-.674zm-4.841.76c-.572 0-1.02-.208-1.344-.626-.239-.311-.358-.794-.358-1.448V4.085c0-.655.12-1.134.358-1.437.324-.417.773-.625 1.344-.625.59 0 1.042.208 1.358.625.238.303.357.782.357 1.437v2.148c0 .663-.119 1.146-.357 1.447-.316.418-.768.627-1.358.627zm.551-4.443c0-.566-.183-.848-.55-.848-.366 0-.55.282-.55.848v2.577c0 .573.184.859.55.859.368 0 .55-.287.55-.859V3.864zM5.966 8.221h-1.28V4.896c-.119-.606-.38-1.474-.78-2.602-.317-.844-.594-1.609-.833-2.296H4.43l.91 3.228.87-3.228h1.306l-1.55 4.897v3.326z"/></svg>