<?xml version="1.0" encoding="utf-8"?>
<!-- Generator: Adobe Illustrator 15.1.0, SVG Export Plug-In . SVG Version: 6.00 Build 0)  -->
<!DOCTYPE svg PUBLIC "-//W3C//DTD SVG 1.1//EN" "http://www.w3.org/Graphics/SVG/1.1/DTD/svg11.dtd">
<svg version="1.1" id="Layer_1" xmlns="http://www.w3.org/2000/svg" xmlns:xlink="http://www.w3.org/1999/xlink" x="0px" y="0px"
	 width="43px" height="49px" viewBox="0 0 43 49" enable-background="new 0 0 43 49" xml:space="preserve">
<linearGradient id="SVGID_1_" gradientUnits="userSpaceOnUse" x1="29.0996" y1="32.2578" x2="15.4544" y2="53.2697">
	<stop  offset="0" style="stop-color:#FFFFFF;stop-opacity:0"/>
	<stop  offset="1" style="stop-color:#000000"/>
</linearGradient>
<path fill="url(#SVGID_1_)" d="M18.881,48.003c-0.337,0-0.613-0.065-0.772-0.178c-0.417-0.319-9.478-8.349-6.509-12.007
	c2.89-3.561,11.724-6.082,19.628-5.81c7.668,0.265,12.25,3.095,10.322,6.483c-1.93,3.395-19.941,10.693-21.666,11.334
	C19.563,47.941,19.223,48.001,18.881,48.003z"/>
<path fill="#02409B" d="M18.518,48.007c-0.354,0-0.692-0.149-0.94-0.403C16.907,46.877,1.012,28.011,1.012,18.595
	c0-9.714,7.849-17.607,17.506-17.607c9.651,0,17.498,7.893,17.498,17.607c0,9.416-15.888,28.282-16.565,29.008
	C19.208,47.859,18.871,48.006,18.518,48.007z"/>
<circle display="none" fill="#FFFFFF" cx="18.5" cy="18.281" r="6.25"/>
<g>
	<path fill="#FFFFFF" d="M27.459,20.495h-6.623v6.732h-4.644v-6.732H9.568v-4.463h6.624V9.335h4.644v6.696h6.623V20.495z"/>
</g>
</svg>
