<svg width="29" height="39" viewBox="0 0 29 39" fill="none" xmlns="http://www.w3.org/2000/svg">
<path d="M29 15.0682C29 6.72159 22.5319 0 14.5 0C6.46814 0 0 6.72159 0 15.0682C0 23.4148 14.5 39 14.5 39C14.5 39 29 23.4148 29 15.0682Z" fill="#C22955"/>
<g clip-path="url(#clip0_105:197)">
<path d="M16.6405 7.8469C15.7548 8.05408 15.0621 8.78223 14.7273 9.85931C14.571 10.3621 14.5026 10.9861 14.5539 11.4404C14.654 12.3382 15.0816 13.0421 15.7157 13.3583C16.0749 13.5376 16.4304 13.5679 16.7651 13.4504C16.9997 13.368 17.3161 13.1838 17.5225 13.0094C18.0711 12.5478 18.462 11.8366 18.6086 11.0345C18.6587 10.7595 18.6709 10.6202 18.6697 10.3136C18.6697 9.72725 18.5866 9.29956 18.4022 8.92034C18.1212 8.34364 17.6765 7.96563 17.1475 7.85296C17.0021 7.82267 16.7602 7.82024 16.6405 7.8469Z" fill="white"/>
<path d="M10.9928 7.90246C10.5029 7.98727 10.0411 8.37013 9.76625 8.91896C9.61598 9.21822 9.54513 9.50536 9.51336 9.94516C9.4987 10.1378 9.50603 10.4467 9.52802 10.6406C9.65386 11.7407 10.1718 12.6675 10.9525 13.1861C11.1089 13.2903 11.3678 13.4175 11.5438 13.4757C11.6684 13.5168 11.7001 13.5217 11.8382 13.5278C12.0214 13.535 12.1522 13.5181 12.3122 13.4672C12.5602 13.3884 12.763 13.2648 12.9536 13.0758C13.3311 12.7015 13.5656 12.1369 13.6206 11.4729C13.6426 11.1991 13.6181 10.792 13.5583 10.4734C13.3188 9.18066 12.57 8.22353 11.578 7.94002C11.3801 7.88429 11.1773 7.87096 10.9928 7.90246Z" fill="white"/>
<path d="M20.2567 12.3236C19.4394 12.4568 18.7283 13.0154 18.2849 13.8744C18.0809 14.2706 17.9782 14.5928 17.8988 15.0944C17.8707 15.2737 17.8658 15.3416 17.8658 15.5475C17.8658 15.7995 17.8805 15.9243 17.933 16.1279C18.0735 16.6743 18.4046 17.1189 18.8163 17.3164C19.0411 17.4243 19.2463 17.4642 19.4772 17.4436C20.038 17.3952 20.5376 17.1444 20.9823 16.6888C21.4722 16.186 21.8094 15.4906 21.9193 14.76C21.9474 14.5783 21.967 14.2197 21.9584 14.0731C21.9132 13.3195 21.5052 12.6567 20.9371 12.4144C20.7172 12.3211 20.4753 12.2884 20.2567 12.3236Z" fill="white"/>
<path d="M7.60999 12.6409C7.07857 12.7294 6.63144 13.0977 6.46651 13.5847C6.40787 13.7568 6.35901 14.0027 6.33824 14.2269C6.2625 15.0398 6.55081 15.9582 7.09323 16.6318C7.49882 17.1346 8.02169 17.4823 8.60686 17.6386C9.09919 17.7695 9.54143 17.6459 9.91648 17.274C10.2512 16.942 10.4186 16.4574 10.4186 15.8189C10.4186 15.5705 10.4064 15.4348 10.3624 15.2046C10.2133 14.4147 9.76133 13.6586 9.14195 13.1631C8.8573 12.9353 8.4737 12.7257 8.23181 12.6664C8.04123 12.6191 7.80057 12.6094 7.60999 12.6409Z" fill="white"/>
<path d="M13.9492 15.5959C13.5241 15.6432 13.1038 15.7559 12.6897 15.9364C12.0568 16.2138 11.446 16.6754 11.0514 17.177C10.1999 18.2602 9.60864 19.433 9.36797 20.5149C9.35331 20.5815 9.32766 20.6821 9.31178 20.739C9.22993 21.0334 9.24336 21.3678 9.34965 21.6598C9.52068 22.1299 9.89084 22.4946 10.349 22.6472C10.6226 22.7381 11.0319 22.7369 11.4876 22.6424C11.7844 22.5818 12.0068 22.5115 12.6371 22.2801C13.5143 21.9566 13.7574 21.8949 14.3475 21.8403C14.6113 21.8161 14.659 21.8149 14.841 21.8282C15.3065 21.8609 15.6742 21.9615 16.3803 22.2474C17.0058 22.5006 17.3552 22.6375 17.4431 22.6618C18.3227 22.9089 19.1962 22.6048 19.4955 21.9469C19.6263 21.6574 19.6409 21.1861 19.531 20.739C19.4235 20.3041 19.1046 19.5977 18.7992 19.1216C17.9379 17.7767 17.3234 17.0292 16.6124 16.4598C15.9442 15.9255 15.3834 15.6723 14.6932 15.5959C14.4989 15.5741 14.1471 15.5741 13.9492 15.5959Z" fill="white"/>
</g>
<defs>
<clipPath id="clip0_105:197">
<rect width="15.6373" height="14.9265" fill="white" transform="translate(6.32599 7.82361)"/>
</clipPath>
</defs>
</svg>
