<svg width="29" height="39" viewBox="0 0 29 39" fill="none" xmlns="http://www.w3.org/2000/svg">
<path d="M29 15.0682C29 6.72159 22.5319 0 14.5 0C6.46814 0 0 6.72159 0 15.0682C0 23.4148 14.5 39 14.5 39C14.5 39 29 23.4148 29 15.0682Z" fill="#7AAA3F"/>
<g clip-path="url(#clip0_98:1154)">
<path d="M16.6404 7.84678C15.7547 8.05395 15.062 8.7821 14.7273 9.85918C14.5709 10.362 14.5025 10.9859 14.5538 11.4403C14.654 12.338 15.0816 13.042 15.7156 13.3582C16.0748 13.5375 16.4303 13.5678 16.765 13.4503C16.9996 13.3679 17.316 13.1837 17.5225 13.0093C18.071 12.5476 18.462 11.8365 18.6086 11.0344C18.6586 10.7594 18.6709 10.62 18.6696 10.3135C18.6696 9.72712 18.5866 9.29944 18.4021 8.92022C18.1211 8.34352 17.6764 7.96551 17.1474 7.85284C17.002 7.82255 16.7602 7.82012 16.6404 7.84678Z" fill="white"/>
<path d="M10.9928 7.9024C10.5029 7.98721 10.0411 8.37006 9.76625 8.9189C9.61598 9.21816 9.54513 9.5053 9.51336 9.9451C9.4987 10.1377 9.50603 10.4467 9.52802 10.6405C9.65386 11.7406 10.1718 12.6675 10.9525 13.186C11.1089 13.2902 11.3678 13.4174 11.5438 13.4756C11.6684 13.5168 11.7001 13.5216 11.8382 13.5277C12.0214 13.535 12.1522 13.518 12.3122 13.4671C12.5602 13.3884 12.763 13.2648 12.9536 13.0758C13.3311 12.7014 13.5656 12.1368 13.6206 11.4729C13.6426 11.1991 13.6181 10.792 13.5583 10.4733C13.3188 9.1806 12.57 8.22347 11.578 7.93996C11.3801 7.88423 11.1773 7.8709 10.9928 7.9024Z" fill="white"/>
<path d="M20.2567 12.3234C19.4394 12.4567 18.7283 13.0152 18.2849 13.8742C18.0809 14.2704 17.9782 14.5927 17.8988 15.0943C17.8707 15.2736 17.8658 15.3415 17.8658 15.5474C17.8658 15.7994 17.8805 15.9242 17.933 16.1278C18.0735 16.6742 18.4046 17.1188 18.8163 17.3163C19.0411 17.4241 19.2463 17.4641 19.4772 17.4435C20.038 17.3951 20.5376 17.1443 20.9823 16.6887C21.4722 16.1859 21.8094 15.4905 21.9193 14.7599C21.9474 14.5782 21.967 14.2195 21.9584 14.0729C21.9132 13.3194 21.5052 12.6566 20.9371 12.4143C20.7172 12.321 20.4753 12.2883 20.2567 12.3234Z" fill="white"/>
<path d="M7.60999 12.6407C7.07857 12.7291 6.63144 13.0975 6.46651 13.5845C6.40787 13.7565 6.35901 14.0025 6.33824 14.2266C6.2625 15.0396 6.55081 15.958 7.09323 16.6316C7.49882 17.1344 8.02169 17.4821 8.60686 17.6384C9.09919 17.7692 9.54143 17.6457 9.91648 17.2737C10.2512 16.9417 10.4186 16.4571 10.4186 15.8186C10.4186 15.5703 10.4064 15.4346 10.3624 15.2044C10.2133 14.4144 9.76133 13.6584 9.14195 13.1629C8.8573 12.9351 8.4737 12.7255 8.23181 12.6661C8.04123 12.6189 7.80057 12.6092 7.60999 12.6407Z" fill="white"/>
<path d="M13.9493 15.5957C13.5241 15.643 13.1039 15.7557 12.6897 15.9362C12.0569 16.2136 11.4461 16.6753 11.0515 17.1768C10.2 18.26 9.6087 19.4328 9.36803 20.5147C9.35337 20.5813 9.32772 20.6819 9.31184 20.7388C9.22999 21.0332 9.24342 21.3676 9.34971 21.6596C9.52074 22.1297 9.8909 22.4944 10.349 22.6471C10.6227 22.7379 11.0319 22.7367 11.4876 22.6422C11.7845 22.5816 12.0068 22.5114 12.6372 22.2799C13.5143 21.9565 13.7575 21.8947 14.3475 21.8401C14.6114 21.8159 14.659 21.8147 14.8411 21.828C15.3065 21.8607 15.6742 21.9613 16.3804 22.2472C17.0059 22.5005 17.3552 22.6374 17.4432 22.6616C18.3228 22.9087 19.1963 22.6046 19.4956 21.9468C19.6263 21.6572 19.641 21.1859 19.531 20.7388C19.4235 20.3039 19.1047 19.5975 18.7993 19.1214C17.938 17.7766 17.3235 17.029 16.6125 16.4596C15.9442 15.9253 15.3835 15.6721 14.6933 15.5957C14.499 15.5739 14.1472 15.5739 13.9493 15.5957Z" fill="white"/>
</g>
<defs>
<clipPath id="clip0_98:1154">
<rect width="15.6373" height="14.9265" fill="white" transform="translate(6.32605 7.82349)"/>
</clipPath>
</defs>
</svg>
