<svg xmlns="http://www.w3.org/2000/svg" preserveAspectRatio="xMidYMid" width="89.406" height="89" viewBox="0 0 89.406 89"><defs><style>.cls-1{fill:#457ac9}.cls-2{fill:#c22255}.cls-2,.cls-3,.cls-4{fill-rule:evenodd}.cls-3{fill:#ffd625}.cls-4{fill:#fff}</style></defs><ellipse cx="44.703" cy="44.5" rx="44.703" ry="44.5" class="cls-1"/><path d="M22.996 55.095l.851-24.581 1.703-1.695h40.014l1.702 1.695v23.733l3.406.848v1.695l-2.554 4.238-1.703.848H24.698l-2.554-1.695-1.703-2.543-.851-2.543h3.406z" class="cls-2"/><path d="M27.252 55.095V33.904l36.609-.847v21.19l-12.77.848-.852 1.695-5.959.848-2.554-.848-2.555-1.695H27.252z" class="cls-3"/><path d="M66.561 62.723H24.553c-2.737 0-4.963-3.017-4.963-5.683v-1.924c0-.542.45-.98 1.006-.98h2.059V31.263c0-1.816 1.515-3.292 3.378-3.292H65.08c1.863 0 3.379 1.476 3.379 3.292v22.873h2.058a.993.993 0 0 1 1.006.98v1.924c0 2.666-2.226 5.683-4.962 5.683zm-.338-31.46c0-.614-.512-1.114-1.143-1.114H26.033c-.63 0-1.143.5-1.143 1.114v22.872h15.138c.563-.012 1.029.431 1.029.98 0 .828.691 1.501 1.54 1.501h5.92c.848 0 1.539-.673 1.539-1.501 0-.47.342-.873.816-.962a.948.948 0 0 1 .218-.017h15.133V31.263zm3.289 24.833H51.923c-.435 1.432-1.798 2.48-3.407 2.48h-5.919c-1.609 0-2.972-1.048-3.407-2.48H21.602v.944c0 1.585 1.323 3.723 2.951 3.723h42.008c1.627 0 2.951-2.138 2.951-3.723v-.944zm-21.723-8.501c-.286 0-.572-.106-.79-.319a1.068 1.068 0 0 1 0-1.54l2.8-2.728a1.136 1.136 0 0 1 1.58 0 1.068 1.068 0 0 1 0 1.54l-2.8 2.728a1.127 1.127 0 0 1-.79.319zm-18.038 2.651c0 .602-.501 1.089-1.118 1.089-.617 0-1.118-.487-1.118-1.089V33.797c0-.602.501-1.089 1.118-1.089H62.48c.617 0 1.118.487 1.118 1.088v16.45c0 .601-.5 1.089-1.118 1.089-.617 0-1.117-.488-1.117-1.089V34.885H29.751v15.361zm15.881-11.208a1.14 1.14 0 0 1 1.581 0 1.068 1.068 0 0 1 0 1.54l-7.029 6.85a1.131 1.131 0 0 1-.79.319c-.286 0-.572-.106-.79-.319a1.068 1.068 0 0 1 0-1.54l7.028-6.85z" class="cls-4"/></svg>