<svg width="95" height="17" viewBox="0 0 95 17" fill="none" xmlns="http://www.w3.org/2000/svg">
<path d="M9.66602 1.33203H3.99935C3.64573 1.33203 3.30659 1.47251 3.05654 1.72256C2.80649 1.9726 2.66602 2.31174 2.66602 2.66536V13.332C2.66602 13.6857 2.80649 14.0248 3.05654 14.2748C3.30659 14.5249 3.64573 14.6654 3.99935 14.6654H11.9993C12.353 14.6654 12.6921 14.5249 12.9422 14.2748C13.1922 14.0248 13.3327 13.6857 13.3327 13.332V4.9987L9.66602 1.33203Z" stroke="#AD8701" stroke-linecap="round" stroke-linejoin="round"/>
<path d="M9.33398 1.33203V5.33203H13.334" stroke="#AD8701" stroke-linecap="round" stroke-linejoin="round"/>
<path d="M6 10.0013L7.33333 11.3346L10 8.66797" stroke="#AD8701" stroke-linecap="round" stroke-linejoin="round"/>
<path d="M26.666 11.332H30.666" stroke="#42AB10" stroke-linecap="round" stroke-linejoin="round"/>
<path d="M28.666 9.33203V13.332" stroke="#42AB10" stroke-linecap="round" stroke-linejoin="round"/>
<path d="M30 7.33197V5.99863C29.9998 5.76482 29.938 5.53517 29.821 5.33274C29.704 5.13031 29.5358 4.96221 29.3333 4.8453L24.6667 2.17863C24.464 2.06161 24.234 2 24 2C23.766 2 23.536 2.06161 23.3333 2.17863L18.6667 4.8453C18.4642 4.96221 18.296 5.13031 18.179 5.33274C18.062 5.53517 18.0002 5.76482 18 5.99863V11.332C18.0002 11.5658 18.062 11.7954 18.179 11.9979C18.296 12.2003 18.4642 12.3684 18.6667 12.4853L23.3333 15.152C23.536 15.269 23.766 15.3306 24 15.3306C24.234 15.3306 24.464 15.269 24.6667 15.152L26 14.392" stroke="#42AB10" stroke-linecap="round" stroke-linejoin="round"/>
<path d="M26.9999 6.93219L21.0332 3.49219" stroke="#42AB10" stroke-linecap="round" stroke-linejoin="round"/>
<path d="M18.1934 5.33203L24 8.66536L29.8067 5.33203" stroke="#42AB10" stroke-linecap="round" stroke-linejoin="round"/>
<path d="M24 15.3307V8.66406" stroke="#42AB10" stroke-linecap="round" stroke-linejoin="round"/>
<path d="M45.375 3H34.375C33.6156 3 33 3.61561 33 4.375V5.0625C33 5.82189 33.6156 6.4375 34.375 6.4375H45.375C46.1344 6.4375 46.75 5.82189 46.75 5.0625V4.375C46.75 3.61561 46.1344 3 45.375 3Z" stroke="#1B93C8" stroke-linecap="round" stroke-linejoin="round"/>
<path d="M34.375 6.4375V12.625C34.375 12.9897 34.5199 13.3394 34.7777 13.5973C35.0356 13.8551 35.3853 14 35.75 14H44C44.3647 14 44.7144 13.8551 44.9723 13.5973C45.2301 13.3394 45.375 12.9897 45.375 12.625V6.4375" stroke="#1B93C8" stroke-linecap="round" stroke-linejoin="round"/>
<path d="M38.5 9.1875H41.25" stroke="#1B93C8" stroke-linecap="round" stroke-linejoin="round"/>
<path d="M55.6673 12.332H58.334V4.33203H50.334V12.332H52.334" stroke="#FF3D00" stroke-linecap="round" stroke-linejoin="round"/>
<path d="M62.334 12.3333H63.6673V10.1067C63.6676 9.75637 63.5989 9.40945 63.465 9.08573C63.3312 8.76201 63.1349 8.46783 62.8873 8.22L61.6673 7H58.334" stroke="#FF3D00" stroke-linecap="round" stroke-linejoin="round"/>
<path d="M58.334 12.332H59.0007" stroke="#FF3D00" stroke-linecap="round" stroke-linejoin="round"/>
<path d="M54.0007 14.3333C54.9211 14.3333 55.6673 13.5871 55.6673 12.6667C55.6673 11.7462 54.9211 11 54.0007 11C53.0802 11 52.334 11.7462 52.334 12.6667C52.334 13.5871 53.0802 14.3333 54.0007 14.3333Z" stroke="#FF3D00" stroke-linecap="round" stroke-linejoin="round"/>
<path d="M60.6667 14.3333C61.5871 14.3333 62.3333 13.5871 62.3333 12.6667C62.3333 11.7462 61.5871 11 60.6667 11C59.7462 11 59 11.7462 59 12.6667C59 13.5871 59.7462 14.3333 60.6667 14.3333Z" stroke="#FF3D00" stroke-linecap="round" stroke-linejoin="round"/>
<path d="M75.668 10.6654L77.0013 11.9987L79.668 9.33203" stroke="#8A2986" stroke-linecap="round" stroke-linejoin="round"/>
<path d="M79 6.6679V5.33457C78.9998 5.10075 78.938 4.87111 78.821 4.66868C78.704 4.46625 78.5358 4.29815 78.3333 4.18124L73.6667 1.51457C73.464 1.39755 73.234 1.33594 73 1.33594C72.766 1.33594 72.536 1.39755 72.3333 1.51457L67.6667 4.18124C67.4642 4.29815 67.296 4.46625 67.179 4.66868C67.062 4.87111 67.0002 5.10075 67 5.33457V10.6679C67.0002 10.9017 67.062 11.1314 67.179 11.3338C67.296 11.5362 67.4642 11.7043 67.6667 11.8212L72.3333 14.4879C72.536 14.6049 72.766 14.6665 73 14.6665C73.234 14.6665 73.464 14.6049 73.6667 14.4879L75 13.7279" stroke="#8A2986" stroke-linecap="round" stroke-linejoin="round"/>
<path d="M75.9999 6.26812L70.0332 2.82812" stroke="#8A2986" stroke-linecap="round" stroke-linejoin="round"/>
<path d="M67.1934 4.66797L73 8.0013L78.8067 4.66797" stroke="#8A2986" stroke-linecap="round" stroke-linejoin="round"/>
<path d="M73 14.6667V8" stroke="#8A2986" stroke-linecap="round" stroke-linejoin="round"/>
<path d="M83.25 3V7H86.25" stroke="#5C6B8C" stroke-width="1.2" stroke-linecap="round" stroke-linejoin="round"/>
<path d="M93.25 9C93.2491 8.0343 92.9691 7.08947 92.4437 6.27949C91.9184 5.4695 91.1701 4.82896 90.2892 4.43511C89.4082 4.04127 88.4323 3.91095 87.479 4.05986C86.5257 4.20878 85.6358 4.63058 84.9167 5.27439L83.25 6.77575" stroke="#5C6B8C" stroke-width="1.2" stroke-linecap="round" stroke-linejoin="round"/>
<path d="M93.25 15V12H90.25" stroke="#5C6B8C" stroke-width="1.2" stroke-linecap="round" stroke-linejoin="round"/>
<path d="M83.25 9C83.2509 9.9657 83.5309 10.9105 84.0563 11.7205C84.5816 12.5305 85.3299 13.171 86.2108 13.5649C87.0918 13.9587 88.0677 14.0891 89.021 13.9401C89.9743 13.7912 90.8642 13.3694 91.5833 12.7256L93.25 11.2242" stroke="#5C6B8C" stroke-width="1.2" stroke-linecap="round" stroke-linejoin="round"/>
</svg>
