<svg width="80" height="60" viewBox="0 0 80 60" fill="none" xmlns="http://www.w3.org/2000/svg">
<path id="pets_cry_dog" d="M48.5737 14.9733C48.5716 16.3703 47.4732 17.5013 46.1204 17.4992C44.7675 17.497 43.6723 16.3627 43.6744 14.9656C43.6765 13.5686 44.7749 12.4375 46.1277 12.4397C47.4806 12.4419 48.5758 13.5762 48.5737 14.9733ZM65.3249 15.0005C65.327 13.6035 64.2318 12.4692 62.879 12.467C61.5261 12.4648 60.4277 13.5958 60.4256 14.9929C60.4235 16.3899 61.5187 17.5242 62.8716 17.5264C64.2244 17.5286 65.3228 16.3976 65.3249 15.0005ZM79.9474 10.7641C79.769 14.1709 79.1762 17.3514 78.8875 18.5572C78.7381 19.1807 78.5787 19.8092 78.4246 20.4175L78.404 20.4982C78.025 21.9928 76.7926 24.3863 74.9504 24.855C74.7678 24.9014 74.5604 24.933 74.3355 24.933C74.0885 24.933 73.8193 24.8948 73.5364 24.7967C72.3714 28.9682 69.8321 33.1397 66.4587 36.3791C64.6577 38.1087 62.7306 39.4768 60.7317 40.4465C58.6062 41.4773 56.5096 42 54.4997 42C52.4918 42 50.3968 41.4784 48.2734 40.4492C46.2761 39.4812 44.3505 38.1152 42.5506 36.3884C39.1731 33.1484 36.6289 28.9726 35.4635 24.7973C35.1806 24.8954 34.9114 24.9335 34.6643 24.9335C34.439 24.9335 34.232 24.9019 34.0494 24.8556C32.2073 24.3868 30.9748 21.9934 30.5958 20.4987L30.5731 20.4093C30.4195 19.8043 30.2612 19.178 30.1123 18.5577C29.8236 17.352 29.2309 14.1709 29.0524 10.7647C28.7901 5.75322 29.5127 2.44403 31.2012 0.930345C32.1249 0.102367 33.2941 -0.174533 34.677 0.107273C35.577 0.290966 36.3835 0.679608 37.1631 1.05626C38.0266 1.4727 38.8421 1.86625 39.6972 1.93874C40.0493 1.96872 40.4636 1.96382 40.9017 1.95837C42.0867 1.94419 43.4068 1.92893 44.3685 2.58139C47.6917 0.869296 51.1004 0.000982366 54.5002 0.000982366C57.8962 0.000982366 61.3013 0.867116 64.6213 2.5754L64.6319 2.58085C65.5936 1.92839 66.9132 1.94365 68.0987 1.95782C68.5368 1.96327 68.9511 1.96818 69.3032 1.9382C70.1583 1.8657 70.9738 1.47216 71.8373 1.05571C72.6169 0.679608 73.4234 0.29042 74.3234 0.106728C75.7068 -0.175079 76.8759 0.101822 77.7991 0.9298C79.4871 2.44403 80.2102 5.75268 79.9474 10.7641ZM76.7952 2.12407C76.2394 1.62532 75.5273 1.47325 74.6195 1.65857C73.9022 1.80465 73.2133 2.13715 72.4844 2.48873C71.5364 2.94605 70.5562 3.41864 69.4277 3.51457C69.0039 3.55055 68.5552 3.5451 68.0797 3.53965C67.0066 3.52656 65.7894 3.51185 65.2837 4.06347C65.0267 4.34364 64.9185 4.82386 64.9612 5.49049C64.9892 5.92601 64.6699 6.30266 64.2481 6.33155C63.8264 6.35989 63.4617 6.03067 63.4337 5.59515C63.3904 4.92252 63.4633 4.33764 63.648 3.84489C60.6362 2.34428 57.559 1.58281 54.4991 1.58281C51.4398 1.58281 48.3642 2.34374 45.3503 3.84489C45.535 4.33819 45.6073 4.92252 45.5646 5.59515C45.5366 6.03067 45.1718 6.35989 44.7501 6.33155C44.3284 6.30266 44.009 5.92601 44.037 5.49049C44.0798 4.82386 43.971 4.34364 43.7145 4.06347C43.2088 3.51185 41.9922 3.52656 40.9186 3.53965C40.4435 3.5451 39.9944 3.55055 39.571 3.51457C38.4425 3.41864 37.4624 2.94605 36.5144 2.48873C35.7854 2.13715 35.0972 1.80465 34.3793 1.65857C33.4709 1.47325 32.7594 1.62587 32.2036 2.12407C30.9273 3.2682 30.3504 6.30648 30.5795 10.6791C30.7515 13.9676 31.3205 17.0222 31.5971 18.1783C31.7428 18.7883 31.9006 19.4086 32.0526 20.0087L32.0753 20.0981C32.4195 21.4543 33.4414 23.0732 34.4141 23.3206C34.5772 23.3621 35.0729 23.488 35.7585 22.7112C36.0599 22.37 36.2959 21.9056 36.5239 21.2057C36.8269 20.2758 37.0206 19.3257 37.2254 18.3201C37.5236 16.8582 37.8318 15.3466 38.5027 13.9142C38.926 13.0099 39.4692 12.1378 40.2113 11.1691C40.4736 10.8268 40.955 10.7691 41.2865 11.0394C41.618 11.3103 41.6739 11.8074 41.4121 12.1497C40.7412 13.0257 40.2546 13.8052 39.8809 14.6026C39.2913 15.8612 39.0158 17.2135 38.7239 18.6455C38.5185 19.6511 38.3069 20.6912 37.9754 21.7094C37.7901 22.279 37.4756 23.1135 36.8902 23.7758C36.8612 23.8085 36.8321 23.8401 36.8036 23.8712C37.8239 27.9353 40.2804 32.0528 43.5921 35.2295C47.0303 38.5273 51.0059 40.4187 54.4997 40.4187C57.9971 40.4187 61.9758 38.524 65.4162 35.2208C68.7241 32.0446 71.1764 27.9315 72.1957 23.8712C72.1666 23.8401 72.1381 23.8085 72.1091 23.7758C71.5243 23.1129 71.2097 22.279 71.0239 21.7094C70.6924 20.6917 70.4802 19.6517 70.2754 18.6455C69.9835 17.2135 69.7075 15.8607 69.1184 14.6026C68.7447 13.8052 68.2586 13.0257 67.5872 12.1497C67.3249 11.8074 67.3813 11.3103 67.7128 11.0394C68.0443 10.7685 68.5257 10.8268 68.788 11.1691C69.5301 12.1378 70.0728 13.0099 70.4966 13.9142C71.1675 15.3461 71.4757 16.8582 71.7739 18.3201C71.9787 19.3257 72.1725 20.2753 72.4754 21.2057C72.7035 21.9056 72.9394 22.37 73.2408 22.7112C73.9264 23.488 74.4221 23.3621 74.5852 23.3206C75.5585 23.0732 76.5804 21.4543 76.924 20.0981L76.9446 20.0174C77.0976 19.4146 77.2555 18.791 77.4022 18.1783C77.6788 17.0228 78.2472 13.9681 78.4198 10.6791C78.6479 6.30648 78.0715 3.2682 76.7952 2.12407ZM59.9405 34.08C59.789 34.2555 59.5795 34.3449 59.3684 34.3449C59.1873 34.3449 59.0057 34.2789 58.8601 34.1448L54.4997 30.1374L50.1393 34.1448C49.9936 34.2789 49.8115 34.3449 49.631 34.3449C49.4198 34.3449 49.2103 34.2555 49.0588 34.08C48.778 33.754 48.806 33.2542 49.1216 32.9642L53.3997 29.0325L50.0907 25.5756C49.4742 24.9313 49.3011 24.0123 49.6389 23.1767C49.9767 22.3411 50.7315 21.8217 51.6087 21.8217H57.3906C58.2678 21.8217 59.0221 22.3406 59.3604 23.1767C59.6983 24.0123 59.5251 24.9319 58.9086 25.5756L55.5997 29.0325L59.8777 32.9642C60.1934 33.2542 60.2219 33.754 59.9405 34.08ZM51.1791 24.4642L54.4997 27.9331L57.8202 24.4642C58.0826 24.19 57.9844 23.8755 57.948 23.7856C57.9115 23.6956 57.7638 23.4024 57.3906 23.4024H51.6087C51.2356 23.4024 51.0878 23.6956 51.0513 23.7856C51.0149 23.8755 50.9167 24.19 51.1791 24.4642ZM66.2993 22.7745C66.7231 23.4803 67.204 24.2805 67.204 25.2551C67.204 26.8091 65.98 28.0732 64.4751 28.0732C62.9703 28.0732 61.7462 26.8091 61.7462 25.2551C61.7462 24.3672 62.2113 23.5632 62.6214 22.854C62.7248 22.6758 62.8219 22.5068 62.9027 22.3531L64.4751 19.3361L65.9588 22.183C66.0565 22.37 66.1747 22.5662 66.2993 22.7745ZM65.6733 25.2546C65.6733 24.7307 65.3455 24.1851 64.9987 23.6073C64.8673 23.3882 64.7311 23.162 64.6113 22.9314L64.4751 22.6703L64.2508 23.101C64.1542 23.2863 64.0433 23.4782 63.9357 23.664C63.6269 24.1977 63.2769 24.8027 63.2769 25.2546C63.2769 25.937 63.8143 26.4919 64.4751 26.4919C65.136 26.4919 65.6733 25.937 65.6733 25.2546Z" fill="#586580"/>
<path id="pets_cry_cat" d="M19.8669 38.8052C20.2919 39.1572 20.568 39.6805 20.568 40.273C20.568 41.3326 19.703 42.1912 18.6357 42.1912C17.5687 42.1912 16.7033 41.3322 16.7033 40.273C16.7033 40.2066 16.7164 40.1442 16.7229 40.0798C16.7013 40.0802 16.6817 40.0823 16.6597 40.0823C16.3077 40.0823 15.9244 40.0523 15.5067 39.983C15.0292 39.904 14.7061 39.4553 14.7857 38.981C14.8652 38.5067 15.3183 38.1851 15.7951 38.2649C17.8697 38.6076 18.5353 37.6809 18.5627 37.6416C18.8314 37.2531 19.3702 37.1357 19.7682 37.3909C20.1667 37.6456 20.2968 38.158 20.0521 38.5614C20.0427 38.578 19.9823 38.6724 19.8669 38.8052ZM34.7479 40.273C34.7479 40.2066 34.7348 40.1442 34.7283 40.0798C34.7499 40.0802 34.7695 40.0823 34.7915 40.0823C35.1431 40.0823 35.5268 40.0523 35.9445 39.983C36.4224 39.904 36.745 39.4553 36.6655 38.981C36.586 38.5067 36.1288 38.1847 35.6565 38.2649C33.6185 38.6023 32.9383 37.7116 32.8902 37.6444C32.6357 37.245 32.1047 37.1219 31.6972 37.3657C31.2821 37.6144 31.1491 38.1499 31.3991 38.5618C31.4093 38.5784 31.4697 38.6731 31.5851 38.806C31.1601 39.158 30.884 39.6813 30.884 40.2738C30.884 41.3334 31.749 42.192 32.8155 42.192C33.8829 42.1912 34.7479 41.3326 34.7479 40.273ZM51.435 49.696C51.3518 50.1103 50.9856 50.3975 50.5757 50.3975C50.5186 50.3975 50.4615 50.3922 50.404 50.3809L45.1328 49.3416C42.4598 55.2595 34.7729 59.5484 25.7259 59.5484C16.6785 59.5484 8.99069 55.26 6.31895 49.3416L1.04814 50.3809C0.990633 50.3922 0.933124 50.3975 0.87685 50.3975C0.466974 50.3975 0.100333 50.1107 0.0175393 49.696C-0.0770783 49.2241 0.232062 48.7661 0.706783 48.6721L5.71251 47.685C5.44782 46.7361 5.30753 45.7547 5.30753 44.7498C5.30753 44.2127 5.36177 43.6785 5.4413 43.1471L0.706293 42.2131C0.231164 42.1195 -0.0775638 41.661 0.0170486 41.1892C0.111666 40.7177 0.572111 40.4119 1.04805 40.5047L5.82336 41.4464C5.9449 41.0604 6.08478 40.6772 6.24913 40.2981C6.41349 38.9717 6.78747 37.6525 7.36126 36.375C7.53663 35.9854 7.62024 35.533 7.61004 35.0299L7.43345 26.3121C7.41877 25.5786 7.74789 24.9042 8.3368 24.4611C8.9253 24.0188 9.66922 23.8859 10.3748 24.1006L19.147 26.7482C23.4006 25.4951 28.0516 25.4955 32.3041 26.7478L41.0759 24.1006C41.7835 23.8872 42.5245 24.0184 43.1142 24.4611C43.7027 24.9038 44.0322 25.5781 44.018 26.3117L43.8414 35.0311C43.8312 35.5338 43.9144 35.9862 44.0897 36.3755C44.6632 37.6509 45.0371 38.9697 45.2031 40.2981C45.3671 40.6772 45.507 41.0604 45.6281 41.4464L50.403 40.5047C50.8736 40.4115 51.3389 40.7169 51.434 41.1892C51.5282 41.661 51.2194 42.1195 50.7443 42.2131L46.0093 43.1471C46.0888 43.6789 46.1431 44.2127 46.1431 44.7498C46.1431 45.7547 46.0028 46.7356 45.7381 47.6846L50.7442 48.6717C51.2198 48.7661 51.5289 49.2241 51.4347 49.696H51.435ZM44.3897 44.7498C44.3897 44.327 44.3493 43.9061 44.2906 43.4861L40.4826 44.237C40.4251 44.2483 40.368 44.2536 40.3109 44.2536C39.9011 44.2536 39.5348 43.9669 39.4516 43.5521C39.3574 43.0802 39.6661 42.6222 40.1413 42.5282L43.8975 41.7878C43.7955 41.4832 43.6797 41.1807 43.5463 40.881C43.5104 40.7999 43.4868 40.7145 43.4774 40.6266C43.3408 39.4314 43.008 38.2401 42.4892 37.0859C42.2082 36.4601 42.0736 35.7575 42.0891 34.9964L42.2657 26.2773C42.2702 26.0461 42.1373 25.9108 42.0573 25.8504C41.9774 25.7905 41.8102 25.7006 41.5879 25.7674L32.5613 28.4916C32.3933 28.543 32.2147 28.5422 32.047 28.4904C27.9716 27.2372 23.483 27.2376 19.4077 28.4908C19.2405 28.5418 19.061 28.543 18.8934 28.492L9.86682 25.7678C9.81095 25.7512 9.75833 25.7439 9.71021 25.7439C9.56584 25.7439 9.45695 25.8059 9.3974 25.8508C9.31747 25.9108 9.18451 26.0461 9.189 26.2778L9.36559 34.996C9.38068 35.7578 9.2461 36.4605 8.9651 37.0855C8.44592 38.2422 8.11396 39.4335 7.97855 40.6266C7.96876 40.7149 7.9447 40.8011 7.90881 40.8821C7.77505 41.1819 7.65922 41.4844 7.55726 41.7886L11.313 42.529C11.7882 42.623 12.0969 43.0814 12.0023 43.5529C11.9195 43.9672 11.5529 44.2544 11.143 44.2544C11.0863 44.2544 11.0292 44.2491 10.9713 44.2378L7.16288 43.4869C7.10415 43.9065 7.06336 44.3277 7.06336 44.7506C7.06336 45.6392 7.19184 46.5072 7.4349 47.3464L10.9708 46.649C11.4467 46.557 11.9076 46.862 12.0018 47.3339C12.0964 47.8057 11.7873 48.2638 11.3126 48.3578L8.08132 48.9949C10.6058 54.1165 17.5598 57.8066 25.728 57.8066C33.8953 57.8066 40.849 54.116 43.3735 48.9945L40.1431 48.3574C39.668 48.2634 39.3593 47.8049 39.4535 47.3334C39.5481 46.8612 40.0147 46.557 40.4845 46.6485L44.02 47.3456C44.2622 46.506 44.3907 45.638 44.3907 44.7498L44.3897 44.7498ZM29.5641 49.4327H29.5515C28.5038 49.457 27.7358 49.193 27.2517 48.6757C26.9915 48.3983 26.8374 48.069 26.7428 47.7563L28.7823 45.0378C29.0099 44.7324 29.0454 44.3257 28.8753 43.9859C28.7032 43.6452 28.3533 43.431 27.9695 43.431L23.4829 43.4306C23.0991 43.4306 22.7492 43.6448 22.5771 43.9854C22.407 44.3253 22.4425 44.7319 22.6701 45.0374L24.7092 47.7555C24.6142 48.0682 24.4608 48.3975 24.2002 48.6753C23.7157 49.1925 22.936 49.4522 21.9005 49.4323C21.4168 49.4169 21.0179 49.8098 21.011 50.291C21.0041 50.7717 21.3911 51.1675 21.8756 51.1743C21.9127 51.1747 21.9494 51.1747 21.9866 51.1747C23.5017 51.1747 24.684 50.728 25.5004 49.8451C25.5816 49.7576 25.6566 49.6677 25.7264 49.5765C25.7961 49.6677 25.8711 49.7576 25.9523 49.8451C26.7692 50.728 27.9512 51.1747 29.4662 51.1747C29.5029 51.1747 29.54 51.1747 29.5771 51.1743C30.0612 51.1675 30.4483 50.7717 30.4417 50.291C30.434 49.8143 30.0429 49.4327 29.5641 49.4327ZM36.5075 42.31C37.0026 42.9807 39.4704 46.4145 39.4704 48.144C39.4704 50.1538 37.8237 51.7888 35.8004 51.7888C33.7767 51.7888 32.1303 50.1534 32.1303 48.144C32.1303 46.4145 34.5981 42.9807 35.0932 42.31C35.4228 41.862 36.1777 41.862 36.5076 42.31H36.5075ZM37.7163 48.144C37.7163 47.5174 36.8154 45.8633 35.8003 44.3477C34.7852 45.8646 33.8842 47.5187 33.8842 48.144C33.8842 49.1934 34.7435 50.0469 35.8003 50.0469C36.857 50.0469 37.7163 49.1935 37.7163 48.144Z" fill="#42AB10"/>
</svg>
