<svg xmlns="http://www.w3.org/2000/svg" width="35" height="35" viewBox="0 0 35 35" fill="none">
<path d="M17.4931 35C22.1628 35 26.5516 33.18 29.8589 29.8727C32.9269 26.8047 34.7366 22.7278 34.955 18.3909C34.9758 17.9645 34.6429 17.5901 34.2165 17.5693C33.7901 17.5485 33.4157 17.8813 33.3949 18.3077C33.1973 22.2494 31.5437 25.9623 28.7461 28.7599C25.7404 31.7655 21.7363 33.4296 17.4827 33.4296C13.229 33.4296 9.22495 31.7759 6.2193 28.7599C0.0103988 22.551 0.0103988 12.442 6.2193 6.23314C11.513 0.939459 19.7499 0.0554441 26.0108 4.03871L24.2532 6.19154L29.2973 5.68193L28.7877 0.637854L27.0092 2.82189C20.1139 -1.67098 10.9722 -0.724568 5.11688 5.13072C-1.70563 11.9532 -1.70563 23.0398 5.11688 29.8623C8.43453 33.18 12.8234 35 17.4931 35Z" fill="#586580"/>
<path d="M25.7394 13.9106C25.7394 13.9002 25.7394 13.8898 25.729 13.8898C25.729 13.869 25.7186 13.8586 25.7186 13.8378C25.7186 13.8274 25.7082 13.8066 25.7082 13.7962C25.7082 13.7858 25.6978 13.7754 25.6978 13.765C25.677 13.713 25.6562 13.6714 25.625 13.6298L22.3177 8.77289C22.1721 8.55449 21.9329 8.42969 21.6729 8.42969H13.2904C13.0304 8.42969 12.7912 8.55449 12.6456 8.77289L9.33833 13.6194C9.30713 13.661 9.28633 13.713 9.26553 13.7546C9.26553 13.765 9.25513 13.7754 9.25513 13.7858C9.24473 13.7962 9.24473 13.817 9.24473 13.8274C9.24473 13.8482 9.23433 13.8586 9.23433 13.8794C9.23433 13.8898 9.23433 13.9002 9.22393 13.9002C9.21353 13.9522 9.20312 14.0042 9.20312 14.0562V25.798C9.20312 26.2244 9.55673 26.578 9.98314 26.578H24.9698C25.3962 26.578 25.7498 26.2244 25.7498 25.798V14.0666C25.7498 14.0042 25.7498 13.9522 25.7394 13.9106ZM13.7064 9.98971H21.2569L23.4929 13.2762H11.46L13.7064 9.98971ZM24.1898 25.0284H10.7736V14.8466H24.2002V25.0284H24.1898Z" fill="#586580"/>
</svg>