<svg width="33" height="31" viewBox="0 0 33 31" fill="none" xmlns="http://www.w3.org/2000/svg">
<path d="M32.298 9.33732L29.2561 3.12092V0.655572C29.2561 0.293565 28.9732 0 28.624 0H3.74225C3.39318 0 3.1101 0.293565 3.1101 0.655572V3.12125L0.0683996 9.33732C0.0234531 9.42923 0 9.53091 0 9.63396V11.2467C0 13.1631 1.34675 14.7585 3.1101 15.0711V28.8451H2.46321C2.11407 28.8451 1.83105 29.1386 1.83105 29.5006C1.83105 29.8626 2.11407 30.1562 2.46321 30.1562H3.73739C3.73897 30.1562 3.74061 30.1565 3.74225 30.1565H21.0381H26.0955H28.6241H29.9031C30.2522 30.1565 30.5353 29.8629 30.5353 29.5009C30.5353 29.1389 30.2522 28.8453 29.9031 28.8453H29.2563V15.0711C31.0197 14.7585 32.3664 13.1632 32.3664 11.2467V9.63396C32.3664 9.53091 32.343 9.42923 32.298 9.33732ZM4.37441 1.31114H27.9918V2.62249H23.6478H18.6714H13.6951H8.71861H4.37441V1.31114ZM19.9223 9.56775L19.371 3.93363H23.1795L24.8817 9.73151V11.2467C24.8817 12.6637 23.7701 13.8164 22.4037 13.8164C21.0372 13.8164 19.9255 12.6637 19.9255 11.2467V9.63396C19.9255 9.61187 19.9244 9.58978 19.9223 9.56775ZM18.6612 9.66714V11.2467H18.6611C18.6611 12.6637 17.5496 13.8164 16.1833 13.8164C14.8169 13.8164 13.7051 12.6637 13.7051 11.2467V9.66714L14.2664 3.93363H18.1002L18.6612 9.66714ZM12.9956 3.9337L12.4441 9.56782C12.4419 9.58978 12.4408 9.61187 12.4408 9.63396V11.2467C12.4408 12.6637 11.3292 13.8164 9.96283 13.8164C8.59641 13.8164 7.48483 12.6637 7.48483 11.2467V9.73158L9.1871 3.9337H12.9956ZM1.26432 11.2467V9.79078L4.1304 3.93363H7.86539L6.24788 9.44299C6.22974 9.50488 6.22044 9.56926 6.22044 9.63396V11.2467C6.22044 12.6637 5.10873 13.8164 3.74225 13.8164C2.37591 13.8164 1.26432 12.6637 1.26432 11.2467ZM25.4633 28.8453H21.6703V26.8785V24.2562H22.3025C22.6516 24.2562 22.9347 23.9627 22.9347 23.6006C22.9347 23.2386 22.6516 22.945 22.3025 22.945H21.6703V18.3562H25.4633V28.8453ZM27.9918 28.8453H26.7275V17.7006C26.7275 17.3386 26.4445 17.045 26.0953 17.045H21.038H6.27095C5.92175 17.045 5.63879 17.3386 5.63879 17.7006V26.8785C5.63879 27.2405 5.92175 27.534 6.27095 27.534H20.406V28.8453H4.37441V15.0711C5.40445 14.8886 6.29232 14.2689 6.8526 13.4024C7.52471 14.4418 8.66785 15.1276 9.96276 15.1276C11.2577 15.1276 12.4007 14.4418 13.0729 13.4024C13.7451 14.4418 14.8883 15.1276 16.1832 15.1276C17.478 15.1276 18.6212 14.4419 19.2932 13.4024C19.9654 14.4419 21.1086 15.1276 22.4035 15.1276C23.6984 15.1276 24.8416 14.4418 25.5137 13.4024C26.074 14.2689 26.9618 14.8886 27.9918 15.0711V28.8453ZM13.0686 18.3562H15.2711L14.069 19.6025C13.8222 19.8585 13.8222 20.2736 14.069 20.5296C14.1924 20.6577 14.3542 20.7217 14.516 20.7217C14.6778 20.7217 14.8395 20.6577 14.9629 20.5297L17.0591 18.3562H20.4059V26.2229H6.90311V24.75L13.0686 18.3562ZM6.90311 22.8957V18.3562H11.2806L6.90311 22.8957ZM31.1021 11.2467C31.1021 12.6637 29.9904 13.8164 28.6241 13.8164C27.2577 13.8164 26.146 12.6637 26.146 11.2467V9.63396C26.146 9.56926 26.1368 9.50488 26.1186 9.44299L24.5011 3.93363H28.236L31.1021 9.79078V11.2467Z" fill="#586580"/>
</svg>
