<svg xmlns="http://www.w3.org/2000/svg" preserveAspectRatio="xMidYMid" width="35" height="35" viewBox="0 0 35 35"><defs><style>.cls-1{stroke:#000;stroke-width:1px;fill:none;opacity:.8}.cls-2{opacity:.8;fill:#000;fill-rule:evenodd}</style></defs><circle cx="17" cy="17" r="16" class="cls-1"/><path d="M23.283 13.298c.462.755 2.238 3.862 1.616 6.109-.932 3.364-3.556 4.085-5.71 4.218v.806a.557.557 0 0 1-.544.569H15.123a.557.557 0 0 1-.543-.569v-.807c-2.154-.133-4.774-.856-5.705-4.217-.623-2.247 1.153-5.354 1.615-6.109a18.844 18.844 0 0 0-.1-1.029c-.087-.744-.162-1.387.023-1.993a1.976 1.976 0 0 1 1.344-1.342 1.862 1.862 0 0 1 1.797.454l.691.655a8.088 8.088 0 0 1 2.638-.438 8.1 8.1 0 0 1 2.645.438l.691-.655a1.865 1.865 0 0 1 1.797-.454c.639.18 1.141.681 1.344 1.342.185.606.11 1.249.023 1.994-.038.326-.077.661-.1 1.028zm-5.852 10.564h.671v-1.446a2.585 2.585 0 0 1-.671-.126v1.572zm-1.764 0h.672v-1.577a2.466 2.466 0 0 1-.672.127v1.45zm6.637-11.731c.074-.636.133-1.14.02-1.508a.855.855 0 0 0-.59-.59.804.804 0 0 0-.785.198l-.931.882a.525.525 0 0 1-.556.111 7.044 7.044 0 0 0-2.573-.482 7.055 7.055 0 0 0-2.578.482.523.523 0 0 1-.555-.111l-.931-.882a.804.804 0 0 0-.786-.198.858.858 0 0 0-.591.59c-.112.368-.053.871.021 1.508.044.382.095.814.117 1.296a.596.596 0 0 1-.094.347c-.594.914-2.035 3.652-1.573 5.317.71 2.564 2.566 3.243 4.661 3.386v-.26a2.999 2.999 0 0 1-.713-.432.588.588 0 0 1-.103-.798.528.528 0 0 1 .763-.106c.143.114.281.2.415.26a1.41 1.41 0 0 0 1.343-.064l-.678-1.083a.397.397 0 0 1-.017-.393.41.41 0 0 1 .367-.219h1.851a.41.41 0 0 1 .367.219.4.4 0 0 1-.016.393l-.68 1.084.054.031c.284.151.749.287 1.297.034a2.02 2.02 0 0 0 .41-.259.529.529 0 0 1 .762.106.589.589 0 0 1-.1.798c-.24.192-.479.332-.713.431v.26c2.096-.143 3.954-.822 4.666-3.388.462-1.669-.979-4.404-1.574-5.317a.596.596 0 0 1-.094-.347c.022-.482.073-.914.117-1.296zm-2.721 4.571c-.506 0-.917-.43-.917-.959 0-.53.411-.96.917-.96s.917.43.917.96c0 .529-.411.959-.917.959zm-5.398 0c-.506 0-.918-.43-.918-.959 0-.53.412-.96.918-.96.505 0 .916.43.916.96 0 .529-.411.959-.916.959z" class="cls-2"/></svg>