<svg viewBox="0 0 34 34" xmlns="http://www.w3.org/2000/svg" fill-rule="evenodd" clip-rule="evenodd" stroke-linejoin="round" stroke-miterlimit="1.414"><path d="M17.5 34C8.4 34 1 26.6 1 17.5S8.4 1 17.5 1 34 8.4 34 17.5 26.6 34 17.5 34zm0-32C9 2 2 9 2 17.5S9 33 17.5 33 33 26 33 17.5 26 2 17.5 2zm5.473 6.308a.442.442 0 0 1 .137-.022h2.8a.449.449 0 1 1 0 .898h-2.352v.687h2.352a.449.449 0 1 1 0 .898h-2.352v.709h2.352a.448.448 0 1 1 0 .897h-2.352v.667h2.352a.449.449 0 1 1 0 .898h-2.352v.709h2.352a.448.448 0 1 1 0 .897h-2.352v.709h2.352a.449.449 0 1 1 0 .897h-2.352v.74h2.352a.448.448 0 1 1 0 .897h-2.352v.666h2.352a.449.449 0 1 1 0 .898h-2.352v.666h2.352a.449.449 0 1 1 0 .898h-2.352v.709h2.352a.449.449 0 1 1 0 .897h-2.352v.709h2.352a.449.449 0 1 1 0 .898h-2.352v.739h2.352a.449.449 0 1 1 0 .898h-2.782a4.436 4.436 0 0 1-.295.009c-.616 0-1.989-.11-2.973-1.008-.711-.65-1.071-1.565-1.071-2.721V11.322c0-.03.048-2.952 4.184-3.014zm-10.356 6.373l2.49-5.286.375.12c.038.013.943.312 1.339 1.23.304.704.225 1.549-.234 2.512a454.4 454.4 0 0 0-2.299 4.95l1.155 2.438c1.61.135 2.831 1.438 2.831 3.019a3.048 3.048 0 0 1-3.052 3.037c-1.1 0-2.066-.582-2.603-1.454a3.035 3.035 0 0 1-5.627-1.583 3.04 3.04 0 0 1 2.821-3.028l1.137-2.413a501.624 501.624 0 0 0-2.32-4.966c-.461-.96-.541-1.805-.237-2.509.398-.921 1.309-1.22 1.347-1.233l.374-.119 2.503 5.285zm10.044-5.465c-2.939.171-2.974 2.024-2.974 2.106v11.725c0 .892.261 1.582.775 2.055.677.62 1.653.752 2.199.773V9.216zM11.44 19.286l-1.057 2.245-.38-.007c-1.154.001-2.113.961-2.113 2.14 0 1.18.959 2.14 2.139 2.14 1.18 0 2.139-.96 2.139-2.14 0-.839-.442-1.41-.446-1.415l-.17-.216.573-1.26-.178-.386-.507-1.101zm1.672 1.485l.464 1.011.116.253-.176.217a2.47 2.47 0 0 0-.447 1.412c0 1.18.966 2.14 2.153 2.14a2.15 2.15 0 0 0 2.154-2.14 2.15 2.15 0 0 0-2.154-2.139h-.284l-.19-.251-5.077-10.717a1.318 1.318 0 0 0-.457.556c-.192.454-.117 1.045.225 1.756a418.616 418.616 0 0 1 2.009 4.295l.008-.016 1.663 3.608-.007.015zm-3.016 4.427a1.54 1.54 0 0 1-1.538-1.539c0-.848.69-1.539 1.538-1.539.849 0 1.54.691 1.54 1.539s-.691 1.539-1.54 1.539zm5.073 0a1.544 1.544 0 0 1-1.545-1.539c0-.848.693-1.539 1.545-1.539s1.545.691 1.545 1.539-.693 1.539-1.545 1.539zm-5.073-2.18a.642.642 0 1 0 .001 1.283.642.642 0 0 0-.001-1.283zm5.073 0a.645.645 0 0 0-.648.641c0 .354.291.642.648.642a.646.646 0 0 0 .648-.642.645.645 0 0 0-.648-.641zm-2.585-1.091l.035.061.036-.061-.036-.077-.035.077zm.538-6.211l.671 1.417c.742-1.61 1.506-3.26 1.984-4.263.341-.713.416-1.306.224-1.76a1.33 1.33 0 0 0-.45-.551l-2.429 5.157z"/></svg>