<svg xmlns="http://www.w3.org/2000/svg" preserveAspectRatio="xMidYMid" width="34" height="35" viewBox="0 0 34 35"><defs><style>.cls-1{fill:#000;fill-rule:evenodd}.cls-2{stroke:#000;stroke-width:1px;fill:none}</style></defs><path d="M23.412 13.99h-3.655v-3.765a.59.59 0 0 0-.582-.598h-4.21a.59.59 0 0 0-.581.598v3.765h-3.655a.591.591 0 0 0-.582.599v4.337a.59.59 0 0 0 .582.599h3.655v3.765c0 .331.26.599.581.599h4.21a.59.59 0 0 0 .582-.599v-3.765h3.655a.59.59 0 0 0 .581-.599v-4.337a.59.59 0 0 0-.581-.599zm-.582 4.337h-3.655a.59.59 0 0 0-.581.599v3.765h-3.047v-3.765a.59.59 0 0 0-.582-.599h-3.654v-3.139h3.654a.59.59 0 0 0 .582-.599v-3.765h3.047v3.765c0 .331.26.599.581.599h3.655v3.139z" class="cls-1"/><circle cx="17" cy="18" r="16" class="cls-2"/></svg>