<svg xmlns="http://www.w3.org/2000/svg" preserveAspectRatio="xMidYMid" width="34" height="35" viewBox="0 0 34 35"><defs><style>.cls-1{fill:#000;fill-rule:evenodd}.cls-2{stroke:#000;stroke-width:1px;fill:none}</style></defs><path d="M24.397 23.859c-.102.034-1.584.52-3.428.52-1.25 0-2.666-.223-3.933-.961a5.989 5.989 0 0 1-1.426-1.155.417.417 0 0 1-.127-.002c-.322-.053-1.274-.106-1.805.287a.466.466 0 0 1-.654-.098.47.47 0 0 1 .098-.656c.254-.189.546-.31.838-.386-2.769-1.433-3.125-3.771-3.132-4.837-.386-.009-.837-.066-1.175-.244a2.87 2.87 0 0 0-.102.188.469.469 0 0 1-.422.268l-.027-.001a.47.47 0 0 1-.416-.315c-.334-.967-.313-1.804.061-2.485.329-.599.857-.924 1.221-1.087-.078-1.213.321-3.104 2.35-3.553.813-.179 1.573-.212 2.242-.241 1.513-.065 2.262-.144 2.749-1.206a.469.469 0 0 1 .886.118c.019.113.106.687.027 1.335.356-.316.667-.689.785-1.081a.467.467 0 1 1 .91.065c.018.119.428 2.933-1.335 3.953-.123.072-.24.138-.351.201-.518.293-.926.524-.983.734-.073.267.241.853.397 1.129.499.404 3.229 2.735 3.746 5.728.464 2.687 2.788 2.863 2.887 2.869a.47.47 0 0 1 .119.913zm-13.318-8.228a.88.88 0 0 0 .11-.661c-.373.082-.696.319-.955.584.201.051.524.082.845.077zm-.602-1.932c-.209.076-.668.288-.915.744-.103.19-.16.405-.173.646.367-.422.875-.851 1.515-1.017a.804.804 0 0 0-.427-.373zm9.992 6.538c-.494-2.863-3.442-5.183-3.472-5.206l-.004-.004a.407.407 0 0 1-.069-.069.415.415 0 0 1-.046-.064l-.002-.004c-.429-.749-.683-1.361-.531-1.918.161-.587.692-.888 1.426-1.304l.344-.196c.537-.311.769-.943.862-1.547a7.15 7.15 0 0 1-1.656 1.148.469.469 0 0 1-.49-.792c.236-.187.365-.51.429-.853-.739.528-1.681.569-2.66.611-.662.028-1.347.058-2.081.22-1.598.353-1.658 1.958-1.614 2.604.727.325.992 1.024 1.042 1.469a1.85 1.85 0 0 1-.177 1.945c-.055.546-.12 2.969 2.772 4.373a9.201 9.201 0 0 1-.708-2.189.47.47 0 0 1 .367-.552c.252-.05.5.115.55.369.405 2.043 1.331 3.5 2.754 4.329 1.648.959 3.652.911 5.015.712-.85-.49-1.76-1.399-2.051-3.082zm-.447 2.721a.471.471 0 0 1-.195-.043c-3.108-1.428-4.147-4.207-4.189-4.325a.468.468 0 1 1 .878-.322c.01.026.96 2.535 3.701 3.794a.469.469 0 0 1-.195.896zm-.286-2.407a.46.46 0 0 1-.274-.09c-1.274-.927-1.588-2.141-1.601-2.193a.47.47 0 0 1 .34-.569.47.47 0 0 1 .567.339c.005.021.263.95 1.243 1.664a.47.47 0 0 1-.275.849zm-6.688-6.935a.793.793 0 0 1 0-1.587.794.794 0 0 1 0 1.587z" class="cls-1"/><circle cx="17" cy="17" r="16" class="cls-2"/></svg>