<svg viewBox="0 0 34 34" xmlns="http://www.w3.org/2000/svg" fill-rule="evenodd" clip-rule="evenodd" stroke-linejoin="round" stroke-miterlimit="1.414"><path d="M17.5 34C8.4 34 1 26.6 1 17.5S8.4 1 17.5 1 34 8.4 34 17.5 26.6 34 17.5 34zm5.398-31.017c-.726 4.233-2.077 7.094-4.027 8.537a1.946 1.946 0 0 1-.283 1.766l2.163-.723c.289-.555 1.191-2.07 2.623-2.527a4.189 4.189 0 0 1 5.264 2.705 4.21 4.21 0 0 1-.126 2.889 4.142 4.142 0 0 1 1.774 2.274 4.195 4.195 0 0 1-2.721 5.263c-1.456.46-3.187-.518-3.793-.906l-6.586 2.199c-.394.637-1.758 2.686-3.248 3.162a4.19 4.19 0 0 1-5.262-2.705A4.182 4.182 0 0 1 8.8 22.03a4.128 4.128 0 0 1-1.776-2.279 4.152 4.152 0 0 1 .27-3.194 4.163 4.163 0 0 1 2.45-2.065c1.458-.465 3.735.117 4.357.293l2.342-.782a1.951 1.951 0 0 1-1.334-1.394c-4.275-.242-8.6-4.482-9.318-5.218C3.433 10.114 2 13.653 2 17.5 2 26 9 33 17.5 33S33 26 33 17.5c0-6.605-4.227-12.305-10.102-14.517zm-11.83 12.332c-.377 0-.73.037-1.021.13a3.17 3.17 0 0 0-1.865 1.572 3.155 3.155 0 0 0-.205 2.429 3.147 3.147 0 0 0 1.693 1.919l.493.229-.269.471a3.144 3.144 0 0 0-.266 2.546 3.185 3.185 0 0 0 4.006 2.058c1.109-.354 2.389-2.197 2.789-2.878l.095-.162 7.415-2.476.208.151c.509.368 2.063 1.247 3.12.91a3.194 3.194 0 0 0 2.073-4.005 3.16 3.16 0 0 0-1.693-1.914l-.493-.229.269-.472a3.156 3.156 0 0 0 .268-2.549 3.192 3.192 0 0 0-4.006-2.057c-1.3.415-2.109 2.172-2.117 2.189l-.09.199-7.356 2.458-.154-.047c-.523-.162-1.805-.472-2.894-.472zm5.208 6.633a.499.499 0 0 1-.159-.974l6.594-2.204a.502.502 0 0 1 .316.95l-6.592 2.203a.522.522 0 0 1-.159.025zm-.589-1.844a.499.499 0 0 1-.158-.974l6.594-2.203a.5.5 0 0 1 .316.948l-6.593 2.204a.489.489 0 0 1-.159.025zm-.412-1.861a.5.5 0 0 1-.159-.974l6.594-2.204a.5.5 0 1 1 .316.948l-6.592 2.204a.524.524 0 0 1-.159.026zm2.692-6.173c-.246.12-.502.22-.766.301a5.582 5.582 0 0 1-1.037.212.942.942 0 0 0 .362.374.964.964 0 0 0 1.315-.35.952.952 0 0 0 .126-.537zm3.973-9.412A15.255 15.255 0 0 0 17.5 2C13.203 2 9.29 3.789 6.471 6.657c.499.51 4.72 4.695 8.645 4.95a1.973 1.973 0 0 1 1.387-1.378 1.951 1.951 0 0 1 1.827.447c1.729-1.313 2.94-3.999 3.61-8.018zm-4.558 8.581a.941.941 0 0 0-.621-.043.952.952 0 0 0-.536.371 4.497 4.497 0 0 0 1.157-.328z"/></svg>