<svg width="291" height="290" viewBox="0 0 291 290" fill="none" xmlns="http://www.w3.org/2000/svg">
<path fill-rule="evenodd" clip-rule="evenodd" d="M63.8217 6.06752C82.2849 -15.8875 118.98 -23.7164 145.986 -14.022C173.747 -4.05673 184.728 29.0754 199.335 54.7122C209.232 72.0816 204.558 95.389 217.167 110.902C235.784 133.806 276.741 135.059 287.105 162.697C296.827 188.622 281.794 218.747 266.174 241.588C250.564 264.416 227.768 286.472 200.298 289.638C172.964 292.788 152.242 264.847 125.642 257.785C105.347 252.397 82.724 262.7 63.8846 253.42C44.192 243.721 30.5825 225.037 20.0442 205.773C9.15473 185.867 -4.08379 162.912 2.49817 141.206C9.17313 119.193 43.7521 117.19 53.2564 96.2453C65.9766 68.214 44.0132 29.6223 63.8217 6.06752Z" fill="#E7ECE7"/>
</svg>
