<svg xmlns="http://www.w3.org/2000/svg" preserveAspectRatio="xMidYMid" width="14.03" height="13.063" viewBox="0 0 14.03 13.063"><defs><style>.cls-1{fill-rule:evenodd}</style></defs><path d="M.015 3.063C.015 1.404 1.437.01 3.232.01c1.778 0 3.217 1.394 3.217 3.053 0 1.694-1.439 3.035-3.217 3.035-1.795 0-3.217-1.341-3.217-3.035zM10.538.222h2.702L3.428 12.839H.725L10.538.222zM4.21 3.045c0-.494-.445-.918-.978-.918-.533 0-.978.424-.978.918 0 .53.445.935.978.935.533 0 .978-.405.978-.935zm6.613 3.918c1.778 0 3.217 1.394 3.217 3.053 0 1.694-1.439 3.034-3.217 3.034-1.796 0-3.218-1.34-3.218-3.034 0-1.659 1.422-3.053 3.218-3.053zm0 3.97c.533 0 .977-.405.977-.935 0-.494-.444-.918-.977-.918-.534 0-.978.424-.978.918 0 .53.444.935.978.935z" class="cls-1"/></svg>