<svg width="26" height="27" viewBox="0 0 26 27" fill="none" xmlns="http://www.w3.org/2000/svg">
<path d="M25.9837 8.15415C25.9837 8.13868 25.9837 8.12321 25.9673 8.12321C25.9673 8.09226 25.951 8.07679 25.951 8.04585C25.951 8.03037 25.9346 7.99943 25.9346 7.98395C25.9346 7.96848 25.9183 7.95301 25.9183 7.93754C25.8856 7.86017 25.8529 7.79828 25.8039 7.73639L20.6072 0.510602C20.3784 0.185674 20.0025 0 19.594 0H6.42238C6.01383 0 5.63796 0.185674 5.40918 0.510602L0.212445 7.72092C0.16342 7.78281 0.130736 7.86017 0.0980525 7.92206C0.0980525 7.93753 0.0817096 7.95301 0.0817096 7.96848C0.0653677 7.98395 0.0653692 8.0149 0.0653692 8.03037C0.0653692 8.06132 0.0490263 8.07679 0.0490263 8.10774C0.0490263 8.12321 0.0490278 8.13868 0.0326858 8.13868C0.0163439 8.21605 0 8.29341 0 8.37077V25.8395C0 26.4739 0.555625 27 1.22564 27H24.7744C25.4444 27 26 26.4739 26 25.8395V8.38625C26 8.29341 26 8.21605 25.9837 8.15415ZM7.07605 2.32092H18.9403L22.4538 7.21032H3.5462L7.07605 2.32092ZM23.5487 24.6946H2.46763V9.5467H23.5651V24.6946H23.5487Z" fill="#586580"/>
</svg>
