<?xml version="1.0" encoding="utf-8"?>
<!-- Generator: Adobe Illustrator 15.1.0, SVG Export Plug-In . SVG Version: 6.00 Build 0)  -->
<!DOCTYPE svg PUBLIC "-//W3C//DTD SVG 1.1//EN" "http://www.w3.org/Graphics/SVG/1.1/DTD/svg11.dtd">
<svg version="1.1" id="Layer_1" xmlns="http://www.w3.org/2000/svg" xmlns:xlink="http://www.w3.org/1999/xlink" x="0px" y="0px"
	 width="36.023px" height="36px" viewBox="0 0 36.023 36" enable-background="new 0 0 36.023 36" xml:space="preserve">
<path fill="#010101" d="M19.819,0.068c-0.979-0.115-2.795-0.063-3.615,0C7.118,0.978,0,8.667,0,17.989
	c0,1.892,0.295,3.716,0.838,5.43c0.005,0.015,0.009,0.026,0.015,0.041c0.917,2.87,2.537,5.427,4.653,7.474
	c0.034,0.051,0.077,0.098,0.136,0.131c0,0,0.001,0,0.002,0C8.873,34.12,13.225,36,18.01,36c8.188,0,15.113-5.494,17.294-12.986
	c0.058-0.156,0.082-0.261,0.087-0.285c0.001-0.006-0.001-0.014,0-0.021c0.408-1.505,0.632-3.086,0.632-4.719
	C36.023,8.667,28.905,0.978,19.819,0.068z M18.01,0.804c9.477,0,17.187,7.709,17.187,17.185c0,1.655-0.24,3.255-0.68,4.771
	c-0.014,0.034-0.028,0.072-0.046,0.113h-3.815c1.42-1.03,1.806-2.781,2.045-3.879c0.03-0.134-0.009-0.272-0.104-0.372
	c-0.096-0.1-0.233-0.146-0.367-0.123c-2.577,0.434-3.754,1.506-4.281,2.503c-0.527-0.997-1.704-2.069-4.281-2.503
	c-0.123-0.021-0.247,0.018-0.339,0.1c-0.093-0.082-0.218-0.121-0.34-0.1c-2.05,0.344-3.212,1.094-3.868,1.889v-0.984
	c2.988-0.275,3.823-2.517,4.208-4.099c0.396,1.631,1.263,3.972,4.485,4.126c0.009,0,0.018,0,0.024,0
	c0.041,0,0.075-0.009,0.109-0.018c0.034,0.009,0.068,0.018,0.109,0.018c0.009,0,0.017,0,0.024,0l0,0
	c3.627-0.174,4.271-3.122,4.617-4.705c0.029-0.134-0.01-0.274-0.104-0.373c-0.096-0.1-0.233-0.145-0.368-0.123
	c-2.576,0.432-3.753,1.505-4.28,2.502c-0.528-0.998-1.704-2.07-4.281-2.502c-0.123-0.021-0.247,0.018-0.34,0.1
	c-0.093-0.082-0.217-0.12-0.339-0.1c-2.05,0.344-3.212,1.093-3.868,1.888v-5.965c0-2.268-1.845-4.113-4.113-4.113
	s-4.112,1.845-4.112,4.113v12.155l-1.267-1.268c-0.161-0.161-0.423-0.161-0.584,0c-0.162,0.162-0.162,0.423,0,0.584l1.249,1.249
	H6.396l1.283-1.283c0.16-0.161,0.16-0.422,0-0.584c-0.162-0.161-0.424-0.161-0.584,0l-1.696,1.696l-1.662-1.662
	c-0.162-0.161-0.423-0.161-0.584,0c-0.161,0.162-0.161,0.423,0,0.584l1.249,1.249H1.538c-0.46-1.55-0.711-3.188-0.711-4.885
	C0.826,8.513,8.536,0.804,18.01,0.804z M13.57,21.007c-0.162-0.161-0.423-0.161-0.584,0l-1.265,1.267v-12.12
	c0-1.813,1.475-3.287,3.286-3.287c1.813,0,3.287,1.475,3.287,3.287v5.965c-0.655-0.794-1.817-1.543-3.868-1.887
	c-0.135-0.022-0.272,0.023-0.366,0.123c-0.096,0.099-0.135,0.239-0.104,0.373c0.337,1.541,0.964,4.366,4.339,4.676v0.984
	c-0.655-0.795-1.817-1.545-3.868-1.889c-0.135-0.023-0.272,0.023-0.366,0.123c-0.096,0.1-0.135,0.238-0.104,0.372
	c0.24,1.098,0.625,2.849,2.045,3.879h-3.714l1.283-1.282C13.731,21.43,13.731,21.169,13.57,21.007z M19.474,21.334
	c0.511-0.896,1.553-1.547,3.032-1.896c-0.427,1.668-1.158,3.174-3.377,3.412C19.102,22.529,19.128,21.941,19.474,21.334z
	 M14.908,19.438c1.481,0.351,2.524,0.998,3.034,1.896c0.345,0.607,0.372,1.195,0.343,1.516
	C16.068,22.613,15.335,21.105,14.908,19.438z M18.285,18.581c-2.217-0.236-2.95-1.743-3.377-3.411
	c1.481,0.349,2.524,0.999,3.034,1.896C18.287,17.674,18.313,18.262,18.285,18.581z M23.329,19.573
	c0.259,1.067,0.721,2.437,1.912,3.301h-3.825C22.607,22.01,23.069,20.641,23.329,19.573z M28.714,21.335
	c0.512-0.897,1.554-1.547,3.034-1.896c-0.427,1.668-1.16,3.175-3.377,3.41C28.343,22.529,28.37,21.941,28.714,21.335z M27.526,22.85
	c-2.218-0.236-2.95-1.742-3.377-3.41c1.479,0.349,2.522,0.998,3.033,1.896C27.528,21.941,27.554,22.529,27.526,22.85z
	 M19.474,17.066c0.511-0.897,1.553-1.547,3.032-1.896c-0.427,1.668-1.158,3.174-3.377,3.411
	C19.102,18.261,19.128,17.673,19.474,17.066z M24.149,15.17c1.479,0.349,2.522,0.999,3.033,1.896
	c0.346,0.607,0.372,1.195,0.344,1.515C25.308,18.344,24.576,16.838,24.149,15.17z M28.714,17.066
	c0.512-0.898,1.554-1.547,3.034-1.896c-0.427,1.668-1.16,3.175-3.378,3.411C28.343,18.262,28.37,17.674,28.714,17.066z M1.806,23.7
	h9.501h7.282c0.003,0,0.006,0,0.009,0c0.001,0,0.001,0,0.002,0h0.106h0.108h0.001c0.005,0,0.012,0,0.018,0h8.999
	c0.002,0,0.004,0,0.006,0c0.001,0,0.001,0,0.001,0h0.218h0.001c0.003,0,0.006,0,0.009,0h5.896c-0.81,0.995-2.626,2.258-6.602,2.134
	c-7.682-0.232-15.438-0.309-18.501,1.503c-1.646,0.974-2.623,2.104-3.072,2.716C4.028,28.271,2.657,26.107,1.806,23.7z
	 M18.01,35.174c-4.479,0-8.562-1.724-11.623-4.541c0.361-0.51,1.279-1.632,2.893-2.585c3.116-1.841,12.468-1.558,18.056-1.388
	c3.183,0.096,5.12-0.651,6.296-1.52C30.913,31.055,24.936,35.174,18.01,35.174z"/>
</svg>
