<?xml version="1.0" encoding="utf-8"?>
<!-- Generator: Adobe Illustrator 15.1.0, SVG Export Plug-In . SVG Version: 6.00 Build 0)  -->
<!DOCTYPE svg PUBLIC "-//W3C//DTD SVG 1.1//EN" "http://www.w3.org/Graphics/SVG/1.1/DTD/svg11.dtd">
<svg version="1.1" id="Layer_1" xmlns="http://www.w3.org/2000/svg" xmlns:xlink="http://www.w3.org/1999/xlink" x="0px" y="0px"
	 width="36px" height="36px" viewBox="0 0 36 36" enable-background="new 0 0 36 36" xml:space="preserve">
<g>
	<path fill="#030303" d="M17.994,36.065c-9.925,0-18-8.074-18-18c0-9.925,8.075-18,18-18c9.924,0,18,8.075,18,18
		C35.994,27.991,27.918,36.065,17.994,36.065z M17.994,1.065c-9.374,0-17,7.626-17,17s7.626,17,17,17c9.375,0,17-7.626,17-17
		S27.369,1.065,17.994,1.065z"/>
</g>
<g>
	<g>
		<g>
			<path d="M25.018,17.568c-0.106-0.167-0.329-0.215-0.495-0.109c-0.167,0.108-0.215,0.329-0.108,0.496
				c0.813,1.267,1.243,2.742,1.243,4.264c0,2.006-0.738,3.544-2.197,4.573c-1.315,0.928-3.206,1.418-5.466,1.418
				c-2.26,0-4.15-0.49-5.465-1.418c-1.458-1.029-2.198-2.567-2.198-4.573c0-4.304,3.438-7.808,7.663-7.808
				c2.007,0,3.905,0.785,5.344,2.211c0.14,0.139,0.367,0.138,0.506-0.001c0.14-0.141,0.139-0.368-0.002-0.507
				c-1.573-1.561-3.649-2.418-5.848-2.418c-4.62,0-8.38,3.824-8.38,8.522c0,1.146,0.226,2.174,0.669,3.055
				c0.42,0.834,1.036,1.542,1.833,2.104c1.438,1.014,3.471,1.551,5.878,1.551c2.409,0,4.44-0.537,5.879-1.551
				c0.796-0.562,1.412-1.27,1.832-2.104c0.443-0.881,0.668-1.909,0.668-3.055C26.373,20.561,25.904,18.951,25.018,17.568z"/>
		</g>
	</g>
	<g>
		<g>
			<path d="M10.343,12.78c-0.521-0.64-1.196-0.994-1.898-0.994c-0.704,0-1.377,0.354-1.899,0.994
				c-0.477,0.588-0.751,1.331-0.751,2.038c0,1.461,1.189,2.65,2.65,2.65s2.649-1.189,2.649-2.65
				C11.095,14.111,10.821,13.368,10.343,12.78z M8.445,16.751c-1.066,0-1.934-0.867-1.934-1.933c0-1.049,0.862-2.315,1.934-2.315
				c1.071,0,1.933,1.266,1.933,2.315C10.378,15.885,9.512,16.751,8.445,16.751z"/>
		</g>
	</g>
	<g>
		<g>
			<path d="M16.072,8.198c-0.521-0.641-1.195-0.995-1.897-0.995c-0.703,0-1.377,0.354-1.899,0.995
				c-0.478,0.586-0.751,1.33-0.751,2.037c0,1.461,1.189,2.65,2.65,2.65c1.46,0,2.649-1.189,2.649-2.65
				C16.824,9.527,16.551,8.784,16.072,8.198z M14.175,12.169c-1.066,0-1.934-0.868-1.934-1.935c0-1.048,0.863-2.314,1.934-2.314
				c1.071,0,1.934,1.266,1.934,2.314C16.108,11.301,15.24,12.169,14.175,12.169z"/>
		</g>
	</g>
	<g>
		<g>
			<path d="M29.442,12.78c-0.521-0.64-1.196-0.994-1.899-0.994c-0.702,0-1.376,0.354-1.898,0.994
				c-0.478,0.588-0.751,1.331-0.751,2.038c0,1.461,1.189,2.65,2.649,2.65c1.462,0,2.65-1.189,2.65-2.65
				C30.193,14.111,29.92,13.368,29.442,12.78z M27.543,16.751c-1.065,0-1.934-0.867-1.934-1.933c0-1.049,0.862-2.315,1.934-2.315
				c1.072,0,1.935,1.266,1.935,2.315C29.478,15.885,28.609,16.751,27.543,16.751z"/>
		</g>
	</g>
	<g>
		<g>
			<path d="M23.713,8.198c-0.522-0.641-1.196-0.995-1.898-0.995c-0.703,0-1.378,0.354-1.899,0.995
				c-0.478,0.586-0.751,1.33-0.751,2.037c0,1.461,1.189,2.65,2.65,2.65c1.46,0,2.649-1.189,2.649-2.65
				C24.464,9.527,24.19,8.784,23.713,8.198z M21.814,12.169c-1.066,0-1.935-0.868-1.935-1.935c0-1.048,0.862-2.314,1.935-2.314
				c1.071,0,1.934,1.266,1.934,2.314C23.748,11.301,22.88,12.169,21.814,12.169z"/>
		</g>
	</g>
	<g>
		<g>
			<path d="M21.432,19.809h-1.933v-1.934c0-0.198-0.161-0.359-0.359-0.359h-2.292c-0.197,0-0.358,0.161-0.358,0.359v1.934h-1.934
				c-0.197,0-0.358,0.159-0.358,0.358v2.292c0,0.197,0.161,0.357,0.358,0.357h1.934v1.935c0,0.197,0.161,0.357,0.358,0.357h2.292
				c0.198,0,0.359-0.16,0.359-0.357v-1.935h1.933c0.198,0,0.359-0.16,0.359-0.357v-2.292C21.791,19.968,21.63,19.809,21.432,19.809z
				 M21.073,22.101H19.14c-0.197,0-0.358,0.159-0.358,0.358v1.933h-1.575v-1.933c0-0.199-0.161-0.358-0.358-0.358h-1.933v-1.576
				h1.933c0.197,0,0.358-0.16,0.358-0.357v-1.935h1.575v1.935c0,0.197,0.161,0.357,0.358,0.357h1.934V22.101z"/>
		</g>
	</g>
</g>
</svg>
