<?xml version="1.0" encoding="UTF-8" standalone="no"?>
<svg
   width="26"
   height="26"
   viewBox="0 0 26 26"
   fill="none"
   version="1.1"
   id="svg14"
   sodipodi:docname="warning-red.svg"
   inkscape:version="1.1.2 (0a00cf5339, 2022-02-04)"
   xmlns:inkscape="http://www.inkscape.org/namespaces/inkscape"
   xmlns:sodipodi="http://sodipodi.sourceforge.net/DTD/sodipodi-0.dtd"
   xmlns="http://www.w3.org/2000/svg"
   xmlns:svg="http://www.w3.org/2000/svg">
  <defs
     id="defs18" />
  <sodipodi:namedview
     id="namedview16"
     pagecolor="#ffffff"
     bordercolor="#666666"
     borderopacity="1.0"
     inkscape:pageshadow="2"
     inkscape:pageopacity="0.0"
     inkscape:pagecheckerboard="0"
     showgrid="false"
     inkscape:zoom="9.0384615"
     inkscape:cx="-10.565957"
     inkscape:cy="4.2595745"
     inkscape:window-width="1304"
     inkscape:window-height="704"
     inkscape:window-x="0"
     inkscape:window-y="0"
     inkscape:window-maximized="1"
     inkscape:current-layer="svg14" />
  <g
     id="g406">
    <path
       style="color:#000000;fill:#a72755;-inkscape-stroke:none"
       d="M 13,0 C 5.8321501,0 0,5.8321501 0,13 0,20.16785 5.8321501,26 13,26 20.16785,26 26,20.16785 26,13 26,5.8321501 20.16785,0 13,0 Z m 0,2 C 19.086971,2 24,6.9130292 24,13 24,19.086971 19.086971,24 13,24 6.9130292,24 2,19.086971 2,13 2,6.9130292 6.9130292,2 13,2 Z"
       id="circle2" />
    <path
       d="M17.0019 15.9679L16.9644 15.8431L16.8895 15.6432L16.8395 15.5182L16.7021 15.2684L16.5147 15.031L16.2648 14.8062L15.9775 14.5438L15.7401 14.3189L15.5153 14.069L15.3279 13.8192L15.153 13.5569L14.9656 13.2071L14.8531 12.9697L14.7157 12.7073L14.5408 12.42L14.341 12.1576L14.2036 12.0202L14.0661 11.8953L13.8787 11.7579L13.6539 11.6579L13.3666 11.558L13.0792 11.5205H12.7794L12.492 11.558L12.0798 11.7079L11.68 11.9827L11.4176 12.2451L11.2552 12.4949L11.0928 12.7822L10.8804 13.2195L10.6805 13.6068L10.4557 13.9066L10.1809 14.2564L9.3688 15.006L9.29386 15.0684L9.1065 15.3308L8.95661 15.6306L8.86912 16.0054L8.81919 16.3427L8.80664 16.7175L8.84411 16.9674L8.95661 17.3172L9.11896 17.642L9.29385 17.8669L9.51877 18.0917L9.81855 18.2916L10.1683 18.454L10.4307 18.5165L10.8306 18.529L11.2178 18.4415L11.4552 18.3291L11.5551 18.2541L11.78 18.1292L11.9923 18.0043L12.1797 17.8919L12.3796 17.8044L12.542 17.7294L12.7294 17.6794L12.9293 17.667L13.1667 17.7044L13.3416 17.7419L13.6289 17.8793L13.9787 18.0542L14.2661 18.2417L14.5284 18.3916L14.7908 18.504L15.0406 18.554L15.253 18.5664L15.4279 18.554L15.7027 18.479L16.0525 18.3166L16.3023 18.1417L16.5647 17.8793L16.7521 17.6295L16.9145 17.2922L17.0145 16.9674L17.0519 16.6925V16.4052L17.0394 16.2428L17.0019 15.9679Z"
       fill="#A72755"
       id="path190" />
    <path
       d="M14.8614 7.32664C15.6023 7.40507 16.1125 8.32521 16.0008 9.3819C15.8889 10.4386 15.1976 11.2317 14.4565 11.1532C13.7155 11.0749 13.2054 10.1547 13.3171 9.09798C13.4289 8.04129 14.1203 7.2482 14.8614 7.32664Z"
       fill="#A72755"
       id="path180" />
    <path
       d="M12.5319 9.09308C12.6437 10.1498 12.1336 11.07 11.3925 11.1483C10.6515 11.2268 9.96019 10.4337 9.84838 9.377C9.73658 8.32032 10.2467 7.40018 10.9878 7.32174C11.7288 7.2434 12.4202 8.03649 12.5319 9.09308Z"
       fill="#A72755"
       id="path170" />
    <path
       d="M17.5752 10.3542C18.3025 10.5162 18.7061 11.4829 18.4767 12.5133C18.2471 13.5437 17.4715 14.2477 16.7441 14.0857C16.0168 13.9237 15.6132 12.957 15.8427 11.9266C16.0721 10.8963 16.8479 10.1922 17.5752 10.3542Z"
       fill="#A72755"
       id="path185" />
    <path
       d="M10.0098 11.9266C10.2393 12.957 9.83573 13.9237 9.10835 14.0857C8.38105 14.2477 7.60541 13.5436 7.37587 12.5133C7.14643 11.4829 7.54998 10.5162 8.27727 10.3542C9.00464 10.1922 9.7803 10.8963 10.0098 11.9266Z"
       fill="#A72755"
       id="path175" />
  </g>
</svg>
