<svg xmlns="http://www.w3.org/2000/svg" viewBox="0 0 20.2 26.1"><path d="M10.1 0C4.3 0 0 10.5 0 16c0 5.6 4.5 10.1 10.1 10.1S20.2 21.6 20.2 16c0-5.5-4.2-16-10.1-16zm0 24.1C5.6 24.1 2 20.4 2 16c0-1 .2-2.3.5-3.6l1.1 1.2.6.7.5-.7L6 12l1 2.3.2.5.3-.3 1.9-2.3-2 1.5-.7-2.8-.2-.8-.7.6L4.3 12l-1.2-1.8C4.6 6.1 7.2 2 10.1 2c4.3 0 8 9 8.1 13.7L15.6 18l-.9-2.1-.3-.8-.4.6-1.7 2.4 1.7-1.3.6 2.7.3 1.1 1-.7 2.1-1.5c-1.1 3.3-4.2 5.7-7.9 5.7z"/><path d="M10 18c-.8 0-1.2.4-1.2 1.3 0 .5.1.8.3 1 .2.2.5.3.9.3s.7-.1.9-.4c.2-.2.3-.6.3-1s-.1-.8-.3-1c-.3 0-.6-.2-.9-.2zm3.7-6.1c.3-.3.5-.7.6-1 .1-.4.2-.8.2-1.3 0-1.1-.3-1.9-1-2.5-.7-.6-1.7-.9-2.9-.9-1.4 0-2.7.3-3.9 1l.6 1.4c.6-.4 1.2-.6 1.6-.7s1-.2 1.5-.2c.8 0 1.4.2 1.8.5.4.3.6.8.6 1.5 0 .3 0 .6-.1.9-.1.3-.2.5-.5.8-.2.3-.7.7-1.4 1.3-.6.5-1 1-1.3 1.5-.2.5-.4 1.1-.4 1.9v.5h1.4v-.3c0-.6.1-1.1.3-1.4.2-.4.6-.8 1.3-1.4l1.6-1.6z"/></svg>