<svg xmlns="http://www.w3.org/2000/svg" width="31" height="13"><path fill-rule="evenodd" fill="#C22255" d="M31 8.961c0 2.527-1.878 4.036-5.024 4.036h-4.373a.499.499 0 01-.502-.495V.615c0-.273.225-.495.502-.495h4.373c2.802 0 4.542 1.381 4.542 3.604 0 .94-.355 1.815-.961 2.436C30.607 6.818 31 7.977 31 8.961zm-5.024-7.85h-3.87v10.896h3.87c1.501 0 4.02-.396 4.02-3.046 0-.409-.109-1.777-1.509-2.203a.497.497 0 01-.353-.474.55.55 0 01.249-.461c.687-.394 1.131-1.218 1.131-2.099 0-2.359-2.474-2.613-3.538-2.613zm-.079 9.41h-1.782a.499.499 0 01-.502-.496V7.549c0-.273.224-.495.502-.495h1.798c1.062 0 1.776.69 1.776 1.717 0 1.03-.737 1.75-1.792 1.75zm.016-2.477h-1.296V9.53h1.28c.71 0 .787-.531.787-.759 0-.332-.134-.727-.771-.727zm-.374-2.476h-1.424a.498.498 0 01-.502-.495V3.092c0-.274.224-.496.502-.496h1.376c.94 0 1.547.568 1.547 1.447 0 .898-.616 1.525-1.499 1.525zm-.048-1.981h-.874v.991h.922c.328 0 .495-.18.495-.535 0-.225-.065-.456-.543-.456zm-5.897 9.41h-8.289a.5.5 0 01-.494-.408 7.551 7.551 0 01-.142-1.358c0-2.944 2.131-4.384 3.686-5.436.765-.518 1.488-1.006 1.488-1.399 0-.628-.602-.677-.787-.677-.592 0-1.087.533-1.331.99a.508.508 0 01-.724.181l-2.176-1.436a.492.492 0 01-.167-.64c.94-1.786 2.64-2.81 4.666-2.81 2.21 0 4.588 1.287 4.588 4.111 0 2.543-2.034 3.805-3.519 4.725-.375.233-.755.469-1.036.69h4.237c.278 0 .502.222.502.495v2.477a.498.498 0 01-.502.495zm-.502-2.476H14.42a.503.503 0 01-.372-.163.487.487 0 01-.128-.381c.082-.824.942-1.357 1.938-1.975 1.429-.886 3.05-1.891 3.05-3.887 0-2.155-1.8-3.12-3.584-3.12-1.931 0-3.004 1.057-3.55 1.893l1.361.898c.436-.568 1.101-1.058 1.921-1.058.863 0 1.792.522 1.792 1.668 0 .914-.892 1.517-1.925 2.216-1.447.979-3.249 2.197-3.249 4.619 0 .232.019.484.06.776h7.358v-1.486zM4.88 12.997H.507a.499.499 0 01-.502-.495V.615C.005.342.23.12.507.12H4.88c2.802 0 4.543 1.381 4.543 3.604 0 .94-.356 1.815-.962 2.436 1.05.658 1.444 1.817 1.444 2.801 0 2.527-1.879 4.036-5.025 4.036zm2.408-7.174c.686-.394 1.13-1.218 1.13-2.099 0-2.359-2.474-2.613-3.538-2.613H1.01v10.896h3.87c1.501 0 4.02-.396 4.02-3.046 0-.409-.109-1.777-1.508-2.203a.497.497 0 01-.354-.474.55.55 0 01.25-.461zm-2.487 4.698H3.019a.499.499 0 01-.502-.496V7.549c0-.273.224-.495.502-.495h1.799c1.062 0 1.775.69 1.775 1.717 0 1.03-.737 1.75-1.792 1.75zm.017-2.477H3.521V9.53h1.28c.711 0 .787-.531.787-.759 0-.332-.134-.727-.77-.727zm-.375-2.476H3.019a.498.498 0 01-.502-.495V3.092c0-.274.224-.496.502-.496h1.377c.939 0 1.546.568 1.546 1.447 0 .898-.616 1.525-1.499 1.525zm-.047-1.981h-.875v.991h.922c.328 0 .495-.18.495-.535 0-.225-.065-.456-.542-.456z"/></svg>