<svg xmlns="http://www.w3.org/2000/svg" preserveAspectRatio="xMidYMid" width="32" height="27" viewBox="0 0 32 27"><path d="M32 5.142l-6.648 14.143H6.974L4.441 2.571H0V-.001h6.797l.788 5.143H32zM9.339 16.713h14.246l4.228-8.999H7.979l1.36 8.999zm1.536 5.144c1.502 0 2.719 1.151 2.719 2.571 0 1.42-1.217 2.571-2.719 2.571-1.502 0-2.719-1.151-2.719-2.571 0-1.42 1.217-2.571 2.719-2.571zm10.875 0c1.502 0 2.719 1.151 2.719 2.571 0 1.42-1.217 2.571-2.719 2.571-1.501 0-2.719-1.151-2.719-2.571 0-1.42 1.218-2.571 2.719-2.571z" class="cls-2" fill-rule="evenodd"/></svg>