<svg xmlns="http://www.w3.org/2000/svg" preserveAspectRatio="xMidYMid" width="89.406" height="89" viewBox="0 0 89.406 89"><ellipse cx="44.703" cy="44.5" rx="44.703" ry="44.5" fill="#78cd09"/><path d="M32.375 30.5H63v36.469H32.375z" fill="#c22255"/><path d="M27.25 25.438h30.656v36.438H27.25z" fill="#ffd625"/><path d="M61.549 68H32.978c-1.578 0-2.858-1.26-2.858-2.812v-2.813h-2.857c-1.577 0-2.857-1.26-2.857-2.812V25.812c0-1.552 1.28-2.812 2.857-2.812h28.572c1.577 0 2.857 1.26 2.857 2.812v2.813h2.857c1.577 0 2.857 1.26 2.857 2.812v33.751c0 1.552-1.28 2.812-2.857 2.812zm-5.714-42.188H27.263v33.751h28.572V25.812zm5.714 5.625h-2.857v28.126c0 1.552-1.28 2.812-2.857 2.812H32.978v2.813h28.571V31.437zm-30 8.438h20c.786 0 1.429.63 1.429 1.406a1.42 1.42 0 01-1.429 1.407h-20c-.789 0-1.428-.63-1.428-1.407 0-.776.64-1.406 1.428-1.406zm0 5.625h20c.786 0 1.429.63 1.429 1.406 0 .774-.643 1.407-1.429 1.407h-20a1.42 1.42 0 01-1.428-1.407c0-.776.64-1.406 1.428-1.406zm0 5.625h20c.786 0 1.429.633 1.429 1.406 0 .774-.643 1.407-1.429 1.407h-20a1.42 1.42 0 01-1.428-1.407c0-.773.64-1.406 1.428-1.406zm20-16.875H37.263c-.788 0-1.428-.63-1.428-1.406 0-.777.64-1.407 1.428-1.407h14.286c.786 0 1.429.63 1.429 1.407a1.42 1.42 0 01-1.429 1.406z" fill="#fff" fill-rule="evenodd"/></svg>