<svg xmlns="http://www.w3.org/2000/svg" preserveAspectRatio="xMidYMid" width="89.406" height="89" viewBox="0 0 89.406 89"><circle cx="44.703" cy="44.5" r="44.703" fill="#9465a8"/><path d="M43.419 61.028h-8.513s-8.104-2.554-7.663-4.238c.442-1.684 0-33.057 0-33.057s1.852-3.387 9.366-4.238c7.513-.851 13.621 1.695 13.621 1.695s4.635.287 4.257 5.086c-.378 4.798-.851 17.8-.851 17.8s5.28-.634 7.662.847c2.382 1.482 7.363 2.778 8.514 11.867 1.151 9.089-7.663 11.867-7.663 11.867s-8.8 2.494-13.621-1.696c-4.822-4.19-3.444-4.068-5.109-5.933z" fill="#fdb900" fill-rule="evenodd"/><path d="M56.275 71.199c-6.098 0-11.322-3.772-13.413-9.082-.688.033-1.385.05-2.082.05-3.656 0-7.109-.445-9.721-1.252-3.857-1.192-4.667-2.805-4.667-3.948V23.848c0-1.144.81-2.756 4.667-3.949 2.612-.807 6.065-1.252 9.721-1.252 3.657 0 7.109.445 9.722 1.252 3.856 1.193 4.666 2.805 4.666 3.949v18.927a15.02 15.02 0 011.107-.041c7.934 0 14.388 6.384 14.388 14.233 0 7.848-6.454 14.232-14.388 14.232zM28.606 56.967c0 .232.572 1.072 3.113 1.858 2.405.743 5.623 1.152 9.061 1.152.476 0 .953-.008 1.425-.024l-.016-.081a8.221 8.221 0 01-.069-.349l-.028-.157-.033-.198a11.26 11.26 0 01-.052-.359l-.023-.197a8.481 8.481 0 01-.053-.533l-.016-.229-.008-.14c-.005-.084-.008-.17-.011-.255l-.004-.116a15.38 15.38 0 01-.001-.706c-.37.009-.741.014-1.111.014-3.656 0-7.109-.445-9.721-1.252-1.016-.314-1.819-.658-2.453-1.014v2.586zm-.001-5.52c0 .232.573 1.072 3.114 1.858 2.405.743 5.623 1.153 9.061 1.153.446 0 .892-.008 1.335-.022a13.92 13.92 0 01.848-2.867l.05-.122.032-.074.114-.258.002-.002.025-.054a43.33 43.33 0 01-2.406.068c-1.683 0-3.33-.094-4.894-.279a1.097 1.097 0 01-.967-1.217 1.103 1.103 0 011.23-.957 39.54 39.54 0 004.631.264c1.274 0 2.53-.057 3.734-.169a14.25 14.25 0 014.295-3.968c-2.332.524-5.115.807-8.029.807-3.656 0-7.109-.445-9.721-1.253-1.016-.314-1.819-.657-2.453-1.014h-.001v8.106zm21.236-29.458c-2.404-.743-5.622-1.152-9.061-1.152-3.438 0-6.656.409-9.061 1.152-2.541.786-3.113 1.626-3.113 1.859 0 .232.572 1.072 3.113 1.858 2.405.743 5.623 1.153 9.061 1.153 3.439 0 6.657-.41 9.061-1.153 2.542-.786 3.114-1.626 3.114-1.858 0-.233-.572-1.073-3.114-1.859zm3.114 10.313c-.634.356-1.437.7-2.453 1.014-2.613.807-6.065 1.252-9.722 1.252-1.683 0-3.33-.094-4.894-.279a1.097 1.097 0 01-.967-1.218c.072-.6.624-1.029 1.23-.957 1.477.176 3.035.264 4.631.264 3.439 0 6.657-.409 9.061-1.152 2.542-.786 3.114-1.626 3.114-1.858v-2.586c-.634.356-1.437.7-2.453 1.014-2.613.807-6.065 1.252-9.722 1.252-3.656 0-7.109-.445-9.721-1.252-1.016-.314-1.819-.658-2.453-1.014h-.001v8.105c0 .233.573 1.073 3.114 1.859 2.405.743 5.623 1.152 9.061 1.152 2.033 0 4.057-.149 5.852-.432a1.106 1.106 0 011.267.909 1.095 1.095 0 01-.919 1.253c-1.935.305-4.021.46-6.2.46-3.656 0-7.109-.445-9.721-1.252-1.016-.315-1.819-.658-2.453-1.014v2.585c0 .233.572 1.073 3.113 1.858 2.405.744 5.623 1.153 9.061 1.153 3.439 0 6.657-.409 9.061-1.153 2.542-.785 3.114-1.625 3.114-1.858v-8.105zm3.321 12.621a12.369 12.369 0 00-2.522.26l-.134.03a12.608 12.608 0 00-.649.161l-.053.015c-4.316 1.227-7.657 4.756-8.569 9.151l-.001.006c-.032.153-.06.308-.086.463l-.03.192-.03.21a9.99 9.99 0 00-.057.531 13.116 13.116 0 00-.044 1.025 11.5 11.5 0 00.012.52c.005.137.013.274.024.41l.003.033a12.07 12.07 0 00.172 1.276l.028.142a12.453 12.453 0 00.117.515c.018.069.035.137.054.205.027.101.055.202.085.302l.055.179c1.545 4.897 6.172 8.461 11.624 8.461 6.713 0 12.175-5.403 12.175-12.043 0-6.641-5.462-12.044-12.174-12.044zm3.827 12.324a3.59 3.59 0 01-1.294.612 6.162 6.162 0 01-1.52.185h-1.1l.001 1.289h2.554v1.695H56.19v1.695h-1.703v-1.695h-1.703v-1.695h1.703v-.848h-1.703V56.79h1.703v-5.933c.453-.086.366.048.852 0 .485-.049 1.216.149 1.756.149.56 0 1.1.049 1.617.145.518.097.971.274 1.359.532.388.257.698.612.93 1.062.232.452.348 1.031.348 1.74 0 .655-.113 1.208-.34 1.659a3.08 3.08 0 01-.906 1.103zm-1.455-4.059c-.356-.273-.815-.41-1.375-.41-.216 0-.421.008-.615.024a5.249 5.249 0 00-.469.056v3.672h.841c.291 0 .569-.034.833-.105.264-.069.493-.179.687-.33.195-.15.348-.351.462-.603a2.22 2.22 0 00.169-.91c0-.655-.178-1.12-.533-1.394zm-7.736-14.485c-.215.072-.434.141-.652.205a1.105 1.105 0 01-1.376-.736c-.175-.58.158-1.19.744-1.362.192-.056.385-.117.573-.181a1.11 1.11 0 011.404.685 1.093 1.093 0 01-.693 1.389zm-18.167-4.971c-.085 0-.171-.01-.257-.03a21.28 21.28 0 01-.526-.131 1.093 1.093 0 01-.788-1.337 1.108 1.108 0 011.353-.78c.154.04.312.08.473.117.595.14.962.73.821 1.319a1.105 1.105 0 01-1.076.842zm-.22 14.282c.155.04.313.079.475.117.594.139.962.729.821 1.318a1.105 1.105 0 01-1.332.812 25.295 25.295 0 01-.525-.129 1.094 1.094 0 01-.79-1.337 1.107 1.107 0 011.351-.781z" fill="#fff" fill-rule="evenodd"/></svg>