<svg width="31" height="42" viewBox="0 0 31 42" fill="none" xmlns="http://www.w3.org/2000/svg"><path d="M11.313 3.547c-.81 1.263-1.001 2.65-1.03 3.565a1.873 1.873 0 00-.72 1.365c-.002.588.313 1.01.706 1.29-.78.25-1.352.988-1.352 1.847 0 1.061.873 1.934 1.934 1.934.091 0 .174-.006.248-.01.233.876.655 1.848 1.433 2.653.255.264.55.508.884.72l-.434 1.976-.335-.167a.645.645 0 00-.749.12l-1.275 1.275-4.001.505c-1.673.362-2.618 1.616-3.053 2.915-.436 1.299-.458 2.692-.458 3.65v1.556H1.802c-.813 0-1.486.672-1.486 1.485v9.283A1.5 1.5 0 001.802 41h9.282a1.5 1.5 0 001.486-1.49v-1.092h1.505v1.091c0 .813.679 1.491 1.491 1.491h6.057a1.5 1.5 0 001.486-1.49v-1.092h6.454a.645.645 0 00.643-.648V27.183c0-.957-.022-2.35-.457-3.648-.436-1.299-1.384-2.553-3.057-2.915l-4.001-.505-1.277-1.275a.645.645 0 00-.743-.12l-.335.168-.441-1.988c.327-.21.615-.449.867-.71.778-.805 1.202-1.776 1.435-2.652.073.006.155.01.245.01 1.062 0 1.94-.872 1.94-1.933 0-.853-.567-1.587-1.34-1.842.395-.28.711-.704.711-1.256a1.909 1.909 0 00-.72-1.42c-.03-.914-.222-2.293-1.028-3.55C21.113 2.158 19.407 1 16.656 1c-2.751 0-4.45 1.157-5.343 2.548v-.001zm5.343-1.258c2.41 0 3.579.885 4.263 1.952.469.73.683 1.58.773 2.282a4.3 4.3 0 00-.735-.058h-8.602c-.256 0-.5.022-.73.064.088-.703.303-1.556.773-2.288.685-1.067 1.848-1.952 4.258-1.952v0zm0 5.463h4.304c.601-.002.995.147 1.217.31.422.422.169.633-.005.733-.294.146-.812.277-1.424.362-1.224.17-2.822.177-4.092.176-1.269 0-2.863-.008-4.086-.176-.612-.085-1.13-.216-1.424-.362-.437-.325-.226-.607.026-.768.227-.157.598-.277 1.184-.275h4.3zm3.177 7.544c-.66.683-1.614 1.186-3.186 1.186-1.571 0-2.527-.503-3.186-1.186-.641-.664-.997-1.54-1.176-2.334a.644.644 0 00-.032-.093l.012-.008a.932.932 0 00-.414-.533.93.93 0 00-.48-.104c-.239.001-.383.032-.52.032a.632.632 0 01-.643-.642c0-.362.278-.639.638-.643.024.002.047.002.077.01a.645.645 0 00.77-.492l.016-.17c.22.046.45.086.686.118 1.367.19 2.991.186 4.261.186s2.9.002 4.268-.185c.229-.032.45-.07.663-.114a.645.645 0 00.775.655c.03-.008.06-.008.086-.01a.64.64 0 01.642.643.636.636 0 01-.647.643c-.138 0-.282-.031-.52-.033a.938.938 0 00-.476.11c-.197.105-.362.335-.423.57-.189.84-.547 1.725-1.191 2.392v.002zm-1.134 2.167l.445 2.019-2.485 1.242-2.489-1.243.446-2.012a6.576 6.576 0 002.031.303 6.55 6.55 0 002.052-.309zm-6.215 2.619l3.192 1.595-1.239 1.653-2.6-2.6.647-.648zm8.35 0l.647.647-2.6 2.601-1.238-1.653 3.19-1.595zm1.794 1.325l3.797.48c1.191.26 1.752 1.023 2.1 2.062.35 1.04.39 2.307.39 3.233v3.206h-3.01v-3.206a.645.645 0 10-1.29 0v9.945H23.11V32.16c0-.813-.673-1.486-1.485-1.486h-1.209a1.946 1.946 0 00-1.82-1.29c-.835 0-1.556.542-1.825 1.29h-1.204a1.5 1.5 0 00-1.49 1.486v4.967H12.57v-6.901c0-.813-.673-1.486-1.486-1.486H8.702v-1.558a.645.645 0 10-1.29 0v1.558H4.398v-1.556c0-.927.045-2.194.394-3.235.349-1.039.91-1.801 2.101-2.062l3.794-.478 3.365 3.36a.645.645 0 00.971-.068l1.636-2.178 1.635 2.178a.645.645 0 00.972.067l3.362-3.36zm-1.671 6.114a.645.645 0 000 1.29h.72a.645.645 0 000-1.29h-.72zm-19.155 2.51h2.382v1.934a.645.645 0 00.647.642h3.224a.645.645 0 00.647-.642v-1.933h2.382c.12 0 .195.075.195.195v9.282c0 .12-.075.2-.195.2H8.702v-1.94a.645.645 0 00-.851-.609l-1.681.558-1.054-.524a.644.644 0 00-.932.576v1.94H1.802c-.12 0-.2-.081-.2-.201v-9.282c0-.12.08-.195.2-.195zm3.672 0h1.938v1.29H5.474v-1.29zm13.764 1.29a.645.645 0 00.648.643h1.738c.12 0 .195.075.195.196v7.349c0 .12-.075.2-.195.2h-6.058c-.12 0-.2-.08-.2-.2v-7.35c0-.12.08-.194.2-.194h1.738a.645.645 0 00.643-.643c0-.353.267-.63.63-.648.381 0 .661.284.661.648zm6.667.357h3.01v5.45h-3.01v-5.45zm-9.249 1.577a.645.645 0 000 1.291h3.873a.645.645 0 100-1.291h-3.873zm0 2.258a.645.645 0 000 1.29h3.873a.645.645 0 100-1.29h-3.873zm.003 2.257a.645.645 0 10-.005 1.29.645.645 0 00.005-1.29zm1.938 0a.645.645 0 10-.005 1.29.645.645 0 00.005-1.29zm-11.185.896v1.043H5.474v-.896l.357.182a.645.645 0 00.495.032l1.086-.361z" fill="#586580" stroke="#586580" stroke-width=".4"/></svg>