<svg width="36" height="17" viewBox="0 0 36 17" fill="none" xmlns="http://www.w3.org/2000/svg"><path d="M33.52 3.166a.778.778 0 00-.634-.332H28.06V.78a.784.784 0 00-.78-.78H9.786a.784.784 0 00-.778.779V13.36c0 .426.353.78.778.78h2.201c.405 1.411 1.713 2.46 3.25 2.46a3.388 3.388 0 003.25-2.46h8.627c.405 1.411 1.713 2.46 3.25 2.46a3.388 3.388 0 003.249-2.46h1.61a.784.784 0 00.778-.78V6.956a.741.741 0 00-.145-.447l-2.337-3.343zm.934 4.018h-3.488V4.402h1.526l1.962 2.782zM10.565 1.568h15.936v11.025H18.56a3.386 3.386 0 00-3.322-2.75 3.378 3.378 0 00-3.322 2.75h-1.35V1.568zm4.672 13.475a1.83 1.83 0 01-1.827-1.827 1.83 1.83 0 011.827-1.827 1.83 1.83 0 011.827 1.827 1.83 1.83 0 01-1.827 1.827zm15.137 0a1.83 1.83 0 01-1.827-1.827 1.83 1.83 0 011.827-1.827 1.83 1.83 0 011.827 1.827 1.83 1.83 0 01-1.827 1.827zm3.322-2.45a3.386 3.386 0 00-3.322-2.75c-.893 0-1.713.352-2.315.923V4.402h1.339v3.56c0 .427.353.78.779.78h4.287v3.851h-.768zM1.208 1.565h5.555A.784.784 0 007.54.786a.784.784 0 00-.778-.778H1.208A.784.784 0 00.43.786c0 .426.353.78.778.78zm5.552 1.47H2.481a.784.784 0 00-.779.779c0 .425.353.778.779.778h4.277a.778.778 0 100-1.557zm.003 3.028h-2.7a.784.784 0 00-.778.778c0 .426.353.779.779.779h2.7a.778.778 0 100-1.557zm.001 3.027h-.935a.784.784 0 00-.778.778c0 .426.353.78.778.78h.935a.778.778 0 100-1.557z" fill="#42AB10"/></svg>