<svg width="49" height="23" viewBox="0 0 49 23" fill="none" xmlns="http://www.w3.org/2000/svg"><path d="M45.621 4.311a1.06 1.06 0 00-.862-.452h-6.573V1.06c0-.58-.48-1.06-1.06-1.06H13.31c-.58 0-1.06.48-1.06 1.06v17.13c0 .58.48 1.06 1.06 1.06h2.996c.552 1.923 2.333 3.35 4.425 3.35a4.613 4.613 0 004.424-3.35H36.9c.551 1.923 2.332 3.35 4.424 3.35a4.613 4.613 0 004.424-3.35h2.191c.58 0 1.06-.48 1.06-1.06V9.47c0-.226-.07-.438-.198-.608l-3.18-4.551zm1.272 5.47h-4.749V5.993h2.078l2.671 3.788zM14.37 2.134h21.696v15.01H25.253a4.61 4.61 0 00-4.522-3.745 4.599 4.599 0 00-4.523 3.746H14.37V2.135zm6.36 18.347a2.491 2.491 0 01-2.487-2.488 2.491 2.491 0 012.488-2.488 2.491 2.491 0 012.487 2.488 2.491 2.491 0 01-2.487 2.488zm20.608 0a2.491 2.491 0 01-2.487-2.488 2.491 2.491 0 012.487-2.488 2.491 2.491 0 012.488 2.488 2.491 2.491 0 01-2.488 2.488zm4.523-3.336a4.61 4.61 0 00-4.523-3.746 4.58 4.58 0 00-3.152 1.258V5.993h1.824v4.848c0 .58.48 1.06 1.06 1.06h5.837v5.244h-1.046zM1.63 2.136h7.562c.58 0 1.06-.48 1.06-1.06 0-.58-.48-1.06-1.06-1.06H1.63c-.58 0-1.06.48-1.06 1.06 0 .58.48 1.06 1.06 1.06zm7.562 1.997H3.369c-.58 0-1.06.48-1.06 1.06 0 .58.48 1.06 1.06 1.06h5.823c.58 0 1.06-.48 1.06-1.06 0-.58-.466-1.06-1.06-1.06zm0 4.121H5.517c-.58 0-1.06.48-1.06 1.06 0 .58.48 1.06 1.06 1.06h3.675c.58 0 1.06-.48 1.06-1.06 0-.58-.466-1.06-1.06-1.06zm0 4.121H7.919c-.58 0-1.06.48-1.06 1.06 0 .58.48 1.06 1.06 1.06h1.273c.579 0 1.06-.48 1.06-1.06 0-.58-.467-1.06-1.06-1.06z" fill="#586580"/></svg>