<svg width="22" height="21" viewBox="0 0 22 21" fill="none" xmlns="http://www.w3.org/2000/svg"><g clip-path="url(#clip0_3928_50289)"><path class="filter-active-icon" d="M21.06 5.25a.875.875 0 00-.874-.875h-9.188a.875.875 0 000 1.75h9.188a.875.875 0 00.875-.875z" fill="#586580"/><path d="M1.81 6.125h2.341a2.625 2.625 0 100-1.75h-2.34a.875.875 0 100 1.75zm4.813-1.75a.875.875 0 110 1.75.875.875 0 010-1.75z" fill="#C02356"/><path d="M20.187 9.625H16.97a2.625 2.625 0 100 1.75h3.216a.875.875 0 100-1.75zm-5.688 1.75a.874.874 0 110-1.749.874.874 0 010 1.749zm-4.376-1.75H1.811a.875.875 0 100 1.75h8.312a.875.875 0 100-1.75zm10.067 5.25h-7.438a.875.875 0 100 1.75h7.437a.875.875 0 000-1.75zm-11.817-1.75a2.625 2.625 0 00-2.472 1.75h-4.09a.875.875 0 000 1.75H5.9a2.625 2.625 0 102.472-3.5zm0 3.5a.875.875 0 110-1.75.875.875 0 010 1.75z" fill="#586580"/></g><defs><clipPath id="clip0_3928_50289"><path fill="#fff" transform="translate(.5)" d="M0 0h21v21H0z"/></clipPath></defs></svg>