<svg xmlns="http://www.w3.org/2000/svg" preserveAspectRatio="xMidYMid" width="15" height="7" viewBox="0 0 15 7"><path fill="#7aaa3f" fill-rule="evenodd" d="M14.255.001a.897.897 0 00-.692.347c-.3.365-.717.824-1.24 1.278C10.819 2.935 9.196 3.598 7.5 3.598c-1.697 0-3.319-.663-4.823-1.972A10.777 10.777 0 011.437.348.897.897 0 00.745.001H.201C.036.001-.058.227.04.387c.026.04.561.893 1.54 1.846.001.001.002.002.001.004L.87 3.953c-.132.317-.025.704.238.862a.458.458 0 00.237.068c.196 0 .384-.13.477-.355l.633-1.523c0-.002.002-.003.004-.001.54.426 1.101.781 1.675 1.065.002.001.003.003.002.005l-.629 1.517c-.131.317-.025.703.238.862a.459.459 0 00.238.068c.195 0 .384-.131.477-.355l.693-1.672.004-.002c.594.2 1.199.324 1.807.37.002 0 .003.002.003.004v1.468c0 .344.215.646.499.667.31.023.567-.273.567-.641V4.866c0-.002.001-.004.003-.004a7.408 7.408 0 001.807-.37l.004.002.693 1.672c.093.224.281.355.477.355.08 0 .161-.022.238-.068.263-.159.37-.545.238-.862l-.629-1.517c-.001-.002 0-.004.001-.005a9.505 9.505 0 001.676-1.065c.002-.002.004-.001.004.001l.633 1.523c.092.225.281.355.477.355a.458.458 0 00.237-.068c.263-.158.37-.545.238-.862l-.711-1.716v-.004c.979-.953 1.515-1.806 1.54-1.846.099-.16.005-.386-.16-.386h-.544z"/></svg>