<svg xmlns="http://www.w3.org/2000/svg" preserveAspectRatio="xMidYMid" width="23" height="23" viewBox="0 0 23 23"><path d="M22.024 7.041h-6.066V.975a.966.966 0 00-.965-.965H8.006a.966.966 0 00-.965.965v6.066H.976a.965.965 0 00-.965.965v6.987c0 .532.432.965.965.965h6.065v6.065c0 .533.433.965.965.965h6.987a.965.965 0 00.965-.965v-6.065h6.066a.966.966 0 00.965-.965V8.006a.965.965 0 00-.965-.965zm-.965 6.986h-6.066a.966.966 0 00-.965.966v6.065H8.971v-6.065a.966.966 0 00-.965-.966H1.941V8.97h6.065a.965.965 0 00.965-.964V1.94h5.057v6.066c0 .532.432.964.965.964h6.066v5.057z" fill-rule="evenodd"/></svg>