<svg xmlns="http://www.w3.org/2000/svg" width="36" height="36" viewBox="0 0 36 36"><path fill="#020202" d="M18 36C8.075 36 0 27.925 0 18S8.075 0 18 0s18 8.075 18 18-8.075 18-18 18zm0-35C8.626 1 1 8.626 1 18s7.626 17 17 17 17-7.626 17-17S27.374 1 18 1z"/><path d="M31.51 17.598A2.023 2.023 0 0030.065 17a2.01 2.01 0 00-1.438.598c-1.464 1.462-1.464 3.078-1.464 4.038 0 .809-.025.917-.271 1.161-.245.243-.352.269-1.157.269-.965 0-2.579 0-4.044 1.464-1.462 1.464-1.462 3.077-1.462 4.043 0 .804-.027.913-.271 1.157a2.038 2.038 0 102.882 2.882c1.464-1.463 1.464-3.077 1.464-4.039 0-.81.023-.917.269-1.161.244-.244.354-.269 1.161-.269h.013c.959 0 2.562 0 4.026-1.463 1.464-1.464 1.464-3.078 1.464-4.044 0-.804.027-.912.272-1.156.384-.386.596-.896.596-1.442a2.02 2.02 0 00-.595-1.44zm-9.342 14.34a1.088 1.088 0 11-1.538-1.536c.419-.419.517-.785.54-1.357h2.18c-.028.854-.188 1.903-1.182 2.893zm3.092-5.741c-.57.025-.938.123-1.356.546-.421.417-.518.779-.543 1.351l-2.178.004c.028-.857.188-1.903 1.181-2.896.993-.994 2.04-1.155 2.896-1.182v2.177zm3.845-1.191c-.997.997-2.043 1.158-2.896 1.181V24.01c.571-.025.937-.123 1.354-.54.419-.423.52-.784.54-1.355h2.18c-.026.853-.184 1.899-1.178 2.891zm1.731-5.199c-.417.418-.519.784-.539 1.356h-2.18c.026-.854.188-1.903 1.179-2.894a1.088 1.088 0 111.54 1.538zm-4.185-9.671l-.475-.847 1.153-.645-.353-1.852-.954.184.222 1.165-.541.302-.236-.423a.972.972 0 00-1.321-.374l-.475-.846a1.916 1.916 0 00-.717-.721l.291-1.033-.808-1.446-.845.473.612 1.095-.184.648a1.92 1.92 0 00-.99.239 1.909 1.909 0 00-.72.718l-.648-.182-.613-1.095-.848.474.81 1.446 1.035.291c-.007.335.063.676.238.989l.474.846a.971.971 0 00-.371 1.32l.237.424-.544.304-.874-.799-.653.716 1.392 1.27 1.152-.646.475.847-1.152.645.354 1.853.951-.182-.221-1.164.581-.326a2.914 2.914 0 003.686.717 2.918 2.918 0 001.32-3.519l.577-.323.875.796.657-.716-1.396-1.271-1.153.648zm-5.519-1.914a.97.97 0 011.692-.947l.474.846-1.692.947-.474-.846zm4.909 2.812a1.935 1.935 0 01-.355 2.344l-1.861-3.325-.848.473 1.862 3.326a1.938 1.938 0 01-2.185-.922l-1.422-2.54 3.388-1.895 1.421 2.539zm-21.548 8.76l.756 1.309-1.311.757a.455.455 0 10.454.791l1.311-.756.756 1.309a.45.45 0 00.395.232.463.463 0 00.398-.229.465.465 0 00-.002-.458l-.755-1.309 3.91-2.254-.012 4.513-1.513.005a.46.46 0 00-.399.685.455.455 0 00.398.228l1.512-.004.004 1.512a.456.456 0 10.912.002l-.003-1.512 1.511-.002a.454.454 0 00.398-.228.458.458 0 00-.395-.687l-1.512.005.012-4.515 3.905 2.267-.761 1.308a.456.456 0 00.789.458l.759-1.308 1.309.759a.457.457 0 00.459-.789l-1.309-.76.76-1.309a.454.454 0 00-.165-.622.458.458 0 00-.625.165l-.758 1.307-3.905-2.265 3.911-2.255.757 1.311a.456.456 0 10.79-.455l-.756-1.309 1.31-.755a.459.459 0 00.23-.395.455.455 0 00-.685-.396l-1.31.755-.756-1.309a.45.45 0 00-.396-.231.456.456 0 00-.395.685l.755 1.31-3.91 2.254.011-4.513 1.513-.004a.46.46 0 00.399-.685.45.45 0 00-.396-.228l-1.513.004-.004-1.511a.455.455 0 10-.912-.003l.004 1.511-1.511.004a.457.457 0 00-.003.914l1.512-.004-.012 4.514-3.905-2.266.76-1.308a.456.456 0 00-.79-.457l-.759 1.307-1.309-.759a.456.456 0 10-.458.789l1.31.761-.762 1.307a.458.458 0 00.791.459l.759-1.307 3.905 2.265-3.911 2.25-.756-1.311a.458.458 0 10-.791.456z"/></svg>