<svg xmlns="http://www.w3.org/2000/svg" preserveAspectRatio="xMidYMid" width="27.031" height="25.969" viewBox="0 0 27.031 25.969"><path d="M24.129 7.117c.767 1.215 3.715 6.222 2.682 9.842-1.547 5.419-5.901 6.581-9.476 6.795v1.298a.909.909 0 01-.902.917h-5.845a.91.91 0 01-.902-.917v-1.299c-3.574-.215-7.923-1.379-9.469-6.794-1.033-3.62 1.914-8.627 2.681-9.842-.038-.592-.103-1.133-.166-1.659-.144-1.199-.268-2.234.039-3.21A3.228 3.228 0 015.001.086a3.153 3.153 0 012.982.731l1.148 1.055a13.785 13.785 0 014.377-.706c1.519.001 2.99.238 4.389.706L19.045.817a3.157 3.157 0 012.982-.731 3.228 3.228 0 012.23 2.161c.307.977.183 2.013.039 3.212a28.567 28.567 0 00-.167 1.658zm-9.712 17.019h1.114v-2.33a4.43 4.43 0 01-1.114-.202v2.532zm-2.927 0h1.116v-2.54c-.341.11-.717.186-1.116.204v2.336zM22.505 5.237c.123-1.026.221-1.837.034-2.431a1.403 1.403 0 00-.98-.95 1.363 1.363 0 00-1.304.32L18.71 3.597a.894.894 0 01-.922.178 11.984 11.984 0 00-4.269-.776 12.003 12.003 0 00-4.279.776.89.89 0 01-.922-.178L6.773 2.176a1.362 1.362 0 00-1.304-.32c-.473.129-.83.476-.98.951-.187.593-.089 1.403.034 2.429.074.615.157 1.311.194 2.088a.93.93 0 01-.156.559c-.985 1.473-3.376 5.884-2.611 8.566 1.179 4.132 4.259 5.225 7.736 5.457v-.42a5.048 5.048 0 01-1.183-.697.926.926 0 01-.17-1.285.893.893 0 011.265-.17c.237.183.466.322.688.418a2.401 2.401 0 002.139-.052c.033-.017.061-.034.091-.051l-1.126-1.745a.625.625 0 01-.028-.632.684.684 0 01.61-.353h3.071c.26 0 .493.135.609.353.106.2.096.442-.027.632l-1.127 1.747c.029.016.057.033.089.049a2.406 2.406 0 002.152.055c.219-.099.449-.236.681-.416a.892.892 0 011.265.17.93.93 0 01-.167 1.286 5.05 5.05 0 01-1.183.694v.418c3.479-.23 6.563-1.323 7.743-5.458.767-2.689-1.625-7.095-2.611-8.566a.924.924 0 01-.156-.559c.037-.777.12-1.473.194-2.087zm-4.516 7.364c-.839 0-1.522-.694-1.522-1.546 0-.853.683-1.546 1.522-1.546s1.522.693 1.522 1.546c0 .852-.683 1.546-1.522 1.546zm-8.959 0c-.839 0-1.522-.694-1.522-1.546 0-.853.683-1.546 1.522-1.546s1.521.693 1.521 1.546c0 .852-.682 1.546-1.521 1.546z" fill-rule="evenodd"/></svg>