<svg width="35" height="35" viewBox="0 0 35 35" fill="none" xmlns="http://www.w3.org/2000/svg"><path d="M30.964 8.179H22.68V4.036a2.07 2.07 0 00-2.072-2.072H4.036a2.071 2.071 0 00-2.072 2.072v26.928c0 1.145.928 2.072 2.072 2.072h26.928a2.07 2.07 0 002.072-2.072V10.25a2.07 2.07 0 00-2.072-2.071zM6.107 6.107h12.429v22.786H17.5V26.82a2.071 2.071 0 00-2.071-2.071H9.214a2.071 2.071 0 00-2.071 2.071v2.072H6.107V6.107zM25.51 28.893a2.07 2.07 0 00-1.794-3.107H22.68V24.75h1.035a2.07 2.07 0 100-4.143H22.68v-8.286h6.214v6.215h-1.036a2.07 2.07 0 100 4.143h1.036v1.035h-1.036a2.07 2.07 0 100 4.143h1.036v1.036H25.51z" fill="#586580" stroke="#fff" stroke-width="2.071"/><path d="M7.143 17.501h2.072a1.035 1.035 0 100-2.071H7.143a1.035 1.035 0 100 2.071zm0-5.18h2.072a1.035 1.035 0 100-2.071H7.143a1.035 1.035 0 100 2.071zm7.25 4.144c0 .573.463 1.036 1.035 1.036H17.5a1.035 1.035 0 100-2.071h-2.072c-.572 0-1.035.463-1.035 1.035zm0-5.179c0 .572.463 1.035 1.035 1.035H17.5a1.035 1.035 0 100-2.071h-2.072c-.572 0-1.035.463-1.035 1.036zM9.215 22.677a1.035 1.035 0 100-2.072H7.143a1.035 1.035 0 100 2.072h2.072zm8.285-2.072h-2.072a1.035 1.035 0 100 2.072H17.5a1.035 1.035 0 100-2.072zm11.392-3.106v-4.143c0-.572-.463-1.036-1.036-1.036h-4.143c-.572 0-1.035.464-1.035 1.036v4.143c0 .572.463 1.036 1.035 1.036h4.143c.573 0 1.036-.464 1.036-1.036zm-2.071-1.036h-2.072v-2.071h2.072v2.071z" fill="#586580"/></svg>