<svg xmlns="http://www.w3.org/2000/svg" width="41.348" height="39.987"><path fill-rule="evenodd" d="M30.788 21.392c-.181.22-.502.426-.788.608-.411.147-1.552.764-2.438 1.041l-13.398 6.668a.927.927 0 01-.675.291l-.06-.001a.936.936 0 01-.693-.382c-.064-.145-.8-1.323-.736-2.617.1-2.018.636-3.292 1-5l.4-2.204c-.286.077-.583.143-.89.201a14.226 14.226 0 01-2.65.222c-.072.321-.169.705-.294 1.099-.488 1.545-1.131 2.414-1.965 2.656-1.572.454-3.342-.828-3.654-1.067-.728.536-1.266.334-1.523.163-.442-.292-1.109-1.179-1.589-2.108-.483-.934-1.01-2.353-.781-3.817.078-.5.398-1.309 2.19-3.153.983-1.013 2.321-2.249 3.979-3.675a157.447 157.447 0 015.329-4.362C12.403.23 13.667.094 13.809.047a.931.931 0 011.204.704l2.882 3.522c.462.053 1.098.164 1.844.391 1.145.7 3.437 2.202 5.566 4.332 2.096 1.732 1.17.617 2.695 3.004 1.876 2.937 2.484 4.312 2.976 8.603a.924.924 0 01-.188.789zM19.245 6.454a9.011 9.011 0 00-1.133-.276l.09 1.525a.93.93 0 01-.875.981l-.054.001a.929.929 0 01-.928-.873l-.149-2.545-1.74-2.79a4.64 4.64 0 00-.329.354c-.637.759-.464 1.197-.783 3.738a.926.926 0 01-.354.618c-.027.022-2.761 2.135-5.515 4.5-5.207 4.477-5.561 5.629-5.584 5.743-.214 1.37.67 2.966 1.241 3.722.278-.286.648-.73.951-1.151a.931.931 0 011.132-.307.924.924 0 01.532 1.041l-.215 1.004c.512.301 1.152.559 1.536.457.105-.065.425-.45.755-1.531.242-.795.36-1.54.36-1.547a.934.934 0 011.007-.781c.053.006 5.409.463 6.909-2.607a.931.931 0 011.243-.426.925.925 0 01.429 1.239c-.532 1.09-1.417 1.959-2.609 2.578l-.262 1.786c.049.247-.007.722-.151 1.71-.035.05-.416 1.397-.749 2.383-.465 1.376-.396 2.678-.131 3.425l12.111-6.414c.017-1.138-.463-3.003-.98-5.011-1.106-3.145-.904-4.82-2-7-1.171-1.566-2.782-2.714-3.755-3.546zM28 16c-1.197-1.893-1.453-3.809-3-5 2.421 4.32 2.165 8.343 2.633 10.109.445-.094.889-.151 1.274-.185-.112-2.538-.268-3.367-.907-4.924zm-14.496-3.976a1.499 1.499 0 01-1.488-1.508c0-.832.666-1.505 1.488-1.505.821 0 1.486.673 1.486 1.505 0 .832-.665 1.508-1.486 1.508z"/></svg>