<svg xmlns="http://www.w3.org/2000/svg" width="51" height="51"><path fill-rule="evenodd" fill="#C22255" d="M49.556 33.093a70.478 70.478 0 01-1.392 7.453l1.401 1.181c.351.296.502.765.391 1.21l-1.771 7.082-6.819-.009a5.976 5.976 0 01-2.245-.305c-1.499-.509-2.7-1.556-3.381-2.961a5.608 5.608 0 01-.248-4.349c1.678-4.741 5.316-19.857.212-26.85-2.005-2.75-5.426-4.085-10.464-4.085h-.427c-5.034 0-8.454 1.331-10.458 4.075-5.115 6.992-1.58 21.775.211 26.867.243.69.397 1.418.336 2.146-.207 2.483-1.77 4.406-3.968 5.148a5.988 5.988 0 01-1.91.314H1.867L.096 42.937a1.2 1.2 0 01.391-1.213l1.401-1.185a70.413 70.413 0 01-1.392-7.452C-.839 22.795.617 14.65 4.822 8.883 10.179 1.541 18.646-.001 24.809-.001h.43c11.163 0 17.034 4.832 19.99 8.885 4.209 5.769 5.662 13.914 4.327 24.209zm-6.011-22.98c-2.671-3.663-8.015-8.03-18.306-8.03h-.43c-5.677 0-13.461 1.393-18.303 8.028-3.881 5.323-5.208 12.963-3.944 22.709a68.71 68.71 0 001.352 7.231l.301 1.249-.981.831-.983.83 1.243 4.965h5.53c.421 0 .84-.069 1.246-.205 1.466-.494 2.422-1.745 2.555-3.346.029-.349-.044-.768-.225-1.281-.068-.194-6.736-19.482.073-28.789 2.421-3.316 6.392-4.929 12.14-4.929h.427c5.75 0 9.724 1.616 12.148 4.941 5.664 7.76 1.97 23.402.069 28.774a3.536 3.536 0 00.156 2.739 3.717 3.717 0 002.178 1.902 3.919 3.919 0 001.464.197l.057-.003h.056l5.19.007 1.243-4.967-.981-.826-.984-.83.302-1.252a69.002 69.002 0 001.352-7.233c1.264-9.752-.063-17.393-3.945-22.712zm.238 25.725a2.92 2.92 0 01-2.919-2.913 2.92 2.92 0 012.919-2.918 2.92 2.92 0 012.919 2.918 2.92 2.92 0 01-2.919 2.913zm0-3.747a.832.832 0 000 1.663.832.832 0 100-1.663zm.448-4.588c-1.384 0-2.516-1.106-2.537-2.462-.064-4.68-1.144-8.481-3.199-11.302a2.498 2.498 0 012.019-3.972c.798 0 1.551.382 2.023 1.025 2.679 3.676 4.079 8.446 4.16 14.176a2.504 2.504 0 01-.708 1.779 2.461 2.461 0 01-1.758.756zm-3.378-15.484a.425.425 0 00-.577-.094.409.409 0 00-.172.274.41.41 0 00.075.313c2.318 3.181 3.529 7.386 3.599 12.501.004.218.211.406.453.406a.364.364 0 00.258-.119.418.418 0 00.124-.306c-.075-5.286-1.34-9.653-3.76-12.975zm4.179 30.905a2.922 2.922 0 01-2.919 2.919 2.92 2.92 0 010-5.837 2.922 2.922 0 012.919 2.918zm-3.748 0c0 .46.372.835.829.835a.836.836 0 000-1.669.832.832 0 00-.829.834zM33.252 8.868a2.56 2.56 0 01-1.981.238c-1.82-.514-3.861-.772-6.072-.772h-.356c-2.185 0-4.226.263-6.072.781a2.592 2.592 0 01-1.977-.238 2.592 2.592 0 01-1.234-1.569 2.581 2.581 0 01.237-1.981c.339-.607.9-1.044 1.57-1.23 2.299-.645 4.816-.973 7.476-.973h.356c2.65 0 5.142.316 7.399.941 1.004.278 1.831 1.076 1.962 2.109.146 1.159-.383 2.178-1.308 2.694zm-.76-2.433c-.015-.118-.191-.29-.45-.362-2.071-.574-4.373-.865-6.843-.865h-.356c-2.471 0-4.797.302-6.913.895a.492.492 0 00-.313.24.507.507 0 00-.05.405.513.513 0 00.253.315.51.51 0 00.388.045c2.029-.569 4.261-.858 6.635-.858h.356c2.405 0 4.638.286 6.638.851a.488.488 0 00.386-.044c.271-.152.294-.421.269-.622zM8.352 25.037c-.021 1.36-1.151 2.466-2.524 2.466a2.505 2.505 0 01-2.479-2.535c.081-5.73 1.482-10.5 4.164-14.176a2.51 2.51 0 013.493-.549 2.507 2.507 0 01.549 3.496c-2.059 2.821-3.138 6.622-3.203 11.298zm1.426-13.111a.426.426 0 00-.581.094c-2.423 3.32-3.689 7.686-3.764 12.977a.42.42 0 00.124.303.394.394 0 00.293.119.439.439 0 00.418-.414c.071-5.111 1.283-9.315 3.604-12.494a.422.422 0 00-.094-.585zm-3.51 18.081a2.92 2.92 0 012.919 2.918 2.92 2.92 0 01-5.838 0 2.92 2.92 0 012.919-2.918zm0 3.747c.46 0 .835-.371.835-.829a.836.836 0 00-1.67 0c0 .458.375.829.835.829zm1.669 6.252a2.92 2.92 0 012.914 2.918 2.92 2.92 0 01-2.914 2.919 2.924 2.924 0 01-2.919-2.919 2.922 2.922 0 012.919-2.918zm0 3.753c.458 0 .83-.375.83-.835a.833.833 0 10-1.664 0c0 .46.374.835.834.835z"/></svg>