<svg xmlns="http://www.w3.org/2000/svg" preserveAspectRatio="xMidYMid" width="40" height="40" viewBox="0 0 40 40"><circle cx="20" cy="20" r="20" fill="#426db4"/><path d="M24.582 6.998H23.27c-3.646 0-6.611 3.181-6.611 7.093v2.992h-2.241c-.231 0-.418.201-.418.449v3.586c0 .248.187.448.418.448h2.24V32.55c0 .247.187.448.418.448h3.343c.231 0 .418-.201.418-.448V21.566h3.325c.231 0 .418-.2.418-.448v-3.586c0-.248-.187-.449-.418-.449h-3.325v-2.992c0-1.439 1.092-2.61 2.433-2.61h1.312c.23 0 .417-.201.417-.448V7.447c.001-.248-.187-.449-.417-.449z" fill="#fff" fill-rule="evenodd"/></svg>