<svg xmlns="http://www.w3.org/2000/svg" preserveAspectRatio="xMidYMid" width="12" height="15" viewBox="0 0 12 15"><path d="M6.523 14.771a.722.722 0 01-1.036.005C4.558 13.794.003 8.832.003 5.903c0-3.256 2.692-5.905 6.002-5.905 3.307 0 5.998 2.649 5.998 5.905 0 3.037-4.919 8.281-5.48 8.868zm-.518-13.37c-2.523 0-4.574 2.018-4.574 4.499 0 1.824 2.777 5.366 4.573 7.348 1.797-1.985 4.574-5.53 4.574-7.348 0-2.481-2.052-4.499-4.573-4.499zM3.296 5.756c0-1.47 1.215-2.665 2.709-2.665 1.492 0 2.707 1.195 2.707 2.665 0 1.469-1.215 2.665-2.707 2.665-1.494 0-2.709-1.196-2.709-2.665zm3.989 0c0-.695-.574-1.26-1.28-1.26-.708 0-1.284.565-1.284 1.26 0 .696.576 1.262 1.284 1.262.706 0 1.28-.566 1.28-1.262z" fill-rule="evenodd"/></svg>