<svg width="29" height="39" viewBox="0 0 29 39" fill="none" xmlns="http://www.w3.org/2000/svg"><path d="M29 15.068C29 6.722 22.532 0 14.5 0S0 6.722 0 15.068C0 23.415 14.5 39 14.5 39S29 23.415 29 15.068z" fill="#7AAA3F"/><g clip-path="url(#clip0_98:1154)" fill="#fff"><path d="M16.64 7.847c-.885.207-1.578.935-1.913 2.012-.156.503-.225 1.127-.173 1.581.1.898.528 1.602 1.162 1.918.359.18.714.21 1.049.092.235-.082.551-.266.758-.44.548-.462.939-1.174 1.086-1.976.05-.275.062-.414.06-.72 0-.587-.082-1.015-.267-1.394-.28-.576-.726-.954-1.255-1.067a1.521 1.521 0 00-.507-.006zm-5.647.055c-.49.085-.952.468-1.227 1.017-.15.3-.22.586-.253 1.026-.014.193-.007.502.015.695.126 1.1.644 2.027 1.425 2.546.156.104.415.231.59.29a.814.814 0 00.295.052c.183.007.314-.01.474-.06a1.54 1.54 0 00.642-.392c.377-.375.612-.94.667-1.603a4.25 4.25 0 00-.063-1c-.24-1.292-.988-2.25-1.98-2.533-.198-.056-.4-.07-.585-.038zm9.264 4.421c-.818.134-1.529.692-1.972 1.551-.204.396-.307.719-.386 1.22-.028.18-.033.248-.033.453 0 .252.015.377.067.58.14.547.472.992.883 1.19.225.107.43.147.661.127.561-.049 1.06-.3 1.505-.755.49-.503.827-1.198.937-1.93.028-.18.048-.54.04-.686-.046-.754-.454-1.416-1.022-1.659a1.26 1.26 0 00-.68-.09zM7.61 12.64c-.531.09-.979.457-1.143.944a3.02 3.02 0 00-.129.643c-.075.813.213 1.731.755 2.405.406.502.929.85 1.514 1.006.492.131.934.008 1.31-.364.334-.332.502-.817.502-1.455 0-.249-.013-.384-.057-.615a3.503 3.503 0 00-1.22-2.041c-.285-.228-.668-.438-.91-.497a1.657 1.657 0 00-.622-.025zm6.34 2.956a4.34 4.34 0 00-1.26.34c-.633.278-1.244.74-1.638 1.24-.852 1.084-1.443 2.257-1.684 3.339-.015.066-.04.167-.056.224a1.54 1.54 0 00.038.92c.17.47.54.835.999.988.274.09.683.09 1.139-.005.296-.06.519-.13 1.15-.362.876-.324 1.12-.385 1.71-.44a2.26 2.26 0 01.493-.012c.466.033.833.133 1.54.42.625.252.974.39 1.062.414.88.247 1.753-.057 2.053-.715.13-.29.145-.761.035-1.208-.107-.435-.426-1.142-.732-1.618-.861-1.344-1.476-2.092-2.186-2.661-.669-.535-1.23-.788-1.92-.864a4.24 4.24 0 00-.744 0z"/></g><defs><clipPath id="clip0_98:1154"><path fill="#fff" transform="translate(6.326 7.823)" d="M0 0h15.637v14.927H0z"/></clipPath></defs></svg>