<svg xmlns="http://www.w3.org/2000/svg" preserveAspectRatio="xMidYMid" width="35" height="47" viewBox="0 0 35 47"><defs><linearGradient id="a" gradientUnits="userSpaceOnUse" x1="11" y1="41.865" x2="42" y2="34.135"><stop offset="0"/><stop offset="1" stop-color="#e5e5e5" stop-opacity="0"/></linearGradient></defs><path d="M18.881 47.003c-.337 0-.613-.066-.772-.178-.417-.319-9.477-8.348-6.509-12.006 2.89-3.561 11.724-6.082 19.629-5.81 7.668.264 12.249 3.095 10.322 6.483-1.93 3.395-19.942 10.694-21.666 11.334a3.042 3.042 0 01-1.004.177z" opacity=".55" fill="url(#a)" fill-rule="evenodd"/><path d="M17.519 47.007c-.355 0-.693-.149-.941-.404C15.907 45.877.012 27.011.012 17.595.012 7.881 7.861-.012 17.519-.012c9.65 0 17.497 7.893 17.497 17.607 0 9.416-15.888 28.282-16.566 29.008a1.287 1.287 0 01-.931.404z" fill="#c22255" fill-rule="evenodd"/></svg>