<svg xmlns="http://www.w3.org/2000/svg" width="43" height="49" viewBox="0 0 43 49"><linearGradient id="a" gradientUnits="userSpaceOnUse" x1="29.1" y1="32.258" x2="15.454" y2="53.27"><stop offset="0" stop-color="#fff" stop-opacity="0"/><stop offset="1"/></linearGradient><path fill="url(#a)" d="M18.881 48.003c-.337 0-.613-.065-.772-.178-.417-.319-9.478-8.349-6.509-12.007 2.89-3.561 11.724-6.082 19.628-5.81 7.668.265 12.25 3.095 10.322 6.483-1.93 3.395-19.941 10.693-21.666 11.334a3.006 3.006 0 01-1.003.178z"/><path fill="#02409B" d="M18.518 48.007c-.354 0-.692-.149-.94-.403-.671-.727-16.566-19.593-16.566-29.009C1.012 8.881 8.861.988 18.518.988c9.651 0 17.498 7.893 17.498 17.607 0 9.416-15.888 28.282-16.565 29.008-.243.256-.58.403-.933.404z"/><path fill="#FFF" d="M27.459 20.495h-6.623v6.732h-4.644v-6.732H9.568v-4.463h6.624V9.335h4.644v6.696h6.623v4.464z"/></svg>