<svg width="29" height="39" viewBox="0 0 29 39" fill="none" xmlns="http://www.w3.org/2000/svg"><path d="M29 15.068C29 6.722 22.532 0 14.5 0S0 6.722 0 15.068C0 23.415 14.5 39 14.5 39S29 23.415 29 15.068z" fill="#C22955"/><g clip-path="url(#clip0_105:197)" fill="#fff"><path d="M16.64 7.847c-.885.207-1.578.935-1.913 2.012-.156.503-.224 1.127-.173 1.581.1.898.528 1.602 1.162 1.918.359.18.714.21 1.05.092a2.75 2.75 0 00.757-.44c.548-.462.939-1.173 1.086-1.976.05-.275.062-.414.06-.72 0-.587-.082-1.014-.267-1.394-.28-.576-.726-.954-1.255-1.067a1.521 1.521 0 00-.506-.006zm-5.647.055c-.49.085-.952.468-1.227 1.017-.15.3-.22.586-.253 1.026-.014.193-.007.502.015.696.126 1.1.644 2.027 1.425 2.545.156.104.415.232.59.29a.816.816 0 00.295.052c.183.007.314-.01.474-.06a1.56 1.56 0 00.642-.392c.377-.375.612-.94.667-1.603a4.248 4.248 0 00-.063-1c-.24-1.292-.988-2.25-1.98-2.533a1.348 1.348 0 00-.585-.038zm9.264 4.422c-.818.133-1.529.691-1.972 1.55a3.649 3.649 0 00-.386 1.22c-.028.18-.033.248-.033.454 0 .252.015.376.067.58.14.546.472.99.883 1.188.225.108.43.148.661.128.561-.049 1.06-.3 1.505-.755.49-.503.827-1.198.937-1.929.028-.182.048-.54.04-.687-.046-.754-.454-1.416-1.022-1.659a1.258 1.258 0 00-.68-.09zM7.61 12.64c-.531.09-.979.458-1.143.945a3.021 3.021 0 00-.129.642c-.075.813.213 1.731.755 2.405.406.503.929.85 1.514 1.007.492.13.934.007 1.31-.365.334-.332.502-.817.502-1.455a2.79 2.79 0 00-.057-.614 3.503 3.503 0 00-1.22-2.042c-.285-.228-.668-.437-.91-.497a1.654 1.654 0 00-.622-.025zm6.34 2.956a4.34 4.34 0 00-1.26.34c-.633.278-1.244.74-1.639 1.241-.851 1.083-1.442 2.256-1.683 3.338-.015.066-.04.167-.056.224a1.54 1.54 0 00.038.92c.17.47.54.836.999.988.274.091.683.09 1.139-.005.296-.06.519-.13 1.15-.362.876-.323 1.12-.385 1.71-.44a2.26 2.26 0 01.493-.012c.466.033.833.134 1.54.42.625.253.974.39 1.062.414.88.247 1.753-.057 2.052-.715.131-.29.146-.76.036-1.208-.107-.435-.426-1.141-.732-1.617-.861-1.345-1.476-2.093-2.187-2.662-.668-.535-1.229-.788-1.919-.864a4.24 4.24 0 00-.744 0z"/></g><defs><clipPath id="clip0_105:197"><path fill="#fff" transform="translate(6.326 7.824)" d="M0 0h15.637v14.927H0z"/></clipPath></defs></svg>