<svg width="95" height="17" viewBox="0 0 95 17" fill="none" xmlns="http://www.w3.org/2000/svg"><path d="M9.666 1.332H3.999a1.333 1.333 0 00-1.333 1.333v10.667a1.333 1.333 0 001.333 1.333h8a1.333 1.333 0 001.334-1.333V4.999L9.666 1.332z" stroke="#AD8701" stroke-linecap="round" stroke-linejoin="round"/><path d="M9.334 1.332v4h4M6 10.001l1.333 1.334L10 8.668" stroke="#AD8701" stroke-linecap="round" stroke-linejoin="round"/><path d="M26.666 11.332h4m-2-2v4m1.334-6V5.999a1.333 1.333 0 00-.667-1.154L24.667 2.18a1.334 1.334 0 00-1.334 0l-4.666 2.666A1.333 1.333 0 0018 6v5.333a1.333 1.333 0 00.667 1.153l4.666 2.667a1.334 1.334 0 001.334 0l1.333-.76m1-7.461l-5.967-3.44" stroke="#42AB10" stroke-linecap="round" stroke-linejoin="round"/><path d="M18.193 5.332L24 8.665l5.807-3.333M24 15.33V8.665" stroke="#42AB10" stroke-linecap="round" stroke-linejoin="round"/><path d="M45.375 3h-11C33.615 3 33 3.616 33 4.375v.688c0 .759.616 1.375 1.375 1.375h11c.76 0 1.375-.616 1.375-1.375v-.688c0-.76-.616-1.375-1.375-1.375z" stroke="#1B93C8" stroke-linecap="round" stroke-linejoin="round"/><path d="M34.375 6.438v6.187A1.375 1.375 0 0035.75 14H44a1.375 1.375 0 001.375-1.375V6.437M38.5 9.188h2.75" stroke="#1B93C8" stroke-linecap="round" stroke-linejoin="round"/><path d="M55.667 12.332h2.667v-8h-8v8h2m10 .001h1.333v-2.226a2.665 2.665 0 00-.78-1.887L61.667 7h-3.333m0 5.332h.667" stroke="#FF3D00" stroke-linecap="round" stroke-linejoin="round"/><path d="M54 14.333A1.667 1.667 0 1054 11a1.667 1.667 0 000 3.333zm6.667 0a1.667 1.667 0 100-3.333 1.667 1.667 0 000 3.333z" stroke="#FF3D00" stroke-linecap="round" stroke-linejoin="round"/><path d="M75.668 10.665L77.001 12l2.667-2.667" stroke="#8A2986" stroke-linecap="round" stroke-linejoin="round"/><path d="M79 6.668V5.335a1.333 1.333 0 00-.667-1.154l-4.666-2.666a1.334 1.334 0 00-1.334 0L67.667 4.18A1.333 1.333 0 0067 5.335v5.333a1.333 1.333 0 00.667 1.153l4.666 2.667a1.334 1.334 0 001.334 0l1.333-.76m1-7.46l-5.967-3.44" stroke="#8A2986" stroke-linecap="round" stroke-linejoin="round"/><path d="M67.193 4.668L73 8.001l5.807-3.333M73 14.667V8" stroke="#8A2986" stroke-linecap="round" stroke-linejoin="round"/><path d="M83.25 3v4h3" stroke="#5C6B8C" stroke-width="1.2" stroke-linecap="round" stroke-linejoin="round"/><path d="M93.25 9a5.008 5.008 0 00-2.96-4.565 4.996 4.996 0 00-5.373.84l-1.667 1.5m10 8.225v-3h-3" stroke="#5C6B8C" stroke-width="1.2" stroke-linecap="round" stroke-linejoin="round"/><path d="M83.25 9a5.008 5.008 0 002.96 4.565 4.996 4.996 0 005.373-.84l1.667-1.5" stroke="#5C6B8C" stroke-width="1.2" stroke-linecap="round" stroke-linejoin="round"/></svg>