<svg width="80" height="60" viewBox="0 0 80 60" fill="none" xmlns="http://www.w3.org/2000/svg"><path d="M48.574 14.973c-.002 1.397-1.1 2.528-2.454 2.526-1.352-.002-2.448-1.136-2.446-2.533.002-1.397 1.1-2.528 2.454-2.526 1.353.002 2.448 1.136 2.446 2.533zm16.75.027c.003-1.396-1.092-2.53-2.445-2.533-1.353-.002-2.451 1.129-2.453 2.526-.003 1.397 1.093 2.531 2.446 2.533 1.352.003 2.45-1.128 2.453-2.525zm14.623-4.236c-.178 3.407-.77 6.587-1.06 7.793-.149.624-.308 1.252-.462 1.86l-.021.081c-.379 1.495-1.611 3.888-3.454 4.357a2.427 2.427 0 01-1.414-.058c-1.165 4.171-3.704 8.343-7.077 11.582-1.801 1.73-3.728 3.098-5.727 4.068C58.606 41.477 56.51 42 54.5 42c-2.008 0-4.103-.522-6.227-1.55-1.997-.969-3.923-2.335-5.722-4.062-3.378-3.24-5.922-7.415-7.087-11.59a2.427 2.427 0 01-1.415.058c-1.842-.47-3.074-2.863-3.453-4.357l-.023-.09c-.154-.605-.312-1.231-.46-1.851-.29-1.206-.882-4.387-1.06-7.793-.263-5.012.46-8.321 2.148-9.835.924-.828 2.093-1.105 3.476-.823.9.184 1.706.573 2.486.95.864.416 1.68.81 2.534.882.352.03.767.025 1.205.02 1.185-.015 2.505-.03 3.466.622C47.692.87 51.1.001 54.5.001c3.396 0 6.801.866 10.121 2.574l.01.006c.963-.653 2.282-.637 3.468-.623.438.005.852.01 1.204-.02.855-.072 1.67-.466 2.534-.882.78-.376 1.586-.766 2.486-.95 1.384-.28 2.553-.003 3.477.824 1.688 1.514 2.411 4.823 2.148 9.834zm-3.152-8.64c-.556-.499-1.268-.65-2.175-.465-.718.146-1.407.478-2.136.83-.948.457-1.928.93-3.056 1.026-.424.036-.873.03-1.348.025-1.073-.013-2.29-.028-2.796.523-.257.28-.366.76-.323 1.427a.782.782 0 01-.713.842.775.775 0 01-.814-.737c-.044-.672.03-1.257.214-1.75-3.012-1.5-6.089-2.262-9.149-2.262-3.06 0-6.135.76-9.149 2.262.185.493.257 1.078.215 1.75a.775.775 0 01-.815.737.782.782 0 01-.713-.842c.043-.666-.066-1.146-.322-1.427-.506-.551-1.723-.536-2.796-.523-.475.005-.925.01-1.348-.025-1.128-.096-2.109-.569-3.057-1.026-.729-.352-1.417-.684-2.135-.83-.908-.186-1.62-.033-2.175.465-1.277 1.144-1.854 4.182-1.625 8.555.172 3.289.741 6.343 1.018 7.5.146.61.304 1.23.456 1.83l.022.09c.344 1.355 1.366 2.974 2.34 3.222.162.041.658.167 1.343-.61.302-.341.538-.805.766-1.505.303-.93.497-1.88.701-2.886.299-1.462.607-2.973 1.278-4.406.423-.904.966-1.776 1.708-2.745a.75.75 0 011.075-.13.808.808 0 01.126 1.11c-.67.877-1.157 1.656-1.531 2.454-.59 1.258-.865 2.61-1.157 4.042-.205 1.006-.417 2.046-.749 3.064-.185.57-.5 1.404-1.085 2.067l-.086.095c1.02 4.064 3.476 8.182 6.788 11.359 3.438 3.297 7.414 5.189 10.908 5.189 3.497 0 7.476-1.895 10.916-5.198 3.308-3.176 5.76-7.29 6.78-11.35a4.814 4.814 0 01-.087-.095c-.585-.663-.9-1.497-1.085-2.067-.332-1.017-.544-2.057-.749-3.064-.291-1.431-.568-2.784-1.157-4.042-.373-.798-.86-1.577-1.53-2.453a.808.808 0 01.125-1.11.75.75 0 011.075.13c.742.968 1.285 1.84 1.709 2.744.67 1.432.979 2.944 1.277 4.406.205 1.006.398 1.955.701 2.886.229.7.464 1.164.766 1.505.685.777 1.181.651 1.344.61.974-.248 1.995-1.867 2.339-3.223l.02-.08c.154-.603.311-1.227.458-1.84.277-1.155.845-4.21 1.018-7.499.228-4.373-.349-7.41-1.625-8.555zM59.94 34.08a.747.747 0 01-1.08.065l-4.36-4.008-4.36 4.008a.749.749 0 01-1.081-.065.809.809 0 01.063-1.116l4.278-3.931-3.31-3.457a2.223 2.223 0 01-.451-2.4c.338-.835 1.092-1.354 1.97-1.354h5.782c.877 0 1.631.519 1.97 1.355a2.223 2.223 0 01-.452 2.399l-3.31 3.456 4.279 3.932a.81.81 0 01.063 1.116zm-8.76-9.616l3.32 3.47 3.32-3.47a.627.627 0 00.128-.678.595.595 0 00-.557-.384h-5.782a.595.595 0 00-.558.384.627.627 0 00.128.678zm15.12-1.69c.423.706.904 1.506.904 2.481 0 1.554-1.224 2.818-2.729 2.818-1.505 0-2.729-1.264-2.729-2.818 0-.888.465-1.692.875-2.401.104-.178.2-.347.282-.5l1.572-3.018 1.484 2.847c.097.187.216.383.34.591zm-.627 2.48c0-.523-.328-1.069-.674-1.647a12.365 12.365 0 01-.388-.676l-.136-.26-.224.43c-.097.185-.208.377-.315.563-.31.534-.66 1.139-.66 1.59 0 .683.538 1.238 1.2 1.238.66 0 1.197-.555 1.197-1.237z" fill="#586580"/><path d="M19.867 38.805c.425.352.701.876.701 1.468 0 1.06-.865 1.918-1.932 1.918a1.926 1.926 0 01-1.933-1.918c0-.066.013-.129.02-.193l-.063.002c-.352 0-.736-.03-1.153-.099a.872.872 0 01-.721-1.002.877.877 0 011.01-.716c2.074.343 2.74-.584 2.767-.623a.893.893 0 011.205-.251.856.856 0 01.284 1.17 1.89 1.89 0 01-.185.244zm14.88 1.468c0-.066-.012-.129-.019-.193l.063.002c.352 0 .736-.03 1.154-.099a.871.871 0 00.72-1.002.878.878 0 00-1.008-.716c-2.038.337-2.719-.553-2.767-.62a.88.88 0 00-1.193-.28.868.868 0 00-.298 1.197c.01.016.07.111.186.244a1.901 1.901 0 00-.701 1.468c0 1.06.865 1.918 1.931 1.918 1.068 0 1.933-.86 1.933-1.919zm16.688 9.423a.876.876 0 01-1.031.685l-5.271-1.04c-2.673 5.919-10.36 10.207-19.407 10.207S8.99 55.26 6.319 49.342l-5.27 1.039a.876.876 0 01-1.03-.685.871.871 0 01.688-1.024l5.006-.987a10.895 10.895 0 01-.405-2.935c0-.537.054-1.072.133-1.603l-4.735-.934a.87.87 0 11.342-1.708l4.775.941c.122-.386.262-.769.426-1.148a13.684 13.684 0 011.112-3.923c.176-.39.26-.842.249-1.345l-.177-8.718a2.237 2.237 0 01.904-1.85 2.265 2.265 0 012.038-.361l8.772 2.647a23.501 23.501 0 0113.157 0l8.772-2.647a2.267 2.267 0 012.038.36c.589.443.918 1.117.904 1.85l-.177 8.72c-.01.503.073.955.249 1.345a13.709 13.709 0 011.113 3.922c.164.38.304.762.425 1.148l4.775-.941a.88.88 0 011.031.684.871.871 0 01-.69 1.024l-4.735.934c.08.532.134 1.066.134 1.603 0 1.005-.14 1.986-.405 2.935l5.006.987a.872.872 0 01.69 1.024h.001zM44.39 44.75c0-.423-.04-.844-.1-1.264l-3.807.751a.876.876 0 01-1.031-.685.872.872 0 01.69-1.024l3.755-.74a10.157 10.157 0 00-.35-.907.852.852 0 01-.07-.254 11.95 11.95 0 00-.988-3.541c-.28-.626-.415-1.328-.4-2.09l.177-8.719a.512.512 0 00-.209-.427.519.519 0 00-.47-.083l-9.026 2.725a.874.874 0 01-.514-.002 21.716 21.716 0 00-12.64 0 .884.884 0 01-.514.002l-9.026-2.724a.523.523 0 00-.47.083.511.511 0 00-.208.427l.177 8.718c.015.762-.12 1.465-.4 2.09a11.939 11.939 0 00-.987 3.54.868.868 0 01-.07.256c-.134.3-.25.602-.352.907l3.756.74a.871.871 0 11-.342 1.709l-3.808-.751c-.059.42-.1.84-.1 1.264 0 .888.129 1.756.372 2.595l3.536-.697a.878.878 0 011.03.685.871.871 0 01-.688 1.024l-3.232.637c2.525 5.122 9.479 8.812 17.647 8.812 8.167 0 15.121-3.691 17.645-8.813l-3.23-.637a.872.872 0 01-.69-1.024.881.881 0 011.031-.684l3.536.697a9.35 9.35 0 00.37-2.596zm-14.826 4.683h-.012c-1.048.024-1.816-.24-2.3-.757a2.3 2.3 0 01-.51-.92l2.04-2.718a1.006 1.006 0 00-.813-1.607h-4.486a1.005 1.005 0 00-.813 1.606l2.04 2.718a2.304 2.304 0 01-.51.92c-.484.518-1.264.777-2.3.757a.87.87 0 00-.889.859c-.007.48.38.877.865.883h.11c1.516 0 2.698-.446 3.514-1.329a3.7 3.7 0 00.226-.268c.07.09.145.18.226.268.817.883 2 1.33 3.514 1.33h.111a.874.874 0 00.865-.884.875.875 0 00-.878-.858zm6.944-7.123c.495.67 2.962 4.104 2.962 5.834 0 2.01-1.646 3.645-3.67 3.645-2.023 0-3.67-1.636-3.67-3.645 0-1.73 2.468-5.163 2.963-5.834.33-.448 1.085-.448 1.415 0zm1.208 5.834c0-.627-.9-2.28-1.916-3.796-1.015 1.517-1.916 3.17-1.916 3.796 0 1.05.86 1.903 1.916 1.903a1.911 1.911 0 001.916-1.903z" fill="#42AB10"/></svg>