<svg xmlns="http://www.w3.org/2000/svg" preserveAspectRatio="xMidYMid" width="13" height="13" viewBox="0 0 13 13"><path fill="#fff" d="M10.911 8.132c-.469-.464-1.054-.464-1.52 0-.355.353-.71.706-1.06 1.065-.096.099-.176.12-.293.054-.23-.126-.474-.228-.696-.365-1.03-.65-1.893-1.484-2.658-2.424-.379-.467-.716-.966-.952-1.529-.048-.114-.039-.188.054-.281.355-.344.701-.698 1.051-1.051.487-.49.487-1.065-.003-1.559-.278-.281-.556-.556-.833-.837-.287-.288-.571-.578-.86-.862-.469-.458-1.055-.458-1.521.003-.358.353-.701.715-1.066 1.062-.337.32-.507.712-.543 1.17-.057.745.125 1.448.382 2.133C.919 6.13 1.719 7.39 2.69 8.545a14.21 14.21 0 004.706 3.689c.825.401 1.679.709 2.608.76.639.036 1.194-.125 1.639-.625.305-.341.648-.652.971-.978.477-.485.481-1.072.006-1.551-.568-.571-1.138-1.139-1.709-1.708z" class="cls-2" fill-rule="evenodd"/></svg>