<svg width="33" height="31" viewBox="0 0 33 31" fill="none" xmlns="http://www.w3.org/2000/svg"><path d="M32.298 9.337l-3.042-6.216V.656A.644.644 0 0028.624 0H3.742a.644.644 0 00-.632.656V3.12L.068 9.337A.676.676 0 000 9.634v1.613c0 1.916 1.347 3.511 3.11 3.824v13.774h-.647a.644.644 0 00-.632.656c0 .362.283.655.632.655h27.441a.643.643 0 00.631-.655.644.644 0 00-.632-.656h-.647V15.071c1.764-.313 3.11-1.908 3.11-3.824V9.634a.675.675 0 00-.068-.297zM4.374 1.311h23.618v1.311H4.374v-1.31zm15.548 8.257l-.551-5.634h3.809l1.702 5.798v1.515c0 1.417-1.112 2.57-2.478 2.57-1.367 0-2.479-1.153-2.479-2.57V9.634a.698.698 0 00-.003-.066zm-1.26.1v1.579c0 1.417-1.112 2.57-2.479 2.57-1.366 0-2.478-1.153-2.478-2.57v-1.58l.561-5.733H18.1l.561 5.733zm-5.666-5.734l-.552 5.634a.664.664 0 00-.003.066v1.613c0 1.417-1.112 2.57-2.478 2.57-1.367 0-2.478-1.153-2.478-2.57V9.732l1.702-5.798h3.809zM1.264 11.247V9.79L4.13 3.934h3.735L6.248 9.443a.68.68 0 00-.028.191v1.613c0 1.417-1.111 2.57-2.478 2.57-1.366 0-2.478-1.153-2.478-2.57zm24.2 17.598H21.67v-4.589h.632c.35 0 .633-.293.633-.655a.644.644 0 00-.633-.656h-.632v-4.589h3.793v10.49zm2.528 0h-1.265V17.701a.644.644 0 00-.632-.656H6.271a.644.644 0 00-.632.656v9.177c0 .363.283.656.632.656h14.135v1.311H4.374V15.071a3.741 3.741 0 002.479-1.669c.672 1.04 1.815 1.726 3.11 1.726s2.438-.686 3.11-1.726c.672 1.04 1.815 1.726 3.11 1.726s2.438-.686 3.11-1.726c.672 1.04 1.816 1.726 3.11 1.726 1.295 0 2.439-.686 3.11-1.726a3.741 3.741 0 002.479 1.67v13.773zM13.069 18.356h2.202l-1.202 1.246a.673.673 0 000 .928.619.619 0 00.894 0l2.096-2.174h3.347v7.867H6.903V24.75l6.166-6.394zm-6.166 4.54v-4.54h4.378l-4.378 4.54zm24.2-11.65c0 1.418-1.113 2.57-2.479 2.57s-2.478-1.152-2.478-2.57V9.635c0-.065-.01-.13-.027-.191L24.5 3.933h3.735l2.866 5.858v1.456z" fill="#586580"/></svg>