<svg xmlns="http://www.w3.org/2000/svg" width="35" height="35" viewBox="0 0 35 35" fill="none"><path d="M17.493 35c4.67 0 9.059-1.82 12.366-5.127a17.448 17.448 0 005.096-11.482.787.787 0 00-.738-.822.787.787 0 00-.822.739 15.889 15.889 0 01-4.649 10.452 15.838 15.838 0 01-11.263 4.67 15.795 15.795 0 01-11.264-4.67C.01 22.55.01 12.442 6.22 6.233 11.513.94 19.75.055 26.011 4.04l-1.758 2.153 5.044-.51-.51-5.044-1.778 2.184C20.114-1.671 10.972-.725 5.117 5.13c-6.823 6.822-6.823 17.909 0 24.731C8.435 33.18 12.823 35 17.493 35z" fill="#586580"/><path d="M25.74 13.91c0-.01 0-.02-.011-.02 0-.021-.01-.031-.01-.052 0-.01-.01-.031-.01-.042 0-.01-.011-.02-.011-.031a.56.56 0 00-.073-.135l-3.307-4.857a.768.768 0 00-.645-.343H13.29a.764.764 0 00-.644.343l-3.308 4.846c-.03.042-.052.094-.072.136 0 .01-.01.02-.01.03-.011.011-.011.032-.011.042 0 .021-.01.032-.01.052 0 .01 0 .021-.011.021-.01.052-.02.104-.02.156v11.742c0 .426.353.78.78.78H24.97c.426 0 .78-.354.78-.78V14.067c0-.063 0-.115-.01-.156zM13.705 9.99h7.55l2.237 3.286H11.46l2.246-3.286zM24.19 25.028H10.774V14.847H24.2v10.181h-.01z" fill="#586580"/></svg>