<svg xmlns="http://www.w3.org/2000/svg" viewBox="0 0 512 512"><path d="M446.8 494l-67.5-142.8c-1.3-2.8-3.7-5-6.5-6.2l-33.5-15 58.2-97.5c.1-.2.3-.5.4-.7 11.6-22.6 17.4-47 17.4-72.5 0-43-16.8-83.2-47.4-113.4C337.2 15.7 296.7-.6 253.7 0c-41.7.6-81 17.4-110.6 47.2-29.7 29.9-46.1 69.3-46.4 111.1-.2 25.5 5.9 50.9 17.4 73.5.1.2.3.5.4.7l58.2 97.5-33.7 15c-2.8 1.2-5 3.4-6.3 6.1L65.2 494c-2.3 4.8-1.3 10.5 2.4 14.2 3.7 3.8 9.3 4.9 14.2 2.7l84.6-37.6 84.6 37.6c3.3 1.5 7 1.5 10.3 0l84.6-37.6 84.6 37.6c1.7.7 3.4 1.1 5.1 1.1 3.3 0 6.6-1.3 9-3.8 3.5-3.8 4.5-9.5 2.2-14.2zM136.5 219.9c-9.7-19.1-14.6-39.8-14.5-61.5.4-72.4 59.7-132.1 132.1-133.1 36.2-.5 70.3 13.2 96 38.6 25.7 25.4 39.9 59.3 39.9 95.4 0 21.4-4.9 41.8-14.5 60.6L266.9 402.1c-3.3 5.6-8.7 6.2-10.8 6.2-2.2 0-7.5-.6-10.8-6.2L136.5 219.9zm214.3 228c-3.3-1.5-7-1.5-10.3 0L256 485.5l-84.6-37.6c-3.3-1.5-7-1.5-10.3 0L102.6 474l50.9-107.7 32.3-14.4 37.7 63.1c6.9 11.6 19.1 18.5 32.5 18.5s25.6-6.9 32.5-18.5l37.7-63.1 32.3 14.4L409.4 474l-58.6-26.1z"/><path d="M256 101.6c-31.8 0-57.7 25.9-57.7 57.7S224.2 217 256 217c31.8 0 57.7-25.9 57.7-57.7s-25.9-57.7-57.7-57.7zm0 90.1c-17.9 0-32.4-14.5-32.4-32.4s14.5-32.4 32.4-32.4 32.4 14.5 32.4 32.4-14.5 32.4-32.4 32.4z"/></svg>