<svg viewBox="0 0 34 34" xmlns="http://www.w3.org/2000/svg" fill-rule="evenodd" clip-rule="evenodd" stroke-linejoin="round" stroke-miterlimit="1.414"><path d="M17.5 34C8.4 34 1 26.6 1 17.5S8.4 1 17.5 1 34 8.4 34 17.5c0 9-7.4 16.5-16.5 16.5zm2.8-1.394c-.152-.574-.375-1.446-.507-1.601-.331-.388-.742-.87-.742-1.784 0-.915.411-1.397.742-1.785.292-.342.503-.59.503-1.136 0-.545-.211-.793-.503-1.135-.331-.388-.742-.87-.742-1.785 0-.914.411-1.396.742-1.784.292-.342.503-.59.503-1.136 0-.545-.211-.793-.503-1.135-.331-.388-.742-.87-.742-1.785 0-.271.035-.516.108-.749a1.263 1.263 0 00-.192-1.139 18.129 18.129 0 00-.976-1.187c-.731.801-2.187 2.261-2.187 3.075 0 .546.211.794.503 1.136.33.388.741.87.741 1.784s-.411 1.397-.741 1.785c-.292.342-.503.589-.503 1.135s.211.794.503 1.136c.33.388.741.87.741 1.784s-.411 1.397-.741 1.785c-.292.342-.503.59-.503 1.136 0 .545.211.793.503 1.135.24.283.917 1.233.699 2.656L17.5 33a17.276 17.276 0 002.8-.394zm7.397-3.681C30.941 26.131 33 22.11 33 17.5 33 9 26 2 17.5 2S2 9 2 17.5c0 4.739 2.197 8.854 5.354 11.655.017-.873.416-1.341.738-1.719.292-.342.503-.59.503-1.136 0-.545-.211-.793-.503-1.135-.33-.388-.741-.87-.741-1.785 0-.914.411-1.396.741-1.784.292-.342.503-.59.503-1.136 0-.545-.211-.793-.503-1.135-.33-.388-.741-.87-.741-1.784 0-.915.411-1.397.741-1.785.292-.342.503-.59.503-1.135 0-.546-.211-.794-.503-1.136-.33-.388-.741-.87-.741-1.784 0-.749.501-1.616.97-2.176.661-.791 2.43-2.775 3.115-2.775h.025c.74 0 .42 1.873.858 2.47.435.591.559 1.332.341 2.03a1.495 1.495 0 00-.062.451c0 .546.21.793.502 1.135.331.388.742.871.742 1.785 0 .914-.411 1.396-.742 1.784-.292.342-.502.59-.502 1.136 0 .545.21.793.502 1.135.331.388.742.87.742 1.784s-.411 1.397-.742 1.785c-.292.342-.502.59-.502 1.135 0 .546.21.794.502 1.136.331.388.742.87.742 1.784 0 .915-.411 1.397-.742 1.785-.292.342-.502.59-.502 1.136 0 .546.21.793.502 1.136.249.291.896 1.171.833 2.301.698.169 1.403.28 2.111.328.115-1.242-.333-1.787-.499-1.981-.33-.388-.741-.87-.741-1.784 0-.915.411-1.397.741-1.785.292-.342.503-.59.503-1.136 0-.545-.211-.793-.503-1.135-.33-.388-.741-.87-.741-1.785 0-.914.411-1.396.741-1.784.292-.342.503-.59.503-1.136 0-.545-.211-.793-.503-1.135-.33-.388-.741-.87-.741-1.785 0-.622.385-1.438 1.031-2.182.322-.372 1.96-2.401 2.197-2.179.361.229 1.302 1.284 1.741 1.881.435.591.559 1.331.34 2.03a1.488 1.488 0 00-.062.45c0 .546.211.794.503 1.136.33.388.741.87.741 1.784s-.411 1.397-.741 1.785c-.292.342-.503.589-.503 1.135s.211.793.503 1.136c.33.388.741.87.741 1.784s-.411 1.397-.741 1.785c-.292.342-.503.59-.503 1.135 0 .546.211.794.503 1.136.236.278.745 1.086.824 1.978a17.086 17.086 0 002.218-.812c-.154-.196-.335-.399-.436-.517-.33-.388-.741-.87-.741-1.784 0-.915.411-1.397.741-1.785.292-.342.503-.59.503-1.136 0-.546-.211-.793-.503-1.135-.33-.388-.741-.871-.741-1.785 0-.914.411-1.396.741-1.784.292-.342.503-.59.503-1.136 0-.546-.211-.793-.503-1.135-.33-.388-.741-.871-.741-1.785 0-.914.411-1.396.742-1.784.291-.342.502-.59.502-1.136 0-.169-.02-.316-.062-.45a2.257 2.257 0 01.34-2.031 11.37 11.37 0 011.638-1.806c.744-.433 3.331 3.019 3.331 4.288 0 .914-.411 1.396-.741 1.784-.292.342-.503.59-.503 1.135 0 .546.211.794.503 1.136.33.388.741.87.741 1.784s-.411 1.397-.741 1.785c-.292.342-.503.589-.503 1.135s.211.793.503 1.136c.33.388.741.87.741 1.784s-.411 1.397-.741 1.785c-.234.274-.416.488-.472.84zM12.89 32.361c-.129-.844-.394-1.172-.551-1.356-.33-.388-.741-.87-.741-1.784 0-.915.411-1.397.741-1.785.292-.342.503-.59.503-1.136 0-.545-.211-.793-.503-1.135-.33-.388-.741-.87-.741-1.785 0-.914.411-1.396.741-1.784.292-.342.503-.59.503-1.136 0-.545-.211-.793-.503-1.135-.33-.388-.741-.87-.741-1.785 0-.914.411-1.396.741-1.784.292-.342.503-.59.503-1.135 0-.546-.211-.794-.503-1.136-.33-.388-.741-.87-.741-1.784 0-.272.035-.517.108-.749.122-.392-.176-1.072-.42-1.405-.248-.337-.234-1.38-.234-1.38-.599.225-2.702 2.7-2.702 3.534 0 .546.211.793.503 1.135.331.388.742.871.742 1.785 0 .914-.411 1.396-.742 1.784-.292.342-.503.59-.503 1.135 0 .546.211.794.503 1.136.331.388.742.87.742 1.784s-.411 1.397-.742 1.785c-.292.342-.503.589-.503 1.135s.211.794.503 1.136c.331.388.742.87.742 1.784s-.411 1.397-.742 1.785c-.292.342-.503.59-.503 1.136 0 .525.196.774.469 1.094a15.243 15.243 0 004.071 2.046zm13.762-2.605l.014-.535c0-.914.412-1.397.742-1.785.292-.342.503-.59.503-1.136 0-.545-.211-.793-.503-1.135-.33-.388-.742-.87-.742-1.785 0-.914.412-1.396.742-1.784.292-.342.503-.59.503-1.136 0-.545-.211-.793-.503-1.135-.33-.388-.742-.87-.742-1.785 0-.914.412-1.396.742-1.784.292-.342.503-.59.503-1.135 0-.363-.471-1.245-.855-1.788-.278-.444-.913-1.301-1.162-1.301-.418 0-.899.862-1.147 1.2a1.27 1.27 0 00-.192 1.139c.073.232.108.478.108.75 0 .914-.411 1.396-.741 1.784-.292.342-.503.59-.503 1.135 0 .546.211.794.503 1.136.33.388.741.87.741 1.784s-.411 1.397-.741 1.785c-.292.342-.503.589-.503 1.135s.211.794.503 1.136c.33.388.741.87.741 1.784s-.411 1.397-.741 1.785c-.292.342-.503.59-.503 1.136 0 .545.211.793.503 1.135.177.209.378.445.518.759a16.894 16.894 0 002.212-1.359z"/></svg>