<svg xmlns="http://www.w3.org/2000/svg" preserveAspectRatio="xMidYMid" width="36" height="36" viewBox="0 0 36 36"><path d="M27.111 17.273c-.551.968-1.387 1.215-2.062 1.277.166.633.269 1.31.269 2.153 0 1.119-.259 2.081-.77 2.86-.45.685-1.096 1.234-1.922 1.631-1.527.733-3.364.818-4.613.818-1.249 0-3.085-.085-4.612-.818-.826-.397-1.473-.946-1.922-1.631-.511-.779-.77-1.741-.77-2.86 0-.843.102-1.52.268-2.153-.675-.062-1.51-.309-2.061-1.277-.452-.793-.272-1.871.532-3.202.595-.984 1.43-1.92 1.994-2.411 1.231-1.071 2.258-1.045 2.761-.934.211.047.405.124.575.226.877-.64 1.944-.953 3.235-.953s2.358.313 3.235.953a1.95 1.95 0 01.576-.226c.503-.111 1.53-.137 2.761.934.563.491 1.399 1.427 1.993 2.411.805 1.331.984 2.409.533 3.202zm-8.352 3.854c.296-.291.451-.595.451-.747 0-.135-.024-.144-.111-.181-.249-.103-.739-.115-1.086-.115-.346 0-.836.012-1.085.115-.088.037-.111.046-.111.181 0 .152.155.456.45.747.291.286.602.44.746.44.145 0 .455-.154.746-.44zM12.2 12.502c-.481.418-1.24 1.268-1.768 2.143-.557.921-.746 1.679-.518 2.079.335.59.821.704 1.418.719.08-.219.165-.441.253-.672.165-.432.336-.879.513-1.402.428-1.262.939-2.561 1.773-3.561-.28-.037-.876.001-1.671.694zm5.813-1.379c-2.75 0-3.819 1.617-4.83 4.601a36.209 36.209 0 01-.528 1.442c-.466 1.22-.803 2.101-.803 3.537 0 1.68.671 2.819 2.051 3.481.878.422 2.039.651 3.539.696v-2.302c-.449-.17-.815-.491-.983-.656-.236-.232-.786-.847-.786-1.542 0-.568.288-1 .811-1.216.349-.144.792-.203 1.529-.203.738 0 1.181.059 1.529.203.523.216.811.648.811 1.216 0 .695-.549 1.31-.785 1.542-.168.165-.534.486-.983.656v2.302c1.499-.045 2.661-.274 3.538-.696 1.38-.662 2.051-1.801 2.051-3.481 0-1.436-.337-2.317-.803-3.537a37.972 37.972 0 01-.527-1.442c-1.011-2.984-2.08-4.601-4.831-4.601zm7.582 3.521c-.529-.874-1.287-1.724-1.769-2.142-.795-.693-1.39-.731-1.671-.694.835 1 1.346 2.299 1.773 3.561.178.523.348.97.513 1.402.089.231.174.453.254.672.597-.015 1.082-.129 1.418-.719.228-.4.039-1.158-.518-2.08zm-5.685 2.827a.755.755 0 01-.756-.753c0-.416.339-.753.756-.753s.756.337.756.753a.755.755 0 01-.756.753zm-3.799-.006a.75.75 0 01-.751-.747.75.75 0 01.751-.747c.414 0 .75.334.75.747a.749.749 0 01-.75.747z" fill-rule="evenodd"/><circle cx="18" cy="18" r="16" stroke="#000" fill="none"/></svg>