<svg viewBox="0 0 34 34" xmlns="http://www.w3.org/2000/svg" fill-rule="evenodd" clip-rule="evenodd" stroke-linejoin="round" stroke-miterlimit="1.414"><path d="M17.5 34C8.402 34 1 26.598 1 17.5 1 8.402 8.402 1 17.5 1 26.598 1 34 8.402 34 17.5 34 26.598 26.598 34 17.5 34zm0-32C8.953 2 2 8.953 2 17.5S8.953 33 17.5 33 33 26.047 33 17.5 26.047 2 17.5 2zm9.897 8.2c.096 0 .191.096.287.191 1.243 2.199 1.912 4.589 1.816 7.075 0 5.258-2.868 10.039-7.362 12.143h-9.369c-4.494-2.104-7.362-6.789-7.362-12.143 0-2.486.669-4.972 1.912-7.075.095-.095.191-.191.287-.191h19.791zm.621 12.134H6.984c1.076 3.351 4.064 5.841 5.976 6.701h9.083c1.912-.861 4.931-3.506 5.975-6.701zM19.41 27.8a.4.4 0 110 .8.4.4 0 010-.8zm-3.61-.5a.5.5 0 110 1 .5.5 0 010-1zm-2.968-1.229a.478.478 0 110 .956.478.478 0 010-.956zm9.88-.199a.478.478 0 110 .956.478.478 0 010-.956zm-3.819-1.458a.478.478 0 110 .956.478.478 0 010-.956zm-5.742-.478a.478.478 0 110 .956.478.478 0 010-.956zm3.155.191a.383.383 0 110 .766.383.383 0 010-.766zm-5.936-.096a.383.383 0 110 .766.383.383 0 010-.766zm14.168-.382a.478.478 0 110 .956.478.478 0 010-.956zm-3.302-.096a.383.383 0 11-.002.766.383.383 0 01.002-.766zm7.087-10.009c-1.442.174-5.945.675-9.874.675-1.12 0-2.193-.041-3.135-.141-4.123-.441-7.899-.289-8.783-.243a11.203 11.203 0 00-.455 3.631c.089 1.966.231 2.602.717 4.199h3.633a2.876 2.876 0 01-.86-1.339c-.096-.191 0-.286.191-.382.191-.096.287 0 .382.191 0 0 .192.765.861 1.243v-2.39c0-.191.095-.287.287-.287.191 0 .286.096.286.287v2.39a3.197 3.197 0 00.765-1.243c0-.095.192-.287.383-.191.095 0 .287.191.191.382 0 0-.191.765-.86 1.339h9.715l-1.263-1.103a.39.39 0 01.513-.588l1.315 1.149v-1.147l-1.72-1.262a.39.39 0 11.461-.629l1.259.924v-.375l-1.44-1.325a.39.39 0 11.527-.574l.913.839v-1.679a.39.39 0 11.779 0v1.437l.431-.55a.389.389 0 11.613.48l-1.044 1.335v1.088l1.25-1.531a.39.39 0 11.605.492l-.063.077c.101.038.151.126.151.265v2.39a3.197 3.197 0 00.765-1.243c0-.095.192-.287.383-.191.095 0 .287.191.191.382 0 0-.191.765-.86 1.339v.096h2.645c.309-1.064.653-2.327.653-4.295 0-1.37-.157-2.677-.508-3.922zm-5.098 7.236l-.114.139v.746h.796a2.849 2.849 0 01-.682-.885zm1.256-1.54l-.824 1.011c.081.232.314.763.824 1.127V19.24zm2.725-8.371H7.797a13.82 13.82 0 00-1.137 2.547 60.583 60.583 0 018.797.259c4.087.436 11.005-.329 12.745-.537a11.8 11.8 0 00-.996-2.269z"/></svg>