<svg xmlns="http://www.w3.org/2000/svg" preserveAspectRatio="xMidYMid" width="35" height="35" viewBox="0 0 35 35"><path d="M23.695 17.71c-2.047 3.841-4.958 6.023-8.081 6.023-3.336 0-6.426-2.487-8.484-6.823l-.145-.306.145-.305c2.056-4.338 5.148-6.825 8.484-6.825 3.123 0 6.034 2.182 8.081 6.023l3.188-3.319v8.851l-3.188-3.319zm.811-1.106l1.052 1.095v-2.19l-1.052 1.095zm-8.892-5.749c-.605 0-1.202.101-1.785.299.726 1.592 1.122 3.496 1.122 5.45 0 1.954-.396 3.858-1.122 5.449.585.198 1.18.3 1.785.3 2.735 0 5.328-2.091 7.147-5.749-1.819-3.659-4.412-5.749-7.147-5.749zm-2.996 10.637c.652-1.414 1.008-3.122 1.008-4.888 0-1.765-.356-3.475-1.008-4.888-1.582.936-3.016 2.606-4.151 4.888 1.135 2.282 2.569 3.952 4.151 4.888zm-.982-5.579v1.381H10.31v-1.381h1.326z" fill-rule="evenodd" opacity=".9"/><circle cx="17" cy="17" r="16" opacity=".9" stroke="#000" fill="none"/></svg>