<svg xmlns="http://www.w3.org/2000/svg" preserveAspectRatio="xMidYMid" width="34" height="35" viewBox="0 0 34 35"><circle cx="17" cy="18" r="16" stroke="#000" fill="none"/><path d="M25.598 19.443l-.757.194a6.696 6.696 0 01-.196.83l-.019.055.115-.018a.537.537 0 01.602.473.555.555 0 01-.449.633l-.742.113c-2.014 4.141-6.507 4.274-7.056 4.274h-.037c-.549 0-5.025-.132-7.045-4.248l-.908-.139a.555.555 0 01-.449-.633.538.538 0 01.602-.473l.277.043c-.008-.027-.018-.052-.026-.08a6.545 6.545 0 01-.2-.851l-.908-.233a.56.56 0 01-.39-.675.53.53 0 01.641-.41l.571.146a6.15 6.15 0 01.815-2.96c-.119-3.801 1.494-5.286 1.564-5.349a.512.512 0 01.7.012l2.024 1.928a8.258 8.258 0 012.72-.458h.048c.942 0 1.859.154 2.732.458l2.024-1.928a.512.512 0 01.7-.012c.07.063 1.683 1.548 1.565 5.349.242.408.79 1.492.815 2.98l.415-.106a.53.53 0 01.642.41.56.56 0 01-.39.675zm-2.446-3.468a.578.578 0 01-.104-.359c.105-2.331-.508-3.658-.893-4.251l-1.85 1.761a.512.512 0 01-.543.109 7.252 7.252 0 00-2.666-.501h-.037c-.926 0-1.823.169-2.667.501a.509.509 0 01-.543-.109l-1.85-1.762c-.384.592-.998 1.919-.892 4.252a.578.578 0 01-.105.359c-.038.055-.763 1.127-.715 2.741l2.415.619a.56.56 0 01.39.674.536.536 0 01-.515.427.508.508 0 01-.127-.016l-1.99-.51a6.471 6.471 0 00.276.82l1.916.293a.554.554 0 01.45.633.541.541 0 01-.602.472l-1.128-.172c1.879 2.827 5.246 2.924 5.687 2.924h.036c.443 0 3.829-.098 5.704-2.95l-1.299.198a.541.541 0 01-.602-.472.554.554 0 01.449-.633l2.082-.318a7.527 7.527 0 00.259-.773l-2.139.548a.495.495 0 01-.126.016.537.537 0 01-.515-.426.56.56 0 01.39-.675l2.567-.658c.053-1.65-.703-2.748-.713-2.762zm-3.328 2.586c-.504 0-.914-.431-.914-.961s.41-.961.914-.961.914.431.914.961-.41.961-.914.961zm-.675 3.409c-.456.48-.904.589-1.217.589l-.057-.002a1.532 1.532 0 01-.78-.263 1.54 1.54 0 01-.838.265c-.313 0-.761-.109-1.217-.589a.579.579 0 010-.789.511.511 0 01.751 0c.171.179.338.269.48.26a.57.57 0 00.315-.133l-.597-1.33a.42.42 0 01.024-.391.378.378 0 01.325-.188h1.513a.38.38 0 01.326.188c.071.118.08.264.023.391l-.597 1.331a.576.576 0 00.32.132c.149.003.306-.083.475-.26a.511.511 0 01.751 0 .577.577 0 010 .789zm-4.784-3.409c-.504 0-.914-.431-.914-.961s.41-.961.914-.961.914.431.914.961-.41.961-.914.961z" fill-rule="evenodd"/></svg>