<svg width="291" height="290" viewBox="0 0 291 290" fill="none" xmlns="http://www.w3.org/2000/svg"><path fill-rule="evenodd" clip-rule="evenodd" d="M63.822 6.068c18.463-21.955 55.158-29.784 82.164-20.09 27.761 9.965 38.742 43.097 53.349 68.734 9.897 17.37 5.223 40.677 17.832 56.19 18.617 22.904 59.574 24.157 69.938 51.795 9.722 25.925-5.311 56.05-20.931 78.891-15.61 22.828-38.406 44.884-65.876 48.05-27.334 3.15-48.056-24.791-74.656-31.853-20.295-5.388-42.918 4.915-61.757-4.365-19.693-9.699-33.302-28.383-43.84-47.647-10.89-19.906-24.129-42.861-17.547-64.567 6.675-22.013 41.254-24.016 50.758-44.96 12.72-28.032-9.243-66.624 10.566-90.178z" fill="#E7ECE7"/></svg>