<svg xmlns="http://www.w3.org/2000/svg" preserveAspectRatio="xMidYMid" width="54" height="53" viewBox="0 0 54 53"><path fill="#fff" fill-rule="evenodd" d="M53.817 36.302a73.423 73.423 0 00-2.396 3.978c-.005.012-.007.023-.013.036-1.91 3.959-3.92 7.865-5.974 11.749a1.218 1.218 0 01-.216.289c-.212.453-.67.757-1.283.545-11.797-4.1-25.27-13.772-35.006-21.45-.332-.261-.433-.581-.39-.883a1.2 1.2 0 01.113-.737c.756-1.564 1.616-3.055 2.531-4.509a27.009 27.009 0 01-2.789-2.446c-2.611-2.601-4.89-5.57-6.436-8.952C.861 11.519-.295 8.041.058 5.064c.128-1.084.456-2.101 1.06-2.976C3.107-.799 6.851-.19 9.652.901c1.614.629 3.258 1.401 4.751 2.288 4.794 2.842 14.035 9.19 13.028 15.871 8.488 5.302 18.15 11.029 25.875 15.536.183.107.312.241.403.387.314.327.437.815.108 1.319zM14.905 5.93C11.819 3.849 3.474-1.259 2.082 5.013c0 .018.004.033.004.051-.074 5.796 2.398 10.111 5.961 14.401.978 1.177 2.487 2.879 4.193 4.223 1.989-2.97 4.178-5.805 6.241-8.74a1.21 1.21 0 01.251-.262c.315-.417.86-.629 1.427-.258a401.433 401.433 0 005.323 3.41c-.169-4.83-7.31-9.704-10.577-11.908zm4.946 11.081c-1.899 2.657-3.871 5.253-5.674 7.964a7.372 7.372 0 001.714.676c.122-.74.409-1.432.866-1.958.063-.073.129-.142.197-.208 2.019-1.945 5.94-.574 6.963 1.899.518 1.253-.036 3.494-1.155 4.33-1.323.988-3.46 1.226-4.938.485-.979-.49-1.597-1.45-1.859-2.525-.959-.186-1.912-.571-2.832-1.08a48.591 48.591 0 00-2.057 3.597c9.014 7.107 21.821 16.174 32.651 20.137a355.77 355.77 0 005.264-10.339c.023-.121.062-.244.132-.37a78.52 78.52 0 012.097-3.539c-9.442-5.532-22.194-13.094-31.369-19.069zm-.17 7.718c-.38-.038-.782.071-1.169.414a1.532 1.532 0 00-.367.481 4.052 4.052 0 001.536-.895zm-1.039 2.878c.485.504 1.175.826 1.804.7.393-.08.667-.25.845-.476.375-.474.314-1.192.004-1.82-.015.015-.024.031-.04.047-.835.813-1.715 1.303-2.613 1.549zm27.957 10.166a11.372 11.372 0 01-1.139-.675c-.45.675-.861 1.371-1.254 2.075.279.155.561.304.852.435.573.259.698 1.077.404 1.574-.346.585-1.01.668-1.581.41a11.462 11.462 0 01-.727-.364c-.3.645-.587 1.298-.847 1.965.096.064.192.128.291.184.241.138.506.276.692.349.584.23.978.77.792 1.421-.16.558-.842 1.026-1.427.796a9.002 9.002 0 01-2.495-1.491.908.908 0 01-.159-.176c-.229-.246-.331-.6-.172-1.029 1.088-2.96 2.462-5.77 4.331-8.324a1.17 1.17 0 01.85-.493c.375-.085.777.036 1.098.302.507.42 1.084.755 1.669 1.057.558.288.711 1.056.403 1.575-.333.563-1.024.696-1.581.409zm-10.06 3.677c.348.215.718.405 1.037.53.584.229.977.771.791 1.419-.159.558-.841 1.025-1.426.796a9.568 9.568 0 01-2.626-1.528c-.217-.178-.314-.443-.324-.715a1.055 1.055 0 01.076-.537C35.389 38.133 37 35 38.735 31.916c.732-1.3 2.714-.129 1.986 1.165-1.532 2.723-2.979 5.487-4.182 8.369zm-2.811-.835c-.481 1.402-2.702.786-2.218-.623.171-.5.318-1.008.477-1.512a1.259 1.259 0 01-.385-.125c-.565-.29-1.11-.613-1.655-.939-.328.347-.654.695-.983 1.042-1.027 1.084-2.636-.559-1.616-1.636 2.4-2.534 4.784-5.083 7.183-7.617.635-.846 2.31-.207 2.021 1.061-.794 3.491-1.66 6.96-2.824 10.349zm-2.159-4.92c.356.209.715.411 1.079.603.231-.817.459-1.636.67-2.458-.582.619-1.166 1.236-1.749 1.855zm-1.701-7.559c-.274-.139-.723-.399-.933-.136-.27.338-.264.965-.285 1.365-.006.117-.03.22-.061.318.169 1.902.103 4.094-1.042 5.668-1.435 1.977-3.631 1.054-5.098-.319-1.086-1.016.569-2.628 1.648-1.619.787.736 1.476 1.275 1.881.028.393-1.21.455-2.515.312-3.774a1.23 1.23 0 01.068-.563c.084-1.168.379-2.468 1.437-3.132 1.047-.658 2.23-.34 3.251.179 1.327.676.139 2.655-1.178 1.985z"/></svg>