<svg xmlns="http://www.w3.org/2000/svg" preserveAspectRatio="xMidYMid" width="697" height="181" viewBox="0 0 697 181"><path d="M687 160.012c-4.909 2.678-9.26 4.016-13.056 4.016h-2.013c-2.837 0-4.85-8.032-6.039-24.096h-1.035c-6.25 10.021-12.27 17.384-18.06 22.088h-3.048l-9.03-2.008c4.678-23.981 7.017-39.032 7.017-45.152 4.026-2.64 7.726-3.959 11.101-3.959h.977l1.036 3.959h-1.036l1.036 2.008c0 1.53-.346 2.869-1.036 4.016l1.036 2.008c-.691 6.388-1.362 10.078-2.013 11.073h2.013l9.029-13.081c3.489-8.682 7.515-13.024 12.079-13.024 4.331-1.338 7.341-2.008 9.029-2.008l2.013 3.041v2.008c-2.493 3.06-4.505 11.743-6.039 26.047 1.342 8.989 3.355 16.677 6.039 23.064zm-4.026-49.111v-2.008h-2.013c.23 1.34.901 2.008 2.013 2.008zm-62.346 53.127c-1.534-.191-3.604-3.307-6.212-9.352h1.035c-1.38-2.83-2.07-4.914-2.07-6.253h1.035c-.689-1.032-1.035-3.117-1.035-6.253h-1.092c-4.601 12.506-8.417 18.76-11.446 18.76-2.53 0-6.001-5.545-10.41-16.637h-2.071c0 8.146-2.435 14.381-7.304 18.703h-3.163c-7.383-.848-11.482-2.859-12.314-6.026-4.969 4.704-9.051 7.058-12.244 7.058h-1.036c-1.381 0-2.07-1.721-2.07-5.163h-1.035l-8.225 4.131c-10.315-2.066-15.472-8.912-15.472-20.54 2.991-4.59 6.768-8.012 11.331-10.27h5.176c4.869 1.378 7.611 2.066 8.225 2.066v-5.164c0-.688.345-1.033 1.035-1.033-1.419-4.092-2.799-6.139-4.141-6.139-4.026 4.476-7.458 6.867-10.295 7.172v-1.033l-2.071 1.033c-4.103 0-6.154-2.045-6.154-6.139 3.911-10.288 9.049-15.433 15.414-15.433 0-1.377 1.38-2.065 4.141-2.065 10.314 0 15.472 6.158 15.472 18.473v1.033c0 1.57-.346 2.946-1.035 4.131 0 .689.344 1.033 1.035 1.033l-1.035 7.171v4.131c1.705 6.772 2.706 11.451 3.007 14.047 5.743-7.019 10.551-18.37 14.418-34.07 0-9.715 1.036-14.572 3.106-14.572h7.305c4.179.994 6.269 4.818 6.269 11.474 0 1.836 1.38 7.727 4.141 17.671 1.38 0 4.16-10.059 8.34-30.178l2.071-1.033h6.268l6.269 4.189c0 .726-.344 1.759-1.035 3.098 0 16.486 3.815 30.006 11.446 40.562v1.033c0 4.934-4.161 8.396-12.481 10.384h-1.093zm-77.586-22.605c-4.142.689-6.212 1.722-6.212 3.098 0 4.093 2.07 6.139 6.212 6.139h.977c.996 0 2.032-1.032 3.106-3.098 0-3.403-1.361-5.45-4.083-6.139zm-10.353-20.539v1.032h2.07l1.036-4.131c-.998 0-2.033 1.033-3.106 3.099zm25.767-8.261l-2.071-1.033v1.033l2.071 1.032v-1.032zm35.083-.574l-2.071-1.033c.691 1.339 1.035 2.371 1.035 3.098h1.036v-2.065zm27.089-1.033h-1.035v2.066h1.035v-2.066zm8.34 45.726h1.093l1.035-4.131h-2.128v4.131zm-125.669 7.286h-6.097c-7.132 0-13.938-4.073-20.417-12.22-2.723-6.54-4.084-11.971-4.084-16.294 0-13.884 5.789-23.044 17.369-27.481l8.167-2.009c11.081 0 18.903 3.385 23.466 10.156l1.035 7.114v1.033c-1.188 8.147-2.895 12.22-5.118 12.22h-5.119c-3.375-1.798-5.081-3.156-5.119-4.073.691-3.748 1.035-6.464 1.035-8.147 0-3.404-1.706-5.107-5.118-5.107-6.097 0-9.836 5.776-11.216 17.327 2.877 9.486 7.305 14.228 13.286 14.228h4.084l8.167-6.081h2.013c3.374 1.759 5.08 3.118 5.118 4.073v2.008c-5.75 8.836-12.903 13.253-21.452 13.253zm10.237-49.914h1.035v-2.008h-3.105c.23 1.339.921 2.008 2.07 2.008zm-26.571 12.221v4.073H488c0-1.033.69-2.39 2.07-4.073h-3.105zm29.619 23.465h3.049l1.035-2.065h-1.035c-1.304.688-2.32 1.032-3.049 1.032v1.033zm-72.007 14.228c-3.259 0-6.039-4.149-8.34-12.45 8.129-6.233 12.633-9.351 13.516-9.351v-1.033c-.039-.689-7.324-5.527-21.856-14.515-3.45-2.984-5.175-5.738-5.175-8.262 8.243-8.299 13.093-12.45 14.55-12.45 2.684 7.229 8.915 14.478 18.693 21.744H457c3.067-13.118 4.811-19.678 5.233-19.678 4.524 0 7.976 1.376 10.353 4.13 0 13.617-5.541 27.788-16.621 42.513-3.681 4.17-7.478 7.287-11.388 9.352zm-10.411-52.898l-1.035 2.066h3.106c0-1.377-.69-2.066-2.071-2.066zm34.279 4.188h1.035c0-1.414-.689-2.122-2.07-2.122h-1.036c.231 1.415.921 2.122 2.071 2.122zm-97.89 48.71h-6.096c-7.132 0-13.938-4.073-20.417-12.22-2.723-6.54-4.084-11.971-4.084-16.294 0-13.884 5.789-23.044 17.369-27.481l8.167-2.009c11.081 0 18.903 3.385 23.466 10.156l1.035 7.114v1.033c-1.188 8.147-2.895 12.22-5.119 12.22h-5.118c-3.375-1.798-5.081-3.156-5.119-4.073.69-3.748 1.035-6.464 1.035-8.147 0-3.404-1.706-5.107-5.119-5.107-6.096 0-9.835 5.776-11.215 17.327 2.877 9.486 7.305 14.228 13.286 14.228h4.084l8.166-6.081h2.013c3.375 1.759 5.081 3.118 5.119 4.073v2.008c-5.751 8.836-12.903 13.253-21.453 13.253zm10.238-49.914h1.035v-2.008h-3.106c.231 1.339.921 2.008 2.071 2.008zm-26.572 12.221v4.073h1.036c0-1.033.69-2.39 2.07-4.073h-3.106zm29.62 23.465h3.048l1.036-2.065h-1.036c-1.303.688-2.319 1.032-3.048 1.032v1.033zm-86.674 14.228h-2.013c-2.837 0-4.85-8.032-6.039-24.096h-1.035c-6.25 10.021-12.27 17.384-18.06 22.088h-3.048l-9.029-2.008c4.677-23.981 7.016-39.032 7.016-45.152 4.026-2.64 7.726-3.959 11.101-3.959h.978l1.035 3.959h-1.035l1.035 2.008c0 1.53-.346 2.869-1.035 4.016l1.035 2.008c-.691 6.388-1.362 10.078-2.013 11.073h2.013l9.029-13.081c3.489-8.682 7.515-13.024 12.079-13.024 4.331-1.338 7.341-2.008 9.029-2.008l2.013 3.041v2.008c-2.492 3.06-4.505 11.743-6.039 26.047 1.342 8.989 3.355 16.677 6.039 23.064-4.909 2.678-9.26 4.016-13.056 4.016zm9.03-53.127v-2.008h-2.013c.23 1.34.901 2.008 2.013 2.008zm-62.346 53.127c-1.533-.191-3.604-3.307-6.212-9.352h1.036c-1.38-2.83-2.071-4.914-2.071-6.253h1.035c-.689-1.032-1.035-3.117-1.035-6.253h-1.092c-4.601 12.506-8.417 18.76-11.445 18.76-2.531 0-6.002-5.545-10.411-16.637h-2.07c0 8.146-2.435 14.381-7.305 18.703h-3.163c-8.321-.956-12.481-3.385-12.481-7.287 5.828-6.999 10.698-18.435 14.609-34.309 0-9.715 1.035-14.572 3.106-14.572h7.304c4.179.994 6.269 4.818 6.269 11.474 0 1.836 1.38 7.727 4.142 17.671 1.38 0 4.159-10.059 8.339-30.178l2.071-1.033h6.268l6.27 4.189c0 .726-.345 1.759-1.036 3.098 0 16.486 3.815 30.006 11.446 40.562v1.033c0 4.934-4.161 8.396-12.481 10.384h-1.093zm-27.089-51.979l-2.071-1.033c.691 1.339 1.036 2.371 1.036 3.098h1.035v-2.065zm27.089-1.033h-1.035v2.066h1.035v-2.066zm8.34 45.726h1.093l1.035-4.131h-2.128v4.131zm-65.624-26.335l-1.035 7.172v4.131c2.07 8.224 3.106 13.368 3.106 15.433-5.025 4.782-9.146 7.172-12.366 7.172h-1.035c-1.381 0-2.071-1.722-2.071-5.164h-1.035l-8.225 4.131c-10.315-2.065-15.471-8.912-15.471-20.54 2.99-4.589 6.767-8.012 11.33-10.269h5.176c4.869 1.377 7.611 2.065 8.225 2.065v-5.164c0-.687.345-1.032 1.035-1.032-1.419-4.092-2.799-6.139-4.141-6.139-4.026 4.476-7.458 6.866-10.295 7.171v-1.032l-2.071 1.032c-4.103 0-6.154-2.045-6.154-6.139 3.911-10.288 9.049-15.432 15.414-15.432 0-1.378 1.38-2.066 4.141-2.066 10.314 0 15.472 6.159 15.472 18.474v1.032c0 1.57-.346 2.947-1.035 4.131 0 .689.344 1.033 1.035 1.033zm-20.59 11.303c-4.141.688-6.212 1.721-6.212 3.098 0 4.093 2.071 6.139 6.212 6.139h.977c.997 0 2.032-1.033 3.106-3.098 0-3.404-1.361-5.451-4.083-6.139zm-10.353-20.54v1.033h2.07l1.036-4.131c-.997 0-2.033 1.032-3.106 3.098zm25.767-8.261l-2.071-1.033v1.033l2.071 1.033v-1.033zM95.15 170.323c-47.876 0-84.15-34.469-84.15-79.224 0-41.752 32.154-76.341 74.529-79.933 1.96-.17 3.79.988 4.48 2.823l2.671 7.094c1 2.654-.77 5.567-3.601 5.866-10.101 1.048-20.862 4.629-31.613 12.281-43.505 30.948-19.713 83.724-11.582 92.134 7.581 7.832 36.785 39.637 89.571 11.334 1.33-.709 2.91-.14 3.42 1.227l2.28 6.045c1.271 3.393-.04 7.234-3.16 9.079-11.401 6.724-25.573 11.274-42.845 11.274zm-63.147-42.012s-9.251-9.916-12.252-25.53c0 0 .5 18.776 12.252 25.53zm19.982-91.266c-.88.479-32.054 17.589-25.503 54.542-.22-2.414-2.61-34.389 25.503-54.542z" fill-rule="evenodd" fill="#c02355"/><path d="M133.001 134.141c-10.036 9.226-23.438 14.863-38.145 14.863h-.173a35.17 35.17 0 01-2.063-.053 29.3 29.3 0 01-2.183-.119c-.253-.014-.492-.04-.732-.067a19.216 19.216 0 01-1.757-.186 34.708 34.708 0 01-1.677-.226c-.399-.067-.785-.12-1.171-.186a56.894 56.894 0 01-5.683-1.29 41.308 41.308 0 01-2.423-.731l.014-.027 17.249-41.746c2.715 2.753 7.959 7.073 14.84 8.31a28.72 28.72 0 005.097.438c5.298 0 9.49-1.369 10.861-1.861.426.771 3.168 5.65 4.339 8.283 1.451 3.244 3.061 9.187 3.154 9.559l-2.209-.917s1.437 3.204 2.662 5.956zm-6.149-31.283c-2.103.585-2.942 1.582-3.021 3.35 0 .346.013.758.066 1.21-.758.279-7.054 2.579-14.081 1.316-6.988-1.263-12.179-6.514-13.869-8.442l12.923-31.296 4.14 10.596c.838.133 6.375 1.063 9.157 2.379 3.008 1.41 2.515 5.598 4.019 6.688 1.504 1.09 2.835 1.422 3.594 1.834.745.413 1.757 4.015 1.584 6.435-.16 2.433-2.423 5.331-4.512 5.93z" fill="#30559a" fill-rule="evenodd"/><path d="M95.271 87.091c-1.76.854-5.149 2.215-9.107 2.321-3.521.08-7.254-1.788-9.531-3.202.741-.681 1.324-1.241 1.588-1.615.557-.774-.092-1.748-1.389-2.828-3.799-3.19-13.145-7.219-14.125-9.248-1.31-2.722-1.244-13.717 1.324-14.744.781-.307 2.092-.427 3.614-.427 3.561 0 8.26.614 9.928.827.079 0 .159.014.252.014 1.972 0 3.918-2.736 6.618-3.096 3.204-.44 5.083.067 5.931-.894 1.429-1.628.675-2.576.675-5.724 0-2.149.423-3.977 1.032-5.498 1.628-4.056 4.62-5.978 4.62-5.978l9.279 23.952-10.709 26.14zm-31.915 23.297c.119-.293 2.052-5.003 2.913-6.538.9-1.575 4.911-6.925 4.911-6.925l-1.96-.067-1.323-.053s1.893-3.256 4.606-6.472l.755-1.494c.106.066.238.16.37.253 2.476 1.641 7.32 4.364 12.271 4.364.119 0 .252-.014.371-.014 2.581-.067 4.937-.587 6.896-1.201l-.913 2.229-20.279 49.531c-5.534-2.482-10.59-5.858-15.011-9.915L67.34 108.72l-3.984 1.668z" fill="#a3cd3a" fill-rule="evenodd"/><path d="M64.497 94.873l-3.476 5.876 2.547.08c-.324.47-.58.872-.755 1.181-.983 1.73-2.842 6.157-3.206 7.029l-3.772 9.069 3.448-1.436-6.803 13.321c-8.986-10.101-14.496-23.355-14.496-37.924 0-30.398 23.805-55.189 53.861-57.067l.122 1.234c-2.088 2.415-4.46 6.413-4.46 12.101 0 .966.054 1.77.108 2.388-.862.026-1.994.067-3.314.241-2.358.322-4.149 1.529-5.456 2.415-.297.187-.714.469-.984.63-2.02-.255-6.547-.791-10.117-.791-2.331 0-3.934.214-5.173.697-1.577.631-2.776 1.945-3.544 3.917-1.656 4.239-1.643 12.999.041 16.434 1.051 2.173 3.53 3.622 8.582 6.439 1.549.858 4.001 2.227 5.671 3.34-1.118 1.02-2.425 2.24-3.543 3.528-3.045 3.528-5.2 7.15-5.281 7.298z" fill="#fecf0a" fill-rule="evenodd"/></svg>