<svg id="Layer_1" xmlns="http://www.w3.org/2000/svg" viewBox="0 0 852 224"><style>.st0{fill:#c02355}.st1{fill:#30559a}.st2{fill:#a3cd3a}.st3{fill:#fecf0a}.st5{fill:#fff}</style><path class="st0" d="M719.3 203c-4.9 2.7-9.3 4-13.1 4h-2c-2.8 0-4.8-8-6-24.1h-1c-6.3 10-12.3 17.4-18.1 22.1h-3l-9-2c4.7-24 7-39 7-45.2 4-2.6 7.7-4 11.1-4h1l1 4h-1l1 2c0 1.5-.3 2.9-1 4l1 2c-.7 6.4-1.4 10.1-2 11.1h2l9-13.1c3.5-8.7 7.5-13 12.1-13 4.3-1.3 7.3-2 9-2l2 3v2c-2.5 3.1-4.5 11.7-6 26 1.3 9.1 3.3 16.8 6 23.2zm-4-49.1v-2h-2c.2 1.3.9 2 2 2zM653 207c-1.5-.2-3.6-3.3-6.2-9.4h1c-1.4-2.8-2.1-4.9-2.1-6.3h1c-.7-1-1-3.1-1-6.3h-1.1c-4.6 12.5-8.4 18.8-11.4 18.8-2.5 0-6-5.5-10.4-16.6h-2.1c0 8.1-2.4 14.4-7.3 18.7h-3.2c-7.4-.8-11.5-2.9-12.3-6-5 4.7-9.1 7.1-12.2 7.1h-1c-1.4 0-2.1-1.7-2.1-5.2h-1l-8.2 4.1c-10.3-2.1-15.5-8.9-15.5-20.5 3-4.6 6.8-8 11.3-10.3h5.2c4.9 1.4 7.6 2.1 8.2 2.1V172c0-.7.3-1 1-1-1.4-4.1-2.8-6.1-4.1-6.1-4 4.5-7.5 6.9-10.3 7.2v-1l-2.1 1c-4.1 0-6.2-2-6.2-6.1 3.9-10.3 9-15.4 15.4-15.4 0-1.4 1.4-2.1 4.1-2.1 10.3 0 15.5 6.2 15.5 18.5v1c0 1.6-.3 2.9-1 4.1 0 .7.3 1 1 1l-1 7.2v4.1c1.7 6.8 2.7 11.5 3 14 5.7-7 10.6-18.4 14.4-34.1 0-9.7 1-14.6 3.1-14.6h7.3c4.2 1 6.3 4.8 6.3 11.5 0 1.8 1.4 7.7 4.1 17.7 1.4 0 4.2-10.1 8.3-30.2l2.1-1h6.3l6.3 4.2c0 .7-.3 1.8-1 3.1 0 16.5 3.8 30 11.4 40.6v1c0 4.9-4.2 8.4-12.5 10.4h-1zm-77.6-22.6c-4.1.7-6.2 1.7-6.2 3.1 0 4.1 2.1 6.1 6.2 6.1h1c1 0 2-1 3.1-3.1 0-3.3-1.4-5.4-4.1-6.1zM565 163.9v1h2.1l1-4.1c-1 0-2 1-3.1 3.1zm25.8-8.3l-2.1-1v1l2.1 1v-1zm35.1-.6l-2.1-1c.7 1.3 1 2.4 1 3.1h1l.1-2.1zm27.1-1h-1v2.1h1V154zm8.3 45.7h1.1l1-4.1h-2.1v4.1zM535.6 207h-6.1c-7.1 0-13.9-4.1-20.4-12.2-2.7-6.5-4.1-12-4.1-16.3 0-13.9 5.8-23 17.4-27.5l8.2-2c11.1 0 18.9 3.4 23.5 10.2l1 7.1v1c-1.2 8.1-2.9 12.2-5.1 12.2h-5.1c-3.4-1.8-5.1-3.2-5.1-4.1.7-3.7 1-6.5 1-8.1 0-3.4-1.7-5.1-5.1-5.1-6.1 0-9.8 5.8-11.2 17.3 2.9 9.5 7.3 14.2 13.3 14.2h4.1l8.2-6.1h2c3.4 1.8 5.1 3.1 5.1 4.1v2c-5.9 8.9-13 13.3-21.6 13.3zm10.3-49.9h1v-2h-3.1c.2 1.3.9 2 2.1 2zm-26.6 12.2v4.1h1c0-1 .7-2.4 2.1-4.1h-3.1zm29.6 23.5h3l1-2.1h-1c-1.3.7-2.3 1-3 1v1.1zm-72 14.2c-3.3 0-6-4.1-8.3-12.4 8.1-6.2 12.6-9.4 13.5-9.4v-1c0-.7-7.3-5.5-21.9-14.5-3.5-3-5.2-5.7-5.2-8.3 8.2-8.3 13.1-12.5 14.5-12.5 2.7 7.2 8.9 14.5 18.7 21.7h1c3.1-13.1 4.8-19.7 5.2-19.7 4.5 0 8 1.4 10.4 4.1 0 13.6-5.5 27.8-16.6 42.5-3.6 4.3-7.4 7.5-11.3 9.5zm-10.4-52.9l-1 2.1h3.1c0-1.4-.7-2.1-2.1-2.1zm34.3 4.2h1c0-1.4-.7-2.1-2.1-2.1h-1c.2 1.4.9 2.1 2.1 2.1zM402.9 207h-6.1c-7.1 0-13.9-4.1-20.4-12.2-2.7-6.5-4.1-12-4.1-16.3 0-13.9 5.8-23 17.4-27.5l8.2-2c11.1 0 18.9 3.4 23.5 10.2l1 7.1v1c-1.2 8.1-2.9 12.2-5.1 12.2h-5.1c-3.4-1.8-5.1-3.2-5.1-4.1.7-3.7 1-6.5 1-8.1 0-3.4-1.7-5.1-5.1-5.1-6.1 0-9.8 5.8-11.2 17.3 2.9 9.5 7.3 14.2 13.3 14.2h4.1l8.2-6.1h2c3.4 1.8 5.1 3.1 5.1 4.1v2c-5.9 8.9-13.1 13.3-21.6 13.3zm10.2-49.9h1v-2H411c.3 1.3 1 2 2.1 2zm-26.5 12.2v4.1h1c0-1 .7-2.4 2.1-4.1h-3.1zm29.6 23.5h3l1-2.1h-1c-1.3.7-2.3 1-3 1v1.1zM329.5 207h-2c-2.8 0-4.9-8-6-24.1h-1c-6.3 10-12.3 17.4-18.1 22.1h-3l-9-2c4.7-24 7-39 7-45.2 4-2.6 7.7-4 11.1-4h1l1 4h-1l1 2c0 1.5-.3 2.9-1 4l1 2c-.7 6.4-1.4 10.1-2 11.1h2l9-13.1c3.5-8.7 7.5-13 12.1-13 4.3-1.3 7.3-2 9-2l2 3v2c-2.5 3.1-4.5 11.7-6 26 1.3 9 3.4 16.7 6 23.1-5 2.8-9.3 4.1-13.1 4.1zm9-53.1v-2h-2c.2 1.3.9 2 2 2zM276.2 207c-1.5-.2-3.6-3.3-6.2-9.4h1c-1.4-2.8-2.1-4.9-2.1-6.3h1c-.7-1-1-3.1-1-6.3h-1.1c-4.6 12.5-8.4 18.8-11.4 18.8-2.5 0-6-5.5-10.4-16.6h-2.1c0 8.1-2.4 14.4-7.3 18.7h-3.2c-8.3-1-12.5-3.4-12.5-7.3 5.8-7 10.7-18.4 14.6-34.3 0-9.7 1-14.6 3.1-14.6h7.3c4.2 1 6.3 4.8 6.3 11.5 0 1.8 1.4 7.7 4.1 17.7 1.4 0 4.2-10.1 8.3-30.2l2.1-1h6.3l6.3 4.2c0 .7-.3 1.8-1 3.1 0 16.5 3.8 30 11.4 40.6v1c0 4.9-4.2 8.4-12.5 10.4h-1zm-27.1-52l-2.1-1c.7 1.3 1 2.4 1 3.1h1V155h.1zm27.1-1h-1v2.1h1V154zm8.3 45.7h1.1l1-4.1h-2.1v4.1zm-65.6-26.3l-1 7.2v4.1c2.1 8.2 3.1 13.4 3.1 15.4-5 4.8-9.1 7.2-12.4 7.2h-1c-1.4 0-2.1-1.7-2.1-5.2h-1l-8.2 4.1c-10.3-2.1-15.5-8.9-15.5-20.5 3-4.6 6.8-8 11.3-10.3h5.2c4.9 1.4 7.6 2.1 8.2 2.1v-5.2c0-.7.3-1 1-1-1.4-4.1-2.8-6.1-4.1-6.1-4 4.5-7.5 6.9-10.3 7.2v-1l-2.1 1c-4.1 0-6.2-2-6.2-6.1 3.9-10.3 9-15.4 15.4-15.4 0-1.4 1.4-2.1 4.1-2.1 10.3 0 15.5 6.2 15.5 18.5v1c0 1.6-.3 2.9-1 4.1.1.7.4 1 1.1 1zm-20.6 11.3c-4.1.7-6.2 1.7-6.2 3.1 0 4.1 2.1 6.1 6.2 6.1h1c1 0 2-1 3.1-3.1 0-3.4-1.4-5.4-4.1-6.1zM188 164.2v1h2.1l1-4.1c-1 0-2.1 1-3.1 3.1zm25.7-8.3l-2.1-1v1l2.1 1v-1zm-86.2 57.4c-47.9 0-84.2-34.5-84.2-79.2 0-41.8 32.2-76.3 74.5-79.9 2-.2 3.8 1 4.5 2.8l2.7 7.1c1 2.7-.8 5.6-3.6 5.9-10.1 1-20.9 4.6-31.6 12.3-43.5 30.9-19.7 83.7-11.6 92.1 7.6 7.8 36.8 39.6 89.6 11.3 1.3-.7 2.9-.1 3.4 1.2l2.3 6c1.3 3.4 0 7.2-3.2 9.1-11.4 6.8-25.5 11.3-42.8 11.3zm-63.2-42S55 161.4 52 145.8c.1 0 .6 18.8 12.3 25.5zm20-91.3c-.9.5-32.1 17.6-25.5 54.5-.2-2.3-2.6-34.3 25.5-54.5z"/><path class="st1" d="M165.3 177.1c-10 9.2-23.4 14.9-38.1 14.9h-.2c-.7 0-1.4 0-2.1-.1-.7 0-1.5-.1-2.2-.1-.3 0-.5 0-.7-.1-.6 0-1.2-.1-1.8-.2-.6-.1-1.1-.1-1.7-.2-.4-.1-.8-.1-1.2-.2-1.9-.3-3.8-.8-5.7-1.3-.8-.2-1.6-.5-2.4-.7l17.2-41.7c2.7 2.8 8 7.1 14.8 8.3 1.7.3 3.4.4 5.1.4 5.3 0 9.5-1.4 10.9-1.9.4.8 3.2 5.7 4.3 8.3 1.5 3.2 3.1 9.2 3.2 9.6l-2.2-.9c.2 0 1.6 3.2 2.8 5.9zm-6.1-31.2c-2.1.6-2.9 1.6-3 3.4 0 .3 0 .8.1 1.2-.8.3-7.1 2.6-14.1 1.3s-12.2-6.5-13.9-8.4l12.9-31.3 4.1 10.6c.8.1 6.4 1.1 9.2 2.4 3 1.4 2.5 5.6 4 6.7s2.8 1.4 3.6 1.8c.7.4 1.8 4 1.6 6.4-.2 2.4-2.4 5.3-4.5 5.9z"/><path class="st2" d="M127.6 130.1c-1.8.9-5.1 2.2-9.1 2.3-3.5.1-7.3-1.8-9.5-3.2.7-.7 1.3-1.2 1.6-1.6.6-.8-.1-1.7-1.4-2.8-3.8-3.2-13.1-7.2-14.1-9.2-1.3-2.7-1.2-13.7 1.3-14.7.8-.3 2.1-.4 3.6-.4 3.6 0 8.3.6 9.9.8h.3c2 0 3.9-2.7 6.6-3.1 3.2-.4 5.1.1 5.9-.9 1.4-1.6.7-2.6.7-5.7 0-2.1.4-4 1-5.5 1.6-4.1 4.6-6 4.6-6l9.3 24c0-.1-10.7 26-10.7 26zm-31.9 23.3c.1-.3 2.1-5 2.9-6.5.9-1.6 4.9-6.9 4.9-6.9l-2-.1-1.3-.1s1.9-3.3 4.6-6.5l.8-1.5c.1.1.2.2.4.3 2.5 1.6 7.3 4.4 12.3 4.4h.4c2.6-.1 4.9-.6 6.9-1.2l-.9 2.2-20.4 49.5c-5.5-2.5-10.6-5.9-15-9.9l10.4-25.4-4 1.7z"/><path class="st3" d="M96.8 137.9l-3.5 5.9 2.5.1c-.3.5-.6.9-.8 1.2-1 1.7-2.8 6.2-3.2 7l-3.8 9.1 3.4-1.4-6.6 13.2c-9-10.1-14.5-23.4-14.5-37.9 0-30.4 23.8-55.2 53.9-57.1l.1 1.2c-2.1 2.4-4.5 6.4-4.5 12.1 0 1 .1 1.8.1 2.4-.9 0-2 .1-3.3.2-2.4.3-4.1 1.5-5.5 2.4-.3.2-.7.5-1 .6-2-.3-6.5-.8-10.1-.8-2.3 0-3.9.2-5.2.7-1.6.6-2.8 1.9-3.5 3.9-1.7 4.2-1.6 13 0 16.4 1.1 2.2 3.5 3.6 8.6 6.4 1.5.9 4 2.2 5.7 3.3-1.1 1-2.4 2.2-3.5 3.5-3 3.8-5.2 7.4-5.3 7.6z"/><path d="M82.6 33.8c.2-.2.4-.3.5-.5-.2.2-.3.4-.5.5zm1.1-.9c.2-.2.4-.3.6-.5-.2.2-.4.3-.6.5zm-4.3 4c.1-.2.3-.3.4-.5-.1.2-.3.3-.4.5zm5.5-4.9c.2-.1.4-.3.6-.4-.2.1-.4.2-.6.4zm-4.5 3.9l.5-.5c-.2.1-.3.3-.5.5zm1.1-1.1l.5-.5-.5.5zm-2.9 2.9l.2-.2-.2.2zM89.8 29c.2-.1.4-.2.7-.3-.3.1-.5.2-.7.3zm-3.7 2.1c.2-.1.4-.3.6-.4-.2.1-.4.3-.6.4zm6.3-3c.2-.1.5-.1.7-.2-.2.1-.5.1-.7.2zm-1.3.4c.2-.1.5-.2.7-.2-.3 0-.5.1-.7.2zm-3.8 1.8c.2-.1.4-.2.6-.4-.2.2-.4.3-.6.4zm1.2-.7l.6-.3c-.1.1-.3.2-.6.3zM68.1 50.8c.1-.1.2-.2.2-.3-.1.1-.1.2-.2.3zm.5-.7c.1-.1.2-.2.2-.3 0 .1-.1.2-.2.3zm.6-.8l.3-.3-.3.3zm-1.6 2.1c.1-.1.1-.2.2-.2-.1 0-.2.1-.2.2zm2.3-2.9c.1-.1.2-.2.2-.3 0 .1-.1.2-.2.3zm23.8-20.7c.3-.1.6-.1.8-.1-.3 0-.5 0-.8.1zM74.1 43.1c.1-.1.2-.3.4-.4-.2.1-.3.2-.4.4zm.8-1.1c.1-.1.2-.3.4-.4l-.4.4zm1.9-2.3l.3-.3-.3.3zm-.9 1.1c.1-.1.2-.3.4-.4l-.4.4zm-3.5 4.4c.1-.1.2-.3.3-.4-.1.1-.2.3-.3.4zm-.8 1c.1-.1.2-.2.2-.3 0 .1-.1.2-.2.3zm1.6-2.1c.1-.1.2-.3.3-.4-.1.2-.2.3-.3.4zm24.6-16.5c.5 0 .9.1 1.4.2-.5-.1-1-.2-1.4-.2zM69.2 61.7H69h.2zm-.9-.1c-.1 0 0 0 0 0zm.4.1h-.2.2zm2.5.1h-.4.4zm-.8 0c.1 0 .1 0 0 0h-.2.2zm-.6 0h-.2.2zm-1.8-.2zm-.7-9.9l-.2.2.2-.2zm.5 9.8zm56.9 4.4v-2.8 2.8zm-2.9-17.4c.7 1.9 1.3 3.7 1.8 5.6-.4-1.9-1-3.8-1.8-5.6zm2.9 12.2c.1.8.1 1.7.1 2.4 0-.7-.1-1.6-.1-2.4zm-.5-3.9c.2.9.3 1.8.4 2.6-.1-.8-.3-1.7-.4-2.6zM96.4 27.5h.9-.9zM71.9 61.7h-.5c.2.1.4 0 .5 0zM95 27.6c.4 0 .7-.1 1.1-.1-.3 0-.7 0-1.1.1zM77.1 60.9c-.2.1-.5.1-.7.2.2-.1.4-.1.7-.2zm-3.4.6c-.2 0-.4.1-.6.1.3 0 .5 0 .6-.1zm2.3-.4c-.3.1-.5.1-.7.1.2.1.4 0 .7-.1zm-3.2.6h-.5.5zm2-.3c-.2 0-.4.1-.6.1.2-.1.4-.1.6-.1z" fill="none"/><path class="st5" d="M116.7 61.6c2.5-17-4-22.8-10-27.1 0 0 10.8 9.3 10 27.1zm-52.9-5.5c-.7-.9-1.7-1.4-2.8-1.4-.7 0-1.4.2-2.1.7-1.6 1.1-1.9 3.3-.8 4.9 1.1 1.5 3.3 1.9 4.9.8 1.6-1.3 2-3.5.8-5z"/><path class="st0" d="M118.9 81.8c-.6 0-1.2 0-1.8-.1-4.2-.3-41.3-3.7-41.3-16.6 0-.8.1-1.6.2-2.4-.1 0-.8.1-.8.1l-.8.2s-.8.1-1 .1H73l-.5.1h-3.2l-.7-.1c-.5.8-1.1 1.4-1.9 2-.1.1-.2.2-.3.2-1.5 1.1-3.4 1.7-5.3 1.7-2.9 0-5.6-1.4-7.3-3.7-2.9-4-2.1-9.6 1.9-12.6 1.6-1.1 3.4-1.7 5.3-1.7.5 0 .9 0 1.4.1.6.1 1.2.2 1.7.4.7.3 1.4.6 2 1.1 0 0 .2-.3.3-.4l.5-.5.8-1 1.2-1.6 2.7-3.5.7-.9 1-1.3.8-1 .6-.7 1-1.1.3-.3c.5-.6 1-1.1 1.5-1.7l.2-.2 1.1-1.1 1.1-1.1c.2-.1 1-.9 1.1-1.1.2-.1.6-.5.6-.5.2-.2.4-.3.6-.5s.4-.3.6-.5.4-.3.6-.5.4-.3.6-.5.4-.3.6-.4.4-.3.6-.4.4-.3.6-.4.4-.3.6-.4.4-.3.7-.4c.2-.1.4-.2.6-.4.2-.1.5-.2.7-.3.2-.1.4-.2.7-.3.2-.1.5-.2.7-.3.3-.1.5-.2.7-.3.2-.1.5-.2.7-.2l.2-.1c.2-.1.3-.1.5-.2s.5-.1.7-.2l.3-.1c.2 0 .3-.1.5-.1.3-.1.5-.1.8-.1h.3c.1 0 .3 0 .4-.1.4 0 .8-.1 1.2-.1H98c.5.1 1.1.1 1.6.2 14.4 3 21.1 14.8 23.7 21.6.7 1.9 1.4 3.8 1.8 5.8.2.9.4 1.9.6 2.8.2.9.3 1.8.4 2.7 0 .5.1.9.1 1.3.1.9.1 1.7.1 2.6V65c1.3 1.7 1.9 4.1 1.6 6.5-.7 5.8-1.8 10.3-9 10.3zm-35-19.9c-.3 0-.5.1-.6.1-.2.1-.6.9-.6 3.1 0 2.6 16 8.1 34.9 9.6.8.1 1.4.1 1.9.1s.7-.1.7-.1c.3-.3.5-2.5.7-3.7v-.9c-.4.1-.8.1-1.2.1h-.7c-4.6 0-16.8-.7-31.1-7.3-2.3-.9-3.5-1-4-1zM61 56.1c-.4 0-.8.1-1.2.4-.9.6-1.1 1.9-.4 2.8.4.5 1 .8 1.6.8.4 0 .8-.1 1.2-.4.4-.3.7-.8.8-1.3s0-1-.4-1.5-1-.8-1.6-.8z"/><path d="M96.4 27.5h1.3c.5 0 .9.1 1.4.2 11.7 2.5 19 11.4 22.7 20.7.7 1.9 1.3 3.7 1.8 5.6l.6 2.7c.2.9.3 1.8.4 2.6 0 .4.1.9.1 1.3.1.8.1 1.7.1 2.4v2.8c1.2 1.4 1.9 3.6 1.6 5.8-.6 5.9-1.9 8.6-7.4 8.6-.5 0-1.1 0-1.7-.1-.4 0-40-3.3-40-15.1 0-2.4.4-4.4 1.3-5.8 1-2.9 2.3-6.1 4.3-9.6-2.8 4.5-4.6 8.2-5.7 11.2-.2.1-.5.1-.7.2-.1 0-.3.1-.4.1-.3.1-.5.1-.7.1s-.3.1-.4.1c-.2 0-.4.1-.6.1-.1 0-.3 0-.4.1-.2 0-.4.1-.6.1h-5.3c-.5 1-1.2 1.8-2.1 2.5l-.2.2c-1.3 1-2.9 1.4-4.4 1.4-2.3 0-4.6-1.1-6-3.1-2.4-3.3-1.7-8 1.6-10.5 1.3-.9 2.8-1.4 4.4-1.4.4 0 .8 0 1.2.1.5.1 1 .2 1.4.4 1 .4 1.9.9 2.6 1.6l.5-.5c.1-.1.3-.2.4-.4l.2-.2.3-.3c.1-.1.1-.2.2-.2.1-.1.2-.2.3-.4.1-.1.2-.2.2-.3.1-.1.2-.3.3-.4.1-.1.2-.2.2-.3.1-.2.2-.3.4-.5l.3-.3c.1-.2.3-.4.4-.5s.2-.2.2-.3c.5-.6 1-1.3 1.5-2 .1-.1.2-.2.2-.3.2-.2.3-.5.5-.7.1-.1.2-.3.3-.4.2-.2.3-.4.5-.7.1-.1.2-.3.3-.4.2-.2.3-.4.5-.7.1-.1.2-.3.4-.4.2-.2.3-.4.5-.7.1-.1.2-.3.4-.4.2-.2.4-.4.6-.7.1-.1.2-.3.4-.4.2-.2.4-.5.6-.7l.3-.3c.5-.6 1-1.1 1.5-1.7l.2-.2.6-.6c.1-.2.3-.3.4-.5l.6-.6.5-.5c.2-.2.4-.4.6-.5l.5-.5c.2-.2.4-.3.6-.5s.4-.3.5-.5c.2-.2.4-.3.6-.5s.4-.3.6-.5.4-.3.6-.5c.2-.1.4-.3.6-.4s.4-.3.6-.4.4-.3.6-.4.4-.3.6-.4.4-.2.6-.4l.6-.3.6-.3.6-.3c.2-.1.4-.2.7-.3.2-.1.4-.2.6-.2.2-.1.5-.2.7-.2.2-.1.4-.1.6-.2s.5-.1.7-.2c.2 0 .4-.1.6-.1.3-.1.6-.1.8-.1.2 0 .3-.1.5-.1.4 0 .7-.1 1.1-.1-.2.1-.1.1 0 .1m20.3 34.1c2.5-17-4-22.8-10-27.1 0 0 10.8 9.3 10 27.1m-55.7 0c.7 0 1.4-.2 2.1-.7 1.6-1.1 1.9-3.3.8-4.9-.7-.9-1.7-1.4-2.8-1.4-.7 0-1.4.2-2.1.7-1.6 1.1-1.9 3.3-.8 4.9.7.9 1.7 1.4 2.8 1.4m58.5 14.7c2.1 0 2.4-.8 2.9-5.1.2-1.6-.5-2.8-.8-2.8-.7.2-1.4.4-2 .4h-.6c-4.3 0-16.4-.7-30.5-7.1-1.8-.8-3.4-1.3-4.5-1.3-.6 0-1 .1-1.4.3-.8.5-1.3 2.1-1.3 4.4 0 4.6 19.5 9.8 36.3 11.1.7.1 1.3.1 1.9.1M96.4 24.5h-.3c-.5 0-.9 0-1.3.1-.2 0-.3 0-.5.1h-.2c-.3 0-.6.1-.9.1-.2 0-.4.1-.5.1h-.3c-.3.1-.5.1-.8.2-.2.1-.4.1-.6.2h-.2c-.3.1-.5.2-.8.3-.2.1-.4.2-.6.2h-.1c-.3.1-.5.2-.8.3-.2.1-.5.2-.7.3-.2.1-.5.2-.7.4-.2.1-.5.2-.7.4-.2.1-.5.3-.7.4s-.5.3-.7.4-.4.3-.7.4c-.2.2-.4.3-.7.5-.2.2-.4.3-.6.5s-.4.3-.6.5-.4.3-.6.5-.4.4-.6.5c-.2.2-.4.3-.5.5l-.1.1c-.2.2-.4.3-.5.5-.2.1-.3.3-.5.4l-.1.1-.1.1-.5.5-.4.4-.1.1-.1.1-.5.5-.3.3-.1.1-.3.4-.5.5-.1.1-.1.1c-.5.6-1 1.1-1.6 1.7l-.1.1-.2.2c-.2.2-.3.4-.5.6l-.1.1-.1.1-.2.3c-.2.2-.3.4-.5.6l-.1.2-.1.1-.3.3c-.2.2-.4.4-.5.7l-.1.2-.3.3c-.2.2-.4.4-.5.7l-.1.1-.3.3-.5.7-.1.1-.2.3-.5.7-.1.1-.2.2-.8 1.1-.7.9-.2.3-.4.6-.2.3-.4.4-.2.3c-.1.1-.2.2-.3.4l-.1.1-.1.1c-.4-.2-.8-.4-1.2-.5-.6-.2-1.3-.4-2-.5-.5-.1-1.1-.1-1.6-.1-2.2 0-4.4.7-6.2 2-4.7 3.4-5.7 10-2.3 14.7 2 2.7 5.1 4.3 8.5 4.3 2.2 0 4.4-.7 6.2-2 .1-.1.2-.1.3-.2.6-.5 1.2-1 1.7-1.6h3.5c.2 0 .4 0 .6-.1h.4c.2 0 .4-.1.6-.1v.6c0 6.6 7.2 11.5 22.1 14.9 10.3 2.4 20.5 3.2 20.6 3.2.7.1 1.3.1 2 .1 8.5 0 9.8-5.8 10.4-11.2.3-2.6-.3-5.2-1.6-7.1v-1.8c0-.9 0-1.8-.1-2.7 0-.5-.1-.9-.1-1.4-.1-.9-.2-1.9-.4-2.8-.2-1-.4-2-.6-2.9-.5-2-1.1-4-1.9-6-2.8-7-9.7-19.3-24.8-22.5-.6-.1-1.1-.2-1.7-.3h-.7c-.4-.4-.7-.4-1.1-.4zM61 58.6c-.1 0-.3 0-.4-.2-.2-.2-.1-.5.1-.7.1-.1.2-.1.3-.1s.3 0 .4.2c.1.1.1.3.1.4 0 .1-.1.2-.2.3-.1.1-.2.1-.3.1zm23.2 6.1c0-.6.1-1 .1-1.3.5.1 1.4.3 2.8 1 14.6 6.7 27.1 7.4 31.8 7.4h.3c-.1.5-.1 1.1-.2 1.5-.4 0-.8-.1-1.3-.1-7.5-.6-15.6-2-22.2-3.8-7.7-2-10.6-3.9-11.3-4.7z" fill="#fffdfd"/><path class="st5" d="M121.5 68.4c-.7.2-1.4.4-2 .4-3.5.1-16.2-.3-31.2-7.1-1.8-.8-3.4-1.3-4.5-1.3-.6 0-1 .1-1.4.3-.8.5-1.3 2.1-1.3 4.4 0 4.6 19.5 9.8 36.3 11.1 4 .3 4.3.3 4.9-5 .2-1.6-.5-2.7-.8-2.8z"/><path id="SVGCleanerId_0_1_" class="st2" d="M817.7 192.6l-35.3-48.8c-1.9-2.6-5.3-2.6-7.2 0l-35.3 48.8c-2.2 3.1-.9 7.5 2.1 8.5 9.8 3.6 22.7 5.8 36.8 5.8s27-2.2 36.8-5.8c2.9-1.1 4.3-5.4 2.1-8.5z"/><path class="st3" d="M778.8 92.2l-3.8 11.6h-12.2l9.9 7.2-3.8 11.6 9.9-7.2 9.9 7.2-3.8-11.6 9.9-7.2h-12.2z"/><circle class="st5" cx="757.8" cy="191.5" r="4"/><circle class="st5" cx="779.6" cy="180.5" r="4"/><path class="st2" d="M809.7 160.4l-27-35.7c-2-2.7-5.7-2.7-7.7 0l-27 35.7c-2.4 3.3-.6 7.8 2.7 8.6 8.3 2 17.9 3.1 28.2 3.1s19.9-1.1 28.2-3.1c3.2-.8 5-5.4 2.6-8.6z"/><circle class="st5" cx="764.8" cy="158.7" r="4"/><circle class="st5" cx="781.8" cy="138.6" r="4"/><circle class="st5" cx="800.9" cy="192.3" r="4"/><circle class="st5" cx="789.8" cy="162.7" r="4"/><circle class="st1" cx="403.6" cy="125.2" r="2.6"/><circle class="st1" cx="440.1" cy="112.8" r="2.6"/><circle class="st1" cx="808.2" cy="110.2" r="2.6"/><circle class="st1" cx="606.4" cy="132.1" r="2.6"/><circle class="st1" cx="713.3" cy="122.6" r="2.6"/><circle class="st1" cx="282.4" cy="127.8" r="2.6"/><circle class="st1" cx="158.6" cy="92.2" r="2.6"/><circle class="st1" cx="4" cy="135.4" r="2.6"/><path class="st1" d="M238.2 123.8l-1.7-1.6 1.7-1.6c.5-.5.5-1.3 0-1.8s-1.3-.5-1.8 0l-2.3 2.2h-3.5c0-.1-.1-.3-.2-.4l2.5-2.5h3.1c.7 0 1.3-.6 1.3-1.3s-.6-1.3-1.3-1.3h-2.3v-2.3c0-.7-.6-1.3-1.3-1.3s-1.3.6-1.3 1.3v3.1l-2.5 2.5c-.1-.1-.2-.1-.4-.2V115l2.2-2.2c.5-.5.5-1.3 0-1.8s-1.3-.5-1.8 0l-1.7 1.7-1.7-1.7c-.5-.5-1.3-.5-1.8 0s-.5 1.3 0 1.8l2.2 2.2v3.5c-.1 0-.3.1-.4.2l-2.5-2.5v-3.1c0-.7-.6-1.3-1.3-1.3s-1.3.6-1.3 1.3v2.3H218c-.7 0-1.3.6-1.3 1.3s.6 1.3 1.3 1.3h3.1l2.5 2.5c-.1.1-.1.2-.2.4h-3.5l-2.2-2.2c-.5-.5-1.3-.5-1.8 0s-.5 1.3 0 1.8l1.7 1.7-1.7 1.7c-.5.5-.5 1.3 0 1.8s1.3.5 1.8 0l2.2-2.2h3.5c0 .1.1.3.2.4l-2.5 2.5H218c-.7 0-1.3.6-1.3 1.3s.6 1.3 1.3 1.3h2.3v2.3c0 .7.6 1.3 1.3 1.3s1.3-.6 1.3-1.3v-3.1l2.5-2.5c.1.1.2.1.4.2v3.5l-2.2 2.2c-.5.5-.5 1.3 0 1.8s1.3.5 1.8 0l1.7-1.6 1.7 1.7c.5.5 1.3.5 1.8 0s.5-1.3 0-1.8l-2.2-2.2V126c.1 0 .3-.1.4-.2l2.5 2.5v3.1c0 .7.6 1.3 1.3 1.3s1.3-.6 1.3-1.3v-2.3h2.3c.7 0 1.3-.6 1.3-1.3s-.6-1.3-1.3-1.3H233l-2.5-2.5c.1-.1.1-.2.2-.4h3.5l2.3 2.2c.5.5 1.3.5 1.8 0 .4-.7.4-1.5-.1-2zm-11.2-.3c-.7 0-1.3-.6-1.3-1.3s.6-1.3 1.3-1.3c.7 0 1.3.6 1.3 1.3s-.6 1.3-1.3 1.3zm353.7-9.4l-1.7-1.6 1.7-1.6c.5-.5.5-1.3 0-1.8s-1.3-.5-1.8 0l-2.3 2.2h-3.5c0-.1-.1-.3-.2-.4l2.5-2.5h3.1c.7 0 1.3-.6 1.3-1.3s-.6-1.3-1.3-1.3h-2.3v-2.3c0-.7-.6-1.3-1.3-1.3-.7 0-1.3.6-1.3 1.3v3.1l-2.5 2.5c-.1-.1-.2-.1-.4-.2v-3.5l2.2-2.2c.5-.5.5-1.3 0-1.8s-1.3-.5-1.8 0l-1.7 1.7-1.7-1.7c-.5-.5-1.3-.5-1.8 0s-.5 1.3 0 1.8l2.2 2.2v3.5c-.1 0-.3.1-.4.2l-2.5-2.5v-3.1c0-.7-.6-1.3-1.3-1.3-.7 0-1.3.6-1.3 1.3v2.3h-2.3c-.7 0-1.3.6-1.3 1.3s.6 1.3 1.3 1.3h3.1l2.5 2.5c-.1.1-.1.2-.2.4h-3.5l-2.2-2.2c-.5-.5-1.3-.5-1.8 0s-.5 1.3 0 1.8l1.7 1.7-1.7 1.7c-.5.5-.5 1.3 0 1.8s1.3.5 1.8 0l2.2-2.2h3.5c0 .1.1.3.2.4l-2.5 2.5h-3.1c-.7 0-1.3.6-1.3 1.3s.6 1.3 1.3 1.3h2.3v2.3c0 .7.6 1.3 1.3 1.3.7 0 1.3-.6 1.3-1.3v-3.1l2.5-2.5c.1.1.2.1.4.2v3.5l-2.2 2.2c-.5.5-.5 1.3 0 1.8s1.3.5 1.8 0l1.7-1.6 1.7 1.7c.5.5 1.3.5 1.8 0s.5-1.3 0-1.8l-2.2-2.2v-3.5c.1 0 .3-.1.4-.2l2.5 2.5v3.1c0 .7.6 1.3 1.3 1.3.7 0 1.3-.6 1.3-1.3v-2.3h2.3c.7 0 1.3-.6 1.3-1.3s-.6-1.3-1.3-1.3h-3.1l-2.5-2.5c.1-.1.1-.2.2-.4h3.5l2.3 2.2c.5.5 1.3.5 1.8 0 .5-.8.5-1.6 0-2.1zm-11.2-.3c-.7 0-1.3-.6-1.3-1.3s.6-1.3 1.3-1.3 1.3.6 1.3 1.3-.6 1.3-1.3 1.3zm280.1 22.5l-1.7-1.6 1.7-1.6c.5-.5.5-1.3 0-1.8s-1.3-.5-1.8 0l-2.3 2.2H842c0-.1-.1-.3-.2-.4l2.5-2.5h3.1c.7 0 1.3-.6 1.3-1.3s-.6-1.3-1.3-1.3h-2.3v-2.3c0-.7-.6-1.3-1.3-1.3-.7 0-1.3.6-1.3 1.3v3.1l-2.5 2.5c-.1-.1-.2-.1-.4-.2v-3.5l2.2-2.2c.5-.5.5-1.3 0-1.8s-1.3-.5-1.8 0l-1.7 1.7-1.7-1.7c-.5-.5-1.3-.5-1.8 0s-.5 1.3 0 1.8l2.2 2.2v3.5c-.1 0-.3.1-.4.2l-2.5-2.5v-3.1c0-.7-.6-1.3-1.3-1.3s-1.3.6-1.3 1.3v2.3h-2.3c-.7 0-1.3.6-1.3 1.3s.6 1.3 1.3 1.3h3.1l2.5 2.5c-.1.1-.1.2-.2.4h-3.5l-2.2-2.2c-.5-.5-1.3-.5-1.8 0s-.5 1.3 0 1.8l1.7 1.7-1.7 1.7c-.5.5-.5 1.3 0 1.8s1.3.5 1.8 0l2.2-2.2h3.5c0 .1.1.3.2.4l-2.5 2.5h-3.1c-.7 0-1.3.6-1.3 1.3s.6 1.3 1.3 1.3h2.3v2.3c0 .7.6 1.3 1.3 1.3s1.3-.6 1.3-1.3v-3.1l2.5-2.5c.1.1.2.1.4.2v3.5l-2.2 2.2c-.5.5-.5 1.3 0 1.8s1.3.5 1.8 0l1.7-1.6 1.7 1.7c.5.5 1.3.5 1.8 0s.5-1.3 0-1.8l-2.2-2.2v-3.5c.1 0 .3-.1.4-.2l2.5 2.5v3.1c0 .7.6 1.3 1.3 1.3.7 0 1.3-.6 1.3-1.3v-2.3h2.3c.7 0 1.3-.6 1.3-1.3s-.6-1.3-1.3-1.3h-3.1l-2.5-2.5c.1-.1.1-.2.2-.4h3.5l2.3 2.2c.5.5 1.3.5 1.8 0 .5-.8.5-1.6 0-2.1zm-11.2-.3c-.7 0-1.3-.6-1.3-1.3 0-.7.6-1.3 1.3-1.3s1.3.6 1.3 1.3c0 .7-.6 1.3-1.3 1.3zM24.8 96.4l-1.7-1.6 1.7-1.6c.5-.5.5-1.3 0-1.8s-1.3-.5-1.8 0l-2.3 2.2h-3.5c0-.1-.1-.3-.2-.4l2.5-2.5h3.1c.7 0 1.3-.6 1.3-1.3s-.6-1.3-1.3-1.3h-2.3v-2.3c0-.7-.6-1.3-1.3-1.3-.7 0-1.3.6-1.3 1.3v3.1l-2.5 2.5c-.1-.1-.2-.1-.4-.2v-3.5l2.2-2.2c.5-.5.5-1.3 0-1.8s-1.3-.5-1.8 0l-1.7 1.7-1.5-1.7c-.5-.5-1.3-.5-1.8 0s-.5 1.3 0 1.8l2.2 2.2v3.5c-.1 0-.3.1-.4.2l-2.5-2.5v-3.1c0-.7-.6-1.3-1.3-1.3s-1.3.5-1.3 1.2V88H4.6c-.7 0-1.3.6-1.3 1.3s.6 1.3 1.3 1.3h3.1l2.5 2.5c-.1.1-.1.2-.2.4H6.5l-2.2-2.2c-.5-.5-1.3-.5-1.8 0s-.5 1.3 0 1.8l1.7 1.7-1.7 1.7c-.5.5-.5 1.3 0 1.8s1.3.5 1.8 0l2.2-2.2H10c0 .1.1.3.2.4L7.7 99H4.6c-.7 0-1.3.6-1.3 1.3s.6 1.3 1.3 1.3h2.3v2.3c0 .7.6 1.3 1.3 1.3s1.3-.6 1.3-1.3v-3.1l2.5-2.5c.1.1.2.1.4.2v3.5l-2.2 2.2c-.5.5-.5 1.3 0 1.8s1.3.5 1.8 0l1.7-1.6 1.7 1.7c.5.5 1.3.5 1.8 0s.5-1.3 0-1.8l-2.2-2.2v-3.5c.1 0 .3-.1.4-.2l2.5 2.5v3.1c0 .7.6 1.3 1.3 1.3.7 0 1.3-.6 1.3-1.3v-2.3h2.3c.7 0 1.3-.6 1.3-1.3s-.7-1.4-1.4-1.4h-3.1l-2.5-2.5c.1-.1.1-.2.2-.4h3.5l2.3 2.2c.5.5 1.3.5 1.8 0 .4-.6.4-1.4-.1-1.9zm-11.2-.3c-.7 0-1.3-.6-1.3-1.3s.6-1.3 1.3-1.3 1.3.6 1.3 1.3-.6 1.3-1.3 1.3zm524 30.4h-3.4c-.1-.4-.3-.7-.6-1l1.7-3c.3-.5.1-1.2-.4-1.5-.5-.3-1.2-.1-1.5.4l-1.7 3c-.2 0-.4-.1-.6-.1-.2 0-.4 0-.6.1l-1.7-3c-.3-.5-1-.7-1.5-.4-.5.3-.7 1-.4 1.5l1.7 3c-.3.3-.5.6-.6 1h-3.4c-.6 0-1.1.5-1.1 1.1 0 .6.5 1.1 1.1 1.1h3.4c.1.4.3.7.6 1l-1.7 3c-.3.5-.1 1.2.4 1.5.5.3 1.2.1 1.5-.4l1.7-3c.2 0 .4.1.6.1.2 0 .4 0 .6-.1l1.7 3c.3.5 1 .7 1.5.4.5-.3.7-1 .4-1.5l-1.7-3c.3-.3.5-.6.6-1h3.4c.6 0 1.1-.5 1.1-1.1 0-.6-.5-1.1-1.1-1.1zm-6.5 2.2c-.6 0-1.1-.5-1.1-1.1 0-.6.5-1.1 1.1-1.1.6 0 1.1.5 1.1 1.1 0 .6-.5 1.1-1.1 1.1zm-143.5-16h-3.4c-.1-.4-.3-.7-.6-1l1.7-3c.3-.5.1-1.2-.4-1.5-.5-.3-1.2-.1-1.5.4l-1.7 3c-.2 0-.4-.1-.6-.1-.2 0-.4 0-.6.1l-1.7-3c-.3-.5-1-.7-1.5-.4-.5.3-.7 1-.4 1.5l1.7 3c-.3.3-.5.6-.6 1h-3.4c-.6 0-1.1.5-1.1 1.1 0 .6.5 1.1 1.1 1.1h3.4c.1.4.3.7.6 1l-1.7 3c-.3.5-.1 1.2.4 1.5.5.3 1.2.1 1.5-.4l1.7-3c.2 0 .4.1.6.1.2 0 .4 0 .6-.1l1.7 3c.3.5 1 .7 1.5.4.5-.3.7-1 .4-1.5l-1.7-3c.3-.3.5-.6.6-1h3.4c.6 0 1.1-.5 1.1-1.1-.1-.6-.5-1.1-1.1-1.1zm-6.6 2.2c-.6 0-1.1-.5-1.1-1.1 0-.6.5-1.1 1.1-1.1.6 0 1.1.5 1.1 1.1 0 .6-.5 1.1-1.1 1.1zM28.2 160h-3.4c-.1-.4-.3-.7-.6-1l1.7-3c.3-.5.1-1.2-.4-1.5-.5-.3-1.2-.1-1.5.4l-1.7 3c-.2 0-.4-.1-.6-.1-.2 0-.4 0-.6.1l-1.7-3c-.3-.5-1-.7-1.5-.4-.5.3-.7 1-.4 1.5l1.7 3c-.3.3-.5.6-.6 1h-3.4c-.6 0-1.1.5-1.1 1.1s.5 1.1 1.1 1.1h3.4c.1.4.3.7.6 1l-1.7 3c-.3.5-.1 1.2.4 1.5.5.3 1.2.1 1.5-.4l1.7-3c.2 0 .4.1.6.1s.4 0 .6-.1l1.7 3c.3.5 1 .7 1.5.4.5-.3.7-1 .4-1.5l-1.7-3c.3-.3.5-.6.6-1h3.4c.6 0 1.1-.5 1.1-1.1s-.5-1.1-1.1-1.1zm-6.5 2.2c-.6 0-1.1-.5-1.1-1.1 0-.6.5-1.1 1.1-1.1.6 0 1.1.5 1.1 1.1 0 .6-.5 1.1-1.1 1.1zm687.9-67h-3.4c-.1-.4-.3-.7-.6-1l1.7-3c.3-.5.1-1.2-.4-1.5-.5-.3-1.2-.1-1.5.4l-1.7 3c-.2 0-.4-.1-.6-.1-.2 0-.4 0-.6.1l-1.7-3c-.3-.5-1-.7-1.5-.4-.5.3-.7 1-.4 1.5l1.7 3c-.3.3-.5.6-.6 1h-3.4c-.6 0-1.1.5-1.1 1.1 0 .6.5 1.1 1.1 1.1h3.4c.1.4.3.7.6 1l-1.7 3c-.3.5-.1 1.2.4 1.5.5.3 1.2.1 1.5-.4l1.7-3c.2 0 .4.1.6.1.2 0 .4 0 .6-.1l1.7 3c.3.5 1 .7 1.5.4.5-.3.7-1 .4-1.5l-1.7-3c.3-.3.5-.6.6-1h3.4c.6 0 1.1-.5 1.1-1.1 0-.6-.5-1.1-1.1-1.1zm-6.5 2.2c-.6 0-1.1-.5-1.1-1.1s.5-1.1 1.1-1.1 1.1.5 1.1 1.1-.5 1.1-1.1 1.1z"/></svg>