<svg xmlns="http://www.w3.org/2000/svg" preserveAspectRatio="xMidYMid" width="17" height="18" viewBox="0 0 17 18"><path fill="#7aaa3f" fill-rule="evenodd" d="M13.772 11.564a3.23 3.23 0 00-2.554 1.256l-4.953-2.762a3.23 3.23 0 00-.004-2.127l4.95-2.758a3.22 3.22 0 002.557 1.263 3.226 3.226 0 003.224-3.218 3.223 3.223 0 00-6.448 0c0 .374.064.732.184 1.065L5.781 7.041a3.208 3.208 0 00-2.557-1.263A3.226 3.226 0 000 8.996a3.227 3.227 0 005.789 1.951l4.95 2.762c-.12.337-.187.699-.187 1.073a3.223 3.223 0 106.448 0 3.227 3.227 0 00-3.228-3.218zm0-10.551c1.221 0 2.213.99 2.213 2.209a2.212 2.212 0 01-4.426 0c0-1.219.996-2.209 2.213-2.209zM3.228 11.205a2.213 2.213 0 01-2.213-2.209 2.213 2.213 0 014.426 0 2.216 2.216 0 01-2.213 2.209zm10.544 5.782c-1.22 0-2.213-.99-2.213-2.209a2.214 2.214 0 014.426 0 2.212 2.212 0 01-2.213 2.209z"/></svg>