<svg xmlns="http://www.w3.org/2000/svg" preserveAspectRatio="xMidYMid" width="16.031" height="15.781" viewBox="0 0 16.031 15.781"><path d="M12.024 15.776c.079.005.157.009.23.009.851 0 1.564-.301 2.12-.896l.018-.018c.184-.217.396-.415.621-.626.156-.145.313-.298.465-.455.754-.771.749-1.784-.01-2.528l-1.963-1.923c-.363-.374-.805-.568-1.269-.568-.46 0-.906.194-1.278.563l-1.085 1.063c-.074-.04-.152-.076-.226-.112-.124-.063-.243-.122-.344-.185-1.053-.653-2.01-1.509-2.92-2.608-.432-.532-.726-.987-.933-1.424.275-.252.538-.509.79-.761l.304-.298c.386-.378.588-.815.588-1.265 0-.451-.202-.888-.588-1.266l-.975-.955-.331-.329a17.619 17.619 0 00-.667-.649C4.208.189 3.771 0 3.312 0c-.456 0-.897.185-1.279.545L.81 1.743a2.615 2.615 0 00-.795 1.676c-.087 1.036.225 2 .464 2.636.58 1.536 1.453 2.964 2.745 4.491a16.88 16.88 0 005.628 4.316c.823.383 1.931.838 3.172.914zm-7.94-5.942C2.875 8.411 2.066 7.086 1.528 5.667c-.327-.86-.451-1.527-.396-2.158.032-.387.189-.712.483-1l1.205-1.18c.11-.104.285-.23.492-.23.197 0 .363.122.478.234.216.199.423.406.644.627.11.112.225.225.34.338l.974.954c.12.118.258.293.258.487s-.143.369-.258.487c-.105.103-.206.202-.308.306-.298.297-.583.581-.891.851l-.024.023c-.335.329-.275.658-.202.874l.014.036c.257.608.616 1.185 1.172 1.87.994 1.198 2.037 2.13 3.191 2.846.147.095.299.167.446.239.124.064.244.122.345.185l.051.027c.354.171.703.113.988-.171l1.223-1.198c.111-.109.285-.239.483-.239.193 0 .354.126.464.239l1.973 1.932c.326.32.326.64-.014.987-.133.14-.28.274-.432.419-.23.221-.474.446-.694.703-.345.36-.75.527-1.283.527-.055 0-.106 0-.161-.005-1.048-.067-2.028-.468-2.759-.811a15.779 15.779 0 01-5.246-4.032z" fill-rule="evenodd"/></svg>