<svg width="26" height="27" viewBox="0 0 26 27" fill="none" xmlns="http://www.w3.org/2000/svg"><path d="M25.984 8.154c0-.015 0-.03-.017-.03 0-.032-.016-.047-.016-.078 0-.016-.016-.047-.016-.062 0-.016-.017-.031-.017-.046a.822.822 0 00-.114-.202L20.607.511A1.226 1.226 0 0019.594 0H6.422c-.408 0-.784.186-1.013.51L.212 7.72c-.049.063-.081.14-.114.202 0 .016-.016.031-.016.046-.017.016-.017.047-.017.062 0 .031-.016.047-.016.078 0 .015 0 .03-.016.03A1.1 1.1 0 000 8.371v17.468C0 26.475.556 27 1.226 27h23.548c.67 0 1.226-.526 1.226-1.16V8.386c0-.093 0-.17-.016-.232zM7.076 2.321H18.94l3.514 4.89H3.546l3.53-4.89zM23.55 24.695H2.468V9.547h21.097v15.148h-.016z" fill="#586580"/></svg>