<svg xmlns="http://www.w3.org/2000/svg" width="36.023" height="36" viewBox="0 0 36.023 36"><path fill="#010101" d="M19.819.068c-.979-.115-2.795-.063-3.615 0C7.118.978 0 8.667 0 17.989a17.95 17.95 0 00.853 5.471 18.056 18.056 0 004.653 7.474.398.398 0 00.136.131h.002C8.873 34.12 13.225 36 18.01 36c8.188 0 15.113-5.494 17.294-12.986.058-.156.082-.261.087-.285v-.021c.408-1.505.632-3.086.632-4.719 0-9.322-7.118-17.011-16.204-17.921zM18.01.804c9.477 0 17.187 7.709 17.187 17.185 0 1.655-.24 3.255-.68 4.771-.014.034-.028.072-.046.113h-3.815c1.42-1.03 1.806-2.781 2.045-3.879a.412.412 0 00-.471-.495c-2.577.434-3.754 1.506-4.281 2.503-.527-.997-1.704-2.069-4.281-2.503a.407.407 0 00-.339.1.411.411 0 00-.34-.1c-2.05.344-3.212 1.094-3.868 1.889v-.984c2.988-.275 3.823-2.517 4.208-4.099.396 1.631 1.263 3.972 4.485 4.126h.024c.041 0 .075-.009.109-.018.034.009.068.018.109.018h.024c3.627-.174 4.271-3.122 4.617-4.705a.415.415 0 00-.472-.496c-2.576.432-3.753 1.505-4.28 2.502-.528-.998-1.704-2.07-4.281-2.502a.41.41 0 00-.34.1.413.413 0 00-.339-.1c-2.05.344-3.212 1.093-3.868 1.888v-5.965c0-2.268-1.845-4.113-4.113-4.113s-4.112 1.845-4.112 4.113v12.155L9.625 21.04a.413.413 0 00-.584.584l1.249 1.249H6.396l1.283-1.283a.413.413 0 00-.584-.584l-1.696 1.696-1.662-1.662a.413.413 0 00-.584.584l1.249 1.249H1.538a17.138 17.138 0 01-.711-4.885C.826 8.513 8.536.804 18.01.804zm-4.44 20.203a.413.413 0 00-.584 0l-1.265 1.267v-12.12a3.29 3.29 0 013.286-3.287 3.29 3.29 0 013.287 3.287v5.965c-.655-.794-1.817-1.543-3.868-1.887a.41.41 0 00-.366.123.404.404 0 00-.104.373c.337 1.541.964 4.366 4.339 4.676v.984c-.655-.795-1.817-1.545-3.868-1.889a.408.408 0 00-.366.123.403.403 0 00-.104.372c.24 1.098.625 2.849 2.045 3.879h-3.714l1.283-1.282a.414.414 0 00-.001-.584zm5.904.327c.511-.896 1.553-1.547 3.032-1.896-.427 1.668-1.158 3.174-3.377 3.412a2.662 2.662 0 01.345-1.516zm-4.566-1.896c1.481.351 2.524.998 3.034 1.896.345.607.372 1.195.343 1.516-2.217-.237-2.95-1.745-3.377-3.412zm3.377-.857c-2.217-.236-2.95-1.743-3.377-3.411 1.481.349 2.524.999 3.034 1.896.345.608.371 1.196.343 1.515zm5.044.992c.259 1.067.721 2.437 1.912 3.301h-3.825c1.191-.864 1.653-2.233 1.913-3.301zm5.385 1.762c.512-.897 1.554-1.547 3.034-1.896-.427 1.668-1.16 3.175-3.377 3.41a2.66 2.66 0 01.343-1.514zm-1.188 1.515c-2.218-.236-2.95-1.742-3.377-3.41 1.479.349 2.522.998 3.033 1.896.346.605.372 1.193.344 1.514zm-8.052-5.784c.511-.897 1.553-1.547 3.032-1.896-.427 1.668-1.158 3.174-3.377 3.411a2.66 2.66 0 01.345-1.515zm4.675-1.896c1.479.349 2.522.999 3.033 1.896a2.65 2.65 0 01.344 1.515c-2.218-.237-2.95-1.743-3.377-3.411zm4.565 1.896c.512-.898 1.554-1.547 3.034-1.896-.427 1.668-1.16 3.175-3.378 3.411-.027-.319 0-.907.344-1.515zM1.806 23.7h32.157c-.81.995-2.626 2.258-6.602 2.134-7.682-.232-15.438-.309-18.501 1.503-1.646.974-2.623 2.104-3.072 2.716A17.209 17.209 0 011.806 23.7zM18.01 35.174a17.115 17.115 0 01-11.623-4.541c.361-.51 1.279-1.632 2.893-2.585 3.116-1.841 12.468-1.558 18.056-1.388 3.183.096 5.12-.651 6.296-1.52-2.719 5.915-8.696 10.034-15.622 10.034z"/></svg>