<svg xmlns="http://www.w3.org/2000/svg" preserveAspectRatio="xMidYMid" width="17" height="16.719" viewBox="0 0 17 16.719"><path d="M8.5 16.719c-4.698 0-8.5-3.753-8.5-8.358C0 3.743 3.817.004 8.5.004S17 3.743 17 8.361c0 4.605-3.802 8.358-8.5 8.358zm0-15.546c-4.037 0-7.311 3.219-7.311 7.188 0 3.955 3.274 7.189 7.311 7.189s7.311-3.219 7.311-7.189c0-3.969-3.274-7.188-7.311-7.188zm2.437 8.17H8.103a.59.59 0 01-.601-.592V4.724a.59.59 0 01.601-.592.59.59 0 01.602.592v3.435h2.232a.591.591 0 110 1.184z" fill-rule="evenodd"/></svg>