<svg xmlns="http://www.w3.org/2000/svg" viewBox="0 0 485.7 485.7"><path d="M485 304.4c-2.3-7.1-10-10.9-17.1-8.6L253 367c-10.2-16.5-28.4-27.4-49.2-27.4h-2.4c-1 0-2.1.1-3.1.2L113 82.9c-1.1-3.4-3.6-6.2-6.8-7.8L19.5 31.5c-6.7-3.3-14.8-.7-18.1 6s-.7 14.8 6 18.1l81.8 41.1 83.5 252c-4.2 2.7-8.1 5.9-11.6 9.7-10.5 11.4-15.9 26.2-15.3 41.6 1.3 31.2 26.7 55.6 57.9 55.6h2.4c31.9-1.3 56.8-28.3 55.5-60.3 0-.8-.1-1.7-.2-2.5l215-71.2c7.1-2.4 10.9-10.1 8.6-17.2zM205 428.5c-17.2.7-31.5-12.6-32.2-29.6-.3-8.3 2.6-16.2 8.2-22.2 5.6-6.1 13.2-9.6 21.5-9.9h1.3c16.6 0 30.2 13 30.9 29.7.6 16.9-12.7 31.3-29.7 32z"/><path d="M228.4 326.7c1.9 5.7 7.2 9.3 12.8 9.3 1.4 0 2.8-.2 4.2-.7L453 266.5c3.4-1.1 6.2-3.6 7.8-6.8 1.6-3.2 1.9-6.9.8-10.3L393.5 43.6c-1.1-3.4-3.6-6.2-6.8-7.8-3.2-1.6-6.9-1.9-10.3-.8L272.6 69.5l-103.8 34.4c-7.1 2.3-10.9 10-8.6 17.1l68.2 205.7zm39.9-227.4l16.5 49.9c1.9 5.7 7.2 9.3 12.8 9.3 1.4 0 2.8-.2 4.2-.7 7.1-2.3 10.9-10 8.6-17.1l-16.5-49.9 78.2-25.9 59.7 180.2-182 60.3-59.7-180.1 78.2-26z"/></svg>