<svg xmlns="http://www.w3.org/2000/svg" width="52" height="33"><path fill-rule="evenodd" fill="#C22255" d="M51.955 27.978c0 .576-.427 1-.998 1H47.96c-.473 2.115-2.653 4-4.893 4-2.239 0-4.117-1.585-4.59-3.701l.492-.299H13.997c-.473 2.115-2.144 4-4.383 4-2.24 0-4.135-1.885-4.608-4H3.009c-.572 0-1.059-.168-1.059-.744l.06-1.256-.964.037a1.038 1.038 0 01-1.034-1.042 1.04 1.04 0 011.034-1.044l.964.049V1.975c0-.576.427-1 .999-1h31.965c.571 0 .999.424.999 1v6.001h6.992c.32 0 .81.445 1 .676a.78.78 0 00.05-.022l7.94 8.347c-.008.125 0 .969 0 1.251v9.75zM9.614 30.892c1.454 0 2.637-1.192 2.637-2.658s-1.183-2.658-2.637-2.658-2.637 1.192-2.637 2.658 1.183 2.658 2.637 2.658zM33.975 2.975H4.007v17.002h29.968V2.975zm0 19.002H4.007v5.001h.999c.473-2.116 2.368-3.488 4.608-3.488 2.239 0 3.91 1.372 4.383 3.488h19.978v-5.001zm9.092 8.915c1.454 0 2.637-1.192 2.637-2.658s-1.183-2.658-2.637-2.658-2.637 1.192-2.637 2.658 1.183 2.658 2.637 2.658zm.897-18.916v5.001h4.995l-4.995-5.001zm5.994 7.001h-6.993a.973.973 0 01-.999-1V9.976h-5.993v17.002h1.998c.472-2.116 2.857-3.488 5.096-3.488 2.24 0 4.118 1.585 4.591 3.701l2.3-.213v-8.001zm-30.967-3h.999c.572 0 .999.424.999 1 0 .576-.427 1-.999 1h-.999a.973.973 0 01-.999-1c0-.576.428-1 .999-1zm3.996 0h8.99c.572 0 .999.424.999 1 0 .576-.427 1-.999 1h-8.99a.973.973 0 01-.999-1c0-.576.427-1 .999-1z"/></svg>