<svg xmlns="http://www.w3.org/2000/svg" width="36" height="36" viewBox="0 0 36 36"><path fill="#010101" d="M10.225 12.529v-.897h.875v.897h-.875zm6.736 10.323c-.613-.883-1.82-2.463-3.006-3.115-1.056-.577-1.698-.18-1.987.107l.633.637c.112-.112.274-.211.631-.088.7.239 1.694 1.188 2.727 2.599.738 1.01 1.237 1.901 1.442 2.364-.524.076-1.277-.008-2.077-.239-1.114-.326-2.129-.88-2.785-1.521-.747-.729-.971-1.494-.665-2.272l.115-.296-.239-.208c-.822-.713-1.241-1.528-1.247-2.426l-.02-3.685h-.446a1.915 1.915 0 010-3.829h1.182c.44 0 .703.387.733.77.006.067.007.183.007.306.003.568.007 1.346.396 1.785l.672-.596c-.166-.187-.17-.892-.171-1.193 0-.147-.001-.273-.01-.375-.073-.909-.773-1.593-1.628-1.593h-1.182a2.814 2.814 0 00-2.812 2.811 2.815 2.815 0 002.365 2.776l.016 2.828c.006 1.063.465 2.058 1.333 2.895-.277 1.021.062 2.056.973 2.942.759.74 1.91 1.373 3.161 1.74.69.201 1.342.305 1.904.305.447 0 .838-.065 1.147-.196l.214-.09.05-.228c.036-.166.039-.414-.389-1.229a16.56 16.56 0 00-1.037-1.686zm6.071-1.686c-.479-.198-1.188-.303-1.733-.004a1.213 1.213 0 00-.622.881l.884.159c.021-.122.073-.2.17-.253.211-.115.615-.096.961.047 1.188.49 2.49 2.377 2.927 3.256-1.091-.029-2.826-.458-3.705-1.197-.325-.275-.494-.561-.5-.848l-.009-.341-.328-.085c-.535-.137-2.159-.344-3.233.344l.484.756c.616-.395 1.639-.377 2.237-.287.101.415.357.799.771 1.146 1.112.936 3.169 1.408 4.427 1.408.192 0 .367-.012.518-.033l.305-.047.066-.301c.129-.58-.807-1.92-1.096-2.316-.488-.664-1.46-1.846-2.524-2.285zm5.6-2.841c-.47 1.554-1.549 2.802-3.396 3.927l-.467-.766c1.33-.812 2.209-1.678 2.709-2.68-2.86.543-6.688.588-7.879.588-2.75 0-5.436-.304-7.767-.877l-.308-.077-.031-.316a4.901 4.901 0 01-.022-.468c0-1.683.862-3.257 2.429-4.431 1.527-1.146 3.552-1.776 5.699-1.776 3.889 0 7.233 2.102 7.978 5.005.046.036.155.092.231.13.387.199 1.19.608.824 1.741zm-15.231-.385c.094-.828.433-1.689.979-2.475.528-.761 1.196-1.379 1.867-1.736v-.776c-2.304.889-3.878 2.665-3.878 4.705v.065c.338.078.682.151 1.032.217zm5.749.555V15.91l-2.439-1.409c-1.01.52-2.273 2.007-2.425 3.594a34.22 34.22 0 004.864.4zm2.907-4.781v-1.05a9.58 9.58 0 00-2.455-.317c-.861 0-1.688.111-2.456.315v1.052l2.456 1.418 2.455-1.418zm3.132 4.511c-.191-1.536-1.59-3.173-2.666-3.745l-2.476 1.429v2.586a55.45 55.45 0 005.142-.27zm2.211-.84c-.264-.134-.594-.302-.686-.675-.295-1.191-1.152-2.287-2.417-3.084a7.683 7.683 0 00-1.346-.671v.738c1.28.692 2.896 2.539 3.127 4.425a20.366 20.366 0 001.749-.301c.014-.197-.115-.273-.427-.432z"/><path fill="#030303" d="M17.976 36.131c-9.925 0-18-8.075-18-18s8.075-18 18-18 18 8.075 18 18c.001 9.925-8.075 18-18 18zm0-35c-9.374 0-17 7.626-17 17s7.626 17 17 17c9.375 0 17-7.626 17-17s-7.625-17-17-17z"/></svg>