<svg xmlns="http://www.w3.org/2000/svg" width="36" height="36" viewBox="0 0 36 36"><path fill="#030303" d="M17.994 36.065c-9.925 0-18-8.074-18-18 0-9.925 8.075-18 18-18 9.924 0 18 8.075 18 18 0 9.926-8.076 18-18 18zm0-35c-9.374 0-17 7.626-17 17s7.626 17 17 17c9.375 0 17-7.626 17-17s-7.625-17-17-17z"/><path d="M25.018 17.568a.359.359 0 10-.603.387 7.879 7.879 0 011.243 4.264c0 2.006-.738 3.544-2.197 4.573-1.315.928-3.206 1.418-5.466 1.418-2.26 0-4.15-.49-5.465-1.418-1.458-1.029-2.198-2.567-2.198-4.573 0-4.304 3.438-7.808 7.663-7.808 2.007 0 3.905.785 5.344 2.211a.358.358 0 10.504-.508 8.253 8.253 0 00-5.848-2.418c-4.62 0-8.38 3.824-8.38 8.522 0 1.146.226 2.174.669 3.055a5.693 5.693 0 001.833 2.104c1.438 1.014 3.471 1.551 5.878 1.551 2.409 0 4.44-.537 5.879-1.551a5.7 5.7 0 001.832-2.104c.443-.881.668-1.909.668-3.055a8.616 8.616 0 00-1.356-4.65zM10.343 12.78c-.521-.64-1.196-.994-1.898-.994-.704 0-1.377.354-1.899.994-.477.588-.751 1.331-.751 2.038 0 1.461 1.189 2.65 2.65 2.65s2.649-1.189 2.649-2.65c.001-.707-.273-1.45-.751-2.038zm-1.898 3.971a1.936 1.936 0 01-1.934-1.933c0-1.049.862-2.315 1.934-2.315 1.071 0 1.933 1.266 1.933 2.315a1.934 1.934 0 01-1.933 1.933zm7.627-8.553c-.521-.641-1.195-.995-1.897-.995-.703 0-1.377.354-1.899.995-.478.586-.751 1.33-.751 2.037a2.653 2.653 0 002.65 2.65 2.653 2.653 0 002.649-2.65c0-.708-.273-1.451-.752-2.037zm-1.897 3.971a1.937 1.937 0 01-1.934-1.935c0-1.048.863-2.314 1.934-2.314s1.934 1.266 1.934 2.314a1.938 1.938 0 01-1.934 1.935zm15.267.611c-.521-.64-1.196-.994-1.899-.994-.702 0-1.376.354-1.898.994-.478.588-.751 1.331-.751 2.038a2.653 2.653 0 002.649 2.65 2.653 2.653 0 002.65-2.65c0-.707-.273-1.45-.751-2.038zm-1.899 3.971a1.937 1.937 0 01-1.934-1.933c0-1.049.862-2.315 1.934-2.315s1.935 1.266 1.935 2.315a1.936 1.936 0 01-1.935 1.933zm-3.83-8.553c-.522-.641-1.196-.995-1.898-.995-.703 0-1.378.354-1.899.995-.478.586-.751 1.33-.751 2.037a2.653 2.653 0 002.65 2.65 2.653 2.653 0 002.649-2.65c0-.708-.274-1.451-.751-2.037zm-1.899 3.971a1.938 1.938 0 01-1.935-1.935c0-1.048.862-2.314 1.935-2.314 1.071 0 1.934 1.266 1.934 2.314a1.937 1.937 0 01-1.934 1.935z"/><path d="M21.432 19.809h-1.933v-1.934a.36.36 0 00-.359-.359h-2.292a.36.36 0 00-.358.359v1.934h-1.934a.358.358 0 00-.358.358v2.292c0 .197.161.357.358.357h1.934v1.935c0 .197.161.357.358.357h2.292c.198 0 .359-.16.359-.357v-1.935h1.933c.198 0 .359-.16.359-.357v-2.292a.358.358 0 00-.359-.358zm-.359 2.292H19.14a.358.358 0 00-.358.358v1.933h-1.575v-1.933a.358.358 0 00-.358-.358h-1.933v-1.576h1.933c.197 0 .358-.16.358-.357v-1.935h1.575v1.935c0 .197.161.357.358.357h1.934v1.576z"/></svg>