<svg width="26" height="26" viewBox="0 0 26 26" fill="none" xmlns="http://www.w3.org/2000/svg"><path style="-inkscape-stroke:none" d="M13 0C5.832 0 0 5.832 0 13s5.832 13 13 13 13-5.832 13-13S20.168 0 13 0zm0 2c6.087 0 11 4.913 11 11s-4.913 11-11 11S2 19.087 2 13 6.913 2 13 2z" color="#000" fill="#a72755"/><path d="M17.002 15.968l-.038-.125-.074-.2-.05-.125-.138-.25-.187-.237-.25-.225-.288-.262-.237-.225-.225-.25-.187-.25-.175-.262-.187-.35-.113-.237-.137-.263-.175-.287-.2-.262-.137-.138-.138-.125-.187-.137-.225-.1-.287-.1-.288-.037h-.3l-.287.037-.412.15-.4.275-.262.262-.163.25-.162.287-.213.438-.2.387-.224.3-.275.35-.812.749-.075.062-.188.263-.15.3-.087.374-.05.338-.012.375.037.25.113.35.162.324.175.225.225.225.3.2.35.162.262.063.4.012.387-.087.237-.113.1-.075.225-.125.212-.125.188-.112.2-.088.162-.075.187-.05.2-.012.238.037.175.038.287.137.35.175.287.188.262.15.263.112.25.05.212.012.175-.012.275-.075.35-.162.25-.175.262-.263.187-.25.163-.337.1-.325.037-.274v-.288l-.013-.162-.037-.275zm-2.141-8.641c.741.078 1.252.998 1.14 2.055-.112 1.057-.803 1.85-1.545 1.771-.74-.078-1.25-.998-1.139-2.055.112-1.057.803-1.85 1.544-1.771zm-2.329 1.766c.112 1.057-.398 1.977-1.14 2.055-.74.079-1.432-.714-1.544-1.771-.111-1.057.399-1.977 1.14-2.055.74-.079 1.432.714 1.544 1.771zm5.043 1.261c.727.162 1.131 1.129.902 2.16-.23 1.03-1.006 1.734-1.733 1.572-.727-.162-1.13-1.129-.901-2.16.23-1.03 1.005-1.734 1.732-1.572zm-7.565 1.573c.23 1.03-.174 1.997-.902 2.159-.727.162-1.503-.542-1.732-1.573-.23-1.03.174-1.997.901-2.159.728-.162 1.503.542 1.733 1.573z" fill="#A72755"/></svg>