<svg xmlns="http://www.w3.org/2000/svg" width="52" height="36"><path fill-rule="evenodd" fill="#C22255" d="M51.401 19.023h-3.669a.6.6 0 110-1.202h3.669a.6.6 0 110 1.202zm-6.835-8.429a.597.597 0 01-.85 0 .6.6 0 010-.85l2.595-2.593a.6.6 0 11.85.85l-2.595 2.593zm-.188 2.42a.604.604 0 01.112.514l-2.52 10.364a.603.603 0 01-.585.459H38.67a.602.602 0 01-.585-.461l-.877-3.663-.877 3.663a.601.601 0 01-.585.461h-2.742a.601.601 0 01-.586-.464l-.848-3.63c-.673 2.551-2.814 4.268-5.583 4.268-2.774 0-4.917-1.722-5.587-4.281l-.887 3.648a.602.602 0 01-.584.459h-2.715a.601.601 0 01-.585-.461l-.877-3.663-.877 3.663a.602.602 0 01-.585.461h-2.743a.601.601 0 01-.586-.464L7.539 13.523a.601.601 0 01.585-.738h2.562a.6.6 0 01.59.487l.866 4.475 1.063-4.499a.603.603 0 01.586-.463h1.963c.28 0 .523.193.586.466l1.046 4.545.954-4.534a.602.602 0 01.589-.477h2.52a.602.602 0 01.584.743l-.173.712c1.029-1.023 2.465-1.629 4.127-1.629 1.697 0 3.159.631 4.191 1.694l-.182-.782a.601.601 0 01.585-.738h2.562a.6.6 0 01.59.487l.866 4.475 1.063-4.499a.601.601 0 01.585-.463h1.963a.6.6 0 01.586.466l1.046 4.545.955-4.534a.601.601 0 01.588-.477h2.52a.6.6 0 01.473.229zm-24.961.973l-1.264 6.002a5.69 5.69 0 00-.113.964.602.602 0 01-.602.6c-.324 0-.618-.257-.628-.582-.001-.002-.016-.404-.151-.966l-1.384-6.018h-1.009l-1.421 6.016c-.136.564-.151.965-.152.969a.602.602 0 01-.601.581c-.332 0-.629-.269-.629-.601a5.76 5.76 0 00-.114-.971l-1.159-5.994H8.882l2.142 9.162h1.791l1.143-4.772c.139-.604.179-1.118.18-1.123a.601.601 0 01.599-.556c.315 0 .604.242.628.556.001.005.041.519.182 1.128l1.141 4.767h1.768l2.228-9.162h-1.267zm6.57-.174c-2.669 0-4.606 1.972-4.606 4.689 0 2.793 1.937 4.82 4.606 4.82 2.668 0 4.605-2.027 4.605-4.82 0-2.717-1.937-4.689-4.605-4.689zm15.886.174l-1.264 6.002c-.109.556-.112.96-.112.964a.603.603 0 01-.602.6c-.325 0-.619-.258-.629-.583a5.47 5.47 0 00-.151-.964l-1.383-6.019h-1.009l-1.421 6.016a5.457 5.457 0 00-.152.97.603.603 0 01-.601.58c-.333 0-.629-.269-.629-.601a5.76 5.76 0 00-.114-.971l-1.16-5.994h-1.307l2.141 9.162h1.792l1.142-4.772c.139-.605.18-1.119.181-1.124a.6.6 0 01.599-.555c.315 0 .604.242.628.556 0 .005.041.519.181 1.128l1.142 4.767h1.767l2.228-9.162h-1.267zm-15.886 8.219c-1.875 0-3.289-1.592-3.289-3.704 0-2.036 1.414-3.572 3.289-3.572 1.874 0 3.288 1.536 3.288 3.572 0 2.112-1.414 3.704-3.288 3.704zm0-6.074c-1.228 0-2.086.975-2.086 2.37 0 1.449.877 2.502 2.086 2.502 1.208 0 2.085-1.053 2.085-2.502 0-1.395-.857-2.37-2.085-2.37zM37.446 5.759a.601.601 0 01-1.138-.388l1.184-3.472a.602.602 0 111.138.389l-1.184 3.471zm-11.442-.87a.601.601 0 01-.602-.601V.62a.602.602 0 111.203 0v3.668a.6.6 0 01-.601.601zM15.783 6.134a.601.601 0 01-.763-.375l-1.185-3.471a.603.603 0 011.139-.389l1.184 3.472a.6.6 0 01-.375.763zM7.866 10.77a.596.596 0 01-.425-.176L4.846 8.001a.6.6 0 11.85-.85l2.595 2.593a.6.6 0 01-.425 1.026zm-2.989 7.652c0 .332-.27.601-.602.601H.606a.6.6 0 110-1.202h3.669c.332 0 .602.269.602.601zm2.564 6.989a.6.6 0 11.85.85l-2.595 2.594a.6.6 0 01-.85 0 .6.6 0 010-.85l2.595-2.594zm7.579 4.836a.601.601 0 111.138.388l-1.184 3.471a.603.603 0 01-.764.375.602.602 0 01-.375-.763l1.185-3.471zm10.984.87a.6.6 0 01.601.601v3.668a.6.6 0 11-1.203 0v-3.668c0-.332.269-.601.602-.601zm10.678-1.246a.602.602 0 01.764.376l1.184 3.471a.6.6 0 11-1.138.388l-1.184-3.471a.601.601 0 01.374-.764zm7.884-4.46l2.595 2.594a.6.6 0 11-.85.85l-2.595-2.594a.6.6 0 11.85-.85z"/></svg>