<svg width="56" height="56" viewBox="0 0 56 56" fill="none" xmlns="http://www.w3.org/2000/svg"><path d="M0 28C0 12.536 12.536 0 28 0s28 12.536 28 28-12.536 28-28 28S0 43.464 0 28z" fill="#000"/><path fill-rule="evenodd" clip-rule="evenodd" d="M27.433 0c-.132 11.52-.885 17.966-5.176 22.257-4.29 4.29-10.738 5.044-22.257 5.176v1.672c11.52.132 17.966.886 22.257 5.176 4.223 4.224 5.02 10.536 5.17 21.719h1.685c.15-11.183.946-17.495 5.17-21.719 4.223-4.223 10.535-5.02 21.718-5.17v-1.684c-11.183-.15-17.495-.947-21.719-5.17-4.29-4.29-5.044-10.738-5.176-22.257h-1.672z" fill="#fff"/></svg>