<svg width="22" height="22" viewBox="0 0 22 22" fill="none" xmlns="http://www.w3.org/2000/svg">
<path fill-rule="evenodd" clip-rule="evenodd" d="M15.4 6.6H19.5556C20.9056 6.6 22 7.49543 22 8.6V13.4C22 14.5046 20.9056 15.4 19.5556 15.4H15.4V19.5556C15.4 20.9056 14.5046 22 13.4 22H8.6C7.49543 22 6.6 20.9056 6.6 19.5556V15.4H2.44444C1.09442 15.4 0 14.5046 0 13.4V8.6C0 7.49543 1.09442 6.6 2.44444 6.6H6.6V2.44444C6.6 1.09442 7.49543 0 8.6 0H13.4C14.5046 0 15.4 1.09442 15.4 2.44444V6.6ZM13.2 8.8V2.2H8.8V8.8H2.2V13.2H8.8V19.8H13.2V13.2H19.8V8.8H13.2Z" fill="black"/>
</svg>
