<svg width="18" height="18" viewBox="0 0 18 18" fill="none" xmlns="http://www.w3.org/2000/svg">
<path d="M16.5 0.666992V5.66699H11.5" stroke="#42AB10" stroke-width="1.2" stroke-linecap="round" stroke-linejoin="round"/>
<path d="M1.5 9.00001C1.50132 7.55277 1.92133 6.13682 2.70938 4.92295C3.49743 3.70909 4.61985 2.74914 5.94126 2.15891C7.26267 1.56868 8.72662 1.37338 10.1566 1.59655C11.5865 1.81973 12.9213 2.45185 14 3.41667L16.5 5.66667" stroke="#42AB10" stroke-width="1.2" stroke-linecap="round" stroke-linejoin="round"/>
<path d="M1.5 17.333V12.333H6.5" stroke="#42AB10" stroke-width="1.2" stroke-linecap="round" stroke-linejoin="round"/>
<path d="M16.5 9C16.4987 10.4472 16.0787 11.8632 15.2906 13.0771C14.5026 14.2909 13.3802 15.2509 12.0587 15.8411C10.7373 16.4313 9.27338 16.6266 7.84345 16.4035C6.41352 16.1803 5.07871 15.5482 4 14.5833L1.5 12.3333" stroke="#42AB10" stroke-width="1.2" stroke-linecap="round" stroke-linejoin="round"/>
</svg>
