<svg width="27" height="27" viewBox="0 0 27 27" fill="none" xmlns="http://www.w3.org/2000/svg">
<path fill-rule="evenodd" clip-rule="evenodd" d="M26.4653 26.1595C26.2963 26.2145 23.8363 26.9975 20.7763 26.9975C18.7013 26.9975 16.3513 26.6385 14.2483 25.4495C13.3573 24.9455 12.5693 24.3235 11.8823 23.5885C11.8133 23.5955 11.7433 23.5975 11.6713 23.5855C11.1363 23.4995 9.55733 23.4145 8.67633 24.0485C8.53733 24.1485 8.37533 24.1965 8.21533 24.1965C7.97733 24.1965 7.74333 24.0905 7.59033 23.8905C7.33633 23.5545 7.40833 23.0815 7.75333 22.8335C8.17533 22.5295 8.65833 22.3335 9.14333 22.2095C4.54833 19.9025 3.95733 16.1355 3.94633 14.4185C3.30633 14.4025 2.55633 14.3115 1.99633 14.0255C1.88833 14.2055 1.82933 14.3225 1.82633 14.3285C1.69733 14.5915 1.42333 14.7585 1.12633 14.7585C1.11133 14.7585 1.09633 14.7585 1.08233 14.7575C0.768327 14.7405 0.495327 14.5405 0.392327 14.2505C-0.162673 12.6915 -0.128673 11.3445 0.493327 10.2465C1.03833 9.28245 1.91433 8.75845 2.51833 8.49545C2.39033 6.54245 3.05233 3.49445 6.41833 2.77145C7.76833 2.48245 9.02833 2.42945 10.1403 2.38345C12.6513 2.27845 13.8943 2.15145 14.7023 0.440451C14.8443 0.138451 15.1733 -0.0365487 15.5093 0.00645135C15.8473 0.0504513 16.1163 0.303451 16.1723 0.630451C16.2033 0.812451 16.3473 1.73645 16.2173 2.78045C16.8073 2.27145 17.3233 1.67045 17.5203 1.03945C17.6263 0.701451 17.9543 0.480451 18.3183 0.505451C18.6793 0.530451 18.9753 0.795451 19.0303 1.14445C19.0603 1.33645 19.7403 5.86945 16.8153 7.51245C16.6103 7.62745 16.4153 7.73445 16.2323 7.83545C15.3733 8.30845 14.6953 8.68145 14.5993 9.01945C14.4783 9.44945 15.0003 10.3925 15.2593 10.8375C16.0873 11.4895 20.6183 15.2455 21.4753 20.0665C22.2463 24.3965 26.1033 24.6785 26.2673 24.6885C26.6373 24.7105 26.9403 24.9855 26.9883 25.3445C27.0363 25.7035 26.8173 26.0455 26.4653 26.1595ZM4.36233 12.9035C4.61533 12.4965 4.60933 12.1135 4.54533 11.8395C3.92633 11.9705 3.38933 12.3525 2.96033 12.7785C3.29333 12.8625 3.83033 12.9125 4.36233 12.9035ZM3.36333 9.79045C3.01733 9.91345 2.25433 10.2545 1.84533 10.9895C1.67533 11.2945 1.57933 11.6425 1.55833 12.0305C2.16633 11.3505 3.01033 10.6595 4.07233 10.3925C3.94133 10.1605 3.72433 9.92545 3.36333 9.79045ZM19.9463 20.3245C19.1253 15.7125 14.2333 11.9735 14.1843 11.9365C14.1813 11.9355 14.1803 11.9325 14.1773 11.9305C14.1443 11.9045 14.1133 11.8755 14.0843 11.8445C14.0763 11.8365 14.0693 11.8285 14.0623 11.8205C14.0343 11.7875 14.0083 11.7535 13.9863 11.7155C13.9853 11.7135 13.9843 11.7125 13.9833 11.7105C13.9833 11.7095 13.9823 11.7095 13.9823 11.7095C13.2713 10.5035 12.8503 9.51645 13.1023 8.61945C13.3683 7.67345 14.2493 7.18945 15.4693 6.51945C15.6483 6.42045 15.8393 6.31545 16.0393 6.20245C16.9303 5.70245 17.3163 4.68345 17.4703 3.71045C16.2563 4.83645 14.8143 5.51645 14.7213 5.56045C14.3653 5.72645 13.9363 5.60445 13.7273 5.27645C13.5193 4.94945 13.5963 4.52145 13.9083 4.28345C14.3003 3.98245 14.5133 3.46345 14.6203 2.91045C13.3943 3.76045 11.8313 3.82545 10.2063 3.89345C9.10733 3.93945 7.97033 3.98745 6.75233 4.24845C4.09933 4.81745 4.00133 7.40245 4.07333 8.44345C5.28133 8.96745 5.72033 10.0945 5.80333 10.8105C6.15233 11.4765 6.42033 12.7515 5.50833 13.9445C5.41833 14.8235 5.31033 18.7275 10.1093 20.9895C9.59433 19.9435 9.20033 18.7685 8.93433 17.4625C8.85033 17.0535 9.12333 16.6555 9.54433 16.5735C9.96233 16.4925 10.3733 16.7585 10.4563 17.1685C11.1283 20.4605 12.6653 22.8065 15.0273 24.1425C17.7623 25.6885 21.0883 25.6115 23.3503 25.2895C21.9383 24.5005 20.4283 23.0355 19.9463 20.3245ZM19.2043 24.7075C19.0963 24.7075 18.9863 24.6855 18.8813 24.6385C13.7223 22.3385 11.9983 17.8605 11.9283 17.6705C11.7813 17.2785 11.9893 16.8445 12.3913 16.7015C12.7943 16.5595 13.2383 16.7605 13.3863 17.1515C13.4023 17.1945 14.9793 21.2365 19.5273 23.2645C19.9173 23.4375 20.0883 23.8865 19.9103 24.2665C19.7793 24.5435 19.4983 24.7075 19.2043 24.7075ZM18.7303 20.8295C18.5723 20.8295 18.4123 20.7835 18.2743 20.6855C16.1613 19.1915 15.6393 17.2355 15.6183 17.1525C15.5143 16.7475 15.7663 16.3365 16.1823 16.2355C16.5963 16.1355 17.0173 16.3795 17.1233 16.7815C17.1323 16.8145 17.5603 18.3115 19.1863 19.4625C19.5333 19.7075 19.6103 20.1805 19.3583 20.5175C19.2063 20.7215 18.9703 20.8295 18.7303 20.8295ZM7.63033 9.65745C6.90633 9.65745 6.31733 9.08445 6.31733 8.37945C6.31733 7.67445 6.90633 7.10145 7.63033 7.10145C8.35433 7.10145 8.94233 7.67445 8.94233 8.37945C8.94233 9.08445 8.35433 9.65745 7.63033 9.65745Z" fill="#101829"/>
</svg>
