<svg xmlns="http://www.w3.org/2000/svg" width="28" height="28" viewBox="0 0 28 28" fill="none">
<path fill-rule="evenodd" clip-rule="evenodd" d="M3 1.3H25C25.9389 1.3 26.7 2.06112 26.7 3V25C26.7 25.9389 25.9389 26.7 25 26.7H3C2.06112 26.7 1.3 25.9389 1.3 25V3C1.3 2.06112 2.06112 1.3 3 1.3ZM0 3C0 1.34315 1.34315 0 3 0H25C26.6569 0 28 1.34315 28 3V25C28 26.6569 26.6569 28 25 28H3C1.34315 28 0 26.6569 0 25V3ZM13.178 19.07C13.4113 19.0793 13.626 19.084 13.822 19.084C15.3713 19.084 16.5007 18.8413 17.21 18.356C17.9287 17.8613 18.288 17.1287 18.288 16.158C18.288 15.4953 18.12 14.982 17.784 14.618C17.448 14.254 16.9953 13.988 16.426 13.82C16.846 13.652 17.182 13.4 17.434 13.064C17.686 12.7187 17.812 12.28 17.812 11.748C17.812 11.272 17.7093 10.8707 17.504 10.544C17.2987 10.2173 17.014 9.956 16.65 9.76C16.2953 9.55467 15.8707 9.41 15.376 9.326C14.8907 9.242 14.368 9.2 13.808 9.2C13.612 9.2 13.402 9.20467 13.178 9.214C12.954 9.22333 12.7253 9.23733 12.492 9.256C12.268 9.27467 12.044 9.298 11.82 9.326C11.596 9.354 11.3907 9.39133 11.204 9.438V18.846C11.3907 18.8927 11.596 18.93 11.82 18.958C12.044 18.986 12.268 19.0093 12.492 19.028C12.7253 19.0467 12.954 19.0607 13.178 19.07ZM12.548 17.894V14.478H14.298C14.69 14.478 15.0447 14.506 15.362 14.562C15.6793 14.618 15.95 14.7113 16.174 14.842C16.4073 14.9727 16.5847 15.15 16.706 15.374C16.8273 15.5887 16.888 15.8547 16.888 16.172C16.888 16.5267 16.804 16.8207 16.636 17.054C16.4773 17.2873 16.2627 17.4693 15.992 17.6C15.7213 17.7307 15.404 17.824 15.04 17.88C14.6853 17.9267 14.3073 17.95 13.906 17.95H13.332C13.1733 17.9407 13.0333 17.9313 12.912 17.922C12.772 17.9127 12.6507 17.9033 12.548 17.894ZM13.976 13.386H12.548V10.39C12.7067 10.3713 12.884 10.3573 13.08 10.348C13.276 10.3387 13.5467 10.334 13.892 10.334C14.2373 10.334 14.564 10.362 14.872 10.418C15.18 10.474 15.446 10.5627 15.67 10.684C15.9033 10.796 16.0853 10.95 16.216 11.146C16.3467 11.3327 16.412 11.566 16.412 11.846C16.412 12.1447 16.3467 12.392 16.216 12.588C16.0947 12.784 15.922 12.9427 15.698 13.064C15.4833 13.1853 15.2267 13.2693 14.928 13.316C14.6293 13.3627 14.312 13.386 13.976 13.386Z" fill="#101829"/>
</svg>
