<svg width="15" height="16" viewBox="0 0 15 16" fill="none" xmlns="http://www.w3.org/2000/svg">
<path d="M4.5 12.5C3.67125 12.5 3.0075 13.1713 3.0075 14C3.0075 14.8287 3.67125 15.5 4.5 15.5C5.32875 15.5 6 14.8287 6 14C6 13.1713 5.32875 12.5 4.5 12.5ZM0 0.5V2H1.5L4.19625 7.68875L3.18375 9.52625C3.0675 9.74375 3 9.9875 3 10.25C3 11.0787 3.67125 11.75 4.5 11.75H13.5V10.25H4.81875C4.71375 10.25 4.63125 10.1675 4.63125 10.0625C4.63125 10.0288 4.63875 9.99875 4.65375 9.9725L5.325 8.75H10.9125C11.475 8.75 11.9662 8.43875 12.225 7.9775L14.9062 3.11C14.9663 3.005 15 2.88125 15 2.75C15 2.55109 14.921 2.36032 14.7803 2.21967C14.6397 2.07902 14.4489 2 14.25 2H3.16125L2.44875 0.5H0ZM12 12.5C11.1713 12.5 10.5075 13.1713 10.5075 14C10.5075 14.8287 11.1713 15.5 12 15.5C12.8287 15.5 13.5 14.8287 13.5 14C13.5 13.1713 12.8287 12.5 12 12.5Z" fill="#42AB10"/>
</svg>
