<svg width="16" height="16" viewBox="0 0 16 16" fill="none" xmlns="http://www.w3.org/2000/svg">
<path d="M15 13V13.8333C15 14.7542 14.2542 15.5 13.3333 15.5H1.66667C0.745833 15.5 0 14.7542 0 13.8333V2.16667C0 1.24583 0.745833 0.5 1.66667 0.5H13.3333C14.2542 0.5 15 1.24583 15 2.16667V3H7.5C6.57917 3 5.83333 3.74583 5.83333 4.66667V11.3333C5.83333 12.2542 6.57917 13 7.5 13H15ZM7.5 11.3333H15.8333V4.66667H7.5V11.3333ZM10.8333 9.25C10.1417 9.25 9.58333 8.69167 9.58333 8C9.58333 7.30833 10.1417 6.75 10.8333 6.75C11.525 6.75 12.0833 7.30833 12.0833 8C12.0833 8.69167 11.525 9.25 10.8333 9.25Z" fill="#42AB10"/>
</svg>
