<svg width="40" height="47" viewBox="0 0 40 47" fill="none" xmlns="http://www.w3.org/2000/svg">
<path fill-rule="evenodd" clip-rule="evenodd" d="M4.74792 26.7173C5.60195 25.961 6.79723 25.5643 7.87186 25.081C8.15199 24.9548 8.56834 25.1265 8.92247 25.1613C8.8354 25.4763 8.81769 25.8325 8.65078 26.0981C7.91822 27.2672 7.14579 28.4123 6.38171 29.5625C4.8795 31.8239 3.68886 34.1946 3.51082 36.9673C3.2688 40.721 6.02832 43.5335 9.43703 42.9607C9.44723 42.8854 9.48154 42.8037 9.46299 42.7358C9.3545 42.331 9.22653 41.9307 9.11804 41.5251C8.17591 38.0202 8.05722 34.5072 9.24601 31.0456C10.4107 27.6537 12.3997 24.7506 14.9992 22.2708C16.5375 20.8034 18.3189 19.7936 20.5225 19.639C20.8317 19.6169 21.2165 19.3369 21.3983 19.0661C22.4021 17.5699 23.379 16.0534 24.3002 14.5066C24.4593 14.239 24.4491 13.6887 24.2724 13.4409C23.2807 12.0492 23.213 10.5011 23.4277 8.92446C23.768 6.43035 24.1764 3.94542 24.5849 1.4614C24.647 1.08412 24.8664 0.732077 25.1617 0C26.1803 1.35584 27.0455 2.41654 27.7984 3.55023C28.1443 4.07118 28.4707 4.25064 29.0966 4.20887C30.7532 4.09688 32.4154 4.03354 34.0762 4.02987C34.7137 4.02895 35.0572 3.86647 35.2687 3.25143C35.6002 2.28573 36.0212 1.35033 36.4533 0.279979C37.503 2.90352 38.4826 5.37744 39.4818 7.8431C40.4893 10.3299 40.0382 12.4618 38.0366 14.3065C37.6921 14.6232 37.4802 15.2116 37.4381 15.694C37.3082 17.1797 37.2178 18.6765 37.2424 20.1668C37.3045 23.9277 35.5714 26.9616 33.2741 29.7201C31.6073 31.7222 30.6044 33.9905 29.9159 36.44C29.5431 37.7647 29.2237 39.1053 28.8059 40.4154C28.3381 41.8794 28.0938 43.2115 29.9637 43.9017C30.1653 43.977 30.3591 44.1725 30.4718 44.3616C30.7518 44.8299 31.2067 45.354 31.1534 45.8047C31.1177 46.1057 30.3392 46.5253 29.8811 46.5409C27.4943 46.6217 25.0954 46.7181 22.7169 46.5658C19.8173 46.3786 16.9552 46.2712 14.0486 46.6475C11.5781 46.967 9.04664 47.0762 6.55872 46.9468C3.77501 46.8008 1.75445 45.2459 0.871765 42.5938C-0.908535 37.2441 -0.125999 31.0345 4.74792 26.7173ZM36.8959 10.171C36.2825 9.16488 35.6904 8.19275 35.0775 7.18666C34.6472 7.74616 34.2369 8.2795 33.8312 8.80779C34.2244 9.40905 34.1645 9.93688 33.6346 10.227C33.4408 10.3334 33.1668 10.3582 32.9419 10.3279C32.7523 10.3022 32.6521 10.3229 32.5562 10.4776C32.4704 10.6153 32.3628 10.7401 32.2145 10.9379C33.8085 10.6768 35.3213 10.4289 36.8959 10.171ZM30.9421 10.9384C30.7627 10.6997 30.6486 10.5207 30.504 10.3711C30.4558 10.3211 30.325 10.3243 30.2388 10.3399C29.8859 10.4032 29.5702 10.3541 29.3171 10.081C29.0685 9.81204 29.0055 9.50269 29.1163 9.15661C29.1186 9.14789 29.1172 9.1355 29.1233 9.12999C29.4399 8.83119 29.1882 8.62052 29.0106 8.39378C28.7027 8.0009 28.399 7.60479 28.0787 7.19033C27.4662 8.19183 26.8704 9.16579 26.2565 10.17C27.8238 10.4271 29.3416 10.6758 30.9421 10.9384Z" fill="#A9B5CF"/>
</svg>
