<svg width="31" height="26" viewBox="0 0 31 26" fill="none" xmlns="http://www.w3.org/2000/svg">
<path fill-rule="evenodd" clip-rule="evenodd" d="M29.3274 15.345L28.0664 15.66C27.9904 16.097 27.8844 16.547 27.7404 17.01C27.7304 17.041 27.7194 17.069 27.7094 17.099L27.9004 17.07C28.3844 17 28.8334 17.342 28.9034 17.838C28.9734 18.335 28.6384 18.795 28.1554 18.867L26.9184 19.051C23.5634 25.782 16.0764 25.999 15.1614 25.999H15.1014C14.1864 25.999 6.72742 25.783 3.36242 19.093L1.84842 18.867C1.36542 18.795 1.03042 18.335 1.10042 17.838C1.17042 17.342 1.62042 17 2.10242 17.07L2.56542 17.139C2.55142 17.095 2.53542 17.054 2.52142 17.01C2.37242 16.535 2.26442 16.073 2.18842 15.626L0.676423 15.248C0.201423 15.129 -0.090577 14.638 0.025423 14.151C0.141423 13.664 0.620423 13.365 1.09442 13.484L2.04542 13.721C2.09442 11.319 3.00042 9.56899 3.40242 8.90999C3.20542 2.73099 5.89342 0.316989 6.00942 0.215989C6.34742 -0.0790113 6.84642 -0.0710113 7.17642 0.234989L10.5484 3.36799C11.9964 2.87599 13.5184 2.62599 15.0804 2.62399C15.0864 2.62399 15.0944 2.62399 15.1014 2.62399H15.1604C16.7294 2.62399 18.2584 2.87399 19.7124 3.36799L23.0854 0.234989C23.4144 -0.0710113 23.9134 -0.0790113 24.2514 0.215989C24.3684 0.316989 27.0554 2.73099 26.8584 8.90999C27.2614 9.57199 28.1754 11.335 28.2164 13.754L28.9094 13.581C29.3844 13.462 29.8624 13.761 29.9784 14.249C30.0934 14.736 29.8024 15.227 29.3274 15.345ZM25.2524 9.70799C25.1304 9.53999 25.0694 9.33299 25.0784 9.12399C25.2544 5.33499 24.2334 3.17899 23.5914 2.21399L20.5094 5.07699C20.2634 5.30499 19.9154 5.37299 19.6044 5.25399C18.1974 4.71399 16.7024 4.43999 15.1614 4.43999C15.1544 4.43999 15.1474 4.43999 15.1404 4.43899H15.1014C13.5574 4.43999 12.0624 4.71399 10.6564 5.25399C10.3464 5.37399 9.99742 5.30499 9.75142 5.07699L6.66842 2.21299C6.02942 3.17499 5.00642 5.33199 5.18242 9.12399C5.19142 9.33299 5.13042 9.53999 5.00842 9.70799C4.94542 9.79699 3.73642 11.541 3.81542 14.164L7.84042 15.169C8.31442 15.288 8.60642 15.779 8.49042 16.266C8.39142 16.681 8.02942 16.959 7.63142 16.959C7.56242 16.959 7.49142 16.951 7.42142 16.933L4.10442 16.104C4.13542 16.221 4.16942 16.338 4.20642 16.456C4.31342 16.8 4.43542 17.123 4.56442 17.437L7.75742 17.913C8.24142 17.985 8.57642 18.446 8.50642 18.942C8.44242 19.394 8.06442 19.719 7.63142 19.719C7.58942 19.719 7.54642 19.716 7.50342 19.71L5.62442 19.43C8.75442 24.026 14.3654 24.183 15.1004 24.184H15.1604C15.8974 24.183 21.5394 24.024 24.6634 19.387L22.5004 19.71C22.4574 19.716 22.4144 19.719 22.3724 19.719C21.9394 19.719 21.5614 19.394 21.4974 18.942C21.4274 18.446 21.7624 17.985 22.2454 17.913L25.7134 17.396C25.8354 17.095 25.9524 16.785 26.0544 16.456C26.0884 16.35 26.1174 16.245 26.1464 16.14L22.5824 17.031C22.5124 17.049 22.4414 17.057 22.3724 17.057C21.9734 17.057 21.6114 16.779 21.5134 16.364C21.3974 15.877 21.6884 15.385 22.1634 15.267L26.4414 14.198C26.5294 11.515 25.2684 9.72999 25.2524 9.70799ZM19.7084 13.912C18.8684 13.912 18.1854 13.211 18.1854 12.35C18.1854 11.488 18.8684 10.787 19.7084 10.787C20.5474 10.787 21.2304 11.488 21.2304 12.35C21.2304 13.211 20.5474 13.912 19.7084 13.912ZM18.5824 19.453C17.8234 20.232 17.0764 20.41 16.5554 20.41C16.5224 20.41 16.4904 20.409 16.4594 20.408C15.9324 20.385 15.4914 20.192 15.1594 19.98C14.8274 20.192 14.3864 20.385 13.8594 20.408C13.8284 20.409 13.7964 20.41 13.7634 20.41C13.2424 20.41 12.4964 20.233 11.7364 19.453C11.3914 19.099 11.3914 18.524 11.7364 18.17C12.0824 17.815 12.6424 17.815 12.9874 18.17C13.2724 18.461 13.5504 18.608 13.7874 18.593C13.9954 18.585 14.1834 18.475 14.3124 18.377L13.3174 16.214C13.2234 16.007 13.2384 15.77 13.3564 15.579C13.4754 15.387 13.6774 15.273 13.8994 15.273H13.9024H16.4174H16.4204C16.6414 15.273 16.8444 15.388 16.9634 15.579C17.0814 15.771 17.0964 16.008 17.0014 16.214L16.0064 18.378C16.1454 18.482 16.3384 18.588 16.5404 18.594C16.7874 18.598 17.0504 18.458 17.3314 18.17C17.6774 17.815 18.2374 17.815 18.5824 18.17C18.9284 18.524 18.9284 19.099 18.5824 19.453ZM10.6114 13.912C9.77142 13.912 9.08842 13.211 9.08842 12.35C9.08842 11.488 9.77142 10.787 10.6114 10.787C11.4514 10.787 12.1344 11.488 12.1344 12.35C12.1344 13.211 11.4514 13.912 10.6114 13.912Z" fill="#101829"/>
</svg>
