<svg width="30" height="26" viewBox="0 0 30 26" fill="none" xmlns="http://www.w3.org/2000/svg">
<path d="M29.6095 11.81C28.7245 13.382 27.3825 13.784 26.2985 13.883C26.5645 14.911 26.7295 16.011 26.7295 17.381C26.7295 19.197 26.3135 20.759 25.4925 22.024C24.7715 23.136 23.7325 24.027 22.4065 24.672C19.9545 25.862 17.0055 26 14.9995 26C12.9935 26 10.0445 25.862 7.59253 24.672C6.26653 24.027 5.22753 23.136 4.50653 22.024C3.68553 20.759 3.26953 19.197 3.26953 17.381C3.26953 16.011 3.43453 14.911 3.70053 13.883C2.61653 13.784 1.27453 13.382 0.389527 11.81C-0.335473 10.522 -0.047473 8.773 1.24553 6.611C2.20053 5.014 3.54153 3.495 4.44753 2.698C6.42353 0.958 8.07353 1 8.87953 1.18C9.21953 1.256 9.53053 1.381 9.80453 1.548C11.2135 0.509 12.9265 0 14.9995 0C17.0725 0 18.7855 0.509 20.1945 1.548C20.4685 1.381 20.7795 1.256 21.1185 1.18C21.9265 1 23.5755 0.958 25.5515 2.698C26.4575 3.495 27.7985 5.014 28.7535 6.611C30.0455 8.773 30.3335 10.522 29.6095 11.81ZM14.9995 18.782C15.2315 18.782 15.7305 18.532 16.1975 18.068C16.6725 17.596 16.9205 17.102 16.9205 16.856C16.9205 16.637 16.8835 16.621 16.7425 16.562C16.3425 16.395 15.5565 16.376 14.9995 16.376C14.4425 16.376 13.6565 16.395 13.2565 16.562C13.1155 16.621 13.0775 16.637 13.0775 16.856C13.0775 17.102 13.3265 17.596 13.8015 18.068C14.2685 18.532 14.7675 18.782 14.9995 18.782ZM5.66453 4.063C4.89153 4.744 3.67353 6.123 2.82453 7.543C1.92953 9.039 1.62653 10.27 1.99253 10.919C2.53153 11.877 3.31153 12.062 4.27053 12.087C4.39853 11.732 4.53553 11.371 4.67653 10.995C4.94153 10.294 5.21653 9.569 5.50053 8.72C6.18753 6.669 7.00853 4.56 8.34853 2.938C7.89753 2.878 6.94153 2.939 5.66453 4.063ZM14.9995 1.825C10.5825 1.825 8.86553 4.45 7.24253 9.296C6.94753 10.178 6.65453 10.953 6.39553 11.637C5.64653 13.617 5.10553 15.048 5.10553 17.381C5.10553 20.108 6.18353 21.957 8.39953 23.033C9.80853 23.717 11.6735 24.088 14.0815 24.162V20.425C13.3605 20.148 12.7735 19.627 12.5035 19.358C12.1245 18.982 11.2415 17.984 11.2415 16.856C11.2415 15.933 11.7045 15.232 12.5445 14.881C13.1035 14.647 13.8155 14.551 14.9995 14.551C16.1835 14.551 16.8955 14.647 17.4545 14.881C18.2945 15.232 18.7575 15.933 18.7575 16.856C18.7575 17.984 17.8745 18.982 17.4955 19.358C17.2255 19.627 16.6385 20.148 15.9175 20.425V24.162C18.3255 24.088 20.1905 23.717 21.5995 23.033C23.8155 21.957 24.8925 20.108 24.8925 17.381C24.8925 15.048 24.3515 13.617 23.6035 11.637C23.3445 10.953 23.0515 10.178 22.7565 9.296C21.1335 4.45 19.4165 1.825 14.9995 1.825ZM27.1745 7.543C26.3255 6.123 25.1075 4.744 24.3345 4.063C23.0575 2.939 22.1005 2.878 21.6505 2.938C22.9905 4.56 23.8115 6.669 24.4985 8.72C24.7825 9.569 25.0565 10.294 25.3225 10.995C25.4635 11.371 25.6005 11.731 25.7285 12.087C26.6875 12.062 27.4675 11.877 28.0065 10.919C28.3725 10.27 28.0695 9.039 27.1745 7.543ZM18.0455 12.131C17.3755 12.131 16.8315 11.585 16.8315 10.909C16.8315 10.235 17.3755 9.687 18.0455 9.687C18.7155 9.687 19.2595 10.235 19.2595 10.909C19.2595 11.585 18.7155 12.131 18.0455 12.131ZM11.9445 12.122C11.2795 12.122 10.7395 11.579 10.7395 10.909C10.7395 10.239 11.2795 9.697 11.9445 9.697C12.6095 9.697 13.1495 10.239 13.1495 10.909C13.1495 11.579 12.6095 12.122 11.9445 12.122Z" fill="#101829"/>
</svg>
