<svg width="20" height="18" viewBox="0 0 20 18" fill="none" xmlns="http://www.w3.org/2000/svg">
<path d="M18.5826 1.45318C17.6376 0.484256 16.3319 0 14.6651 0C14.2038 0 13.733 0.0839793 13.2532 0.251856C12.7732 0.419855 12.3267 0.646509 11.9141 0.931652C11.501 1.21671 11.146 1.48441 10.8481 1.73434C10.5507 1.98435 10.2678 2.25004 10 2.5312C9.73209 2.25004 9.44934 1.98435 9.15182 1.73434C8.8541 1.48441 8.49892 1.21688 8.08588 0.931652C7.67292 0.646386 7.22646 0.419896 6.74658 0.251856C6.26674 0.0840203 5.79604 0 5.33477 0C3.66804 0 2.36232 0.484379 1.41741 1.45318C0.472494 2.42189 0 3.76556 0 5.4843C0 6.00776 0.0875641 6.54701 0.262341 7.10142C0.437117 7.65611 0.636286 8.12883 0.859458 8.51938C1.08259 8.90989 1.33563 9.2907 1.61837 9.66184C1.90112 10.0329 2.10775 10.2887 2.23781 10.4293C2.36798 10.5699 2.47032 10.6716 2.54472 10.7342L9.50892 17.7889C9.64288 17.9295 9.80656 18 9.99998 18C10.1934 18 10.3572 17.9295 10.4911 17.7889L17.4442 10.7573C19.1481 8.96858 20 7.21076 20 5.48414C20 3.76527 19.5276 2.42173 18.5826 1.45318ZM16.4732 9.65597L10 16.2067L3.51578 9.64415C2.12437 8.18354 1.42878 6.79665 1.42878 5.48414C1.42878 4.85142 1.50876 4.29275 1.66864 3.8085C1.82864 3.32416 2.03325 2.93927 2.28249 2.65413C2.53178 2.3689 2.83493 2.13667 3.19206 1.95685C3.5494 1.77719 3.89907 1.65607 4.24127 1.59359C4.58347 1.53121 4.948 1.49997 5.33496 1.49997C5.72181 1.49997 6.13856 1.59946 6.58498 1.79874C7.03132 1.99793 7.4424 2.24794 7.81811 2.54868C8.19389 2.84963 8.51569 3.13083 8.78366 3.39246C9.05147 3.65433 9.27461 3.8944 9.45321 4.11318C9.58706 4.28512 9.7695 4.37107 10.0001 4.37107C10.2307 4.37107 10.4129 4.28512 10.5469 4.11318C10.7255 3.8944 10.9488 3.6542 11.2166 3.39246C11.4845 3.13083 11.8063 2.84975 12.1819 2.54868C12.5577 2.24794 12.9688 1.99793 13.4154 1.79874C13.8616 1.5995 14.2785 1.49997 14.6654 1.49997C15.0523 1.49997 15.4167 1.53121 15.759 1.59359C16.1014 1.65602 16.451 1.77719 16.8082 1.95685C17.1654 2.13663 17.4686 2.36903 17.7178 2.65413C17.967 2.93927 18.1717 3.32416 18.3317 3.8085C18.4914 4.29275 18.5714 4.85142 18.5714 5.48414C18.5713 6.79665 17.8721 8.1874 16.4732 9.65597Z" fill="#A9B5CF"/>
</svg>
