<svg width="34" height="23" viewBox="0 0 34 23" fill="none" xmlns="http://www.w3.org/2000/svg">
<path fill-rule="evenodd" clip-rule="evenodd" d="M27.7251 13.2573C24.3291 19.4453 19.4981 22.9613 14.3141 22.9613C8.77814 22.9613 3.64914 18.9543 0.235141 11.9683L-0.00585938 11.4743L0.235141 10.9833C3.64614 3.99428 8.77814 -0.0117188 14.3141 -0.0117188C19.4981 -0.0117188 24.3291 3.50328 27.7251 9.69128L33.0171 4.34428V18.6043L27.7251 13.2573ZM29.0721 11.4743L30.8171 13.2383V9.71028L29.0721 11.4743ZM14.3141 2.21228C13.3111 2.21228 12.3191 2.37628 11.3521 2.69428C12.5571 5.25828 13.2141 8.32628 13.2141 11.4743C13.2141 14.6223 12.5571 17.6903 11.3521 20.2543C12.3231 20.5723 13.3111 20.7363 14.3141 20.7363C18.8531 20.7363 23.1561 17.3693 26.1761 11.4743C23.1561 5.57928 18.8531 2.21228 14.3141 2.21228ZM9.34214 19.3493C10.4241 17.0723 11.0151 14.3193 11.0151 11.4743C11.0151 8.63228 10.4241 5.87628 9.34214 3.59928C6.71714 5.10728 4.33714 7.79828 2.45314 11.4743C4.33714 15.1503 6.71714 17.8413 9.34214 19.3493ZM7.71214 10.3623V12.5863H5.51214V10.3623H7.71214Z" fill="#101829"/>
</svg>
