<svg width="29" height="28" viewBox="0 0 29 28" fill="none" xmlns="http://www.w3.org/2000/svg">
<path fill-rule="evenodd" clip-rule="evenodd" d="M28.8033 19.9656C28.634 20.1709 28.3337 20.3632 28.0661 20.5331C27.6816 20.6703 26.6142 21.2462 25.7854 21.5047L13.2515 27.7284C13.0878 27.902 12.8586 28 12.6201 28C12.6014 28 12.5836 28 12.564 27.9991C12.3058 27.9813 12.0681 27.8516 11.9157 27.6425C11.8558 27.5072 11.1673 26.4077 11.2271 25.1999C11.3207 23.3164 11.8221 22.1273 12.1626 20.5331L12.5368 18.4759C12.2693 18.5478 11.9914 18.6094 11.7042 18.6635C10.7322 18.8418 9.83417 18.8763 9.22515 18.8707C9.1578 19.1704 9.06706 19.5288 8.95012 19.8965C8.49359 21.3386 7.89207 22.1497 7.11186 22.3755C5.64126 22.7993 3.98542 21.6027 3.69354 21.3796C3.0125 21.8799 2.5092 21.6914 2.26878 21.5318C1.85529 21.2592 1.23131 20.4313 0.782269 19.5642C0.330423 18.6925 -0.162586 17.368 0.0516437 16.0016C0.124613 15.5349 0.423973 14.7798 2.10039 13.0587C3.01998 12.1132 4.27168 10.9595 5.82274 9.62856C7.94446 7.80756 10.0615 6.13963 10.808 5.55721C11.6041 0.213694 12.7866 0.086756 12.9194 0.0428878C13.158 -0.0336483 13.4162 -0.00751402 13.6314 0.119424C13.8465 0.244495 13.9981 0.456369 14.0458 0.699977L16.7419 3.98729C17.1741 4.03676 17.7691 4.14036 18.467 4.35224C19.5381 5.0056 21.6823 6.40751 23.674 8.39558C25.6348 10.0122 24.7685 8.97147 26.1951 11.1994C27.9501 13.9407 28.5189 15.2241 28.9792 19.2292C29.0372 19.4896 28.9726 19.7602 28.8033 19.9656ZM18.0048 6.02296C17.6016 5.89696 17.2424 5.81762 16.9449 5.76536L17.0291 7.18874C17.0562 7.66662 16.6914 8.07637 16.2105 8.10437C16.1946 8.10437 16.1769 8.1053 16.16 8.1053C15.7026 8.1053 15.319 7.75062 15.2919 7.29047L15.1525 4.91506L13.5247 2.31097C13.4255 2.4071 13.3208 2.51724 13.2169 2.64138C12.621 3.3498 12.7829 3.75862 12.4844 6.1303C12.4554 6.35898 12.3366 6.56618 12.1533 6.70712C12.128 6.72766 9.57035 8.69986 6.99399 10.9073C2.12284 15.0859 1.79167 16.1612 1.77016 16.2676C1.56996 17.5463 2.39694 19.036 2.93111 19.7416C3.19118 19.4746 3.53732 19.0602 3.82077 18.6673C4.06213 18.3341 4.50275 18.2146 4.87976 18.3807C5.25583 18.545 5.46445 18.952 5.37744 19.3524L5.17631 20.2895C5.65529 20.5704 6.25401 20.8112 6.61324 20.716C6.71147 20.6553 7.01083 20.296 7.31954 19.287C7.54593 18.545 7.65632 17.8496 7.65632 17.8431C7.72836 17.3923 8.14091 17.0722 8.59837 17.1142C8.64795 17.1198 13.6585 17.5463 15.0617 14.6809C15.2732 14.2515 15.7933 14.0742 16.2246 14.2833C16.6568 14.4923 16.8364 15.0103 16.6259 15.4397C16.1282 16.4571 15.3003 17.2682 14.1852 17.8459L13.9401 19.5129C13.9859 19.7434 13.9335 20.1868 13.7988 21.109C13.7661 21.1556 13.4096 22.4129 13.0981 23.3332C12.6631 24.6175 12.7277 25.8327 12.9756 26.5299L24.3054 20.5433C24.3213 19.4812 23.8723 17.7404 23.3886 15.8662C22.354 12.9308 22.5429 11.3674 21.5176 9.33268C20.4222 7.87103 18.9151 6.79952 18.0048 6.02296ZM26.1951 14.9329C25.0753 13.166 24.8358 11.3777 23.3886 10.266C25.6535 14.2982 25.414 18.0531 25.8518 19.7014C26.2681 19.6137 26.6835 19.5605 27.0436 19.5288C26.9388 17.1599 26.7929 16.3861 26.1951 14.9329ZM12.6341 11.2218C11.8651 11.2218 11.2421 10.5909 11.2421 9.8143C11.2421 9.03774 11.8651 8.40958 12.6341 8.40958C13.4022 8.40958 14.0243 9.03774 14.0243 9.8143C14.0243 10.5909 13.4022 11.2218 12.6341 11.2218Z" fill="#101829"/>
</svg>
