<svg width="20" height="20" viewBox="0 0 20 20" fill="none" xmlns="http://www.w3.org/2000/svg">
<path d="M17.0194 13.3322H6.81388C6.64455 13.3324 6.48015 13.2751 6.3477 13.1696C6.21525 13.0641 6.12262 12.9167 6.08503 12.7516L4.36662 5.265C4.34148 5.15564 4.34133 5.04201 4.36618 4.93259C4.39103 4.82316 4.44023 4.72074 4.51013 4.63296C4.58003 4.54518 4.66883 4.47429 4.76992 4.42557C4.871 4.37685 4.98177 4.35156 5.09398 4.35156H18.7393C18.8516 4.35133 18.9626 4.37646 19.0638 4.42508C19.1651 4.47371 19.2541 4.54457 19.3241 4.63238C19.3942 4.72019 19.4436 4.82268 19.4685 4.93222C19.4934 5.04176 19.4933 5.15551 19.4681 5.265L17.7467 12.7516C17.7092 12.9164 17.6168 13.0637 17.4846 13.1691C17.3525 13.2746 17.1884 13.3321 17.0194 13.3322ZM7.40792 11.8396H16.4253L17.802 5.8456H6.0308L7.40792 11.8396Z" fill="#42AB10"/>
<path d="M8.27377 20.0007C7.70817 20.0007 7.15528 19.8329 6.685 19.5187C6.21473 19.2045 5.84819 18.7579 5.63175 18.2353C5.4153 17.7128 5.35867 17.1378 5.46901 16.5831C5.57935 16.0283 5.85171 15.5188 6.25165 15.1188C6.65159 14.7189 7.16114 14.4465 7.71587 14.3362C8.2706 14.2259 8.84559 14.2825 9.36813 14.4989C9.89067 14.7154 10.3373 15.0819 10.6515 15.5522C10.9658 16.0225 11.1335 16.5754 11.1335 17.141C11.1327 17.8992 10.8311 18.6261 10.295 19.1622C9.75888 19.6983 9.03197 19.9999 8.27377 20.0007ZM8.27377 15.7743C8.00335 15.7743 7.739 15.8545 7.51416 16.0047C7.28932 16.155 7.11409 16.3685 7.01062 16.6184C6.90716 16.8682 6.88012 17.1431 6.93291 17.4084C6.9857 17.6736 7.11596 17.9172 7.30721 18.1084C7.49846 18.2995 7.74212 18.4297 8.00735 18.4824C8.27259 18.5351 8.5475 18.508 8.7973 18.4044C9.04711 18.3009 9.2606 18.1255 9.41077 17.9006C9.56093 17.6758 9.64103 17.4114 9.64093 17.141C9.64054 16.7785 9.49636 16.4311 9.24003 16.1748C8.98371 15.9186 8.6362 15.7745 8.27377 15.7743Z" fill="#42AB10"/>
<path d="M15.5589 20.0007C14.9933 20.0007 14.4404 19.8329 13.9702 19.5187C13.4999 19.2045 13.1333 18.7579 12.9169 18.2353C12.7005 17.7128 12.6438 17.1378 12.7542 16.5831C12.8645 16.0283 13.1369 15.5188 13.5368 15.1188C13.9367 14.7189 14.4463 14.4465 15.001 14.3362C15.5558 14.2259 16.1307 14.2825 16.6533 14.4989C17.1758 14.7154 17.6225 15.0819 17.9367 15.5522C18.2509 16.0225 18.4186 16.5754 18.4186 17.141C18.4178 17.8992 18.1163 18.6261 17.5802 19.1622C17.044 19.6983 16.3171 19.9999 15.5589 20.0007ZM15.5589 15.7743C15.2885 15.7743 15.0242 15.8545 14.7993 16.0047C14.5745 16.155 14.3992 16.3685 14.2958 16.6184C14.1923 16.8682 14.1653 17.1431 14.2181 17.4084C14.2709 17.6736 14.4011 17.9172 14.5924 18.1084C14.7836 18.2995 15.0273 18.4297 15.2925 18.4824C15.5577 18.5351 15.8327 18.508 16.0825 18.4044C16.3323 18.3009 16.5458 18.1255 16.6959 17.9006C16.8461 17.6758 16.9262 17.4114 16.9261 17.141C16.9257 16.7785 16.7815 16.4311 16.5252 16.1748C16.2689 15.9186 15.9214 15.7745 15.5589 15.7743Z" fill="#42AB10"/>
<path d="M5.09354 5.84528C4.93689 5.84526 4.78422 5.79596 4.65715 5.70434C4.53009 5.61273 4.43508 5.48345 4.38558 5.33483L3.10647 1.49254H0.746269C0.548346 1.49254 0.35853 1.41391 0.218577 1.27396C0.0786246 1.13401 0 0.944192 0 0.746269C0 0.548346 0.0786246 0.35853 0.218577 0.218577C0.35853 0.0786246 0.548346 0 0.746269 0H3.64677C3.80342 1.44937e-05 3.95609 0.049322 4.08315 0.140937C4.21022 0.232551 4.30523 0.361827 4.35473 0.510448L5.80399 4.86319C5.84135 4.97536 5.85152 5.0948 5.83367 5.21167C5.81582 5.32854 5.77046 5.4395 5.70133 5.53541C5.63219 5.63131 5.54126 5.70942 5.43602 5.76329C5.33078 5.81717 5.21425 5.84527 5.09603 5.84528H5.09354Z" fill="#42AB10"/>
</svg>
