<svg width="22" height="23" viewBox="0 0 22 23" fill="none" xmlns="http://www.w3.org/2000/svg">
<path d="M10.7925 22C10.682 21.9998 10.5732 21.9734 10.4745 21.9228L0.394968 16.7877C0.276213 16.7273 0.176327 16.6342 0.10655 16.519C0.0367726 16.4038 -0.000127945 16.2709 3.33316e-07 16.1355V5.86378C0.000137174 5.72855 0.0371624 5.59603 0.106925 5.48108C0.176688 5.36613 0.27643 5.27329 0.394968 5.21298L10.4745 0.0764131C10.5733 0.0261576 10.6821 0 10.7925 0C10.9028 0 11.0117 0.0261576 11.1104 0.0764131L21.1899 5.21298C21.3085 5.27329 21.4082 5.36613 21.478 5.48108C21.5477 5.59603 21.5848 5.72855 21.5849 5.86378V16.1355C21.585 16.2709 21.5481 16.4038 21.4784 16.519C21.4086 16.6342 21.3087 16.7273 21.1899 16.7877L11.1104 21.9228C11.0117 21.9734 10.9029 21.9998 10.7925 22ZM1.42588 15.6856L10.7925 20.4582L20.159 15.6856V6.32095L10.7925 1.54109L1.42588 6.32095V15.6856Z" fill="#42AB10"/>
<path d="M10.7925 11.622C10.6822 11.6222 10.5734 11.596 10.4745 11.5455L0.398457 6.37992C0.228316 6.29318 0.0985624 6.14029 0.0377402 5.95489C-0.023082 5.7695 -0.00999062 5.56678 0.0741346 5.39134C0.15826 5.2159 0.306527 5.0821 0.486321 5.01938C0.666114 4.95667 0.862705 4.97017 1.03285 5.05691L10.7925 10.0549L20.5521 5.05691C20.6363 5.01396 20.7279 4.98854 20.8217 4.9821C20.9155 4.97566 21.0096 4.98833 21.0986 5.01938C21.1876 5.05044 21.2698 5.09927 21.3406 5.16309C21.4113 5.22691 21.4691 5.30447 21.5108 5.39134C21.5524 5.47821 21.5771 5.57269 21.5833 5.66938C21.5896 5.76608 21.5773 5.8631 21.5472 5.95489C21.517 6.04669 21.4697 6.13147 21.4078 6.2044C21.3459 6.27733 21.2707 6.33697 21.1864 6.37992L11.1104 11.5455C11.0116 11.596 10.9027 11.6222 10.7925 11.622Z" fill="#42AB10"/>
<path d="M15.8817 9.12635C15.7708 9.12635 15.6614 9.10022 15.5621 9.05L5.38294 3.89009C5.21109 3.80344 5.08002 3.65073 5.01859 3.46554C4.95715 3.28035 4.97038 3.07785 5.05535 2.9026C5.14032 2.72736 5.29009 2.59371 5.47169 2.53106C5.6533 2.46841 5.85187 2.4819 6.02373 2.56855L16.2028 7.74167C16.3485 7.81526 16.4654 7.93694 16.5346 8.0869C16.6038 8.23686 16.6212 8.40629 16.584 8.56762C16.5468 8.72895 16.4571 8.8727 16.3296 8.97548C16.2021 9.07826 16.0443 9.13402 15.8817 9.1337V9.12635Z" fill="#42AB10"/>
<path d="M10.7931 22.0015C10.5729 22.0015 10.3617 21.9257 10.206 21.7906C10.0504 21.6555 9.96289 21.4724 9.96289 21.2813V11.0991C9.96289 10.9081 10.0504 10.7249 10.206 10.5898C10.3617 10.4548 10.5729 10.3789 10.7931 10.3789C11.0133 10.3789 11.2244 10.4548 11.3801 10.5898C11.5358 10.7249 11.6233 10.9081 11.6233 11.0991V21.2813C11.6233 21.4724 11.5358 21.6555 11.3801 21.7906C11.2244 21.9257 11.0133 22.0015 10.7931 22.0015Z" fill="#42AB10"/>
</svg>
