<svg width="16" height="19" viewBox="0 0 16 19" fill="none" xmlns="http://www.w3.org/2000/svg">
<path d="M8 10C7.0111 10 6.0444 9.70676 5.22215 9.15735C4.3999 8.60794 3.75904 7.82705 3.3806 6.91342C3.00217 5.99979 2.90315 4.99445 3.09608 4.02455C3.289 3.05465 3.76521 2.16373 4.46447 1.46447C5.16373 0.765206 6.05465 0.289002 7.02455 0.0960758C7.99445 -0.0968502 8.99979 0.0021664 9.91342 0.380605C10.827 0.759043 11.6079 1.3999 12.1573 2.22215C12.7068 3.0444 13 4.0111 13 5C13 6.32608 12.4732 7.59785 11.5355 8.53553C10.5979 9.47322 9.32608 10 8 10ZM8 1.25C7.25832 1.25 6.5333 1.46994 5.91661 1.88199C5.29993 2.29405 4.81928 2.87972 4.53545 3.56494C4.25163 4.25016 4.17736 5.00416 4.32206 5.73159C4.46675 6.45902 4.8239 7.1272 5.34835 7.65165C5.8728 8.1761 6.54098 8.53325 7.26841 8.67795C7.99584 8.82264 8.74984 8.74838 9.43506 8.46455C10.1203 8.18072 10.706 7.70007 11.118 7.08339C11.5301 6.46671 11.75 5.74168 11.75 5C11.75 4.00544 11.3549 3.05161 10.6517 2.34835C9.94839 1.64509 8.99456 1.25 8 1.25Z" fill="#42AB10"/>
<path d="M12.6667 19H3.33333C2.44928 19 1.60143 18.6771 0.976311 18.1023C0.351189 17.5276 0 16.748 0 15.9352V13.4833C2.01784e-05 13.3769 0.0301489 13.2724 0.087424 13.1799C0.144699 13.0875 0.227148 13.0104 0.326667 12.9561L3.66 11.1172C3.81039 11.0547 3.98065 11.0458 4.13784 11.092C4.29502 11.1383 4.42794 11.2365 4.5109 11.3677C4.59385 11.4989 4.62093 11.6537 4.5869 11.8022C4.55287 11.9507 4.46014 12.0823 4.32667 12.1715L1.33333 13.8327V15.9352C1.33333 16.4229 1.54405 16.8906 1.91912 17.2355C2.29419 17.5803 2.8029 17.7741 3.33333 17.7741H12.6667C13.1971 17.7741 13.7058 17.5803 14.0809 17.2355C14.456 16.8906 14.6667 16.4229 14.6667 15.9352V13.8327L11.66 12.1715C11.575 12.1362 11.499 12.0849 11.4369 12.0209C11.3749 11.9568 11.3281 11.8816 11.2996 11.7999C11.2712 11.7182 11.2617 11.6319 11.2718 11.5467C11.2819 11.4614 11.3113 11.379 11.3582 11.3049C11.4051 11.2307 11.4684 11.1665 11.544 11.1162C11.6196 11.066 11.7058 11.0309 11.7971 11.0132C11.8884 10.9955 11.9827 10.9956 12.0739 11.0135C12.1651 11.0315 12.2512 11.0668 12.3267 11.1172L15.66 12.9561C15.762 13.0088 15.8471 13.0853 15.9068 13.1778C15.9665 13.2704 15.9986 13.3757 16 13.4833V15.9352C16 16.748 15.6488 17.5276 15.0237 18.1023C14.3986 18.6771 13.5507 19 12.6667 19Z" fill="#42AB10"/>
</svg>
