<svg width="22" height="16" viewBox="0 0 22 16" fill="none" xmlns="http://www.w3.org/2000/svg">
<path fill-rule="evenodd" clip-rule="evenodd" d="M11.0468 9.65632C12.8719 11.4814 15.831 11.4814 17.6561 9.65632C19.4812 7.8312 19.4812 4.87209 17.6561 3.04696C15.831 1.22183 12.8719 1.22183 11.0468 3.04696C9.22163 4.87209 9.22163 7.8312 11.0468 9.65632ZM10.1757 10.5274C12.315 12.6667 15.6874 12.8215 18.0051 10.9917L20.8372 13.8238C21.0672 14.0539 21.4402 14.0539 21.6702 13.8238C21.9002 13.5938 21.9002 13.2209 21.6702 12.9909L18.8533 10.174C20.8277 7.85377 20.7189 4.36772 18.5272 2.17593C16.221 -0.130257 12.4819 -0.130257 10.1757 2.17593C7.86954 4.48211 7.86954 8.22117 10.1757 10.5274ZM0.799373 4.19552C0.357892 4.19552 0 4.55342 0 4.9949C0 5.43638 0.357891 5.79427 0.799373 5.79427H5.59561C6.03709 5.79427 6.39498 5.43638 6.39498 4.9949C6.39498 4.55342 6.03709 4.19552 5.59561 4.19552H0.799373ZM0 9.79177C0 9.35029 0.357892 8.9924 0.799373 8.9924H7.20063C7.64211 8.9924 8 9.35029 8 9.79177C8 10.2333 7.64211 10.5911 7.20063 10.5911H0.799373C0.357892 10.5911 0 10.2333 0 9.79177ZM0.799373 13.7893C0.357892 13.7893 0 14.1472 0 14.5886C0 15.0301 0.357891 15.388 0.799372 15.388H12.79C13.2315 15.388 13.5893 15.0301 13.5893 14.5886C13.5893 14.1472 13.2315 13.7893 12.79 13.7893H0.799373Z" fill="#586580"/>
</svg>
