<svg width="28" height="26" viewBox="0 0 28 26" fill="none" xmlns="http://www.w3.org/2000/svg">
<path fill-rule="evenodd" clip-rule="evenodd" d="M24.1291 7.14385C24.8961 8.35885 27.8441 13.3659 26.8111 16.9859C25.2641 22.4049 20.9101 23.5669 17.3351 23.7809V25.0789C17.3351 25.5849 16.9331 25.9959 16.4331 25.9959H13.5151H13.5081H10.5881C10.0901 25.9959 9.68611 25.5849 9.68611 25.0789V23.7799C6.11211 23.5649 1.76311 22.4009 0.217113 16.9859C-0.815887 13.3659 2.13111 8.35885 2.89811 7.14385C2.86011 6.55185 2.79511 6.01085 2.73211 5.48485C2.58811 4.28585 2.46411 3.25085 2.77111 2.27485C3.10711 1.20985 3.94011 0.401851 5.00111 0.112851C6.05811 -0.176149 7.17311 0.097851 7.98311 0.843851L9.13111 1.89885C10.5301 1.43085 12.0001 1.19385 13.5081 1.19285C15.0271 1.19385 16.4981 1.43085 17.8971 1.89885L19.0451 0.843851C19.8561 0.097851 20.9721 -0.175149 22.0271 0.112851C23.0881 0.401851 23.9211 1.20985 24.2571 2.27385C24.5641 3.25085 24.4401 4.28685 24.2961 5.48585C24.2321 6.01185 24.1671 6.55285 24.1291 7.14385ZM14.4171 24.1629H15.5311V21.8329C15.1341 21.8139 14.7571 21.7379 14.4171 21.6309V24.1629ZM11.4901 24.1629H12.6061V21.6229C12.2651 21.7329 11.8891 21.8089 11.4901 21.8269V24.1629ZM22.5051 5.26385C22.6281 4.23785 22.7261 3.42685 22.5391 2.83285C22.3891 2.35885 22.0321 2.01185 21.5591 1.88285C21.0911 1.75485 20.6151 1.87185 20.2551 2.20285L18.7101 3.62385C18.4601 3.85285 18.1051 3.92185 17.7881 3.80185C16.4371 3.28785 15.0001 3.02685 13.5191 3.02585C12.0281 3.02685 10.5921 3.28785 9.24011 3.80185C8.92311 3.92285 8.56811 3.85385 8.31811 3.62385L6.77311 2.20285C6.41311 1.87185 5.93811 1.75485 5.46911 1.88285C4.99611 2.01185 4.63911 2.35885 4.48911 2.83385C4.30211 3.42685 4.40011 4.23685 4.52311 5.26285C4.59711 5.87785 4.68011 6.57385 4.71711 7.35085C4.72611 7.54885 4.67111 7.74585 4.56111 7.90985C3.57611 9.38285 1.18511 13.7939 1.95011 16.4759C3.12911 20.6079 6.20911 21.7009 9.68611 21.9329V21.5129C9.29611 21.3529 8.90011 21.1249 8.50311 20.8159C8.10611 20.5069 8.03111 19.9339 8.33311 19.5309C8.63711 19.1299 9.20111 19.0519 9.59811 19.3609C9.83511 19.5439 10.0641 19.6829 10.2861 19.7789C11.1881 20.1849 11.9531 19.9679 12.4251 19.7269C12.4581 19.7099 12.4861 19.6929 12.5161 19.6759L11.3901 17.9309C11.2671 17.7409 11.2561 17.4989 11.3621 17.2989C11.4781 17.0809 11.7121 16.9459 11.9721 16.9459H15.0431C15.3031 16.9459 15.5361 17.0809 15.6521 17.2989C15.7581 17.4989 15.7481 17.7409 15.6251 17.9309L14.4981 19.6779C14.5271 19.6939 14.5551 19.7109 14.5871 19.7269C15.0591 19.9709 15.8301 20.1909 16.7391 19.7819C16.9581 19.6828 17.1881 19.5459 17.4201 19.3659C17.8171 19.0569 18.3841 19.1349 18.6851 19.5359C18.9871 19.9389 18.9121 20.5129 18.5181 20.8219C18.1211 21.1309 17.7241 21.3559 17.3351 21.5159V21.9339C20.8141 21.7039 23.8981 20.6109 25.0781 16.4759C25.8451 13.7869 23.4531 9.38085 22.4671 7.90985C22.3561 7.74585 22.3021 7.54885 22.3111 7.35085C22.3481 6.57385 22.4311 5.87785 22.5051 5.26385ZM17.9891 12.6279C17.1501 12.6279 16.4671 11.9339 16.4671 11.0819C16.4671 10.2289 17.1501 9.53585 17.9891 9.53585C18.8281 9.53585 19.5111 10.2289 19.5111 11.0819C19.5111 11.9339 18.8281 12.6279 17.9891 12.6279ZM9.03011 12.6279C8.19111 12.6279 7.50811 11.9339 7.50811 11.0819C7.50811 10.2289 8.19111 9.53585 9.03011 9.53585C9.86911 9.53585 10.5511 10.2289 10.5511 11.0819C10.5511 11.9339 9.86911 12.6279 9.03011 12.6279Z" fill="#101829"/>
</svg>
