<svg width="53" height="36" viewBox="0 0 53 36" fill="none" xmlns="http://www.w3.org/2000/svg">
<path d="M20.6404 14.9986C21.0653 15.3506 21.3414 15.8739 21.3414 16.4664C21.3414 17.526 20.4764 18.3846 19.4091 18.3846C18.3422 18.3846 17.4768 17.5255 17.4768 16.4664C17.4768 16.4 17.4898 16.3376 17.4963 16.2732C17.4747 16.2736 17.4551 16.2756 17.4331 16.2756C17.0812 16.2756 16.6978 16.2456 16.2802 16.1764C15.8026 16.0974 15.4796 15.6486 15.5591 15.1743C15.6386 14.7001 16.0918 14.3785 16.5685 14.4583C18.6432 14.8009 19.3087 13.8742 19.3361 13.8349C19.6049 13.4465 20.1436 13.329 20.5417 13.5842C20.9401 13.839 21.0702 14.3513 20.8255 14.7547C20.8161 14.7713 20.7558 14.8657 20.6404 14.9986ZM35.5213 16.4664C35.5213 16.4 35.5083 16.3376 35.5017 16.2732C35.5233 16.2736 35.5429 16.2756 35.5649 16.2756C35.9165 16.2756 36.3003 16.2456 36.7179 16.1764C37.1959 16.0974 37.5185 15.6486 37.4389 15.1743C37.3594 14.7001 36.9022 14.3781 36.43 14.4583C34.392 14.7956 33.7118 13.905 33.6636 13.8378C33.4091 13.4384 32.8781 13.3153 32.4707 13.5591C32.0555 13.8078 31.9226 14.3432 32.1726 14.7551C32.1827 14.7717 32.2431 14.8665 32.3585 14.9994C31.9336 15.3513 31.6575 15.8746 31.6575 16.4672C31.6575 17.5267 32.5225 18.3854 33.589 18.3854C34.6563 18.3846 35.5213 17.526 35.5213 16.4664ZM52.2085 25.8894C52.1253 26.3037 51.759 26.5909 51.3491 26.5909C51.292 26.5909 51.2349 26.5856 51.1774 26.5743L45.9062 25.535C43.2332 31.4528 35.5464 35.7417 26.4993 35.7417C17.4519 35.7417 9.76413 31.4534 7.09239 25.535L1.82158 26.5743C1.76407 26.5856 1.70656 26.5909 1.65029 26.5909C1.24041 26.5909 0.87377 26.3041 0.790977 25.8894C0.696359 25.4175 1.0055 24.9594 1.48022 24.8655L6.48595 23.8784C6.22126 22.9294 6.08097 21.9481 6.08097 20.9431C6.08097 20.4061 6.13521 19.8718 6.21473 19.3404L1.47973 18.4064C1.0046 18.3129 0.695874 17.8544 0.790486 17.3825C0.885104 16.9111 1.34555 16.6053 1.82149 16.698L6.59679 17.6397C6.71833 17.2537 6.85822 16.8706 7.02257 16.4915C7.18693 15.165 7.56091 13.8458 8.1347 12.5684C8.31007 12.1788 8.39368 11.7263 8.38348 11.2233L8.20689 2.50546C8.1922 1.77196 8.52132 1.0976 9.11023 0.654438C9.69874 0.212151 10.4427 0.0792965 11.1482 0.29396L19.9204 2.94161C24.1741 1.68845 28.825 1.68886 33.0776 2.9412L41.8493 0.293969C42.5569 0.0805192 43.298 0.211749 43.8876 0.654448C44.4761 1.09714 44.8057 1.77147 44.7914 2.50505L44.6148 11.2245C44.6046 11.7272 44.6878 12.1796 44.8632 12.5688C45.4366 13.8443 45.8106 15.1631 45.9766 16.4915C46.1405 16.8706 46.2804 17.2538 46.4015 17.6397L51.1764 16.698C51.647 16.6049 52.1124 16.9103 52.2074 17.3825C52.3016 17.8544 51.9929 18.3129 51.5178 18.4065L46.7828 19.3404C46.8623 19.8722 46.9165 20.406 46.9165 20.9431C46.9165 21.948 46.7762 22.9289 46.5115 23.878L51.5177 24.865C51.9932 24.9594 52.3024 25.4175 52.2081 25.8894H52.2085ZM45.1632 20.9432C45.1632 20.5203 45.1228 20.0995 45.0641 19.6794L41.2561 20.4304C41.1986 20.4417 41.1415 20.447 41.0844 20.447C40.6745 20.447 40.3083 20.1602 40.2251 19.7455C40.1309 19.2736 40.4396 18.8155 40.9147 18.7216L44.6709 17.9812C44.569 17.6766 44.4531 17.374 44.3198 17.0743C44.2839 16.9933 44.2602 16.9078 44.2508 16.82C44.1142 15.6248 43.7814 14.4335 43.2627 13.2793C42.9817 12.6535 42.8471 11.9508 42.8626 11.1897L43.0392 2.47071C43.0437 2.23944 42.9107 2.10415 42.8308 2.04381C42.7508 1.98387 42.5836 1.89395 42.3614 1.96078L33.3348 4.68495C33.1667 4.73639 32.9881 4.73558 32.8205 4.68373C28.745 3.43057 24.2564 3.43099 20.1811 4.68414C20.0139 4.73517 19.8345 4.73639 19.6669 4.68535L10.6403 1.96118C10.5844 1.94458 10.5318 1.93729 10.4837 1.93729C10.3393 1.93729 10.2304 1.99926 10.1708 2.04421C10.0909 2.10415 9.95795 2.23943 9.96244 2.47111L10.139 11.1893C10.1541 11.9512 10.0195 12.6539 9.73854 13.2788C9.21936 14.4356 8.88739 15.6268 8.75199 16.8199C8.7422 16.9082 8.71814 16.9945 8.68225 17.0755C8.54849 17.3752 8.43266 17.6778 8.3307 17.982L12.0865 18.7223C12.5616 18.8163 12.8703 19.2748 12.7757 19.7463C12.6929 20.1606 12.3263 20.4478 11.9164 20.4478C11.8597 20.4478 11.8026 20.4425 11.7447 20.4312L7.93631 19.6802C7.87759 20.0998 7.8368 20.5211 7.8368 20.944C7.8368 21.8326 7.96527 22.7005 8.20834 23.5398L11.7442 22.8423C12.2202 22.7504 12.681 23.0554 12.7752 23.5272C12.8699 23.9991 12.5607 24.4572 12.086 24.5511L8.85476 25.1882C11.3793 30.3099 18.3332 34 26.5014 34C34.6687 34 41.6225 30.3093 44.147 25.1878L40.9166 24.5507C40.4414 24.4567 40.1327 23.9983 40.2269 23.5268C40.3215 23.0545 40.7881 22.7504 41.2579 22.8419L44.7934 23.539C45.0357 22.6993 45.1641 21.8313 45.1641 20.9432L45.1632 20.9432ZM30.3376 25.6261H30.3249C29.2772 25.6504 28.5092 25.3863 28.0252 24.8691C27.765 24.5917 27.6108 24.2624 27.5162 23.9497L29.5558 21.2311C29.7833 20.9257 29.8188 20.5191 29.6488 20.1792C29.4767 19.8386 29.1267 19.6243 28.743 19.6243L24.2563 19.6239C23.8726 19.6239 23.5226 19.8382 23.3505 20.1788C23.1805 20.5186 23.2159 20.9253 23.4435 21.2307L25.4827 23.9489C25.3876 24.2615 25.2343 24.5908 24.9737 24.8687C24.4892 25.3859 23.7094 25.6455 22.6739 25.6257C22.1902 25.6103 21.7914 26.0032 21.7845 26.4843C21.7775 26.9651 22.1646 27.3608 22.6491 27.3677C22.6862 27.3681 22.7229 27.3681 22.76 27.3681C24.2751 27.3681 25.4574 26.9214 26.2739 26.0384C26.355 25.9509 26.4301 25.861 26.4998 25.7699C26.5695 25.861 26.6446 25.9509 26.7258 26.0384C27.5426 26.9214 28.7246 27.3681 30.2396 27.3681C30.2763 27.3681 30.3134 27.3681 30.3506 27.3677C30.8347 27.3608 31.2217 26.9651 31.2152 26.4843C31.2074 26.0076 30.8164 25.6261 30.3376 25.6261ZM37.281 18.5033C37.7761 19.174 40.2439 22.6079 40.2439 24.3374C40.2439 26.3471 38.5971 27.9822 36.5738 27.9822C34.5501 27.9822 32.9037 26.3467 32.9037 24.3374C32.9037 22.6079 35.3716 19.1741 35.8667 18.5033C36.1962 18.0554 36.9511 18.0554 37.2811 18.5033H37.281ZM38.4898 24.3374C38.4898 23.7108 37.5889 22.0567 36.5737 20.5411C35.5586 22.0579 34.6577 23.712 34.6577 24.3374C34.6577 25.3868 35.517 26.2402 36.5737 26.2402C37.6304 26.2402 38.4898 25.3868 38.4898 24.3374Z" fill="#586580"/>
</svg>
