<svg width="10" height="9" viewBox="0 0 10 9" fill="none" xmlns="http://www.w3.org/2000/svg">
<path d="M8.66759 6.8495L8.63793 6.75064L8.5786 6.59239L8.53907 6.49346L8.43027 6.29567L8.28188 6.10774L8.0841 5.92976L7.85664 5.72203L7.66871 5.54404L7.49073 5.34619L7.34234 5.1484L7.20388 4.94075L7.05555 4.66383L6.96649 4.4759L6.8577 4.26817L6.71924 4.04071L6.56105 3.83299L6.45226 3.72419L6.34346 3.62533L6.19507 3.51654L6.01708 3.43741L5.78963 3.35828L5.5621 3.32861H5.32478L5.09725 3.35828L4.77093 3.47694L4.45441 3.69452L4.24669 3.90225L4.11816 4.10003L3.98957 4.32749L3.82145 4.67367L3.66319 4.98025L3.4852 5.21763L3.26762 5.49455L2.62473 6.08792L2.5654 6.13739L2.41708 6.34511L2.29842 6.58244L2.22915 6.87916L2.18962 7.14621L2.17969 7.44293L2.20935 7.64072L2.29842 7.91764L2.42694 8.17476L2.5654 8.35282L2.74345 8.53081L2.98078 8.68906L3.2577 8.81766L3.46543 8.86712L3.78195 8.87699L4.08853 8.80772L4.27645 8.71873L4.35552 8.6594L4.53357 8.56047L4.70169 8.46161L4.85002 8.37261L5.00828 8.30335L5.13687 8.24402L5.28519 8.20442L5.44345 8.19456L5.63138 8.22422L5.76984 8.25389L5.99729 8.36268L6.27421 8.50114L6.50174 8.64953L6.70939 8.76819L6.91712 8.85719L7.11491 8.89678L7.28303 8.90665L7.42149 8.89678L7.63907 8.83739L7.91599 8.70886L8.11378 8.5704L8.3215 8.36268L8.46983 8.16489L8.59842 7.89784L8.67755 7.64072L8.70721 7.42314V7.19568L8.69728 7.06709L8.66759 6.8495Z" fill="#FAE100"/>
<path d="M6.97297 0.00814259C7.55958 0.0702312 7.96343 0.798679 7.87498 1.63522C7.78647 2.47177 7.23912 3.09963 6.65245 3.03753C6.06584 2.97551 5.66199 2.24699 5.75043 1.41045C5.83894 0.573909 6.3863 -0.0539531 6.97297 0.00814259Z" fill="#FAE100"/>
<path d="M5.12884 1.40654C5.21735 2.24308 4.8135 2.97159 4.22682 3.03361C3.64015 3.0957 3.09287 2.46785 3.00436 1.63131C2.91585 0.794763 3.31969 0.0663221 3.90637 0.00422644C4.49304 -0.0577933 5.04039 0.570063 5.12884 1.40654Z" fill="#FAE100"/>
<path d="M9.12173 2.40508C9.69757 2.53333 10.0171 3.29861 9.83541 4.11432C9.6537 4.93004 9.03963 5.48738 8.4638 5.35913C7.88802 5.23088 7.56848 4.46559 7.75019 3.64989C7.93183 2.83417 8.54597 2.27683 9.12173 2.40508Z" fill="#FAE100"/>
<path d="M3.13226 3.64989C3.3139 4.46561 2.99442 5.23089 2.41858 5.35912C1.8428 5.48737 1.22875 4.93002 1.04704 4.11432C0.865395 3.29859 1.18488 2.53331 1.76064 2.40508C2.33648 2.27683 2.95055 2.83418 3.13226 3.64989Z" fill="#FAE100"/>
</svg>
