<svg width="14" height="13" viewBox="0 0 14 13" fill="none" xmlns="http://www.w3.org/2000/svg">
<path d="M0.753204 12.2415C0.648788 12.5542 0.946168 12.8518 1.25894 12.7477L4.56954 11.6457C4.85191 11.5517 4.93641 11.1933 4.72575 10.9831L2.51869 8.78058C2.30841 8.57074 1.95084 8.65524 1.85674 8.93701L0.753204 12.2415Z" fill="#42AB10"/>
<path d="M13.2165 3.39989C13.373 3.2436 13.3729 2.98994 13.2164 2.83369L10.6594 0.282034C10.5032 0.126188 10.2504 0.12622 10.0942 0.282106L9.61928 0.756324C9.46274 0.912613 9.46277 1.16628 9.61935 1.32253L12.1763 3.87418C12.3325 4.03002 12.5854 4.02999 12.7415 3.8741L13.2165 3.39989Z" fill="#42AB10"/>
<path d="M10.9212 3.65906C10.7651 3.50316 10.5122 3.50308 10.356 3.65886L4.67262 9.32702C4.51582 9.4834 4.51592 9.73741 4.67283 9.89368L5.40857 10.6264C5.56476 10.7819 5.81735 10.7818 5.97337 10.6261L11.654 4.95726C11.8106 4.80102 11.8106 4.54739 11.6541 4.3911L10.9212 3.65906Z" fill="#42AB10"/>
<path d="M3.58564 8.80726C3.74171 8.96327 3.99464 8.96342 4.15089 8.80759L9.83433 3.13942C9.99108 2.98309 9.99104 2.72917 9.83424 2.57289L9.09716 1.83825C8.94099 1.6826 8.68831 1.68268 8.53224 1.83843L2.8516 7.50724C2.69509 7.66343 2.69499 7.91697 2.85136 8.07328L3.58564 8.80726Z" fill="#42AB10"/>
</svg>
