<svg width="14" height="15" viewBox="0 0 14 15" fill="none" xmlns="http://www.w3.org/2000/svg">
<path d="M0.307993 12.8744L1.79297 14.3594L13.6926 2.45971L12.2077 0.974734L0.307993 12.8744Z" fill="#101829"/>
<path d="M10.7058 14.6665C8.88953 14.6665 7.41187 13.1887 7.41187 11.3724C7.41187 9.55606 8.8895 8.07812 10.7058 8.07812C12.5223 8.07812 14 9.55592 14 11.3722C14 13.1886 12.5222 14.6665 10.7058 14.6665ZM10.7058 10.1782C10.0475 10.1782 9.51199 10.7139 9.51199 11.3722C9.51199 12.0305 10.0475 12.5663 10.7058 12.5663C11.3642 12.5663 11.8998 12.0307 11.8998 11.3723C11.8998 10.714 11.3642 10.1782 10.7058 10.1782Z" fill="#101829"/>
<path d="M3.29411 7.25424C1.47764 7.25424 0 5.77644 0 3.96013C0 2.14382 1.47777 0.666016 3.29411 0.666016C5.11046 0.666016 6.58809 2.14382 6.58809 3.96C6.58823 5.77647 5.11043 7.25424 3.29411 7.25424ZM3.29411 2.76614C2.63579 2.76614 2.10013 3.30167 2.10013 3.96C2.10013 4.61845 2.63579 5.15398 3.29411 5.15398C3.95244 5.15398 4.48797 4.61845 4.48797 3.96C4.4881 3.30167 3.95244 2.76614 3.29411 2.76614Z" fill="#101829"/>
</svg>
