<svg width="18" height="23" viewBox="0 0 18 23" fill="none" xmlns="http://www.w3.org/2000/svg">
<path d="M9 23C8.68676 22.9972 8.37755 22.9276 8.09216 22.7956C7.80677 22.6635 7.55149 22.472 7.34267 22.2333C4.60544 19.1667 0.000905535 13.3323 0.000905535 9.476C-0.0331653 6.99992 0.895406 4.61124 2.5827 2.83453C4.26999 1.05783 6.57804 0.0383523 9 0C11.422 0.0383523 13.73 1.05783 15.4173 2.83453C17.1046 4.61124 18.0332 6.99992 17.9991 9.476C17.9991 13.3093 13.3946 19.1283 10.6573 22.241C10.4478 22.4783 10.1923 22.6684 9.90691 22.7991C9.62155 22.9297 9.31268 22.9982 9 23ZM9 1.53333C6.97646 1.57364 5.05103 2.43218 3.64542 3.9209C2.23982 5.40961 1.46862 7.40715 1.50075 9.476C1.50075 11.8833 4.10299 16.2687 8.46005 21.2137C8.53001 21.2879 8.61388 21.3469 8.70665 21.3872C8.79943 21.4275 8.8992 21.4483 9 21.4483C9.1008 21.4483 9.20057 21.4275 9.29335 21.3872C9.38612 21.3469 9.46999 21.2879 9.53994 21.2137C13.897 16.2687 16.4992 11.8833 16.4992 9.476C16.5314 7.40715 15.7602 5.40961 14.3546 3.9209C12.949 2.43218 11.0235 1.57364 9 1.53333Z" fill="#586580"/>
<path d="M9 13C8.20888 13 7.43552 12.7654 6.77772 12.3259C6.11992 11.8864 5.60723 11.2616 5.30448 10.5307C5.00173 9.79983 4.92252 8.99556 5.07686 8.21964C5.2312 7.44372 5.61216 6.73098 6.17157 6.17157C6.73098 5.61216 7.44372 5.2312 8.21964 5.07686C8.99556 4.92252 9.79983 5.00173 10.5307 5.30448C11.2616 5.60723 11.8864 6.11992 12.3259 6.77772C12.7654 7.43552 13 8.20888 13 9C13 10.0609 12.5786 11.0783 11.8284 11.8284C11.0783 12.5786 10.0609 13 9 13ZM9 6.33333C8.47258 6.33333 7.95701 6.48973 7.51848 6.78275C7.07995 7.07577 6.73816 7.49224 6.53632 7.97951C6.33449 8.46678 6.28168 9.00296 6.38457 9.52024C6.48747 10.0375 6.74144 10.5127 7.11438 10.8856C7.48732 11.2586 7.96248 11.5125 8.47976 11.6154C8.99704 11.7183 9.53322 11.6655 10.0205 11.4637C10.5078 11.2618 10.9242 10.9201 11.2173 10.4815C11.5103 10.043 11.6667 9.52742 11.6667 9C11.6667 8.29276 11.3857 7.61448 10.8856 7.11438C10.3855 6.61429 9.70724 6.33333 9 6.33333Z" fill="#586580"/>
</svg>
