<svg width="22" height="19" viewBox="0 0 22 19" fill="none" xmlns="http://www.w3.org/2000/svg">
<path d="M12.5041 18.2218C12.3612 18.2215 12.2218 18.1775 12.1045 18.0956L5.09394 13.1882C5.00107 13.1238 4.92516 13.0379 4.87267 12.9378C4.82018 12.8377 4.79267 12.7264 4.79248 12.6133V5.60273C4.79267 5.48971 4.82018 5.37841 4.87267 5.27831C4.92516 5.17821 5.00107 5.09229 5.09394 5.02786L12.1045 0.120439C12.2067 0.0512834 12.3254 0.0103283 12.4485 0.00171152C12.5716 -0.00690525 12.6948 0.0171215 12.8056 0.0713642C12.9238 0.127664 13.0239 0.215955 13.0946 0.326232C13.1652 0.43651 13.2035 0.564364 13.2052 0.695308V17.5208C13.2055 17.6495 13.1703 17.7758 13.1035 17.8859C13.0367 17.9959 12.9409 18.0855 12.8266 18.1447C12.7269 18.1958 12.6163 18.2223 12.5041 18.2218ZM6.1946 12.2488L11.8031 16.1747V2.04135L6.1946 5.96729V12.2488Z" fill="#586580"/>
<path d="M5.49336 13.3141H2.68912C2.13132 13.3141 1.59637 13.0925 1.20195 12.6981C0.807522 12.3037 0.585938 11.7687 0.585938 11.2109V7.00455C0.585938 6.44675 0.807522 5.9118 1.20195 5.51737C1.59637 5.12295 2.13132 4.90137 2.68912 4.90137H5.49336C5.6793 4.90137 5.85761 4.97523 5.98909 5.1067C6.12056 5.23818 6.19442 5.4165 6.19442 5.60243V12.613C6.19442 12.799 6.12056 12.9773 5.98909 13.1088C5.85761 13.2402 5.6793 13.3141 5.49336 13.3141ZM2.68912 6.30349C2.50319 6.30349 2.32487 6.37735 2.1934 6.50882C2.06192 6.6403 1.98806 6.81862 1.98806 7.00455V11.2109C1.98806 11.3968 2.06192 11.5752 2.1934 11.7066C2.32487 11.8381 2.50319 11.912 2.68912 11.912H4.7923V6.30349H2.68912Z" fill="#586580"/>
<path d="M12.5044 12.613V11.2109C12.9201 11.2105 13.3264 11.087 13.6719 10.8559C14.0174 10.6247 14.2867 10.2964 14.4457 9.91233C14.6048 9.52826 14.6464 9.10566 14.5654 8.69793C14.4844 8.2902 14.2844 7.91561 13.9906 7.62148L14.9862 6.62598C15.4776 7.11623 15.8125 7.74137 15.9483 8.42216C16.084 9.10295 16.0146 9.80872 15.7488 10.45C15.483 11.0913 15.0327 11.6392 14.4551 12.0243C13.8775 12.4094 13.1986 12.6143 12.5044 12.613Z" fill="#586580"/>
<path d="M18.4488 15.754C18.3565 15.7545 18.2651 15.7368 18.1796 15.7019C18.0942 15.667 18.0165 15.6156 17.951 15.5507C17.8853 15.4855 17.8332 15.4079 17.7976 15.3225C17.762 15.2371 17.7437 15.1455 17.7437 15.0529C17.7437 14.9604 17.762 14.8687 17.7976 14.7833C17.8332 14.6979 17.8853 14.6203 17.951 14.5552C19.3937 13.1094 20.204 11.1504 20.204 9.10791C20.204 7.06545 19.3937 5.10642 17.951 3.66067C17.8857 3.5953 17.8338 3.5177 17.7984 3.4323C17.7631 3.34689 17.7448 3.25536 17.7448 3.16291C17.7448 3.07047 17.7631 2.97894 17.7984 2.89353C17.8338 2.80813 17.8857 2.73053 17.951 2.66516C18.0164 2.59979 18.094 2.54794 18.1794 2.51257C18.2648 2.47719 18.3563 2.45898 18.4488 2.45898C18.5412 2.45898 18.6328 2.47719 18.7182 2.51257C18.8036 2.54794 18.8812 2.59979 18.9465 2.66516C20.6547 4.37419 21.6142 6.6916 21.6142 9.10791C21.6142 11.5242 20.6547 13.8416 18.9465 15.5507C18.881 15.6156 18.8033 15.667 18.7179 15.7019C18.6325 15.7368 18.541 15.7545 18.4488 15.754Z" fill="#586580"/>
<path d="M16.4646 13.7699C16.2807 13.7692 16.1044 13.6962 15.9739 13.5666C15.8583 13.4326 15.7977 13.2599 15.8042 13.083C15.8107 12.9062 15.8838 12.7384 16.0089 12.6132C16.4647 12.1575 16.8262 11.6165 17.0728 11.0211C17.3195 10.4256 17.4464 9.78744 17.4464 9.14295C17.4464 8.49845 17.3195 7.86027 17.0728 7.26484C16.8262 6.66941 16.4647 6.1284 16.0089 5.6727C15.8941 5.53858 15.8341 5.36607 15.8409 5.18963C15.8477 5.01319 15.9208 4.84582 16.0457 4.72096C16.1705 4.59611 16.3379 4.52296 16.5143 4.51615C16.6908 4.50933 16.8633 4.56935 16.9974 4.6842C18.179 5.86724 18.8427 7.47091 18.8427 9.14295C18.8427 10.815 18.179 12.4187 16.9974 13.6017C16.9249 13.6648 16.8402 13.7123 16.7485 13.7412C16.6568 13.7701 16.5602 13.7799 16.4646 13.7699Z" fill="#586580"/>
</svg>
