<svg width="24" height="20" viewBox="0 0 24 20" fill="none" xmlns="http://www.w3.org/2000/svg">
<path d="M22.2535 9.23112C22.0932 9.23009 21.9372 9.17899 21.8074 9.08497L11.4843 1.71574L1.16122 9.08497C0.995609 9.18305 0.799241 9.21549 0.610883 9.17586C0.422525 9.13624 0.255866 9.02744 0.143806 8.87094C0.0317465 8.71445 -0.0175702 8.52163 0.00559174 8.33054C0.0287537 8.13946 0.122711 7.96401 0.268915 7.83882L11.0381 0.146509C11.1684 0.053752 11.3244 0.00390625 11.4843 0.00390625C11.6442 0.00390625 11.8002 0.053752 11.9305 0.146509L22.6997 7.83882C22.831 7.93389 22.929 8.06804 22.9795 8.2221C23.03 8.37615 23.0306 8.54224 22.9811 8.69664C22.9317 8.85105 22.8347 8.98587 22.704 9.08186C22.5733 9.17784 22.4157 9.23009 22.2535 9.23112Z" fill="#586580"/>
<path d="M3.02265 4.61538C2.81864 4.61538 2.62298 4.53434 2.47872 4.39008C2.33446 4.24582 2.25342 4.05017 2.25342 3.84615V0.769231C2.25342 0.565218 2.33446 0.369561 2.47872 0.225302C2.62298 0.0810437 2.81864 0 3.02265 0H6.09957C6.30358 0 6.49924 0.0810437 6.6435 0.225302C6.78776 0.369561 6.8688 0.565218 6.8688 0.769231C6.8688 0.973243 6.78776 1.1689 6.6435 1.31316C6.49924 1.45742 6.30358 1.53846 6.09957 1.53846H3.79188V3.84615C3.79188 4.05017 3.71084 4.24582 3.56658 4.39008C3.42232 4.53434 3.22666 4.61538 3.02265 4.61538Z" fill="#586580"/>
<path d="M18.4073 19.9997H14.5611C14.3571 19.9997 14.1614 19.9187 14.0172 19.7744C13.8729 19.6301 13.7919 19.4345 13.7919 19.2305V13.8459H9.17649V19.2305C9.17649 19.4345 9.09545 19.6301 8.95119 19.7744C8.80693 19.9187 8.61128 19.9997 8.40726 19.9997H4.56111C3.94907 19.9997 3.3621 19.7566 2.92933 19.3238C2.49655 18.891 2.25342 18.304 2.25342 17.692V9.9997C2.25342 9.79569 2.33446 9.60003 2.47872 9.45577C2.62298 9.31151 2.81864 9.23047 3.02265 9.23047C3.22666 9.23047 3.42232 9.31151 3.56658 9.45577C3.71084 9.60003 3.79188 9.79569 3.79188 9.9997V17.692C3.79188 17.896 3.87292 18.0917 4.01718 18.2359C4.16144 18.3802 4.3571 18.4612 4.56111 18.4612H7.63803V13.0766C7.63803 12.8726 7.71908 12.677 7.86334 12.5327C8.00759 12.3884 8.20325 12.3074 8.40726 12.3074H14.5611C14.7651 12.3074 14.9608 12.3884 15.105 12.5327C15.2493 12.677 15.3303 12.8726 15.3303 13.0766V18.4612H18.4073C18.6113 18.4612 18.8069 18.3802 18.9512 18.2359C19.0954 18.0917 19.1765 17.896 19.1765 17.692V9.9997C19.1765 9.79569 19.2575 9.60003 19.4018 9.45577C19.5461 9.31151 19.7417 9.23047 19.9457 9.23047C20.1497 9.23047 20.3454 9.31151 20.4897 9.45577C20.6339 9.60003 20.715 9.79569 20.715 9.9997V17.692C20.715 18.304 20.4718 18.891 20.039 19.3238C19.6063 19.7566 19.0193 19.9997 18.4073 19.9997Z" fill="#586580"/>
</svg>
