<svg width="21" height="18" viewBox="0 0 21 18" fill="none" xmlns="http://www.w3.org/2000/svg">
<path d="M20.3 18C20.1896 18.0003 20.0806 17.9747 19.9821 17.9254C19.8835 17.876 19.7982 17.8043 19.733 17.7162L18.249 15.6946C16.225 12.9503 13.1897 11.1048 9.8 10.5577V13.1538C9.8 13.2824 9.7638 13.4084 9.69546 13.5178C9.62711 13.6272 9.52932 13.7156 9.41305 13.7731C9.29677 13.8306 9.16661 13.8549 9.03714 13.8434C8.90766 13.8318 8.784 13.7848 8.68 13.7077L0.28 7.47692C0.193063 7.41244 0.1225 7.32882 0.073901 7.23269C0.0253016 7.13655 0 7.03055 0 6.92308C0 6.8156 0.0253016 6.7096 0.073901 6.61347C0.1225 6.51734 0.193063 6.43372 0.28 6.36923L8.68 0.138462C8.784 0.06132 8.90766 0.014344 9.03714 0.00279773C9.16661 -0.00874855 9.29677 0.0155909 9.41305 0.0730891C9.52932 0.130587 9.62711 0.218972 9.69546 0.32834C9.7638 0.437708 9.8 0.563738 9.8 0.692308V3.62769C12.9235 4.12165 15.7668 5.70047 17.8194 8.08075C19.8721 10.461 20.9997 13.487 21 16.6154V17.3077C20.9999 17.4537 20.9531 17.5959 20.8664 17.714C20.7796 17.8321 20.6573 17.9201 20.517 17.9654C20.4467 17.9869 20.3736 17.9986 20.3 18ZM9.1 9.07615H9.17C11.1889 9.28212 13.1415 9.90568 14.901 10.9064C16.6605 11.907 18.1875 13.2624 19.383 14.8846L19.495 15.03C19.1358 12.4282 17.9072 10.0199 16.0045 8.18832C14.1018 6.35675 11.6345 5.2071 8.995 4.92231C8.823 4.90348 8.66414 4.82231 8.54909 4.69446C8.43404 4.56661 8.37095 4.40115 8.372 4.23V2.07692L1.869 6.92308L8.4 11.7692V9.76846C8.40023 9.67185 8.4209 9.57636 8.46069 9.48813C8.50047 9.3999 8.55849 9.32088 8.631 9.25615C8.75938 9.14075 8.92651 9.0766 9.1 9.07615Z" fill="#586580"/>
</svg>
