<svg width="26" height="23" viewBox="0 0 26 23" fill="none" xmlns="http://www.w3.org/2000/svg">
<path fill-rule="evenodd" clip-rule="evenodd" d="M19.8858 10.6445L19.8859 10.6444C20.2707 9.94052 20.8391 9.29564 21.5704 8.94354C22.3549 8.56581 23.4585 8.51028 24.3061 9.33926L24.3084 9.34146L24.3084 9.34146C25.0141 10.0344 25.1609 10.9955 25.141 11.6949C25.1195 12.453 24.9007 13.2591 24.5074 13.9783L23.1287 13.2244L24.5083 13.9767C24.1233 14.6826 23.5547 15.3288 22.8224 15.6812C22.0364 16.0595 20.9347 16.1125 20.0885 15.2867L20.0869 15.2851C19.3788 14.5922 19.2318 13.6295 19.2517 12.9299C19.2733 12.1713 19.4923 11.3645 19.8858 10.6445ZM23.2074 10.4627C23.7218 10.9679 23.6868 12.2037 23.1286 13.2244C22.5704 14.2479 21.7005 14.6641 21.186 14.162C20.6707 13.6578 20.7057 12.4209 21.2647 11.3982C21.8222 10.3786 22.6928 9.95948 23.2074 10.4627Z" fill="#586580"/>
<path fill-rule="evenodd" clip-rule="evenodd" d="M5.25676 10.6445L5.25668 10.6444C4.87187 9.94052 4.30345 9.29564 3.57218 8.94354C2.7877 8.56581 1.68405 8.51028 0.836456 9.33926L0.834213 9.34146L0.834216 9.34146C0.128524 10.0344 -0.0183573 10.9955 0.00155067 11.6949C0.0231266 12.453 0.241912 13.2591 0.635211 13.9783L2.01384 13.2244L0.634327 13.9767C1.0193 14.6826 1.58787 15.3288 2.32015 15.6812C3.10613 16.0595 4.20787 16.1125 5.0541 15.2867L5.05568 15.2851C5.76376 14.5922 5.91076 13.6295 5.89088 12.9299C5.86932 12.1713 5.65029 11.3645 5.25676 10.6445ZM1.93522 10.4627C1.42074 10.9679 1.45579 12.2037 2.01394 13.2244C2.57215 14.2479 3.44212 14.6641 3.9566 14.162C4.47184 13.6578 4.43689 12.4209 3.87787 11.3982C3.32043 10.3786 2.44974 9.95948 1.93522 10.4627Z" fill="#586580"/>
<path fill-rule="evenodd" clip-rule="evenodd" d="M7.34173 2.03922C8.41432 1.75712 9.59561 3.05002 9.9779 4.92717C10.3631 6.80425 9.80503 8.55476 8.73245 8.83692C7.66091 9.11908 6.48059 7.82619 6.09531 5.95124C5.71309 4.07408 6.27019 2.32358 7.34173 2.03922ZM9.09226 10.2047C7.84155 10.5338 6.77243 9.8794 6.11238 9.15691C5.43032 8.41033 4.94314 7.3706 4.70997 6.2359L4.70946 6.23342C4.47767 5.09503 4.5165 3.93974 4.82578 2.96872C5.11971 2.04587 5.77262 0.992381 6.97897 0.672244L6.98201 0.671439L6.98201 0.671443C8.23273 0.342502 9.30235 0.996209 9.96308 1.71984C10.6453 2.46704 11.132 3.50768 11.3635 4.64389C11.597 5.7826 11.5588 6.93829 11.2494 7.9095C10.9552 8.83287 10.3008 9.88658 9.09259 10.2046" fill="#586580"/>
<path fill-rule="evenodd" clip-rule="evenodd" d="M19.6784 2.96821C19.3838 2.04485 18.73 0.992258 17.5245 0.672291L17.5219 0.671602C16.2708 0.34209 15.2015 0.99697 14.5416 1.72008C13.8597 2.46722 13.373 3.50775 13.1405 4.64359C12.9074 5.7822 12.9455 6.93805 13.2549 7.90948C13.549 8.83277 14.2032 9.88648 15.4116 10.2045C16.6624 10.5342 17.7318 9.87902 18.3915 9.1568C19.0733 8.41029 19.5606 7.37018 19.7933 6.2352C20.0271 5.09568 19.9882 3.93964 19.6784 2.96821ZM18.4078 5.95126C18.0235 7.82615 16.8424 9.11904 15.7721 8.83695C14.6988 8.55486 14.1158 6.87715 14.5 5C14.8842 3.12285 16.0904 1.75708 17.1617 2.03924C18.233 2.3236 18.793 4.07418 18.4078 5.95126Z" fill="#586580"/>
<path fill-rule="evenodd" clip-rule="evenodd" d="M7.41991 13.9977C8.56057 12.342 10.4706 10.4277 12.9992 10.4277C15.5284 10.4277 17.4384 12.3419 18.579 13.9978C19.1859 14.8788 19.6698 15.8186 20.0061 16.6734C20.3264 17.4874 20.5706 18.3693 20.5706 19.104C20.5706 19.7026 20.5286 20.2618 20.4018 20.7442C20.2789 21.212 20.0162 21.8335 19.3977 22.2339C18.7487 22.6539 18.0707 22.6005 17.6392 22.4973C17.2213 22.3974 16.8325 22.2051 16.5396 22.0473C16.3078 21.9224 16.0521 21.7716 15.8151 21.6317C15.7449 21.5903 15.6764 21.5499 15.6106 21.5114C15.3018 21.3306 15.0017 21.1609 14.6952 21.0116C14.0741 20.7092 13.5186 20.5381 12.9992 20.5381C12.4802 20.5381 11.9249 20.7092 11.3038 21.0116C10.9974 21.1609 10.6972 21.3306 10.3884 21.5114C10.3227 21.5499 10.2543 21.5902 10.1842 21.6315C9.94701 21.7715 9.69121 21.9224 9.45915 22.0474C9.1662 22.2052 8.77736 22.3974 8.35944 22.4973C7.92795 22.6005 7.24998 22.6538 6.60111 22.234C5.98246 21.8338 5.71959 21.2123 5.5966 20.7444C5.46977 20.2619 5.42773 19.7027 5.42773 19.104C5.42773 18.3692 5.67211 17.4871 5.99247 16.6732C6.32892 15.8184 6.81295 14.8787 7.41991 13.9977ZM6.99916 19.104C6.99916 17.3377 9.57196 11.9992 12.9992 11.9992C16.4278 11.9992 18.9992 17.3377 18.9992 19.104C18.9992 21.6853 18.0907 21.1495 16.6338 20.2901C15.6395 19.7037 14.3899 18.9666 12.9992 18.9666C11.6093 18.9666 10.3599 19.7035 9.36565 20.2899C7.90832 21.1494 6.99916 21.6856 6.99916 19.104Z" fill="#586580"/>
</svg>
