<svg width="22" height="22" viewBox="0 0 22 22" fill="none" xmlns="http://www.w3.org/2000/svg">
<path d="M11.7333 21.9999H10.2667C9.72618 22.0038 9.20317 21.8086 8.79741 21.4516C8.39164 21.0945 8.13153 20.6006 8.06668 20.064C7.57456 19.9084 7.09625 19.7122 6.63669 19.4773C6.21117 19.8138 5.67634 19.9811 5.13493 19.9473C4.59351 19.9135 4.08368 19.6808 3.70337 19.294L2.70604 18.26C2.31921 17.8796 2.08653 17.3698 2.0527 16.8284C2.01886 16.287 2.18625 15.7522 2.52271 15.3266C2.28966 14.8789 2.09346 14.4129 1.93605 13.9333C1.39945 13.8685 0.905499 13.6084 0.548427 13.2026C0.191356 12.7968 -0.00384658 12.2738 5.74471e-05 11.7333V10.2667C-0.00384658 9.72618 0.191356 9.20317 0.548427 8.79741C0.905499 8.39164 1.39945 8.13153 1.93605 8.06668C2.09158 7.57456 2.28781 7.09625 2.52271 6.63669C2.18625 6.21117 2.01886 5.67634 2.0527 5.13493C2.08653 4.59351 2.31921 4.08368 2.70604 3.70337L3.74004 2.70604C4.12035 2.31921 4.63018 2.08653 5.17159 2.0527C5.71301 2.01886 6.24784 2.18625 6.67336 2.52271C7.12111 2.28966 7.58709 2.09346 8.06668 1.93605C8.13153 1.39945 8.39164 0.905499 8.79741 0.548427C9.20317 0.191356 9.72618 -0.00384658 10.2667 5.74471e-05H11.7333C12.2738 -0.00384658 12.7968 0.191356 13.2026 0.548427C13.6084 0.905499 13.8685 1.39945 13.9333 1.93605C14.4254 2.09158 14.9038 2.28781 15.3633 2.52271C15.7888 2.18625 16.3237 2.01886 16.8651 2.0527C17.4065 2.08653 17.9163 2.31921 18.2966 2.70604L19.294 3.74004C19.6808 4.12035 19.9135 4.63018 19.9473 5.17159C19.9811 5.71301 19.8138 6.24784 19.4773 6.67336C19.7122 7.13291 19.9084 7.61123 20.064 8.10335C20.5943 8.16743 21.0832 8.42228 21.4394 8.82035C21.7957 9.21842 21.9949 9.7325 21.9999 10.2667V11.7333C22.0038 12.2738 21.8086 12.7968 21.4516 13.2026C21.0945 13.6084 20.6006 13.8685 20.064 13.9333C19.9084 14.4254 19.7122 14.9038 19.4773 15.3633C19.8138 15.7888 19.9811 16.3237 19.9473 16.8651C19.9135 17.4065 19.6808 17.9163 19.294 18.2966L18.26 19.294C17.8796 19.6808 17.3698 19.9135 16.8284 19.9473C16.287 19.9811 15.7522 19.8138 15.3266 19.4773C14.8671 19.7122 14.3888 19.9084 13.8967 20.064C13.8326 20.5943 13.5777 21.0832 13.1797 21.4394C12.7816 21.7957 12.2675 21.9949 11.7333 21.9999ZM6.53402 17.842C6.66595 17.8397 6.79575 17.8753 6.90802 17.9446C7.55641 18.326 8.25495 18.6148 8.98334 18.8026C9.14469 18.8442 9.28707 18.9395 9.38704 19.0728C9.48701 19.2061 9.53861 19.3694 9.53334 19.536V19.8C9.53334 19.9944 9.6106 20.181 9.74813 20.3185C9.88565 20.456 10.0722 20.5333 10.2667 20.5333H11.7333C11.9278 20.5333 12.1143 20.456 12.2519 20.3185C12.3894 20.181 12.4667 19.9944 12.4667 19.8V19.514C12.4614 19.3474 12.513 19.1841 12.613 19.0508C12.7129 18.9175 12.8553 18.8222 13.0167 18.7806C13.7451 18.5928 14.4436 18.304 15.092 17.9226C15.2313 17.8406 15.3939 17.8069 15.5543 17.8268C15.7148 17.8466 15.8642 17.919 15.9793 18.0326L16.1846 18.238C16.2528 18.3067 16.3339 18.3613 16.4233 18.3985C16.5126 18.4357 16.6085 18.4549 16.7053 18.4549C16.8021 18.4549 16.898 18.4357 16.9873 18.3985C17.0767 18.3613 17.1578 18.3067 17.226 18.238L18.26 17.204C18.3287 17.1358 18.3833 17.0547 18.4205 16.9653C18.4577 16.876 18.4769 16.7801 18.4769 16.6833C18.4769 16.5865 18.4577 16.4906 18.4205 16.4013C18.3833 16.3119 18.3287 16.2308 18.26 16.1626L18.0546 15.9573C17.941 15.8422 17.8687 15.6928 17.8488 15.5323C17.8289 15.3719 17.8626 15.2093 17.9446 15.07C18.326 14.4216 18.6148 13.7231 18.8026 12.9947C18.8442 12.8333 18.9395 12.6909 19.0728 12.591C19.2061 12.491 19.3694 12.4394 19.536 12.4447H19.8C19.9944 12.4447 20.181 12.3674 20.3185 12.2299C20.456 12.0923 20.5333 11.9058 20.5333 11.7113V10.2667C20.5333 10.0722 20.456 9.88565 20.3185 9.74813C20.181 9.6106 19.9944 9.53334 19.8 9.53334H19.514C19.3474 9.53861 19.1841 9.48701 19.0508 9.38704C18.9175 9.28707 18.8222 9.14469 18.7806 8.98334C18.5928 8.25495 18.304 7.55641 17.9226 6.90802C17.8406 6.76869 17.8069 6.60613 17.8268 6.44565C17.8466 6.28518 17.919 6.13577 18.0326 6.02069L18.238 5.81536C18.3067 5.74719 18.3613 5.66608 18.3985 5.57672C18.4357 5.48736 18.4549 5.3915 18.4549 5.2947C18.4549 5.19789 18.4357 5.10204 18.3985 5.01268C18.3613 4.92331 18.3067 4.84221 18.238 4.77403L17.226 3.74004C17.1578 3.6713 17.0767 3.61675 16.9873 3.57952C16.898 3.54229 16.8021 3.52312 16.7053 3.52312C16.6085 3.52312 16.5126 3.54229 16.4233 3.57952C16.3339 3.61675 16.2528 3.6713 16.1846 3.74004L15.9793 3.94537C15.8642 4.05897 15.7148 4.13135 15.5543 4.15125C15.3939 4.17114 15.2313 4.13743 15.092 4.05537C14.4436 3.67401 13.7451 3.38521 13.0167 3.19737C12.8553 3.1558 12.7129 3.06053 12.613 2.92723C12.513 2.79394 12.4614 2.63058 12.4667 2.46404V2.20005C12.4667 2.00555 12.3894 1.81903 12.2519 1.6815C12.1143 1.54398 11.9278 1.46672 11.7333 1.46672H10.2667C10.0722 1.46672 9.88565 1.54398 9.74813 1.6815C9.6106 1.81903 9.53334 2.00555 9.53334 2.20005V2.48604C9.53861 2.65258 9.48701 2.81594 9.38704 2.94923C9.28707 3.08253 9.14469 3.1778 8.98334 3.21937C8.25495 3.40721 7.55641 3.69601 6.90802 4.07737C6.76869 4.15943 6.60613 4.19314 6.44565 4.17324C6.28518 4.15335 6.13577 4.08097 6.02069 3.96737L5.81536 3.74004C5.74719 3.6713 5.66608 3.61675 5.57672 3.57952C5.48736 3.54229 5.3915 3.52312 5.2947 3.52312C5.19789 3.52312 5.10204 3.54229 5.01268 3.57952C4.92331 3.61675 4.84221 3.6713 4.77403 3.74004L3.74004 4.77403C3.6713 4.84221 3.61675 4.92331 3.57952 5.01268C3.54229 5.10204 3.52312 5.19789 3.52312 5.2947C3.52312 5.3915 3.54229 5.48736 3.57952 5.57672C3.61675 5.66608 3.6713 5.74719 3.74004 5.81536L3.94537 6.02069C4.05897 6.13577 4.13135 6.28518 4.15125 6.44565C4.17114 6.60613 4.13743 6.76869 4.05537 6.90802C3.67401 7.55641 3.38521 8.25495 3.19737 8.98334C3.1558 9.14469 3.06053 9.28707 2.92723 9.38704C2.79394 9.48701 2.63058 9.53861 2.46404 9.53334H2.20005C2.00555 9.53334 1.81903 9.6106 1.6815 9.74813C1.54398 9.88565 1.46672 10.0722 1.46672 10.2667V11.7333C1.46672 11.9278 1.54398 12.1143 1.6815 12.2519C1.81903 12.3894 2.00555 12.4667 2.20005 12.4667H2.48604C2.65258 12.4614 2.81594 12.513 2.94923 12.613C3.08253 12.7129 3.1778 12.8553 3.21937 13.0167C3.40721 13.7451 3.69601 14.4436 4.07737 15.092C4.15943 15.2313 4.19314 15.3939 4.17324 15.5543C4.15335 15.7148 4.08097 15.8642 3.96737 15.9793L3.76204 16.1846C3.6933 16.2528 3.63875 16.3339 3.60152 16.4233C3.56429 16.5126 3.54512 16.6085 3.54512 16.7053C3.54512 16.8021 3.56429 16.898 3.60152 16.9873C3.63875 17.0767 3.6933 17.1578 3.76204 17.226L4.77403 18.26C4.84221 18.3287 4.92331 18.3833 5.01268 18.4205C5.10204 18.4577 5.19789 18.4769 5.2947 18.4769C5.3915 18.4769 5.48736 18.4577 5.57672 18.4205C5.66608 18.3833 5.74719 18.3287 5.81536 18.26L6.02069 18.0546C6.15728 17.9192 6.34164 17.8428 6.53402 17.842Z" fill="#586580"/>
<path d="M11 16C10.0111 16 9.0444 15.7068 8.22215 15.1573C7.3999 14.6079 6.75904 13.827 6.3806 12.9134C6.00217 11.9998 5.90315 10.9945 6.09608 10.0245C6.289 9.05464 6.76521 8.16373 7.46447 7.46447C8.16373 6.76521 9.05464 6.289 10.0245 6.09608C10.9945 5.90315 11.9998 6.00217 12.9134 6.3806C13.827 6.75904 14.6079 7.3999 15.1573 8.22215C15.7068 9.0444 16 10.0111 16 11C16 12.3261 15.4732 13.5979 14.5355 14.5355C13.5979 15.4732 12.3261 16 11 16ZM11 7.42857C10.2936 7.42857 9.60314 7.63803 9.01582 8.03047C8.4285 8.4229 7.97074 8.98068 7.70043 9.63327C7.43012 10.2859 7.35939 11.004 7.4972 11.6968C7.635 12.3895 7.97515 13.0259 8.47462 13.5254C8.97409 14.0249 9.61046 14.365 10.3032 14.5028C10.996 14.6406 11.7141 14.5699 12.3667 14.2996C13.0193 14.0293 13.5771 13.5715 13.9695 12.9842C14.362 12.3969 14.5714 11.7064 14.5714 11C14.5714 10.0528 14.1952 9.14439 13.5254 8.47462C12.8556 7.80485 11.9472 7.42857 11 7.42857Z" fill="#586580"/>
</svg>
