<svg width="30" height="30" viewBox="0 0 30 30" fill="none" xmlns="http://www.w3.org/2000/svg">
<path d="M21.6765 4.65534C21.9993 4.56712 22.3562 4.50897 22.7472 4.48691C24.7924 4.36661 25.2737 5.97069 25.2737 5.97069H28.3615C28.923 6.69253 27.8001 7.8555 27.8001 7.8555C27.8001 7.8555 28.1209 9.29517 27.0382 9.33527C25.9554 9.37537 24.231 9.80246 24.231 9.80246C23.6034 10.4822 23.4991 11.0737 23.6175 11.6632C23.9222 13.1831 25.6968 14.6949 23.7899 17.6785C23.3788 18.3222 22.8856 18.9077 22.3462 19.439C21.9632 19.816 21.5562 20.1649 21.1391 20.4877C20.9767 21.769 20.8023 23.0923 20.8023 23.0923C20.8023 23.0923 21.4158 23.7921 21.8129 24.4618C21.9873 24.7526 22.1196 25.0393 22.1437 25.2578C22.1437 25.2578 20.9406 26.902 19.0959 25.2578L18.5084 22.1579C16.6357 23.1425 15.0857 23.5956 15.0857 23.5956C16.77 23.8964 16.0883 25.2599 16.0883 25.2599L9.43129 25.2779C8.99017 24.1951 9.43129 23.5956 9.43129 23.5956C9.43129 23.5956 8.02972 23.1966 7.81919 21.6867C7.74299 21.1373 7.8232 20.4416 8.18813 19.5653C9.5516 16.277 14.2837 15.4749 15.7674 14.2297C17.2512 12.9846 18.6949 11.6632 18.6949 11.6632C18.6949 11.6632 18.8353 10.9614 18.9957 10.033C19.132 9.24103 19.2844 8.28459 19.3766 7.45448C19.4348 6.93515 19.5691 6.47999 19.7777 6.091" stroke="#586580" stroke-width="1.35496" stroke-miterlimit="10" stroke-linecap="round" stroke-linejoin="round"/>
<path d="M19.78 6.08792C19.6376 6.05383 19.5153 6.03779 19.4191 6.04782C18.6972 6.12802 20.6623 4.0026 20.6623 4.0026C20.6623 4.0026 21.1956 3.9224 21.6768 4.65226C21.9535 5.07333 22.2142 5.76109 22.3466 6.88996C22.3967 7.32708 20.7024 6.3145 19.78 6.08792Z" stroke="#586580" stroke-width="1.35496" stroke-miterlimit="10" stroke-linecap="round" stroke-linejoin="round"/>
<path d="M18.5101 22.1568L18.1572 17.918" stroke="#586580" stroke-width="1.35496" stroke-miterlimit="10" stroke-linecap="round" stroke-linejoin="round"/>
<path d="M21.1406 20.4869C21.2288 19.7851 21.3131 19.0954 21.3632 18.6402C21.5035 17.3569 21.7442 16.7734 21.7442 16.7734" stroke="#586580" stroke-width="1.35496" stroke-miterlimit="10" stroke-linecap="round" stroke-linejoin="round"/>
<path d="M22.3478 19.4375L22.7087 22.8903C22.7087 22.8903 24.1123 22.766 24.3529 24.2718L21.8164 24.4603" stroke="#586580" stroke-width="1.35496" stroke-miterlimit="10" stroke-linecap="round" stroke-linejoin="round"/>
<path d="M14.9072 23.5951L12.1602 23.2542C12.1602 23.2542 14.9272 23.0778 14.6465 19.7773" stroke="#586580" stroke-width="1.35496" stroke-miterlimit="10" stroke-linecap="round" stroke-linejoin="round"/>
<path d="M7.82083 21.6861C7.82083 21.6861 2 20.1101 2 15.8652C2 15.8652 4.86129 20.1682 8.18978 19.5647" stroke="#586580" stroke-width="1.35496" stroke-miterlimit="10" stroke-linecap="round" stroke-linejoin="round"/>
<path d="M18.998 10.0312C18.998 10.0312 20.0748 11.7657 23.6178 11.6614" stroke="#586580" stroke-width="1.35496" stroke-miterlimit="10" stroke-linecap="round" stroke-linejoin="round"/>
</svg>
