<svg width="24" height="22" viewBox="0 0 24 22" fill="none" xmlns="http://www.w3.org/2000/svg">
<path d="M7.04167 13.3009C6.85863 13.3046 6.68009 13.244 6.53713 13.1296C6.39417 13.0153 6.29584 12.8544 6.25926 12.675L4.42843 3.45042C4.32179 2.9188 4.0344 2.4405 3.61507 2.09676C3.19575 1.75303 2.67035 1.56507 2.12815 1.56482H0.782407C0.5749 1.56482 0.375892 1.48238 0.229162 1.33565C0.0824319 1.18892 0 0.989915 0 0.782408C0 0.5749 0.0824319 0.375892 0.229162 0.229162C0.375892 0.082432 0.5749 8.1549e-08 0.782407 8.1549e-08H2.12815C3.02999 -0.000183984 3.9042 0.311229 4.60283 0.881534C5.30145 1.45184 5.78158 2.24601 5.96194 3.12963L7.82407 12.362C7.8468 12.4649 7.84851 12.5714 7.8291 12.675C7.80968 12.7785 7.76954 12.8771 7.71109 12.9648C7.65263 13.0525 7.57706 13.1275 7.48892 13.1852C7.40078 13.243 7.30188 13.2823 7.19815 13.3009H7.04167Z" fill="#586580"/>
<path d="M7.82429 18.778H6.36901C5.53918 18.7729 4.74298 18.4495 4.14464 17.8745C3.5463 17.2995 3.19146 16.5168 3.15333 15.6878C3.11519 14.8588 3.39666 14.0468 3.93968 13.4193C4.4827 12.7918 5.24585 12.3967 6.07169 12.3153L20.4758 11.0087L21.7355 4.6947H5.47706C5.26956 4.6947 5.07055 4.61227 4.92382 4.46554C4.77709 4.31881 4.69466 4.1198 4.69466 3.91229C4.69466 3.70478 4.77709 3.50577 4.92382 3.35904C5.07055 3.21231 5.26956 3.12988 5.47706 3.12988H22.69C22.8056 3.13065 22.9196 3.157 23.0237 3.20706C23.1279 3.25711 23.2197 3.32962 23.2925 3.41937C23.369 3.50737 23.4248 3.61135 23.456 3.72371C23.4871 3.83606 23.4927 3.95396 23.4724 4.06877L21.9076 11.8928C21.8746 12.0583 21.7889 12.2087 21.6634 12.3215C21.5379 12.4343 21.3793 12.5035 21.2113 12.5188L6.21253 13.8802C5.77054 13.9009 5.35489 14.0964 5.05703 14.4236C4.75917 14.7508 4.60349 15.1829 4.62424 15.6249C4.64499 16.0669 4.84047 16.4826 5.16768 16.7804C5.49489 17.0783 5.92702 17.234 6.36901 17.2132H7.82429C8.03179 17.2132 8.2308 17.2956 8.37753 17.4424C8.52426 17.5891 8.60669 17.7881 8.60669 17.9956C8.60669 18.2031 8.52426 18.4021 8.37753 18.5489C8.2308 18.6956 8.03179 18.778 7.82429 18.778Z" fill="#586580"/>
<path d="M19.5608 21.1255C18.9418 21.1255 18.3367 20.9419 17.8221 20.598C17.3074 20.2541 16.9063 19.7654 16.6694 19.1935C16.4325 18.6216 16.3705 17.9924 16.4913 17.3853C16.612 16.7782 16.9101 16.2205 17.3478 15.7829C17.7855 15.3452 18.3431 15.0471 18.9502 14.9263C19.5573 14.8056 20.1866 14.8676 20.7584 15.1044C21.3303 15.3413 21.8191 15.7424 22.163 16.2571C22.5069 16.7718 22.6904 17.3769 22.6904 17.9958C22.6904 18.8259 22.3607 19.6219 21.7738 20.2088C21.1868 20.7957 20.3908 21.1255 19.5608 21.1255ZM19.5608 16.431C19.2513 16.431 18.9488 16.5228 18.6914 16.6947C18.4341 16.8667 18.2335 17.1111 18.1151 17.397C17.9966 17.6829 17.9657 17.9976 18.026 18.3011C18.0864 18.6047 18.2354 18.8835 18.4543 19.1023C18.6731 19.3212 18.952 19.4702 19.2555 19.5306C19.559 19.591 19.8737 19.56 20.1596 19.4415C20.4455 19.3231 20.6899 19.1225 20.8619 18.8652C21.0338 18.6079 21.1256 18.3053 21.1256 17.9958C21.1256 17.5808 20.9607 17.1828 20.6673 16.8894C20.3738 16.5959 19.9758 16.431 19.5608 16.431Z" fill="#586580"/>
<path d="M10.1711 21.1255C9.55215 21.1255 8.94707 20.9419 8.43241 20.598C7.91774 20.2541 7.51661 19.7654 7.27973 19.1935C7.04286 18.6216 6.98088 17.9924 7.10164 17.3853C7.2224 16.7782 7.52047 16.2205 7.95815 15.7829C8.39584 15.3452 8.95349 15.0471 9.56058 14.9263C10.1677 14.8056 10.7969 14.8676 11.3688 15.1044C11.9407 15.3413 12.4294 15.7424 12.7733 16.2571C13.1172 16.7718 13.3008 17.3769 13.3008 17.9958C13.3008 18.8259 12.971 19.6219 12.3841 20.2088C11.7972 20.7957 11.0012 21.1255 10.1711 21.1255ZM10.1711 16.431C9.86164 16.431 9.5591 16.5228 9.30177 16.6947C9.04444 16.8667 8.84387 17.1111 8.72543 17.397C8.607 17.6829 8.57601 17.9976 8.63639 18.3011C8.69677 18.6047 8.8458 18.8835 9.06464 19.1023C9.28349 19.3212 9.56231 19.4702 9.86586 19.5306C10.1694 19.591 10.484 19.56 10.77 19.4415C11.0559 19.3231 11.3003 19.1225 11.4722 18.8652C11.6442 18.6079 11.736 18.3053 11.736 17.9958C11.736 17.5808 11.5711 17.1828 11.2776 16.8894C10.9842 16.5959 10.5862 16.431 10.1711 16.431Z" fill="#586580"/>
<path d="M17.2132 18.7777H12.5187C12.3112 18.7777 12.1122 18.6953 11.9655 18.5485C11.8188 18.4018 11.7363 18.2028 11.7363 17.9953C11.7363 17.7878 11.8188 17.5888 11.9655 17.4421C12.1122 17.2953 12.3112 17.2129 12.5187 17.2129H17.2132C17.4207 17.2129 17.6197 17.2953 17.7664 17.4421C17.9132 17.5888 17.9956 17.7878 17.9956 17.9953C17.9956 18.2028 17.9132 18.4018 17.7664 18.5485C17.6197 18.6953 17.4207 18.7777 17.2132 18.7777Z" fill="#586580"/>
</svg>
