<svg width="24" height="23" viewBox="0 0 24 23" fill="none" xmlns="http://www.w3.org/2000/svg">
<path d="M18.3249 15.8036C18.1402 15.8039 17.9613 15.7396 17.8191 15.6218L14.2475 12.6429H12.7936C11.1171 12.6429 9.50917 11.9769 8.32367 10.7914C7.13817 9.60586 6.47217 7.99798 6.47217 6.32143C6.47217 4.64488 7.13817 3.037 8.32367 1.8515C9.50917 0.666006 11.1171 0 12.7936 0H17.5347C19.0701 0.0043843 20.5514 0.56746 21.7021 1.58409C22.8528 2.60072 23.5941 4.00139 23.7876 5.52458C23.9812 7.04777 23.6137 8.58933 22.7539 9.86142C21.894 11.1335 20.6006 12.0492 19.115 12.4374V15.0134C19.1154 15.1645 19.0724 15.3126 18.9912 15.4401C18.91 15.5675 18.7939 15.669 18.6567 15.7325C18.5526 15.7799 18.4393 15.8042 18.3249 15.8036ZM12.7936 1.58036C11.5362 1.58036 10.3303 2.07986 9.44115 2.96899C8.55203 3.85811 8.05253 5.06402 8.05253 6.32143C8.05253 7.57884 8.55203 8.78475 9.44115 9.67387C10.3303 10.563 11.5362 11.0625 12.7936 11.0625H14.532C14.7166 11.0621 14.8955 11.1264 15.0377 11.2442L17.5347 13.3224V11.7895C17.5328 11.5977 17.6007 11.4118 17.7257 11.2665C17.8507 11.1211 18.0244 11.0261 18.2142 10.9993C19.382 10.8079 20.4359 10.1868 21.169 9.25795C21.9021 8.32911 22.2614 7.15969 22.1763 5.97946C22.0911 4.79922 21.5677 3.69349 20.7088 2.8795C19.85 2.06552 18.7178 1.60212 17.5347 1.58036H12.7936Z" fill="#586580"/>
<path d="M15.9544 5.53125H14.374V7.11161H15.9544V5.53125Z" fill="#586580"/>
<path d="M12.0027 5.53125H10.4224V7.11161H12.0027V5.53125Z" fill="#586580"/>
<path d="M19.9046 5.53125H18.3242V7.11161H19.9046V5.53125Z" fill="#586580"/>
<path d="M5.6815 22.1254C5.56703 22.126 5.45379 22.1017 5.34963 22.0543C5.21247 21.9908 5.09639 21.8893 5.01516 21.7619C4.93393 21.6344 4.89095 21.4864 4.89132 21.3352V18.7592C3.63405 18.4243 2.51076 17.7095 1.67476 16.7125C0.838765 15.7155 0.330789 14.4848 0.220161 13.1883C0.109533 11.8919 0.401644 10.593 1.05663 9.4687C1.71161 8.34445 2.69755 7.4497 3.87989 6.90655C3.97532 6.85627 4.08004 6.82605 4.18759 6.81776C4.29514 6.80948 4.40325 6.8233 4.50526 6.85839C4.60727 6.89347 4.70101 6.94906 4.78072 7.02175C4.86042 7.09443 4.9244 7.18267 4.96871 7.28102C5.01302 7.37937 5.03673 7.48575 5.03836 7.59361C5.04 7.70146 5.01954 7.80852 4.97824 7.90816C4.93693 8.00781 4.87567 8.09795 4.79821 8.17302C4.72075 8.2481 4.62873 8.30652 4.52784 8.34468C3.59537 8.76747 2.82482 9.48075 2.33142 10.3779C1.83802 11.275 1.64828 12.3077 1.79058 13.3216C1.93288 14.3355 2.39958 15.2761 3.12087 16.0027C3.84217 16.7293 4.7793 17.203 5.79213 17.3527C5.98199 17.3796 6.15561 17.4745 6.28064 17.6199C6.40567 17.7653 6.47357 17.9512 6.47168 18.1429V19.6758L8.96864 17.5977C9.10631 17.4684 9.28571 17.3927 9.47436 17.3843H11.2128C11.8456 17.3855 12.4721 17.2587 13.0546 17.0116C13.6372 16.7644 14.1637 16.402 14.6026 15.9462C14.7493 15.7953 14.9499 15.7089 15.1604 15.7059C15.2646 15.7044 15.368 15.7235 15.4649 15.762C15.5617 15.8005 15.65 15.8578 15.7247 15.9304C15.7994 16.003 15.8591 16.0897 15.9003 16.1854C15.9415 16.2811 15.9635 16.384 15.965 16.4882C15.9664 16.5923 15.9474 16.6958 15.9088 16.7926C15.8703 16.8895 15.8131 16.9777 15.7405 17.0525C15.1517 17.6574 14.4477 18.1382 13.6701 18.4666C12.8924 18.7951 12.0569 18.9644 11.2128 18.9647H9.75882L6.18722 21.9437C6.04505 22.0615 5.86613 22.1258 5.6815 22.1254Z" fill="#586580"/>
</svg>
