<svg width="13" height="13" viewBox="0 0 13 13" fill="none" xmlns="http://www.w3.org/2000/svg">
<path d="M12.5863 10.212L12.5241 10.0245C12.3768 9.58652 11.8938 9.12972 11.4501 9.00938L9.80782 8.56075C9.36248 8.43959 8.7272 8.60251 8.40136 8.92832L7.80701 9.52268C5.647 8.93901 3.95321 7.24517 3.37033 5.08558L3.96471 4.4912C4.29055 4.16536 4.45344 3.53093 4.33228 3.08558L3.88447 1.44254C3.76331 0.998002 3.30568 0.51501 2.86853 0.369277L2.68107 0.306247C2.24308 0.160514 1.61844 0.307897 1.29263 0.633708L0.403561 1.52359C0.244729 1.68158 0.143216 2.13348 0.143216 2.13513C0.11212 4.95784 1.21894 7.6774 3.21561 9.6741C5.20739 11.6659 7.91675 12.7711 10.7313 12.7473C10.746 12.7473 11.211 12.6474 11.3698 12.4894L12.2589 11.6004C12.5847 11.2746 12.732 10.65 12.5863 10.212Z" fill="#42AB10"/>
</svg>
