<svg width="32" height="32" viewBox="0 0 32 32" fill="none" xmlns="http://www.w3.org/2000/svg">
<path d="M20.8709 12.1675L20.8708 12.1674L20.8668 12.1706L10.7856 20.1821L10.7856 20.182L10.7838 20.1835C10.6636 20.2837 10.5849 20.4321 10.5651 20.5855C10.5454 20.7382 10.5837 20.902 10.7053 21.0269C10.824 21.182 10.9856 21.2617 11.1817 21.2617C11.2418 21.2617 11.3101 21.2518 11.3738 21.2322C11.4342 21.2136 11.4993 21.1835 11.5483 21.1366L21.6255 13.1283L21.6255 13.1283L21.6273 13.1268C21.7475 13.0266 21.8262 12.8782 21.846 12.7248C21.8657 12.5725 21.8275 12.4091 21.7066 12.2842C21.5031 12.0068 21.1423 11.9736 20.8709 12.1675Z" fill="black" stroke="black" stroke-width="0.2"/>
<path d="M10.949 13.6328L10.9491 13.6331C11.1568 14.9835 12.3001 15.9211 13.5515 15.9211H13.5565C13.6854 15.9211 13.8276 15.9211 13.9714 15.8859C15.3925 15.6752 16.396 14.3233 16.1539 12.8679C16.0496 12.174 15.6681 11.5503 15.1137 11.1345C14.5579 10.7176 13.8633 10.5442 13.1695 10.6482C12.4752 10.7524 11.8512 11.134 11.4353 11.6886C11.0184 12.2444 10.845 12.939 10.949 13.6328ZM14.9545 13.0634L14.9545 13.0634L14.9549 13.0662C15.0796 13.8451 14.5505 14.5626 13.7694 14.6875C12.9905 14.8122 12.2731 14.2831 12.1481 13.502C12.0242 12.7275 12.5805 12.0102 13.3271 11.8818C13.3683 11.8806 13.4141 11.8714 13.4493 11.8643C13.451 11.864 13.4526 11.8637 13.4543 11.8633C13.4994 11.8543 13.5302 11.8486 13.5515 11.8486C14.239 11.8486 14.8613 12.3486 14.9545 13.0634Z" fill="black" stroke="black" stroke-width="0.2"/>
<path d="M21.5295 20.0272L21.5294 20.0248C21.4948 18.5708 20.3176 17.3902 18.8924 17.3902C17.4352 17.3902 16.2555 18.57 16.2555 20.0272C16.2555 21.4845 17.4352 22.6642 18.8924 22.6642C20.3497 22.6642 21.5294 21.4845 21.5295 20.0272ZM18.8924 21.4294C18.1131 21.4294 17.4569 20.7731 17.4569 19.9938C17.4569 19.2145 18.1131 18.5583 18.8924 18.5583C19.6711 18.5583 20.3269 19.2135 20.328 19.9919C20.2956 20.8088 19.6691 21.4294 18.8924 21.4294Z" fill="black" stroke="black" stroke-width="0.2"/>
<path d="M26.964 9.21388L26.9644 9.21277C27.2138 8.53114 27.469 7.82672 27.5415 7.17406C27.6145 6.51715 27.5039 5.89833 27.008 5.40238C26.5162 4.91061 25.9196 4.75542 25.2842 4.75971C24.6895 4.76373 24.0513 4.90781 23.4239 5.04945C23.3861 5.05799 23.3483 5.06651 23.3106 5.07499C23.2568 5.08652 23.2031 5.09812 23.1493 5.10972C22.7339 5.1994 22.322 5.28831 21.9396 5.33201C21.5062 5.38154 21.1268 5.37072 20.8339 5.2474C20.5398 5.12358 20.2604 4.86378 19.9884 4.52579C19.7173 4.189 19.4616 3.78511 19.2109 3.38383L19.21 3.38251C19.1892 3.3503 19.1682 3.31791 19.1472 3.28538C18.8 2.74784 18.4276 2.17137 17.9783 1.72209C17.4994 1.24316 16.9247 0.9 16.1885 0.9C15.4523 0.9 14.8773 1.24321 14.4022 1.7269C13.9293 2.20828 13.548 2.83635 13.1986 3.41877C12.9475 3.83727 12.7002 4.24919 12.4374 4.59002C12.1738 4.93184 11.903 5.19074 11.6098 5.31417C11.3172 5.43737 10.9296 5.44832 10.4882 5.39469C10.0487 5.3413 9.57047 5.22601 9.10253 5.10903C8.43738 4.94274 7.75006 4.77252 7.11496 4.75973C6.47641 4.74688 5.87856 4.89282 5.40238 5.369C4.9072 5.86419 4.78777 6.48189 4.84352 7.13811C4.8968 7.76517 5.11128 8.44085 5.31964 9.09725C5.3279 9.12329 5.33615 9.14929 5.34439 9.17526L5.34438 9.17526L5.34484 9.17666C5.51184 9.67765 5.66822 10.1722 5.75025 10.6234C5.83251 11.0758 5.83705 11.4702 5.7144 11.7776C5.59247 12.0664 5.31299 12.3279 4.93756 12.5795C4.58752 12.8142 4.16814 13.0314 3.74472 13.2507C3.71578 13.2657 3.68681 13.2807 3.65785 13.2957L3.65731 13.296C3.63742 13.3064 3.61746 13.3169 3.59747 13.3275C2.98289 13.6507 2.32232 13.9982 1.81128 14.4351C1.28102 14.8884 0.9 15.4478 0.9 16.1885L0.9 16.1899C0.899995 16.2065 0.899985 16.2384 0.905533 16.2717C0.908697 16.2907 0.914546 16.3161 0.926909 16.3417C0.925423 16.3463 0.923734 16.3514 0.921822 16.3572L0.921434 16.3583C0.917533 16.37 0.912609 16.3848 0.908739 16.399C0.905106 16.4123 0.9 16.4333 0.9 16.4555C0.9 17.1958 1.28062 17.7636 1.81093 18.2212C2.33899 18.6768 3.02571 19.0323 3.65852 19.3487C3.68725 19.3636 3.71599 19.3785 3.7447 19.3933C4.16813 19.6126 4.58751 19.8299 4.93756 20.0645C5.31334 20.3164 5.593 20.5782 5.71474 20.8673C5.83621 21.1558 5.82478 21.548 5.73786 22.0075C5.65939 22.4222 5.52307 22.875 5.38566 23.3315C5.37182 23.3775 5.35797 23.4235 5.34416 23.4695C5.336 23.4952 5.32782 23.521 5.31964 23.5468C5.11128 24.2032 4.8968 24.8789 4.84352 25.5059C4.78777 26.1621 4.9072 26.7798 5.40238 27.275C5.89508 27.7677 6.50123 27.914 7.14067 27.8968C7.75715 27.8802 8.41523 27.7114 9.0455 27.5496L9.10253 27.535C9.10267 27.535 9.10282 27.5349 9.10296 27.5349C9.57077 27.4179 10.0489 27.3027 10.4882 27.2493C10.9296 27.1957 11.3172 27.2067 11.6098 27.3299C11.903 27.4533 12.1738 27.7122 12.4374 28.054C12.7002 28.3948 12.9475 28.8068 13.1986 29.2253C13.548 29.8077 13.9293 30.4357 14.4022 30.9171C14.8773 31.4008 15.4523 31.744 16.1885 31.744C16.9243 31.744 17.5073 31.4012 17.9905 30.9222C18.4717 30.4454 18.8613 29.8261 19.2109 29.2601C19.4617 28.8589 19.7173 28.455 19.9884 28.1182C20.2602 27.7806 20.5393 27.5209 20.8331 27.397C21.1448 27.2725 21.5263 27.2545 21.9529 27.2996C22.3792 27.3447 22.8405 27.4515 23.3078 27.5684L23.3096 27.5688C23.3308 27.5737 23.3521 27.5786 23.3734 27.5835C24.0018 27.7287 24.6575 27.8802 25.2717 27.8843C25.9107 27.8886 26.516 27.7337 27.008 27.2416C27.5039 26.7457 27.6145 26.1269 27.5415 25.47C27.469 24.8173 27.2138 24.1129 26.9644 23.4312L26.9644 23.4312C26.7802 22.9289 26.5991 22.4345 26.4965 21.987C26.3932 21.5369 26.3745 21.1542 26.4953 20.8673C26.6166 20.5793 26.9033 20.3177 27.2959 20.0656C27.6862 19.815 28.1643 19.584 28.6498 19.3496L28.6498 19.3496L28.652 19.3485C28.6846 19.3318 28.7175 19.315 28.7504 19.2981C29.371 18.9803 30.0393 18.6381 30.56 18.2102C31.1107 17.7577 31.5104 17.198 31.5104 16.4555C31.5104 16.404 31.497 16.3654 31.4865 16.3391C31.482 16.3279 31.48 16.3233 31.4784 16.3192C31.4785 16.3189 31.4786 16.3185 31.4787 16.3181C31.4809 16.3098 31.4841 16.3 31.4885 16.2869L31.4889 16.2857C31.4928 16.274 31.4978 16.2592 31.5016 16.2451C31.5053 16.2317 31.5104 16.2107 31.5104 16.1885C31.5104 15.4301 31.1116 14.862 30.56 14.4088C30.0111 13.9577 29.2989 13.6106 28.6505 13.2947C28.1821 13.0605 27.7036 12.8211 27.3086 12.5661C26.9107 12.3091 26.6161 12.0474 26.495 11.7759C26.3745 11.489 26.3933 11.0983 26.4965 10.6443C26.5991 10.1931 26.7802 9.69848 26.964 9.21388ZM28.0953 18.2683L28.0953 18.2683L25.4685 20.4613L25.3767 20.4215C25.3766 20.4218 25.3765 20.422 25.3764 20.4223C25.1484 20.9491 25.1599 21.5227 25.2744 22.1038C25.3745 22.6116 25.5556 23.1353 25.7327 23.6474C25.7579 23.7203 25.7831 23.7929 25.8078 23.8652L25.8078 23.8652L25.8085 23.867L25.8279 23.9203C26.0224 24.455 26.2094 24.969 26.2924 25.4078C26.3792 25.8669 26.3439 26.2015 26.1346 26.3968L26.1346 26.3968L26.1322 26.3992C25.8953 26.6361 25.539 26.7117 25.0858 26.6872C24.6335 26.6627 24.1086 26.5401 23.5559 26.4061C22.4599 26.1404 21.3258 25.8958 20.3229 26.3108L20.3218 26.3112C19.3532 26.7264 18.7374 27.6911 18.1731 28.6204C18.173 28.6207 18.1728 28.6209 18.1726 28.6212L18.1503 28.6564C17.84 29.1464 17.5432 29.6153 17.2207 29.9657C16.8905 30.3243 16.5481 30.5426 16.1551 30.5426C15.78 30.5426 15.4462 30.3258 15.1195 29.9624C14.7932 29.5993 14.4894 29.1075 14.1712 28.5883C13.6074 27.6265 12.9916 26.6267 12.0218 26.2111L12.0207 26.2106C11.0165 25.7951 9.84816 26.0744 8.75287 26.3731C8.7275 26.3792 8.70219 26.3854 8.67695 26.3915C8.15158 26.519 7.65405 26.6398 7.2217 26.6749C6.76732 26.7117 6.41224 26.6512 6.17691 26.4315C5.96286 26.2163 5.9153 25.8675 5.98101 25.4075C6.04627 24.9507 6.21832 24.4169 6.40249 23.8644L6.40251 23.8644L6.40302 23.8628C6.41393 23.8281 6.42488 23.7933 6.43584 23.7585C6.60871 23.2095 6.78603 22.6464 6.87368 22.1046C6.96694 21.5281 6.96093 20.9639 6.73328 20.4551C6.52297 19.9478 6.13146 19.5509 5.66495 19.2159C5.19862 18.881 4.64926 18.6023 4.11633 18.3359C3.56321 18.0509 3.03862 17.78 2.65124 17.4782C2.26336 17.1761 2.03468 16.8597 2.03468 16.4889L2.03468 16.4875C2.03468 16.4709 2.03469 16.439 2.02914 16.4057C2.02598 16.3867 2.02013 16.3613 2.00777 16.3357C2.00925 16.3311 2.01094 16.326 2.01285 16.3203L2.01324 16.3191C2.01714 16.3074 2.02207 16.2926 2.02594 16.2784C2.02957 16.2651 2.03468 16.2441 2.03468 16.2219C2.03468 15.869 2.26175 15.561 2.65124 15.2576C3.01285 14.9759 3.49307 14.7144 4.00478 14.4358C4.04217 14.4154 4.07972 14.3949 4.11741 14.3744C4.65 14.1081 5.19893 13.8296 5.66495 13.4949C6.13188 13.1596 6.52366 12.7623 6.73385 12.2544L6.73429 12.2533C6.94372 11.7297 6.95038 11.1589 6.86127 10.5819C6.77225 10.0053 6.58611 9.41389 6.40277 8.8472C6.21848 8.27757 6.04632 7.73542 5.98101 7.27823C5.91498 6.81606 5.96387 6.47818 6.17557 6.28059L6.17561 6.28063L6.17805 6.27819C6.41376 6.04248 6.76852 5.97415 7.2217 6.0109C7.67388 6.04756 8.19868 6.18656 8.75153 6.33734L8.75152 6.33738L8.75428 6.33805C8.79521 6.34797 8.83624 6.35795 8.87735 6.36795C9.38712 6.49199 9.91016 6.61925 10.4195 6.6741C10.971 6.73349 11.5154 6.70925 12.0207 6.50017L12.0207 6.50018L12.0218 6.49968C12.9916 6.08408 13.6074 5.08431 14.1712 4.12249C14.1883 4.09459 14.2054 4.06678 14.2223 4.03907C14.5218 3.54995 14.8025 3.09151 15.1074 2.74797C15.429 2.38568 15.7628 2.1682 16.1551 2.1682C16.5481 2.1682 16.8905 2.38647 17.2207 2.74513C17.5432 3.09549 17.84 3.56434 18.1503 4.05435L18.1736 4.0912L18.174 4.09177L18.176 4.09487C18.475 4.56005 18.7784 5.03191 19.1205 5.43744C19.4639 5.8444 19.851 6.19032 20.3205 6.39901L20.3205 6.39904L20.3229 6.40003C20.827 6.60862 21.3621 6.64171 21.9053 6.59503C22.393 6.55312 22.8939 6.44608 23.3888 6.34033C23.4437 6.32861 23.4984 6.3169 23.5531 6.30531L23.5531 6.30535L23.5559 6.30467C24.1086 6.17068 24.6335 6.04804 25.0858 6.02359C25.539 5.9991 25.8953 6.07472 26.1322 6.31157L26.1321 6.31162L26.1346 6.31397C26.3439 6.50924 26.3792 6.84388 26.2924 7.30299C26.2094 7.74178 26.0224 8.2558 25.8279 8.79044L25.8087 8.84317C25.8087 8.84326 25.8086 8.84336 25.8086 8.84345C25.5922 9.42619 25.3721 10.0265 25.2618 10.6077C25.1513 11.1896 25.1488 11.7626 25.3764 12.2885C25.5873 12.7976 25.9971 13.1948 26.4838 13.5333C26.9297 13.8435 27.4495 14.1106 27.9554 14.3705C28.0014 14.3942 28.0474 14.4178 28.0932 14.4414L28.0932 14.4414L28.0953 14.4425C28.6806 14.7268 29.231 15.0066 29.635 15.3127C30.0412 15.6204 30.2755 15.9366 30.2755 16.2886C30.2755 16.3047 30.2754 16.3376 30.2811 16.3718C30.2842 16.3908 30.2901 16.4162 30.3024 16.4419C30.301 16.4465 30.2993 16.4516 30.2974 16.4573L30.297 16.4584C30.2931 16.4701 30.2882 16.4849 30.2843 16.4991C30.2806 16.5124 30.2755 16.5335 30.2755 16.5557H30.2754L30.2757 16.5607C30.2825 16.6975 30.232 16.8357 30.1244 16.9792C30.0163 17.1235 29.8545 17.2678 29.65 17.413C29.2407 17.7036 28.6808 17.9839 28.0953 18.2683Z" fill="black" stroke="black" stroke-width="0.2"/>
</svg>
