<svg width="42" height="29" viewBox="0 0 42 29" fill="none" xmlns="http://www.w3.org/2000/svg">
<g>
<path d="M37.8787 4.13381C37.8028 4.03201 37.7076 3.94617 37.5984 3.88119C37.4893 3.81621 37.3685 3.77337 37.2428 3.75512C37.1171 3.73686 36.9891 3.74355 36.866 3.77481C36.7429 3.80606 36.6272 3.86126 36.5254 3.93726L20.9331 15.5759C20.8773 15.6178 20.8095 15.6404 20.7397 15.6404C20.67 15.6404 20.6022 15.6178 20.5464 15.5759L5.26018 3.8857C5.15926 3.80869 5.04415 3.75231 4.92144 3.71978C4.79873 3.68725 4.67082 3.6792 4.545 3.69611C4.41918 3.71302 4.29792 3.75454 4.18815 3.8183C4.07838 3.88207 3.98224 3.96683 3.90523 4.06776C3.82822 4.16868 3.77184 4.28378 3.73931 4.40649C3.70678 4.5292 3.69874 4.65712 3.71564 4.78293C3.73255 4.90875 3.77407 5.03001 3.83784 5.13978C3.9016 5.24955 3.98637 5.34569 4.08729 5.4227L16.1062 14.6157L4.2194 23.5735C4.117 23.6499 4.03064 23.7457 3.96526 23.8554C3.89988 23.9652 3.85676 24.0867 3.83836 24.2131C3.81996 24.3395 3.82664 24.4684 3.85802 24.5922C3.88939 24.716 3.94485 24.8325 4.02123 24.9349C4.09761 25.0373 4.19341 25.1236 4.30316 25.189C4.41291 25.2544 4.53447 25.2975 4.66088 25.3159C4.7873 25.3343 4.9161 25.3276 5.03994 25.2963C5.16378 25.2649 5.28022 25.2094 5.38262 25.133L17.7012 15.8337L19.3703 17.1226C19.7595 17.4205 20.2351 17.5835 20.7252 17.587C21.2153 17.5905 21.6932 17.4343 22.0866 17.1419L23.8395 15.8337L36.3031 25.133C36.4048 25.209 36.5206 25.2642 36.6437 25.2954C36.7667 25.3266 36.8948 25.3333 37.0204 25.315C37.1461 25.2968 37.267 25.254 37.3761 25.189C37.4852 25.1241 37.5804 25.0382 37.6564 24.9365C37.7324 24.8347 37.7875 24.719 37.8188 24.5959C37.85 24.4728 37.8567 24.3448 37.8384 24.2191C37.8202 24.0934 37.7773 23.9726 37.7124 23.8635C37.6474 23.7544 37.5616 23.6591 37.4598 23.5831L25.4538 14.6125L37.6822 5.47748C37.885 5.32432 38.0193 5.09745 38.0561 4.84597C38.0929 4.59449 38.0292 4.33865 37.8787 4.13381Z" fill="#A9B5CF"/>
<path d="M36.6767 0H5.09896C3.81708 0 2.5877 0.509225 1.68128 1.41565C0.77485 2.32208 0.265625 3.55145 0.265625 4.83333L0.265625 24.1667C0.265625 25.4485 0.77485 26.6779 1.68128 27.5844C2.5877 28.4908 3.81708 29 5.09896 29H36.6767C37.9586 29 39.188 28.4908 40.0944 27.5844C41.0008 26.6779 41.5101 25.4485 41.5101 24.1667V4.83333C41.5101 3.55145 41.0008 2.32208 40.0944 1.41565C39.188 0.509225 37.9586 0 36.6767 0ZM39.5767 24.1667C39.5767 24.9358 39.2712 25.6734 38.7273 26.2173C38.1835 26.7611 37.4459 27.0667 36.6767 27.0667H5.09896C4.32983 27.0667 3.5922 26.7611 3.04835 26.2173C2.50449 25.6734 2.19896 24.9358 2.19896 24.1667V4.83333C2.19896 4.06421 2.50449 3.32658 3.04835 2.78272C3.5922 2.23887 4.32983 1.93333 5.09896 1.93333H36.6767C37.4459 1.93333 38.1835 2.23887 38.7273 2.78272C39.2712 3.32658 39.5767 4.06421 39.5767 4.83333V24.1667Z" fill="#A9B5CF"/>
</g>
</svg>
