<?xml version="1.0" encoding="UTF-8" standalone="no"?>
<svg
   width="22"
   height="22"
   viewBox="0 0 22 22"
   fill="none"
   version="1.1"
   id="svg4"
   sodipodi:docname="share_tg.svg"
   inkscape:version="1.1.2 (0a00cf5339, 2022-02-04)"
   xmlns:inkscape="http://www.inkscape.org/namespaces/inkscape"
   xmlns:sodipodi="http://sodipodi.sourceforge.net/DTD/sodipodi-0.dtd"
   xmlns="http://www.w3.org/2000/svg"
   xmlns:svg="http://www.w3.org/2000/svg">
  <defs
     id="defs8" />
  <sodipodi:namedview
     id="namedview6"
     pagecolor="#ffffff"
     bordercolor="#666666"
     borderopacity="1.0"
     inkscape:pageshadow="2"
     inkscape:pageopacity="0.0"
     inkscape:pagecheckerboard="0"
     showgrid="false"
     inkscape:zoom="21.363636"
     inkscape:cx="10.976596"
     inkscape:cy="10.976596"
     inkscape:window-width="1304"
     inkscape:window-height="704"
     inkscape:window-x="0"
     inkscape:window-y="0"
     inkscape:window-maximized="1"
     inkscape:current-layer="path2" />
  <g
     id="path2">
    <path
       style="color:#000000;fill:#58657f;stroke-width:0.5;-inkscape-stroke:none"
       d="M 20.472,1.37429 C 20.0536,0.992657 19.4785,0.894452 18.9746,1.11855 L 1.9107,8.6957 c -0.75062,0.33982 -1.108641,1.28459 -0.79969,2.1101 0.1598,0.427 0.47788,0.7584 0.87409,0.9107 l 3.68119,1.4076 1.99499,7.255 c 0.00401,0.0147 0.01634,0.0237 0.02151,0.0379 0.02064,0.0579 0.0508,0.1112 0.08888,0.1571 0.01418,0.0184 0.02964,0.0358 0.04615,0.0517 0.0497,0.0454 0.10743,0.079 0.16951,0.0986 0.00947,0.003 0.01581,0.0123 0.02546,0.0147 l 0.00558,-2e-4 0.00279,0.0013 c 0.03179,0.0078 0.06423,0.0115 0.09673,0.0112 0.04249,-0.0016 0.08463,-0.0097 0.12509,-0.024 0.00785,-0.0023 0.01575,-0.0017 0.02342,-0.0045 0.06912,-0.0268 0.13155,-0.0708 0.18241,-0.1288 0.00593,-0.0065 0.01494,-0.0076 0.02064,-0.0145 l 2.87015,-3.4833 4.1872,3.5661 c 0.2544,0.2188 0.5681,0.3377 0.891,0.3376 0.6985,-10e-5 1.3014,-0.5383 1.4453,-1.29 L 20.9705,2.93125 C 21.0782,2.35084 20.8865,1.75241 20.472,1.37429 Z M 8.70295,14.5 8.02941,18.1001 6.62478,12.9905 13.5914,9.00048 8.83223,14.2351 C 8.76643,14.3075 8.7215,14.3997 8.70295,14.5 Z m 8.22735,4.9993 c -0.0365,0.1928 -0.1616,0.3509 -0.3302,0.4174 -0.1647,0.0697 -0.3507,0.0386 -0.4892,-0.0819 L 11.5741,15.9711 C 11.3776,15.8038 11.0973,15.831 10.9305,16.0335 L 8.9346,18.4556 9.60698,14.8652 16.4532,7.33412 c 0.186,-0.20427 0.1863,-0.53571 6e-4,-0.74031 C 16.3069,6.43186 16.0814,6.39363 15.897,6.49938 L 6.0271,12.1525 2.29667,10.7263 C 2.09334,10.6527 1.95505,10.4451 1.95255,10.2097 1.94272,9.97262 2.07032,9.75467 2.27063,9.6665 L 19.3317,2.09037 c 0.1783,-0.08318 0.3839,-0.04834 0.5311,0.09002 0.1465,0.13005 0.2138,0.33982 0.1739,0.54218 z"
       id="path12" />
    <path
       style="color:#000000;fill:#58657f;-inkscape-stroke:none"
       d="M 19.796875,0.7734375 C 19.490023,0.72110823 19.169652,0.7587168 18.873047,0.890625 L 1.8085937,8.4667969 1.8066406,8.46875 C 0.92463198,8.8680521 0.52383143,9.949045 0.87695313,10.892578 1.0600398,11.381802 1.4267783,11.769418 1.8945312,11.949219 h 0.00195 l 3.5625,1.363281 1.9609375,7.132812 c 0.00891,0.03267 0.017077,0.03966 0.027344,0.05664 0.029104,0.08109 0.07289,0.157699 0.1269531,0.224609 0.0011,0.0014 0.00279,0.0025 0.00391,0.0039 9.223e-4,0.0011 0.00102,0.0028 0.00195,0.0039 0.019713,0.02492 0.040844,0.04953 0.064453,0.07227 l 0.00195,0.002 0.00195,0.002 c 0.073784,0.0674 0.1625831,0.117278 0.2578125,0.148437 0.00443,0.0017 7.74e-4,0.0023 0.00586,0.0039 0.012744,0.0066 0.013915,0.0099 0.033203,0.01563 l 0.015625,0.0039 c 0.052247,0.01282 0.1071489,0.02002 0.1601563,0.01953 h 0.00195 0.00391 c 0.067984,-0.0026 0.1353029,-0.01647 0.1992188,-0.03906 -0.0025,0.0024 -0.020177,0.01078 0.025391,-0.0059 h 0.00195 l 0.00391,-0.002 c 0.103857,-0.04027 0.19457,-0.104914 0.2695312,-0.1875 0.00248,-0.0024 0.00134,-0.0012 0.00391,-0.0039 0.013013,-0.01029 0.016786,-0.0079 0.03125,-0.02539 l 2.7089846,-3.287109 3.99414,3.402344 c 0.297152,0.254777 0.669272,0.396603 1.052735,0.396484 0.826896,-1.18e-4 1.527404,-0.635482 1.691406,-1.492188 v -0.002 L 21.216797,2.9765625 c 0.123032,-0.663039 -0.093,-1.346344 -0.576172,-1.7871094 -0.243447,-0.22205385 -0.536898,-0.36368633 -0.84375,-0.4160156 z m -0.720703,0.5742187 c 0.414589,-0.1843791 0.876657,-0.1082199 1.226562,0.2109375 0.345827,0.3154739 0.514243,0.8283921 0.421875,1.3261719 L 17.617187,19.664062 c -0.124408,0.645683 -0.62966,1.085856 -1.199218,1.085938 -0.261479,8.1e-5 -0.5172,-0.0956 -0.728516,-0.277344 l -4.380859,-3.730469 -3.0214846,3.666016 c -0.010379,0.0083 -0.011554,0.0046 -0.023437,0.01758 l -0.00195,0.002 v 0.002 c -0.024664,0.02813 -0.054408,0.04669 -0.083984,0.05859 0.00574,-0.0022 0.031665,-0.01099 -0.00586,0 l -0.00586,0.002 -0.00586,0.002 c -0.015112,0.0053 -0.029783,0.0087 -0.044922,0.0098 -0.00534,4.9e-5 -0.010448,-0.0014 -0.015625,-0.002 l -0.029297,-0.01367 H 8.0625 c -0.024199,-0.0076 -0.048036,-0.02198 -0.070312,-0.04102 l -0.00195,-0.002 c -0.00119,-0.001 -0.00273,-8.78e-4 -0.00391,-0.002 -0.00568,-0.0058 -0.011984,-0.01227 -0.017578,-0.01953 l -0.00195,-0.0039 -0.00195,-0.0039 c -0.018773,-0.02263 -0.035805,-0.04903 -0.046875,-0.08008 v -0.002 c -0.00914,-0.0251 -0.013321,-0.02598 -0.021484,-0.03906 L 5.8730469,12.935547 2.0742188,11.482422 C 1.7495525,11.357623 1.4822161,11.083525 1.3457031,10.71875 1.0809234,10.011265 1.394442,9.2041653 2.0136719,8.9238281 Z m 0.15039,0.515625 L 2.1699219,9.4375 c -0.3020681,0.1329606 -0.4767635,0.4481646 -0.4648438,0.779297 0.00533,0.329885 0.1966585,0.632218 0.5058594,0.744141 l 3.8378906,1.466796 9.9726559,-5.7109371 c 0.08554,-0.049058 0.173531,-0.037229 0.248047,0.044922 0.09531,0.1050072 0.0935,0.2994674 -0.002,0.4042969 L 9.375,14.75 l -0.6855469,3.660156 0.4375,0.205078 1.9960939,-2.421875 c 0.0864,-0.104891 0.192098,-0.113805 0.289062,-0.03125 l 4.535157,3.861328 c 0.205003,0.178361 0.495457,0.227353 0.746093,0.123047 0.253694,-0.101207 0.431331,-0.331687 0.482422,-0.601562 l 3.107422,-16.7773439 -0.002,0.00391 C 20.337516,2.4861222 20.24666,2.1915332 20.03125,1.9980469 19.814677,1.7956375 19.495194,1.7379599 19.226562,1.8632812 Z M 19.4375,2.3164063 c 0.08733,-0.040743 0.176094,-0.026264 0.253906,0.046875 l 0.002,0.00195 0.0039,0.00195 c 0.07511,0.066679 0.116985,0.1887992 0.09375,0.3066406 v 0.00195 L 16.683594,19.453125 h 0.002 c -0.02173,0.114763 -0.09568,0.198105 -0.177735,0.230469 l -0.002,0.002 h -0.0039 c -0.07791,0.03297 -0.155612,0.02267 -0.226562,-0.03906 l -0.002,-0.002 -4.537109,-3.863281 C 11.440293,15.529205 10.985482,15.574891 10.738281,15.875 L 9.3574219,17.548828 9.8398438,14.980469 16.638672,7.5019531 c 0.276546,-0.30371 0.276092,-0.7719794 0,-1.0761719 -0.219283,-0.2417488 -0.581979,-0.30502 -0.865234,-0.1425781 L 6.0058594,11.876953 2.3847656,10.492188 h -0.00391 C 2.2848883,10.457449 2.2046019,10.346097 2.203125,10.207031 v -0.0039 -0.0039 C 2.1972675,10.057947 2.2739921,9.9372723 2.3710938,9.8945313 L 19.435547,2.3183594 Z m -5.970703,6.4667968 -7.1347658,4.0859379 1.4570313,5.296875 0.4863281,-0.01953 0.6738282,-3.601562 c 0.010404,-0.05626 0.035513,-0.106438 0.068359,-0.142578 L 13.777344,9.1679688 Z m -1.126953,1.2207029 -3.6933596,4.0625 c -0.098754,0.10866 -0.1627572,0.244327 -0.1894531,0.388672 L 7.9824219,16.988281 6.9179687,13.111328 Z"
       id="path19" />
  </g>
</svg>
