<?xml version="1.0" encoding="UTF-8" standalone="no"?>
<svg
   width="28"
   height="20"
   viewBox="0 0 28 20"
   fill="none"
   version="1.1"
   id="svg6"
   sodipodi:docname="Group 12071.svg"
   inkscape:version="1.1.2 (0a00cf5339, 2022-02-04)"
   xmlns:inkscape="http://www.inkscape.org/namespaces/inkscape"
   xmlns:sodipodi="http://sodipodi.sourceforge.net/DTD/sodipodi-0.dtd"
   xmlns="http://www.w3.org/2000/svg"
   xmlns:svg="http://www.w3.org/2000/svg">
  <defs
     id="defs10" />
  <sodipodi:namedview
     id="namedview8"
     pagecolor="#ffffff"
     bordercolor="#666666"
     borderopacity="1.0"
     inkscape:pageshadow="2"
     inkscape:pageopacity="0.0"
     inkscape:pagecheckerboard="0"
     showgrid="false"
     inkscape:zoom="23.5"
     inkscape:cx="13.978723"
     inkscape:cy="9.9787234"
     inkscape:window-width="1304"
     inkscape:window-height="704"
     inkscape:window-x="0"
     inkscape:window-y="0"
     inkscape:window-maximized="1"
     inkscape:current-layer="svg6" />
  <path
     style="color:#000000;fill:#42ab10;stroke-linecap:round;stroke-linejoin:round;-inkscape-stroke:none"
     d="m 11.396484,5.5839844 c -0.860885,0 -1.6521878,0.238524 -2.2695309,0.6738281 C 8.50961,6.6931166 8.046875,7.3723423 8.046875,8.1660156 v 9.1679684 c 0,0.793669 0.4627408,1.472877 1.0800781,1.908203 0.6173373,0.435327 1.4086299,0.673829 2.2695309,0.673829 h 13 c 0.860874,0 1.654148,-0.238506 2.271485,-0.673829 0.617337,-0.435322 1.078125,-1.114521 1.078125,-1.908203 V 8.1660156 c 0,-0.7936856 -0.460783,-1.4729028 -1.078125,-1.9082031 C 26.050626,5.8225122 25.257342,5.5839844 24.396484,5.5839844 Z m 0,1.5 h 13 c 0.575041,0 1.082569,0.1702035 1.40625,0.3984375 0.323682,0.228234 0.44336,0.4647604 0.44336,0.6835937 v 9.1679684 c 0,0.218818 -0.119672,0.455342 -0.44336,0.683594 -0.323687,0.228252 -0.831224,0.398438 -1.40625,0.398438 h -13 c -0.575067,0 -1.08257,-0.17019 -1.4062496,-0.398438 C 9.6665551,17.78933 9.546875,17.552814 9.546875,17.333984 V 8.1660156 c 0,-0.2188457 0.1196859,-0.4553635 0.4433594,-0.6835937 C 10.313908,7.2541916 10.821402,7.0839844 11.396484,7.0839844 Z"
     id="path2" />
  <path
     style="color:#000000;fill:#42ab10;stroke-linecap:round;stroke-linejoin:round;-inkscape-stroke:none"
     d="m 22.226562,9.7890625 a 0.75,0.75 0 0 0 -1.060546,0.019531 l -4.271485,4.4394532 -1.648437,-1.712891 a 0.75,0.75 0 0 0 -1.060547,-0.01953 0.75,0.75 0 0 0 -0.01953,1.060547 l 2.1875,2.273437 a 0.750075,0.750075 0 0 0 1.080078,0 l 4.8125,-5 a 0.75,0.75 0 0 0 -0.01953,-1.0605465 z"
     id="path12" />
  <path
     style="color:#000000;fill:#42ab10;stroke-linecap:round;stroke-linejoin:round;-inkscape-stroke:none"
     d="m 3.5996094,0.08398437 c -0.8592303,10e-9 -1.6503332,0.2405443 -2.2675782,0.67578125 C 0.71478627,1.1950026 0.25,1.8717678 0.25,2.6660156 v 9.1679684 c 0,0.794263 0.464783,1.471 1.0820312,1.90625 0.6172483,0.43525 1.4083483,0.675782 2.2675782,0.675782 a 0.75,0.75 0 0 0 0.75,-0.75 0.75,0.75 0 0 0 -0.75,-0.75 c -0.5707687,0 -1.0790461,-0.171042 -1.4042969,-0.400391 C 1.8700617,12.286276 1.75,12.048121 1.75,11.833984 V 2.6660156 C 1.75,2.4519344 1.8700584,2.2137209 2.1953125,1.984375 2.5205666,1.7550291 3.0288411,1.5839844 3.5996094,1.5839844 H 16.599609 c 0.570769,0 1.079043,0.1710447 1.404297,0.4003906 0.325254,0.2293459 0.445313,0.4675594 0.445313,0.6816406 a 0.75,0.75 0 0 0 0.75,0.75 0.75,0.75 0 0 0 0.75,-0.75 c 0,-0.7942478 -0.462833,-1.471013 -1.080078,-1.90624998 C 18.251896,0.32452867 17.45884,0.08398437 16.599609,0.08398437 Z"
     id="path4" />
</svg>
