<?xml version="1.0" encoding="UTF-8" standalone="no"?>
<svg
   width="24"
   height="24"
   viewBox="0 0 24 24"
   fill="none"
   version="1.1"
   id="svg6"
   sodipodi:docname="share_whatsapp.svg"
   inkscape:version="1.1.2 (0a00cf5339, 2022-02-04)"
   xmlns:inkscape="http://www.inkscape.org/namespaces/inkscape"
   xmlns:sodipodi="http://sodipodi.sourceforge.net/DTD/sodipodi-0.dtd"
   xmlns="http://www.w3.org/2000/svg"
   xmlns:svg="http://www.w3.org/2000/svg">
  <defs
     id="defs10" />
  <sodipodi:namedview
     id="namedview8"
     pagecolor="#ffffff"
     bordercolor="#666666"
     borderopacity="1.0"
     inkscape:pageshadow="2"
     inkscape:pageopacity="0.0"
     inkscape:pagecheckerboard="0"
     showgrid="false"
     inkscape:zoom="9.7916667"
     inkscape:cx="-4.5446808"
     inkscape:cy="10.26383"
     inkscape:window-width="1304"
     inkscape:window-height="704"
     inkscape:window-x="0"
     inkscape:window-y="0"
     inkscape:window-maximized="1"
     inkscape:current-layer="svg6" />
  <g
     id="g142">
    <path
       style="color:#000000;fill:#58657f;stroke-linecap:round;stroke-linejoin:round;-inkscape-stroke:none"
       d="M 12.734375,0.2734375 C 9.8776032,0.09466336 7.0535299,0.96480314 4.7929687,2.7207031 2.5324113,4.4766002 0.98861997,6.9983118 0.45507813,9.8105469 -0.05331737,12.490322 0.44969216,15.236065 1.7558594,17.621094 l -1.02343753,3.585937 c -0.0816965,0.285838 -0.0862477,0.587275 -0.0117188,0.875 0.0745726,0.287783 0.22556383,0.551645 0.43554688,0.761719 0.2101767,0.210104 0.4722925,0.360919 0.7597656,0.435547 a 0.750075,0.750075 0 0 0 0.00195,0 c 0.287815,0.07454 0.5893619,0.06984 0.8750001,-0.01172 l 3.5859374,-1.023437 c 2.3850023,1.306126 5.1308168,1.809165 7.8105468,1.300781 2.812231,-0.533522 5.333974,-2.077231 7.089844,-4.337891 1.755861,-2.260541 2.626067,-5.084534 2.447265,-7.941406 C 23.547761,8.4088607 22.332664,5.7154234 20.308594,3.6914063 18.284618,1.6673766 15.591144,0.45220721 12.734375,0.2734375 Z m -0.09375,1.4960937 c 2.492425,0.15597 4.841602,1.2165553 6.607422,2.9824219 1.765925,1.765879 2.826424,4.1149915 2.982422,6.6074219 0.155998,2.492522 -0.60283,4.95548 -2.134766,6.927734 -1.531927,1.972337 -3.731983,3.317726 -6.185547,3.783203 -2.453574,0.46548 -4.9908079,0.02017 -7.1386716,-1.253906 l 0.027344,0.0625 A 0.750075,0.750075 0 0 0 6.1816406,20.740234 l -3.8007812,1.085938 c -0.028861,0.0082 -0.059086,0.0075 -0.087891,0 -0.029167,-0.0076 -0.055069,-0.02187 -0.076172,-0.04297 -0.021317,-0.02133 -0.035501,-0.04735 -0.042969,-0.07617 -0.00753,-0.02907 -0.00816,-0.05933 0,-0.08789 L 3.2597656,17.818359 A 0.750075,0.750075 0 0 0 3.1835938,17.228516 C 1.9094596,15.08059 1.4641959,12.543471 1.9296875,10.089844 2.3951847,7.6362641 3.7406323,5.4362565 5.7128906,3.9042969 7.6851452,2.3723402 10.148202,1.6135577 12.640625,1.7695312 Z"
       id="path2" />
    <path
       style="color:#000000;fill:#58657f;stroke-linecap:round;stroke-linejoin:round;-inkscape-stroke:none"
       d="M 8.7949219,5.2832031 C 7.7480876,5.2828316 6.7417673,5.6967876 6,6.4355469 5.2577746,7.1747625 4.839305,8.1790264 4.8359375,9.2265625 a 0.750075,0.750075 0 0 0 0,0.00195 c -0.00186,1.3051704 0.2533592,2.5985254 0.7519531,3.8046874 0.4986036,1.206186 1.2314324,2.301756 2.1542969,3.224609 0.9229059,0.923004 2.0184598,1.653766 3.2246095,2.152344 1.206148,0.498731 2.499563,0.755745 3.804687,0.753906 a 0.750075,0.750075 0 0 0 0.0039,-0.002 c 1.045517,-0.0073 2.045324,-0.427008 2.783203,-1.167968 0.737871,-0.74083 1.155244,-1.743372 1.158203,-2.789063 a 0.750075,0.750075 0 0 0 0,-0.002 c 0,-0.271384 -0.07253,-0.538398 -0.208985,-0.773437 -0.136341,-0.235038 -0.332699,-0.42781 -0.568359,-0.5625 a 0.750075,0.750075 0 0 0 0,-0.002 l -2.34375,-1.339843 c -0.257022,-0.14687 -0.549695,-0.221839 -0.845703,-0.21875 -0.296197,0.0031 -0.585987,0.08405 -0.839844,0.236328 a 0.750075,0.750075 0 0 0 0,0.002 l -1.390625,0.833984 c -0.807445,-0.439447 -1.458947,-1.090917 -1.898437,-1.898437 l 0.833984,-1.390625 C 11.607363,9.8359935 11.69009,9.5458925 11.693359,9.25 a 0.750075,0.750075 0 0 0 0,-0.00195 c 0.0031,-0.2960073 -0.07387,-0.586736 -0.220703,-0.84375 L 10.132813,6.0585937 C 9.9981109,5.8228366 9.8031476,5.6264845 9.5683594,5.4902344 9.3341301,5.3543087 9.0677086,5.2835407 8.796875,5.2832031 Z m 0,1.5 c 0.00708,0 0.015327,0.00229 0.021484,0.00586 0.00615,0.00357 0.010174,0.00755 0.013672,0.013672 l 1.3398439,2.3457031 c 0.01477,0.025846 0.02375,0.054212 0.02344,0.083984 -3.3e-4,0.029887 -0.01007,0.058455 -0.02539,0.083984 L 9.0917969,11.111328 a 0.750075,0.750075 0 0 0 -0.039063,0.69336 c 0.6288627,1.395567 1.7451376,2.513768 3.1406246,3.142578 a 0.750075,0.750075 0 0 0 0.695313,-0.04102 l 1.792969,-1.076172 c 0.02554,-0.01532 0.05438,-0.02313 0.08398,-0.02344 0.02979,-3.11e-4 0.06016,0.0068 0.08594,0.02148 l 2.343749,1.339844 c 0.0061,0.0035 0.01217,0.0097 0.01563,0.01563 0.0033,0.0058 0.0059,0.01252 0.0059,0.01953 -0.0023,0.650228 -0.261817,1.271696 -0.720703,1.732422 -0.458881,0.460797 -1.080267,0.723502 -1.730469,0.728515 -1.107216,0.0013 -2.203509,-0.217602 -3.226562,-0.640625 C 10.515214,16.600216 9.5860468,15.980661 8.8027344,15.197266 8.0193805,14.413921 7.3978249,13.482797 6.9746094,12.458984 6.5513843,11.435149 6.3343582,10.338316 6.3359375,9.2304688 6.3385225,8.5802458 6.5978433,7.9588821 7.0585937,7.5 7.5197844,7.0406795 8.1440201,6.7826513 8.7949219,6.7832031 Z"
       id="path4" />
  </g>
</svg>
