<?xml version="1.0" encoding="UTF-8" standalone="no"?>
<svg
   xmlns:dc="http://purl.org/dc/elements/1.1/"
   xmlns:cc="http://creativecommons.org/ns#"
   xmlns:rdf="http://www.w3.org/1999/02/22-rdf-syntax-ns#"
   xmlns:svg="http://www.w3.org/2000/svg"
   xmlns="http://www.w3.org/2000/svg"
   xmlns:sodipodi="http://sodipodi.sourceforge.net/DTD/sodipodi-0.dtd"
   xmlns:inkscape="http://www.inkscape.org/namespaces/inkscape"
   width="14"
   height="16"
   viewBox="0 0 14 16"
   fill="none"
   version="1.1"
   id="svg14"
   sodipodi:docname="status__NEW.svg"
   inkscape:version="0.92.3 (2405546, 2018-03-11)">
  <metadata
     id="metadata20">
    <rdf:RDF>
      <cc:Work
         rdf:about="">
        <dc:format>image/svg+xml</dc:format>
        <dc:type
           rdf:resource="http://purl.org/dc/dcmitype/StillImage" />
        <dc:title></dc:title>
      </cc:Work>
    </rdf:RDF>
  </metadata>
  <defs
     id="defs18" />
  <sodipodi:namedview
     pagecolor="#ffffff"
     bordercolor="#666666"
     borderopacity="1"
     objecttolerance="10"
     gridtolerance="10"
     guidetolerance="10"
     inkscape:pageopacity="0"
     inkscape:pageshadow="2"
     inkscape:window-width="1920"
     inkscape:window-height="1025"
     id="namedview16"
     showgrid="false"
     inkscape:zoom="14.75"
     inkscape:cx="-1.8135593"
     inkscape:cy="8"
     inkscape:window-x="0"
     inkscape:window-y="31"
     inkscape:window-maximized="1"
     inkscape:current-layer="svg14" />
  <path
     style="color:#000000;font-style:normal;font-variant:normal;font-weight:normal;font-stretch:normal;font-size:medium;line-height:normal;font-family:sans-serif;font-variant-ligatures:normal;font-variant-position:normal;font-variant-caps:normal;font-variant-numeric:normal;font-variant-alternates:normal;font-feature-settings:normal;text-indent:0;text-align:start;text-decoration:none;text-decoration-line:none;text-decoration-style:solid;text-decoration-color:#000000;letter-spacing:normal;word-spacing:normal;text-transform:none;writing-mode:lr-tb;direction:ltr;text-orientation:mixed;dominant-baseline:auto;baseline-shift:baseline;text-anchor:start;white-space:normal;shape-padding:0;clip-rule:nonzero;display:inline;overflow:visible;visibility:visible;opacity:1;isolation:auto;mix-blend-mode:normal;color-interpolation:sRGB;color-interpolation-filters:linearRGB;solid-color:#000000;solid-opacity:1;vector-effect:none;fill:#42ab10;fill-opacity:1;fill-rule:nonzero;stroke:none;stroke-width:1;stroke-linecap:round;stroke-linejoin:round;stroke-miterlimit:4;stroke-dasharray:none;stroke-dashoffset:0;stroke-opacity:1;color-rendering:auto;image-rendering:auto;shape-rendering:auto;text-rendering:auto;enable-background:accumulate"
     d="M 6.6660156 0.83398438 C 6.3442208 0.83398438 6.0286782 0.9191738 5.75 1.0800781 L 3.5292969 2.3496094 A 0.50005 0.50005 0 0 0 3.3671875 2.4414062 L 1.0859375 3.7460938 A 0.50005 0.50005 0 0 0 1.0839844 3.7460938 C 0.82789466 3.8939484 0.61739363 4.1065698 0.45898438 4.3554688 A 0.50005 0.50005 0 0 0 0.43945312 4.3808594 C 0.43164545 4.3936241 0.41960807 4.4030423 0.41210938 4.4160156 C 0.25122891 4.6943354 0.16829872 5.0105567 0.16796875 5.3320312 A 0.50005 0.50005 0 0 0 0.16601562 5.3320312 L 0.16601562 10.666016 A 0.50005 0.50005 0 0 0 0.16796875 10.666016 C 0.16829874 10.987478 0.25317605 11.303742 0.4140625 11.582031 C 0.57491634 11.859911 0.80598053 12.091458 1.0839844 12.251953 A 0.50005 0.50005 0 0 0 1.0859375 12.253906 L 5.75 14.919922 C 6.0286672 15.080779 6.3442351 15.164063 6.6660156 15.164062 C 6.9877962 15.164062 7.305311 15.080782 7.5839844 14.919922 L 8.9140625 14.160156 A 0.50005 0.50005 0 1 0 8.4199219 13.291016 L 7.0859375 14.050781 A 0.50005 0.50005 0 0 0 7.0839844 14.052734 C 6.9572777 14.125874 6.8123351 14.164062 6.6660156 14.164062 C 6.5196962 14.164062 6.3767128 14.125882 6.25 14.052734 A 0.50005 0.50005 0 0 0 6.2480469 14.052734 L 1.5839844 11.386719 L 1.5820312 11.384766 C 1.4565374 11.311757 1.3519687 11.207797 1.2792969 11.082031 C 1.2061573 10.95552 1.1661656 10.812154 1.1660156 10.666016 L 1.1660156 5.4179688 L 6.4179688 8.4335938 A 0.50005 0.50005 0 0 0 6.9160156 8.4335938 L 12.167969 5.4179688 L 12.167969 6.6660156 A 0.50005 0.50005 0 1 0 13.167969 6.6660156 L 13.167969 5.3320312 C 13.167694 5.0103894 13.080731 4.6942426 12.919922 4.4160156 C 12.759042 4.1376513 12.528405 3.906826 12.25 3.7460938 A 0.50005 0.50005 0 0 0 12.248047 3.7460938 L 7.5839844 1.0800781 C 7.3053 0.91917019 6.9878104 0.83398438 6.6660156 0.83398438 z M 6.6660156 1.8339844 C 6.8123208 1.8339844 6.9572888 1.8721604 7.0839844 1.9453125 A 0.50005 0.50005 0 0 0 7.0859375 1.9472656 L 11.65625 4.5585938 L 9.6777344 5.6953125 L 4.7050781 2.828125 L 6.2480469 1.9472656 A 0.50005 0.50005 0 0 0 6.25 1.9453125 C 6.3767018 1.8721565 6.5197104 1.8339844 6.6660156 1.8339844 z M 3.6992188 3.4023438 L 8.6738281 6.2695312 L 6.6679688 7.421875 L 1.6777344 4.5585938 L 3.6992188 3.4023438 z M 11.326172 8.1582031 A 0.50005 0.50005 0 0 0 10.833984 8.6660156 L 10.833984 10.166016 L 9.3339844 10.166016 A 0.50005 0.50005 0 1 0 9.3339844 11.166016 L 10.833984 11.166016 L 10.833984 12.666016 A 0.50005 0.50005 0 1 0 11.833984 12.666016 L 11.833984 11.166016 L 13.333984 11.166016 A 0.50005 0.50005 0 1 0 13.333984 10.166016 L 11.833984 10.166016 L 11.833984 8.6660156 A 0.50005 0.50005 0 0 0 11.326172 8.1582031 z "
     id="path2" />
</svg>
