<?xml version="1.0" encoding="UTF-8" standalone="no"?>
<svg
   xmlns:dc="http://purl.org/dc/elements/1.1/"
   xmlns:cc="http://creativecommons.org/ns#"
   xmlns:rdf="http://www.w3.org/1999/02/22-rdf-syntax-ns#"
   xmlns:svg="http://www.w3.org/2000/svg"
   xmlns="http://www.w3.org/2000/svg"
   xmlns:sodipodi="http://sodipodi.sourceforge.net/DTD/sodipodi-0.dtd"
   xmlns:inkscape="http://www.inkscape.org/namespaces/inkscape"
   width="17"
   height="16"
   viewBox="0 0 17 16"
   fill="none"
   version="1.1"
   id="svg8"
   sodipodi:docname="status__C.svg"
   inkscape:version="0.92.3 (2405546, 2018-03-11)">
  <metadata
     id="metadata14">
    <rdf:RDF>
      <cc:Work
         rdf:about="">
        <dc:format>image/svg+xml</dc:format>
        <dc:type
           rdf:resource="http://purl.org/dc/dcmitype/StillImage" />
        <dc:title></dc:title>
      </cc:Work>
    </rdf:RDF>
  </metadata>
  <defs
     id="defs12" />
  <sodipodi:namedview
     pagecolor="#ffffff"
     bordercolor="#666666"
     borderopacity="1"
     objecttolerance="10"
     gridtolerance="10"
     guidetolerance="10"
     inkscape:pageopacity="0"
     inkscape:pageshadow="2"
     inkscape:window-width="1920"
     inkscape:window-height="1025"
     id="namedview10"
     showgrid="false"
     inkscape:zoom="20.85965"
     inkscape:cx="-8.5702927"
     inkscape:cy="11.357231"
     inkscape:window-x="0"
     inkscape:window-y="31"
     inkscape:window-maximized="1"
     inkscape:current-layer="svg8" />
  <path
     style="color:#000000;font-style:normal;font-variant:normal;font-weight:normal;font-stretch:normal;font-size:medium;line-height:normal;font-family:sans-serif;font-variant-ligatures:normal;font-variant-position:normal;font-variant-caps:normal;font-variant-numeric:normal;font-variant-alternates:normal;font-feature-settings:normal;text-indent:0;text-align:start;text-decoration:none;text-decoration-line:none;text-decoration-style:solid;text-decoration-color:#000000;letter-spacing:normal;word-spacing:normal;text-transform:none;writing-mode:lr-tb;direction:ltr;text-orientation:mixed;dominant-baseline:auto;baseline-shift:baseline;text-anchor:start;white-space:normal;shape-padding:0;clip-rule:nonzero;display:inline;overflow:visible;visibility:visible;opacity:1;isolation:auto;mix-blend-mode:normal;color-interpolation:sRGB;color-interpolation-filters:linearRGB;solid-color:#000000;solid-opacity:1;vector-effect:none;fill:#da0808;fill-opacity:1;fill-rule:nonzero;stroke:none;stroke-width:1;stroke-linecap:round;stroke-linejoin:round;stroke-miterlimit:4;stroke-dasharray:none;stroke-dashoffset:0;stroke-opacity:1;color-rendering:auto;image-rendering:auto;shape-rendering:auto;text-rendering:auto;enable-background:accumulate"
     d="M 8.5 0.83398438 C 4.5478892 0.83398437 1.3339844 4.0478892 1.3339844 8 C 1.3339844 11.952148 4.5478955 15.166016 8.5 15.166016 C 12.452142 15.166016 15.666016 11.952142 15.666016 8 C 15.666016 4.0478955 12.452148 0.83398436 8.5 0.83398438 z M 8.5 1.8339844 C 11.911712 1.8339844 14.666016 4.5883245 14.666016 8 C 14.666016 11.411718 11.911718 14.166016 8.5 14.166016 C 5.0883245 14.166016 2.3339844 11.411712 2.3339844 8 C 2.3339844 4.5883308 5.0883308 1.8339844 8.5 1.8339844 z M 6.4941406 5.4941406 A 0.50005 0.50005 0 0 0 6.1464844 6.3535156 L 7.7929688 8 L 6.1464844 9.6464844 A 0.50005 0.50005 0 1 0 6.8535156 10.353516 L 8.5 8.7070312 L 10.146484 10.353516 A 0.50005 0.50005 0 1 0 10.853516 9.6464844 L 9.2070312 8 L 10.853516 6.3535156 A 0.50005 0.50005 0 0 0 10.490234 5.4960938 A 0.50005 0.50005 0 0 0 10.146484 5.6464844 L 8.5 7.2929688 L 6.8535156 5.6464844 A 0.50005 0.50005 0 0 0 6.4941406 5.4941406 z "
     id="path2" />
</svg>
