<?xml version="1.0" encoding="UTF-8" standalone="no"?>
<svg
   xmlns:dc="http://purl.org/dc/elements/1.1/"
   xmlns:cc="http://creativecommons.org/ns#"
   xmlns:rdf="http://www.w3.org/1999/02/22-rdf-syntax-ns#"
   xmlns:svg="http://www.w3.org/2000/svg"
   xmlns="http://www.w3.org/2000/svg"
   xmlns:sodipodi="http://sodipodi.sourceforge.net/DTD/sodipodi-0.dtd"
   xmlns:inkscape="http://www.inkscape.org/namespaces/inkscape"
   width="16"
   height="16"
   viewBox="0 0 16 16"
   fill="none"
   version="1.1"
   id="svg12"
   sodipodi:docname="status__PO.svg"
   inkscape:version="0.92.3 (2405546, 2018-03-11)">
  <metadata
     id="metadata18">
    <rdf:RDF>
      <cc:Work
         rdf:about="">
        <dc:format>image/svg+xml</dc:format>
        <dc:type
           rdf:resource="http://purl.org/dc/dcmitype/StillImage" />
        <dc:title></dc:title>
      </cc:Work>
    </rdf:RDF>
  </metadata>
  <defs
     id="defs16" />
  <sodipodi:namedview
     pagecolor="#ffffff"
     bordercolor="#666666"
     borderopacity="1"
     objecttolerance="10"
     gridtolerance="10"
     guidetolerance="10"
     inkscape:pageopacity="0"
     inkscape:pageshadow="2"
     inkscape:window-width="1920"
     inkscape:window-height="1025"
     id="namedview14"
     showgrid="false"
     inkscape:zoom="20.85965"
     inkscape:cx="-15.809661"
     inkscape:cy="19.666253"
     inkscape:window-x="0"
     inkscape:window-y="31"
     inkscape:window-maximized="1"
     inkscape:current-layer="svg12" />
  <path
     style="color:#000000;font-style:normal;font-variant:normal;font-weight:normal;font-stretch:normal;font-size:medium;line-height:normal;font-family:sans-serif;font-variant-ligatures:normal;font-variant-position:normal;font-variant-caps:normal;font-variant-numeric:normal;font-variant-alternates:normal;font-feature-settings:normal;text-indent:0;text-align:start;text-decoration:none;text-decoration-line:none;text-decoration-style:solid;text-decoration-color:#000000;letter-spacing:normal;word-spacing:normal;text-transform:none;writing-mode:lr-tb;direction:ltr;text-orientation:mixed;dominant-baseline:auto;baseline-shift:baseline;text-anchor:start;white-space:normal;shape-padding:0;clip-rule:nonzero;display:inline;overflow:visible;visibility:visible;opacity:1;isolation:auto;mix-blend-mode:normal;color-interpolation:sRGB;color-interpolation-filters:linearRGB;solid-color:#000000;solid-opacity:1;vector-effect:none;fill:#9c4709;fill-opacity:1;fill-rule:nonzero;stroke:none;stroke-width:1;stroke-linecap:round;stroke-linejoin:round;stroke-miterlimit:4;stroke-dasharray:none;stroke-dashoffset:0;stroke-opacity:1;color-rendering:auto;image-rendering:auto;shape-rendering:auto;text-rendering:auto;enable-background:accumulate"
     d="M 5.9921875 1.4921875 A 0.50005 0.50005 0 0 0 5.65625 1.6289062 A 0.50005 0.50005 0 0 0 5.6386719 1.6464844 A 0.50005 0.50005 0 0 0 5.6367188 1.6503906 A 0.50005 0.50005 0 0 0 5.6054688 1.6835938 A 0.50005 0.50005 0 0 0 5.6035156 1.6875 A 0.50005 0.50005 0 0 0 5.5761719 1.7246094 A 0.50005 0.50005 0 0 0 5.5742188 1.7285156 A 0.50005 0.50005 0 0 0 5.5 2.0820312 L 5.5 6.8339844 L 4 6.8339844 A 0.50005 0.50005 0 0 0 3.9492188 6.8339844 A 0.50064427 0.50064427 0 0 0 4 7.8339844 L 5.5 7.8339844 L 5.5 9.5 L 4 9.5 A 0.50005 0.50005 0 1 0 4 10.5 L 5.5 10.5 L 5.5 14 A 0.50005 0.50005 0 1 0 6.5 14 L 6.5 10.5 L 9.3339844 10.5 A 0.50005 0.50005 0 1 0 9.3339844 9.5 L 6.5 9.5 L 6.5 7.8339844 L 9.2988281 7.8339844 L 9.3339844 7.8339844 A 0.50005 0.50005 0 0 0 9.4492188 7.8222656 C 10.407882 7.7920245 11.192361 7.4110782 11.707031 6.8320312 C 12.243074 6.2289382 12.5 5.4437848 12.5 4.6660156 C 12.5 3.8882465 12.243074 3.1050462 11.707031 2.5019531 C 11.191285 1.9216959 10.404778 1.5405119 9.4433594 1.5117188 A 0.50005 0.50005 0 0 0 9.3339844 1.5 L 6.0917969 1.5 A 0.50005 0.50005 0 0 0 5.9921875 1.4921875 z M 6.5 2.5 L 9.2988281 2.5 L 9.3339844 2.5 C 10.097798 2.5 10.606205 2.7691094 10.958984 3.1660156 C 11.311764 3.5629219 11.5 4.1104523 11.5 4.6660156 C 11.5 5.221579 11.311764 5.7710624 10.958984 6.1679688 C 10.606205 6.564875 10.097798 6.8339844 9.3339844 6.8339844 L 6.5 6.8339844 L 6.5 2.5 z "
     id="path2" />
</svg>
