<?xml version="1.0" encoding="UTF-8" standalone="no"?>
<svg
   xmlns:dc="http://purl.org/dc/elements/1.1/"
   xmlns:cc="http://creativecommons.org/ns#"
   xmlns:rdf="http://www.w3.org/1999/02/22-rdf-syntax-ns#"
   xmlns:svg="http://www.w3.org/2000/svg"
   xmlns="http://www.w3.org/2000/svg"
   xmlns:sodipodi="http://sodipodi.sourceforge.net/DTD/sodipodi-0.dtd"
   xmlns:inkscape="http://www.inkscape.org/namespaces/inkscape"
   width="15"
   height="14"
   viewBox="0 0 15 14"
   fill="none"
   version="1.1"
   id="svg10"
   sodipodi:docname="status__N.svg"
   inkscape:version="0.92.3 (2405546, 2018-03-11)">
  <metadata
     id="metadata16">
    <rdf:RDF>
      <cc:Work
         rdf:about="">
        <dc:format>image/svg+xml</dc:format>
        <dc:type
           rdf:resource="http://purl.org/dc/dcmitype/StillImage" />
        <dc:title></dc:title>
      </cc:Work>
    </rdf:RDF>
  </metadata>
  <defs
     id="defs14" />
  <sodipodi:namedview
     pagecolor="#ffffff"
     bordercolor="#666666"
     borderopacity="1"
     objecttolerance="10"
     gridtolerance="10"
     guidetolerance="10"
     inkscape:pageopacity="0"
     inkscape:pageshadow="2"
     inkscape:window-width="1920"
     inkscape:window-height="1025"
     id="namedview12"
     showgrid="false"
     inkscape:zoom="23.8396"
     inkscape:cx="-8.8573346"
     inkscape:cy="9.7231758"
     inkscape:window-x="0"
     inkscape:window-y="31"
     inkscape:window-maximized="1"
     inkscape:current-layer="svg10" />
  <path
     d="M 5.9980469 0 C 5.9320669 0 5.8675506 0.0136886 5.8066406 0.0390625 C 5.7457406 0.0644364 5.6890381 0.1015925 5.6425781 0.1484375 L 1.7910156 4 L 1.0019531 4 C 0.86939212 4 0.74412563 4.0527444 0.65039062 4.1464844 C 0.55665462 4.2402144 0.50390625 4.36744 0.50390625 4.5 L 0.50390625 10.998047 C 0.48539525 11.396847 0.54919737 11.793816 0.69335938 12.166016 C 0.83752138 12.538216 1.0575838 12.877856 1.3398438 13.160156 C 1.6220938 13.442356 1.9598012 13.662541 2.3320312 13.806641 C 2.7042612 13.950841 3.1032131 14.014594 3.5019531 13.996094 L 11.5 13.996094 C 11.8988 14.014594 12.295769 13.950841 12.667969 13.806641 C 13.040169 13.662541 13.377956 13.442356 13.660156 13.160156 C 13.942456 12.877856 14.162441 12.538216 14.306641 12.166016 C 14.450841 11.793816 14.516547 11.396847 14.498047 10.998047 L 14.498047 4.5 C 14.498047 4.36744 14.445262 4.2402144 14.351562 4.1464844 C 14.257762 4.0527444 14.130647 4 13.998047 4 L 13.722656 4 L 10.375 0.17382812 C 10.2972 0.086006225 10.192172 0.027127425 10.076172 0.009765625 C 9.9600919 -0.007596185 9.8403544 0.0169236 9.7402344 0.078125 L 7.5996094 1.3945312 L 6.3535156 0.1484375 C 6.3070456 0.1015925 6.2503631 0.0644364 6.1894531 0.0390625 C 6.1285531 0.0136886 6.0640269 0 5.9980469 0 z M 9.9003906 1.1484375 L 12.396484 4 L 5.2675781 4 L 9.9003906 1.1484375 z M 5.9980469 1.2070312 L 6.7226562 1.9355469 L 3.3671875 4 L 3.2089844 4 L 5.9980469 1.2070312 z M 1.5019531 5 L 13.498047 5 L 13.498047 10.998047 C 13.516547 11.265447 13.478666 11.532203 13.384766 11.783203 C 13.290766 12.034103 13.142625 12.263625 12.953125 12.453125 C 12.763625 12.642625 12.536056 12.788812 12.285156 12.882812 C 12.034156 12.976713 11.7673 13.014594 11.5 12.996094 L 3.5019531 12.996094 C 3.2346331 13.014594 2.9658038 12.976712 2.7148438 12.882812 C 2.4638937 12.788813 2.236355 12.642625 2.046875 12.453125 C 1.857405 12.263625 1.7111175 12.034103 1.6171875 11.783203 C 1.5232575 11.532203 1.4834531 11.265447 1.5019531 10.998047 L 1.5019531 5 z M 12.097656 8.0058594 C 12.000344 7.9962731 11.901637 8.0002463 11.804688 8.0195312 C 11.610787 8.0581012 11.432769 8.1531688 11.292969 8.2929688 C 11.153169 8.4327588 11.058131 8.6107875 11.019531 8.8046875 C 10.980931 8.9985975 11.000472 9.2001625 11.076172 9.3828125 C 11.151772 9.5654625 11.279059 9.7222012 11.443359 9.8320312 C 11.607759 9.9418712 11.8023 10 12 10 C 12.2651 10 12.519531 9.8944912 12.707031 9.7070312 C 12.894531 9.5195713 13 9.26511 13 9 C 13 8.80231 12.939978 8.6096925 12.830078 8.4453125 C 12.720278 8.2809325 12.565513 8.1518219 12.382812 8.0761719 C 12.291512 8.0383419 12.194969 8.0154456 12.097656 8.0058594 z "
     id="path2"
     style="fill:#004336;fill-opacity:1" />
</svg>
