<svg width="17" height="16" viewBox="0 0 17 16" fill="none" xmlns="http://www.w3.org/2000/svg">
<path d="M4.83375 11.1856L2.19402 13.8962L0.90014 12.5375C0.75147 12.3812 0.503947 12.3753 0.347853 12.524C0.191564 12.6728 0.185507 12.9202 0.334373 13.0765L1.90821 14.729C1.98147 14.806 2.08286 14.8498 2.18914 14.8503C2.18972 14.8503 2.1905 14.8503 2.19128 14.8503C2.29658 14.8503 2.39778 14.8078 2.47124 14.7322L5.39385 11.7306C5.54447 11.5761 5.54115 11.3288 5.38662 11.1781C5.2317 11.0277 4.98417 11.0308 4.83375 11.1856Z" fill="#08566F" stroke="#08566F" stroke-width="0.2"/>
<path d="M15.9102 7.48073V7.08121C15.9102 6.07061 15.2669 5.20965 14.369 4.87988V3.22829C14.369 1.99967 13.3696 1 12.1409 1H3.01228C1.80182 1 0.823643 1.94731 0.785352 3.1566C0.785352 3.15679 0.785352 3.15699 0.785352 3.15718C0.785157 3.16128 0.78418 3.165 0.78418 3.1689V9.7098C0.78418 9.92548 0.959224 10.1005 1.1749 10.1005C1.39058 10.1005 1.56563 9.92548 1.56563 9.7098V4.91251C1.98136 5.28623 2.52915 5.51578 3.13106 5.51578H13.5634C13.6489 5.51578 13.7324 5.52457 13.8142 5.53786C13.8642 5.56111 13.9195 5.57498 13.9783 5.57498C13.9799 5.57498 13.9812 5.57459 13.9828 5.57459C14.6425 5.75862 15.1286 6.36346 15.1286 7.08121V7.461H12.2476C11.6609 7.461 11.1839 7.93827 11.1839 8.52474V10.3037C11.1839 10.8904 11.6609 11.3676 12.2476 11.3676H15.1395C15.1329 11.396 15.1288 11.4253 15.1288 11.4558V12.6531C15.1288 13.5162 14.4265 14.2186 13.5634 14.2186H6.21543C5.99975 14.2186 5.8247 14.3936 5.8247 14.6093C5.8247 14.825 5.99975 15 6.21543 15H13.5634C14.8574 15 15.9102 13.9472 15.9102 12.6531V11.4558C15.9102 11.419 15.9036 11.3842 15.894 11.3505C16.3928 11.2625 16.7732 10.8273 16.7732 10.3037V8.52474C16.7732 8.00703 16.401 7.57489 15.9102 7.48073ZM3.13106 4.73434C2.27244 4.73434 1.57344 4.03924 1.56641 3.18219C1.56641 3.18199 1.56641 3.1818 1.56641 3.18141C1.59122 2.39625 2.22634 1.78145 3.01228 1.78145H12.1409C12.9386 1.78145 13.5876 2.43044 13.5876 3.22829V4.7357C13.5794 4.7357 13.5716 4.73453 13.5634 4.73453L3.13106 4.73434ZM15.9917 10.3039C15.9917 10.4596 15.8651 10.5864 15.7094 10.5864H12.2476C12.0919 10.5864 11.9653 10.4598 11.9653 10.3039V8.52494C11.9653 8.36923 12.0919 8.24264 12.2476 8.24264H15.7094C15.8651 8.24264 15.9917 8.36923 15.9917 8.52494V10.3039Z" fill="#08566F" stroke="#08566F" stroke-width="0.2"/>
</svg>
