<svg width="16" height="16" viewBox="0 0 16 16" fill="none" xmlns="http://www.w3.org/2000/svg">
<path d="M15.5558 8.44482H11.1904C10.4709 7.77504 9.61103 7.27416 8.67343 6.97868C9.36826 6.54334 9.90257 5.89378 10.1957 5.12807C10.4888 4.36236 10.5249 3.52208 10.2984 2.73409C10.0719 1.9461 9.59513 1.25318 8.94013 0.759966C8.28512 0.266747 7.48742 0 6.66746 0C5.8475 0 5.0498 0.266747 4.3948 0.759966C3.73979 1.25318 3.26305 1.9461 3.03655 2.73409C2.81005 3.52208 2.84608 4.36236 3.13922 5.12807C3.43235 5.89378 3.96667 6.54334 4.66149 6.97868C3.31122 7.40773 2.13215 8.25455 1.29434 9.397C0.456529 10.5394 0.00329058 11.9185 0 13.3352V15.5559C0 15.6737 0.0467973 15.7866 0.130097 15.8699C0.213397 15.9532 0.326376 16 0.444179 16H15.5558C15.6736 16 15.7866 15.9532 15.8699 15.8699C15.9532 15.7866 16 15.6737 16 15.5559V8.86986C15.9951 8.75541 15.9461 8.64729 15.8633 8.56808C15.7806 8.48888 15.6704 8.44471 15.5558 8.44482ZM12.0024 9.3331H12.4466V11.1097H10.6651V9.3331H12.0024ZM3.77791 3.77895C3.77791 3.2075 3.94738 2.64888 4.26489 2.17373C4.5824 1.69859 5.03368 1.32826 5.56168 1.10958C6.08968 0.890891 6.67067 0.833673 7.23119 0.945158C7.7917 1.05664 8.30657 1.33182 8.71068 1.7359C9.11479 2.13998 9.39 2.6548 9.50149 3.21527C9.61299 3.77574 9.55576 4.35669 9.33706 4.88464C9.11836 5.41259 8.748 5.86384 8.27281 6.18132C7.79763 6.4988 7.23896 6.66825 6.66746 6.66825C5.90149 6.66699 5.16726 6.36218 4.62564 5.8206C4.08401 5.27903 3.77917 4.54485 3.77791 3.77895ZM0.888358 13.3304C0.889539 12.2981 1.16722 11.2851 1.69254 10.3965C2.21785 9.50785 2.97162 8.77617 3.87549 8.27748C4.77935 7.77879 5.80031 7.53129 6.83222 7.56072C7.86413 7.59015 8.86932 7.89543 9.74328 8.44482H7.55582C7.43802 8.44482 7.32504 8.49161 7.24174 8.57491C7.15844 8.6582 7.11164 8.77117 7.11164 8.88896V15.0974H0.902687L0.888358 13.3304ZM15.1116 15.1069H8V9.3331H9.77672V11.5538C9.77671 11.672 9.82335 11.7855 9.90652 11.8696C9.98969 11.9536 10.1027 12.0015 10.2209 12.0027H12.8907C12.9963 12.0013 13.0979 11.9624 13.1773 11.8929C13.225 11.8499 13.2636 11.7977 13.2907 11.7394C13.3178 11.6812 13.3328 11.618 13.3349 11.5538V9.3331H15.1116V15.1069Z" fill="#733A06"/>
</svg>
