<?xml version="1.0" encoding="UTF-8" standalone="no"?>
<svg
   xmlns:dc="http://purl.org/dc/elements/1.1/"
   xmlns:cc="http://creativecommons.org/ns#"
   xmlns:rdf="http://www.w3.org/1999/02/22-rdf-syntax-ns#"
   xmlns:svg="http://www.w3.org/2000/svg"
   xmlns="http://www.w3.org/2000/svg"
   xmlns:sodipodi="http://sodipodi.sourceforge.net/DTD/sodipodi-0.dtd"
   xmlns:inkscape="http://www.inkscape.org/namespaces/inkscape"
   width="17"
   height="16"
   viewBox="0 0 17 16"
   fill="none"
   version="1.1"
   id="svg10"
   sodipodi:docname="status__R.svg"
   inkscape:version="0.92.3 (2405546, 2018-03-11)">
  <metadata
     id="metadata16">
    <rdf:RDF>
      <cc:Work
         rdf:about="">
        <dc:format>image/svg+xml</dc:format>
        <dc:type
           rdf:resource="http://purl.org/dc/dcmitype/StillImage" />
        <dc:title></dc:title>
      </cc:Work>
    </rdf:RDF>
  </metadata>
  <defs
     id="defs14" />
  <sodipodi:namedview
     pagecolor="#ffffff"
     bordercolor="#666666"
     borderopacity="1"
     objecttolerance="10"
     gridtolerance="10"
     guidetolerance="10"
     inkscape:pageopacity="0"
     inkscape:pageshadow="2"
     inkscape:window-width="1920"
     inkscape:window-height="1025"
     id="namedview12"
     showgrid="false"
     inkscape:zoom="14.75"
     inkscape:cx="-0.31355932"
     inkscape:cy="8"
     inkscape:window-x="0"
     inkscape:window-y="31"
     inkscape:window-maximized="1"
     inkscape:current-layer="svg10" />
  <path
     style="color:#000000;font-style:normal;font-variant:normal;font-weight:normal;font-stretch:normal;font-size:medium;line-height:normal;font-family:sans-serif;font-variant-ligatures:normal;font-variant-position:normal;font-variant-caps:normal;font-variant-numeric:normal;font-variant-alternates:normal;font-feature-settings:normal;text-indent:0;text-align:start;text-decoration:none;text-decoration-line:none;text-decoration-style:solid;text-decoration-color:#000000;letter-spacing:normal;word-spacing:normal;text-transform:none;writing-mode:lr-tb;direction:ltr;text-orientation:mixed;dominant-baseline:auto;baseline-shift:baseline;text-anchor:start;white-space:normal;shape-padding:0;clip-rule:nonzero;display:inline;overflow:visible;visibility:visible;opacity:1;isolation:auto;mix-blend-mode:normal;color-interpolation:sRGB;color-interpolation-filters:linearRGB;solid-color:#000000;solid-opacity:1;vector-effect:none;fill:#261063;fill-opacity:1;fill-rule:nonzero;stroke:none;stroke-width:1;stroke-linecap:round;stroke-linejoin:round;stroke-miterlimit:4;stroke-dasharray:none;stroke-dashoffset:0;stroke-opacity:1;color-rendering:auto;image-rendering:auto;shape-rendering:auto;text-rendering:auto;enable-background:accumulate"
     d="M 7.1171875 0.83398438 A 0.5005957 0.5005957 0 0 0 7.1660156 1.8339844 L 9.8339844 1.8339844 A 0.50005 0.50005 0 1 0 9.8339844 0.83398438 L 7.1660156 0.83398438 A 0.50005 0.50005 0 0 0 7.1171875 0.83398438 z M 8.5 3.5 C 7.0728389 3.489768 5.6913307 4.0034813 4.6171875 4.9433594 C 3.5420654 5.8840939 2.8504026 7.1861219 2.671875 8.6035156 A 0.50005 0.50005 0 1 0 3.6621094 8.7285156 C 3.8100618 7.5538694 4.3843927 6.4749379 5.2753906 5.6953125 C 6.1663864 4.9156889 7.312201 4.490719 8.4960938 4.5 A 0.50005 0.50005 0 0 0 8.5 4.5 C 9.2818291 4.5008338 10.052116 4.6909032 10.744141 5.0546875 C 11.43625 5.4184688 12.028667 5.9443281 12.472656 6.5878906 C 12.916633 7.2314252 13.198531 7.9738442 13.292969 8.75 C 13.387319 9.5261591 13.292487 10.313661 13.015625 11.044922 C 12.738855 11.776087 12.287836 12.428258 11.703125 12.947266 C 11.118506 13.466272 10.417023 13.837256 9.6582031 14.025391 C 8.8993717 14.213617 8.1051822 14.215001 7.3457031 14.029297 C 6.5868456 13.843754 5.8849629 13.475504 5.2988281 12.958984 L 5.296875 12.958984 L 4.03125 11.832031 L 6.5 11.832031 A 0.50005 0.50005 0 1 0 6.5 10.832031 L 3.1660156 10.832031 A 0.50005 0.50005 0 0 0 2.6660156 11.332031 L 2.6660156 14.666016 A 0.50005 0.50005 0 1 0 3.6660156 14.666016 L 3.6660156 12.845703 L 4.6347656 13.707031 A 0.50005 0.50005 0 0 0 4.6367188 13.708984 C 5.3443825 14.333006 6.1928013 14.775888 7.109375 15 C 8.0259159 15.224101 8.9825889 15.223262 9.8984375 14.996094 C 10.814278 14.769029 11.661606 14.321707 12.367188 13.695312 C 13.072876 13.068921 13.615188 12.280872 13.949219 11.398438 C 14.283356 10.515899 14.399009 9.5655272 14.285156 8.6289062 C 14.171194 7.6922761 13.832699 6.7981498 13.296875 6.0214844 C 12.761064 5.2448269 12.044275 4.6089606 11.208984 4.1699219 C 10.374944 3.7314828 9.4461361 3.501626 8.5039062 3.5 L 8.5 3.5 z M 8.4921875 6.1601562 A 0.50005 0.50005 0 0 0 8 6.6660156 L 8 9.3339844 A 0.50005 0.50005 0 1 0 9 9.3339844 L 9 6.6660156 A 0.50005 0.50005 0 0 0 8.4921875 6.1601562 z "
     id="path2" />
</svg>
