<?xml version="1.0" encoding="UTF-8" standalone="no"?>
<svg
   xmlns:dc="http://purl.org/dc/elements/1.1/"
   xmlns:cc="http://creativecommons.org/ns#"
   xmlns:rdf="http://www.w3.org/1999/02/22-rdf-syntax-ns#"
   xmlns:svg="http://www.w3.org/2000/svg"
   xmlns="http://www.w3.org/2000/svg"
   xmlns:sodipodi="http://sodipodi.sourceforge.net/DTD/sodipodi-0.dtd"
   xmlns:inkscape="http://www.inkscape.org/namespaces/inkscape"
   width="17"
   height="16"
   viewBox="0 0 17 16"
   fill="none"
   version="1.1"
   id="svg8"
   sodipodi:docname="status__CS.svg"
   inkscape:version="0.92.3 (2405546, 2018-03-11)">
  <metadata
     id="metadata14">
    <rdf:RDF>
      <cc:Work
         rdf:about="">
        <dc:format>image/svg+xml</dc:format>
        <dc:type
           rdf:resource="http://purl.org/dc/dcmitype/StillImage" />
        <dc:title></dc:title>
      </cc:Work>
    </rdf:RDF>
  </metadata>
  <defs
     id="defs12" />
  <sodipodi:namedview
     pagecolor="#ffffff"
     bordercolor="#666666"
     borderopacity="1"
     objecttolerance="10"
     gridtolerance="10"
     guidetolerance="10"
     inkscape:pageopacity="0"
     inkscape:pageshadow="2"
     inkscape:window-width="1920"
     inkscape:window-height="1025"
     id="namedview10"
     showgrid="false"
     inkscape:zoom="14.75"
     inkscape:cx="-0.31355932"
     inkscape:cy="8"
     inkscape:window-x="0"
     inkscape:window-y="31"
     inkscape:window-maximized="1"
     inkscape:current-layer="svg8" />
  <path
     style="color:#000000;font-style:normal;font-variant:normal;font-weight:normal;font-stretch:normal;font-size:medium;line-height:normal;font-family:sans-serif;font-variant-ligatures:normal;font-variant-position:normal;font-variant-caps:normal;font-variant-numeric:normal;font-variant-alternates:normal;font-feature-settings:normal;text-indent:0;text-align:start;text-decoration:none;text-decoration-line:none;text-decoration-style:solid;text-decoration-color:#000000;letter-spacing:normal;word-spacing:normal;text-transform:none;writing-mode:lr-tb;direction:ltr;text-orientation:mixed;dominant-baseline:auto;baseline-shift:baseline;text-anchor:start;white-space:normal;shape-padding:0;clip-rule:nonzero;display:inline;overflow:visible;visibility:visible;opacity:1;isolation:auto;mix-blend-mode:normal;color-interpolation:sRGB;color-interpolation-filters:linearRGB;solid-color:#000000;solid-opacity:1;vector-effect:none;fill:#000000;fill-opacity:1;fill-rule:nonzero;stroke:none;stroke-width:1;stroke-linecap:round;stroke-linejoin:round;stroke-miterlimit:4;stroke-dasharray:none;stroke-dashoffset:0;stroke-opacity:1;color-rendering:auto;image-rendering:auto;shape-rendering:auto;text-rendering:auto;enable-background:accumulate"
     d="M 5.1660156 2.8339844 C 4.1599571 2.8339844 3.3339844 3.6599571 3.3339844 4.6660156 L 3.3339844 12.167969 L 1.8339844 12.167969 A 0.50005 0.50005 0 0 0 1.7832031 12.167969 A 0.50064427 0.50064427 0 0 0 1.8339844 13.167969 L 15.166016 13.167969 A 0.50005 0.50005 0 1 0 15.166016 12.167969 L 13.666016 12.167969 L 13.666016 4.6660156 C 13.666016 4.1800502 13.472697 3.7128627 13.128906 3.3691406 C 12.78522 3.0253858 12.31805 2.8339844 11.832031 2.8339844 L 5.1660156 2.8339844 z M 5.1660156 3.8339844 L 11.832031 3.8339844 C 12.053212 3.8339844 12.265561 3.9198264 12.421875 4.0761719 C 12.578284 4.2325498 12.666016 4.4447411 12.666016 4.6660156 L 12.666016 12.166016 L 4.3339844 12.166016 L 4.3339844 4.6660156 C 4.3339844 4.2054141 4.7054141 3.8339844 5.1660156 3.8339844 z M 10.490234 6.1621094 A 0.50005 0.50005 0 0 0 10.146484 6.3125 L 7.8339844 8.6269531 L 6.8535156 7.6464844 A 0.50005 0.50005 0 1 0 6.1464844 8.3535156 L 7.4804688 9.6875 A 0.50005 0.50005 0 0 0 8.1875 9.6875 L 10.853516 7.0214844 A 0.50005 0.50005 0 0 0 10.490234 6.1621094 z "
     id="path2" />
</svg>
