<?xml version="1.0" encoding="UTF-8" standalone="no"?>
<svg
   xmlns:dc="http://purl.org/dc/elements/1.1/"
   xmlns:cc="http://creativecommons.org/ns#"
   xmlns:rdf="http://www.w3.org/1999/02/22-rdf-syntax-ns#"
   xmlns:svg="http://www.w3.org/2000/svg"
   xmlns="http://www.w3.org/2000/svg"
   xmlns:sodipodi="http://sodipodi.sourceforge.net/DTD/sodipodi-0.dtd"
   xmlns:inkscape="http://www.inkscape.org/namespaces/inkscape"
   width="15"
   height="12"
   viewBox="0 0 15 12"
   fill="none"
   version="1.1"
   id="svg8"
   sodipodi:docname="status__BLUE.svg"
   inkscape:version="0.92.3 (2405546, 2018-03-11)">
  <metadata
     id="metadata14">
    <rdf:RDF>
      <cc:Work
         rdf:about="">
        <dc:format>image/svg+xml</dc:format>
        <dc:type
           rdf:resource="http://purl.org/dc/dcmitype/StillImage" />
        <dc:title></dc:title>
      </cc:Work>
    </rdf:RDF>
  </metadata>
  <defs
     id="defs12" />
  <sodipodi:namedview
     pagecolor="#ffffff"
     bordercolor="#666666"
     borderopacity="1"
     objecttolerance="10"
     gridtolerance="10"
     guidetolerance="10"
     inkscape:pageopacity="0"
     inkscape:pageshadow="2"
     inkscape:window-width="1920"
     inkscape:window-height="1025"
     id="namedview10"
     showgrid="false"
     inkscape:zoom="19.666667"
     inkscape:cx="0.88983051"
     inkscape:cy="6"
     inkscape:window-x="0"
     inkscape:window-y="31"
     inkscape:window-maximized="1"
     inkscape:current-layer="svg8" />
  <path
     style="color:#000000;font-style:normal;font-variant:normal;font-weight:normal;font-stretch:normal;font-size:medium;line-height:normal;font-family:sans-serif;font-variant-ligatures:normal;font-variant-position:normal;font-variant-caps:normal;font-variant-numeric:normal;font-variant-alternates:normal;font-feature-settings:normal;text-indent:0;text-align:start;text-decoration:none;text-decoration-line:none;text-decoration-style:solid;text-decoration-color:#000000;letter-spacing:normal;word-spacing:normal;text-transform:none;writing-mode:lr-tb;direction:ltr;text-orientation:mixed;dominant-baseline:auto;baseline-shift:baseline;text-anchor:start;white-space:normal;shape-padding:0;clip-rule:nonzero;display:inline;overflow:visible;visibility:visible;opacity:1;isolation:auto;mix-blend-mode:normal;color-interpolation:sRGB;color-interpolation-filters:linearRGB;solid-color:#000000;solid-opacity:1;vector-effect:none;fill:#1b93c8;fill-opacity:1;fill-rule:nonzero;stroke:none;stroke-width:1;stroke-linecap:round;stroke-linejoin:round;stroke-miterlimit:4;stroke-dasharray:none;stroke-dashoffset:0;stroke-opacity:1;color-rendering:auto;image-rendering:auto;shape-rendering:auto;text-rendering:auto;enable-background:accumulate"
     d="M 2 0 C 0.97038873 0 0.125 0.84538873 0.125 1.875 L 0.125 2.5625 C 0.125 3.4180532 0.71190455 4.1375664 1.5 4.359375 L 1.5 10.125 C 1.5 10.62211 1.6973856 11.099675 2.0488281 11.451172 C 2.4003027 11.802565 2.8778815 12 3.375 12 L 11.625 12 C 12.122138 12 12.599693 11.802514 12.951172 11.451172 C 13.302514 11.099693 13.5 10.622138 13.5 10.125 L 13.5 4.359375 C 14.288098 4.1375655 14.875 3.4180496 14.875 2.5625 L 14.875 1.875 C 14.875 0.84539312 14.029618 0 13 0 L 2 0 z M 2 1 L 13 1 C 13.489182 1 13.875 1.3858269 13.875 1.875 L 13.875 2.5625 C 13.875 3.0405797 13.504615 3.41468 13.03125 3.4316406 A 0.50005 0.50005 0 0 0 12.917969 3.4375 L 2.0917969 3.4375 A 0.50005 0.50005 0 0 0 1.9921875 3.4296875 A 0.50005 0.50005 0 0 0 1.96875 3.4316406 C 1.4953972 3.4146798 1.125 3.0405754 1.125 2.5625 L 1.125 1.875 C 1.125 1.3858313 1.5108313 1 2 1 z M 2.5 4.4375 L 12.5 4.4375 L 12.5 10.125 C 12.5 10.357262 12.4084 10.579819 12.244141 10.744141 C 12.079819 10.908398 11.857262 11 11.625 11 L 3.375 11 C 3.1427785 11 2.9201048 10.908348 2.7558594 10.744141 C 2.5915819 10.579838 2.5 10.35729 2.5 10.125 L 2.5 4.4375 z M 6.125 6.1875 A 0.50005 0.50005 0 1 0 6.125 7.1875 L 8.875 7.1875 A 0.50005 0.50005 0 1 0 8.875 6.1875 L 6.125 6.1875 z "
     id="path2" />
</svg>
