<?xml version="1.0" encoding="UTF-8" standalone="no"?>
<svg
   xmlns:dc="http://purl.org/dc/elements/1.1/"
   xmlns:cc="http://creativecommons.org/ns#"
   xmlns:rdf="http://www.w3.org/1999/02/22-rdf-syntax-ns#"
   xmlns:svg="http://www.w3.org/2000/svg"
   xmlns="http://www.w3.org/2000/svg"
   xmlns:sodipodi="http://sodipodi.sourceforge.net/DTD/sodipodi-0.dtd"
   xmlns:inkscape="http://www.inkscape.org/namespaces/inkscape"
   width="16"
   height="16"
   viewBox="0 0 16 16"
   fill="none"
   version="1.1"
   id="svg8"
   sodipodi:docname="status__CF.svg"
   inkscape:version="0.92.3 (2405546, 2018-03-11)">
  <metadata
     id="metadata14">
    <rdf:RDF>
      <cc:Work
         rdf:about="">
        <dc:format>image/svg+xml</dc:format>
        <dc:type
           rdf:resource="http://purl.org/dc/dcmitype/StillImage" />
        <dc:title></dc:title>
      </cc:Work>
    </rdf:RDF>
  </metadata>
  <defs
     id="defs12" />
  <sodipodi:namedview
     pagecolor="#ffffff"
     bordercolor="#666666"
     borderopacity="1"
     objecttolerance="10"
     gridtolerance="10"
     guidetolerance="10"
     inkscape:pageopacity="0"
     inkscape:pageshadow="2"
     inkscape:window-width="1920"
     inkscape:window-height="1025"
     id="namedview10"
     showgrid="false"
     inkscape:zoom="20.85965"
     inkscape:cx="-7.9860663"
     inkscape:cy="12.470035"
     inkscape:window-x="0"
     inkscape:window-y="31"
     inkscape:window-maximized="1"
     inkscape:current-layer="svg8" />
  <path
     style="color:#000000;font-style:normal;font-variant:normal;font-weight:normal;font-stretch:normal;font-size:medium;line-height:normal;font-family:sans-serif;font-variant-ligatures:normal;font-variant-position:normal;font-variant-caps:normal;font-variant-numeric:normal;font-variant-alternates:normal;font-feature-settings:normal;text-indent:0;text-align:start;text-decoration:none;text-decoration-line:none;text-decoration-style:solid;text-decoration-color:#000000;letter-spacing:normal;word-spacing:normal;text-transform:none;writing-mode:lr-tb;direction:ltr;text-orientation:mixed;dominant-baseline:auto;baseline-shift:baseline;text-anchor:start;white-space:normal;shape-padding:0;clip-rule:nonzero;display:inline;overflow:visible;visibility:visible;opacity:1;isolation:auto;mix-blend-mode:normal;color-interpolation:sRGB;color-interpolation-filters:linearRGB;solid-color:#000000;solid-opacity:1;vector-effect:none;fill:#866b0d;fill-opacity:1;fill-rule:nonzero;stroke:none;stroke-width:1;stroke-linecap:round;stroke-linejoin:round;stroke-miterlimit:4;stroke-dasharray:none;stroke-dashoffset:0;stroke-opacity:1;color-rendering:auto;image-rendering:auto;shape-rendering:auto;text-rendering:auto;enable-background:accumulate"
     d="M 6 0.83398438 C 5.3615963 0.83398437 4.8339844 1.3615963 4.8339844 2 L 4.8339844 2.1660156 L 4 2.1660156 C 3.5139529 2.1660156 3.0468 2.3594362 2.703125 2.703125 C 2.3594362 3.0468 2.1660156 3.5139529 2.1660156 4 L 2.1660156 13.333984 C 2.1660156 13.820013 2.3595047 14.28717 2.703125 14.630859 C 3.0467867 14.974466 3.513934 15.167969 4 15.167969 L 12 15.167969 C 12.486047 15.167969 12.953207 14.974527 13.296875 14.630859 C 13.640559 14.287176 13.833984 13.820032 13.833984 13.333984 L 13.833984 4 C 13.833984 3.513934 13.640627 3.0467945 13.296875 2.703125 C 12.953194 2.3593749 12.486028 2.1660156 12 2.1660156 L 11.166016 2.1660156 L 11.166016 2 C 11.166016 1.3616596 10.638414 0.83398438 10 0.83398438 L 6 0.83398438 z M 6 1.8339844 L 10 1.8339844 C 10.09805 1.8339844 10.166016 1.9019604 10.166016 2 L 10.166016 2.5976562 A 0.50005 0.50005 0 0 0 10.166016 2.734375 L 10.166016 3.3339844 C 10.166016 3.432024 10.098046 3.5 10 3.5 L 6 3.5 C 5.9020237 3.5 5.8339844 3.4319606 5.8339844 3.3339844 L 5.8339844 2.7460938 A 0.50005 0.50005 0 0 0 5.8339844 2.5839844 L 5.8339844 2 C 5.8339844 1.9020237 5.9020237 1.8339844 6 1.8339844 z M 4 3.1660156 L 4.8339844 3.1660156 L 4.8339844 3.3339844 C 4.8339844 3.9723881 5.3615963 4.5 6 4.5 L 10 4.5 C 10.638414 4.5 11.166016 3.9723248 11.166016 3.3339844 L 11.166016 3.1660156 L 12 3.1660156 C 12.221172 3.1660156 12.433525 3.2538067 12.589844 3.4101562 C 12.746292 3.5665668 12.833984 3.778806 12.833984 4 L 12.833984 13.333984 C 12.833984 13.555137 12.746364 13.767312 12.589844 13.923828 C 12.433512 14.08016 12.221153 14.167969 12 14.167969 L 4 14.167969 C 3.778806 14.167969 3.5665745 14.080219 3.4101562 13.923828 C 3.2536767 13.767317 3.1660156 13.555156 3.1660156 13.333984 L 3.1660156 4 C 3.1660156 3.7787871 3.2537446 3.5665612 3.4101562 3.4101562 C 3.5665612 3.2537451 3.7787871 3.1660156 4 3.1660156 z M 9.9902344 7.4960938 A 0.50005 0.50005 0 0 0 9.6464844 7.6464844 L 7.3339844 9.9589844 L 6.3535156 8.9804688 A 0.50005 0.50005 0 1 0 5.6464844 9.6875 L 6.9804688 11.019531 A 0.50005 0.50005 0 0 0 7.6875 11.019531 L 10.353516 8.3535156 A 0.50005 0.50005 0 0 0 9.9902344 7.4960938 z "
     id="path2" />
</svg>
