<?xml version="1.0" encoding="UTF-8" standalone="no"?>
<svg
   xmlns:dc="http://purl.org/dc/elements/1.1/"
   xmlns:cc="http://creativecommons.org/ns#"
   xmlns:rdf="http://www.w3.org/1999/02/22-rdf-syntax-ns#"
   xmlns:svg="http://www.w3.org/2000/svg"
   xmlns="http://www.w3.org/2000/svg"
   xmlns:sodipodi="http://sodipodi.sourceforge.net/DTD/sodipodi-0.dtd"
   xmlns:inkscape="http://www.inkscape.org/namespaces/inkscape"
   width="16"
   height="16"
   viewBox="0 0 16 16"
   fill="none"
   version="1.1"
   id="svg8"
   sodipodi:docname="status__YELL.svg"
   inkscape:version="0.92.3 (2405546, 2018-03-11)">
  <metadata
     id="metadata14">
    <rdf:RDF>
      <cc:Work
         rdf:about="">
        <dc:format>image/svg+xml</dc:format>
        <dc:type
           rdf:resource="http://purl.org/dc/dcmitype/StillImage" />
        <dc:title></dc:title>
      </cc:Work>
    </rdf:RDF>
  </metadata>
  <defs
     id="defs12" />
  <sodipodi:namedview
     pagecolor="#ffffff"
     bordercolor="#666666"
     borderopacity="1"
     objecttolerance="10"
     gridtolerance="10"
     guidetolerance="10"
     inkscape:pageopacity="0"
     inkscape:pageshadow="2"
     inkscape:window-width="1920"
     inkscape:window-height="1025"
     id="namedview10"
     showgrid="false"
     inkscape:zoom="14.75"
     inkscape:cx="-0.81355932"
     inkscape:cy="8"
     inkscape:window-x="0"
     inkscape:window-y="31"
     inkscape:window-maximized="1"
     inkscape:current-layer="svg8" />
  <path
     style="color:#000000;font-style:normal;font-variant:normal;font-weight:normal;font-stretch:normal;font-size:medium;line-height:normal;font-family:sans-serif;font-variant-ligatures:normal;font-variant-position:normal;font-variant-caps:normal;font-variant-numeric:normal;font-variant-alternates:normal;font-feature-settings:normal;text-indent:0;text-align:start;text-decoration:none;text-decoration-line:none;text-decoration-style:solid;text-decoration-color:#000000;letter-spacing:normal;word-spacing:normal;text-transform:none;writing-mode:lr-tb;direction:ltr;text-orientation:mixed;dominant-baseline:auto;baseline-shift:baseline;text-anchor:start;white-space:normal;shape-padding:0;clip-rule:nonzero;display:inline;overflow:visible;visibility:visible;opacity:1;isolation:auto;mix-blend-mode:normal;color-interpolation:sRGB;color-interpolation-filters:linearRGB;solid-color:#000000;solid-opacity:1;vector-effect:none;fill:#ad8701;fill-opacity:1;fill-rule:nonzero;stroke:none;stroke-width:1;stroke-linecap:round;stroke-linejoin:round;stroke-miterlimit:4;stroke-dasharray:none;stroke-dashoffset:0;stroke-opacity:1;color-rendering:auto;image-rendering:auto;shape-rendering:auto;text-rendering:auto;enable-background:accumulate"
     d="M 9.328125 0.82421875 A 0.50005 0.50005 0 0 0 9.2539062 0.83203125 L 3.9980469 0.83203125 C 3.5119998 0.83203125 3.0448477 1.0254648 2.7011719 1.3691406 C 2.3574831 1.7128156 2.1640625 2.1799748 2.1640625 2.6660156 L 2.1640625 13.332031 C 2.1640625 13.818122 2.3574689 14.285272 2.7011719 14.628906 C 3.0448421 14.972645 3.5119809 15.166016 3.9980469 15.166016 L 11.998047 15.166016 C 12.484094 15.166016 12.949293 14.97272 13.292969 14.628906 C 13.636782 14.28523 13.830078 13.818047 13.830078 13.332031 L 13.830078 5.4394531 A 0.50005 0.50005 0 0 0 13.830078 5.21875 L 13.830078 4.9980469 A 0.50005 0.50005 0 0 0 13.683594 4.6445312 L 10.017578 0.97851562 A 0.50005 0.50005 0 0 0 9.6640625 0.83203125 L 9.4277344 0.83203125 A 0.50005 0.50005 0 0 0 9.328125 0.82421875 z M 3.9980469 1.8320312 L 8.8359375 1.8320312 L 8.8359375 5.3320312 A 0.50005 0.50005 0 0 0 9.3359375 5.8320312 L 12.830078 5.8320312 L 12.830078 13.332031 C 12.830078 13.553416 12.742328 13.765551 12.585938 13.921875 C 12.429612 14.078262 12.2192 14.166016 11.998047 14.166016 L 3.9980469 14.166016 C 3.7768528 14.166016 3.5646329 14.078336 3.4082031 13.921875 C 3.2518061 13.765509 3.1640625 13.55334 3.1640625 13.332031 L 3.1640625 2.6660156 C 3.1640625 2.4448165 3.2517915 2.2325769 3.4082031 2.0761719 C 3.5646273 1.9197477 3.776834 1.8320313 3.9980469 1.8320312 z M 9.8359375 2.2109375 L 12.457031 4.8320312 L 9.8359375 4.8320312 L 9.8359375 2.2109375 z M 9.9902344 8.1640625 A 0.50005 0.50005 0 0 0 9.6464844 8.3144531 L 7.3339844 10.626953 L 6.3535156 9.6484375 A 0.50005 0.50005 0 1 0 5.6464844 10.355469 L 6.9804688 11.6875 A 0.50005 0.50005 0 0 0 7.6875 11.6875 L 10.353516 9.0214844 A 0.50005 0.50005 0 0 0 9.9902344 8.1640625 z "
     id="path2" />
</svg>
