<?xml version="1.0" encoding="UTF-8" standalone="no"?>
<svg
   xmlns:dc="http://purl.org/dc/elements/1.1/"
   xmlns:cc="http://creativecommons.org/ns#"
   xmlns:rdf="http://www.w3.org/1999/02/22-rdf-syntax-ns#"
   xmlns:svg="http://www.w3.org/2000/svg"
   xmlns="http://www.w3.org/2000/svg"
   xmlns:sodipodi="http://sodipodi.sourceforge.net/DTD/sodipodi-0.dtd"
   xmlns:inkscape="http://www.inkscape.org/namespaces/inkscape"
   width="16"
   height="16"
   viewBox="0 0 16 16"
   fill="none"
   version="1.1"
   id="svg13"
   sodipodi:docname="status__SD.svg"
   inkscape:version="0.92.3 (2405546, 2018-03-11)">
  <metadata
     id="metadata17">
    <rdf:RDF>
      <cc:Work
         rdf:about="">
        <dc:format>image/svg+xml</dc:format>
        <dc:type
           rdf:resource="http://purl.org/dc/dcmitype/StillImage" />
        <dc:title></dc:title>
      </cc:Work>
    </rdf:RDF>
  </metadata>
  <sodipodi:namedview
     pagecolor="#ffffff"
     bordercolor="#666666"
     borderopacity="1"
     objecttolerance="10"
     gridtolerance="10"
     guidetolerance="10"
     inkscape:pageopacity="0"
     inkscape:pageshadow="2"
     inkscape:window-width="1920"
     inkscape:window-height="1025"
     id="namedview15"
     showgrid="false"
     inkscape:zoom="14.75"
     inkscape:cx="-0.81355932"
     inkscape:cy="8"
     inkscape:window-x="0"
     inkscape:window-y="31"
     inkscape:window-maximized="1"
     inkscape:current-layer="g6" />
  <g
     clip-path="url(#clip0_835_40463)"
     id="g6">
    <path
       style="color:#000000;font-style:normal;font-variant:normal;font-weight:normal;font-stretch:normal;font-size:medium;line-height:normal;font-family:sans-serif;font-variant-ligatures:normal;font-variant-position:normal;font-variant-caps:normal;font-variant-numeric:normal;font-variant-alternates:normal;font-feature-settings:normal;text-indent:0;text-align:start;text-decoration:none;text-decoration-line:none;text-decoration-style:solid;text-decoration-color:#000000;letter-spacing:normal;word-spacing:normal;text-transform:none;writing-mode:lr-tb;direction:ltr;text-orientation:mixed;dominant-baseline:auto;baseline-shift:baseline;text-anchor:start;white-space:normal;shape-padding:0;clip-rule:nonzero;display:inline;overflow:visible;visibility:visible;opacity:1;isolation:auto;mix-blend-mode:normal;color-interpolation:sRGB;color-interpolation-filters:linearRGB;solid-color:#000000;solid-opacity:1;vector-effect:none;fill:#000000;fill-opacity:1;fill-rule:nonzero;stroke:none;stroke-width:1;stroke-linecap:round;stroke-linejoin:round;stroke-miterlimit:4;stroke-dasharray:none;stroke-dashoffset:0;stroke-opacity:1;color-rendering:auto;image-rendering:auto;shape-rendering:auto;text-rendering:auto;enable-background:accumulate"
       d="M 7.5605469 0.84179688 C 7.1783669 0.86553211 6.7967644 0.92071793 6.4199219 1.0058594 C 4.9125525 1.3464356 3.5567931 2.1650933 2.5527344 3.3398438 C 1.5486768 4.5145928 0.94933585 5.9814205 0.84765625 7.5234375 C 0.7459766 9.0654553 1.1471704 10.600086 1.9882812 11.896484 C 2.8293876 13.192876 4.0660251 14.183207 5.515625 14.71875 C 6.9652155 15.254286 8.5492929 15.307293 10.03125 14.869141 C 11.513135 14.430892 12.815 13.52484 13.740234 12.287109 C 14.665542 11.049317 15.165156 9.5453725 15.166016 8 L 15.166016 7.3867188 A 0.50005 0.50005 0 1 0 14.166016 7.3867188 L 14.166016 8 C 14.165276 9.3298675 13.735746 10.622292 12.939453 11.6875 C 12.143288 12.752569 11.023342 13.533004 9.7480469 13.910156 C 8.4727639 14.287204 7.1107508 14.242114 5.8632812 13.78125 C 4.6158411 13.320393 3.5499856 12.467171 2.8261719 11.351562 C 2.1023627 10.235962 1.7582028 8.9168259 1.8457031 7.5898438 C 1.9332035 6.2628608 2.4484576 4.9992122 3.3125 3.9882812 C 4.1765413 2.9773517 5.3434543 2.2735524 6.640625 1.9804688 C 7.9377947 1.6873944 9.295039 1.8220268 10.509766 2.3632812 A 0.50013726 0.50013726 0 1 0 10.916016 1.4492188 C 10.210229 1.134736 9.4642653 0.9382897 8.7050781 0.86328125 C 8.3254846 0.82577703 7.9427269 0.81806164 7.5605469 0.84179688 z M 14.65625 2.1621094 A 0.50005 0.50005 0 0 0 14.3125 2.3144531 L 8 8.6328125 L 6.3535156 6.9863281 A 0.50005 0.50005 0 1 0 5.6464844 7.6933594 L 7.6464844 9.6933594 A 0.50005 0.50005 0 0 0 8.3535156 9.6933594 L 15.019531 3.0195312 A 0.50005 0.50005 0 0 0 14.65625 2.1621094 z "
       id="path2" />
  </g>
  <defs
     id="defs11">
    <clipPath
       id="clip0_835_40463">
      <rect
         width="16"
         height="16"
         fill="white"
         id="rect8" />
    </clipPath>
  </defs>
</svg>
