<?xml version="1.0" encoding="UTF-8" standalone="no"?>
<svg
   xmlns:dc="http://purl.org/dc/elements/1.1/"
   xmlns:cc="http://creativecommons.org/ns#"
   xmlns:rdf="http://www.w3.org/1999/02/22-rdf-syntax-ns#"
   xmlns:svg="http://www.w3.org/2000/svg"
   xmlns="http://www.w3.org/2000/svg"
   xmlns:sodipodi="http://sodipodi.sourceforge.net/DTD/sodipodi-0.dtd"
   xmlns:inkscape="http://www.inkscape.org/namespaces/inkscape"
   width="17"
   height="16"
   viewBox="0 0 17 16"
   fill="none"
   version="1.1"
   id="svg10"
   sodipodi:docname="status__OD.svg"
   inkscape:version="0.92.3 (2405546, 2018-03-11)">
  <metadata
     id="metadata16">
    <rdf:RDF>
      <cc:Work
         rdf:about="">
        <dc:format>image/svg+xml</dc:format>
        <dc:type
           rdf:resource="http://purl.org/dc/dcmitype/StillImage" />
        <dc:title></dc:title>
      </cc:Work>
    </rdf:RDF>
  </metadata>
  <defs
     id="defs14" />
  <sodipodi:namedview
     pagecolor="#ffffff"
     bordercolor="#666666"
     borderopacity="1"
     objecttolerance="10"
     gridtolerance="10"
     guidetolerance="10"
     inkscape:pageopacity="0"
     inkscape:pageshadow="2"
     inkscape:window-width="1920"
     inkscape:window-height="1025"
     id="namedview12"
     showgrid="false"
     inkscape:zoom="41.7193"
     inkscape:cx="8.5667222"
     inkscape:cy="5.7077164"
     inkscape:window-x="0"
     inkscape:window-y="31"
     inkscape:window-maximized="1"
     inkscape:current-layer="svg10" />
  <path
     style="color:#000000;font-style:normal;font-variant:normal;font-weight:normal;font-stretch:normal;font-size:medium;line-height:normal;font-family:sans-serif;font-variant-ligatures:normal;font-variant-position:normal;font-variant-caps:normal;font-variant-numeric:normal;font-variant-alternates:normal;font-feature-settings:normal;text-indent:0;text-align:start;text-decoration:none;text-decoration-line:none;text-decoration-style:solid;text-decoration-color:#000000;letter-spacing:normal;word-spacing:normal;text-transform:none;writing-mode:lr-tb;direction:ltr;text-orientation:mixed;dominant-baseline:auto;baseline-shift:baseline;text-anchor:start;white-space:normal;shape-padding:0;clip-rule:nonzero;display:inline;overflow:visible;visibility:visible;opacity:1;isolation:auto;mix-blend-mode:normal;color-interpolation:sRGB;color-interpolation-filters:linearRGB;solid-color:#000000;solid-opacity:1;vector-effect:none;fill:#000000;fill-opacity:1;fill-rule:nonzero;stroke:none;stroke-width:1;stroke-linecap:round;stroke-linejoin:round;stroke-miterlimit:4;stroke-dasharray:none;stroke-dashoffset:0;stroke-opacity:1;color-rendering:auto;image-rendering:auto;shape-rendering:auto;text-rendering:auto;enable-background:accumulate"
     d="M 3.1660156 2.1660156 C 2.6799748 2.1660156 2.2128211 2.3594445 1.8691406 2.703125 C 1.5254472 3.0468047 1.3339844 3.5139623 1.3339844 4 L 1.3339844 4.5800781 A 0.50005 0.50005 0 0 0 1.3339844 4.7480469 L 1.3339844 12 C 1.3339844 13.006102 2.1599571 13.833984 3.1660156 13.833984 L 9.1660156 13.833984 A 0.50005 0.50005 0 1 0 9.1660156 12.833984 L 3.1660156 12.833984 C 2.7054141 12.833984 2.3339844 12.460698 2.3339844 12 L 2.3339844 5.578125 L 7.5449219 8.8886719 A 0.50005 0.50005 0 0 0 7.546875 8.890625 C 7.832236 9.06941 8.1632663 9.1640625 8.5 9.1640625 C 8.8367398 9.1640625 9.165814 9.0694065 9.4511719 8.890625 A 0.50005 0.50005 0 0 0 9.4550781 8.8886719 L 14.666016 5.578125 L 14.666016 8.6660156 A 0.50005 0.50005 0 1 0 15.666016 8.6660156 L 15.666016 4.6699219 L 15.666016 4 C 15.666016 3.5140283 15.472705 3.0468416 15.128906 2.703125 C 14.785225 2.3593749 14.31806 2.1660156 13.832031 2.1660156 L 3.1660156 2.1660156 z M 3.1660156 3.1660156 L 13.832031 3.1660156 C 14.053203 3.1660156 14.265556 3.2538067 14.421875 3.4101562 C 14.578276 3.5665197 14.666016 3.7787117 14.666016 4 L 14.666016 4.3925781 L 8.9199219 8.0429688 C 8.7936397 8.1220867 8.6490202 8.1640625 8.5 8.1640625 C 8.3524513 8.1640625 8.2074568 8.1225455 8.0820312 8.0449219 L 8.078125 8.0429688 L 2.3339844 4.3925781 L 2.3339844 4 C 2.3339844 3.7787777 2.4197654 3.5665565 2.5761719 3.4101562 C 2.7325914 3.2537368 2.9448165 3.1660156 3.1660156 3.1660156 z M 11.828125 10.828125 A 0.50005 0.50005 0 0 0 11.478516 11.6875 L 12.458984 12.666016 L 11.478516 13.646484 A 0.50063773 0.50063773 0 0 0 12.1875 14.353516 L 13.166016 13.375 L 14.146484 14.353516 A 0.50005 0.50005 0 1 0 14.853516 13.646484 L 13.875 12.666016 L 14.853516 11.6875 A 0.50005 0.50005 0 0 0 14.490234 10.828125 A 0.50005 0.50005 0 0 0 14.146484 10.978516 L 13.166016 11.958984 L 12.1875 10.978516 A 0.50005 0.50005 0 0 0 11.828125 10.828125 z "
     id="path2" />
</svg>
