<?xml version="1.0" encoding="UTF-8" standalone="no"?>
<svg
   xmlns:dc="http://purl.org/dc/elements/1.1/"
   xmlns:cc="http://creativecommons.org/ns#"
   xmlns:rdf="http://www.w3.org/1999/02/22-rdf-syntax-ns#"
   xmlns:svg="http://www.w3.org/2000/svg"
   xmlns="http://www.w3.org/2000/svg"
   xmlns:sodipodi="http://sodipodi.sourceforge.net/DTD/sodipodi-0.dtd"
   xmlns:inkscape="http://www.inkscape.org/namespaces/inkscape"
   width="17"
   height="16"
   viewBox="0 0 17 16"
   fill="none"
   version="1.1"
   id="svg8"
   sodipodi:docname="status__PE.svg"
   inkscape:version="0.92.3 (2405546, 2018-03-11)">
  <metadata
     id="metadata14">
    <rdf:RDF>
      <cc:Work
         rdf:about="">
        <dc:format>image/svg+xml</dc:format>
        <dc:type
           rdf:resource="http://purl.org/dc/dcmitype/StillImage" />
        <dc:title></dc:title>
      </cc:Work>
    </rdf:RDF>
  </metadata>
  <defs
     id="defs12" />
  <sodipodi:namedview
     pagecolor="#ffffff"
     bordercolor="#666666"
     borderopacity="1"
     objecttolerance="10"
     gridtolerance="10"
     guidetolerance="10"
     inkscape:pageopacity="0"
     inkscape:pageshadow="2"
     inkscape:window-width="1920"
     inkscape:window-height="1025"
     id="namedview10"
     showgrid="false"
     inkscape:zoom="14.75"
     inkscape:cx="-0.31355932"
     inkscape:cy="8"
     inkscape:window-x="0"
     inkscape:window-y="31"
     inkscape:window-maximized="1"
     inkscape:current-layer="svg8" />
  <path
     style="color:#000000;font-style:normal;font-variant:normal;font-weight:normal;font-stretch:normal;font-size:medium;line-height:normal;font-family:sans-serif;font-variant-ligatures:normal;font-variant-position:normal;font-variant-caps:normal;font-variant-numeric:normal;font-variant-alternates:normal;font-feature-settings:normal;text-indent:0;text-align:start;text-decoration:none;text-decoration-line:none;text-decoration-style:solid;text-decoration-color:#000000;letter-spacing:normal;word-spacing:normal;text-transform:none;writing-mode:lr-tb;direction:ltr;text-orientation:mixed;dominant-baseline:auto;baseline-shift:baseline;text-anchor:start;white-space:normal;shape-padding:0;clip-rule:nonzero;display:inline;overflow:visible;visibility:visible;opacity:1;isolation:auto;mix-blend-mode:normal;color-interpolation:sRGB;color-interpolation-filters:linearRGB;solid-color:#000000;solid-opacity:1;vector-effect:none;fill:#a9018e;fill-opacity:1;fill-rule:nonzero;stroke:none;stroke-width:1;stroke-linecap:round;stroke-linejoin:round;stroke-miterlimit:4;stroke-dasharray:none;stroke-dashoffset:0;stroke-opacity:1;color-rendering:auto;image-rendering:auto;shape-rendering:auto;text-rendering:auto;enable-background:accumulate"
     d="M 7.8339844 1.5 C 4.618245 1.5 2 4.118245 2 7.3339844 C 2 10.549769 4.6182461 13.166016 7.8339844 13.166016 C 9.2617334 13.166016 10.569094 12.647899 11.583984 11.792969 L 14.146484 14.353516 A 0.50005 0.50005 0 1 0 14.853516 13.646484 L 12.292969 11.083984 C 13.147899 10.069094 13.666016 8.7617334 13.666016 7.3339844 C 13.666016 4.1182461 11.049769 1.5 7.8339844 1.5 z M 7.8339844 2.5 C 10.50934 2.5 12.666016 4.6586826 12.666016 7.3339844 C 12.666016 10.009341 10.509341 12.166016 7.8339844 12.166016 C 5.1586826 12.166016 3 10.00934 3 7.3339844 C 3 4.6586838 5.1586838 2.5 7.8339844 2.5 z M 9.8222656 5.4960938 A 0.50005 0.50005 0 0 0 9.4785156 5.6464844 L 7.1660156 7.9589844 L 6.1875 6.9804688 A 0.50063759 0.50063759 0 1 0 5.4785156 7.6875 L 6.8125 9.0195312 A 0.50005 0.50005 0 0 0 7.5195312 9.0195312 L 10.1875 6.3535156 A 0.50005 0.50005 0 0 0 9.8222656 5.4960938 z "
     id="path2" />
</svg>
