<svg width="15" height="14" viewBox="0 0 15 14" fill="none" xmlns="http://www.w3.org/2000/svg">
<path d="M12.1944 0.5H2.80556C2.32686 0.500562 1.86794 0.69097 1.52946 1.02946C1.19097 1.36794 1.00056 1.82686 1 2.30556V11.6944C1.0005 12.1732 1.19089 12.6321 1.52939 12.9706C1.86789 13.3091 2.32685 13.4995 2.80556 13.5H7.86111C7.95688 13.5 8.04873 13.462 8.11646 13.3942C8.18418 13.3265 8.22222 13.2347 8.22222 13.1389C8.22222 13.0431 8.18418 12.9513 8.11646 12.8835C8.04873 12.8158 7.95688 12.7778 7.86111 12.7778H2.80556C2.51833 12.7775 2.24297 12.6632 2.03987 12.4601C1.83677 12.257 1.72254 11.9817 1.72222 11.6944V2.30556C1.72254 2.01833 1.83677 1.74297 2.03987 1.53987C2.24297 1.33677 2.51833 1.22254 2.80556 1.22222H5.33333V5.19444C5.33331 5.24187 5.34263 5.28884 5.36077 5.33267C5.3789 5.37649 5.4055 5.41631 5.43904 5.44985C5.47258 5.48339 5.5124 5.50999 5.55622 5.52812C5.60004 5.54626 5.64701 5.55558 5.69444 5.55556H9.30556C9.35299 5.55558 9.39995 5.54626 9.44378 5.52812C9.4876 5.50999 9.52742 5.48339 9.56096 5.44985C9.5945 5.41631 9.6211 5.37649 9.63923 5.33267C9.65737 5.28884 9.66669 5.24187 9.66667 5.19444V1.22222H12.1944C12.4817 1.22254 12.757 1.33677 12.9601 1.53987C13.1632 1.74297 13.2775 2.01833 13.2778 2.30556V8.08333C13.2778 8.17911 13.3158 8.27096 13.3835 8.33868C13.4513 8.4064 13.5431 8.44444 13.6389 8.44444C13.7347 8.44444 13.8265 8.4064 13.8942 8.33868C13.962 8.27096 14 8.17911 14 8.08333V2.30556C13.9994 1.82686 13.809 1.36794 13.4705 1.02946C13.1321 0.69097 12.6731 0.500562 12.1944 0.5ZM8.94444 4.83333H6.05556V1.22222H8.94444V4.83333Z" fill="#48613C" stroke="#48613C" stroke-width="0.3"/>
<path d="M13.8921 11.9497L12.8092 13.0326C12.7411 13.0983 12.6499 13.1347 12.5552 13.1339C12.4606 13.1331 12.37 13.0951 12.303 13.0282C12.2361 12.9612 12.1981 12.8706 12.1973 12.7759C12.1965 12.6813 12.2329 12.59 12.2986 12.5219L12.7655 12.055H10.0262C9.93038 12.055 9.83853 12.017 9.77081 11.9492C9.70308 11.8815 9.66504 11.7897 9.66504 11.6939C9.66504 11.5981 9.70308 11.5063 9.77081 11.4386C9.83853 11.3708 9.93038 11.3328 10.0262 11.3328H12.7655L12.2986 10.8659C12.2328 10.7978 12.1965 10.7066 12.1973 10.6119C12.1981 10.5172 12.2361 10.4266 12.303 10.3597C12.37 10.2927 12.4606 10.2547 12.5552 10.2539C12.6499 10.2531 12.7411 10.2895 12.8092 10.3553L13.8921 11.4382C13.9598 11.5061 13.9979 11.598 13.9979 11.6939C13.9979 11.7898 13.9599 11.8818 13.8921 11.9497Z" fill="#48613C" stroke="#48613C" stroke-width="0.3"/>
</svg>
