<?xml version="1.0" encoding="UTF-8" standalone="no"?>
<svg
   xmlns:dc="http://purl.org/dc/elements/1.1/"
   xmlns:cc="http://creativecommons.org/ns#"
   xmlns:rdf="http://www.w3.org/1999/02/22-rdf-syntax-ns#"
   xmlns:svg="http://www.w3.org/2000/svg"
   xmlns="http://www.w3.org/2000/svg"
   xmlns:sodipodi="http://sodipodi.sourceforge.net/DTD/sodipodi-0.dtd"
   xmlns:inkscape="http://www.inkscape.org/namespaces/inkscape"
   width="16"
   height="16"
   viewBox="0 0 16 16"
   fill="none"
   version="1.1"
   id="svg12"
   sodipodi:docname="status__PURPLE.svg"
   inkscape:version="0.92.3 (2405546, 2018-03-11)">
  <metadata
     id="metadata18">
    <rdf:RDF>
      <cc:Work
         rdf:about="">
        <dc:format>image/svg+xml</dc:format>
        <dc:type
           rdf:resource="http://purl.org/dc/dcmitype/StillImage" />
        <dc:title></dc:title>
      </cc:Work>
    </rdf:RDF>
  </metadata>
  <defs
     id="defs16" />
  <sodipodi:namedview
     pagecolor="#ffffff"
     bordercolor="#666666"
     borderopacity="1"
     objecttolerance="10"
     gridtolerance="10"
     guidetolerance="10"
     inkscape:pageopacity="0"
     inkscape:pageshadow="2"
     inkscape:window-width="1920"
     inkscape:window-height="1025"
     id="namedview14"
     showgrid="false"
     inkscape:zoom="14.75"
     inkscape:cx="-0.81355932"
     inkscape:cy="8"
     inkscape:window-x="0"
     inkscape:window-y="31"
     inkscape:window-maximized="1"
     inkscape:current-layer="svg12" />
  <path
     style="color:#000000;font-style:normal;font-variant:normal;font-weight:normal;font-stretch:normal;font-size:medium;line-height:normal;font-family:sans-serif;font-variant-ligatures:normal;font-variant-position:normal;font-variant-caps:normal;font-variant-numeric:normal;font-variant-alternates:normal;font-feature-settings:normal;text-indent:0;text-align:start;text-decoration:none;text-decoration-line:none;text-decoration-style:solid;text-decoration-color:#000000;letter-spacing:normal;word-spacing:normal;text-transform:none;writing-mode:lr-tb;direction:ltr;text-orientation:mixed;dominant-baseline:auto;baseline-shift:baseline;text-anchor:start;white-space:normal;shape-padding:0;clip-rule:nonzero;display:inline;overflow:visible;visibility:visible;opacity:1;isolation:auto;mix-blend-mode:normal;color-interpolation:sRGB;color-interpolation-filters:linearRGB;solid-color:#000000;solid-opacity:1;vector-effect:none;fill:#8a2986;fill-opacity:1;fill-rule:nonzero;stroke:none;stroke-width:1;stroke-linecap:round;stroke-linejoin:round;stroke-miterlimit:4;stroke-dasharray:none;stroke-dashoffset:0;stroke-opacity:1;color-rendering:auto;image-rendering:auto;shape-rendering:auto;text-rendering:auto;enable-background:accumulate"
     d="M 8 0.8359375 C 7.6782052 0.8359375 7.3626574 0.92115155 7.0839844 1.0820312 L 4.8652344 2.3496094 A 0.50005 0.50005 0 0 0 4.6914062 2.4492188 L 2.4179688 3.7480469 A 0.50005 0.50005 0 0 0 2.4160156 3.7480469 C 2.1376159 3.9087824 1.9069793 4.1396568 1.7460938 4.4179688 C 1.5852174 4.6962884 1.50033 5.0125126 1.5 5.3339844 L 1.5 10.667969 C 1.50033 10.989428 1.5851759 11.305634 1.7460938 11.583984 C 1.9069784 11.862254 2.1376053 12.093177 2.4160156 12.253906 A 0.50005 0.50005 0 0 0 2.4179688 12.255859 L 7.0839844 14.921875 C 7.3144958 15.054888 7.5723029 15.12086 7.8359375 15.144531 A 0.50005 0.50005 0 0 0 8.1660156 15.144531 C 8.428967 15.120643 8.6860705 15.054602 8.9160156 14.921875 L 10.248047 14.162109 A 0.50037823 0.50037823 0 0 0 9.7519531 13.292969 L 8.5 14.007812 L 8.5 8.2929688 L 13.5 5.421875 L 13.5 6.6679688 A 0.50005 0.50005 0 1 0 14.5 6.6679688 L 14.5 5.3339844 C 14.499779 5.0727389 14.429502 4.8206053 14.322266 4.5839844 A 0.50005 0.50005 0 0 0 14.130859 4.2578125 C 13.981503 4.0549313 13.803544 3.8748058 13.583984 3.7480469 A 0.50005 0.50005 0 0 0 13.582031 3.7480469 L 8.9160156 1.0820312 C 8.6373426 0.92115158 8.3217948 0.8359375 8 0.8359375 z M 8 1.8359375 C 8.1463052 1.8359375 8.2892887 1.8741055 8.4160156 1.9472656 A 0.50005 0.50005 0 0 0 8.4179688 1.9492188 L 12.992188 4.5605469 L 11.011719 5.6972656 L 6.0390625 2.8300781 L 7.5820312 1.9492188 A 0.50005 0.50005 0 0 0 7.5839844 1.9472656 C 7.7107176 1.8740989 7.8536948 1.8359375 8 1.8359375 z M 5.03125 3.40625 L 10.005859 6.2734375 L 8.0019531 7.4238281 L 3.0097656 4.5585938 L 5.03125 3.40625 z M 2.5 5.4179688 L 7.5 8.2890625 L 7.5 14.007812 L 2.9160156 11.388672 L 2.9140625 11.386719 C 2.7885717 11.313757 2.6840144 11.209704 2.6113281 11.083984 C 2.5382261 10.957535 2.50015 10.81411 2.5 10.667969 L 2.5 5.4179688 z M 14.654297 8.828125 A 0.50005 0.50005 0 0 0 14.310547 8.9785156 L 11.998047 11.291016 L 11.017578 10.3125 A 0.50005 0.50005 0 1 0 10.310547 11.019531 L 11.644531 12.351562 A 0.50005 0.50005 0 0 0 12.351562 12.351562 L 15.017578 9.6855469 A 0.50005 0.50005 0 0 0 14.654297 8.828125 z "
     id="path2" />
</svg>
