<?xml version="1.0" encoding="UTF-8" standalone="no"?>
<svg
   xmlns:dc="http://purl.org/dc/elements/1.1/"
   xmlns:cc="http://creativecommons.org/ns#"
   xmlns:rdf="http://www.w3.org/1999/02/22-rdf-syntax-ns#"
   xmlns:svg="http://www.w3.org/2000/svg"
   xmlns="http://www.w3.org/2000/svg"
   xmlns:sodipodi="http://sodipodi.sourceforge.net/DTD/sodipodi-0.dtd"
   xmlns:inkscape="http://www.inkscape.org/namespaces/inkscape"
   width="17"
   height="16"
   viewBox="0 0 17 16"
   fill="none"
   version="1.1"
   id="svg6"
   sodipodi:docname="status__NC.svg"
   inkscape:version="0.92.3 (2405546, 2018-03-11)">
  <metadata
     id="metadata12">
    <rdf:RDF>
      <cc:Work
         rdf:about="">
        <dc:format>image/svg+xml</dc:format>
        <dc:type
           rdf:resource="http://purl.org/dc/dcmitype/StillImage" />
        <dc:title></dc:title>
      </cc:Work>
    </rdf:RDF>
  </metadata>
  <defs
     id="defs10" />
  <sodipodi:namedview
     pagecolor="#ffffff"
     bordercolor="#666666"
     borderopacity="1"
     objecttolerance="10"
     gridtolerance="10"
     guidetolerance="10"
     inkscape:pageopacity="0"
     inkscape:pageshadow="2"
     inkscape:window-width="1920"
     inkscape:window-height="1025"
     id="namedview8"
     showgrid="false"
     inkscape:zoom="14.75"
     inkscape:cx="-0.31355932"
     inkscape:cy="8"
     inkscape:window-x="0"
     inkscape:window-y="31"
     inkscape:window-maximized="1"
     inkscape:current-layer="svg6" />
  <path
     style="color:#000000;font-style:normal;font-variant:normal;font-weight:normal;font-stretch:normal;font-size:medium;line-height:normal;font-family:sans-serif;font-variant-ligatures:normal;font-variant-position:normal;font-variant-caps:normal;font-variant-numeric:normal;font-variant-alternates:normal;font-feature-settings:normal;text-indent:0;text-align:start;text-decoration:none;text-decoration-line:none;text-decoration-style:solid;text-decoration-color:#000000;letter-spacing:normal;word-spacing:normal;text-transform:none;writing-mode:lr-tb;direction:ltr;text-orientation:mixed;dominant-baseline:auto;baseline-shift:baseline;text-anchor:start;white-space:normal;shape-padding:0;clip-rule:nonzero;display:inline;overflow:visible;visibility:visible;opacity:1;isolation:auto;mix-blend-mode:normal;color-interpolation:sRGB;color-interpolation-filters:linearRGB;solid-color:#000000;solid-opacity:1;vector-effect:none;fill:#551111;fill-opacity:1;fill-rule:nonzero;stroke:none;stroke-width:1;stroke-linecap:round;stroke-linejoin:round;stroke-miterlimit:4;stroke-dasharray:none;stroke-dashoffset:0;stroke-opacity:1;color-rendering:auto;image-rendering:auto;shape-rendering:auto;text-rendering:auto;enable-background:accumulate"
     d="M 15.15625 0.828125 A 0.50005 0.50005 0 0 0 14.8125 0.97851562 L 7.3457031 8.4453125 A 0.50005 0.50005 0 0 0 7.1933594 8.5957031 A 0.50005 0.50005 0 0 0 7.1914062 8.5996094 L 5.4238281 10.367188 A 0.50005 0.50005 0 0 0 5.4140625 10.375 A 0.50005 0.50005 0 0 0 5.34375 10.445312 A 0.50005 0.50005 0 0 0 5.3398438 10.453125 L 1.4785156 14.3125 A 0.50063752 0.50063752 0 0 0 2.1875 15.019531 L 5.7558594 11.451172 C 6.3562393 12.009897 6.9946876 12.526552 7.6875 12.966797 C 9.4844371 14.132144 11.531023 14.858497 13.660156 15.089844 A 0.50005 0.50005 0 0 0 13.667969 15.091797 C 13.92221 15.114757 14.18001 15.083793 14.421875 15.001953 C 14.66361 14.920183 14.884065 14.788027 15.072266 14.615234 C 15.260361 14.442676 15.411381 14.233866 15.513672 14 C 15.616016 13.766011 15.667116 13.513143 15.666016 13.257812 L 15.666016 11.263672 C 15.670416 10.819012 15.514723 10.388056 15.224609 10.050781 C 14.934569 9.7135919 14.530151 9.4938858 14.089844 9.4316406 A 0.50005 0.50005 0 0 0 14.085938 9.4316406 C 13.483229 9.3521003 12.891853 9.2047118 12.322266 8.9921875 C 11.994215 8.868859 11.637671 8.840962 11.294922 8.9140625 C 10.952176 8.9871625 10.637888 9.1577764 10.388672 9.4042969 A 0.50005 0.50005 0 0 0 10.386719 9.40625 L 9.8457031 9.9472656 C 9.3197495 9.6221828 8.8220806 9.2554483 8.3574219 8.8496094 L 15.519531 1.6875 A 0.50005 0.50005 0 0 0 15.15625 0.828125 z M 3.2402344 0.83398438 C 2.9857387 0.83423185 2.7328177 0.88739693 2.5 0.99023438 C 2.2672029 1.0930704 2.0583149 1.2417016 1.8867188 1.4296875 C 1.7151167 1.617666 1.5851394 1.8408346 1.5039062 2.0820312 C 1.4226603 2.3232379 1.3931096 2.5785478 1.4160156 2.8320312 A 0.50005 0.50005 0 0 0 1.4160156 2.8398438 C 1.6473719 4.9690147 2.3757131 7.0155682 3.5410156 8.8125 A 0.50005 0.50005 0 1 0 4.3789062 8.2675781 C 3.3005068 6.6046535 2.6277577 4.7123126 2.4121094 2.7421875 C 2.4016958 2.6269511 2.4142374 2.510044 2.4511719 2.4003906 C 2.4880989 2.2907472 2.5489552 2.1909102 2.6269531 2.1054688 C 2.7049569 2.0200145 2.798434 1.9510609 2.9042969 1.9042969 C 3.0101192 1.8575539 3.1245101 1.8340964 3.2402344 1.8339844 L 5.2402344 1.8339844 A 0.50005 0.50005 0 0 0 5.2460938 1.8339844 C 5.448437 1.8319944 5.6434663 1.9032225 5.796875 2.0351562 C 5.9502908 2.1670961 6.0498077 2.3484747 6.078125 2.5488281 C 6.167593 3.2249483 6.3338256 3.8883518 6.5722656 4.5273438 A 0.50005 0.50005 0 0 0 6.5722656 4.5292969 C 6.6283406 4.6784671 6.6406619 4.8402343 6.6074219 4.9960938 C 6.5741839 5.1519423 6.4968245 5.2948814 6.3847656 5.4082031 L 5.5410156 6.2519531 A 0.50063844 0.50063844 0 0 0 6.2480469 6.9609375 L 7.09375 6.1132812 A 0.50005 0.50005 0 0 0 7.0957031 6.1113281 C 7.3421243 5.8621299 7.5128351 5.5478496 7.5859375 5.2050781 C 7.6590375 4.8623175 7.6311375 4.5058042 7.5078125 4.1777344 C 7.2952988 3.6082108 7.1478487 3.0167201 7.0683594 2.4140625 A 0.50005 0.50005 0 0 0 7.0683594 2.4101562 C 7.0061166 1.9697734 6.786423 1.5653909 6.4492188 1.2753906 C 6.1120074 0.98538426 5.6810647 0.82961315 5.2363281 0.83398438 L 3.2402344 0.83398438 z M 7.6347656 9.5722656 C 8.2494257 10.133947 8.9218554 10.629029 9.6464844 11.041016 A 0.50005 0.50005 0 0 0 10.248047 10.958984 L 11.091797 10.115234 L 11.09375 10.113281 C 11.206629 10.002345 11.348933 9.9256303 11.503906 9.8925781 C 11.659758 9.8593381 11.821554 9.8716634 11.970703 9.9277344 A 0.50005 0.50005 0 0 0 11.972656 9.9277344 C 12.611681 10.166167 13.274989 10.332407 13.951172 10.421875 C 14.151464 10.450185 14.332884 10.549715 14.464844 10.703125 C 14.59673 10.85645 14.668017 11.051566 14.666016 11.253906 A 0.50005 0.50005 0 0 0 14.666016 11.259766 L 14.666016 13.259766 A 0.50005 0.50005 0 0 0 14.666016 13.261719 C 14.666516 13.377789 14.644116 13.493398 14.597656 13.599609 C 14.551146 13.705944 14.481989 13.800464 14.396484 13.878906 C 14.311084 13.957316 14.211629 14.017456 14.101562 14.054688 C 13.993476 14.091247 13.877318 14.105173 13.763672 14.095703 C 11.791375 13.880796 9.8970724 13.20651 8.2324219 12.126953 A 0.50005 0.50005 0 0 0 8.2285156 12.125 C 7.5961443 11.7235 7.0125429 11.252423 6.4628906 10.744141 L 7.6347656 9.5722656 z "
     id="path2" />
</svg>
