<?xml version="1.0" encoding="UTF-8" standalone="no"?>
<svg
   xmlns:dc="http://purl.org/dc/elements/1.1/"
   xmlns:cc="http://creativecommons.org/ns#"
   xmlns:rdf="http://www.w3.org/1999/02/22-rdf-syntax-ns#"
   xmlns:svg="http://www.w3.org/2000/svg"
   xmlns="http://www.w3.org/2000/svg"
   xmlns:sodipodi="http://sodipodi.sourceforge.net/DTD/sodipodi-0.dtd"
   xmlns:inkscape="http://www.inkscape.org/namespaces/inkscape"
   width="16"
   height="16"
   viewBox="0 0 16 16"
   fill="none"
   version="1.1"
   id="svg10"
   sodipodi:docname="status__P.svg"
   inkscape:version="0.92.3 (2405546, 2018-03-11)">
  <metadata
     id="metadata16">
    <rdf:RDF>
      <cc:Work
         rdf:about="">
        <dc:format>image/svg+xml</dc:format>
        <dc:type
           rdf:resource="http://purl.org/dc/dcmitype/StillImage" />
        <dc:title></dc:title>
      </cc:Work>
    </rdf:RDF>
  </metadata>
  <defs
     id="defs14" />
  <sodipodi:namedview
     pagecolor="#ffffff"
     bordercolor="#666666"
     borderopacity="1"
     objecttolerance="10"
     gridtolerance="10"
     guidetolerance="10"
     inkscape:pageopacity="0"
     inkscape:pageshadow="2"
     inkscape:window-width="1920"
     inkscape:window-height="1025"
     id="namedview12"
     showgrid="false"
     inkscape:zoom="14.75"
     inkscape:cx="-0.81355932"
     inkscape:cy="8"
     inkscape:window-x="0"
     inkscape:window-y="31"
     inkscape:window-maximized="1"
     inkscape:current-layer="svg10" />
  <path
     style="color:#000000;font-style:normal;font-variant:normal;font-weight:normal;font-stretch:normal;font-size:medium;line-height:normal;font-family:sans-serif;font-variant-ligatures:normal;font-variant-position:normal;font-variant-caps:normal;font-variant-numeric:normal;font-variant-alternates:normal;font-feature-settings:normal;text-indent:0;text-align:start;text-decoration:none;text-decoration-line:none;text-decoration-style:solid;text-decoration-color:#000000;letter-spacing:normal;word-spacing:normal;text-transform:none;writing-mode:lr-tb;direction:ltr;text-orientation:mixed;dominant-baseline:auto;baseline-shift:baseline;text-anchor:start;white-space:normal;shape-padding:0;clip-rule:nonzero;display:inline;overflow:visible;visibility:visible;opacity:1;isolation:auto;mix-blend-mode:normal;color-interpolation:sRGB;color-interpolation-filters:linearRGB;solid-color:#000000;solid-opacity:1;vector-effect:none;fill:#23510d;fill-opacity:1;fill-rule:nonzero;stroke:none;stroke-width:1;stroke-linecap:round;stroke-linejoin:round;stroke-miterlimit:4;stroke-dasharray:none;stroke-dashoffset:0;stroke-opacity:1;color-rendering:auto;image-rendering:auto;shape-rendering:auto;text-rendering:auto;enable-background:accumulate"
     d="M 3.3339844 1.5 C 2.3273861 1.5 1.5 2.3273861 1.5 3.3339844 L 1.5 12.666016 C 1.5 13.672563 2.3273635 14.5 3.3339844 14.5 L 12.666016 14.5 C 13.672586 14.5 14.5 13.672586 14.5 12.666016 L 14.5 3.3339844 C 14.5 2.3273635 13.672563 1.5 12.666016 1.5 L 3.3339844 1.5 z M 3.3339844 2.5 L 12.666016 2.5 C 13.132068 2.5 13.5 2.8678453 13.5 3.3339844 L 13.5 12.666016 C 13.5 13.132045 13.132045 13.5 12.666016 13.5 L 3.3339844 13.5 C 2.8678453 13.5 2.5 13.132068 2.5 12.666016 L 2.5 3.3339844 C 2.5 2.8678226 2.8678226 2.5 3.3339844 2.5 z M 5.9492188 4.8339844 A 0.50064427 0.50064427 0 0 0 6 5.8339844 L 10.666016 5.8339844 A 0.50005 0.50005 0 1 0 10.666016 4.8339844 L 6 4.8339844 A 0.50005 0.50005 0 0 0 5.9492188 4.8339844 z M 5.3339844 7.5 A 0.50005 0.50005 0 1 0 5.3339844 8.5 L 9.3339844 8.5 A 0.50005 0.50005 0 1 0 9.3339844 7.5 L 5.3339844 7.5 z M 7.2832031 10.167969 A 0.50064427 0.50064427 0 0 0 7.3339844 11.167969 L 10.666016 11.167969 A 0.50005 0.50005 0 1 0 10.666016 10.167969 L 7.3339844 10.167969 A 0.50005 0.50005 0 0 0 7.2832031 10.167969 z "
     id="path2" />
</svg>
