<?xml version="1.0" encoding="UTF-8" standalone="no"?>
<svg
   width="25"
   height="25"
   viewBox="0 0 25 25"
   fill="none"
   version="1.1"
   id="svg6"
   sodipodi:docname="support2.svg"
   inkscape:version="1.1.2 (0a00cf5339, 2022-02-04)"
   xmlns:inkscape="http://www.inkscape.org/namespaces/inkscape"
   xmlns:sodipodi="http://sodipodi.sourceforge.net/DTD/sodipodi-0.dtd"
   xmlns="http://www.w3.org/2000/svg"
   xmlns:svg="http://www.w3.org/2000/svg">
  <defs
     id="defs10" />
  <sodipodi:namedview
     id="namedview8"
     pagecolor="#ffffff"
     bordercolor="#666666"
     borderopacity="1.0"
     inkscape:pageshadow="2"
     inkscape:pageopacity="0.0"
     inkscape:pagecheckerboard="0"
     showgrid="false"
     inkscape:zoom="18.8"
     inkscape:cx="12.473404"
     inkscape:cy="12.473404"
     inkscape:window-width="1304"
     inkscape:window-height="704"
     inkscape:window-x="0"
     inkscape:window-y="0"
     inkscape:window-maximized="1"
     inkscape:current-layer="svg6" />
  <path
     id="circle4"
     style="color:#000000;fill:#65c203;-inkscape-stroke:none"
     d="M 12.5,0 C 7.8997141,0 3.8741031,2.489001 1.7050781,6.1953125 0.62188515,8.0462134 0,10.202656 0,12.5 0,19.39763 5.6023698,25 12.5,25 19.39763,25 25,19.39763 25,12.5 25,5.6023698 19.39763,0 12.5,0 Z m 0,1 C 18.857191,1 24,6.1428094 24,12.5 24,18.857191 18.857191,24 12.5,24 6.1428094,24 1,18.857191 1,12.5 1,10.382656 1.5699369,8.4038842 2.5664063,6.7011719 4.5617727,3.2915985 8.2601533,1 12.5,1 Z m 6.4165,10.6442 V 11.3937 C 18.9165,8.41684 16.2653,6 12.9998,6 9.7343,6 7.08311,8.41684 7.08311,11.3937 v 0.2505 C 6.46878,11.7768 6,12.2927 6,12.8969 v 1.7979 c 0,0.7073 0.63047,1.2821 1.4064,1.2821 h 0.79215 c 0.77593,0 1.4064,-0.5748 1.4064,-1.2821 v -1.798 c 0,-0.6043 -0.46875,-1.1053 -1.08311,-1.2527 v -0.2505 c 0,-2.25476 2.00456,-4.08213 4.47796,-4.08213 2.4733,0 4.4779,1.8274 4.4779,4.08213 v 0.2505 c -0.6143,0.1326 -1.0831,0.6484 -1.0831,1.2527 v 1.7979 c 0,0.6189 0.485,1.1347 1.1155,1.2527 -0.4042,1.2527 -1.5681,2.2252 -3.0069,2.4463 -0.0485,-0.3095 -0.3556,-0.56 -0.7113,-0.56 h -1.5681 c -0.4041,0 -0.7274,0.2947 -0.7274,0.6631 v 0.8401 c 0,0.3684 0.3233,0.6631 0.7274,0.6631 h 1.5681 c 0.3718,0 0.679,-0.2652 0.7113,-0.6042 2.0207,-0.2506 3.6535,-1.6358 4.1061,-3.419 0.776,-0.0147 1.3903,-0.5894 1.3903,-1.2821 v -1.7979 c 0.0161,-0.6041 -0.4526,-1.1199 -1.0831,-1.2525 z" />
</svg>
