<svg width="19" height="14" viewBox="0 0 19 14" fill="none" xmlns="http://www.w3.org/2000/svg">
<path d="M13.6001 12.9977H17.8001V10.5977C16.7801 10.5977 16.0001 9.75766 16.0001 8.79766C16.0001 7.83766 16.7801 6.99766 17.8001 6.99766V4.59766H13.6001" stroke="#586580" stroke-width="1.2" stroke-miterlimit="10" stroke-linecap="round" stroke-linejoin="round"/>
<path d="M11.8 4.59766H1V6.99766C2.02 6.99766 2.8 7.83766 2.8 8.79766C2.8 9.75766 2.02 10.5977 1 10.5977V12.9977H11.8" stroke="#586580" stroke-width="1.2" stroke-miterlimit="10" stroke-linecap="round" stroke-linejoin="round"/>
<path d="M13.6001 4.59766V5.79766" stroke="#586580" stroke-width="1.2" stroke-miterlimit="10" stroke-linecap="round" stroke-linejoin="round"/>
<path d="M13.6001 11.8008V13.0008" stroke="#586580" stroke-width="1.2" stroke-miterlimit="10" stroke-linecap="round" stroke-linejoin="round"/>
<path d="M4.6001 7H10.6001" stroke="#586580" stroke-width="1.2" stroke-miterlimit="10" stroke-linecap="round" stroke-linejoin="round"/>
<path d="M7.6001 9.40234H10.6001" stroke="#586580" stroke-width="1.2" stroke-miterlimit="10" stroke-linecap="round" stroke-linejoin="round"/>
<path d="M13 1V2.2" stroke="#586580" stroke-width="1.2" stroke-miterlimit="10" stroke-linecap="round" stroke-linejoin="round"/>
<path d="M13.6001 7.59766V9.99766" stroke="#586580" stroke-width="1.2" stroke-miterlimit="10" stroke-linecap="round" stroke-linejoin="round"/>
<path d="M15.4 2.19922L14.8 2.79922" stroke="#586580" stroke-width="1.2" stroke-miterlimit="10" stroke-linecap="round" stroke-linejoin="round"/>
<path d="M10.6001 2.19922L11.2001 2.79922" stroke="#586580" stroke-width="1.2" stroke-miterlimit="10" stroke-linecap="round" stroke-linejoin="round"/>
</svg>
