<svg width="58" height="35" viewBox="0 0 58 35" fill="none" xmlns="http://www.w3.org/2000/svg">
<path d="M29.928 11.6667C29.6767 11.6744 29.435 11.7794 29.2571 11.9622L24.157 17.0761L21.0153 13.9261C20.1357 13.0044 18.7147 14.4278 19.633 15.3106L23.4668 19.1567C23.8477 19.5397 24.4663 19.5397 24.8491 19.1567L30.6395 13.3486C31.2775 12.7264 30.8077 11.6667 29.9299 11.6667H29.928ZM0.966667 19.4444H6.76667C7.3022 19.4444 7.73333 19.8781 7.73333 20.4167C7.73333 20.9553 7.3022 21.3889 6.76667 21.3889H0.966667C0.431133 21.3889 0 20.9553 0 20.4167C0 19.8781 0.431133 19.4444 0.966667 19.4444ZM0.966667 11.6667H6.76667C7.3022 11.6667 7.73333 12.1003 7.73333 12.6389C7.73333 13.1775 7.3022 13.6111 6.76667 13.6111H0.966667C0.431133 13.6111 0 13.1775 0 12.6389C0 12.1003 0.431133 11.6667 0.966667 11.6667ZM0.966667 3.88889H6.76667C7.3022 3.88889 7.73333 4.3225 7.73333 4.86111C7.73333 5.39972 7.3022 5.83333 6.76667 5.83333H0.966667C0.431133 5.83333 0 5.39972 0 4.86111C0 4.3225 0.431133 3.88889 0.966667 3.88889ZM47.3667 25.2778C44.7083 25.2778 42.5333 27.4653 42.5333 30.1389C42.5333 32.8125 44.7083 35 47.3667 35C50.025 35 52.2 32.8125 52.2 30.1389C52.2 27.4653 50.025 25.2778 47.3667 25.2778ZM47.3667 27.2222C48.9791 27.2222 50.2667 28.5172 50.2667 30.1389C50.2667 31.7606 48.9791 33.0556 47.3667 33.0556C45.7543 33.0556 44.4667 31.7606 44.4667 30.1389C44.4667 28.5172 45.7543 27.2222 47.3667 27.2222ZM22.2333 25.2778C19.575 25.2778 17.4 27.4653 17.4 30.1389C17.4 32.8125 19.575 35 22.2333 35C24.8917 35 27.0667 32.8125 27.0667 30.1389C27.0667 27.4653 24.8917 25.2778 22.2333 25.2778ZM22.2333 27.2222C23.8457 27.2222 25.1333 28.5172 25.1333 30.1389C25.1333 31.7606 23.8457 33.0556 22.2333 33.0556C20.6209 33.0556 19.3333 31.7606 19.3333 30.1389C19.3333 28.5172 20.6209 27.2222 22.2333 27.2222ZM12.5667 0C10.9775 0 9.66667 1.31833 9.66667 2.91667V24.3056C9.66667 25.9039 10.9775 27.2222 12.5667 27.2222H16.4333C17.7403 27.2417 17.7403 25.2583 16.4333 25.2778H12.5667C12.0137 25.2778 11.6 24.8617 11.6 24.3056V2.91667C11.6 2.36056 12.0137 1.94444 12.5667 1.94444H37.7C38.2529 1.94444 38.6667 2.36056 38.6667 2.91667V25.2778H28.0333C26.7573 25.2778 26.7805 27.2417 28.0333 27.2222H41.5667C42.8427 27.2222 42.8311 25.2778 41.5667 25.2778H40.6V7.77778H48.7722L56.0667 19.2422V24.3056C56.0667 24.8617 55.6529 25.2778 55.1 25.2778H53.1667C51.9023 25.2778 51.9023 27.2222 53.1667 27.2222H55.1C56.6892 27.2222 58 25.9039 58 24.3056V18.9583C58 18.7736 57.9478 18.5889 57.8492 18.4333L50.1159 6.28055C49.938 6.0025 49.6325 5.83333 49.3 5.83333H40.6V2.91667C40.6 1.31833 39.2892 0 37.7 0H12.5667Z" fill="#A9B5CF"/>
</svg>
