<svg width="39" height="22" viewBox="0 0 39 22" fill="none" xmlns="http://www.w3.org/2000/svg">
<path d="M12.9262 18.3981C12.9262 17.4968 12.5613 16.6325 11.9119 15.9953C11.2624 15.358 10.3816 15 9.4631 15C8.54463 15 7.66378 15.358 7.01432 15.9953C6.36486 16.6325 6 17.4968 6 18.3981C6 18.466 6 18.5272 6 18.6019C6 19.5032 6.36486 20.3675 7.01432 21.0047C7.66378 21.642 8.54463 22 9.4631 22C10.3816 22 11.2624 21.642 11.9119 21.0047C12.5613 20.3675 12.9262 19.5032 12.9262 18.6019C12.9262 18.5272 12.9262 18.466 12.9262 18.3981ZM9.4631 20.0019C9.08285 20.0019 8.71818 19.8537 8.4493 19.5899C8.18043 19.3261 8.02938 18.9682 8.02938 18.5951C8.02295 18.5273 8.02295 18.4591 8.02938 18.3913C8.0772 18.0569 8.24653 17.7509 8.50617 17.5294C8.76581 17.3079 9.09827 17.1859 9.44232 17.1859C9.78637 17.1859 10.1188 17.3079 10.3785 17.5294C10.6381 17.7509 10.8074 18.0569 10.8553 18.3913C10.8617 18.4591 10.8617 18.5273 10.8553 18.5951C10.8553 18.9636 10.7081 19.3174 10.4452 19.5804C10.1823 19.8435 9.82467 19.9948 9.44925 20.0019H9.4631ZM35 18.3981C35 17.4968 34.6351 16.6325 33.9857 15.9953C33.3362 15.358 32.4554 15 31.5369 15C30.6184 15 29.7376 15.358 29.0881 15.9953C28.4387 16.6325 28.0738 17.4968 28.0738 18.3981C28.0738 18.466 28.0738 18.5272 28.0738 18.6019C28.0738 19.5032 28.4387 20.3675 29.0881 21.0047C29.7376 21.642 30.6184 22 31.5369 22C32.4554 22 33.3362 21.642 33.9857 21.0047C34.6351 20.3675 35 19.5032 35 18.6019C35 18.5272 35 18.466 35 18.3981ZM31.5369 20.0019C31.3452 20.0074 31.1542 19.975 30.9755 19.9068C30.7967 19.8385 30.6337 19.7358 30.4961 19.6046C30.3586 19.4734 30.2492 19.3165 30.1746 19.1431C30.1 18.9697 30.0615 18.7834 30.0616 18.5951C30.0552 18.5273 30.0552 18.4591 30.0616 18.3913C30.1094 18.0569 30.2788 17.7509 30.5384 17.5294C30.798 17.3079 31.1305 17.1859 31.4746 17.1859C31.8186 17.1859 32.1511 17.3079 32.4107 17.5294C32.6704 17.7509 32.8397 18.0569 32.8875 18.3913C32.8939 18.4591 32.8939 18.5273 32.8875 18.5951C32.8879 18.9568 32.7464 19.3047 32.4924 19.5666C32.2383 19.8286 31.8912 19.9845 31.523 20.0019H31.5369Z" fill="#42AB10"/>
<path d="M38.4563 10.1501L36.1945 7.12933C35.9735 6.82554 35.6839 6.57765 35.3491 6.40557C35.0143 6.23349 34.6436 6.14204 34.2668 6.13857H31.3787C31.2765 6.13858 31.1784 6.09866 31.1055 6.02739C31.0326 5.95612 30.9908 5.8592 30.989 5.75751L30.9472 2.71594C30.9858 2.38176 30.9546 2.04325 30.8554 1.72168C30.7563 1.4001 30.5914 1.10242 30.3712 0.847345C30.1509 0.59227 29.88 0.385317 29.5755 0.239493C29.271 0.09367 28.9396 0.0121303 28.6019 0H3.5901C2.98513 0.0163745 2.40839 0.258295 1.97406 0.677867C1.53972 1.09744 1.27947 1.66407 1.24481 2.26559L0.00604865 16.9885C-0.00845847 17.1132 0.00319827 17.2396 0.0402813 17.3596C0.0773642 17.4797 0.139066 17.5907 0.221485 17.6858C0.303904 17.7809 0.405245 17.8579 0.519098 17.912C0.632951 17.9661 0.756838 17.996 0.882923 18H4.31387C4.42543 17.9991 4.53286 17.9579 4.6161 17.8839C4.69934 17.81 4.75271 17.7084 4.76622 17.5982C4.90864 16.516 5.44152 15.5224 6.2655 14.8026C7.08947 14.0827 8.1483 13.6858 9.24455 13.6858C10.3408 13.6858 11.3996 14.0827 12.2236 14.8026C13.0476 15.5224 13.5805 16.516 13.7229 17.5982C13.7364 17.7084 13.7898 17.81 13.873 17.8839C13.9562 17.9579 14.0637 17.9991 14.1752 18H26.4515C26.563 17.9991 26.6705 17.9579 26.7537 17.8839C26.8369 17.81 26.8903 17.7084 26.9038 17.5982C27.0462 16.516 27.5791 15.5224 28.4031 14.8026C29.2271 14.0827 30.2859 13.6858 31.3822 13.6858C32.4784 13.6858 33.5372 14.0827 34.3612 14.8026C35.1852 15.5224 35.7181 16.516 35.8605 17.5982C35.874 17.7084 35.9274 17.81 36.0106 17.8839C36.0938 17.9579 36.2013 17.9991 36.3128 18H38.3032C38.3976 18.0001 38.491 17.9811 38.5778 17.9442C38.6646 17.9072 38.7429 17.853 38.808 17.785C38.8731 17.7169 38.9236 17.6364 38.9565 17.5483C38.9893 17.4602 39.0038 17.3664 38.9991 17.2725V11.7921C38.9987 11.2012 38.8085 10.6258 38.4563 10.1501ZM6.77747 7.94688H5.3856L4.68967 10.1778H3.12382L4.87757 4.53118H8.01623L7.6613 5.74365H6.07458L5.74749 6.77598H7.13935L6.77747 7.94688ZM12.1988 7.06005C11.953 7.31747 11.6504 7.51436 11.3149 7.6351L11.7464 10.1501H10.111L9.66559 7.57968L8.83047 10.1501H7.27854L9.05317 4.53118H10.8626C11.4316 4.47884 11.9992 4.64489 12.4493 4.99538C12.6109 5.15789 12.7198 5.36492 12.762 5.58971C12.8042 5.8145 12.7777 6.04671 12.6859 6.25635C12.5863 6.55525 12.4197 6.8277 12.1988 7.05312V7.06005ZM16.263 7.94688H14.8712L14.5441 8.97229H16.1447L15.7759 10.1501H12.6233L14.4049 4.51039H17.5435L17.1608 5.70901H15.581L15.2539 6.74827H16.6458L16.263 7.94688ZM21.5452 5.73672H19.9515L19.6244 6.77598H21.0162L20.6474 7.94688H19.2555L18.9284 8.97229H20.5291L20.1463 10.1501H17.0007L18.7962 4.53118H21.9349L21.5452 5.73672ZM36.6399 11.0508H31.5457C31.4534 11.0508 31.3649 11.0143 31.2996 10.9493C31.2344 10.8844 31.1977 10.7963 31.1977 10.7044V8.25173C31.1968 8.18928 31.2084 8.12727 31.2317 8.06931C31.2551 8.01135 31.2898 7.95859 31.3339 7.9141C31.3779 7.86962 31.4304 7.83429 31.4882 7.81019C31.5461 7.78608 31.6082 7.77366 31.671 7.77367H34.2459C34.32 7.77286 34.3932 7.78937 34.4597 7.82186C34.5261 7.85435 34.584 7.90192 34.6287 7.96074L36.7652 10.8014C36.7841 10.8241 36.796 10.8519 36.7993 10.8812C36.8027 10.9106 36.7974 10.9403 36.7842 10.9667C36.7709 10.9931 36.7502 11.0152 36.7246 11.0301C36.699 11.045 36.6696 11.0522 36.6399 11.0508Z" fill="#42AB10"/>
<path d="M10.3348 6.00314L10 7C10.5452 7 10.8653 6.85193 10.9605 6.5558C11.0263 6.35953 11.0099 6.22007 10.9111 6.13743C10.74 6.0341 10.5374 5.98689 10.3348 6.00314Z" fill="#42AB10"/>
</svg>
