<svg width="31" height="25" viewBox="0 0 31 25" fill="none" xmlns="http://www.w3.org/2000/svg">
<path d="M4.32479 4.42123V3.12761H5.58708V4.42123H4.32479ZM14.0387 19.3057C13.1537 18.0311 11.4136 15.7525 9.70403 14.814C8.18266 13.9789 7.25535 14.5519 6.83787 14.9677L7.75095 15.8841C7.91294 15.7226 8.14788 15.5814 8.66094 15.7578C9.67069 16.1047 11.1037 17.4706 12.5925 19.5054C13.6568 20.9598 14.3771 22.2466 14.6729 22.9156C13.9153 23.0259 12.831 22.9047 11.6777 22.5677C10.0713 22.0981 8.60733 21.2993 7.66119 20.3763C6.58375 19.325 6.26099 18.2228 6.70175 17.1002L6.86885 16.6747L6.52352 16.3752C5.33828 15.3471 4.73358 14.1702 4.72632 12.8771L4.69685 7.56387H4.05364C2.53183 7.56372 1.29362 6.32551 1.29362 4.80364C1.29362 3.28176 2.53183 2.04355 4.05371 2.04355H5.75705C6.39272 2.04355 6.77082 2.60153 6.81588 3.15298C6.82386 3.25115 6.82465 3.41802 6.82544 3.5946C6.82917 4.41332 6.83428 5.53453 7.397 6.16862L8.36456 5.30995C8.12567 5.0408 8.121 4.02329 8.11906 3.58878C8.11813 3.37763 8.11734 3.19538 8.10519 3.04762C7.99832 1.73775 6.98887 0.75 5.75705 0.75H4.05371C1.81855 0.749928 0 2.5684 0 4.80364C0 6.81989 1.47976 8.49707 3.4102 8.80632L3.43277 12.8842C3.44139 14.4161 4.10394 15.8513 5.35452 17.0583C4.95472 18.5279 5.4432 20.0195 6.75781 21.3021C7.85063 22.3682 9.5115 23.2821 11.3147 23.8092C12.3117 24.1006 13.2506 24.2476 14.0606 24.2476C14.7058 24.2476 15.2691 24.1544 15.7147 23.9666L16.0232 23.8366L16.0952 23.5097C16.1482 23.2688 16.1532 22.9133 15.5356 21.7371C15.1533 21.0088 14.6217 20.1453 14.0387 19.3057ZM22.793 16.8751C22.101 16.5896 21.0809 16.4382 20.2933 16.8687C19.8087 17.1336 19.4984 17.5725 19.3961 18.1381L20.6689 18.3686C20.701 18.1913 20.7766 18.0789 20.9137 18.0038C21.2186 17.8372 21.8016 17.8654 22.2997 18.071C24.0139 18.778 25.891 21.498 26.5195 22.7665C24.9484 22.7232 22.4451 22.1051 21.1782 21.0386C20.708 20.6428 20.465 20.2315 20.4558 19.816L20.445 19.3261L19.9704 19.2039C19.1991 19.0053 16.8577 18.7073 15.3081 19.6995L16.0056 20.7889C16.8954 20.2192 18.3698 20.2457 19.2318 20.3753C19.3776 20.9735 19.7504 21.5277 20.3451 22.0283C21.9484 23.3779 24.9142 24.0587 26.7266 24.0586C27.0057 24.0586 27.2578 24.0425 27.4729 24.0101L27.9127 23.944L28.0084 23.5097C28.1926 22.6741 26.8454 20.7423 26.4281 20.1701C25.7286 19.211 24.3262 17.5075 22.793 16.8751ZM30.8653 12.7777C30.189 15.0178 28.6338 16.8175 25.9715 18.4406L25.2982 17.336C27.2164 16.1666 28.4828 14.919 29.2037 13.4716C25.079 14.2543 19.5622 14.3204 17.8444 14.3204C13.8795 14.3204 10.0076 13.883 6.64713 13.0554L6.20242 12.9458L6.158 12.4901C6.13608 12.2652 6.12501 12.0386 6.12501 11.8165C6.12501 9.38974 7.36869 7.12051 9.62685 5.42695C11.8293 3.77506 14.7477 2.86536 17.8444 2.86536C23.4501 2.86536 28.2744 5.89675 29.3447 10.082C29.4121 10.1343 29.5703 10.2151 29.6793 10.2707C30.236 10.5548 31.3934 11.1453 30.8653 12.7777ZM8.90565 12.2231C9.04213 11.0295 9.53026 9.78775 10.3178 8.65475C11.0804 7.5574 12.0437 6.66588 13.0106 6.15166V5.0329C9.6893 6.31487 7.41864 8.87474 7.41864 11.8166C7.41864 11.8476 7.41892 11.8787 7.41943 11.91C7.90475 12.0226 8.40085 12.127 8.90565 12.2231ZM17.1976 13.0227L17.1974 9.29459L13.6786 7.26288C12.2221 8.01354 10.4009 10.1566 10.1818 12.445C12.4056 12.7966 14.7778 12.993 17.1976 13.0227ZM21.3844 6.13032V4.6162C20.2573 4.31616 19.0598 4.15898 17.8444 4.15898C16.6023 4.15898 15.4099 4.31939 14.3042 4.61347V6.13039L17.8442 8.17431L21.3844 6.13032ZM25.9024 12.6329C25.6269 10.4181 23.6108 8.05846 22.06 7.23399L18.491 9.29459L18.4912 13.0241C20.7768 13.0058 23.4658 12.8899 25.9024 12.6329ZM29.0913 11.423C28.7101 11.2284 28.2357 10.9864 28.1032 10.4493C27.6788 8.73086 26.4413 7.15192 24.6187 6.00318C24.0193 5.62545 23.3678 5.30168 22.678 5.03563V6.09891C24.5258 7.0968 26.8537 9.75972 27.1873 12.4806C28.0977 12.3596 28.9515 12.2158 29.7091 12.0466C29.7259 11.7612 29.5407 11.6523 29.0913 11.423Z" fill="#101829"/>
</svg>
