<svg width="45" height="53" viewBox="0 0 45 53" fill="none" xmlns="http://www.w3.org/2000/svg"><path d="M43 21.29c0 11.062-13.748 24.065-18.727 28.41a2.741 2.741 0 01-3.585.044C15.677 45.569 2 33.09 2 21.29 2 10.636 11.178 2 22.5 2S43 10.636 43 21.29z" fill="#A72755"/><ellipse cx="22.5" cy="21.211" rx="17.5" ry="16.4" fill="#fff"/><path d="M17.55 11.309a1 1 0 00-.78.375l-2.55 3.186a1 1 0 00-.22.625v11.152c0 .71.301 1.376.814 1.856a2.76 2.76 0 001.886.737h11.9a2.76 2.76 0 001.886-.737c.513-.48.814-1.147.814-1.856V15.495a1 1 0 00-.22-.625l-2.55-3.186a1 1 0 00-.78-.375h-10.2zM15 15.495h15.3" stroke="#A72755" stroke-width="2" stroke-linecap="round" stroke-linejoin="round"/><mask id="a" maskUnits="userSpaceOnUse" x="17.25" y="18.274" width="11" height="8" fill="#000"><path fill="#fff" d="M17.25 18.274h11v8h-11z"/><path d="M26.05 20.274c0 .845-.358 1.656-.996 2.253a3.52 3.52 0 01-2.404.934 3.52 3.52 0 01-2.404-.934 3.088 3.088 0 01-.996-2.253"/></mask><path d="M28.05 20.274a2 2 0 10-4 0h4zm-5.4 3.187v2-2zm-1.4-3.187a2 2 0 10-4 0h4zm2.8 0c0 .271-.114.56-.363.794l2.735 2.919a5.088 5.088 0 001.628-3.713h-4zm-.363.794a1.52 1.52 0 01-1.037.393v4a5.52 5.52 0 003.772-1.474l-2.735-2.919zm-1.037.393a1.52 1.52 0 01-1.037-.393l-2.735 2.919a5.519 5.519 0 003.772 1.474v-4zm-1.037-.393a1.09 1.09 0 01-.363-.794h-4a5.09 5.09 0 001.628 3.713l2.735-2.919z" fill="#A72755" mask="url(#a)"/><path d="M24.925 50.266c2.509-2.181 7.244-6.547 11.36-11.774C40.368 33.309 44 27.082 44 21.212 44 9.988 34.312 1 22.5 1S1 9.989 1 21.211c0 6.23 3.604 12.505 7.685 17.644 4.109 5.174 8.84 9.37 11.37 11.469a3.74 3.74 0 004.87-.058z" stroke="#FFC700" stroke-width="2"/></svg>