<svg width="31" height="37" viewBox="0 0 31 37" fill="none" xmlns="http://www.w3.org/2000/svg"><path d="M30.833 14.506c0 8.019-9.601 17.39-13.65 20.985a2.701 2.701 0 01-3.57.043C9.542 32.075 0 23.054 0 14.506 0 6.495 6.902 0 15.417 0c8.514 0 15.416 6.495 15.416 14.506z" fill="#A72755"/><ellipse cx="15.418" cy="14.448" rx="13.161" ry="12.333" fill="#fff"/><path d="M11.691 6.752a1 1 0 00-.78.376L8.992 9.524a1 1 0 00-.22.625v8.386c0 .605.257 1.17.691 1.577l.684-.73-.684.73a2.323 2.323 0 001.588.621h8.95c.583 0 1.155-.216 1.587-.62a2.16 2.16 0 00.69-1.578V10.15a1 1 0 00-.219-.625l-1.917-2.396a1 1 0 00-.781-.376h-7.67zm-1.918 3.397H21.28" stroke="#A72755" stroke-width="2" stroke-linecap="round" stroke-linejoin="round"/><mask id="a" maskUnits="userSpaceOnUse" x="10.969" y="11.743" width="10" height="7" fill="#000"><path fill="#fff" d="M10.969 11.743h10v7h-10z"/><path d="M18.083 13.743c0 .635-.27 1.245-.75 1.694-.479.45-1.13.702-1.807.702a2.646 2.646 0 01-1.808-.702 2.322 2.322 0 01-.75-1.694"/></mask><path d="M20.083 13.743a2 2 0 00-4 0h4zm-4.557 2.396v2-2zm-.557-2.396a2 2 0 00-4 0h4zm1.114 0c0 .062-.025.15-.117.235l2.735 2.919a4.322 4.322 0 001.382-3.154h-4zm-.117.235a.648.648 0 01-.44.161v4a4.647 4.647 0 003.175-1.242l-2.735-2.92zm-.44.161a.648.648 0 01-.44-.161l-2.736 2.919a4.647 4.647 0 003.176 1.242v-4zm-.44-.161a.325.325 0 01-.117-.235h-4c0 1.21.514 2.34 1.381 3.154l2.735-2.92z" fill="#A72755" mask="url(#a)"/></svg>