<svg width="63" height="51" viewBox="0 0 63 51" fill="none" xmlns="http://www.w3.org/2000/svg"><path d="M51.406 27.228c-2.947 0-5.603 1.16-7.612 3.025h-.838c1.931-1.485 3.494-3.192 4.61-5.068h.346c6.251 0 11.342-5.09 11.342-11.34V8.731a5.16 5.16 0 00-5.158-5.157H46.63l-.045-.212a3.96 3.96 0 00-3.83-3.035H16.646c-1.808 0-3.415 1.283-3.828 3.036l-.045.212H5.305A5.16 5.16 0 00.148 8.732v5.112c0 6.251 5.09 11.341 11.341 11.341h.425c.368.614.703 1.24 1.172 1.82 2.78 3.505 7.043 6.083 11.597 7.21a16.697 16.697 0 01-1.752 7.089h-3.818a4.488 4.488 0 000 8.974h29.324c.76 0 1.462-.245 2.11-.636.29.022.57.09.86.09 6.183 0 11.251-5.035 11.251-11.252 0-6.218-5.034-11.252-11.252-11.252zm7.088 16.755l-2.6-2.601a5.28 5.28 0 00.748-1.786h3.672a8.85 8.85 0 01-1.82 4.387zm-12.602 1.574l2.6-2.601a5.241 5.241 0 001.798.748v3.672a9.034 9.034 0 01-4.398-1.82zm-11.352-3.45a1.856 1.856 0 01-1.853-1.852c0-1.027.826-1.853 1.853-1.853h5.615v.066c0 1.284.256 2.49.658 3.64H34.54zm-1.853-7.78c0-1.015.826-1.853 1.853-1.853h7.378a10.984 10.984 0 00-1.529 3.706h-5.85a1.856 1.856 0 01-1.852-1.853zm18.708 7.267a3.135 3.135 0 01-3.125-3.126 3.127 3.127 0 013.125-3.125 3.127 3.127 0 013.126 3.125 3.135 3.135 0 01-3.126 3.126zm-8.908-4.242a8.887 8.887 0 011.82-4.398l2.6 2.601a5.28 5.28 0 00-.747 1.786h-3.672v.011zm11.81-3.37a5.242 5.242 0 00-1.797-.749v-3.672a8.87 8.87 0 014.398 1.82l-2.6 2.6zm-4.03-.749a5.431 5.431 0 00-1.796.748l-2.601-2.6a8.996 8.996 0 014.387-1.82v3.672h.01zm-7.79 6.352h3.672a5.43 5.43 0 00.748 1.797l-2.601 2.6a8.991 8.991 0 01-1.82-4.397zM52.5 43.704a5.43 5.43 0 001.797-.748l2.601 2.6a8.99 8.99 0 01-4.398 1.82v-3.672zm4.12-6.352a5.277 5.277 0 00-.749-1.786l2.601-2.6a8.99 8.99 0 011.82 4.398h-3.673v-.012zM49.541 17.16a12.951 12.951 0 00-.29-2.155l-.882-3.795h3.215v2.623c0 1.507-.804 2.746-2.043 3.327zm4.52-11.364a2.927 2.927 0 012.925 2.925v5.112c0 4.755-3.683 8.629-8.338 9.03a13.92 13.92 0 00.826-3.404c2.534-.692 4.342-2.869 4.342-5.626v-3.74A1.12 1.12 0 0052.7 8.977h-4.844l-.737-3.17h6.943v-.01zm-43.934 9.21c-.168.725-.19 1.45-.246 2.176-1.272-.58-2.098-1.808-2.098-3.338v-2.623h3.214l-.881 3.795.01-.01zM2.38 13.843V8.732a2.927 2.927 0 012.924-2.925h6.944l-.737 3.17H6.656a1.12 1.12 0 00-1.116 1.117v3.74c0 2.779 1.83 4.977 4.398 5.647.134 1.15.413 2.277.837 3.394-4.688-.369-8.405-4.253-8.405-9.042l.01.011zM14.826 25.62c-1.719-2.166-3.55-5.67-2.523-10.102l2.702-11.643a1.717 1.717 0 011.652-1.317h26.097c.782 0 1.474.547 1.652 1.317L47.11 15.52c1.585 6.809-3.394 12.155-8.216 14.745h-4.33c-1.608 0-2.97.96-3.64 2.31-.402.023-.815.068-1.205.068-5.648 0-11.486-2.757-14.869-7.01l-.022-.011zm12.055 9.019c.938.134 1.876.223 2.813.223.28 0 .58-.033.86-.045.123.972.536 1.853 1.217 2.49-.804.748-1.318 1.786-1.318 2.969 0 .368.123.703.212 1.05h-5.28c.76-1.764 1.374-4.053 1.485-6.676l.011-.011zM16.86 45.79a2.263 2.263 0 012.254-2.255h12.39c-.624.715-1.037 1.63-1.037 2.657 0 .68.2 1.284.502 1.853H19.125a2.263 2.263 0 01-2.255-2.255h-.011zm17.68 2.255a1.856 1.856 0 01-1.852-1.853c0-1.027.826-1.853 1.853-1.853h7.311c1.038 1.674 2.032 2.668 3.717 3.695H34.551l-.011.01z" fill="#42AB10"/></svg>