<svg width="56" height="56" viewBox="0 0 56 56" fill="none" xmlns="http://www.w3.org/2000/svg"><path d="M27.99 55.858c7.434 0 14.42-2.898 19.685-8.162a27.774 27.774 0 008.112-18.277 1.253 1.253 0 00-1.175-1.308 1.253 1.253 0 00-1.308 1.175 25.292 25.292 0 01-7.4 16.638c-4.785 4.785-11.159 7.434-17.93 7.434-6.771 0-13.145-2.633-17.93-7.434-9.883-9.883-9.883-25.975 0-35.859C18.472 1.64 31.585.231 41.55 6.572L38.753 10l8.029-.811-.811-8.03-2.831 3.477C32.163-2.517 17.61-1.01 8.289 8.31c-10.86 10.86-10.86 28.509 0 39.37 5.282 5.28 12.268 8.178 19.702 8.178z" fill="#42AB10"/><path d="M41.12 22.283c0-.016 0-.033-.017-.033 0-.033-.016-.05-.016-.082 0-.017-.017-.05-.017-.067 0-.016-.016-.033-.016-.05a.89.89 0 00-.116-.215l-5.265-7.731a1.222 1.222 0 00-1.026-.546H21.303a1.22 1.22 0 00-1.026.546l-5.265 7.715c-.05.066-.083.149-.116.215 0 .017-.016.033-.016.05-.017.016-.017.05-.017.066 0 .033-.016.05-.016.083 0 .016 0 .033-.017.033a1.275 1.275 0 00-.033.248v18.691a1.25 1.25 0 001.241 1.242h23.857a1.25 1.25 0 001.241-1.242V22.532c0-.1 0-.182-.016-.249zm-19.155-6.241h12.02l3.559 5.231H18.389l3.576-5.231zm16.688 23.94H17.297v-16.21H38.67V39.98h-.017z" fill="#42AB10"/></svg>