<svg width="41" height="41" viewBox="0 0 41 41" fill="none" xmlns="http://www.w3.org/2000/svg"><path d="M12.347 12.347v1.5h1.5v-1.5h-1.5zm0 15.918h1.5v-1.5h-1.5v1.5zm15.918 0v-1.5h-1.5v1.5h1.5zm0-15.918h-1.5v1.5h1.5v-1.5zM13.847 5a1.5 1.5 0 011.5-1.5v-3a4.5 4.5 0 00-4.5 4.5h3zm0 7.347V5h-3v7.347h3zM5 13.847h7.347v-3H5v3zm-1.5 1.5a1.5 1.5 0 011.5-1.5v-3a4.5 4.5 0 00-4.5 4.5h3zm0 9.918v-9.918h-3v9.918h3zm1.5 1.5a1.5 1.5 0 01-1.5-1.5h-3a4.5 4.5 0 004.5 4.5v-3zm7.347 0H5v3h7.347v-3zm1.5 8.847v-7.347h-3v7.347h3zm1.5 1.5a1.5 1.5 0 01-1.5-1.5h-3a4.5 4.5 0 004.5 4.5v-3zm9.918 0h-9.918v3h9.918v-3zm1.5-1.5a1.5 1.5 0 01-1.5 1.5v3a4.5 4.5 0 004.5-4.5h-3zm0-7.347v7.347h3v-7.347h-3zm8.847-1.5h-7.347v3h7.347v-3zm1.5-1.5a1.5 1.5 0 01-1.5 1.5v3a4.5 4.5 0 004.5-4.5h-3zm0-9.918v9.918h3v-9.918h-3zm-1.5-1.5a1.5 1.5 0 011.5 1.5h3a4.5 4.5 0 00-4.5-4.5v3zm-7.347 0h7.347v-3h-7.347v3zM26.765 5v7.347h3V5h-3zm-1.5-1.5a1.5 1.5 0 011.5 1.5h3a4.5 4.5 0 00-4.5-4.5v3zm-9.918 0h9.918v-3h-9.918v3z" fill="#42AB10"/></svg>