<svg width="65" height="43" viewBox="0 0 65 43" fill="none" xmlns="http://www.w3.org/2000/svg"><path d="M9.593 20.72v14.929c0 .76.63 1.389 1.389 1.389h4.65c.758 2.89 3.37 5.02 6.482 5.02a6.698 6.698 0 006.483-5.02H46.51c.76 2.89 3.371 5.02 6.483 5.02a6.698 6.698 0 006.483-5.02h3.445a1.4 1.4 0 001.39-1.39V22.554c0-.297-.093-.574-.26-.797l-4.816-6.797a1.388 1.388 0 00-1.13-.593h-10.04V9.994a1.4 1.4 0 00-1.389-1.389H21.078C20.114 3.993 16.02.511 11.13.511 5.518.51.96 5.067.96 10.68c0 5.075 3.761 9.298 8.633 10.04zm12.521 18.56a3.929 3.929 0 01-3.927-3.928 3.929 3.929 0 013.927-3.927 3.929 3.929 0 013.927 3.927 3.94 3.94 0 01-3.927 3.927zm30.878 0a3.929 3.929 0 01-3.927-3.928 3.929 3.929 0 013.927-3.927 3.929 3.929 0 013.927 3.927 3.929 3.929 0 01-3.927 3.927zm8.539-16.264v.222h-7.557v-6.075h3.408l4.149 5.853zm-10.336-5.853v7.465a1.4 1.4 0 001.39 1.389h8.946v8.242h-1.926a6.71 6.71 0 00-6.613-5.612 6.67 6.67 0 00-4.927 2.167V17.163h3.13zm-5.909 17.115h-16.56a6.71 6.71 0 00-6.612-5.612 6.71 6.71 0 00-6.613 5.612h-3.13V20.775c4.798-.593 8.558-4.52 8.891-9.373h24.024v22.876zM11.13 3.308c4.075 0 7.39 3.315 7.39 7.39 0 4.075-3.315 7.39-7.39 7.39-4.075 0-7.39-3.315-7.39-7.39 0-4.075 3.315-7.39 7.39-7.39z" fill="#42AB10"/><path d="M9.276 13.847a1.388 1.388 0 001.964 0l4.353-4.353a1.397 1.397 0 000-1.963 1.398 1.398 0 00-1.964 0l-3.371 3.371-1.63-1.63a1.398 1.398 0 00-1.963 0 1.398 1.398 0 000 1.963l2.611 2.612z" fill="#42AB10"/></svg>