<svg width="46" height="46" viewBox="0 0 46 46" fill="none" xmlns="http://www.w3.org/2000/svg"><path d="M43.491 10.47H29.165V2.511c0-.88-.712-1.592-1.592-1.592H2.103a1.591 1.591 0 00-1.59 1.592v41.388c0 .88.712 1.592 1.592 1.592H43.49a1.59 1.59 0 001.592-1.592V12.062a1.59 1.59 0 00-1.592-1.592zM3.695 4.103h22.286v38.204h-4.775V37.53a1.59 1.59 0 00-1.592-1.591h-9.551a1.59 1.59 0 00-1.592 1.591v4.776H3.695V4.103zm7.96 38.204v-3.184h6.367v3.184h-6.367zm17.51 0v-1.592h3.184a1.59 1.59 0 100-3.184h-3.184v-4.775h3.184a1.59 1.59 0 100-3.184h-3.184V13.654H41.9v12.735h-3.184a1.59 1.59 0 100 3.183H41.9v4.776h-3.184a1.59 1.59 0 100 3.183H41.9v4.776H29.165z" fill="#42AB10"/><path d="M11.654 13.654h1.592v1.592a1.591 1.591 0 103.184 0v-1.592h1.592a1.591 1.591 0 100-3.184H16.43V8.878a1.591 1.591 0 10-3.184 0v1.592h-1.592a1.591 1.591 0 100 3.184zM6.88 23.205h3.185a1.591 1.591 0 100-3.184H6.88a1.591 1.591 0 100 3.184zm11.143-1.592c0 .88.713 1.592 1.592 1.592H22.8a1.591 1.591 0 100-3.184h-3.184c-.879 0-1.592.712-1.592 1.592zm-7.958 9.551a1.591 1.591 0 100-3.184H6.88a1.591 1.591 0 100 3.184h3.184zm12.734-3.184h-3.184a1.591 1.591 0 100 3.184H22.8a1.591 1.591 0 100-3.184zm17.51-4.775v-6.367a1.59 1.59 0 00-1.592-1.592H32.35c-.88 0-1.592.712-1.592 1.592v6.367c0 .88.712 1.592 1.592 1.592h6.367a1.59 1.59 0 001.592-1.592zm-3.184-1.592h-3.184V18.43h3.184v3.184z" fill="#42AB10"/></svg>