<svg width="50" height="45" viewBox="0 0 50 45" fill="none" xmlns="http://www.w3.org/2000/svg"><path d="M49.568 13.967L44.93 4.828V1.204a.964.964 0 00-.964-.964H6.033a.964.964 0 00-.963.964v3.625L.432 13.967a.964.964 0 00-.104.436v2.37a5.713 5.713 0 004.742 5.623v20.249h-.987a.964.964 0 100 1.927h41.834a.964.964 0 000-1.927h-.987V22.396a5.714 5.714 0 004.742-5.622v-2.371a.964.964 0 00-.104-.436zm-42.57-11.8h36.005v1.929H6.997V2.168zM30.7 14.307l-.84-8.283h5.806l2.595 8.523v2.228a3.782 3.782 0 01-3.778 3.778 3.782 3.782 0 01-3.778-3.778v-2.371a.987.987 0 00-.005-.097zm-1.922.146v2.322A3.782 3.782 0 0125 20.552a3.782 3.782 0 01-3.778-3.778v-2.322l.856-8.429h5.845l.855 8.429zm-8.638-8.43l-.84 8.283a.926.926 0 00-.005.097v2.37a3.782 3.782 0 01-3.778 3.779 3.782 3.782 0 01-3.778-3.778v-2.228l2.595-8.523h5.806zM2.256 16.773v-2.14l4.37-8.61h5.693l-2.466 8.1a.965.965 0 00-.042.28v2.37a3.782 3.782 0 01-3.778 3.779 3.782 3.782 0 01-3.777-3.778zm36.892 25.872h-5.783V35.9h.964a.964.964 0 100-1.928h-.964v-6.746h5.783v15.42zm3.855 0h-1.928V26.262a.964.964 0 00-.964-.964H9.888a.964.964 0 00-.963.964v13.492c0 .532.431.964.963.964h21.55v1.927H6.998V22.396a5.716 5.716 0 003.777-2.453 5.704 5.704 0 004.742 2.536 5.705 5.705 0 004.741-2.536A5.704 5.704 0 0025 22.479a5.704 5.704 0 004.741-2.536 5.705 5.705 0 004.742 2.536 5.704 5.704 0 004.742-2.536 5.715 5.715 0 003.778 2.453v20.25zm-22.751-15.42h3.357l-1.832 1.833a.964.964 0 001.363 1.363l3.195-3.196h5.103V38.79H10.852v-2.165l9.4-9.4zm-9.4 6.674v-6.674h6.674L10.852 33.9zm36.892-17.125a3.782 3.782 0 01-3.777 3.778 3.782 3.782 0 01-3.778-3.778v-2.371a.96.96 0 00-.042-.28l-2.466-8.1h5.694l4.37 8.61v2.14z" fill="#42AB10"/><path d="M20.483 32.677a.961.961 0 00.68-.28l.016-.016a.964.964 0 10-1.36-1.367l-.015.016a.964.964 0 00.68 1.647zM1.315 42.645h-.023a.964.964 0 000 1.928h.023a.964.964 0 000-1.928zm47.395 0h-.024a.964.964 0 000 1.928h.023a.964.964 0 000-1.928z" fill="#42AB10"/></svg>